<svg width="229" height="229" viewBox="0 0 229 229" fill="none" xmlns="http://www.w3.org/2000/svg">
<path d="M88.9999 48.0002C88.9572 36.2387 88.9999 43.5002 88.9999 43.5002L139.5 37.0002C139.5 37.0002 137.95 30.3597 141 41.0002C144.05 51.6408 89.0427 59.7618 88.9999 48.0002Z" fill="white" stroke="black" stroke-width="0.5"/>
<path d="M153.224 47.1688C154.077 53.5803 137.973 60.7129 117.492 63.438C97.0107 66.1631 79.6011 63.4898 78.748 57.0783C78.3466 54.0611 82.4137 50.4493 88.8657 47.6717L88.9158 48.0489C89.2169 50.3118 96.6223 54.7 115.986 52.1235C135.35 49.547 141.35 43.3751 141.049 41.1122L140.999 40.7351C147.953 41.7289 152.823 44.1516 153.224 47.1688ZM139.702 36.6855C138.297 26.1253 125.316 22.7106 119.73 23.4539C115.261 24.0484 117.841 25.3559 113 26C108.159 26.6441 109.198 24.3593 104.73 24.9539C99.1441 25.6971 87.6533 32.8638 89.0584 43.424C91.644 45.7668 99.5432 48.1701 115.183 46.0891C130.873 44.3853 137.819 39.6228 139.702 36.6855Z" fill="black"/>
</svg>
