<svg width="229" height="229" viewBox="0 0 229 229" fill="none" xmlns="http://www.w3.org/2000/svg">
<path d="M97 41.2264L97.8864 33.0755L112.955 29L134.67 31.2642L136 40.3208L108.966 53L102.318 51.6415L97 41.2264Z" fill="#C7C7C7" stroke="black" stroke-linejoin="round"/>
<path d="M117.657 22.192C116.918 21.936 116.082 21.936 115.343 22.192L94.7804 29.317C93.7003 29.6913 93 30.5499 93 31.5C93 32.4501 93.7003 33.3087 94.7804 33.683L102.548 36.3745C102.83 36.1158 103.185 35.905 103.593 35.7635L115.343 31.6921C116.834 31.1754 118.561 31.7339 119.2 32.9395C119.839 34.1451 119.148 35.5413 117.657 36.058L109.646 38.834L115.343 40.808C116.082 41.064 116.918 41.064 117.657 40.808L138.22 33.683C139.3 33.3087 140 32.4501 140 31.5C140 30.5499 139.3 29.6913 138.22 29.317L117.657 22.192Z" fill="#0F172A"/>
<path d="M96.8483 39.5673L101.812 41.2874V51.0288C100.806 50.8442 99.777 50.706 98.7302 50.6173C97.3503 50.5003 96.2597 49.6186 96.115 48.5029C95.9976 47.5974 95.9375 46.6788 95.9375 45.7496C95.9375 43.6204 96.253 41.5498 96.8483 39.5673Z" fill="#0F172A"/>
<path d="M114.444 56.6098C112.467 55.0431 110.189 53.7262 107.688 52.7209V43.3231L113.029 45.1738C115.245 45.942 117.755 45.942 119.971 45.1738L136.152 39.5673C136.747 41.5498 137.062 43.6204 137.062 45.7496C137.062 46.6788 137.002 47.5974 136.885 48.5029C136.74 49.6186 135.65 50.5003 134.27 50.6173C128.181 51.1335 122.705 53.3215 118.556 56.6098C117.414 57.5151 115.586 57.5151 114.444 56.6098Z" fill="#0F172A"/>
<path d="M104.75 60C106.372 60 107.688 58.9367 107.688 57.625V52.7209C105.841 51.9789 103.872 51.4066 101.812 51.0288V57.625C101.812 58.9367 103.128 60 104.75 60Z" fill="#0F172A"/>
<path d="M101.812 51.0288V41.2874L96.8483 39.5673C96.253 41.5498 95.9375 43.6204 95.9375 45.7496C95.9375 46.6788 95.9976 47.5974 96.115 48.5029C96.2597 49.6186 97.3503 50.5003 98.7302 50.6173C99.777 50.706 100.806 50.8442 101.812 51.0288ZM101.812 51.0288C103.872 51.4066 105.841 51.9789 107.688 52.7209M101.812 51.0288V57.625C101.812 58.9367 103.128 60 104.75 60C106.372 60 107.688 58.9367 107.688 57.625V52.7209M107.688 52.7209C110.189 53.7262 112.467 55.0431 114.444 56.6098C115.586 57.5151 117.414 57.5151 118.556 56.6098C122.705 53.3215 128.181 51.1335 134.27 50.6173C135.65 50.5003 136.74 49.6186 136.885 48.5029C137.002 47.5974 137.062 46.6788 137.062 45.7496C137.062 43.6204 136.747 41.5498 136.152 39.5673L119.971 45.1738C117.755 45.942 115.245 45.942 113.029 45.1738L107.688 43.3231V52.7209ZM115.343 22.192C116.082 21.936 116.918 21.936 117.657 22.192L138.22 29.317C139.3 29.6913 140 30.5499 140 31.5C140 32.4501 139.3 33.3087 138.22 33.683L117.657 40.808C116.918 41.064 116.082 41.064 115.343 40.808L109.646 38.834L117.657 36.058C119.148 35.5413 119.839 34.1451 119.2 32.9395C118.561 31.7339 116.834 31.1754 115.343 31.6921L103.593 35.7635C103.185 35.905 102.83 36.1158 102.548 36.3745L94.7804 33.683C93.7003 33.3087 93 32.4501 93 31.5C93 30.5499 93.7003 29.6913 94.7804 29.317L115.343 22.192Z" stroke="black" stroke-linecap="round" stroke-linejoin="round"/>
</svg>
