<svg width="229" height="229" viewBox="0 0 229 229" fill="none" xmlns="http://www.w3.org/2000/svg">
<path d="M58.3758 28.9282C76.534 11.5715 88.9756 11.9049 133.5 36.171C133.5 36.171 73.0238 61.2894 66.8407 51.5292C60.6576 41.769 65.9522 48.6178 70.1595 33.8649C74.3667 19.112 58.3758 28.9282 58.3758 28.9282Z" fill="#FF5151" stroke="black" stroke-width="1.5" stroke-linecap="round" stroke-linejoin="round"/>
<path d="M134.853 46.8565C131.104 48.6756 106.563 54.2872 88.3224 57.5636C79.9757 53.828 75.5766 52.6959 68.9218 54.7648C68.9218 54.7648 65.1321 52.7027 65.8472 50.6586C66.5624 48.6145 107.574 38.8847 133.256 35.4171C133.256 35.4171 138.601 45.0375 134.853 46.8565Z" fill="white" stroke="black" stroke-width="1.5" stroke-linecap="round"/>
<path d="M57.9765 20.2014C60.1874 20.1536 61.1848 21.0495 62.5602 24.1051C64.1723 26.6408 64.7417 28.108 63.5281 31.0379C62.4509 32.9796 61.3475 33.6583 58.3574 33.7791C55.2958 33.8428 52.0693 32.1326 52.3572 30.578C52.645 29.0233 49.25 26.3929 51.3202 23.15C53.3977 19.9371 55.071 20.1444 57.9765 20.2014Z" fill="#F9F9F9" stroke="black" stroke-width="1.5" stroke-linecap="round" stroke-linejoin="round"/>
<path d="M75.3172 28.6444C76.8289 30.1908 78.9488 31.3832 80.4439 32.9382C80.6897 33.1939 80.8551 33.389 80.2439 33.3949C79.4275 33.4028 78.5952 33.4884 77.7771 33.5667C76.718 33.6681 73.5444 34.0261 74.6033 33.9209C75.0662 33.8749 75.4188 34.0889 75.7168 34.2883C76.5259 34.8299 77.337 35.3717 78.1748 35.8904C78.722 36.2292 79.2778 36.5644 79.7723 36.9433C79.8854 37.03 80.4448 37.2469 80.0135 37.3071C78.5117 37.5167 77.0099 37.7264 75.5081 37.936C75.1225 37.9899 74.7368 38.0437 74.3512 38.0975C73.9694 38.1508 75.164 38.0756 75.4677 38.224C76.1781 38.5711 77.1422 38.9236 77.6141 39.4304" stroke="#AC0909" stroke-width="2" stroke-linecap="round"/>
</svg>
