<svg width="229" height="229" viewBox="0 0 229 229" fill="none" xmlns="http://www.w3.org/2000/svg">
<path d="M141.25 49.7245C132.388 42.754 101.934 45.1238 88.7007 56.6296C80.3541 52.8939 72.7505 49.7245 65.2505 58.2373C65.2505 58.2373 63.7008 54.2118 66.2256 49.7245C68.7504 45.2372 124.25 32.2369 133.634 34.483C143.018 36.7292 150.113 56.6951 141.25 49.7245Z" fill="#495CFD" stroke="black" stroke-width="1.5" stroke-linecap="round"/>
<path d="M88.7504 26.2375C107.25 18.2441 128.25 34.2373 128.25 34.2373C104.807 37.5809 99.2627 38.6234 69.7505 47.2376C69.7505 47.2376 70.2504 34.2309 88.7504 26.2375Z" fill="#5A6BFF" stroke="black" stroke-width="1.5" stroke-linejoin="round"/>
<path d="M127.25 34.7373L130.25 45.7373" stroke="black" stroke-linejoin="round"/>
<path d="M129.25 34.2373L132.25 46.2373" stroke="black" stroke-linejoin="round"/>
<path d="M81.2505 44.2373L84.2505 55.2373" stroke="black" stroke-linejoin="round"/>
<path d="M78.2505 44.2373L81.2505 54.2373" stroke="black" stroke-linejoin="round"/>
<path d="M103.25 38.2373L107.25 48.2373" stroke="black" stroke-linejoin="round"/>
<path d="M100.75 39.2373L104.25 48.7373" stroke="black" stroke-linejoin="round"/>
<path d="M142.75 43.2373L143.75 50.7373" stroke="black" stroke-linejoin="round"/>
</svg>
