<svg width="229" height="229" viewBox="0 0 229 229" fill="none" xmlns="http://www.w3.org/2000/svg">
<path d="M166.618 69.6818L162.008 67.1265L158.924 69.4939L160.372 72.1578L164.437 72.0181L166.696 71.9405L166.618 69.6818Z" fill="#C20000" stroke="black"/>
<path d="M162.911 67.0955L149.549 59.8659L132.462 62.7144L112.386 57.5246L97.8541 55.7625L121.371 68.9751L132.367 73.12L146.308 70.8319L162.911 67.0955Z" fill="#FF4E4E"/>
<path d="M135.332 27.7904L127.155 26.7145L106.829 27.4129L98.8693 32.6615L93.6197 37.8169L90.0357 51.9607L101.328 51.5727L123.99 53.0554L131.341 56.421L149.378 54.8967L149.566 47.2015L145.595 36.9356L135.332 27.7904Z" fill="#FF4E4E"/>
<path d="M149.097 59.8814L148.88 53.557L131.31 55.5175L114.427 51.1226L90.0356 51.9607L90.1287 54.6712L120.594 59.504L134.72 62.6368L149.097 59.8814Z" fill="#FF4E4E"/>
<path d="M98.1768 31.3392C95.731 33.2729 93.6108 35.3209 92.0107 38.0463L91.2509 39.5016C90.532 40.8405 89.8891 42.5342 89.6404 44.0367L88.3872 54.2297C88.3722 54.3695 88.3298 54.5699 88.3548 54.7088C88.6613 56.4155 91.9017 56.5842 93.0828 56.7386C96.2113 57.1478 99.1609 58.0712 102.002 59.4398L116.221 67.5466C126.467 73.5494 132.483 75.6939 144.355 72.8354L152.47 70.6249C152.843 70.5364 155.016 69.9643 155.301 70.052C155.427 70.0905 155.61 70.2372 155.726 70.308L157.132 71.1939C159.115 72.4013 161.196 73.3234 163.508 73.604C165.155 73.8038 167.23 73.8249 168.055 72.0435C168.721 70.6034 168.132 69.7162 167.064 68.8322L166.034 68.01C161.853 64.7987 155.513 61.1896 150.764 58.9238L150.816 48.6145C150.349 38.9569 142.963 29.3691 133.913 26.2429C132.411 25.7238 129.247 24.8576 127.612 24.9577L127.394 24.6853C126.969 24.0389 126.567 23.9401 125.836 23.8362L123.256 23.5112C122.957 23.4754 122.463 23.3583 122.175 23.433L122.127 23.4466C121.701 23.5561 121.399 23.7147 121.156 24.0942L121.131 24.1338C120.971 24.3656 120.908 24.6164 120.844 24.8856L113.314 25.4579C112.027 25.6038 105.702 26.47 104.934 27.4496L104.891 27.5058C104.476 28.0343 104.559 28.9147 105.097 29.329C105.755 29.8345 106.554 29.4857 107.26 29.3037L109.055 28.8856C111.679 28.3547 114.323 28.037 116.986 27.7925L122.509 27.439C123.017 27.4308 123.539 27.4601 124.044 27.4061L118.877 30.8903C115.12 33.5823 110.363 37.208 108.053 41.3298L106.866 43.844C106.608 44.3775 106.514 44.9708 106.373 45.54C105.782 47.9256 108.397 48.1415 108.818 46.6842L109.272 44.9938C110.26 42.2561 112.225 39.8496 114.342 37.8922L115.925 36.5374C118.215 34.5844 120.655 32.8367 123.171 31.1909C124.266 30.4744 125.353 29.6021 126.541 29.0432L128.205 53.2072C127.483 52.8067 126.515 52.5637 125.72 52.3306L121.661 51.348L116.135 50.6611C115.714 50.6286 115.29 50.649 114.868 50.6292L108.841 50.3347L102.567 50.262C98.8674 50.2585 95.1494 50.3463 91.4658 50.7196C91.5685 48.8077 92.01 45.4828 92.4762 43.7005C93.45 39.9779 95.969 36.5498 98.8987 34.1397C99.3174 33.7952 99.819 33.4813 100.191 33.091C100.948 32.2956 100.389 30.7408 99.2162 30.8177L99.1584 30.8222C98.7903 30.8468 98.4656 31.1316 98.1768 31.3392ZM129.849 27.9764C130.825 28.1779 131.812 28.386 132.759 28.701C141.083 31.4693 147.483 39.7652 148.126 48.5126C148.242 50.0843 147.973 51.6503 147.994 53.2278C147.128 53.4253 145.081 53.8325 144.24 53.8973C141.23 54.5464 137.171 54.9934 134.152 55.1614C133.056 55.2224 132.063 55.3791 131.029 54.9392L129.055 27.8635L129.849 27.9764ZM148.068 55.9526L148.081 57.5755C148.089 57.8413 148.215 58.3711 148.105 58.6003L142.439 59.885C133.609 61.7561 130.996 61.2545 122.738 58.6333L117.416 57.1142L108.553 55.1756L101.944 54.3638C101.417 54.3133 100.895 54.3532 100.369 54.3074L94.6287 53.8308L91.7922 53.8L91.2093 53.7864C91.1719 53.6991 91.1845 53.6402 91.2196 53.5534L91.2713 53.456C96.6526 52.8913 102.036 52.9398 107.436 53.0261L112.421 53.1591C113.283 53.1859 114.333 53.2153 115.19 53.284L117.063 53.4836C120.012 53.8336 126.312 54.6419 128.587 56.411C130.253 57.7063 130.398 57.9056 132.762 57.8946L135.583 57.7511L143.611 56.6956C145.097 56.461 146.599 56.2821 148.068 55.9526ZM149.118 61.1914C152.014 62.3822 155.759 64.489 158.369 66.2128C158.649 66.3977 159.065 66.6038 159.291 66.8418C155.429 66.9126 150.37 68.2467 146.721 69.3674C136.009 72.6576 130.275 72.1336 120.327 66.8065L115.624 64.119L104.683 57.7743C104.316 57.5867 103.925 57.4706 103.555 57.297L109.017 57.9857C109.336 58.0417 109.644 58.1383 109.961 58.2007L118.031 60.1216L123.182 61.6193C125.937 62.4658 130.537 63.8629 133.452 63.7688L135.533 63.7207C137.707 63.5696 139.935 63.1627 142.067 62.722L147.158 61.5974C147.449 61.5317 148.917 61.1195 149.118 61.1914ZM163.893 69.3231C163.893 69.3231 164.796 69.2921 165.73 70.1645C166.665 71.037 165.777 71.5198 165.777 71.5198C165.219 71.8701 163.212 71.7558 162.615 71.6284C161.535 71.3371 159.843 69.9146 159.635 69.5206C159.427 69.1266 161.619 68.949 161.619 68.949C161.874 68.9814 163.893 69.3231 163.893 69.3231Z" fill="black"/>
</svg>
