<svg width="229" height="229" viewBox="0 0 229 229" fill="none" xmlns="http://www.w3.org/2000/svg">
<path d="M55.1353 63.4333L59.6548 60.7213L62.8185 62.9813L61.4627 65.6934H57.395H55.1353V63.4333Z" fill="#C20000" stroke="black"/>
<path d="M58.7509 60.7212L71.8576 53.0371L89.032 55.2971L108.918 49.421L123.381 47.1609L100.331 61.1733L89.4839 65.6934L75.4733 63.8853L58.7509 60.7212Z" fill="#FF4E4E"/>
<path d="M84.9644 20.4923L93.0996 19.1362H113.438L121.573 24.1084L126.996 29.0805L131.064 43.0928H119.765L97.1672 45.3529L89.9359 48.969L71.8576 48.0649L71.4056 40.3808L75.0213 29.9845L84.9644 20.4923Z" fill="#FF4E4E"/>
<path d="M72.3096 53.0371V46.7089L89.9359 48.0649L106.658 43.0928H131.064V45.8049L100.783 51.681L86.7722 55.2971L72.3096 53.0371Z" fill="#FF4E4E"/>
<path d="M122.22 22.763C124.73 24.6117 126.92 26.5856 128.612 29.2544L129.422 30.6828C130.186 31.9962 130.887 33.6669 131.187 35.1599L132.789 45.3039C132.809 45.4431 132.859 45.642 132.838 45.7816C132.591 47.4978 129.358 47.7777 128.183 47.9726C125.07 48.4889 122.154 49.5131 119.362 50.9784L105.43 59.5687C95.396 65.9199 89.4567 68.2697 77.4933 65.8206L69.3074 63.8901C68.9313 63.8144 66.7407 63.3173 66.4584 63.4147C66.3344 63.4574 66.1563 63.6104 66.043 63.6851L64.6675 64.6188C62.7275 65.8936 60.6798 66.8865 58.3781 67.2464C56.7396 67.5026 54.6657 67.595 53.7806 65.843C53.065 64.4266 53.6234 63.5197 54.6603 62.5995L55.6612 61.7425C59.7303 58.3895 65.9426 54.5648 70.6107 52.1372L70.2044 41.8358C70.3402 32.1679 77.3923 22.3321 86.3293 18.897C87.8133 18.3266 90.9452 17.3523 92.5826 17.3962L92.7916 17.1164C93.1939 16.4558 93.5924 16.3433 94.3192 16.2143L96.8864 15.8009C97.1842 15.7548 97.6738 15.6209 97.9643 15.6857L98.013 15.6975C98.442 15.7924 98.749 15.9406 99.0055 16.3115L99.0318 16.3502C99.1994 16.5763 99.2705 16.8249 99.3437 17.0917L106.889 17.405C108.18 17.5067 114.531 18.1552 115.332 19.1078L115.378 19.1625C115.811 19.6765 115.758 20.5592 115.234 20.9917C114.595 21.5194 113.783 21.1983 113.072 21.0406L111.264 20.6844C108.622 20.244 105.97 20.0173 103.299 19.8643L97.7681 19.7007C97.2597 19.71 96.7395 19.7572 96.2326 19.7205L101.516 23.0253C105.364 25.5867 110.242 29.0469 112.692 33.0869L113.965 35.5589C114.241 36.0833 114.355 36.673 114.516 37.237C115.189 39.6009 112.582 39.9064 112.112 38.4645L111.6 36.7906C110.518 34.0885 108.472 31.7509 106.289 29.8673L104.66 28.5677C102.305 26.6945 99.806 25.0316 97.2351 23.4732C96.1159 22.7947 95 21.9602 93.7934 21.4424L92.9604 45.6494C93.6682 45.2243 94.6266 44.9482 95.4131 44.6879L99.436 43.5665L104.936 42.6902C105.356 42.6433 105.78 42.6492 106.2 42.6149L112.214 42.1136L118.481 41.8255C122.179 41.6949 125.898 41.655 129.592 41.9016C129.424 39.9943 128.869 36.6866 128.341 34.9213C127.24 31.2344 124.605 27.8948 121.594 25.5867C121.164 25.2568 120.652 24.9603 120.267 24.583C119.483 23.8141 119.988 22.241 121.163 22.2776L121.221 22.2801C121.59 22.292 121.924 22.5655 122.22 22.763ZM90.4506 20.4899C89.4818 20.7247 88.5031 20.9667 87.5676 21.3139C79.3431 24.3665 73.2318 32.8773 72.8894 41.6416C72.8278 43.2164 73.15 44.7722 73.1835 46.3495C74.0559 46.5172 76.1156 46.8538 76.9578 46.8897C79.9884 47.435 84.0606 47.7424 87.0836 47.8066C88.1808 47.8299 89.1786 47.9525 90.1968 47.4773L91.2406 20.3498L90.4506 20.4899ZM73.2032 49.0752L73.2458 50.6976C73.247 50.9636 73.1395 51.4973 73.2568 51.7226L78.9642 52.812C87.8527 54.3788 90.4473 53.7877 98.61 50.8845L103.877 49.1835L112.668 46.9418L119.245 45.9035C119.771 45.8348 120.293 45.8569 120.817 45.793L126.538 45.1196L129.372 44.9913L129.954 44.9577C129.988 44.8692 129.974 44.8108 129.936 44.7252L129.881 44.6297C124.483 44.2501 119.105 44.4835 113.711 44.7551L108.733 45.0593C107.873 45.1157 106.824 45.181 105.971 45.2792L104.105 45.543C101.17 45.994 94.9017 47.0182 92.6882 48.8644C91.0674 50.2161 90.9296 50.4203 88.5666 50.4905L85.7429 50.4439L77.6832 49.6647C76.1899 49.4813 74.6827 49.3541 73.2032 49.0752ZM72.3338 54.347C69.4805 55.6365 65.8095 57.8708 63.26 59.6831C62.9866 59.8776 62.5785 60.0978 62.3604 60.3434C66.2229 60.2816 71.3251 61.4411 75.0099 62.4358C85.8289 65.3563 91.5414 64.6357 101.301 58.9701L105.908 56.1227L116.625 49.4061C116.986 49.2059 117.373 49.0765 117.736 48.8903L112.301 49.7661C111.984 49.8331 111.68 49.9402 111.365 50.0134L103.365 52.2103L98.2693 53.884C95.5451 54.8246 90.9959 56.3788 88.0789 56.3849L85.9979 56.4082C83.8198 56.3319 81.5785 56.0018 79.4328 55.6346L74.306 54.6855C74.0136 54.6298 72.5318 54.2682 72.3338 54.347ZM57.847 62.9813C57.847 62.9813 56.9431 62.9813 56.0391 63.8853C55.1352 64.7893 56.0391 65.2414 56.0391 65.2414C56.609 65.5723 58.6112 65.3892 59.2028 65.2414C60.272 64.9132 61.9146 63.4333 62.1088 63.0324C62.303 62.6316 60.1068 62.5293 60.1068 62.5293C59.8527 62.5704 57.847 62.9813 57.847 62.9813Z" fill="black"/>
</svg>
