<svg width="229" height="229" viewBox="0 0 229 229" fill="none" xmlns="http://www.w3.org/2000/svg">
<path d="M141.743 49.678C124.168 55.3575 112.92 57.94 90.8707 61.7312C88.3243 58.0339 86.6708 56.2647 83.2843 53.8131L87.7717 52.6292C87.7717 52.6292 96.0229 29.6733 107.501 27.5486C118.978 25.4238 133.144 40.6582 133.144 40.6582C133.144 40.6582 136.129 39.2375 138.629 39.2112C141.129 39.1849 141.222 45.1909 141.743 49.678Z" fill="#E0AFFF"/>
<path d="M87.7717 52.6292L83.2843 53.8131C86.6708 56.2647 88.3243 58.0339 90.8707 61.7312C112.92 57.94 124.168 55.3575 141.743 49.678C141.222 45.1909 141.129 39.1849 138.629 39.2112C136.129 39.2375 133.144 40.6582 133.144 40.6582M87.7717 52.6292C87.7717 52.6292 96.0229 29.6733 107.501 27.5486C118.978 25.4238 133.144 40.6582 133.144 40.6582M87.7717 52.6292C105.016 47.5072 114.878 44.8166 133.144 40.6582" stroke="black" stroke-width="1.5"/>
<g filter="url(#filter0_d_110_47281)">
<path d="M117.887 36.6681C118.019 37.0607 118.444 37.272 118.837 37.14C119.229 37.0081 119.441 36.5828 119.309 36.1902L117.887 36.6681ZM112.977 28.5159C115.698 31.2196 116.897 33.7245 117.887 36.6681L119.309 36.1902C118.27 33.1007 116.969 30.368 114.034 27.4519L112.977 28.5159Z" fill="black"/>
</g>
<path d="M128.662 42.3204L131.271 52.2926" stroke="black" stroke-width="1.5" stroke-linejoin="round"/>
<path d="M121.179 43.9019L123.298 54.8795" stroke="black" stroke-width="1.5" stroke-linejoin="round"/>
<path d="M113.196 45.4883L115.815 56.4605" stroke="black" stroke-width="1.5" stroke-linejoin="round"/>
<path d="M106.218 47.5645L108.337 58.5421" stroke="black" stroke-width="1.5" stroke-linejoin="round"/>
<path d="M99.7397 49.6348L101.848 59.6125" stroke="black" stroke-width="1.5" stroke-linejoin="round"/>
<defs>
<filter id="filter0_d_110_47281" x="111.977" y="27.452" width="8.37085" height="11.7274" filterUnits="userSpaceOnUse" color-interpolation-filters="sRGB">
<feFlood flood-opacity="0" result="BackgroundImageFix"/>
<feColorMatrix in="SourceAlpha" type="matrix" values="0 0 0 0 0 0 0 0 0 0 0 0 0 0 0 0 0 0 127 0" result="hardAlpha"/>
<feOffset dy="1"/>
<feGaussianBlur stdDeviation="0.5"/>
<feComposite in2="hardAlpha" operator="out"/>
<feColorMatrix type="matrix" values="0 0 0 0 0 0 0 0 0 0 0 0 0 0 0 0 0 0 0.2 0"/>
<feBlend mode="normal" in2="BackgroundImageFix" result="effect1_dropShadow_110_47281"/>
<feBlend mode="normal" in="SourceGraphic" in2="effect1_dropShadow_110_47281" result="shape"/>
</filter>
</defs>
</svg>
