<svg width="229" height="229" viewBox="0 0 229 229" fill="none" xmlns="http://www.w3.org/2000/svg">
<path d="M173.755 51.3488C166.191 50.4151 162.113 50.771 155.039 51.6301C153.563 51.4524 165.045 55.4826 169.796 53.8786C174.547 52.2747 173.755 51.3488 173.755 51.3488Z" fill="#B18A00" stroke="black" stroke-width="1.5" stroke-linejoin="round"/>
<path d="M56.3874 59.9934C59.9005 53.5844 74.6557 51.7532 74.6557 51.7532C100.355 61.239 143.865 41.3766 145.621 40.4611C147.377 39.5455 187.117 52.2811 169.51 51.7532C151.903 51.2253 113.103 72.6038 93.5 71.9869C73.8967 71.37 52.8742 66.4025 56.3874 59.9934Z" fill="#EBCFAC" stroke="black" stroke-width="1.5" stroke-linejoin="round"/>
<path d="M145.462 40.2861C112.074 55.5711 95.3115 60.4122 74.5718 51.6214C74.5718 51.6214 66.2568 27.0788 99.0827 20.9517C131.909 14.8245 145.462 40.2861 145.462 40.2861Z" fill="#EBCFAC" stroke="black" stroke-width="1.5" stroke-linejoin="round"/>
<path d="M73.7459 51.6615C73.3171 45.1434 73.2673 42.5094 73.7459 40.8482C91.7093 47.712 107.321 44.1851 139.45 32.1975C142.544 35.1112 143.95 36.957 145.462 40.8482C112.754 54.8953 95.3728 60.7693 73.7459 51.6615Z" fill="#FC0000" stroke="black" stroke-width="1.5" stroke-linejoin="round"/>
</svg>
