<svg width="229" height="229" viewBox="0 0 229 229" fill="none" xmlns="http://www.w3.org/2000/svg">
<path d="M107.5 22C107.5 16.201 112.201 11.5 118 11.5C123.799 11.5 128.5 16.201 128.5 22V23.75C128.5 27.9394 126.382 30.1604 124.879 31.7357L124.848 31.7687C123.633 33.0425 123.25 33.5604 123.25 34.25V36C123.25 37.933 121.683 39.5 119.75 39.5H116.25C114.317 39.5 112.75 37.933 112.75 36V34.25C112.75 33.5604 112.367 33.0425 111.152 31.7687L111.121 31.7357C109.618 30.1604 107.5 27.9394 107.5 23.75V22Z" fill="#614102"/>
<path d="M118 13.25C113.168 13.25 109.25 17.1675 109.25 22V23.75C109.25 27.2382 110.953 29.0236 112.419 30.5609C113.527 31.723 114.5 32.7432 114.5 34.25V36C114.5 36.9665 115.284 37.75 116.25 37.75H119.75C120.716 37.75 121.5 36.9665 121.5 36V34.25C121.5 32.7432 122.473 31.723 123.581 30.5609C125.047 29.0236 126.75 27.2382 126.75 23.75V22C126.75 17.1675 122.832 13.25 118 13.25Z" fill="#FEAA01"/>
<path d="M114.5 36V34.25H121.5V36C121.5 36.9665 120.716 37.75 119.75 37.75H116.25C115.284 37.75 114.5 36.9665 114.5 36Z" fill="#7E8FA0"/>
<path d="M114.5 34.25V32.5H121.5V34.25C121.5 35.2165 120.716 36 119.75 36H116.25C115.284 36 114.5 35.2165 114.5 34.25Z" fill="url(#paint0_linear_92_29667)"/>
<path d="M118 13.25C113.168 13.25 109.25 17.1675 109.25 22C109.25 28.125 114.5 29 114.5 32.5H121.5C121.5 29 126.75 28.125 126.75 22C126.75 17.1675 122.832 13.25 118 13.25Z" fill="url(#paint1_linear_92_29667)"/>
<path fill-rule="evenodd" clip-rule="evenodd" d="M118 17.1875C115.342 17.1875 113.188 19.3421 113.188 22C113.188 22.7249 112.6 23.3125 111.875 23.3125C111.15 23.3125 110.562 22.7249 110.562 22C110.562 17.8924 113.892 14.5625 118 14.5625C118.725 14.5625 119.312 15.1501 119.312 15.875C119.312 16.5999 118.725 17.1875 118 17.1875Z" fill="#FFF8EB"/>
<path d="M118.5 4V9" stroke="#614102" stroke-width="1.5" stroke-linejoin="round"/>
<path d="M128.28 6.85229L125.72 11.1477" stroke="#614102" stroke-width="1.5" stroke-linejoin="round"/>
<path d="M108 6.5L109.898 11.1257" stroke="#614102" stroke-width="1.5" stroke-linejoin="round"/>
<defs>
<linearGradient id="paint0_linear_92_29667" x1="118" y1="32.5" x2="118" y2="36" gradientUnits="userSpaceOnUse">
<stop stop-color="white"/>
<stop offset="1" stop-color="#E2E5E9"/>
</linearGradient>
<linearGradient id="paint1_linear_92_29667" x1="118" y1="13.25" x2="118" y2="32.5" gradientUnits="userSpaceOnUse">
<stop stop-color="#FFE7B8"/>
<stop offset="1" stop-color="#FFD175"/>
</linearGradient>
</defs>
</svg>
