<svg width="229" height="229" viewBox="0 0 229 229" fill="none" xmlns="http://www.w3.org/2000/svg">
<path d="M114.25 22.9608L126.693 47.6473C126.621 47.7018 126.514 47.7703 126.362 47.8492C125.895 48.0933 125.164 48.3563 124.2 48.6133C122.283 49.124 119.583 49.5743 116.56 49.8342C113.536 50.094 110.799 50.111 108.823 49.9348C107.829 49.8462 107.065 49.7116 106.562 49.5509C106.4 49.499 106.282 49.4498 106.202 49.4084L114.25 22.9608Z" fill="white" stroke="black" stroke-width="1.5"/>
<path d="M118.142 12.0833L123.705 8.34489L121.76 14.759L121.478 15.6905L122.45 15.7262L129.149 15.9717L123.805 20.0175L123.029 20.6051L123.795 21.2057L129.069 25.3414L122.368 25.4735L121.395 25.4927L121.661 26.4288L123.498 32.875L117.999 29.043L117.2 28.4865L116.865 29.4006L114.562 35.695L112.366 29.3625L112.047 28.4429L111.239 28.9858L105.676 32.7242L107.621 26.31L107.903 25.3785L106.93 25.3429L100.232 25.0974L105.576 21.0515L106.352 20.464L105.586 19.8634L100.312 15.7277L107.013 15.5955L107.986 15.5764L107.719 14.6402L105.883 8.19409L111.382 12.0261L112.181 12.5826L112.515 11.6685L114.819 5.37411L117.015 11.7066L117.334 12.6262L118.142 12.0833Z" fill="#FFDB1F" stroke="black" stroke-width="1.5"/>
</svg>
