<svg width="229" height="229" viewBox="0 0 229 229" fill="none" xmlns="http://www.w3.org/2000/svg">
<path d="M112.5 37.4999L113 34.4999L123.5 33.4999L124 36.9999L112.5 37.4999Z" fill="#FFEC87"/>
<path d="M109.5 39.9999L110.5 37.4999H127V40.4999L123.5 40.9999H121L118.5 41.4999L115.5 40.9999L113 41.9999L109.5 39.9999Z" fill="#FFD233" stroke="black"/>
<path d="M110 45.9999V41.4999L127.5 40.9999L128 45.9999H110Z" fill="#FFF0BD" stroke="black"/>
<path d="M127.441 40.5377C126.918 40.5565 126.401 40.7267 125.958 41.0457C125.072 41.6836 123.89 41.7263 122.96 41.1539C122.031 40.5815 120.848 40.6242 119.962 41.2621C119.076 41.9001 117.894 41.9428 116.964 41.3704C116.035 40.798 114.852 40.8407 113.966 41.4786C113.08 42.1166 111.898 42.1593 110.968 41.5869C110.503 41.3007 109.975 41.1683 109.453 41.1871M115.104 31.431L115.177 33.4297M118.102 31.3228L118.175 33.3215M121.1 31.2145L121.173 33.2132M114.996 28.433L115 28.9999M118.004 28.9999L118.004 28.3244M120.992 28.2165L121 28.9999M127.638 45.9883L127.385 38.9928C127.345 37.889 126.418 37.0264 125.314 37.0663L111.323 37.5714C110.22 37.6113 109.357 38.5385 109.397 39.6423L109.649 46.6378C116.676 45.6361 120.615 45.463 127.638 45.9883ZM124.315 37.1024L124.243 35.1037C124.203 33.9998 123.276 33.1373 122.172 33.1771L114.177 33.4658C113.073 33.5057 112.211 34.4328 112.251 35.5367L112.323 37.5354L124.315 37.1024Z" stroke="#0F172A" stroke-width="2" stroke-linecap="round" stroke-linejoin="round"/>
</svg>
