<svg width="229" height="229" viewBox="0 0 229 229" fill="none" xmlns="http://www.w3.org/2000/svg">
<path d="M122.597 21.4815C122.456 21.3336 122.26 21.25 122.055 21.25C120.118 21.25 118.351 21.7876 116.931 22.934C115.511 24.0802 114.5 25.7856 113.986 28.0134L114.717 28.1819L113.986 28.0134C113.933 28.2426 113.925 28.6111 113.924 28.9359C113.923 29.2975 113.932 29.7296 113.944 30.1519C113.947 30.267 113.95 30.3812 113.953 30.4933C113.716 30.3212 113.473 30.1545 113.224 29.9938C109.242 27.4276 104.598 26.9928 101.076 28.6148C101.005 28.6477 100.939 28.6914 100.881 28.7446C100.145 29.423 100.165 30.4623 100.383 31.3442C100.611 32.2729 101.122 33.3231 101.781 34.3594C103.099 36.4324 105.128 38.6343 107.139 39.9302C109.221 41.2726 111.478 42.0287 113.659 42.2169V45C113.659 45.4142 113.995 45.75 114.409 45.75H119.841C120.255 45.75 120.591 45.4142 120.591 45V40.6302C122.875 38.9333 124.642 36.2661 125.384 33.0508C126.401 28.6381 125.241 24.2453 122.597 21.4815Z" fill="#2DE05F" stroke="black" stroke-width="1.5" stroke-linejoin="round"/>
</svg>
