<svg width="229" height="229" viewBox="0 0 229 229" fill="none" xmlns="http://www.w3.org/2000/svg">
<path d="M114.877 30.5C114.328 29.8152 114 28.9459 114 28V26C114 22.4946 116.779 20.3901 119.156 19.8855C119.95 19.717 120.401 19.409 120.627 19.1619C120.691 19.0915 120.75 19.0129 120.801 18.9214C120.368 17.7972 119.275 17 118 17C116.343 17 115 18.3431 115 20C115 22.2091 113.209 24 111 24C108.791 24 107 22.2091 107 20V18C107 11.9249 111.925 7 118 7C124.075 7 129 11.9249 129 18V20C129 22.5357 128.131 24.8076 126.534 26.5568C125.199 28.0184 123.498 28.9636 121.715 29.485C121.568 29.8536 121.367 30.1951 121.123 30.5C121.672 31.1848 122 32.0541 122 33V35C122 37.2091 120.209 39 118 39C115.791 39 114 37.2091 114 35V33C114 32.0541 114.328 31.1848 114.877 30.5Z" fill="#251849"/>
<path fill-rule="evenodd" clip-rule="evenodd" d="M122.896 18.9786C122.424 16.707 120.411 15 118 15C115.239 15 113 17.2386 113 20C113 21.1046 112.105 22 111 22C109.895 22 109 21.1046 109 20V18C109 13.0294 113.029 9 118 9C122.971 9 127 13.0294 127 18V20C127 22.062 126.301 23.8458 125.057 25.2081C123.833 26.5484 122.178 27.3775 120.402 27.7547C120.239 27.7892 120.112 27.87 120.044 27.9427C120.013 27.9751 120.002 27.9969 120 28.0025C119.999 29.1059 119.104 30 118 30C116.895 30 116 29.1046 116 28V26C116 23.7057 117.83 22.2116 119.571 21.8419C120.693 21.6037 121.545 21.1216 122.103 20.5106C122.469 20.1102 122.752 19.6087 122.896 18.9786ZM120 33C120 31.8954 119.105 31 118 31C116.895 31 116 31.8954 116 33V35C116 36.1046 116.895 37 118 37C119.105 37 120 36.1046 120 35V33Z" fill="#7558C6"/>
<path d="M118 13C115.239 13 113 15.2386 113 18C113 19.1046 112.105 20 111 20C109.895 20 109 19.1046 109 18C109 13.0294 113.029 9 118 9C122.971 9 127 13.0294 127 18C127 20.062 126.301 21.8458 125.057 23.2081C123.833 24.5484 122.178 25.3775 120.402 25.7547C120.239 25.7892 120.112 25.87 120.044 25.9427C120.013 25.9751 120.002 25.9969 120 26.0025C119.999 27.1059 119.104 28 118 28C116.895 28 116 27.1046 116 26C116 23.7057 117.83 22.2116 119.571 21.8419C120.693 21.6037 121.545 21.1216 122.103 20.5106C122.641 19.9216 123 19.1139 123 18C123 15.2386 120.761 13 118 13Z" fill="url(#paint0_linear_92_29085)"/>
<path d="M118 35C119.105 35 120 34.1046 120 33C120 31.8954 119.105 31 118 31C116.895 31 116 31.8954 116 33C116 34.1046 116.895 35 118 35Z" fill="url(#paint1_linear_92_29085)"/>
<defs>
<linearGradient id="paint0_linear_92_29085" x1="118" y1="9" x2="118" y2="35" gradientUnits="userSpaceOnUse">
<stop stop-color="#D5CCFF"/>
<stop offset="1" stop-color="#AD9CFF"/>
</linearGradient>
<linearGradient id="paint1_linear_92_29085" x1="118" y1="9" x2="118" y2="35" gradientUnits="userSpaceOnUse">
<stop stop-color="#D5CCFF"/>
<stop offset="1" stop-color="#AD9CFF"/>
</linearGradient>
</defs>
</svg>
