<svg width="229" height="229" viewBox="0 0 229 229" fill="none" xmlns="http://www.w3.org/2000/svg">
<path d="M116.116 74.3623L131.051 71.1439" stroke="#0F172A" stroke-width="2" stroke-linecap="round" stroke-linejoin="round"/>
<path d="M154.759 70.3943C155.402 73.5111 154.814 76.7395 153.125 79.3693C151.435 81.999 148.783 83.8147 145.75 84.4169C142.718 85.0191 139.554 84.3584 136.955 82.5803C134.355 80.8022 132.534 78.0522 131.891 74.9353L130.158 66.541L153.026 62L154.759 70.3943Z" fill="black" stroke="black" stroke-width="2" stroke-linecap="round" stroke-linejoin="round"/>
<path d="M117.051 78.8905C117.698 82.027 117.144 85.2683 115.51 87.9015C113.876 90.5347 111.296 92.344 108.338 92.9314C105.38 93.5188 102.286 92.8362 99.7361 91.0338C97.1866 89.2313 95.3907 86.4567 94.7434 83.3202L93 74.873L115.308 70.4433L117.051 78.8905Z" fill="black" stroke="black" stroke-width="2" stroke-linecap="round" stroke-linejoin="round"/>
<path d="M95.1841 76.262L110.184 84.1464" stroke="#484848" stroke-width="2" stroke-linecap="round" stroke-linejoin="round"/>
<path d="M133.184 68.4673L145.184 75.1464" stroke="#484848" stroke-width="2" stroke-linecap="round" stroke-linejoin="round"/>
</svg>
