<svg width="229" height="229" viewBox="0 0 229 229" fill="none" xmlns="http://www.w3.org/2000/svg">
<path d="M89.9057 93.5C87.4058 90.5 84.4058 77 90.9613 72.5146C97.5168 68.0293 151.906 61 151.906 61" stroke="black" stroke-width="2" stroke-linecap="round" stroke-linejoin="round"/>
<path d="M92.8559 98C89.4115 97.5148 84.8559 76.0162 92.8559 72.5162C100.856 69.0162 152.356 61.5162 152.356 61.5162C153.919 60.8959 157.677 78.2864 155.856 81.0162C154.035 83.746 138.233 87.9885 134.856 85.0162C131.479 82.0439 128.8 74.5 124.8 77C120.801 79.5 120.356 91 117.356 92.5C114.356 94 96.3004 98.4852 92.8559 98Z" fill="#FF993C" fill-opacity="0.95" stroke="black" stroke-width="1.5" stroke-linecap="round" stroke-linejoin="round"/>
</svg>
