<svg width="229" height="229" viewBox="0 0 229 229" fill="none" xmlns="http://www.w3.org/2000/svg">
<path d="M116 73.5005C122.219 70.5769 125.833 70.1472 132.5 71.5005M94.5 81.4998L90.5 81.9998L89 84.5" stroke="#424242" stroke-width="1.5" stroke-linecap="round" stroke-linejoin="round"/>
<path d="M114 70.5003L94.5 73.5003C94.5 73.5003 94 86.0003 96.5 88.5003C99 91.0003 113.5 91.0003 116 85.5003C118.5 80.0003 114 70.5003 114 70.5003Z" stroke="#424242" stroke-width="1.5" stroke-linecap="round" stroke-linejoin="round"/>
<path d="M135 81.5003C132 76.0003 133 67.5003 133 67.5003C133 67.5003 150 62.5003 152 65.0003C154 67.5003 154.5 74.5003 154 78.0003C153.5 81.5003 138 87.0003 135 81.5003Z" stroke="#424242" stroke-width="1.5" stroke-linecap="round" stroke-linejoin="round"/>
<path d="M113.5 70.5L94.5 73.5V73L113 70L113.5 70.5Z" stroke="#424242" stroke-width="1.5" stroke-linecap="round" stroke-linejoin="round"/>
<path d="M133 66.5V67L151 64H149L133 66.5Z" stroke="#424242" stroke-width="1.5" stroke-linecap="round" stroke-linejoin="round"/>
</svg>
