<svg width="229" height="229" viewBox="0 0 229 229" fill="none" xmlns="http://www.w3.org/2000/svg">
<path d="M84.5 85L80 78.5L77 78L72 80L67.5 85V90.5L77 107.5L82.5 104L76.5 94L81 91.5L83.5 88L84.5 85Z" fill="#ECECEC" stroke="black"/>
<path fill-rule="evenodd" clip-rule="evenodd" d="M81.1423 77.9214C78.4666 76.0124 69.4238 78.2511 66.708 84.9854C63.8223 92.1013 70.95 98.1484 73.9813 103.333C73.9017 103.234 77.8563 110.807 79.146 112.31C81.4221 114.908 86.6821 111.166 86.2338 108.618C85.924 106.832 84.9573 106.29 82.0359 101.709C77.9192 95.2443 77.802 93.853 76.7939 94.4438C76.474 94.7023 75.7126 94.7883 78.9555 99.4555C80.5346 102.251 81.3284 103.482 81.5912 103.901C80.2454 104.455 78.9946 105.291 77.9458 106.338L75.8014 102.127C72.6706 96.8191 66.2279 91.277 68.558 85.3429C70.4127 80.6277 77.759 77.7852 80.0567 79.2263C80.8946 80.0877 81.5842 81.0773 82.1078 82.1695C83.3136 84.0043 84.309 84.7064 83.5702 87.0948C83.1934 88.1966 82.5394 89.244 81.6716 90.1355C78.3584 93.6069 75.6563 93.3477 74.962 94.2956C74.8817 94.3849 74.8287 94.4909 74.8105 94.5983C74.7923 94.7056 74.8099 94.8086 74.8607 94.8924C74.9116 94.9762 74.993 95.0363 75.0932 95.0641C75.1934 95.0918 75.3072 95.0858 75.4179 95.0468C75.7365 94.7719 76.1154 94.5791 76.5063 94.4929C78.317 93.9836 80.051 93.0399 81.5297 91.759C83.0084 90.4782 84.1783 88.9065 84.9189 87.2059C85.9343 84.3497 84.816 83.3398 83.5471 81.271C82.9543 80.0079 82.1437 78.8788 81.1423 77.9214ZM82.3152 105.046C84.354 108.223 85.7387 109.282 83.3762 110.846C83.055 111.098 82.6916 111.287 82.3141 111.398C81.9366 111.509 81.555 111.539 81.199 111.485C80.672 111.3 80.2798 110.722 78.5486 107.52C79.9615 107.032 81.2739 106.17 82.3152 105.046Z" fill="black"/>
<path fill-rule="evenodd" clip-rule="evenodd" d="M80.5866 89.5362C83.3435 87.3083 80.6305 84.5743 78.2446 82.8992C77.8888 82.6006 77.5042 82.333 77.094 82.0987C76.5119 81.8769 73.468 82.5657 75.0549 86.6168C75.9151 88.7717 78.3283 91.2594 80.5866 89.5362ZM76.5088 85.7676C76.1377 85.0904 75.484 83.9698 76.6103 83.6499C76.7894 83.8716 77.1513 83.9455 77.221 84.0317C80.1548 86.852 80.4028 89.2776 78.1925 87.6641C77.496 87.1569 76.9261 86.5149 76.5088 85.7676Z" fill="black"/>
<path d="M75.5 83.5L77 83L80.5 86V88.5H78L75.5 86V83.5Z" fill="#6E6E6E" stroke="black"/>
<path d="M80.5 112.5L77.5 107L82.5 104L85.5 108.5L84 111.5L80.5 112.5Z" fill="#D9D9D9" stroke="black"/>
<path d="M154.954 71.8974L156.388 65.0278L158.571 63.8095L164.584 64.1188L170.262 66.9055L173.127 71.8342L170.929 80.6188L167.404 91.7466L161.593 89.9509L164.621 78.756L162.144 78.4207L156.038 75.0715L154.954 71.8974Z" fill="#ECECEC"/>
<path d="M160.225 96.3252L161.526 90.4465L167.404 91.7467L165.541 98.0538L160.225 96.3252Z" fill="#D9D9D9"/>
<path d="M159.253 69.9564L162.2 66.8233L162.99 68.4439L162.52 71.9123L160.27 73.626L158.784 73.4248L159.253 69.9564Z" fill="#6E6E6E"/>
<path fill-rule="evenodd" clip-rule="evenodd" d="M157.785 71.9511C157.689 72.3599 157.743 72.8035 157.94 73.2244C158.137 73.6453 158.469 74.0243 158.892 74.3123C159.315 74.6003 159.81 74.7842 160.313 74.8401C160.816 74.8961 161.304 74.8216 161.714 74.6262C162.834 73.7617 163.596 72.6003 163.911 71.2763C164.226 69.9524 164.082 68.52 163.495 67.1448C162.131 64.3853 157.985 69.1648 157.785 71.9511ZM160.711 72.7752C160.643 72.9357 160.43 73.0865 160.232 73.0026C159.673 72.7662 159.924 71.6691 160.037 71.2011C161.271 66.7722 163.004 67.2986 162.402 69.9317C162.172 71.0348 161.588 72.0173 160.711 72.7752Z" fill="black"/>
<path fill-rule="evenodd" clip-rule="evenodd" d="M169.811 87.1079C170.895 82.6325 173.481 78.981 173.732 73.7071C174.004 71.6251 173.303 69.4082 171.777 67.5224C170.251 65.6366 168.018 64.2288 165.548 63.5951C163.933 63.0943 162.268 62.8514 160.642 62.8792C158.788 62.9474 157.124 63.5894 155.942 64.6917C155.293 65.8914 154.871 67.1958 154.689 68.5624C154.261 69.6678 154.759 70.7933 154.689 72C154.953 75.5496 159.227 78.7491 163.659 79.23C168.091 79.7109 167.095 78.3445 164.898 78.3099C163.258 78.2874 161.586 77.8882 160.053 77.1526C158.52 76.4171 157.179 75.3712 156.166 74.1205C154.874 72.1475 155.577 71.1896 156.181 69.0557C157.025 66.4044 156.667 65.3417 159.466 64.7545C160.609 64.4884 161.848 64.4652 163.088 64.6868C164.414 64.8479 165.727 65.2603 166.931 65.894C168.134 66.5277 169.198 67.3665 170.044 68.3491C173.976 73.432 169.253 80.6321 167.681 86.465L166.783 91.1048C165.49 90.422 164.071 89.999 162.647 89.8725C162.697 89.7559 165.211 80.4877 165.061 80.3899C165.627 79.8042 164.325 78.9616 163.871 79.7839C163.656 80.2943 162.618 84.3079 162.599 84.4031C160.805 91.363 159.296 93.424 159.512 95.6295C159.728 97.8351 164.492 99.5911 166.423 98.2929C167.959 97.2747 167.988 94.6399 169.811 87.1079ZM162.88 96.9671C160.202 96.1102 161.16 94.8994 162.298 91.1002C163.624 91.874 165.127 92.3241 166.62 92.3942C166.445 93.1108 165.848 95.7807 165.577 96.4224C165.188 97.3925 164.096 97.3607 162.88 96.9671Z" fill="black"/>
</svg>
