<svg width="229" height="229" viewBox="0 0 229 229" fill="none" xmlns="http://www.w3.org/2000/svg">
<path d="M95 127.5L100 114L121 115.5L140.5 110L154.5 124.5L158.5 131.5V135.5L157 138.5L153 139.5H148.5L142.5 135V142.5L136.5 162L134.5 169.5L137.5 176.5L135.5 181.5L130 182L125.5 180.5L122 178L119.5 173.5V167.5H117L115.5 172L117.5 176.5L118 184L114.5 187L108 186.5L102.5 184L99 177.5L97.5 168L100.5 156L95.5 157L92 151V139.5L95 127.5Z" fill="#28B4B4"/>
<path d="M88 57.5L99 49.5L108 46L117 45H119L126.5 45.5L133.5 47L142.5 49.5L146.5 45.5L150.5 44H156.5L160 45.5L164.5 49.5L166.5 54.5L167 59.5L165.5 63.5L160.5 70L157.5 72L155 68.5L158.5 82L157 89.5L155.5 95L152 99.5L141.5 108L125.5 114.5H108L92.5 111.5L83 105L74 96L69.5 85.5H73L68.5 83L64 77.5L62 72.5L62.5 67L65.5 59.5L70 54L78.5 53.5L88 57.5Z" fill="#28B4B4"/>
</svg>
