<svg width="229" height="229" viewBox="0 0 229 229" fill="none" xmlns="http://www.w3.org/2000/svg">
<path d="M89 135.5C90.0137 126.56 91.8398 121.705 98.5 113.5C108.956 117.02 115.332 119.543 122 119C130.448 116.252 131.896 114.376 134.45 111.064L134.5 111C139.856 119.085 141.866 124.212 144 135.5C143.752 144.003 143.094 147.999 140.5 153C126.106 158.912 118.519 159.122 100 156.5C104.605 154.677 104.99 151.361 108 142C98.9053 144.463 94.7156 143.109 89 135.5Z" fill="#FF6B57"/>
<path d="M108 142C98.9053 144.463 94.7156 143.109 89 135.5C90.0137 126.56 91.8398 121.705 98.5 113.5C108.956 117.02 115.332 119.543 122 119C130.503 116.235 131.914 114.352 134.5 111C139.856 119.085 141.866 124.212 144 135.5C143.752 144.003 143.094 147.999 140.5 153C126.106 158.912 118.519 159.122 100 156.5C104.605 154.677 104.99 151.361 108 142ZM108 142L110.5 125" stroke="black" stroke-width="1.5"/>
<path d="M140 109C136.5 109 134.5 111.5 134.5 111.5C140.326 120.159 142.552 125.589 144.5 136C150.356 134.793 153.06 132.864 157 127.5C151.793 116.707 143.5 109 140 109Z" fill="#FF6B57" stroke="black" stroke-width="1.5"/>
</svg>
