<svg width="229" height="229" viewBox="0 0 229 229" fill="none" xmlns="http://www.w3.org/2000/svg">
<path d="M89 136.5C90.0137 127.56 91.8398 122.705 98.5 114.5C108.956 118.02 115.332 120.543 122 120C130.448 117.252 131.896 115.376 134.45 112.064L134.5 112C139.856 120.085 141.866 125.212 144 136.5C143.752 145.003 143.094 148.999 140.5 154C126.106 159.912 118.519 160.122 100 157.5C104.605 155.677 104.99 152.361 108 143C98.9053 145.463 94.7156 144.109 89 136.5Z" fill="#FFF4C1"/>
<path d="M108 143C98.9053 145.463 94.7156 144.109 89 136.5C90.0137 127.56 91.8398 122.705 98.5 114.5C108.956 118.02 115.332 120.543 122 120C130.503 117.235 131.914 115.352 134.5 112C139.856 120.085 141.866 125.212 144 136.5C143.752 145.003 143.094 148.999 140.5 154C126.106 159.912 118.519 160.122 100 157.5C104.605 155.677 104.99 152.361 108 143ZM108 143L110.5 126" stroke="black" stroke-width="1.5"/>
<path d="M140 110C136.5 110 134.5 112.5 134.5 112.5C140.326 121.159 142.552 126.589 144.5 137C150.356 135.793 153.06 133.864 157 128.5C151.793 117.707 143.5 110 140 110Z" fill="#FFF4C1" stroke="black" stroke-width="1.5"/>
<path d="M141 127C139.099 127.958 110 131 110 131.5C110 132 108.892 137.93 108.5 142.5C122.195 143.932 129.845 142.651 143.5 141C144.306 135.302 142.901 126.042 141 127Z" fill="#335542" stroke="black"/>
<path d="M109.5 139L110 135C124.125 134.512 131.067 133.639 142.5 131.5C142.818 133.26 142.91 134.246 143 136C130.234 137.594 123.091 139.017 109.5 139Z" fill="#C81F31"/>
</svg>
