<svg width="229" height="229" viewBox="0 0 229 229" fill="none" xmlns="http://www.w3.org/2000/svg">
<path d="M89.7482 152.5C84.3288 152.5 83.0965 125.724 97.7481 112.5C109.417 115.998 115.702 119.495 121.188 127.5L132.248 112.5L139.748 109L146.748 112.5C152.496 122.186 163 132.088 158.5 132.088C154 132.088 143.248 141.5 143.248 141.5C143.237 147.993 150.341 155.077 154.748 162.5C153.674 165.081 142.257 166.287 139.748 165.5C129.988 160.253 135.298 155.541 127.748 144C120.634 165.949 103.294 176.757 99.2576 179C94.7578 181.5 94.248 156.5 94.248 156.5C98.8083 156.98 100.945 156.24 103.748 152.5L107.248 141.5C101.05 137.686 95.1677 152.5 89.7482 152.5Z" fill="#F8FDFF"/>
<path d="M97.7481 112.5C83.0965 125.724 84.3288 152.5 89.7482 152.5C95.1677 152.5 101.05 137.686 107.248 141.5M97.7481 112.5C97.7481 112.5 98.9472 132.827 107.248 141.5M97.7481 112.5C109.417 115.998 115.702 119.495 121.188 127.5M107.248 141.5L103.748 152.5C100.945 156.24 98.8083 156.98 94.248 156.5C94.248 156.5 94.7578 181.5 99.2576 179C103.294 176.757 120.634 165.949 127.748 144M121.188 127.5C122.397 129.265 123.568 131.249 124.748 133.5C124.237 136.316 128.564 141.481 127.748 144M121.188 127.5C121.188 127.5 105.248 119 103.748 119C102.248 119 100.038 126.5 100.038 126.5M121.188 127.5L132.248 112.5L139.748 109L146.748 112.5M121.188 127.5C129.42 120.332 135.5 115.5 146.748 112.5M146.748 112.5C152.496 122.186 163 132.088 158.5 132.088C154 132.088 143.248 141.5 143.248 141.5M146.748 112.5C147.552 112.211 145.884 112.795 146.748 112.5ZM143.248 141.5C143.237 147.993 150.341 155.077 154.748 162.5C153.674 165.081 142.257 166.287 139.748 165.5C129.988 160.253 135.298 155.541 127.748 144M143.248 141.5L139.748 124.5" stroke="black" stroke-width="1.5"/>
<path d="M120.248 130.528C118.848 129.54 118.087 129.433 116.748 129.528V130.528C118.005 131.662 119.748 132.028 120.248 132.028C120.748 132.028 120.248 130.528 120.248 130.528Z" fill="#CADFFF"/>
<path d="M114.248 158.528C114.745 156.816 115.204 156.131 116.748 156.028C118.008 156.313 118.093 156.745 118.243 157.501L118.248 157.528C117.834 158.831 117.399 159.383 116.248 160.028C115.049 160.114 114.658 159.82 114.248 158.528Z" fill="#CADFFF"/>
<path d="M95.248 134.5L86.248 142.82V147.5L95.248 134.5Z" fill="url(#paint0_linear_35_28981)" fill-opacity="0.5"/>
<path d="M135.248 153C130.686 146.083 128.72 141.038 125.748 131C125.668 134.339 126.244 136.492 128.748 141C129.188 145.708 131.402 148.24 135.248 153Z" stroke="#DAEBFF"/>
<defs>
<linearGradient id="paint0_linear_35_28981" x1="90.748" y1="134.5" x2="90.748" y2="147.5" gradientUnits="userSpaceOnUse">
<stop stop-color="#6EC2FF"/>
<stop offset="1" stop-color="#8F95AE"/>
</linearGradient>
</defs>
</svg>
