<svg width="229" height="229" viewBox="0 0 229 229" fill="none" xmlns="http://www.w3.org/2000/svg">
<path d="M108.82 128.888C111.727 123.634 113.491 120.679 108.82 115.974H117.607C118.44 118.85 121.225 123.921 122.776 123.424C124.326 122.928 126.633 119.26 127.427 113.987L134.664 112C144.234 132.408 145.963 142.735 137.765 157.697C122.879 160.586 114.398 160.763 99 158.194C104.478 152.449 106.157 144.405 108.82 128.888Z" fill="#E9C46A" stroke="black" stroke-width="1.5"/>
<path d="M142 132C128.848 133.669 121.403 134.159 108 134C107.455 137.375 106 143 106.5 143C107 143 141.502 141.537 142.5 141C143.498 140.463 142.993 136.159 142 132Z" fill="#E76F51" stroke="black" stroke-width="1.5"/>
</svg>
