<svg width="229" height="229" viewBox="0 0 229 229" fill="none" xmlns="http://www.w3.org/2000/svg">
<path d="M86 151C87.1833 135.343 89.6579 127.348 98.5 115C113.208 117.383 120.72 116.353 133.5 112.5C142.259 130.563 146.5 158 146.5 159.5C146.5 161 106.539 169.882 95 164.5C96 158.5 99.0238 158.393 101.5 153.75C96.1762 154.371 93.3852 153.496 86 151Z" fill="#CFEAFD"/>
<path d="M107 154.5L101.5 153.75M101.5 153.75C96.1762 154.371 93.3852 153.496 86 151C87.1833 135.343 89.6579 127.348 98.5 115C113.208 117.383 120.72 116.353 133.5 112.5C142.259 130.563 146.5 158 146.5 159.5C146.5 161 106.539 169.882 95 164.5C96 158.5 99.0238 158.393 101.5 153.75Z" stroke="black" stroke-width="1.5"/>
<path d="M107 154.5L101.5 153.75M101.5 153.75C96.1762 154.371 93.3852 153.496 86 151C87.1833 135.343 89.6579 127.348 98.5 115C113.208 117.383 120.72 116.353 133.5 112.5C142.259 130.563 146.5 158 146.5 159.5C146.5 161 106.539 169.882 95 164.5C96 158.5 99.0238 158.393 101.5 153.75Z" stroke="black" stroke-opacity="0.2" stroke-width="1.5"/>
<path d="M106.501 154.5C106 154 106.212 140.511 108.501 132" stroke="black" stroke-width="1.5"/>
<path d="M106.501 154.5C106 154 106.212 140.511 108.501 132" stroke="black" stroke-opacity="0.2" stroke-width="1.5"/>
<path d="M123 125.5C122.515 126.109 106.503 119.124 105.5 117C104.497 114.876 116.5 115.5 116.5 115.5L124.5 120L125.084 120.584L125 119.5C128.502 116.885 130.477 115.151 134 112C134.306 113.35 134.537 114.12 135 115.5C133.185 118.674 132.138 120.459 128.5 124L125.084 120.584L124.5 120L123 125.5Z" fill="#9ED0F2"/>
<path d="M124.5 120L123 125.5C122.515 126.109 106.503 119.124 105.5 117C104.497 114.876 116.5 115.5 116.5 115.5L124.5 120ZM124.5 120L128.5 124C132.138 120.459 133.185 118.674 135 115.5C134.537 114.12 134.306 113.35 134 112C130.477 115.151 128.502 116.885 125 119.5L128.5 164.5" stroke="black" stroke-width="1.5"/>
<path d="M124.5 120L123 125.5C122.515 126.109 106.503 119.124 105.5 117C104.497 114.876 116.5 115.5 116.5 115.5L124.5 120ZM124.5 120L128.5 124C132.138 120.459 133.185 118.674 135 115.5C134.537 114.12 134.306 113.35 134 112C130.477 115.151 128.502 116.885 125 119.5L128.5 164.5" stroke="black" stroke-opacity="0.2" stroke-width="1.5"/>
<circle cx="122.5" cy="131" r="1.5" fill="black"/>
<circle cx="123.5" cy="142" r="1.5" fill="black"/>
<circle cx="124.5" cy="154" r="1.5" fill="black"/>
<path d="M139.5 110L134.5 112.5L142 137.5C143.681 140.54 144.667 141.694 146.5 142.5C151.793 137.77 154.265 134.644 157.5 128C150.799 119.647 146.876 115.662 139.5 110Z" fill="#CFEAFD"/>
<path d="M139.5 110L134.5 112.5L142 137.5C143.681 140.54 144.667 141.694 146.5 142.5C151.793 137.77 154.265 134.644 157.5 128C150.799 119.647 146.876 115.662 139.5 110Z" stroke="black" stroke-width="1.5"/>
<path d="M139.5 110L134.5 112.5L142 137.5C143.681 140.54 144.667 141.694 146.5 142.5C151.793 137.77 154.265 134.644 157.5 128C150.799 119.647 146.876 115.662 139.5 110Z" stroke="black" stroke-opacity="0.2" stroke-width="1.5"/>
</svg>
