<svg width="229" height="229" viewBox="0 0 229 229" fill="none" xmlns="http://www.w3.org/2000/svg">
<path d="M87 151C88.1833 135.343 90.6579 127.348 99.5 115C114.208 117.383 121.72 116.353 134.5 112.5C143.259 130.563 147.5 158 147.5 159.5C147.5 161 107.539 169.882 96 164.5C97 158.5 100.024 158.393 102.5 153.75C97.1762 154.371 94.3852 153.496 87 151Z" fill="#F0F0EA"/>
<path d="M108 154.5L102.5 153.75M102.5 153.75C97.1762 154.371 94.3852 153.496 87 151C88.1833 135.343 90.6579 127.348 99.5 115C114.208 117.383 121.72 116.353 134.5 112.5C143.259 130.563 147.5 158 147.5 159.5C147.5 161 107.539 169.882 96 164.5C97 158.5 100.024 158.393 102.5 153.75Z" stroke="black" stroke-width="1.5"/>
<path d="M108 154.5L102.5 153.75M102.5 153.75C97.1762 154.371 94.3852 153.496 87 151C88.1833 135.343 90.6579 127.348 99.5 115C114.208 117.383 121.72 116.353 134.5 112.5C143.259 130.563 147.5 158 147.5 159.5C147.5 161 107.539 169.882 96 164.5C97 158.5 100.024 158.393 102.5 153.75Z" stroke="black" stroke-opacity="0.2" stroke-width="1.5"/>
<path d="M107.501 154.5C107 154 107.212 140.511 109.501 132" stroke="black" stroke-width="1.5"/>
<path d="M107.501 154.5C107 154 107.212 140.511 109.501 132" stroke="black" stroke-opacity="0.2" stroke-width="1.5"/>
<path d="M124 125.5C123.515 126.109 107.503 119.124 106.5 117C105.497 114.876 117.5 115.5 117.5 115.5L125.5 120L126.084 120.584L126 119.5C129.502 116.885 131.477 115.151 135 112C135.306 113.35 135.537 114.12 136 115.5C134.185 118.674 133.138 120.459 129.5 124L126.084 120.584L125.5 120L124 125.5Z" fill="#EEEECE"/>
<path d="M125.5 120L124 125.5C123.515 126.109 107.503 119.124 106.5 117C105.497 114.876 117.5 115.5 117.5 115.5L125.5 120ZM125.5 120L129.5 124C133.138 120.459 134.185 118.674 136 115.5C135.537 114.12 135.306 113.35 135 112C131.477 115.151 129.502 116.885 126 119.5L129.5 164.5" stroke="black" stroke-width="1.5"/>
<path d="M125.5 120L124 125.5C123.515 126.109 107.503 119.124 106.5 117C105.497 114.876 117.5 115.5 117.5 115.5L125.5 120ZM125.5 120L129.5 124C133.138 120.459 134.185 118.674 136 115.5C135.537 114.12 135.306 113.35 135 112C131.477 115.151 129.502 116.885 126 119.5L129.5 164.5" stroke="black" stroke-opacity="0.2" stroke-width="1.5"/>
<circle cx="123.5" cy="131" r="1.5" fill="black"/>
<circle cx="124.5" cy="142" r="1.5" fill="black"/>
<circle cx="125.5" cy="154" r="1.5" fill="black"/>
<path d="M140.5 110L135.5 112.5L143 137.5C144.681 140.54 145.667 141.694 147.5 142.5C152.793 137.77 155.265 134.644 158.5 128C151.799 119.647 147.876 115.662 140.5 110Z" fill="#F0F0EA"/>
<path d="M140.5 110L135.5 112.5L143 137.5C144.681 140.54 145.667 141.694 147.5 142.5C152.793 137.77 155.265 134.644 158.5 128C151.799 119.647 147.876 115.662 140.5 110Z" stroke="black" stroke-width="1.5"/>
<path d="M140.5 110L135.5 112.5L143 137.5C144.681 140.54 145.667 141.694 147.5 142.5C152.793 137.77 155.265 134.644 158.5 128C151.799 119.647 147.876 115.662 140.5 110Z" stroke="black" stroke-opacity="0.2" stroke-width="1.5"/>
</svg>
