<svg width="229" height="229" viewBox="0 0 229 229" fill="none" xmlns="http://www.w3.org/2000/svg">
<path d="M134.5 111.5C140 119.5 150.5 153.5 138 156C125.5 158.5 113.587 158.746 99 158C96 156 101.503 161.161 105 151C96.2988 151.914 93.533 151.958 88 149C89.5282 138.051 92.6677 123.072 98.5 113C101.608 113.507 104.411 113.901 107 114.181C117.749 115.344 124.79 114.526 134.5 111.5Z" fill="#F9F9F9"/>
<path d="M134.5 111.5C140 119.5 150.5 153.5 138 156C125.5 158.5 113.587 158.746 99 158C96 156 101.503 161.161 105 151M134.5 111.5C124.79 114.526 117.749 115.344 107 114.181M134.5 111.5L128 124M105 151C96.2988 151.914 93.533 151.958 88 149C89.5282 138.051 92.6677 123.072 98.5 113C101.608 113.507 104.411 113.901 107 114.181M105 151C104.872 144.288 108 131 109.5 126.5M107 114.181L121.5 125M121.5 125L124.5 118L128 124M121.5 125L123 127M128 124L127 126.5M127 126.5L123 127M127 126.5L129 143L126 147L121.5 143L123 127" stroke="black" stroke-width="1.5" stroke-linejoin="round"/>
<path d="M124.5 118L119 114.5L127 113L124.5 118Z" stroke="black" stroke-width="1.5" stroke-linejoin="round"/>
<path d="M121.5 125L124.5 118.5L128 123.5L127 126.5L129 143L126 147L121.5 143L123 127L121.5 125Z" fill="#000F94"/>
<path d="M122.5 127L127.5 126.5" stroke="black"/>
<path d="M158.5 129.5C153.222 119.542 149.542 115.155 142 109L135 111.5C139.875 120.933 141.968 126.278 143.5 136C145.662 139.724 146.972 141.133 149.5 142C154.367 137.91 156.184 135.084 158.5 129.5Z" fill="#F9F9F9" stroke="black" stroke-width="1.5"/>
</svg>
