<svg width="229" height="229" viewBox="0 0 229 229" fill="none" xmlns="http://www.w3.org/2000/svg">
<path d="M134.5 112C140 120 150.5 154 138 156.5C125.5 159 113.587 159.246 99 158.5C96 156.5 101.503 161.661 105 151.5C96.2988 152.414 93.533 152.458 88 149.5C89.5282 138.551 92.6677 123.572 98.5 113.5C101.608 114.007 104.411 114.401 107 114.681C117.749 115.844 124.79 115.026 134.5 112Z" fill="#F9F9F9"/>
<path d="M134.5 112C140 120 150.5 154 138 156.5C125.5 159 113.587 159.246 99 158.5C96 156.5 101.503 161.661 105 151.5M134.5 112C124.79 115.026 117.749 115.844 107 114.681M134.5 112L128 124.5M105 151.5C96.2988 152.414 93.533 152.458 88 149.5C89.5282 138.551 92.6677 123.572 98.5 113.5C101.608 114.007 104.411 114.401 107 114.681M105 151.5C104.872 144.788 108 131.5 109.5 127M107 114.681L121.5 125.5M121.5 125.5L124.5 118.5L128 124.5M121.5 125.5L123 127.5M128 124.5L127 127M127 127L123 127.5M127 127L129 143.5L126 147.5L121.5 143.5L123 127.5" stroke="black" stroke-width="1.5" stroke-linejoin="round"/>
<path d="M124.5 118.5L119 115L127 113.5L124.5 118.5Z" stroke="black" stroke-width="1.5" stroke-linejoin="round"/>
<path d="M121.5 125.5L124.5 119L128 124L127 127L129 143.5L126 147.5L121.5 143.5L123 127.5L121.5 125.5Z" fill="#DB001A"/>
<path d="M122.5 127.5L127.5 127" stroke="black"/>
<path d="M158.5 130C153.222 120.042 149.542 115.655 142 109.5L135 112C139.875 121.433 141.968 126.778 143.5 136.5C145.662 140.224 146.972 141.633 149.5 142.5C154.367 138.41 156.184 135.584 158.5 130Z" fill="#F9F9F9" stroke="black" stroke-width="1.5"/>
<path d="M107.5 115C103.734 115.102 101.607 115.358 98 113.5C91.649 125.497 90.1584 132.646 88 145.5L96.75 146.25L105.5 147V152L100 158.5C116.407 160.564 125.477 160.63 141 155C145.872 150.356 145.96 136.925 135 111.5C135 111.5 127 137.5 125 134C123 130.5 107.5 115 107.5 115Z" fill="#3E3E3E"/>
<path d="M105.5 147V152L100 158.5C116.407 160.564 125.477 160.63 141 155C145.872 150.356 145.96 136.925 135 111.5C135 111.5 127 137.5 125 134C123 130.5 107.5 115 107.5 115C103.734 115.102 101.607 115.358 98 113.5C91.649 125.497 90.1584 132.646 88 145.5L96.75 146.25L105.5 147ZM105.5 147L107.5 129" stroke="black" stroke-width="1.5" stroke-linejoin="round"/>
<path d="M125.5 134.5V159" stroke="black" stroke-width="1.5" stroke-linejoin="round"/>
<path d="M144.5 138.5C142.067 127.866 139.927 121.968 135.5 111.5L141.5 109C148.828 115.918 153.126 119.767 156.5 127C153.42 132.54 151.199 135.484 146.5 140.5L144.5 138.5Z" fill="#3E3E3E" stroke="black" stroke-width="1.5" stroke-linejoin="round"/>
</svg>
