<svg width="229" height="229" viewBox="0 0 229 229" fill="none" xmlns="http://www.w3.org/2000/svg">
<path d="M158.788 127C158.288 124.5 152.58 114.252 142.788 109L134.788 112C140.569 122.11 142.684 128.167 144.788 139.5C150.867 137.933 159.288 129.5 158.788 127Z" fill="#F85B5B"/>
<path d="M158.788 127C158.288 124.5 152.58 114.252 142.788 109L134.788 112C140.569 122.11 142.684 128.167 144.788 139.5C150.867 137.933 159.288 129.5 158.788 127Z" stroke="black" stroke-opacity="0.8" stroke-width="1.5"/>
<path d="M158.788 127C158.288 124.5 152.58 114.252 142.788 109L134.788 112C140.569 122.11 142.684 128.167 144.788 139.5C150.867 137.933 159.288 129.5 158.788 127Z" stroke="black" stroke-opacity="0.2" stroke-width="1.5"/>
<path d="M148.788 141C147.506 140.64 146.288 139.5 146.288 139.5C152.833 135.553 155.399 133.015 158.288 128C158.288 128 159.436 129.608 159.788 131.5C160.14 133.392 150.07 141.36 148.788 141Z" fill="#FF5E5E"/>
<path d="M148.788 141C147.506 140.64 146.288 139.5 146.288 139.5C152.833 135.553 155.399 133.015 158.288 128C158.288 128 159.436 129.608 159.788 131.5C160.14 133.392 150.07 141.36 148.788 141Z" stroke="black" stroke-opacity="0.8" stroke-width="1.5"/>
<path d="M148.788 141C147.506 140.64 146.288 139.5 146.288 139.5C152.833 135.553 155.399 133.015 158.288 128C158.288 128 159.436 129.608 159.788 131.5C160.14 133.392 150.07 141.36 148.788 141Z" stroke="black" stroke-opacity="0.2" stroke-width="1.5"/>
<path d="M87.2895 147C84.2885 145.5 86.1612 120.628 96.7881 113L106.788 114.5H115.789L134.788 113C140.449 116.554 153.296 153.076 145.288 158C137.28 162.924 97.1571 160.623 99.2881 159C100.197 157.669 103.54 152.22 107.125 150.07C97.7665 154.272 90.172 148.441 87.2895 147Z" fill="#FF5E5E"/>
<path d="M108.288 149.5C98.3987 154.759 90.2905 148.5 87.2895 147C84.2885 145.5 86.1612 120.628 96.7881 113L106.788 114.5H115.789L134.788 113C140.449 116.554 153.296 153.076 145.288 158C137.28 162.924 97.1571 160.623 99.2881 159C100.295 157.526 104.287 151 108.288 149.5ZM108.288 149.5C112.788 144.5 108.461 132.58 111.789 125" stroke="black" stroke-opacity="0.8" stroke-width="1.5"/>
<path d="M108.288 149.5C98.3987 154.759 90.2905 148.5 87.2895 147C84.2885 145.5 86.1612 120.628 96.7881 113L106.788 114.5H115.789L134.788 113C140.449 116.554 153.296 153.076 145.288 158C137.28 162.924 97.1571 160.623 99.2881 159C100.295 157.526 104.287 151 108.288 149.5ZM108.288 149.5C112.788 144.5 108.461 132.58 111.789 125" stroke="black" stroke-opacity="0.2" stroke-width="1.5"/>
<path d="M90.2881 122.5C97.653 128.761 102.284 128.729 110.788 127" stroke="black" stroke-opacity="0.8"/>
<path d="M90.2881 122.5C97.653 128.761 102.284 128.729 110.788 127" stroke="black" stroke-opacity="0.2"/>
<path d="M86.2881 135C95.5288 140.356 100.728 141.096 110.288 138.7" stroke="black" stroke-opacity="0.8"/>
<path d="M86.2881 135C95.5288 140.356 100.728 141.096 110.288 138.7" stroke="black" stroke-opacity="0.2"/>
<path d="M111.288 127C122.315 128.211 128.801 127.409 140.788 124" stroke="black" stroke-opacity="0.8"/>
<path d="M111.288 127C122.315 128.211 128.801 127.409 140.788 124" stroke="black" stroke-opacity="0.2"/>
<path d="M89.514 152.388C89.0057 151.118 89.514 149 89.514 149C95.9464 151.33 99.6001 151.838 106.288 150.271C106.288 150.271 105.271 152.812 104.255 153.659C103.238 154.506 90.0223 153.659 89.514 152.388Z" fill="#FF5E5E"/>
<path d="M89.514 152.388C89.0057 151.118 89.514 149 89.514 149C95.9464 151.33 99.6001 151.838 106.288 150.271C106.288 150.271 105.271 152.812 104.255 153.659C103.238 154.506 90.0223 153.659 89.514 152.388Z" stroke="black" stroke-opacity="0.8" stroke-width="1.5"/>
<path d="M89.514 152.388C89.0057 151.118 89.514 149 89.514 149C95.9464 151.33 99.6001 151.838 106.288 150.271C106.288 150.271 105.271 152.812 104.255 153.659C103.238 154.506 90.0223 153.659 89.514 152.388Z" stroke="black" stroke-opacity="0.2" stroke-width="1.5"/>
<path d="M109.788 139C124.411 140.322 132.182 139.759 144.788 135" stroke="black" stroke-opacity="0.8"/>
<path d="M109.788 139C124.411 140.322 132.182 139.759 144.788 135" stroke="black" stroke-opacity="0.2"/>
<path d="M102.288 155.5C112.773 156.57 120.476 157.041 128.788 156.824M146.788 155.5C139.899 156.25 134.214 156.683 128.788 156.824M124.288 114.5C128.302 131.078 129.155 140.339 128.788 156.824" stroke="black" stroke-opacity="0.8"/>
<path d="M102.288 155.5C112.773 156.57 120.476 157.041 128.788 156.824M146.788 155.5C139.899 156.25 134.214 156.683 128.788 156.824M124.288 114.5C128.302 131.078 129.155 140.339 128.788 156.824" stroke="black" stroke-opacity="0.2"/>
<path d="M108.288 156L107.288 160" stroke="black" stroke-opacity="0.8"/>
<path d="M108.288 156L107.288 160" stroke="black" stroke-opacity="0.2"/>
<path d="M119.788 157V161" stroke="black" stroke-opacity="0.8"/>
<path d="M119.788 157V161" stroke="black" stroke-opacity="0.2"/>
<path d="M130.788 157V160.5" stroke="black" stroke-opacity="0.8"/>
<path d="M130.788 157V160.5" stroke="black" stroke-opacity="0.2"/>
<path d="M140.288 156.5L141.288 159.5" stroke="black" stroke-opacity="0.8"/>
<path d="M140.288 156.5L141.288 159.5" stroke="black" stroke-opacity="0.2"/>
<path d="M141.288 123.5C145.278 119.384 146.785 116.909 147.288 112" stroke="black" stroke-opacity="0.8"/>
<path d="M141.288 123.5C145.278 119.384 146.785 116.909 147.288 112" stroke="black" stroke-opacity="0.2"/>
<path d="M145.288 134.5C149.8 127.998 151.432 124.266 153.288 117.5" stroke="black" stroke-opacity="0.8"/>
<path d="M145.288 134.5C149.8 127.998 151.432 124.266 153.288 117.5" stroke="black" stroke-opacity="0.2"/>
<path d="M115.288 147C115.288 147 112.568 150.75 112.321 151.5C112.074 152.25 113.309 153 113.309 153" stroke="black" stroke-opacity="0.8" stroke-linecap="round" stroke-linejoin="bevel"/>
<path d="M115.288 147C115.288 147 112.568 150.75 112.321 151.5C112.074 152.25 113.309 153 113.309 153" stroke="black" stroke-opacity="0.2" stroke-linecap="round" stroke-linejoin="bevel"/>
<path d="M141.288 145C141.288 145 144.008 148.75 144.255 149.5C144.503 150.25 143.267 151 143.267 151" stroke="black" stroke-opacity="0.8" stroke-linecap="round" stroke-linejoin="bevel"/>
<path d="M141.288 145C141.288 145 144.008 148.75 144.255 149.5C144.503 150.25 143.267 151 143.267 151" stroke="black" stroke-opacity="0.2" stroke-linecap="round" stroke-linejoin="bevel"/>
<rect x="122.562" y="114.63" width="3.5" height="2.5" rx="0.75" transform="rotate(-5.83738 122.562 114.63)" fill="#595959" stroke="black" stroke-width="0.5"/>
<path d="M94.2784 150.598C94.3325 150.327 94.1569 150.064 93.8861 150.01C93.6154 149.956 93.352 150.131 93.2978 150.402L94.2784 150.598ZM93.2978 150.402L92.7978 152.902L93.7784 153.098L94.2784 150.598L93.2978 150.402Z" fill="black" fill-opacity="0.8"/>
<path d="M94.2784 150.598C94.3325 150.327 94.1569 150.064 93.8861 150.01C93.6154 149.956 93.352 150.131 93.2978 150.402L94.2784 150.598ZM93.2978 150.402L92.7978 152.902L93.7784 153.098L94.2784 150.598L93.2978 150.402Z" fill="black" fill-opacity="0.2"/>
<path d="M99.7881 151.5V153.5" stroke="black" stroke-opacity="0.8" stroke-linecap="round" stroke-linejoin="bevel"/>
<path d="M99.7881 151.5V153.5" stroke="black" stroke-opacity="0.2" stroke-linecap="round" stroke-linejoin="bevel"/>
<path d="M150.288 137.5L151.788 139" stroke="black" stroke-opacity="0.8" stroke-linecap="round" stroke-linejoin="bevel"/>
<path d="M150.288 137.5L151.788 139" stroke="black" stroke-opacity="0.2" stroke-linecap="round" stroke-linejoin="bevel"/>
<path d="M155.788 132.5L156.788 135" stroke="black" stroke-opacity="0.8" stroke-linecap="round" stroke-linejoin="bevel"/>
<path d="M155.788 132.5L156.788 135" stroke="black" stroke-opacity="0.2" stroke-linecap="round" stroke-linejoin="bevel"/>
</svg>
