<svg width="229" height="229" viewBox="0 0 229 229" fill="none" xmlns="http://www.w3.org/2000/svg">
<path d="M89.5824 134.39L94.7471 118.638L105.076 129.817V133.374L99.9117 153.191L94.7471 156.239L90.0988 154.207L88.033 147.093L89.5824 134.39Z" fill="white" stroke="black" stroke-width="0.1"/>
<path d="M94.7471 117.622L105.076 130.833" stroke="black" stroke-width="2"/>
<path d="M96.9489 113.049C86.4436 133.725 84.5538 155.223 94.883 156.747C105.212 158.272 104.411 125.195 106.762 125.752" stroke="black" stroke-width="3"/>
<path d="M91.8152 123.787L96.7482 114.739L105.439 115.862L111.36 115.569L117.598 121.474L123.086 123.273L128.557 114.199L138.14 111.653L141.103 137.916L152.572 161.687L146.651 161.981L140.81 163.824L135.101 168.249L133.46 167.813L127.486 167.073L122.13 167.856L117.418 170.679L115.159 168.719L109.671 166.92L106.415 166.563L99.0121 169.519L94.0622 167.693L91.3446 167.31L90.727 165.787L93.7186 160.978L100.937 154.406L105.685 141.742L100.302 142.009L92.6876 140.833L89.2466 136.86L88.903 130.145L91.8152 123.787Z" fill="#FFE880" stroke="black" stroke-width="0.1"/>
<path d="M94.852 160.4C94.852 160.4 87.5806 166.972 91.4277 167.816C95.2748 168.661 98.8787 170.467 99.3952 170.467C99.9117 170.467 104.316 167.282 107.689 167.011C113.173 167.804 116.862 171.374 117.683 171.174C118.505 170.975 120.71 168.413 125.113 167.701C128.492 166.146 134.113 169.712 134.949 168.766C135.785 167.82 145.781 160.813 153.603 161.631C147.965 151.083 146.014 146.606 141.494 137.385L138.494 110.618L128.896 114.199L122.814 122.782" stroke="black" stroke-width="2"/>
<path d="M97.8944 113.664C90.536 123.386 87.7364 128.674 88.2427 137.435C93.684 141.782 98.0542 142.25 106.421 142.228L108.391 127.637" stroke="black" stroke-width="2"/>
<path d="M96.8368 114.234C102.428 115.902 105.523 115.951 111.009 115.085C117.669 121.818 122.335 124.237 131.725 126.999C132.368 138.445 133.152 144.489 136.351 153.686" stroke="black" stroke-width="2"/>
<g filter="url(#filter0_d_288_80898)">
<path d="M94.2307 160.812C96.8814 158.905 99.9117 153.699 100.428 153.699" stroke="black" stroke-width="2"/>
</g>
<path d="M149.5 140.001C148.5 138.501 153 124.001 153 124.001C152.03 121.241 150.829 119.747 147.5 117.001C139.519 108.592 139.51 109.943 138.5 111.001C138.5 111.001 140.5 132.001 141 136.001C141.5 140.001 150.5 141.501 149.5 140.001Z" fill="#FFE880" stroke="black" stroke-width="2"/>
<defs>
<filter id="filter0_d_288_80898" x="89.6466" y="152.699" width="15.2631" height="16.9253" filterUnits="userSpaceOnUse" color-interpolation-filters="sRGB">
<feFlood flood-opacity="0" result="BackgroundImageFix"/>
<feColorMatrix in="SourceAlpha" type="matrix" values="0 0 0 0 0 0 0 0 0 0 0 0 0 0 0 0 0 0 127 0" result="hardAlpha"/>
<feOffset dy="4"/>
<feGaussianBlur stdDeviation="2"/>
<feComposite in2="hardAlpha" operator="out"/>
<feColorMatrix type="matrix" values="0 0 0 0 0 0 0 0 0 0 0 0 0 0 0 0 0 0 0.25 0"/>
<feBlend mode="normal" in2="BackgroundImageFix" result="effect1_dropShadow_288_80898"/>
<feBlend mode="normal" in="SourceGraphic" in2="effect1_dropShadow_288_80898" result="shape"/>
</filter>
</defs>
</svg>
