<svg width="229" height="229" viewBox="0 0 229 229" fill="none" xmlns="http://www.w3.org/2000/svg">
<path d="M80.4109 156C76.9117 154.5 96.9109 113 96.9109 113C108.927 117.066 117.56 116.183 133.911 113C142.041 128.507 145.395 137.458 139.411 156C136.127 167.617 94.6099 175.577 98.9109 157.5C98.9109 157.5 83.9102 157.5 80.4109 156Z" fill="url(#paint0_linear_112_49937)"/>
<path d="M98.9109 157.5C98.9109 157.5 83.9102 157.5 80.4109 156C76.9117 154.5 96.9109 113 96.9109 113C108.927 117.066 117.56 116.183 133.911 113C142.041 128.507 145.395 137.458 139.411 156C136.127 167.617 94.6099 175.577 98.9109 157.5ZM98.9109 157.5C111.179 152.026 113.912 136.5 108.411 127.5" stroke="black" stroke-width="1.7" stroke-linejoin="round"/>
<path d="M163.753 134.784C158.599 126.699 140.365 110 140.365 110L134.412 113.402C139.52 123.363 142.064 129.117 142.491 141.588C142.144 142.378 168.906 142.869 163.753 134.784Z" fill="#FFE85D" stroke="black" stroke-width="1.7" stroke-linejoin="round"/>
<defs>
<linearGradient id="paint0_linear_112_49937" x1="142.412" y1="138.5" x2="125.912" y2="164.5" gradientUnits="userSpaceOnUse">
<stop stop-color="#FFE85D"/>
<stop offset="1" stop-color="#FFDB5D"/>
</linearGradient>
</defs>
</svg>
