<svg width="229" height="229" viewBox="0 0 229 229" fill="none" xmlns="http://www.w3.org/2000/svg">
<path d="M141.324 110L134.824 113C139.195 121.856 141.874 126.624 143.324 138C146.904 141.884 152.451 144.496 158.324 145C158.324 145 156.324 141 157.824 140.5C159.324 140 162.324 140.5 162.324 140.5C158.98 130.155 154.433 120.701 141.324 110Z" fill="#500164" stroke="black" stroke-width="1.5" stroke-linejoin="round"/>
<path d="M96.8245 158C92.2486 155.54 89.8089 152.007 89.2761 147.1C88.0071 140.177 91.0709 130.458 99.3245 114C100.72 114.82 103.817 115.591 107.824 116.118C111.832 116.644 121.981 116.018 134.824 113C141.792 130.225 145.213 139.697 140.824 152.5C131.627 157.92 121.197 158.794 96.8245 158Z" fill="url(#paint0_linear_112_49043)"/>
<path d="M99.3245 114C87.3357 138.742 85.2716 151.788 96.8245 158M99.3245 114C85.7834 141.002 86.2115 149.864 96.8245 158M99.3245 114C100.72 114.82 103.817 115.591 107.824 116.118M96.8245 158C121.197 158.794 131.627 157.92 140.824 152.5C145.213 139.697 141.792 130.225 134.824 113C121.981 116.018 111.832 116.644 107.824 116.118M96.8245 158C101.12 141.644 103.324 184 107.824 116.118" stroke="black" stroke-width="1.5"/>
<defs>
<linearGradient id="paint0_linear_112_49043" x1="115.891" y1="113" x2="115.891" y2="158.253" gradientUnits="userSpaceOnUse">
<stop stop-color="#330040"/>
<stop offset="1" stop-color="#8500A6"/>
</linearGradient>
</defs>
</svg>
