<svg width="229" height="229" viewBox="0 0 229 229" fill="none" xmlns="http://www.w3.org/2000/svg">
<path d="M117.119 180.367C109.289 181.671 105.727 181.496 100.119 180.367C95.8819 171.438 96.0394 166.052 100.119 155.867C114.461 158.229 146.619 148.367 138.619 155.867C130.619 163.367 128.149 165.845 117.119 167.367C115.286 168.817 114.692 169.879 114.619 172.367L117.119 180.367Z" fill="#FFE880" stroke="black" stroke-width="2"/>
<path d="M119.119 173.867V167.867C126.703 166.374 131.117 162.956 139.119 154.867C139.119 154.867 132.119 167.867 133.119 168.867C134.119 169.867 137.619 175.367 137.619 175.367C132.362 177.426 129.099 177.791 122.619 176.867L119.119 173.867Z" fill="#FFE880" stroke="black" stroke-width="2"/>
</svg>
