<svg width="229" height="229" viewBox="0 0 229 229" fill="none" xmlns="http://www.w3.org/2000/svg">
<path d="M139.68 154C139.001 169.82 138.533 172.485 137.68 176C132.116 179.415 129.439 182.357 119.68 176V181.5C112.055 185.071 107.78 185.548 100.18 184C94.4123 173.028 94.8046 167.026 100.18 156.5C107.554 155.603 111.451 154.813 119.93 155.25L139.68 154Z" fill="#FFFCE0"/>
<path d="M119.68 176C129.439 182.357 132.116 179.415 137.68 176C138.533 172.485 139.001 169.82 139.68 154L119.93 155.25M119.68 176C119.117 167.897 119.187 163.343 119.93 155.25M119.68 176C119.68 181.5 119.68 181.5 119.68 181.5C112.055 185.071 107.78 185.548 100.18 184C94.4123 173.028 94.8046 167.026 100.18 156.5C107.554 155.603 111.451 154.813 119.93 155.25" stroke="black" stroke-width="1.5" stroke-linejoin="round"/>
</svg>
