<svg width="229" height="229" viewBox="0 0 229 229" fill="none" xmlns="http://www.w3.org/2000/svg">
<path d="M139.68 154C139.001 169.82 138.533 172.485 137.68 176C132.116 179.415 129.439 182.357 119.68 176V181.5C112.055 185.071 107.78 185.548 100.18 184C94.4123 173.028 94.8046 167.026 100.18 156.5C107.554 155.603 111.451 154.813 119.93 155.25L139.68 154Z" fill="white"/>
<path d="M119.68 176C129.439 182.357 132.116 179.415 137.68 176C138.533 172.485 139.001 169.82 139.68 154L119.93 155.25M119.68 176C119.117 167.897 119.187 163.343 119.93 155.25M119.68 176C119.68 181.5 119.68 181.5 119.68 181.5C112.055 185.071 107.78 185.548 100.18 184C94.4123 173.028 94.8046 167.026 100.18 156.5C107.554 155.603 111.451 154.813 119.93 155.25" stroke="black" stroke-width="1.5" stroke-linejoin="round"/>
<path d="M119 160.5C109.905 161.787 105.618 162.26 98.5 162L97 166.5C105.783 166.625 109.713 166.757 118.5 165.5L119 160.5Z" fill="#C6E4FF"/>
<path d="M96.5 170.5C105.267 170.529 109.306 170.19 118.5 169L119 173C110.205 174.129 105.789 174.009 97 174L96.5 170.5Z" fill="#C6E4FF"/>
<path d="M98 177.5C106.53 177.621 110.357 177.179 119 176V179C110.698 180.348 107.072 180.916 99 180.5L98 177.5Z" fill="#C6E4FF"/>
<path d="M138.5 158C130.953 159.487 127.229 160.318 120.5 159.5L120 163.5C127.577 163.604 131.181 163.029 138.5 162V158Z" fill="#C6E4FF"/>
<path d="M138.5 166C131.086 167.444 127.428 167.983 120 168V171C127.195 170.822 130.807 170.533 138 169L138.5 166Z" fill="#C6E4FF"/>
<path d="M137.5 172C130.475 173.515 127.531 173.582 120.5 174V175.5L122.5 177C129.324 177.276 131.423 176.183 137.5 174V172Z" fill="#C6E4FF"/>
</svg>
