<svg width="229" height="229" viewBox="0 0 229 229" fill="none" xmlns="http://www.w3.org/2000/svg">
<path d="M124.096 176.766C123.223 176.708 117.696 159.142 118.025 171.265C118.355 183.389 134.328 192.987 142.322 182.531C143.753 179.492 143.116 177.126 140.79 173.766C138.464 170.405 130.325 170.054 124.096 176.766Z" fill="#995519" stroke="black" stroke-width="1.5" stroke-linejoin="round"/>
<path d="M103.014 178C102.15 177.942 96.6882 160.377 97.014 172.5C97.3398 184.623 112.114 194.955 120.014 184.5C121.429 181.461 122.03 180.106 120.014 176.5C117.998 172.894 109.53 171.289 103.014 178Z" fill="#995519" stroke="black" stroke-width="1.5" stroke-linejoin="round"/>
<path d="M117.965 180.345C118.108 181.29 117.628 182.316 116.57 183.215C115.518 184.108 113.955 184.815 112.124 185.092C110.294 185.369 108.591 185.156 107.323 184.615C106.046 184.07 105.284 183.231 105.141 182.286C104.998 181.342 105.478 180.315 106.536 179.416C107.587 178.524 109.151 177.817 110.981 177.54C112.811 177.263 114.514 177.475 115.783 178.017C117.06 178.562 117.822 179.4 117.965 180.345Z" fill="white" stroke="black"/>
<path d="M139.965 179.345C140.108 180.29 139.628 181.316 138.57 182.215C137.518 183.108 135.955 183.815 134.124 184.092C132.294 184.369 130.591 184.156 129.323 183.615C128.046 183.07 127.284 182.231 127.141 181.286C126.998 180.342 127.478 179.315 128.536 178.416C129.587 177.524 131.151 176.817 132.981 176.54C134.811 176.263 136.514 176.475 137.783 177.017C139.06 177.562 139.822 178.4 139.965 179.345Z" fill="white" stroke="black"/>
</svg>
