<svg width="229" height="229" viewBox="0 0 229 229" fill="none" xmlns="http://www.w3.org/2000/svg">
<path d="M56.7409 167.613C55.9815 167.391 60.2492 155.644 60.8632 153.549C61.4772 151.454 69.885 164.967 68.6582 164.932C67.4314 164.898 64.423 165.316 64.423 165.316C64.423 165.316 65.5896 171.182 69.4451 170.687C73.3006 170.193 82.6423 150.879 90.5 151.974C93.4529 156.274 96.1111 158.077 98.3056 158.025C100.5 157.973 101.079 164.037 95.3548 161.059C89.631 158.082 89.69 157.338 87.6162 156.516C85.5424 155.695 74.7003 178.077 68.6257 176.296C62.5511 174.516 60.3921 166.409 60.3921 166.409C60.3921 166.409 57.5002 167.836 56.7409 167.613Z" fill="url(#paint0_linear_112_48422)" stroke="black" stroke-width="1.5"/>
<path d="M110.663 189.097C91.9445 186.837 96.8241 157.339 100.163 157.597C100.163 157.597 142.663 147.097 140.663 153.597C138.664 160.097 128.531 167.763 117.163 166.597C115.342 171.778 115.702 172.951 119.164 177.596C119.164 177.596 129.382 191.356 110.663 189.097Z" fill="#8500A6" stroke="black" stroke-width="1.5"/>
<path d="M120 176.974C118.331 173.402 118.274 170.919 119.5 167.476C119.155 168.895 135.164 164.334 138.5 157.976C141.836 151.619 136 167.974 136 167.974C136 167.974 144.5 184.471 133.5 184.474C122.5 184.476 120 176.974 120 176.974Z" fill="#760094" stroke="black" stroke-width="1.5"/>
<defs>
<linearGradient id="paint0_linear_112_48422" x1="81.8697" y1="149.958" x2="73.7128" y2="177.788" gradientUnits="userSpaceOnUse">
<stop stop-color="#AD00D8"/>
<stop offset="1" stop-color="#0F0013"/>
</linearGradient>
</defs>
</svg>
