<svg width="229" height="229" viewBox="0 0 229 229" fill="none" xmlns="http://www.w3.org/2000/svg">
<path d="M165.523 216C159.937 214.953 126.023 182 126.023 182L137.023 174L174.523 206.5C187.153 209.03 171.108 217.047 165.523 216Z" fill="#D9D9D9" stroke="black" stroke-width="1.5"/>
<path d="M166.023 214C160.437 212.953 126.523 180 126.523 180L137.523 172L175.023 204.5C187.653 207.03 171.608 215.047 166.023 214Z" fill="#9DE7FF" stroke="black"/>
<path d="M122.023 175C127.995 169.738 131.401 169.446 137.523 171C137.523 171 146.523 179 137.523 185C128.523 191 122.023 175 122.023 175Z" fill="#393939" stroke="black" stroke-width="1.5"/>
<path d="M139.523 173.5C134.25 176.192 130.922 177.444 124.023 179L125.523 181.5C132.932 179.413 136.187 177.98 140.523 175L139.523 173.5Z" fill="#969393" stroke="black"/>
<path d="M139.472 223.203C133.99 221.706 102.862 186.109 102.862 186.109L114.475 179.028L149.214 214.465C161.597 218.011 144.954 224.7 139.472 223.203Z" fill="#D9D9D9" stroke="black" stroke-width="1.5"/>
<path d="M140.133 221.25C134.651 219.753 103.523 184.156 103.523 184.156L115.136 177.075L149.874 212.512C162.257 216.059 145.615 222.747 140.133 221.25Z" fill="#9DE7FF" stroke="black"/>
<path d="M99.4437 178.807C105.824 174.047 109.242 174.033 115.217 176.079C115.217 176.079 123.538 184.783 114.081 190.032C104.624 195.282 99.4437 178.807 99.4437 178.807Z" fill="#393939" stroke="black" stroke-width="1.5"/>
<path d="M117.008 178.733C111.534 180.988 108.115 181.965 101.112 182.956L102.405 185.57C109.959 184.092 113.32 182.927 117.883 180.309L117.008 178.733Z" fill="#969393" stroke="black"/>
<path d="M69.5227 144L101.523 185.5C96.6551 175.019 95.2563 169.044 98.0227 158C92.498 158.03 90.1299 156.266 89.0227 145.5L81.5227 136C74.3574 133.515 69.5491 130.387 69.5227 144Z" fill="#D9D9D9" stroke="black"/>
<path d="M69.5227 141.184L100.523 181.5C95.655 171.019 95.2563 169.544 98.0227 158.5C92.498 158.53 90.6298 154.266 89.5227 143.5L81.5227 133.184C74.3574 130.698 69.5491 127.571 69.5227 141.184Z" fill="#9DE7FF" stroke="black"/>
<path d="M90.484 133L88.6905 130.294C88.6905 130.294 86.4188 123.072 88.2124 121.719C90.0059 120.366 95.9845 120.817 94.1909 123.974C92.3974 127.131 90.484 133 90.484 133Z" fill="#9DE7FF" stroke="black"/>
<path d="M166.523 213C170.47 213.632 180.277 209.171 178.523 207" stroke="#00C0FE" stroke-linecap="round"/>
<path d="M139.523 220C144.042 222.037 158.523 216.5 151.523 214" stroke="#00C0FE" stroke-linecap="round"/>
<path d="M99.5232 157.5C116.524 157.671 139.024 152.5 139.523 154C139.858 155.005 134.891 159.991 127.914 163.512C132.757 161.38 137.996 158.816 138.523 157.5C139.523 155 134.523 169 134.523 169C126.253 171.15 123.686 172.859 121.523 176.5L119.023 173.5L119.523 167C119.523 167 121.054 166.404 123.247 165.499C121.086 166.247 118.82 166.788 116.523 167C113.759 170.898 115.523 173 116.523 175C117.523 177 102.814 174.105 99.5232 179C96.1862 170.519 96.1428 165.81 99.5232 157.5Z" fill="#424242" stroke="black" stroke-width="1.5" stroke-linecap="round"/>
<path d="M157.023 140C158.023 140.5 185.523 162 185.523 162M185.523 162L186.523 160.5M185.523 162L184.523 163.5M185.523 162L186.523 162.5" stroke="black" stroke-width="1.5" stroke-linecap="round"/>
<path d="M92.4019 156C92.0865 157.374 74.0467 197.343 74.0467 197.343M74.0467 197.343L76.1485 198.15M74.0467 197.343L71.9449 196.536M74.0467 197.343L73.7313 198.717" stroke="black" stroke-width="1.5" stroke-linecap="round"/>
</svg>
