<svg width="229" height="229" viewBox="0 0 229 229" fill="none" xmlns="http://www.w3.org/2000/svg">
<path d="M154.411 62.4377C154.954 61.9615 155.398 61.383 155.718 60.7352C156.037 60.0874 156.226 59.383 156.273 58.6623C156.32 57.9416 156.225 57.2186 155.993 56.5347C155.761 55.8507 155.396 55.2192 154.92 54.6762C154.444 54.1331 153.865 53.6892 153.218 53.3698C152.57 53.0503 151.865 52.8616 151.145 52.8143C150.424 52.7671 149.701 52.8622 149.017 53.0944C148.333 53.3266 147.702 53.6912 147.159 54.1674L150.785 58.3025L154.411 62.4377Z" fill="#E2E2E2"/>
<path d="M92.0234 62.5409C67.0234 33.5409 45.3709 80.7354 80.0234 88.0409" stroke="black" stroke-width="2.5" stroke-linecap="round"/>
<path d="M87.0234 57.7779C109.443 36.5145 151.189 40.4694 156.023 72.541" stroke="black" stroke-width="2.5"/>
<path d="M141.523 51.0409C153.023 29.541 183.023 56.041 157.023 73.5409" stroke="black" stroke-width="2.5"/>
<path d="M99.5237 114.041C89.3534 134.387 87.5238 155.541 97.5237 157.041C107.524 158.541 106.748 125.993 109.024 126.541" stroke="black" stroke-width="3"/>
<path d="M99.5228 157.041C88.0234 195.041 129.523 194.041 116.023 174.541" stroke="black" stroke-width="3"/>
<path d="M134.523 113.041C153.372 148.902 135.523 166.041 117.523 167.041" stroke="black" stroke-width="3" stroke-linecap="round"/>
<path d="M140.023 152.541L134.637 168.941C143.679 179.522 132.425 191.465 119.205 174.041M119.459 166.378C119.459 166.378 118.479 173.553 119.459 174.578" stroke="black" stroke-width="3"/>
<path d="M118.523 166.541C115.052 169.791 114.869 171.787 116.523 175.541" stroke="black" stroke-width="3"/>
<circle cx="104.523" cy="78.041" r="4.5" fill="black"/>
<circle cx="141.523" cy="72.041" r="4.5" fill="black"/>
<path d="M111.516 89.8157C107.056 77.3979 132.807 63.7371 138.31 81.5193C143.814 99.3016 114.673 98.9856 111.516 89.8157Z" fill="#E2E2E2"/>
<path d="M114.332 145.665C111.464 128.928 128.019 110.515 131.557 134.483C135.094 158.45 116.361 158.024 114.332 145.665Z" fill="#E2E2E2"/>
<ellipse cx="125.379" cy="79.1179" rx="6" ry="2.57417" transform="rotate(-10 125.379 79.1179)" fill="black"/>
<ellipse cx="102.379" cy="87.1179" rx="6" ry="2.57417" transform="rotate(-10 102.379 87.1179)" fill="#FF6B57"/>
<ellipse cx="146.379" cy="80.1179" rx="6" ry="2.57417" transform="rotate(-10 146.379 80.1179)" fill="#FF6B57"/>
<path d="M126.174 80.2256V84.831" stroke="black" stroke-width="3" stroke-linecap="round"/>
<circle cx="76.7728" cy="68.29" r="5.5" transform="rotate(130.052 76.7728 68.29)" fill="#E2E2E2"/>
<path d="M140.5 110C158 126.5 164.5 137.5 154 140.5" stroke="black" stroke-width="2.5"/>
<path d="M154.5 140.5C143.934 140.01 142.739 134.938 140.5 126" stroke="black" stroke-width="2.5"/>
<path d="M156.023 71.541C175.523 118.041 78.5234 135.541 69.0234 83.041" stroke="black" stroke-width="2.5"/>
</svg>
