<svg width="66" height="65" viewBox="0 0 66 65" fill="none" xmlns="http://www.w3.org/2000/svg">
<g id="&#235;&#182;&#128;&#236;&#130;&#176;&#234;&#180;&#145;&#236;&#151;&#173;&#236;&#139;&#156;">
<g id="Gijang">
<path id="&#234;&#184;&#176;&#236;&#158;&#165;&#234;&#181;&#176;" d="M65.4008 9.09988L59.9008 11.4999L53.5008 32.4999L47.2008 28.7999L45.1008 21.8999L40.3008 13.5999L43.5008 6.19992L41.4008 3.49991L49.1008 6.09988L52.0008 0.399902H60.2008L65.4008 9.09988Z" fill="#AFD88C" stroke="white" stroke-width="0.5"/>
<path id="&#234;&#184;&#176;&#236;&#158;&#165;" d="M50.037 13.486H50.436V16.264H50.037V13.486ZM49.218 13.774H49.611C49.611 13.986 49.59 14.189 49.548 14.383C49.508 14.575 49.44 14.756 49.344 14.926C49.25 15.096 49.12 15.254 48.954 15.4C48.79 15.544 48.585 15.676 48.339 15.796L48.129 15.481C48.397 15.351 48.61 15.208 48.768 15.052C48.928 14.894 49.043 14.716 49.113 14.518C49.183 14.318 49.218 14.094 49.218 13.846V13.774ZM48.279 13.774H49.404V14.092H48.279V13.774ZM51.5008 13.798H51.8278V13.972C51.8278 14.148 51.7988 14.315 51.7408 14.473C51.6848 14.631 51.5988 14.77 51.4828 14.89C51.3668 15.008 51.2198 15.096 51.0418 15.154L50.8438 14.839C50.9958 14.789 51.1198 14.719 51.2158 14.629C51.3138 14.537 51.3858 14.434 51.4318 14.32C51.4778 14.204 51.5008 14.088 51.5008 13.972V13.798ZM51.5818 13.798H51.9028V13.972C51.9028 14.08 51.9248 14.185 51.9688 14.287C52.0128 14.387 52.0808 14.477 52.1728 14.557C52.2668 14.637 52.3888 14.7 52.5388 14.746L52.3468 15.058C52.1708 15.006 52.0258 14.926 51.9118 14.818C51.7998 14.708 51.7168 14.581 51.6628 14.437C51.6088 14.291 51.5818 14.136 51.5818 13.972V13.798ZM50.9458 13.672H52.4488V13.99H50.9458V13.672ZM52.6678 13.489H53.0668V15.136H52.6678V13.489ZM52.9588 14.125H53.4358V14.452H52.9588V14.125ZM52.1608 15.184C52.3548 15.184 52.5218 15.206 52.6618 15.25C52.8018 15.292 52.9098 15.353 52.9858 15.433C53.0618 15.513 53.0998 15.61 53.0998 15.724C53.0998 15.838 53.0618 15.935 52.9858 16.015C52.9098 16.097 52.8018 16.159 52.6618 16.201C52.5218 16.245 52.3548 16.267 52.1608 16.267C51.9688 16.267 51.8018 16.245 51.6598 16.201C51.5198 16.159 51.4108 16.097 51.3328 16.015C51.2568 15.935 51.2188 15.838 51.2188 15.724C51.2188 15.61 51.2568 15.513 51.3328 15.433C51.4108 15.353 51.5198 15.292 51.6598 15.25C51.8018 15.206 51.9688 15.184 52.1608 15.184ZM52.1608 15.496C52.0428 15.496 51.9438 15.504 51.8638 15.52C51.7838 15.536 51.7228 15.561 51.6808 15.595C51.6388 15.629 51.6178 15.672 51.6178 15.724C51.6178 15.778 51.6388 15.822 51.6808 15.856C51.7228 15.89 51.7838 15.916 51.8638 15.934C51.9438 15.95 52.0428 15.958 52.1608 15.958C52.2788 15.958 52.3778 15.95 52.4578 15.934C52.5398 15.916 52.6008 15.89 52.6408 15.856C52.6828 15.822 52.7038 15.778 52.7038 15.724C52.7038 15.672 52.6828 15.629 52.6408 15.595C52.6008 15.561 52.5398 15.536 52.4578 15.52C52.3778 15.504 52.2788 15.496 52.1608 15.496Z" fill="black"/>
</g>
<g id="Sasang">
<path id="&#236;&#130;&#172;&#236;&#131;&#129;&#234;&#181;&#172;" d="M25.0992 29.8999L29.3992 31.9999L28.3992 39.7999L26.8992 42.0999L21.6992 42.9999V40.0999L25.0992 29.8999Z" fill="#AFD88C" stroke="white" stroke-width="0.5"/>
<path id="&#236;&#130;&#172;&#236;&#131;&#129;" d="M23.5727 37.2382H23.8188V37.5464C23.8188 37.6783 23.8073 37.8071 23.7843 37.9328C23.7613 38.057 23.7253 38.1728 23.6762 38.2801C23.6287 38.3874 23.5681 38.4833 23.4945 38.5676C23.4209 38.6504 23.3343 38.7163 23.2346 38.7654L23.0506 38.5193C23.1411 38.4779 23.2185 38.4227 23.2829 38.3537C23.3488 38.2847 23.4033 38.2065 23.4462 38.1191C23.4891 38.0317 23.5206 37.9397 23.5405 37.8431C23.562 37.745 23.5727 37.6461 23.5727 37.5464V37.2382ZM23.6325 37.2382H23.8786V37.5464C23.8786 37.643 23.8878 37.7381 23.9062 37.8316C23.9261 37.9251 23.956 38.0141 23.9959 38.0984C24.0373 38.1812 24.0887 38.2556 24.15 38.3215C24.2113 38.3874 24.2849 38.4419 24.3708 38.4848L24.1845 38.7286C24.0894 38.6795 24.0066 38.6151 23.9361 38.5354C23.8671 38.4541 23.8104 38.3614 23.7659 38.2571C23.7214 38.1513 23.6877 38.0386 23.6647 37.919C23.6432 37.7979 23.6325 37.6737 23.6325 37.5464V37.2382ZM24.4536 37.0749H24.7618V39.2047H24.4536V37.0749ZM24.6951 37.8937H25.07V38.1467H24.6951V37.8937ZM25.677 37.1876H25.9277V37.3785C25.9277 37.518 25.9063 37.6507 25.8633 37.7764C25.8219 37.9006 25.7575 38.0095 25.6701 38.103C25.5827 38.1965 25.4716 38.2663 25.3366 38.3123L25.1756 38.0731C25.2952 38.0317 25.3918 37.9757 25.4654 37.9052C25.539 37.8331 25.5927 37.7511 25.6264 37.6591C25.6602 37.5671 25.677 37.4736 25.677 37.3785V37.1876ZM25.7391 37.1876H25.9852V37.4061C25.9852 37.4705 25.9944 37.5334 26.0128 37.5947C26.0328 37.656 26.0619 37.7135 26.1002 37.7672C26.1386 37.8209 26.1876 37.8692 26.2474 37.9121C26.3072 37.9535 26.3793 37.9872 26.4636 38.0133L26.3049 38.2525C26.1761 38.2096 26.0696 38.1459 25.9852 38.0616C25.9024 37.9773 25.8403 37.8791 25.7989 37.7672C25.7591 37.6553 25.7391 37.5349 25.7391 37.4061V37.1876ZM26.5786 37.0749H26.8845V38.333H26.5786V37.0749ZM26.8017 37.5671H27.1674V37.8201H26.8017V37.5671ZM26.1899 38.3813C26.3387 38.3813 26.4667 38.3982 26.574 38.4319C26.6814 38.4641 26.7642 38.5109 26.8224 38.5722C26.8807 38.632 26.9098 38.7056 26.9098 38.793C26.9098 38.8789 26.8807 38.9525 26.8224 39.0138C26.7642 39.0751 26.6814 39.1219 26.574 39.1541C26.4667 39.1878 26.3387 39.2047 26.1899 39.2047C26.0427 39.2047 25.9147 39.1878 25.8058 39.1541C25.6985 39.1219 25.6149 39.0751 25.5551 39.0138C25.4969 38.9525 25.4677 38.8789 25.4677 38.793C25.4677 38.7056 25.4969 38.632 25.5551 38.5722C25.6149 38.5109 25.6985 38.4641 25.8058 38.4319C25.9147 38.3982 26.0427 38.3813 26.1899 38.3813ZM26.1899 38.6182C26.0995 38.6182 26.0236 38.6251 25.9622 38.6389C25.9009 38.6512 25.8541 38.6703 25.8219 38.6964C25.7897 38.7209 25.7736 38.7531 25.7736 38.793C25.7736 38.8313 25.7897 38.8635 25.8219 38.8896C25.8541 38.9157 25.9009 38.9356 25.9622 38.9494C26.0236 38.9617 26.0995 38.9678 26.1899 38.9678C26.2804 38.9678 26.3563 38.9617 26.4176 38.9494C26.4805 38.9356 26.5273 38.9157 26.5579 38.8896C26.5901 38.8635 26.6062 38.8313 26.6062 38.793C26.6062 38.7531 26.5901 38.7209 26.5579 38.6964C26.5273 38.6703 26.4805 38.6512 26.4176 38.6389C26.3563 38.6251 26.2804 38.6182 26.1899 38.6182Z" fill="black"/>
</g>
<g id="Suyeong">
<path id="&#236;&#136;&#152;&#236;&#152;&#129;&#234;&#181;&#172;" d="M41.5996 32L43.0996 35.2L42.9996 35.3L43.6996 36.1L41.9996 39.2L39.0996 35.9L41.4996 32.4L41.5996 32Z" fill="#AFD88C" stroke="white" stroke-width="0.5"/>
<path id="&#236;&#136;&#152;&#236;&#152;&#129;" d="M40.585 35.2835H40.759V35.3495C40.759 35.4025 40.7505 35.454 40.7335 35.504C40.7175 35.553 40.6935 35.599 40.6615 35.642C40.6295 35.685 40.5905 35.7235 40.5445 35.7575C40.4985 35.7915 40.445 35.8205 40.384 35.8445C40.324 35.8675 40.258 35.885 40.186 35.897L40.108 35.7365C40.172 35.7285 40.229 35.715 40.279 35.696C40.33 35.677 40.3745 35.6545 40.4125 35.6285C40.4515 35.6025 40.4835 35.574 40.5085 35.543C40.5335 35.512 40.5525 35.48 40.5655 35.447C40.5785 35.414 40.585 35.3815 40.585 35.3495V35.2835ZM40.6225 35.2835H40.7965V35.3495C40.7965 35.3815 40.803 35.414 40.816 35.447C40.829 35.48 40.848 35.512 40.873 35.543C40.898 35.574 40.9295 35.6025 40.9675 35.6285C41.0065 35.6545 41.051 35.677 41.101 35.696C41.152 35.715 41.2095 35.7285 41.2735 35.7365L41.1955 35.897C41.1225 35.885 41.056 35.8675 40.996 35.8445C40.936 35.8205 40.883 35.7915 40.837 35.7575C40.791 35.7225 40.752 35.6835 40.72 35.6405C40.688 35.5975 40.6635 35.5515 40.6465 35.5025C40.6305 35.4535 40.6225 35.4025 40.6225 35.3495V35.2835ZM40.585 36.1235H40.7845V36.6335H40.585V36.1235ZM40.0615 35.9975H41.3185V36.1595H40.0615V35.9975ZM42.0549 35.4245H42.4659V35.585H42.0549V35.4245ZM42.0549 35.7335H42.4659V35.8925H42.0549V35.7335ZM41.8239 35.318C41.8939 35.318 41.9564 35.333 42.0114 35.363C42.0664 35.392 42.1099 35.432 42.1419 35.483C42.1749 35.534 42.1914 35.5925 42.1914 35.6585C42.1914 35.7235 42.1749 35.7815 42.1419 35.8325C42.1099 35.8835 42.0664 35.924 42.0114 35.954C41.9564 35.983 41.8939 35.9975 41.8239 35.9975C41.7559 35.9975 41.6939 35.983 41.6379 35.954C41.5829 35.924 41.5389 35.8835 41.5059 35.8325C41.4739 35.7815 41.4579 35.7235 41.4579 35.6585C41.4579 35.5925 41.4739 35.534 41.5059 35.483C41.5389 35.432 41.5829 35.392 41.6379 35.363C41.6939 35.333 41.7559 35.318 41.8239 35.318ZM41.8239 35.486C41.7909 35.486 41.7609 35.493 41.7339 35.507C41.7069 35.52 41.6854 35.5395 41.6694 35.5655C41.6544 35.5905 41.6469 35.6215 41.6469 35.6585C41.6469 35.6935 41.6544 35.724 41.6694 35.75C41.6854 35.776 41.7069 35.796 41.7339 35.81C41.7609 35.823 41.7909 35.8295 41.8239 35.8295C41.8589 35.8295 41.8894 35.823 41.9154 35.81C41.9424 35.796 41.9634 35.776 41.9784 35.75C41.9934 35.724 42.0009 35.6935 42.0009 35.6585C42.0009 35.6215 41.9934 35.5905 41.9784 35.5655C41.9634 35.5395 41.9424 35.52 41.9154 35.507C41.8894 35.493 41.8589 35.486 41.8239 35.486ZM42.4029 35.2445H42.6039V36.0575H42.4029V35.2445ZM42.1329 36.086C42.2309 36.086 42.3149 36.097 42.3849 36.119C42.4559 36.14 42.5109 36.171 42.5499 36.212C42.5889 36.253 42.6084 36.302 42.6084 36.359C42.6084 36.416 42.5889 36.465 42.5499 36.506C42.5109 36.548 42.4559 36.5795 42.3849 36.6005C42.3149 36.6225 42.2309 36.6335 42.1329 36.6335C42.0349 36.6335 41.9504 36.6225 41.8794 36.6005C41.8084 36.5795 41.7534 36.548 41.7144 36.506C41.6764 36.465 41.6574 36.416 41.6574 36.359C41.6574 36.302 41.6764 36.253 41.7144 36.212C41.7534 36.171 41.8084 36.14 41.8794 36.119C41.9504 36.097 42.0349 36.086 42.1329 36.086ZM42.1329 36.239C42.0729 36.239 42.0219 36.2435 41.9799 36.2525C41.9379 36.2615 41.9064 36.275 41.8854 36.293C41.8644 36.31 41.8539 36.332 41.8539 36.359C41.8539 36.386 41.8644 36.4085 41.8854 36.4265C41.9064 36.4445 41.9379 36.458 41.9799 36.467C42.0219 36.475 42.0729 36.479 42.1329 36.479C42.1939 36.479 42.2449 36.475 42.2859 36.467C42.3279 36.458 42.3594 36.4445 42.3804 36.4265C42.4014 36.4085 42.4119 36.386 42.4119 36.359C42.4119 36.332 42.4014 36.31 42.3804 36.293C42.3594 36.275 42.3279 36.2615 42.2859 36.2525C42.2449 36.2435 42.1939 36.239 42.1329 36.239Z" fill="black"/>
</g>
<g id="Yeonje">
<path id="&#236;&#151;&#176;&#236;&#160;&#156;&#234;&#181;&#172;" d="M32.9004 30.7998L41.5004 32.3998L39.1004 35.8998L37.4004 36.4998L32.9004 30.7998Z" fill="#AFD88C" stroke="white" stroke-width="0.5"/>
<path id="&#236;&#151;&#176;&#236;&#160;&#156;" d="M36.9795 32.9947H37.4436V33.1766H36.9795V32.9947ZM36.9795 33.3772H37.4436V33.5591H36.9795V33.3772ZM37.3586 32.7771H37.5864V33.928H37.3586V32.7771ZM36.546 34.1422H37.6221V34.3241H36.546V34.1422ZM36.546 33.8158H36.7721V34.2374H36.546V33.8158ZM36.7024 32.8706C36.7806 32.8706 36.8509 32.8881 36.9132 32.9233C36.9767 32.9573 37.0266 33.0049 37.0628 33.0661C37.1002 33.1273 37.1189 33.1975 37.1189 33.2769C37.1189 33.3551 37.1002 33.4253 37.0628 33.4877C37.0266 33.5489 36.9767 33.597 36.9132 33.6322C36.8509 33.6673 36.7806 33.6849 36.7024 33.6849C36.6254 33.6849 36.5551 33.6673 36.4916 33.6322C36.4293 33.597 36.3794 33.5489 36.342 33.4877C36.3058 33.4253 36.2876 33.3551 36.2876 33.2769C36.2876 33.1975 36.3058 33.1273 36.342 33.0661C36.3794 33.0049 36.4293 32.9573 36.4916 32.9233C36.5551 32.8881 36.6254 32.8706 36.7024 32.8706ZM36.7024 33.0678C36.665 33.0678 36.631 33.0763 36.6004 33.0933C36.5698 33.1103 36.5455 33.1346 36.5273 33.1664C36.5103 33.197 36.5018 33.2338 36.5018 33.2769C36.5018 33.3211 36.5103 33.359 36.5273 33.3908C36.5455 33.4214 36.5698 33.4452 36.6004 33.4622C36.631 33.478 36.665 33.486 36.7024 33.486C36.741 33.486 36.775 33.478 36.8044 33.4622C36.835 33.4452 36.8588 33.4214 36.8758 33.3908C36.894 33.359 36.903 33.3211 36.903 33.2769C36.903 33.2338 36.894 33.197 36.8758 33.1664C36.8588 33.1346 36.835 33.1103 36.8044 33.0933C36.775 33.0763 36.741 33.0678 36.7024 33.0678ZM38.9684 32.7754H39.1843V34.3496H38.9684V32.7754ZM38.4499 33.3143H38.7117V33.4979H38.4499V33.3143ZM38.6505 32.8009H38.8613V34.2782H38.6505V32.8009ZM38.1116 33.0321H38.2816V33.1936C38.2816 33.282 38.2748 33.3692 38.2612 33.4554C38.2487 33.5415 38.2289 33.6231 38.2017 33.7002C38.1745 33.7761 38.1388 33.8447 38.0946 33.9059C38.0504 33.9671 37.9971 34.0175 37.9348 34.0572L37.8005 33.8906C37.8776 33.8418 37.9388 33.7806 37.9841 33.707C38.0294 33.6322 38.0617 33.5506 38.081 33.4622C38.1014 33.3726 38.1116 33.2831 38.1116 33.1936V33.0321ZM38.1626 33.0321H38.3309V33.1936C38.3309 33.2808 38.3405 33.367 38.3598 33.452C38.3791 33.537 38.4108 33.6146 38.455 33.6849C38.4992 33.754 38.5593 33.8107 38.6352 33.8549L38.5043 34.0181C38.4204 33.9682 38.3536 33.9008 38.3037 33.8158C38.2538 33.7308 38.2176 33.635 38.1949 33.5285C38.1734 33.4208 38.1626 33.3092 38.1626 33.1936V33.0321ZM37.8583 32.9335H38.5604V33.1154H37.8583V32.9335Z" fill="black"/>
</g>
<g id="busan_Gangseo">
<path id="&#234;&#176;&#149;&#236;&#132;&#156;&#234;&#181;&#172;_00000005965601791535691050000009006076288229410219_" d="M4.89999 47.6L5.79999 48.8L7.79999 55.1L5.10001 63.4L1 53.3L4.60001 50.8L2.70001 49.6L4.89999 47.6ZM17.9 46.6L18.1 46.7V47L15.7 49.2L6.20001 48.7L5.20001 47.6L6.89999 44L0.5 37.2L9.39999 35.4L11 38.1L12.1 28.2L26.3 24.5L25.2 29.9L21.7 40.1L18.3 44.8L17.9 46.6Z" fill="#AFD88C" stroke="white" stroke-width="0.5"/>
<path id="&#234;&#176;&#149;&#236;&#132;&#156;" d="M11.908 41.486H12.307V43.094H11.908V41.486ZM12.199 42.134H12.676V42.464H12.199V42.134ZM11.116 41.669H11.545C11.545 41.917 11.495 42.14 11.395 42.338C11.295 42.534 11.149 42.701 10.957 42.839C10.767 42.977 10.536 43.084 10.264 43.16L10.102 42.842C10.324 42.78 10.51 42.701 10.66 42.605C10.812 42.507 10.926 42.396 11.002 42.272C11.078 42.146 11.116 42.011 11.116 41.867V41.669ZM10.231 41.669H11.356V41.987H10.231V41.669ZM11.407 43.13C11.595 43.13 11.759 43.154 11.899 43.202C12.039 43.248 12.147 43.314 12.223 43.4C12.301 43.484 12.34 43.584 12.34 43.7C12.34 43.816 12.301 43.916 12.223 44C12.147 44.086 12.039 44.152 11.899 44.198C11.759 44.244 11.595 44.267 11.407 44.267C11.221 44.267 11.058 44.244 10.918 44.198C10.778 44.152 10.669 44.086 10.591 44C10.513 43.916 10.474 43.816 10.474 43.7C10.474 43.584 10.513 43.484 10.591 43.4C10.669 43.314 10.778 43.248 10.918 43.202C11.058 43.154 11.221 43.13 11.407 43.13ZM11.407 43.439C11.297 43.439 11.201 43.449 11.119 43.469C11.039 43.489 10.977 43.518 10.933 43.556C10.891 43.594 10.87 43.642 10.87 43.7C10.87 43.756 10.891 43.803 10.933 43.841C10.977 43.879 11.039 43.908 11.119 43.928C11.201 43.948 11.297 43.958 11.407 43.958C11.521 43.958 11.618 43.948 11.698 43.928C11.778 43.908 11.839 43.879 11.881 43.841C11.925 43.803 11.947 43.756 11.947 43.7C11.947 43.642 11.925 43.594 11.881 43.556C11.839 43.518 11.778 43.489 11.698 43.469C11.618 43.449 11.521 43.439 11.407 43.439ZM14.2838 42.356H15.0158V42.677H14.2838V42.356ZM13.5278 41.699H13.8488V42.104C13.8488 42.278 13.8338 42.447 13.8038 42.611C13.7738 42.775 13.7278 42.928 13.6658 43.07C13.6038 43.212 13.5248 43.337 13.4288 43.445C13.3348 43.553 13.2228 43.64 13.0928 43.706L12.8438 43.388C12.9618 43.332 13.0628 43.259 13.1468 43.169C13.2328 43.079 13.3038 42.977 13.3598 42.863C13.4178 42.747 13.4598 42.625 13.4858 42.497C13.5138 42.367 13.5278 42.236 13.5278 42.104V41.699ZM13.6088 41.699H13.9268V42.104C13.9268 42.234 13.9398 42.363 13.9658 42.491C13.9918 42.617 14.0308 42.735 14.0828 42.845C14.1368 42.955 14.2058 43.053 14.2898 43.139C14.3738 43.223 14.4738 43.291 14.5898 43.343L14.3498 43.661C14.2198 43.597 14.1078 43.513 14.0138 43.409C13.9198 43.303 13.8428 43.182 13.7828 43.046C13.7248 42.91 13.6808 42.762 13.6508 42.602C13.6228 42.442 13.6088 42.276 13.6088 42.104V41.699ZM14.8148 41.483H15.2138V44.27H14.8148V41.483Z" fill="black"/>
</g>
<g id="Geumjeong">
<path id="&#234;&#184;&#136;&#236;&#160;&#149;&#234;&#181;&#172;" d="M45.1008 21.8L40.8008 28.3L34.6008 25.9L32.3008 25.2L32.6008 18.4L40.4008 13.5L45.1008 21.8Z" fill="#AFD88C" stroke="white" stroke-width="0.5"/>
<path id="&#234;&#184;&#136;&#236;&#160;&#149;" d="M36.432 20.612H38.19V20.927H36.432V20.612ZM36.123 21.611H38.64V21.926H36.123V21.611ZM37.95 20.612H38.343V20.834C38.343 20.952 38.34 21.079 38.334 21.215C38.328 21.351 38.304 21.509 38.262 21.689L37.863 21.686C37.907 21.504 37.932 21.346 37.938 21.212C37.946 21.078 37.95 20.952 37.95 20.834V20.612ZM36.417 22.217H38.331V23.237H36.417V22.217ZM37.941 22.529H36.81V22.922H37.941V22.529ZM40.3888 21.158H40.9168V21.482H40.3888V21.158ZM40.8058 20.489H41.2078V22.139H40.8058V20.489ZM40.2658 22.199C40.4618 22.199 40.6308 22.22 40.7728 22.262C40.9148 22.304 41.0238 22.365 41.0998 22.445C41.1778 22.525 41.2168 22.621 41.2168 22.733C41.2168 22.905 41.1318 23.037 40.9618 23.129C40.7918 23.223 40.5598 23.27 40.2658 23.27C39.9718 23.27 39.7398 23.223 39.5698 23.129C39.3998 23.037 39.3148 22.905 39.3148 22.733C39.3148 22.621 39.3528 22.525 39.4288 22.445C39.5068 22.365 39.6168 22.304 39.7588 22.262C39.9008 22.22 40.0698 22.199 40.2658 22.199ZM40.2658 22.502C40.1458 22.502 40.0448 22.511 39.9628 22.529C39.8808 22.545 39.8178 22.57 39.7738 22.604C39.7318 22.638 39.7108 22.681 39.7108 22.733C39.7108 22.785 39.7318 22.829 39.7738 22.865C39.8178 22.899 39.8808 22.925 39.9628 22.943C40.0448 22.959 40.1458 22.967 40.2658 22.967C40.3858 22.967 40.4868 22.959 40.5688 22.943C40.6508 22.925 40.7128 22.899 40.7548 22.865C40.7968 22.829 40.8178 22.785 40.8178 22.733C40.8178 22.681 40.7968 22.638 40.7548 22.604C40.7128 22.57 40.6508 22.545 40.5688 22.529C40.4868 22.511 40.3858 22.502 40.2658 22.502ZM39.5248 20.765H39.8488V20.942C39.8488 21.118 39.8208 21.286 39.7648 21.446C39.7088 21.606 39.6228 21.747 39.5068 21.869C39.3928 21.989 39.2468 22.079 39.0688 22.139L38.8678 21.824C38.9818 21.786 39.0798 21.735 39.1618 21.671C39.2458 21.607 39.3138 21.536 39.3658 21.458C39.4198 21.378 39.4598 21.294 39.4858 21.206C39.5118 21.118 39.5248 21.03 39.5248 20.942V20.765ZM39.6088 20.765H39.9268V20.939C39.9268 21.049 39.9488 21.157 39.9928 21.263C40.0368 21.369 40.1048 21.465 40.1968 21.551C40.2908 21.637 40.4108 21.705 40.5568 21.755L40.3618 22.067C40.1898 22.009 40.0478 21.924 39.9358 21.812C39.8258 21.698 39.7438 21.566 39.6898 21.416C39.6358 21.264 39.6088 21.105 39.6088 20.939V20.765ZM38.9758 20.657H40.4698V20.972H38.9758V20.657Z" fill="black"/>
</g>
<g id="Saha">
<path id="&#236;&#130;&#172;&#237;&#149;&#152;&#234;&#181;&#172;" d="M20.7008 48.9L18.3008 47V46.6L18.6008 45V44.9L21.5008 40V43L26.7008 42.1L27.8008 53.7L23.4008 52.5L23.3008 55.5L21.3008 52.2L20.7008 48.9Z" fill="#AFD88C" stroke="white" stroke-width="0.5"/>
<path id="&#236;&#130;&#172;&#237;&#149;&#152;" d="M21.6225 46.085H21.89V46.42C21.89 46.5633 21.8775 46.7033 21.8525 46.84C21.8275 46.975 21.7883 47.1008 21.735 47.2175C21.6833 47.3342 21.6175 47.4383 21.5375 47.53C21.4575 47.62 21.3633 47.6917 21.255 47.745L21.055 47.4775C21.1533 47.4325 21.2375 47.3725 21.3075 47.2975C21.3792 47.2225 21.4383 47.1375 21.485 47.0425C21.5317 46.9475 21.5658 46.8475 21.5875 46.7425C21.6108 46.6358 21.6225 46.5283 21.6225 46.42V46.085ZM21.6875 46.085H21.955V46.42C21.955 46.525 21.965 46.6283 21.985 46.73C22.0067 46.8317 22.0392 46.9283 22.0825 47.02C22.1275 47.11 22.1833 47.1908 22.25 47.2625C22.3167 47.3342 22.3967 47.3933 22.49 47.44L22.2875 47.705C22.1842 47.6517 22.0942 47.5817 22.0175 47.495C21.9425 47.4067 21.8808 47.3058 21.8325 47.1925C21.7842 47.0775 21.7475 46.955 21.7225 46.825C21.6992 46.6933 21.6875 46.5583 21.6875 46.42V46.085ZM22.58 45.9075H22.915V48.2225H22.58V45.9075ZM22.8425 46.7975H23.25V47.0725H22.8425V46.7975ZM24.8848 45.9075H25.2173V48.2225H24.8848V45.9075ZM25.1423 46.81H25.5498V47.085H25.1423V46.81ZM23.3898 46.2475H24.7398V46.5125H23.3898V46.2475ZM24.0698 46.645C24.1815 46.645 24.2815 46.6692 24.3698 46.7175C24.4581 46.7642 24.5273 46.8283 24.5773 46.91C24.629 46.9917 24.6548 47.0867 24.6548 47.195C24.6548 47.3033 24.629 47.3992 24.5773 47.4825C24.5273 47.5642 24.4581 47.6292 24.3698 47.6775C24.2831 47.7242 24.1831 47.7475 24.0698 47.7475C23.9581 47.7475 23.8573 47.7242 23.7673 47.6775C23.679 47.6292 23.609 47.5642 23.5573 47.4825C23.5073 47.3992 23.4823 47.3033 23.4823 47.195C23.4823 47.0867 23.5073 46.9917 23.5573 46.91C23.609 46.8283 23.679 46.7642 23.7673 46.7175C23.8573 46.6692 23.9581 46.645 24.0698 46.645ZM24.0698 46.915C24.0165 46.915 23.9698 46.9258 23.9298 46.9475C23.8898 46.9692 23.8581 47.0008 23.8348 47.0425C23.8115 47.0842 23.7998 47.135 23.7998 47.195C23.7998 47.2533 23.8115 47.3042 23.8348 47.3475C23.8581 47.3892 23.8898 47.4217 23.9298 47.445C23.9698 47.4667 24.0165 47.4775 24.0698 47.4775C24.1215 47.4775 24.1673 47.4667 24.2073 47.445C24.2473 47.4217 24.279 47.3892 24.3023 47.3475C24.3256 47.3042 24.3373 47.2533 24.3373 47.195C24.3373 47.135 24.3256 47.0842 24.3023 47.0425C24.279 47.0008 24.2473 46.9692 24.2073 46.9475C24.1673 46.9258 24.1215 46.915 24.0698 46.915ZM23.8998 45.945H24.2348V46.35H23.8998V45.945Z" fill="black"/>
</g>
<g id="Haeundae">
<path id="&#237;&#149;&#180;&#236;&#154;&#180;&#235;&#140;&#128;&#234;&#181;&#172;" d="M40.8008 28.2998L45.1008 21.7998L47.2008 28.6998L53.5008 32.3998L51.7008 35.6998L45.1008 36.7998L44.2008 35.7998L43.1008 35.1998L41.6008 31.9998L40.8008 28.2998Z" fill="#AFD88C" stroke="white" stroke-width="0.5"/>
<path id="&#237;&#149;&#180;&#236;&#154;&#180;&#235;&#140;&#128;" d="M43.1 31.255H44.2075V31.5175H43.1V31.255ZM43.6575 31.6225C43.7558 31.6225 43.8425 31.6458 43.9175 31.6925C43.9942 31.7392 44.0542 31.8042 44.0975 31.8875C44.1425 31.9692 44.165 32.0642 44.165 32.1725C44.165 32.2808 44.1425 32.3767 44.0975 32.46C44.0542 32.5417 43.9942 32.6058 43.9175 32.6525C43.8425 32.6992 43.7558 32.7225 43.6575 32.7225C43.5592 32.7225 43.4717 32.6992 43.395 32.6525C43.3183 32.6058 43.2583 32.5417 43.215 32.46C43.1717 32.3767 43.15 32.2808 43.15 32.1725C43.15 32.0642 43.1717 31.9692 43.215 31.8875C43.2583 31.8042 43.3183 31.7392 43.395 31.6925C43.4733 31.6458 43.5608 31.6225 43.6575 31.6225ZM43.6575 31.8975C43.6175 31.8975 43.5808 31.9083 43.5475 31.93C43.5142 31.9517 43.4883 31.9833 43.47 32.025C43.4517 32.065 43.4425 32.1142 43.4425 32.1725C43.4425 32.2308 43.4517 32.2808 43.47 32.3225C43.4883 32.3642 43.5142 32.3958 43.5475 32.4175C43.5808 32.4375 43.6175 32.4475 43.6575 32.4475C43.6992 32.4475 43.7358 32.4375 43.7675 32.4175C43.7992 32.3958 43.8242 32.3642 43.8425 32.3225C43.8608 32.2808 43.87 32.2308 43.87 32.1725C43.87 32.1142 43.8608 32.065 43.8425 32.025C43.8242 31.9833 43.7992 31.9517 43.7675 31.93C43.7358 31.9083 43.6992 31.8975 43.6575 31.8975ZM44.775 30.905H45.09V33.22H44.775V30.905ZM44.4975 31.8475H44.8775V32.115H44.4975V31.8475ZM44.2875 30.9475H44.5975V33.1225H44.2875V30.9475ZM43.495 30.9675H43.8225V31.42H43.495V30.9675ZM45.4023 32.0325H47.4973V32.295H45.4023V32.0325ZM46.2998 32.2025H46.6373V32.6925H46.2998V32.2025ZM45.6473 32.915H47.2698V33.1825H45.6473V32.915ZM45.6473 32.4875H45.9823V32.9825H45.6473V32.4875ZM46.4473 30.9475C46.614 30.9475 46.7598 30.9675 46.8848 31.0075C47.0098 31.0458 47.1065 31.1017 47.1748 31.175C47.2448 31.2467 47.2798 31.3317 47.2798 31.43C47.2798 31.5267 47.2448 31.6108 47.1748 31.6825C47.1065 31.7542 47.0098 31.81 46.8848 31.85C46.7598 31.89 46.614 31.91 46.4473 31.91C46.2823 31.91 46.1373 31.89 46.0123 31.85C45.8873 31.81 45.7898 31.7542 45.7198 31.6825C45.6498 31.6108 45.6148 31.5267 45.6148 31.43C45.6148 31.3317 45.6498 31.2467 45.7198 31.175C45.7898 31.1017 45.8873 31.0458 46.0123 31.0075C46.1373 30.9675 46.2823 30.9475 46.4473 30.9475ZM46.4473 31.2125C46.3506 31.2125 46.2665 31.2208 46.1948 31.2375C46.1248 31.2542 46.0698 31.2783 46.0298 31.31C45.9915 31.3417 45.9723 31.3817 45.9723 31.43C45.9723 31.475 45.9915 31.5142 46.0298 31.5475C46.0698 31.5808 46.1248 31.6058 46.1948 31.6225C46.2665 31.6375 46.3506 31.645 46.4473 31.645C46.5456 31.645 46.6298 31.6375 46.6998 31.6225C46.7715 31.6058 46.8265 31.5808 46.8648 31.5475C46.9031 31.5142 46.9223 31.475 46.9223 31.43C46.9223 31.3817 46.9031 31.3417 46.8648 31.31C46.8265 31.2783 46.7715 31.2542 46.6998 31.2375C46.6298 31.2208 46.5456 31.2125 46.4473 31.2125ZM49.3721 30.905H49.6896V33.22H49.3721V30.905ZM49.0646 31.7975H49.4496V32.065H49.0646V31.7975ZM48.8546 30.945H49.1621V33.1125H48.8546V30.945ZM47.7671 32.425H47.9271C48.0238 32.425 48.1154 32.4242 48.2021 32.4225C48.2888 32.4192 48.3746 32.4133 48.4596 32.405C48.5463 32.395 48.6346 32.3825 48.7246 32.3675L48.7521 32.6375C48.6588 32.6542 48.5679 32.6675 48.4796 32.6775C48.3913 32.6875 48.3021 32.6942 48.2121 32.6975C48.1221 32.6992 48.0271 32.7 47.9271 32.7H47.7671V32.425ZM47.7671 31.175H48.6196V31.4425H48.0946V32.5575H47.7671V31.175Z" fill="black"/>
</g>
<g id="busan_Bukgu">
<path id="&#235;&#182;&#129;&#234;&#181;&#172;_00000147926145647962615330000006782993992366670232_" d="M25.0996 29.8999L26.1996 24.4999L28.2996 18.4999L32.5996 18.3999L32.2996 25.1999L34.5996 25.8999L32.3996 30.0999L29.3996 31.9999L25.0996 29.8999Z" fill="#AFD88C" stroke="white" stroke-width="0.5"/>
<path id="&#235;&#182;&#129;&#234;&#181;&#172;" d="M27.9775 27.2075H28.31V27.56H27.9775V27.2075ZM27.1 27.0075H29.195V27.2725H27.1V27.0075ZM27.3325 27.4675H28.9425V28.2225H28.61V27.73H27.3325V27.4675ZM27.3675 25.965H27.695V26.1675H28.6V25.965H28.93V26.8575H27.3675V25.965ZM27.695 26.4175V26.5975H28.6V26.4175H27.695ZM29.6423 26.04H31.0923V26.3025H29.6423V26.04ZM29.4023 27.025H31.4973V27.295H29.4023V27.025ZM30.2698 27.215H30.6048V28.2225H30.2698V27.215ZM30.9223 26.04H31.2498V26.245C31.2498 26.3283 31.2481 26.4167 31.2448 26.51C31.2431 26.6033 31.2365 26.7058 31.2248 26.8175C31.2131 26.9275 31.1915 27.0508 31.1598 27.1875L30.8348 27.1475C30.8781 26.9558 30.9031 26.7883 30.9098 26.645C30.9181 26.5 30.9223 26.3667 30.9223 26.245V26.04Z" fill="black"/>
</g>
<g id="busan_Namgu">
<path id="&#235;&#130;&#168;&#234;&#181;&#172;_00000052072439607353513050000004236392404629863311_" d="M39.2996 46.4999L38.8996 44.0999L35.4996 43.7999L35.3996 41.1999L35.0996 39.0999L37.3996 36.3999L38.9996 35.8999L42.3996 39.8999L42.7996 45.4999L39.2996 46.4999Z" fill="#AFD88C" stroke="white" stroke-width="0.5"/>
<path id="&#235;&#130;&#168;&#234;&#181;&#172;" d="M38.272 40.324H38.538V41.368H38.272V40.324ZM38.466 40.714H38.784V40.932H38.466V40.714ZM37.334 41.452H38.538V42.158H37.334V41.452ZM38.28 41.662H37.596V41.948H38.28V41.662ZM37.156 40.412H37.422V41.17H37.156V40.412ZM37.156 41.056H37.31C37.4367 41.056 37.568 41.0513 37.704 41.042C37.8413 41.0313 37.9827 41.012 38.128 40.984L38.158 41.196C38.0087 41.2267 37.8627 41.248 37.72 41.26C37.5787 41.2707 37.442 41.276 37.31 41.276H37.156V41.056ZM39.1138 40.432H40.2738V40.642H39.1138V40.432ZM38.9218 41.22H40.5978V41.436H38.9218V41.22ZM39.6158 41.372H39.8838V42.178H39.6158V41.372ZM40.1378 40.432H40.3998V40.596C40.3998 40.6627 40.3985 40.7333 40.3958 40.808C40.3945 40.8827 40.3892 40.9647 40.3798 41.054C40.3705 41.142 40.3532 41.2407 40.3278 41.35L40.0678 41.318C40.1025 41.1647 40.1225 41.0307 40.1278 40.916C40.1345 40.8 40.1378 40.6933 40.1378 40.596V40.432Z" fill="black"/>
</g>
<g id="Dongnae">
<path id="&#235;&#143;&#153;&#235;&#158;&#152;&#234;&#181;&#172;" d="M34.6004 25.8999L40.8004 28.2999L41.6004 31.9999L41.5004 32.3999L32.9004 30.7999L32.4004 30.0999L34.6004 25.8999Z" fill="#AFD88C" stroke="white" stroke-width="0.5"/>
<path id="&#235;&#143;&#153;&#235;&#158;&#152;" d="M35.084 29.196H36.758V29.406H35.084V29.196ZM35.788 28.918H36.054V29.278H35.788V28.918ZM35.286 28.834H36.568V29.042H35.286V28.834ZM35.286 28.404H36.558V28.614H35.55V28.966H35.286V28.404ZM35.914 29.498C36.114 29.498 36.2713 29.528 36.386 29.588C36.5007 29.6467 36.558 29.7307 36.558 29.84C36.558 29.948 36.5007 30.0313 36.386 30.09C36.2713 30.15 36.114 30.18 35.914 30.18C35.714 30.18 35.5567 30.15 35.442 30.09C35.3287 30.0313 35.272 29.948 35.272 29.84C35.272 29.7307 35.3287 29.6467 35.442 29.588C35.5567 29.528 35.714 29.498 35.914 29.498ZM35.914 29.7C35.8313 29.7 35.762 29.7053 35.706 29.716C35.6513 29.7253 35.61 29.7407 35.582 29.762C35.554 29.782 35.54 29.8073 35.54 29.838C35.54 29.87 35.554 29.8967 35.582 29.918C35.61 29.938 35.6513 29.9533 35.706 29.964C35.762 29.9733 35.8313 29.978 35.914 29.978C35.9967 29.978 36.0653 29.9733 36.12 29.964C36.176 29.9533 36.218 29.938 36.246 29.918C36.274 29.8967 36.288 29.87 36.288 29.838C36.288 29.8073 36.274 29.782 36.246 29.762C36.218 29.7407 36.176 29.7253 36.12 29.716C36.0653 29.7053 35.9967 29.7 35.914 29.7ZM36.9718 29.55H37.1018C37.2125 29.55 37.3185 29.548 37.4198 29.544C37.5212 29.5387 37.6292 29.5267 37.7438 29.508L37.7638 29.724C37.6452 29.744 37.5332 29.7567 37.4278 29.762C37.3238 29.766 37.2152 29.768 37.1018 29.768H36.9718V29.55ZM36.9678 28.506H37.6698V29.222H37.2298V29.628H36.9718V29.012H37.4138V28.716H36.9678V28.506ZM38.2578 28.324H38.5118V30.176H38.2578V28.324ZM38.0118 29.024H38.3198V29.238H38.0118V29.024ZM37.8438 28.356H38.0898V30.09H37.8438V28.356Z" fill="black"/>
</g>
<g id="Busanjin">
<path id="&#235;&#182;&#128;&#236;&#130;&#176;&#236;&#167;&#132;&#234;&#181;&#172;" d="M29.4004 31.9999L32.4004 30.0999L32.9004 30.7999L37.4004 36.4999L35.1004 39.0999L30.2004 40.0999L28.4004 39.7999L29.4004 31.9999Z" fill="#AFD88C" stroke="white" stroke-width="0.5"/>
<path id="&#235;&#182;&#128;&#236;&#130;&#176;&#236;&#167;&#132;" d="M30.082 36.39H31.758V36.6H30.082V36.39ZM30.78 36.496H31.046V37.178H30.78V36.496ZM30.272 35.396H30.536V35.606H31.298V35.396H31.56V36.214H30.272V35.396ZM30.536 35.814V36.004H31.298V35.814H30.536ZM32.3358 35.438H32.5558V35.638C32.5558 35.7607 32.5365 35.876 32.4978 35.984C32.4605 36.0907 32.4032 36.184 32.3258 36.264C32.2498 36.344 32.1525 36.404 32.0338 36.444L31.8918 36.238C31.9972 36.2033 32.0825 36.1553 32.1478 36.094C32.2132 36.0313 32.2605 35.9607 32.2898 35.882C32.3205 35.802 32.3358 35.7207 32.3358 35.638V35.438ZM32.3898 35.438H32.6058V35.64C32.6058 35.6987 32.6138 35.7567 32.6298 35.814C32.6458 35.87 32.6712 35.9233 32.7058 35.974C32.7405 36.0233 32.7845 36.068 32.8378 36.108C32.8912 36.1467 32.9552 36.178 33.0298 36.202L32.8938 36.41C32.7778 36.3713 32.6825 36.314 32.6078 36.238C32.5345 36.1607 32.4798 36.0707 32.4438 35.968C32.4078 35.8653 32.3898 35.756 32.3898 35.64V35.438ZM33.1118 35.326H33.3778V36.68H33.1118V35.326ZM33.3038 35.862H33.6238V36.08H33.3038V35.862ZM32.1858 36.932H33.4438V37.146H32.1858V36.932ZM32.1858 36.55H32.4538V37.046H32.1858V36.55ZM34.2097 35.532H34.4297V35.688C34.4297 35.804 34.4104 35.9147 34.3717 36.02C34.3344 36.124 34.277 36.2153 34.1997 36.294C34.1224 36.3713 34.0237 36.4293 33.9037 36.468L33.7677 36.26C33.8717 36.2267 33.9557 36.18 34.0197 36.12C34.085 36.06 34.133 35.9927 34.1637 35.918C34.1944 35.842 34.2097 35.7653 34.2097 35.688V35.532ZM34.2657 35.532H34.4817V35.688C34.4817 35.7427 34.4904 35.7973 34.5077 35.852C34.525 35.9053 34.551 35.9567 34.5857 36.006C34.6217 36.054 34.667 36.0973 34.7217 36.136C34.7764 36.1747 34.841 36.206 34.9157 36.23L34.7817 36.436C34.6657 36.3987 34.5697 36.3427 34.4937 36.268C34.4177 36.1933 34.3604 36.106 34.3217 36.006C34.2844 35.9047 34.2657 35.7987 34.2657 35.688V35.532ZM33.8397 35.456H34.8477V35.668H33.8397V35.456ZM35.0337 35.326H35.2997V36.662H35.0337V35.326ZM34.0657 36.932H35.3477V37.146H34.0657V36.932ZM34.0657 36.542H34.3317V37.038H34.0657V36.542Z" fill="black"/>
</g>
<g id="Yeongdo">
<path id="&#236;&#152;&#129;&#235;&#143;&#132;&#234;&#181;&#172;" d="M37 47.5999L38.9 53.0999L31.2 47.9999L31 46.7999L31.2 46.4999L32.1 46.2999H32.2L32.7 46.0999L37 47.5999Z" fill="#AFD88C" stroke="white" stroke-width="0.5"/>
<path id="&#236;&#152;&#129;&#235;&#143;&#132;" d="M34.3742 48.1245H34.7852V48.285H34.3742V48.1245ZM34.3742 48.4335H34.7852V48.5925H34.3742V48.4335ZM34.1432 48.018C34.2132 48.018 34.2757 48.033 34.3307 48.063C34.3857 48.092 34.4292 48.132 34.4612 48.183C34.4942 48.234 34.5107 48.2925 34.5107 48.3585C34.5107 48.4235 34.4942 48.4815 34.4612 48.5325C34.4292 48.5835 34.3857 48.624 34.3307 48.654C34.2757 48.683 34.2132 48.6975 34.1432 48.6975C34.0752 48.6975 34.0132 48.683 33.9572 48.654C33.9022 48.624 33.8582 48.5835 33.8252 48.5325C33.7932 48.4815 33.7772 48.4235 33.7772 48.3585C33.7772 48.2925 33.7932 48.234 33.8252 48.183C33.8582 48.132 33.9022 48.092 33.9572 48.063C34.0132 48.033 34.0752 48.018 34.1432 48.018ZM34.1432 48.186C34.1102 48.186 34.0802 48.193 34.0532 48.207C34.0262 48.22 34.0047 48.2395 33.9887 48.2655C33.9737 48.2905 33.9662 48.3215 33.9662 48.3585C33.9662 48.3935 33.9737 48.424 33.9887 48.45C34.0047 48.476 34.0262 48.496 34.0532 48.51C34.0802 48.523 34.1102 48.5295 34.1432 48.5295C34.1782 48.5295 34.2087 48.523 34.2347 48.51C34.2617 48.496 34.2827 48.476 34.2977 48.45C34.3127 48.424 34.3202 48.3935 34.3202 48.3585C34.3202 48.3215 34.3127 48.2905 34.2977 48.2655C34.2827 48.2395 34.2617 48.22 34.2347 48.207C34.2087 48.193 34.1782 48.186 34.1432 48.186ZM34.7222 47.9445H34.9232V48.7575H34.7222V47.9445ZM34.4522 48.786C34.5502 48.786 34.6342 48.797 34.7042 48.819C34.7752 48.84 34.8302 48.871 34.8692 48.912C34.9082 48.953 34.9277 49.002 34.9277 49.059C34.9277 49.116 34.9082 49.165 34.8692 49.206C34.8302 49.248 34.7752 49.2795 34.7042 49.3005C34.6342 49.3225 34.5502 49.3335 34.4522 49.3335C34.3542 49.3335 34.2697 49.3225 34.1987 49.3005C34.1277 49.2795 34.0727 49.248 34.0337 49.206C33.9957 49.165 33.9767 49.116 33.9767 49.059C33.9767 49.002 33.9957 48.953 34.0337 48.912C34.0727 48.871 34.1277 48.84 34.1987 48.819C34.2697 48.797 34.3542 48.786 34.4522 48.786ZM34.4522 48.939C34.3922 48.939 34.3412 48.9435 34.2992 48.9525C34.2572 48.9615 34.2257 48.975 34.2047 48.993C34.1837 49.01 34.1732 49.032 34.1732 49.059C34.1732 49.086 34.1837 49.1085 34.2047 49.1265C34.2257 49.1445 34.2572 49.158 34.2992 49.167C34.3412 49.175 34.3922 49.179 34.4522 49.179C34.5132 49.179 34.5642 49.175 34.6052 49.167C34.6472 49.158 34.6787 49.1445 34.6997 49.1265C34.7207 49.1085 34.7312 49.086 34.7312 49.059C34.7312 49.032 34.7207 49.01 34.6997 48.993C34.6787 48.975 34.6472 48.9615 34.6052 48.9525C34.5642 48.9435 34.5132 48.939 34.4522 48.939ZM35.2876 48.5625H36.2641V48.723H35.2876V48.5625ZM35.1406 49.014H36.3991V49.1775H35.1406V49.014ZM35.6686 48.636H35.8666V49.0665H35.6686V48.636ZM35.2876 48.039H36.2536V48.198H35.4856V48.6315H35.2876V48.039Z" fill="black"/>
</g>
<g id="busan_donggu">
<path id="&#235;&#143;&#153;&#234;&#181;&#172;_00000168118645732070697520000016326732679638779068_" d="M30.1992 40.0999L35.0992 39.0999L35.1992 41.1999V41.2999L33.2992 43.5999L30.3992 43.1999L30.1992 40.0999Z" fill="#AFD88C" stroke="white" stroke-width="0.5"/>
<path id="&#235;&#143;&#153;&#234;&#181;&#172;" d="M31.0756 41.2764H32.5822V41.4654H31.0756V41.2764ZM31.7092 41.0262H31.9486V41.3502H31.7092V41.0262ZM31.2574 40.9506H32.4112V41.1378H31.2574V40.9506ZM31.2574 40.5636H32.4022V40.7526H31.495V41.0694H31.2574V40.5636ZM31.8226 41.5482C32.0026 41.5482 32.1442 41.5752 32.2474 41.6292C32.3506 41.682 32.4022 41.7576 32.4022 41.856C32.4022 41.9532 32.3506 42.0282 32.2474 42.081C32.1442 42.135 32.0026 42.162 31.8226 42.162C31.6426 42.162 31.501 42.135 31.3978 42.081C31.2958 42.0282 31.2448 41.9532 31.2448 41.856C31.2448 41.7576 31.2958 41.682 31.3978 41.6292C31.501 41.5752 31.6426 41.5482 31.8226 41.5482ZM31.8226 41.73C31.7482 41.73 31.6858 41.7348 31.6354 41.7444C31.5862 41.7528 31.549 41.7666 31.5238 41.7858C31.4986 41.8038 31.486 41.8266 31.486 41.8542C31.486 41.883 31.4986 41.907 31.5238 41.9262C31.549 41.9442 31.5862 41.958 31.6354 41.9676C31.6858 41.976 31.7482 41.9802 31.8226 41.9802C31.897 41.9802 31.9588 41.976 32.008 41.9676C32.0584 41.958 32.0962 41.9442 32.1214 41.9262C32.1466 41.907 32.1592 41.883 32.1592 41.8542C32.1592 41.8266 32.1466 41.8038 32.1214 41.7858C32.0962 41.7666 32.0584 41.7528 32.008 41.7444C31.9588 41.7348 31.897 41.73 31.8226 41.73ZM32.9025 40.5888H33.9465V40.7778H32.9025V40.5888ZM32.7297 41.298H34.2381V41.4924H32.7297V41.298ZM33.3543 41.4348H33.5955V42.1602H33.3543V41.4348ZM33.8241 40.5888H34.0599V40.7364C34.0599 40.7964 34.0587 40.86 34.0563 40.9272C34.0551 40.9944 34.0503 41.0682 34.0419 41.1486C34.0335 41.2278 34.0179 41.3166 33.9951 41.415L33.7611 41.3862C33.7923 41.2482 33.8103 41.1276 33.8151 41.0244C33.8211 40.92 33.8241 40.824 33.8241 40.7364V40.5888Z" fill="black"/>
</g>
<g id="busan_Seogu">
<path id="&#236;&#132;&#156;&#234;&#181;&#172;_00000120547725597948363590000012183695143128138397_" d="M30.0008 49.5L29.8008 51.8L28.1008 53.5L26.8008 42.2L28.4008 40L30.1008 40.2L30.4008 43.4V47.3L30.9008 48L30.0008 49.5Z" fill="#AFD88C" stroke="white" stroke-width="0.5"/>
<path id="&#236;&#132;&#156;&#234;&#181;&#172;" d="M28.3616 47.978H28.7276V48.1385H28.3616V47.978ZM27.9836 47.6495H28.1441V47.852C28.1441 47.939 28.1366 48.0235 28.1216 48.1055C28.1066 48.1875 28.0836 48.264 28.0526 48.335C28.0216 48.406 27.9821 48.4685 27.9341 48.5225C27.8871 48.5765 27.8311 48.62 27.7661 48.653L27.6416 48.494C27.7006 48.466 27.7511 48.4295 27.7931 48.3845C27.8361 48.3395 27.8716 48.2885 27.8996 48.2315C27.9286 48.1735 27.9496 48.1125 27.9626 48.0485C27.9766 47.9835 27.9836 47.918 27.9836 47.852V47.6495ZM28.0241 47.6495H28.1831V47.852C28.1831 47.917 28.1896 47.9815 28.2026 48.0455C28.2156 48.1085 28.2351 48.1675 28.2611 48.2225C28.2881 48.2775 28.3226 48.3265 28.3646 48.3695C28.4066 48.4115 28.4566 48.4455 28.5146 48.4715L28.3946 48.6305C28.3296 48.5985 28.2736 48.5565 28.2266 48.5045C28.1796 48.4515 28.1411 48.391 28.1111 48.323C28.0821 48.255 28.0601 48.181 28.0451 48.101C28.0311 48.021 28.0241 47.938 28.0241 47.852V47.6495ZM28.6271 47.5415H28.8266V48.935H28.6271V47.5415ZM29.185 47.624H30.055V47.7815H29.185V47.624ZM29.041 48.215H30.298V48.377H29.041V48.215ZM29.5615 48.329H29.7625V48.9335H29.5615V48.329ZM29.953 47.624H30.1495V47.747C30.1495 47.797 30.1485 47.85 30.1465 47.906C30.1455 47.962 30.1415 48.0235 30.1345 48.0905C30.1275 48.1565 30.1145 48.2305 30.0955 48.3125L29.9005 48.2885C29.9265 48.1735 29.9415 48.073 29.9455 47.987C29.9505 47.9 29.953 47.82 29.953 47.747V47.624Z" fill="black"/>
</g>
<g id="busan_Junggu">
<path id="&#236;&#164;&#145;&#234;&#181;&#172;_00000099627018138385645060000002418025641920964788_" d="M30.4004 46.4999L31.6004 46.2L33.3004 43.5999L30.4004 43.2V46.4999Z" fill="#AFD88C" stroke="white" stroke-width="0.5"/>
<path id="&#236;&#164;&#145;&#234;&#181;&#172;" d="M30.872 44.3536H31.0304V44.5492H30.872V44.3536ZM30.4484 44.2996H31.454V44.4268H30.4484V44.2996ZM30.9488 44.5048C31.0688 44.5048 31.1632 44.5224 31.232 44.5576C31.3008 44.592 31.3352 44.6416 31.3352 44.7064C31.3352 44.7696 31.3008 44.8188 31.232 44.854C31.1632 44.8892 31.0688 44.9068 30.9488 44.9068C30.8288 44.9068 30.7344 44.8892 30.6656 44.854C30.5976 44.8188 30.5636 44.7696 30.5636 44.7064C30.5636 44.6416 30.5976 44.592 30.6656 44.5576C30.7344 44.5224 30.8288 44.5048 30.9488 44.5048ZM30.9488 44.626C30.8992 44.626 30.8576 44.6288 30.824 44.6344C30.7912 44.64 30.7664 44.6488 30.7496 44.6608C30.7328 44.672 30.7244 44.6872 30.7244 44.7064C30.7244 44.724 30.7328 44.7388 30.7496 44.7508C30.7664 44.7628 30.7912 44.7716 30.824 44.7772C30.8576 44.7828 30.8992 44.7856 30.9488 44.7856C30.9984 44.7856 31.0396 44.7828 31.0724 44.7772C31.106 44.7716 31.1312 44.7628 31.148 44.7508C31.1648 44.7388 31.1732 44.724 31.1732 44.7064C31.1732 44.6872 31.1648 44.672 31.148 44.6608C31.1312 44.6488 31.106 44.64 31.0724 44.6344C31.0396 44.6288 30.9984 44.626 30.9488 44.626ZM30.842 43.9H30.9836V43.9264C30.9836 43.96 30.9776 43.992 30.9656 44.0224C30.9536 44.0528 30.9356 44.0812 30.9116 44.1076C30.8884 44.1332 30.8592 44.1564 30.824 44.1772C30.7888 44.198 30.748 44.2152 30.7016 44.2288C30.6552 44.2424 30.6036 44.252 30.5468 44.2576L30.4916 44.1316C30.5404 44.1276 30.5836 44.1208 30.6212 44.1112C30.6596 44.1016 30.6924 44.09 30.7196 44.0764C30.7476 44.062 30.7704 44.0468 30.788 44.0308C30.8064 44.014 30.82 43.9968 30.8288 43.9792C30.8376 43.9616 30.842 43.944 30.842 43.9264V43.9ZM30.92 43.9H31.0604V43.9264C31.0604 43.944 31.0648 43.962 31.0736 43.9804C31.0824 43.998 31.0956 44.0148 31.1132 44.0308C31.1316 44.0468 31.1544 44.062 31.1816 44.0764C31.2096 44.09 31.2424 44.1016 31.28 44.1112C31.3184 44.1208 31.362 44.1276 31.4108 44.1316L31.3556 44.2576C31.2988 44.252 31.2472 44.2424 31.2008 44.2288C31.1544 44.2152 31.1136 44.1984 31.0784 44.1784C31.044 44.1576 31.0148 44.1344 30.9908 44.1088C30.9676 44.0824 30.95 44.054 30.938 44.0236C30.926 43.9924 30.92 43.96 30.92 43.9264V43.9ZM30.5408 43.8412H31.364V43.9672H30.5408V43.8412ZM31.6687 43.8592H32.3647V43.9852H31.6687V43.8592ZM31.5535 44.332H32.5591V44.4616H31.5535V44.332ZM31.9699 44.4232H32.1307V44.9068H31.9699V44.4232ZM32.2831 43.8592H32.4403V43.9576C32.4403 43.9976 32.4395 44.04 32.4379 44.0848C32.4371 44.1296 32.4339 44.1788 32.4283 44.2324C32.4227 44.2852 32.4123 44.3444 32.3971 44.41L32.2411 44.3908C32.2619 44.2988 32.2739 44.2184 32.2771 44.1496C32.2811 44.08 32.2831 44.016 32.2831 43.9576V43.8592Z" fill="black"/>
</g>
</g>
</svg>
