<svg width="174" height="195" viewBox="0 0 174 195" fill="none" xmlns="http://www.w3.org/2000/svg">
<g id="chungbuk">
<g id="Danyang">
<path id="&#235;&#139;&#168;&#236;&#150;&#145;&#234;&#181;&#176;" d="M129.201 19.6998L139.901 15.7998L145.001 24.4998L154.001 20.6998L159.301 26.2998L169.901 26.5998L173.601 29.9998L171.201 33.8998L168.101 31.9998L163.301 34.8998L161.501 40.5998L147.401 51.7998L145.301 59.7998L148.501 64.1998L145.001 69.8998L138.401 71.4998L122.401 60.6998L121.601 51.0998L125.401 46.7998L120.101 36.4998L119.201 32.1998L125.601 26.9998L125.701 22.5998L129.901 24.9998L129.201 19.6998Z" fill="#AFD88C" stroke="white" stroke-width="0.5"/>
<path id="&#235;&#139;&#168;&#236;&#150;&#145;" d="M138.088 36.304H139.152V41.656H138.088V36.304ZM138.856 38.32H140.136V39.192H138.856V38.32ZM133.6 39.592H134.216C134.755 39.592 135.213 39.5867 135.592 39.576C135.976 39.56 136.317 39.536 136.616 39.504C136.92 39.472 137.219 39.424 137.512 39.36L137.616 40.2C137.317 40.2693 137.011 40.3227 136.696 40.36C136.387 40.392 136.035 40.416 135.64 40.432C135.245 40.4427 134.771 40.448 134.216 40.448H133.6V39.592ZM133.6 36.888H136.92V37.736H134.664V40.04H133.6V36.888ZM134.376 42.728H139.416V43.584H134.376V42.728ZM134.376 41.088H135.448V43.16H134.376V41.088ZM146.191 37.208H147.463V38.072H146.191V37.208ZM146.191 38.816H147.463V39.688H146.191V38.816ZM142.743 36.704C143.127 36.704 143.471 36.7813 143.775 36.936C144.079 37.0907 144.319 37.304 144.495 37.576C144.671 37.8427 144.759 38.152 144.759 38.504C144.759 38.8507 144.671 39.16 144.495 39.432C144.319 39.6987 144.079 39.9093 143.775 40.064C143.471 40.2187 143.127 40.296 142.743 40.296C142.365 40.296 142.023 40.2187 141.719 40.064C141.415 39.9093 141.175 39.6987 140.999 39.432C140.823 39.16 140.735 38.8507 140.735 38.504C140.735 38.152 140.823 37.8427 140.999 37.576C141.175 37.304 141.415 37.0907 141.719 36.936C142.023 36.7813 142.365 36.704 142.743 36.704ZM142.743 37.592C142.562 37.592 142.397 37.6293 142.247 37.704C142.098 37.7733 141.981 37.8773 141.895 38.016C141.815 38.1493 141.775 38.312 141.775 38.504C141.775 38.6907 141.815 38.8533 141.895 38.992C141.981 39.1253 142.098 39.2267 142.247 39.296C142.397 39.3653 142.562 39.4 142.743 39.4C142.935 39.4 143.103 39.3653 143.247 39.296C143.391 39.2267 143.506 39.1253 143.591 38.992C143.677 38.8533 143.719 38.6907 143.719 38.504C143.719 38.312 143.677 38.1493 143.591 38.016C143.506 37.8773 143.391 37.7733 143.247 37.704C143.103 37.6293 142.935 37.592 142.743 37.592ZM145.447 36.304H146.511V40.624H145.447V36.304ZM144.095 40.776C144.607 40.776 145.05 40.8347 145.423 40.952C145.802 41.0693 146.093 41.2373 146.295 41.456C146.498 41.6747 146.599 41.9387 146.599 42.248C146.599 42.552 146.498 42.8133 146.295 43.032C146.093 43.2507 145.802 43.4187 145.423 43.536C145.05 43.6533 144.607 43.712 144.095 43.712C143.583 43.712 143.138 43.6533 142.759 43.536C142.386 43.4187 142.095 43.2507 141.887 43.032C141.685 42.8133 141.583 42.552 141.583 42.248C141.583 41.9387 141.685 41.6747 141.887 41.456C142.095 41.2373 142.386 41.0693 142.759 40.952C143.138 40.8347 143.583 40.776 144.095 40.776ZM144.095 41.616C143.781 41.616 143.517 41.64 143.303 41.688C143.09 41.7307 142.927 41.7973 142.815 41.888C142.703 41.9787 142.647 42.0987 142.647 42.248C142.647 42.3867 142.703 42.504 142.815 42.6C142.927 42.696 143.09 42.768 143.303 42.816C143.517 42.8587 143.781 42.88 144.095 42.88C144.41 42.88 144.674 42.8587 144.887 42.816C145.106 42.768 145.269 42.696 145.375 42.6C145.487 42.504 145.543 42.3867 145.543 42.248C145.543 42.0987 145.487 41.9787 145.375 41.888C145.269 41.7973 145.106 41.7307 144.887 41.688C144.674 41.64 144.41 41.616 144.095 41.616Z" fill="black"/>
</g>
<g id="Eumseong">
<path id="&#236;&#157;&#140;&#236;&#132;&#177;&#234;&#181;&#176;" d="M45.2996 16.7998L53.6996 19.0998L57.0996 23.0998L52.1996 28.7998L48.0996 43.6998L52.5996 43.2998L56.2996 47.4998L60.8996 47.5998L63.5996 51.3998L65.3996 50.7998L65.2996 59.6998L53.5996 59.7998L51.5996 64.3998L46.4996 64.9998L43.6996 66.9998L43.8996 63.1998L38.9996 63.8998L39.8996 60.6998L30.5996 51.8998L22.6996 49.0998L22.5996 39.3998L27.5996 32.5998L31.4996 31.8998L36.2996 34.5998L38.9996 29.2998L42.3996 30.2998L41.0996 27.2998L46.0996 25.3998L45.2996 16.7998Z" fill="#AFD88C" stroke="white" stroke-width="0.5"/>
<path id="&#236;&#157;&#140;&#236;&#132;&#177;" d="M40.672 46.44C41.2213 46.44 41.696 46.4987 42.096 46.616C42.496 46.728 42.8053 46.8933 43.024 47.112C43.248 47.3253 43.36 47.5813 43.36 47.88C43.36 48.1787 43.248 48.4373 43.024 48.656C42.8053 48.8693 42.496 49.0347 42.096 49.152C41.696 49.2693 41.2213 49.328 40.672 49.328C40.1333 49.328 39.6613 49.2693 39.256 49.152C38.8507 49.0347 38.5387 48.8693 38.32 48.656C38.1013 48.4373 37.992 48.1787 37.992 47.88C37.992 47.5813 38.1013 47.3253 38.32 47.112C38.5387 46.8933 38.8507 46.728 39.256 46.616C39.6613 46.4987 40.1333 46.44 40.672 46.44ZM40.672 47.256C40.3413 47.256 40.056 47.28 39.816 47.328C39.576 47.3707 39.3947 47.4373 39.272 47.528C39.1547 47.6187 39.096 47.736 39.096 47.88C39.096 48.0187 39.1547 48.136 39.272 48.232C39.3947 48.3227 39.576 48.392 39.816 48.44C40.056 48.4827 40.3413 48.504 40.672 48.504C41.0133 48.504 41.3013 48.4827 41.536 48.44C41.7707 48.392 41.9493 48.3227 42.072 48.232C42.1947 48.136 42.256 48.0187 42.256 47.88C42.256 47.736 42.1947 47.6187 42.072 47.528C41.9493 47.4373 41.7707 47.3707 41.536 47.328C41.3013 47.28 41.0133 47.256 40.672 47.256ZM38.104 51.104H43.224V53.632H38.104V51.104ZM42.184 51.944H39.144V52.792H42.184V51.944ZM37.32 49.752H44.024V50.584H37.32V49.752ZM46.4074 46.688H47.2874V47.344C47.2874 47.84 47.21 48.3067 47.0554 48.744C46.906 49.1813 46.6767 49.5627 46.3674 49.888C46.058 50.2133 45.6607 50.4587 45.1754 50.624L44.6154 49.768C45.042 49.6347 45.386 49.4427 45.6474 49.192C45.9087 48.9413 46.1007 48.656 46.2234 48.336C46.346 48.016 46.4074 47.6853 46.4074 47.344V46.688ZM46.6234 46.688H47.4874V47.296C47.4874 47.6213 47.5434 47.936 47.6554 48.24C47.7674 48.5387 47.946 48.8053 48.1914 49.04C48.4367 49.2693 48.754 49.448 49.1434 49.576L48.5914 50.408C48.138 50.248 47.7647 50.016 47.4714 49.712C47.1834 49.408 46.97 49.0507 46.8314 48.64C46.6927 48.224 46.6234 47.776 46.6234 47.296V46.688ZM49.8154 46.304H50.8874V50.64H49.8154V46.304ZM48.3754 50.832C49.1594 50.832 49.778 50.96 50.2314 51.216C50.6847 51.4667 50.9114 51.816 50.9114 52.264C50.9114 52.7227 50.6847 53.0773 50.2314 53.328C49.778 53.584 49.1594 53.712 48.3754 53.712C47.5914 53.712 46.9727 53.584 46.5194 53.328C46.066 53.0773 45.8394 52.7227 45.8394 52.264C45.8394 51.816 46.066 51.4667 46.5194 51.216C46.9727 50.96 47.5914 50.832 48.3754 50.832ZM48.3754 51.656C48.0554 51.656 47.786 51.6773 47.5674 51.72C47.3487 51.7627 47.1807 51.832 47.0634 51.928C46.9514 52.0187 46.8954 52.1307 46.8954 52.264C46.8954 52.4027 46.9514 52.52 47.0634 52.616C47.1807 52.7067 47.3487 52.776 47.5674 52.824C47.786 52.8667 48.0554 52.888 48.3754 52.888C48.6954 52.888 48.9647 52.8667 49.1834 52.824C49.402 52.776 49.5674 52.7067 49.6794 52.616C49.7914 52.52 49.8474 52.4027 49.8474 52.264C49.8474 52.1307 49.7914 52.0187 49.6794 51.928C49.5674 51.832 49.402 51.7627 49.1834 51.72C48.9647 51.6773 48.6954 51.656 48.3754 51.656ZM48.4634 47.648H49.9754V48.512H48.4634V47.648Z" fill="black"/>
</g>
<g id="Goesan">
<path id="&#234;&#180;&#180;&#236;&#130;&#176;&#234;&#181;&#176;" d="M65.4008 50.7999L71.0008 50.3999L77.3008 58.1999L85.8008 58.6999L89.9008 69.6999L99.5008 69.5999L96.2008 80.3999L101.001 86.5999L87.2008 81.9999L83.2008 89.2999L78.8008 88.6999L76.3008 90.6999L83.7008 93.3999L82.7008 103.2L77.0008 94.6999L72.9008 98.1999L74.4008 101.4L66.8008 103.2L63.2008 103L55.6008 95.0999L57.8008 90.6999L49.9008 83.2999L44.8008 78.4999L46.5008 64.9999L51.6008 64.3999L53.6008 59.7999L65.3008 59.6999L65.4008 50.7999Z" fill="#AFD88C" stroke="white" stroke-width="0.5"/>
<path id="&#234;&#180;&#180;&#236;&#130;&#176;" d="M62.816 72.112H66.008V72.96H62.816V72.112ZM63.752 74.392H64.8V76.704H63.752V74.392ZM65.624 72.112H66.672V72.672C66.672 73.0027 66.664 73.3893 66.648 73.832C66.632 74.2747 66.576 74.792 66.48 75.384L65.432 75.272C65.528 74.7067 65.584 74.2133 65.6 73.792C65.616 73.3707 65.624 72.9973 65.624 72.672V72.112ZM67.52 71.288H68.584V78.72H67.52V71.288ZM62.456 77.264L62.336 76.4C62.8053 76.4 63.3093 76.3973 63.848 76.392C64.3867 76.3813 64.9333 76.3627 65.488 76.336C66.048 76.3093 66.592 76.264 67.12 76.2L67.208 76.968C66.664 77.0587 66.1147 77.1253 65.56 77.168C65.0107 77.2107 64.472 77.2373 63.944 77.248C63.4213 77.2587 62.9253 77.264 62.456 77.264ZM71.3434 71.752H72.2234V72.552C72.2234 73.0427 72.146 73.504 71.9914 73.936C71.842 74.3627 71.6127 74.736 71.3034 75.056C70.9994 75.376 70.61 75.616 70.1354 75.776L69.5674 74.952C69.9887 74.8133 70.33 74.6213 70.5914 74.376C70.8527 74.1253 71.042 73.8427 71.1594 73.528C71.282 73.208 71.3434 72.8827 71.3434 72.552V71.752ZM71.5594 71.752H72.4234V72.56C72.4234 72.7947 72.4554 73.0267 72.5194 73.256C72.5834 73.48 72.6847 73.6933 72.8234 73.896C72.962 74.0933 73.138 74.272 73.3514 74.432C73.5647 74.5867 73.8207 74.712 74.1194 74.808L73.5754 75.64C73.1114 75.4853 72.73 75.256 72.4314 74.952C72.138 74.6427 71.9194 74.2827 71.7754 73.872C71.6314 73.4613 71.5594 73.024 71.5594 72.56V71.752ZM74.4474 71.304H75.5114V76.72H74.4474V71.304ZM75.2154 73.448H76.4954V74.32H75.2154V73.448ZM70.7434 77.728H75.7754V78.584H70.7434V77.728ZM70.7434 76.2H71.8154V78.184H70.7434V76.2Z" fill="black"/>
</g>
<g id="Jincheon">
<path id="&#236;&#167;&#132;&#236;&#178;&#156;&#234;&#181;&#176;" d="M2.5 57.6998L3.5 51.7998L16.8 46.0998L14.7 43.5998L22.5 39.2998L22.6 48.9998L30.5 51.7998L39.8 60.5998L39 63.8998L38.4 68.9998L33.8 70.9998L37.3 75.3998L29.2 75.4998L24.7 77.0998L23 80.2998L19.1 78.9998L16.8 72.5998L5 62.9998L5.5 59.7998L2.89999 57.8998L2.5 57.6998Z" fill="#AFD88C" stroke="white" stroke-width="0.5"/>
<path id="&#236;&#167;&#132;&#236;&#178;&#156;" d="M17.12 57.128H18V57.752C18 58.216 17.9227 58.6587 17.768 59.08C17.6187 59.496 17.3893 59.8613 17.08 60.176C16.7707 60.4853 16.376 60.7173 15.896 60.872L15.352 60.04C15.768 59.9067 16.104 59.72 16.36 59.48C16.6213 59.24 16.8133 58.9707 16.936 58.672C17.0587 58.368 17.12 58.0613 17.12 57.752V57.128ZM17.344 57.128H18.208V57.752C18.208 57.9707 18.2427 58.1893 18.312 58.408C18.3813 58.6213 18.4853 58.8267 18.624 59.024C18.768 59.216 18.9493 59.3893 19.168 59.544C19.3867 59.6987 19.6453 59.824 19.944 59.92L19.408 60.744C18.944 60.5947 18.56 60.3707 18.256 60.072C17.952 59.7733 17.7227 59.424 17.568 59.024C17.4187 58.6187 17.344 58.1947 17.344 57.752V57.128ZM15.64 56.824H19.672V57.672H15.64V56.824ZM20.416 56.304H21.48V61.648H20.416V56.304ZM16.544 62.728H21.672V63.584H16.544V62.728ZM16.544 61.168H17.608V63.152H16.544V61.168ZM24.3434 57.752H25.2154V58.032C25.2154 58.4853 25.1407 58.912 24.9914 59.312C24.842 59.712 24.6154 60.0613 24.3114 60.36C24.0074 60.6587 23.6207 60.8853 23.1514 61.04L22.6314 60.208C23.0314 60.08 23.3567 59.904 23.6074 59.68C23.8634 59.4507 24.05 59.1947 24.1674 58.912C24.2847 58.624 24.3434 58.3307 24.3434 58.032V57.752ZM24.5434 57.752H25.4074V58.032C25.4074 58.3093 25.466 58.584 25.5834 58.856C25.706 59.1227 25.8954 59.3653 26.1514 59.584C26.4074 59.7973 26.7327 59.9627 27.1274 60.08L26.6234 60.912C26.154 60.7733 25.7647 60.5627 25.4554 60.28C25.1514 59.992 24.922 59.656 24.7674 59.272C24.618 58.8827 24.5434 58.4693 24.5434 58.032V57.752ZM22.8874 57.176H26.8714V58.008H22.8874V57.176ZM24.3434 56.352H25.4074V57.488H24.3434V56.352ZM26.6314 58.456H28.3514V59.32H26.6314V58.456ZM27.8154 56.304H28.8874V61.784H27.8154V56.304ZM23.9914 62.728H29.0554V63.584H23.9914V62.728ZM23.9914 61.328H25.0554V63.288H23.9914V61.328Z" fill="black"/>
</g>
<g id="Jeungpyeong">
<path id="&#236;&#166;&#157;&#237;&#143;&#137;&#234;&#181;&#176;" d="M37.3004 75.3997L33.9004 70.9997L38.5004 68.9997L39.0004 63.8997L43.9004 63.1997L43.7004 66.9997L46.5004 64.9997L44.8004 78.4997L49.9004 83.2997L48.2004 87.6997L44.0004 86.7997L37.7004 76.3997L37.3004 75.3997Z" fill="#AFD88C" stroke="white" stroke-width="0.5"/>
<path id="&#236;&#166;&#157;&#237;&#143;&#137;" d="M37.4608 73.36H40.8128V73.78H37.4608V73.36ZM39.1288 73.984C39.5288 73.984 39.8434 74.044 40.0728 74.164C40.3021 74.284 40.4168 74.452 40.4168 74.668C40.4168 74.8867 40.3021 75.056 40.0728 75.176C39.8434 75.296 39.5288 75.356 39.1288 75.356C38.7288 75.356 38.4141 75.296 38.1848 75.176C37.9581 75.056 37.8448 74.8867 37.8448 74.668C37.8448 74.452 37.9581 74.284 38.1848 74.164C38.4141 74.044 38.7288 73.984 39.1288 73.984ZM39.1288 74.392C38.9634 74.392 38.8248 74.4027 38.7128 74.424C38.6034 74.4427 38.5208 74.472 38.4648 74.512C38.4088 74.552 38.3808 74.604 38.3808 74.668C38.3808 74.732 38.4088 74.7853 38.4648 74.828C38.5208 74.868 38.6034 74.8973 38.7128 74.916C38.8248 74.9347 38.9634 74.944 39.1288 74.944C39.2941 74.944 39.4314 74.9347 39.5408 74.916C39.6528 74.8973 39.7368 74.868 39.7928 74.828C39.8488 74.7853 39.8768 74.732 39.8768 74.668C39.8768 74.604 39.8488 74.552 39.7928 74.512C39.7368 74.472 39.6528 74.4427 39.5408 74.424C39.4314 74.4027 39.2941 74.392 39.1288 74.392ZM38.7728 72.032H39.2448V72.12C39.2448 72.2293 39.2248 72.336 39.1848 72.44C39.1448 72.5413 39.0848 72.636 39.0048 72.724C38.9274 72.8093 38.8301 72.8867 38.7128 72.956C38.5954 73.0227 38.4594 73.0787 38.3048 73.124C38.1501 73.1693 37.9781 73.2013 37.7888 73.22L37.6048 72.804C37.7674 72.7907 37.9114 72.768 38.0368 72.736C38.1648 72.7013 38.2741 72.6613 38.3648 72.616C38.4581 72.568 38.5341 72.5173 38.5928 72.464C38.6541 72.4107 38.6994 72.3547 38.7288 72.296C38.7581 72.2347 38.7728 72.176 38.7728 72.12V72.032ZM39.0328 72.032H39.5008V72.12C39.5008 72.1787 39.5154 72.2373 39.5448 72.296C39.5741 72.3547 39.6181 72.412 39.6768 72.468C39.7381 72.5213 39.8141 72.572 39.9048 72.62C39.9981 72.6653 40.1074 72.704 40.2328 72.736C40.3608 72.768 40.5061 72.7907 40.6688 72.804L40.4848 73.22C40.2954 73.2013 40.1234 73.1707 39.9688 73.128C39.8141 73.0827 39.6781 73.0253 39.5608 72.956C39.4461 72.8867 39.3488 72.8093 39.2688 72.724C39.1914 72.636 39.1328 72.5413 39.0928 72.44C39.0528 72.3387 39.0328 72.232 39.0328 72.12V72.032ZM37.7688 71.824H40.5128V72.244H37.7688V71.824ZM43.2765 72.244H44.0165V72.668H43.2765V72.244ZM43.2765 72.94H44.0165V73.364H43.2765V72.94ZM41.2325 71.892H43.1885V72.32H41.2325V71.892ZM41.1965 73.78L41.1445 73.348C41.3418 73.348 41.5605 73.3467 41.8005 73.344C42.0405 73.3387 42.2845 73.3307 42.5325 73.32C42.7805 73.3067 43.0151 73.2867 43.2365 73.26L43.2685 73.648C43.0391 73.688 42.8018 73.7173 42.5565 73.736C42.3111 73.7547 42.0711 73.7667 41.8365 73.772C41.6045 73.7773 41.3911 73.78 41.1965 73.78ZM41.5285 72.252H42.0405V73.504H41.5285V72.252ZM42.3885 72.252H42.8965V73.504H42.3885V72.252ZM43.7085 71.652H44.2445V73.916H43.7085V71.652ZM42.9885 73.972C43.3831 73.972 43.6925 74.032 43.9165 74.152C44.1431 74.272 44.2565 74.4427 44.2565 74.664C44.2565 74.8827 44.1431 75.052 43.9165 75.172C43.6925 75.2947 43.3831 75.356 42.9885 75.356C42.5965 75.356 42.2871 75.2947 42.0605 75.172C41.8338 75.052 41.7205 74.8827 41.7205 74.664C41.7205 74.4427 41.8338 74.272 42.0605 74.152C42.2871 74.032 42.5965 73.972 42.9885 73.972ZM42.9885 74.376C42.8285 74.376 42.6925 74.3867 42.5805 74.408C42.4711 74.4267 42.3885 74.4587 42.3325 74.504C42.2765 74.5467 42.2485 74.6 42.2485 74.664C42.2485 74.7627 42.3098 74.836 42.4325 74.884C42.5578 74.932 42.7431 74.956 42.9885 74.956C43.1511 74.956 43.2871 74.9453 43.3965 74.924C43.5058 74.9027 43.5871 74.8707 43.6405 74.828C43.6965 74.7853 43.7245 74.7307 43.7245 74.664C43.7245 74.6 43.6965 74.5467 43.6405 74.504C43.5871 74.4587 43.5058 74.4267 43.3965 74.408C43.2871 74.3867 43.1511 74.376 42.9885 74.376Z" fill="black"/>
</g>
<g id="Yeongdong">
<path id="&#236;&#152;&#129;&#235;&#143;&#153;&#234;&#181;&#176;" d="M41.6 168.5L48.5 170.5L48.3 162.3L72.9 147.9L73.8 154.6L77.6 154.5L80.4 150.2L87.5 157.9L93.8 154.7L98.3 157.8L96.6 160.2L99.9 165.8L89.8 166.3L92.3 173L87.7 186.3L77.1 193.8L73.5 191.2L62.4 193.5L54.8 191.9L53.2 187.6L49.6 191.5L46.7 186.7L40.5 176.4L41.6 168.5Z" fill="#AFD88C" stroke="white" stroke-width="0.5"/>
<path id="&#236;&#152;&#129;&#235;&#143;&#153;" d="M64.6 172.264H66.792V173.12H64.6V172.264ZM64.6 173.912H66.792V174.76H64.6V173.912ZM63.368 171.696C63.7413 171.696 64.0747 171.776 64.368 171.936C64.6613 172.091 64.8933 172.304 65.064 172.576C65.24 172.848 65.328 173.16 65.328 173.512C65.328 173.859 65.24 174.168 65.064 174.44C64.8933 174.712 64.6613 174.928 64.368 175.088C64.0747 175.243 63.7413 175.32 63.368 175.32C63.0053 175.32 62.6747 175.243 62.376 175.088C62.0827 174.928 61.848 174.712 61.672 174.44C61.5013 174.168 61.416 173.859 61.416 173.512C61.416 173.16 61.5013 172.848 61.672 172.576C61.848 172.304 62.0827 172.091 62.376 171.936C62.6747 171.776 63.0053 171.696 63.368 171.696ZM63.368 172.592C63.192 172.592 63.032 172.629 62.888 172.704C62.744 172.773 62.6293 172.877 62.544 173.016C62.464 173.149 62.424 173.315 62.424 173.512C62.424 173.699 62.464 173.861 62.544 174C62.6293 174.139 62.744 174.245 62.888 174.32C63.032 174.389 63.192 174.424 63.368 174.424C63.5547 174.424 63.7173 174.389 63.856 174.32C64 174.245 64.112 174.139 64.192 174C64.272 173.861 64.312 173.699 64.312 173.512C64.312 173.315 64.272 173.149 64.192 173.016C64.112 172.877 64 172.773 63.856 172.704C63.7173 172.629 63.5547 172.592 63.368 172.592ZM66.456 171.304H67.528V175.64H66.456V171.304ZM65.016 175.792C65.5387 175.792 65.9867 175.851 66.36 175.968C66.7387 176.08 67.032 176.245 67.24 176.464C67.448 176.683 67.552 176.944 67.552 177.248C67.552 177.552 67.448 177.813 67.24 178.032C67.032 178.256 66.7387 178.424 66.36 178.536C65.9867 178.653 65.5387 178.712 65.016 178.712C64.4933 178.712 64.0427 178.653 63.664 178.536C63.2853 178.424 62.992 178.256 62.784 178.032C62.5813 177.813 62.48 177.552 62.48 177.248C62.48 176.944 62.5813 176.683 62.784 176.464C62.992 176.245 63.2853 176.08 63.664 175.968C64.0427 175.851 64.4933 175.792 65.016 175.792ZM65.016 176.608C64.696 176.608 64.424 176.632 64.2 176.68C63.976 176.728 63.808 176.8 63.696 176.896C63.584 176.987 63.528 177.104 63.528 177.248C63.528 177.392 63.584 177.512 63.696 177.608C63.808 177.704 63.976 177.776 64.2 177.824C64.424 177.867 64.696 177.888 65.016 177.888C65.3413 177.888 65.6133 177.867 65.832 177.824C66.056 177.776 66.224 177.704 66.336 177.608C66.448 177.512 66.504 177.392 66.504 177.248C66.504 177.104 66.448 176.987 66.336 176.896C66.224 176.8 66.056 176.728 65.832 176.68C65.6133 176.632 65.3413 176.608 65.016 176.608ZM68.6954 174.784H75.3914V175.624H68.6954V174.784ZM71.5114 173.672H72.5754V175.112H71.5114V173.672ZM69.5034 173.336H74.6314V174.168H69.5034V173.336ZM69.5034 171.616H74.5914V172.456H70.5594V173.864H69.5034V171.616ZM72.0154 175.992C72.8154 175.992 73.4447 176.112 73.9034 176.352C74.362 176.587 74.5914 176.923 74.5914 177.36C74.5914 177.792 74.362 178.125 73.9034 178.36C73.4447 178.6 72.8154 178.72 72.0154 178.72C71.2154 178.72 70.586 178.6 70.1274 178.36C69.674 178.125 69.4474 177.792 69.4474 177.36C69.4474 176.923 69.674 176.587 70.1274 176.352C70.586 176.112 71.2154 175.992 72.0154 175.992ZM72.0154 176.8C71.6847 176.8 71.4074 176.821 71.1834 176.864C70.9647 176.901 70.7994 176.963 70.6874 177.048C70.5754 177.128 70.5194 177.229 70.5194 177.352C70.5194 177.48 70.5754 177.587 70.6874 177.672C70.7994 177.752 70.9647 177.813 71.1834 177.856C71.4074 177.893 71.6847 177.912 72.0154 177.912C72.346 177.912 72.6207 177.893 72.8394 177.856C73.0634 177.813 73.2314 177.752 73.3434 177.672C73.4554 177.587 73.5114 177.48 73.5114 177.352C73.5114 177.229 73.4554 177.128 73.3434 177.048C73.2314 176.963 73.0634 176.901 72.8394 176.864C72.6207 176.821 72.346 176.8 72.0154 176.8Z" fill="black"/>
</g>
<g id="Okcheon">
<path id="&#236;&#152;&#165;&#236;&#178;&#156;&#234;&#181;&#176;" d="M36.1008 135.7L39.8008 132L43.4008 134.4L45.8008 128.6L50.1008 127.8L58.3008 136.5L77.2008 139.3L78.6008 141.6L72.9008 147.9L48.3008 162.3L48.5008 170.5L41.6008 168.5L39.8008 161.3L34.9008 162.2L33.8008 158.2L28.3008 160.2L29.3008 144.4L32.4008 136.9L36.1008 135.7Z" fill="#AFD88C" stroke="white" stroke-width="0.5"/>
<path id="&#236;&#152;&#165;&#236;&#178;&#156;" d="M44.672 144.448C45.216 144.448 45.688 144.509 46.088 144.632C46.4933 144.749 46.8053 144.92 47.024 145.144C47.248 145.363 47.36 145.624 47.36 145.928C47.36 146.237 47.248 146.504 47.024 146.728C46.8053 146.947 46.4933 147.117 46.088 147.24C45.688 147.357 45.216 147.416 44.672 147.416C44.1333 147.416 43.6613 147.357 43.256 147.24C42.856 147.117 42.544 146.947 42.32 146.728C42.1013 146.504 41.992 146.237 41.992 145.928C41.992 145.624 42.1013 145.363 42.32 145.144C42.544 144.92 42.856 144.749 43.256 144.632C43.6613 144.509 44.1333 144.448 44.672 144.448ZM44.672 145.28C44.3413 145.28 44.056 145.304 43.816 145.352C43.5813 145.395 43.4027 145.464 43.28 145.56C43.1573 145.656 43.096 145.779 43.096 145.928C43.096 146.072 43.1573 146.195 43.28 146.296C43.4027 146.392 43.5813 146.464 43.816 146.512C44.056 146.56 44.3413 146.584 44.672 146.584C45.008 146.584 45.2933 146.56 45.528 146.512C45.7627 146.464 45.9413 146.392 46.064 146.296C46.192 146.195 46.256 146.072 46.256 145.928C46.256 145.779 46.192 145.656 46.064 145.56C45.9413 145.464 45.7627 145.395 45.528 145.352C45.2933 145.304 45.008 145.28 44.672 145.28ZM41.32 147.928H48.024V148.776H41.32V147.928ZM44.136 147.056H45.192V148.144H44.136V147.056ZM42.064 149.288H47.216V151.712H46.152V150.128H42.064V149.288ZM50.3434 145.752H51.2154V146.032C51.2154 146.485 51.1407 146.912 50.9914 147.312C50.842 147.712 50.6154 148.061 50.3114 148.36C50.0074 148.659 49.6207 148.885 49.1514 149.04L48.6314 148.208C49.0314 148.08 49.3567 147.904 49.6074 147.68C49.8634 147.451 50.05 147.195 50.1674 146.912C50.2847 146.624 50.3434 146.331 50.3434 146.032V145.752ZM50.5434 145.752H51.4074V146.032C51.4074 146.309 51.466 146.584 51.5834 146.856C51.706 147.123 51.8954 147.365 52.1514 147.584C52.4074 147.797 52.7327 147.963 53.1274 148.08L52.6234 148.912C52.154 148.773 51.7647 148.563 51.4554 148.28C51.1514 147.992 50.922 147.656 50.7674 147.272C50.618 146.883 50.5434 146.469 50.5434 146.032V145.752ZM48.8874 145.176H52.8714V146.008H48.8874V145.176ZM50.3434 144.352H51.4074V145.488H50.3434V144.352ZM52.6314 146.456H54.3514V147.32H52.6314V146.456ZM53.8154 144.304H54.8874V149.784H53.8154V144.304ZM49.9914 150.728H55.0554V151.584H49.9914V150.728ZM49.9914 149.328H51.0554V151.288H49.9914V149.328Z" fill="black"/>
</g>
<g id="Boeun">
<path id="&#235;&#179;&#180;&#236;&#157;&#128;&#234;&#181;&#176;" d="M63.2 103L66.8 103.2L80 114.8L76.6 121.4L77.2 139.3L58.3 136.5L50.1 127.8L45.8 128.6L43.4 134.4L39.8 132L36.1 135.7L31 131.4L39.1 120.8L37.4 114.5L43.4 111.2L47.4 102.7L50.5 104.5L58 103.2L60.2 105.9L63.2 103Z" fill="#AFD88C" stroke="white" stroke-width="0.5"/>
<path id="&#235;&#179;&#180;&#236;&#157;&#128;" d="M53.328 122.984H60.04V123.848H53.328V122.984ZM56.144 121.4H57.2V123.192H56.144V121.4ZM54.032 117.768H55.096V118.912H58.248V117.768H59.304V121.624H54.032V117.768ZM55.096 119.744V120.776H58.248V119.744H55.096ZM60.6794 121.08H67.3834V121.92H60.6794V121.08ZM61.4954 123.728H66.6314V124.584H61.4954V123.728ZM61.4954 122.416H62.5594V124H61.4954V122.416ZM64.0314 117.52C64.57 117.52 65.0394 117.581 65.4394 117.704C65.8447 117.827 66.1594 118.003 66.3834 118.232C66.6074 118.461 66.7194 118.731 66.7194 119.04C66.7194 119.355 66.6074 119.627 66.3834 119.856C66.1594 120.085 65.8447 120.261 65.4394 120.384C65.0394 120.507 64.57 120.568 64.0314 120.568C63.498 120.568 63.0287 120.507 62.6234 120.384C62.2234 120.261 61.9114 120.085 61.6874 119.856C61.4634 119.627 61.3514 119.355 61.3514 119.04C61.3514 118.731 61.4634 118.461 61.6874 118.232C61.9114 118.003 62.2234 117.827 62.6234 117.704C63.0287 117.581 63.498 117.52 64.0314 117.52ZM64.0314 118.36C63.706 118.36 63.4234 118.387 63.1834 118.44C62.9434 118.493 62.762 118.571 62.6394 118.672C62.5167 118.768 62.4554 118.891 62.4554 119.04C62.4554 119.189 62.5167 119.315 62.6394 119.416C62.762 119.517 62.9434 119.595 63.1834 119.648C63.4234 119.701 63.706 119.728 64.0314 119.728C64.3674 119.728 64.6527 119.701 64.8874 119.648C65.122 119.595 65.3007 119.517 65.4234 119.416C65.5514 119.315 65.6154 119.189 65.6154 119.04C65.6154 118.891 65.5514 118.768 65.4234 118.672C65.3007 118.571 65.122 118.493 64.8874 118.44C64.6527 118.387 64.3674 118.36 64.0314 118.36Z" fill="black"/>
</g>
<g id="Jecheon">
<path id="&#236;&#160;&#156;&#236;&#178;&#156;&#236;&#139;&#156;" d="M82.6 15.0998L82 5.59981L88.2 0.799805L94 2.4998L96.9 11.2998L105.3 8.6998L107.4 4.09981L112.3 7.3998L117.7 1.7998L125.3 8.1998L131.3 5.6998L133.4 6.8998L129.1 13.7998L124.9 15.5998L129.2 19.6998L129.9 24.9998L125.7 22.5998L125.6 26.9998L119.2 32.1998L120.1 36.4998L125.4 46.7998L121.6 51.0998L122.4 60.6998L121.8 64.8998L118.6 64.6998L119.3 70.0998L117.4 69.7998L104.3 66.8998L96.5 63.5998L101.1 54.3998L97 47.9998L102.8 48.4998L102.5 28.8998L97.5 22.7998L92.3 25.4998L87.8 16.4998L82.6 15.0998Z" fill="#AFD88C" stroke="white" stroke-width="0.5"/>
<path id="&#236;&#160;&#156;&#236;&#178;&#156;" d="M110.318 39.715H111.27V46.66H110.318V39.715ZM108.03 42.0925H109.185V42.9025H108.03V42.0925ZM108.915 39.8275H109.845V46.345H108.915V39.8275ZM106.538 40.8475H107.288V41.56C107.288 41.95 107.258 42.335 107.198 42.715C107.143 43.095 107.055 43.455 106.935 43.795C106.815 44.13 106.658 44.4325 106.463 44.7025C106.268 44.9725 106.033 45.195 105.758 45.37L105.165 44.635C105.505 44.42 105.775 44.15 105.975 43.825C106.175 43.495 106.318 43.135 106.403 42.745C106.493 42.35 106.538 41.955 106.538 41.56V40.8475ZM106.763 40.8475H107.505V41.56C107.505 41.945 107.548 42.325 107.633 42.7C107.718 43.075 107.858 43.4175 108.053 43.7275C108.248 44.0325 108.513 44.2825 108.848 44.4775L108.27 45.1975C107.9 44.9775 107.605 44.68 107.385 44.305C107.165 43.93 107.005 43.5075 106.905 43.0375C106.81 42.5625 106.763 42.07 106.763 41.56V40.8475ZM105.42 40.4125H108.518V41.215H105.42V40.4125ZM113.759 41.08H114.577V41.3425C114.577 41.7675 114.507 42.1675 114.367 42.5425C114.227 42.9175 114.014 43.245 113.729 43.525C113.444 43.805 113.082 44.0175 112.642 44.1625L112.154 43.3825C112.529 43.2625 112.834 43.0975 113.069 42.8875C113.309 42.6725 113.484 42.4325 113.594 42.1675C113.704 41.8975 113.759 41.6225 113.759 41.3425V41.08ZM113.947 41.08H114.757V41.3425C114.757 41.6025 114.812 41.86 114.922 42.115C115.037 42.365 115.214 42.5925 115.454 42.7975C115.694 42.9975 115.999 43.1525 116.369 43.2625L115.897 44.0425C115.457 43.9125 115.092 43.715 114.802 43.45C114.517 43.18 114.302 42.865 114.157 42.505C114.017 42.14 113.947 41.7525 113.947 41.3425V41.08ZM112.394 40.54H116.129V41.32H112.394V40.54ZM113.759 39.7675H114.757V40.8325H113.759V39.7675ZM115.904 41.74H117.517V42.55H115.904V41.74ZM117.014 39.7225H118.019V44.86H117.014V39.7225ZM113.429 45.745H118.177V46.5475H113.429V45.745ZM113.429 44.4325H114.427V46.27H113.429V44.4325Z" fill="black"/>
</g>
<g id="Chungju">
<path id="&#236;&#182;&#169;&#236;&#163;&#188;&#236;&#139;&#156;" d="M59.7996 7.59961L65.3996 18.5996L75.7996 15.2996L79.0996 17.4996L80.2996 14.7996L82.5996 15.0996L87.7996 16.4996L92.2996 25.4996L97.4996 22.7996L102.5 28.8996L102.8 48.4996L96.9996 47.9996L101.1 54.3996L96.4996 63.5996L104.3 66.8996L108.8 66.9996L103.8 72.5996L99.4996 69.5996L89.8996 69.6996L85.7996 58.6996L77.2996 58.1996L70.9996 50.3996L65.3996 50.7996L63.5996 51.3996L60.8996 47.5996L56.2996 47.4996L52.5996 43.2996L48.0996 43.6996L52.1996 28.7996L57.0996 23.0996L53.6996 19.0996L59.7996 7.59961Z" fill="#AFD88C" stroke="white" stroke-width="0.5"/>
<path id="&#236;&#182;&#169;&#236;&#163;&#188;" d="M73.136 38.4H74.192V39.472H73.136V38.4ZM70.32 37.864H77.024V38.696H70.32V37.864ZM73.136 34.32H74.2V35.352H73.136V34.32ZM73.072 35.432H74.008V35.576C74.008 35.8533 73.9413 36.1093 73.808 36.344C73.68 36.5787 73.4827 36.7867 73.216 36.968C72.9547 37.144 72.632 37.288 72.248 37.4C71.8693 37.512 71.4267 37.5867 70.92 37.624L70.6 36.824C71.048 36.792 71.4267 36.7387 71.736 36.664C72.0507 36.584 72.3067 36.4853 72.504 36.368C72.7013 36.2507 72.8453 36.1253 72.936 35.992C73.0267 35.8533 73.072 35.7147 73.072 35.576V35.432ZM73.328 35.432H74.264V35.576C74.264 35.7147 74.3093 35.8533 74.4 35.992C74.4907 36.1253 74.632 36.2507 74.824 36.368C75.0213 36.4853 75.2773 36.584 75.592 36.664C75.9067 36.7387 76.2853 36.792 76.728 36.824L76.416 37.624C75.9147 37.5867 75.4693 37.512 75.08 37.4C74.696 37.288 74.3733 37.144 74.112 36.968C73.8507 36.7867 73.6533 36.5787 73.52 36.344C73.392 36.1093 73.328 35.8533 73.328 35.576V35.432ZM70.96 34.968H76.376V35.784H70.96V34.968ZM73.656 39.192C74.4667 39.192 75.0987 39.3013 75.552 39.52C76.0053 39.7387 76.232 40.0507 76.232 40.456C76.232 40.8613 76.0053 41.1707 75.552 41.384C75.0987 41.6027 74.4667 41.712 73.656 41.712C72.8507 41.712 72.2213 41.6027 71.768 41.384C71.3147 41.1707 71.088 40.8613 71.088 40.456C71.088 40.0507 71.3147 39.7387 71.768 39.52C72.2213 39.3013 72.8507 39.192 73.656 39.192ZM73.656 39.976C73.1547 39.976 72.7787 40.0133 72.528 40.088C72.2827 40.1627 72.16 40.2853 72.16 40.456C72.16 40.616 72.2827 40.736 72.528 40.816C72.7787 40.8907 73.1547 40.928 73.656 40.928C74.1573 40.928 74.5307 40.8907 74.776 40.816C75.0267 40.736 75.152 40.616 75.152 40.456C75.152 40.2853 75.0267 40.1627 74.776 40.088C74.5307 40.0133 74.1573 39.976 73.656 39.976ZM80.4234 35.12H81.3514V35.344C81.3514 35.6 81.3087 35.848 81.2234 36.088C81.1434 36.328 81.0207 36.552 80.8554 36.76C80.69 36.9627 80.4874 37.1467 80.2474 37.312C80.0127 37.472 79.7407 37.608 79.4314 37.72C79.122 37.832 78.778 37.912 78.3994 37.96L78.0074 37.136C78.338 37.0933 78.6314 37.0293 78.8874 36.944C79.1487 36.8533 79.3754 36.7493 79.5674 36.632C79.7594 36.5093 79.9194 36.3787 80.0474 36.24C80.1754 36.1013 80.2687 35.9547 80.3274 35.8C80.3914 35.6453 80.4234 35.4933 80.4234 35.344V35.12ZM80.7354 35.12H81.6554V35.344C81.6554 35.4933 81.6847 35.6453 81.7434 35.8C81.8074 35.9547 81.9034 36.1013 82.0314 36.24C82.1594 36.3787 82.3194 36.5093 82.5114 36.632C82.7087 36.7493 82.9354 36.8533 83.1914 36.944C83.4474 37.0293 83.7407 37.0933 84.0714 37.136L83.6794 37.96C83.3007 37.912 82.9567 37.832 82.6474 37.72C82.338 37.608 82.0634 37.472 81.8234 37.312C81.5887 37.1467 81.3887 36.9627 81.2234 36.76C81.0634 36.552 80.9407 36.328 80.8554 36.088C80.7754 35.848 80.7354 35.6 80.7354 35.344V35.12ZM80.4794 39H81.5434V41.712H80.4794V39ZM77.6874 38.384H84.3914V39.24H77.6874V38.384ZM78.2794 34.68H83.7754V35.52H78.2794V34.68Z" fill="black"/>
</g>
<g id="Cheongwon">
<path id="&#236;&#178;&#173;&#236;&#163;&#188;&#236;&#139;&#156;_&#236;&#178;&#173;&#236;&#155;&#144;&#234;&#181;&#172;" d="M37.7008 76.3999L44.0008 86.7999L27.0008 96.5999L26.9008 96.3999L18.0008 86.3999L6.30078 84.0999L11.3008 78.3999L17.1008 80.9999L19.1008 78.9999L23.0008 80.2999L24.7008 77.0999L29.2008 75.4999L37.3008 75.3999L37.7008 76.3999Z" fill="#AFD88C" stroke="white" stroke-width="0.5"/>
<path id="&#236;&#178;&#173;&#236;&#163;&#188; &#236;&#178;&#173;&#236;&#155;&#144;" d="M21.24 83.625H21.78V83.79C21.78 84.06 21.7333 84.315 21.64 84.555C21.5467 84.795 21.4033 85.0033 21.21 85.18C21.02 85.3567 20.7783 85.4883 20.485 85.575L20.17 85.06C20.42 84.9867 20.6233 84.885 20.78 84.755C20.94 84.6217 21.0567 84.4717 21.13 84.305C21.2033 84.135 21.24 83.9633 21.24 83.79V83.625ZM21.365 83.625H21.905V83.79C21.905 83.91 21.925 84.0283 21.965 84.145C22.0083 84.2617 22.0733 84.3717 22.16 84.475C22.25 84.5783 22.3633 84.67 22.5 84.75C22.6367 84.83 22.7967 84.895 22.98 84.945L22.68 85.465C22.3867 85.385 22.1417 85.2633 21.945 85.1C21.7517 84.9333 21.6067 84.7367 21.51 84.51C21.4133 84.2833 21.365 84.0433 21.365 83.79V83.625ZM20.33 83.29H22.82V83.815H20.33V83.29ZM21.24 82.795H21.905V83.5H21.24V82.795ZM22.69 84.045H23.57V84.58H22.69V84.045ZM23.41 82.815H24.08V85.61H23.41V82.815ZM22.51 85.685C23 85.685 23.3867 85.7617 23.67 85.915C23.9533 86.0683 24.095 86.285 24.095 86.565C24.095 86.8417 23.9533 87.0567 23.67 87.21C23.3867 87.3667 23 87.445 22.51 87.445C22.02 87.445 21.6333 87.3667 21.35 87.21C21.0667 87.0567 20.925 86.8417 20.925 86.565C20.925 86.285 21.0667 86.0683 21.35 85.915C21.6333 85.7617 22.02 85.685 22.51 85.685ZM22.51 86.195C22.31 86.195 22.14 86.2083 22 86.235C21.8633 86.2617 21.76 86.3033 21.69 86.36C21.62 86.4133 21.585 86.4817 21.585 86.565C21.585 86.645 21.62 86.7133 21.69 86.77C21.76 86.8267 21.8633 86.8683 22 86.895C22.14 86.9217 22.31 86.935 22.51 86.935C22.7133 86.935 22.8833 86.9217 23.02 86.895C23.1567 86.8683 23.2583 86.8267 23.325 86.77C23.395 86.7133 23.43 86.645 23.43 86.565C23.43 86.4817 23.395 86.4133 23.325 86.36C23.2583 86.3033 23.1567 86.2617 23.02 86.235C22.8833 86.2083 22.7133 86.195 22.51 86.195ZM26.5146 83.325H27.0946V83.465C27.0946 83.625 27.0679 83.78 27.0146 83.93C26.9646 84.08 26.8879 84.22 26.7846 84.35C26.6813 84.4767 26.5546 84.5917 26.4046 84.695C26.2579 84.795 26.0879 84.88 25.8946 84.95C25.7013 85.02 25.4863 85.07 25.2496 85.1L25.0046 84.585C25.2113 84.5583 25.3946 84.5183 25.5546 84.465C25.7179 84.4083 25.8596 84.3433 25.9796 84.27C26.0996 84.1933 26.1996 84.1117 26.2796 84.025C26.3596 83.9383 26.4179 83.8467 26.4546 83.75C26.4946 83.6533 26.5146 83.5583 26.5146 83.465V83.325ZM26.7096 83.325H27.2846V83.465C27.2846 83.5583 27.3029 83.6533 27.3396 83.75C27.3796 83.8467 27.4396 83.9383 27.5196 84.025C27.5996 84.1117 27.6996 84.1933 27.8196 84.27C27.9429 84.3433 28.0846 84.4083 28.2446 84.465C28.4046 84.5183 28.5879 84.5583 28.7946 84.585L28.5496 85.1C28.3129 85.07 28.0979 85.02 27.9046 84.95C27.7113 84.88 27.5396 84.795 27.3896 84.695C27.2429 84.5917 27.1179 84.4767 27.0146 84.35C26.9146 84.22 26.8379 84.08 26.7846 83.93C26.7346 83.78 26.7096 83.625 26.7096 83.465V83.325ZM26.5496 85.75H27.2146V87.445H26.5496V85.75ZM24.8046 85.365H28.9946V85.9H24.8046V85.365ZM25.1746 83.05H28.6096V83.575H25.1746V83.05ZM31.6795 83.625H32.2195V83.79C32.2195 84.06 32.1728 84.315 32.0795 84.555C31.9861 84.795 31.8428 85.0033 31.6495 85.18C31.4595 85.3567 31.2178 85.4883 30.9245 85.575L30.6095 85.06C30.8595 84.9867 31.0628 84.885 31.2195 84.755C31.3795 84.6217 31.4961 84.4717 31.5695 84.305C31.6428 84.135 31.6795 83.9633 31.6795 83.79V83.625ZM31.8045 83.625H32.3445V83.79C32.3445 83.91 32.3645 84.0283 32.4045 84.145C32.4478 84.2617 32.5128 84.3717 32.5995 84.475C32.6895 84.5783 32.8028 84.67 32.9395 84.75C33.0761 84.83 33.2361 84.895 33.4195 84.945L33.1195 85.465C32.8261 85.385 32.5811 85.2633 32.3845 85.1C32.1911 84.9333 32.0461 84.7367 31.9495 84.51C31.8528 84.2833 31.8045 84.0433 31.8045 83.79V83.625ZM30.7695 83.29H33.2595V83.815H30.7695V83.29ZM31.6795 82.795H32.3445V83.5H31.6795V82.795ZM33.1295 84.045H34.0095V84.58H33.1295V84.045ZM33.8495 82.815H34.5195V85.61H33.8495V82.815ZM32.9495 85.685C33.4395 85.685 33.8261 85.7617 34.1095 85.915C34.3928 86.0683 34.5345 86.285 34.5345 86.565C34.5345 86.8417 34.3928 87.0567 34.1095 87.21C33.8261 87.3667 33.4395 87.445 32.9495 87.445C32.4595 87.445 32.0728 87.3667 31.7895 87.21C31.5061 87.0567 31.3645 86.8417 31.3645 86.565C31.3645 86.285 31.5061 86.0683 31.7895 85.915C32.0728 85.7617 32.4595 85.685 32.9495 85.685ZM32.9495 86.195C32.7495 86.195 32.5795 86.2083 32.4395 86.235C32.3028 86.2617 32.1995 86.3033 32.1295 86.36C32.0595 86.4133 32.0245 86.4817 32.0245 86.565C32.0245 86.645 32.0595 86.7133 32.1295 86.77C32.1995 86.8267 32.3028 86.8683 32.4395 86.895C32.5795 86.9217 32.7495 86.935 32.9495 86.935C33.1528 86.935 33.3228 86.9217 33.4595 86.895C33.5961 86.8683 33.6978 86.8267 33.7645 86.77C33.8345 86.7133 33.8695 86.645 33.8695 86.565C33.8695 86.4817 33.8345 86.4133 33.7645 86.36C33.6978 86.3033 33.5961 86.2617 33.4595 86.235C33.3228 86.2083 33.1528 86.195 32.9495 86.195ZM36.4491 85.19H37.1141V86.2H36.4491V85.19ZM38.4741 82.81H39.1391V86.32H38.4741V82.81ZM35.8041 86.83H39.2441V87.365H35.8041V86.83ZM35.8041 85.985H36.4691V86.975H35.8041V85.985ZM35.3091 85.39L35.2241 84.86C35.5074 84.8567 35.8157 84.8533 36.1491 84.85C36.4824 84.8433 36.8224 84.83 37.1691 84.81C37.5157 84.79 37.8491 84.76 38.1691 84.72L38.2141 85.195C37.8841 85.2517 37.5474 85.295 37.2041 85.325C36.8641 85.3517 36.5324 85.3683 36.2091 85.375C35.8857 85.3817 35.5857 85.3867 35.3091 85.39ZM37.6041 85.5H38.6241V85.955H37.6041V85.5ZM36.7141 82.97C36.9407 82.97 37.1407 83.005 37.3141 83.075C37.4874 83.145 37.6224 83.2417 37.7191 83.365C37.8191 83.4883 37.8691 83.6333 37.8691 83.8C37.8691 83.9633 37.8191 84.1083 37.7191 84.235C37.6224 84.3583 37.4874 84.4533 37.3141 84.52C37.1407 84.5867 36.9407 84.62 36.7141 84.62C36.4874 84.62 36.2857 84.5867 36.1091 84.52C35.9357 84.4533 35.8007 84.3583 35.7041 84.235C35.6074 84.1083 35.5591 83.9633 35.5591 83.8C35.5591 83.6333 35.6074 83.4883 35.7041 83.365C35.8007 83.2417 35.9357 83.145 36.1091 83.075C36.2857 83.005 36.4874 82.97 36.7141 82.97ZM36.7141 83.455C36.5607 83.455 36.4341 83.4833 36.3341 83.54C36.2374 83.5967 36.1891 83.6833 36.1891 83.8C36.1891 83.91 36.2374 83.995 36.3341 84.055C36.4341 84.1117 36.5607 84.14 36.7141 84.14C36.8707 84.14 36.9957 84.1117 37.0891 84.055C37.1857 83.995 37.2341 83.91 37.2341 83.8C37.2341 83.7233 37.2124 83.66 37.1691 83.61C37.1257 83.56 37.0657 83.5217 36.9891 83.495C36.9124 83.4683 36.8207 83.455 36.7141 83.455Z" fill="black"/>
</g>
<g id="Heungdeok">
<path id="&#236;&#178;&#173;&#236;&#163;&#188;&#236;&#139;&#156;_&#237;&#157;&#165;&#235;&#141;&#149;&#234;&#181;&#172;" d="M6.3004 84.0999L18.0004 86.3998L26.9004 96.3998L13.7004 108.6L8.8004 109.5L4.0004 105.8L0.900391 97.3998L5.0004 90.7998L2.20039 89.3998L6.3004 84.0999Z" fill="#AFD88C" stroke="white" stroke-width="0.5"/>
<path id="&#236;&#178;&#173;&#236;&#163;&#188; &#237;&#157;&#165;&#235;&#141;&#149;" d="M4.24 95.625H4.78V95.79C4.78 96.06 4.73333 96.315 4.64 96.555C4.54667 96.795 4.40333 97.0033 4.21 97.18C4.02 97.3567 3.77833 97.4883 3.485 97.575L3.17 97.06C3.42 96.9867 3.62333 96.885 3.78 96.755C3.94 96.6217 4.05667 96.4717 4.13 96.305C4.20333 96.135 4.24 95.9633 4.24 95.79V95.625ZM4.365 95.625H4.905V95.79C4.905 95.91 4.925 96.0283 4.965 96.145C5.00833 96.2617 5.07333 96.3717 5.16 96.475C5.25 96.5783 5.36333 96.67 5.5 96.75C5.63667 96.83 5.79667 96.895 5.98 96.945L5.68 97.465C5.38667 97.385 5.14167 97.2633 4.945 97.1C4.75167 96.9333 4.60667 96.7367 4.51 96.51C4.41333 96.2833 4.365 96.0433 4.365 95.79V95.625ZM3.33 95.29H5.82V95.815H3.33V95.29ZM4.24 94.795H4.905V95.5H4.24V94.795ZM5.69 96.045H6.57V96.58H5.69V96.045ZM6.41 94.815H7.08V97.61H6.41V94.815ZM5.51 97.685C6 97.685 6.38667 97.7617 6.67 97.915C6.95333 98.0683 7.095 98.285 7.095 98.565C7.095 98.8417 6.95333 99.0567 6.67 99.21C6.38667 99.3667 6 99.445 5.51 99.445C5.02 99.445 4.63333 99.3667 4.35 99.21C4.06667 99.0567 3.925 98.8417 3.925 98.565C3.925 98.285 4.06667 98.0683 4.35 97.915C4.63333 97.7617 5.02 97.685 5.51 97.685ZM5.51 98.195C5.31 98.195 5.14 98.2083 5 98.235C4.86333 98.2617 4.76 98.3033 4.69 98.36C4.62 98.4133 4.585 98.4817 4.585 98.565C4.585 98.645 4.62 98.7133 4.69 98.77C4.76 98.8267 4.86333 98.8683 5 98.895C5.14 98.9217 5.31 98.935 5.51 98.935C5.71333 98.935 5.88333 98.9217 6.02 98.895C6.15667 98.8683 6.25833 98.8267 6.325 98.77C6.395 98.7133 6.43 98.645 6.43 98.565C6.43 98.4817 6.395 98.4133 6.325 98.36C6.25833 98.3033 6.15667 98.2617 6.02 98.235C5.88333 98.2083 5.71333 98.195 5.51 98.195ZM9.51461 95.325H10.0946V95.465C10.0946 95.625 10.0679 95.78 10.0146 95.93C9.96461 96.08 9.88794 96.22 9.78461 96.35C9.68128 96.4767 9.55461 96.5917 9.40461 96.695C9.25794 96.795 9.08794 96.88 8.89461 96.95C8.70128 97.02 8.48628 97.07 8.24961 97.1L8.00461 96.585C8.21128 96.5583 8.39461 96.5183 8.55461 96.465C8.71794 96.4083 8.85961 96.3433 8.97961 96.27C9.09961 96.1933 9.19961 96.1117 9.27961 96.025C9.35961 95.9383 9.41794 95.8467 9.45461 95.75C9.49461 95.6533 9.51461 95.5583 9.51461 95.465V95.325ZM9.70961 95.325H10.2846V95.465C10.2846 95.5583 10.3029 95.6533 10.3396 95.75C10.3796 95.8467 10.4396 95.9383 10.5196 96.025C10.5996 96.1117 10.6996 96.1933 10.8196 96.27C10.9429 96.3433 11.0846 96.4083 11.2446 96.465C11.4046 96.5183 11.5879 96.5583 11.7946 96.585L11.5496 97.1C11.3129 97.07 11.0979 97.02 10.9046 96.95C10.7113 96.88 10.5396 96.795 10.3896 96.695C10.2429 96.5917 10.1179 96.4767 10.0146 96.35C9.91461 96.22 9.83794 96.08 9.78461 95.93C9.73461 95.78 9.70961 95.625 9.70961 95.465V95.325ZM9.54961 97.75H10.2146V99.445H9.54961V97.75ZM7.80461 97.365H11.9946V97.9H7.80461V97.365ZM8.17461 95.05H11.6096V95.575H8.17461V95.05ZM15.7245 98.005C16.2378 98.005 16.6345 98.0667 16.9145 98.19C17.1945 98.3133 17.3345 98.4917 17.3345 98.725C17.3345 98.965 17.1945 99.145 16.9145 99.265C16.6345 99.3883 16.2378 99.45 15.7245 99.45C15.2145 99.45 14.8195 99.3883 14.5395 99.265C14.2595 99.145 14.1195 98.9667 14.1195 98.73C14.1195 98.4933 14.2595 98.3133 14.5395 98.19C14.8195 98.0667 15.2145 98.005 15.7245 98.005ZM15.7295 98.485C15.4061 98.485 15.1695 98.505 15.0195 98.545C14.8695 98.5817 14.7945 98.6417 14.7945 98.725C14.7945 98.8117 14.8695 98.875 15.0195 98.915C15.1695 98.9517 15.4061 98.97 15.7295 98.97C16.0495 98.97 16.2828 98.9517 16.4295 98.915C16.5795 98.875 16.6545 98.8117 16.6545 98.725C16.6545 98.6417 16.5795 98.5817 16.4295 98.545C16.2828 98.505 16.0495 98.485 15.7295 98.485ZM13.8395 95.145H17.6145V95.645H13.8395V95.145ZM15.7345 95.765C16.2345 95.765 16.6178 95.8217 16.8845 95.935C17.1511 96.0483 17.2845 96.2133 17.2845 96.43C17.2845 96.65 17.1511 96.8167 16.8845 96.93C16.6178 97.04 16.2345 97.095 15.7345 97.095C15.2411 97.095 14.8595 97.04 14.5895 96.93C14.3195 96.8167 14.1845 96.65 14.1845 96.43C14.1845 96.2133 14.3195 96.0483 14.5895 95.935C14.8595 95.8217 15.2411 95.765 15.7345 95.765ZM15.7345 96.215C15.4511 96.215 15.2411 96.2317 15.1045 96.265C14.9678 96.2983 14.8995 96.355 14.8995 96.435C14.8995 96.5083 14.9678 96.5633 15.1045 96.6C15.2411 96.6333 15.4511 96.65 15.7345 96.65C16.0245 96.65 16.2361 96.6333 16.3695 96.6C16.5061 96.5633 16.5745 96.5083 16.5745 96.435C16.5745 96.355 16.5061 96.2983 16.3695 96.265C16.2361 96.2317 16.0245 96.215 15.7345 96.215ZM15.4045 94.77H16.0645V95.485H15.4045V94.77ZM13.6395 97.29H17.8295V97.805H13.6395V97.29ZM18.4891 96.935H18.8541C19.1641 96.935 19.4291 96.9317 19.6491 96.925C19.8691 96.915 20.0674 96.9017 20.2441 96.885C20.4207 96.865 20.5957 96.8367 20.7691 96.8L20.8341 97.325C20.6541 97.365 20.4724 97.395 20.2891 97.415C20.1057 97.435 19.8991 97.4483 19.6691 97.455C19.4424 97.4617 19.1707 97.465 18.8541 97.465H18.4891V96.935ZM18.4891 95.125H20.5691V95.655H19.1491V97.08H18.4891V95.125ZM18.9591 97.81H22.1191V99.445H21.4491V98.34H18.9591V97.81ZM21.4491 94.81H22.1191V97.61H21.4491V94.81ZM20.3591 95.97H21.6241V96.495H20.3591V95.97Z" fill="black"/>
</g>
<g id="Sangdang">
<path id="&#236;&#178;&#173;&#236;&#163;&#188;&#236;&#139;&#156;_&#236;&#131;&#129;&#235;&#139;&#185;&#234;&#181;&#172;" d="M26.7008 122.8L22.3008 117.2L22.5008 111.5L27.3008 112.2L25.2008 107.8L29.2008 105.2L27.0008 96.5998L44.0008 86.7998L48.2008 87.6998L49.9008 83.2998L57.8008 90.6998L55.6008 95.0998L63.2008 103L60.2008 105.9L58.0008 103.2L50.5008 104.5L47.4008 102.7L43.4008 111.2L37.4008 114.5L39.1008 120.8L31.0008 131.4L29.4008 133.5L28.2008 128.7L26.7008 122.8Z" fill="#AFD88C" stroke="white" stroke-width="0.5"/>
<path id="&#236;&#178;&#173;&#236;&#163;&#188; &#236;&#131;&#129;&#235;&#139;&#185;" d="M32.488 95.95H33.136V96.148C33.136 96.472 33.08 96.778 32.968 97.066C32.856 97.354 32.684 97.604 32.452 97.816C32.224 98.028 31.934 98.186 31.582 98.29L31.204 97.672C31.504 97.584 31.748 97.462 31.936 97.306C32.128 97.146 32.268 96.966 32.356 96.766C32.444 96.562 32.488 96.356 32.488 96.148V95.95ZM32.638 95.95H33.286V96.148C33.286 96.292 33.31 96.434 33.358 96.574C33.41 96.714 33.488 96.846 33.592 96.97C33.7 97.094 33.836 97.204 34 97.3C34.164 97.396 34.356 97.474 34.576 97.534L34.216 98.158C33.864 98.062 33.57 97.916 33.334 97.72C33.102 97.52 32.928 97.284 32.812 97.012C32.696 96.74 32.638 96.452 32.638 96.148V95.95ZM31.396 95.548H34.384V96.178H31.396V95.548ZM32.488 94.954H33.286V95.8H32.488V94.954ZM34.228 96.454H35.284V97.096H34.228V96.454ZM35.092 94.978H35.896V98.332H35.092V94.978ZM34.012 98.422C34.6 98.422 35.064 98.514 35.404 98.698C35.744 98.882 35.914 99.142 35.914 99.478C35.914 99.81 35.744 100.068 35.404 100.252C35.064 100.44 34.6 100.534 34.012 100.534C33.424 100.534 32.96 100.44 32.62 100.252C32.28 100.068 32.11 99.81 32.11 99.478C32.11 99.142 32.28 98.882 32.62 98.698C32.96 98.514 33.424 98.422 34.012 98.422ZM34.012 99.034C33.772 99.034 33.568 99.05 33.4 99.082C33.236 99.114 33.112 99.164 33.028 99.232C32.944 99.296 32.902 99.378 32.902 99.478C32.902 99.574 32.944 99.656 33.028 99.724C33.112 99.792 33.236 99.842 33.4 99.874C33.568 99.906 33.772 99.922 34.012 99.922C34.256 99.922 34.46 99.906 34.624 99.874C34.788 99.842 34.91 99.792 34.99 99.724C35.074 99.656 35.116 99.574 35.116 99.478C35.116 99.378 35.074 99.296 34.99 99.232C34.91 99.164 34.788 99.114 34.624 99.082C34.46 99.05 34.256 99.034 34.012 99.034ZM38.8175 95.59H39.5135V95.758C39.5135 95.95 39.4815 96.136 39.4175 96.316C39.3575 96.496 39.2655 96.664 39.1415 96.82C39.0175 96.972 38.8655 97.11 38.6855 97.234C38.5095 97.354 38.3055 97.456 38.0735 97.54C37.8415 97.624 37.5835 97.684 37.2995 97.72L37.0055 97.102C37.2535 97.07 37.4735 97.022 37.6655 96.958C37.8615 96.89 38.0315 96.812 38.1755 96.724C38.3195 96.632 38.4395 96.534 38.5355 96.43C38.6315 96.326 38.7015 96.216 38.7455 96.1C38.7935 95.984 38.8175 95.87 38.8175 95.758V95.59ZM39.0515 95.59H39.7415V95.758C39.7415 95.87 39.7635 95.984 39.8075 96.1C39.8555 96.216 39.9275 96.326 40.0235 96.43C40.1195 96.534 40.2395 96.632 40.3835 96.724C40.5315 96.812 40.7015 96.89 40.8935 96.958C41.0855 97.022 41.3055 97.07 41.5535 97.102L41.2595 97.72C40.9755 97.684 40.7175 97.624 40.4855 97.54C40.2535 97.456 40.0475 97.354 39.8675 97.234C39.6915 97.11 39.5415 96.972 39.4175 96.82C39.2975 96.664 39.2055 96.496 39.1415 96.316C39.0815 96.136 39.0515 95.95 39.0515 95.758V95.59ZM38.8595 98.5H39.6575V100.534H38.8595V98.5ZM36.7655 98.038H41.7935V98.68H36.7655V98.038ZM37.2095 95.26H41.3315V95.89H37.2095V95.26ZM44.9913 95.272H45.6453V95.77C45.6453 96.134 45.5893 96.48 45.4773 96.808C45.3693 97.132 45.2013 97.416 44.9733 97.66C44.7453 97.904 44.4553 98.086 44.1033 98.206L43.6833 97.582C43.9953 97.474 44.2473 97.328 44.4393 97.144C44.6313 96.956 44.7713 96.742 44.8593 96.502C44.9473 96.262 44.9913 96.018 44.9913 95.77V95.272ZM45.1533 95.272H45.7953V95.842C45.7953 96.01 45.8193 96.174 45.8673 96.334C45.9193 96.494 45.9953 96.644 46.0953 96.784C46.1953 96.924 46.3233 97.05 46.4793 97.162C46.6353 97.27 46.8233 97.358 47.0433 97.426L46.6293 98.05C46.2933 97.938 46.0153 97.772 45.7953 97.552C45.5793 97.332 45.4173 97.076 45.3093 96.784C45.2053 96.492 45.1533 96.178 45.1533 95.842V95.272ZM47.3433 94.978H48.1413V98.26H47.3433V94.978ZM47.9253 96.262H48.8793V96.922H47.9253V96.262ZM46.3293 98.386C46.7173 98.386 47.0513 98.43 47.3313 98.518C47.6113 98.602 47.8273 98.724 47.9793 98.884C48.1313 99.04 48.2073 99.232 48.2073 99.46C48.2073 99.684 48.1313 99.876 47.9793 100.036C47.8273 100.196 47.6113 100.318 47.3313 100.402C47.0513 100.49 46.7173 100.534 46.3293 100.534C45.9453 100.534 45.6113 100.49 45.3273 100.402C45.0473 100.318 44.8293 100.196 44.6733 100.036C44.5213 99.876 44.4453 99.684 44.4453 99.46C44.4453 99.232 44.5213 99.04 44.6733 98.884C44.8293 98.724 45.0473 98.602 45.3273 98.518C45.6113 98.43 45.9453 98.386 46.3293 98.386ZM46.3293 99.004C46.0933 99.004 45.8953 99.022 45.7353 99.058C45.5753 99.09 45.4533 99.14 45.3693 99.208C45.2853 99.272 45.2433 99.356 45.2433 99.46C45.2433 99.56 45.2853 99.644 45.3693 99.712C45.4533 99.78 45.5753 99.832 45.7353 99.868C45.8953 99.9 46.0933 99.916 46.3293 99.916C46.5653 99.916 46.7633 99.9 46.9233 99.868C47.0873 99.832 47.2093 99.78 47.2893 99.712C47.3733 99.644 47.4153 99.56 47.4153 99.46C47.4153 99.356 47.3733 99.272 47.2893 99.208C47.2093 99.14 47.0873 99.09 46.9233 99.058C46.7633 99.022 46.5653 99.004 46.3293 99.004ZM52.8689 94.972H53.6729V98.182H52.8689V94.972ZM53.4449 96.286H54.3989V96.94H53.4449V96.286ZM51.8489 98.278C52.2329 98.278 52.5649 98.324 52.8449 98.416C53.1249 98.508 53.3409 98.638 53.4929 98.806C53.6489 98.97 53.7269 99.17 53.7269 99.406C53.7269 99.642 53.6489 99.844 53.4929 100.012C53.3409 100.184 53.1249 100.314 52.8449 100.402C52.5649 100.494 52.2329 100.54 51.8489 100.54C51.4689 100.54 51.1369 100.494 50.8529 100.402C50.5689 100.314 50.3489 100.184 50.1929 100.012C50.0409 99.844 49.9649 99.642 49.9649 99.406C49.9649 99.17 50.0409 98.97 50.1929 98.806C50.3489 98.638 50.5689 98.508 50.8529 98.416C51.1369 98.324 51.4689 98.278 51.8489 98.278ZM51.8489 98.914C51.6129 98.914 51.4149 98.932 51.2549 98.968C51.0949 99.004 50.9709 99.058 50.8829 99.13C50.7989 99.202 50.7569 99.294 50.7569 99.406C50.7569 99.514 50.7989 99.606 50.8829 99.682C50.9709 99.754 51.0949 99.808 51.2549 99.844C51.4149 99.88 51.6129 99.898 51.8489 99.898C52.0849 99.898 52.2829 99.88 52.4429 99.844C52.6069 99.808 52.7309 99.754 52.8149 99.682C52.8989 99.606 52.9409 99.514 52.9409 99.406C52.9409 99.294 52.8989 99.202 52.8149 99.13C52.7309 99.058 52.6069 99.004 52.4429 98.968C52.2829 98.932 52.0849 98.914 51.8489 98.914ZM49.4789 97.252H49.9469C50.3549 97.252 50.7029 97.248 50.9909 97.24C51.2789 97.232 51.5369 97.216 51.7649 97.192C51.9929 97.164 52.2189 97.126 52.4429 97.078L52.5209 97.714C52.2929 97.762 52.0609 97.8 51.8249 97.828C51.5889 97.852 51.3209 97.87 51.0209 97.882C50.7249 97.89 50.3669 97.894 49.9469 97.894H49.4789V97.252ZM49.4789 95.344H51.9689V95.986H50.2769V97.69H49.4789V95.344Z" fill="black"/>
</g>
<g id="Seowon">
<path id="&#236;&#178;&#173;&#236;&#163;&#188;&#236;&#139;&#156;_&#236;&#132;&#156;&#236;&#155;&#144;&#234;&#181;&#172;" d="M27.0012 96.5999L29.2012 105.2L25.2012 107.8L27.3012 112.2L22.5012 111.5L22.3012 117.2L26.7012 122.8L23.0012 127.2L16.8012 126.1L16.7012 126.3L16.5012 124.8L16.4012 123.9L17.1012 122.8L16.1012 120.6L17.7012 114.7L13.7012 108.6L26.9012 96.3999L27.0012 96.5999Z" fill="#AFD88C" stroke="white" stroke-width="0.5"/>
<path id="&#236;&#178;&#173;&#236;&#163;&#188; &#236;&#132;&#156;&#236;&#155;&#144;" d="M15.7444 108.895H16.0252V108.981C16.0252 109.121 16.0009 109.254 15.9524 109.379C15.9039 109.503 15.8293 109.612 15.7288 109.704C15.63 109.795 15.5043 109.864 15.3518 109.909L15.188 109.641C15.318 109.603 15.4237 109.55 15.5052 109.483C15.5884 109.413 15.6491 109.335 15.6872 109.249C15.7253 109.16 15.7444 109.071 15.7444 108.981V108.895ZM15.8094 108.895H16.0902V108.981C16.0902 109.043 16.1006 109.105 16.1214 109.165C16.1439 109.226 16.1777 109.283 16.2228 109.337C16.2696 109.391 16.3285 109.438 16.3996 109.48C16.4707 109.522 16.5539 109.555 16.6492 109.581L16.4932 109.852C16.3407 109.81 16.2133 109.747 16.111 109.662C16.0105 109.575 15.9351 109.473 15.8848 109.355C15.8345 109.237 15.8094 109.112 15.8094 108.981V108.895ZM15.2712 108.721H16.566V108.994H15.2712V108.721ZM15.7444 108.463H16.0902V108.83H15.7444V108.463ZM16.4984 109.113H16.956V109.392H16.4984V109.113ZM16.8728 108.474H17.2212V109.927H16.8728V108.474ZM16.4048 109.966C16.6596 109.966 16.8607 110.006 17.008 110.086C17.1553 110.165 17.229 110.278 17.229 110.424C17.229 110.568 17.1553 110.679 17.008 110.759C16.8607 110.841 16.6596 110.881 16.4048 110.881C16.15 110.881 15.9489 110.841 15.8016 110.759C15.6543 110.679 15.5806 110.568 15.5806 110.424C15.5806 110.278 15.6543 110.165 15.8016 110.086C15.9489 110.006 16.15 109.966 16.4048 109.966ZM16.4048 110.231C16.3008 110.231 16.2124 110.238 16.1396 110.252C16.0685 110.266 16.0148 110.288 15.9784 110.317C15.942 110.345 15.9238 110.38 15.9238 110.424C15.9238 110.465 15.942 110.501 15.9784 110.53C16.0148 110.56 16.0685 110.581 16.1396 110.595C16.2124 110.609 16.3008 110.616 16.4048 110.616C16.5105 110.616 16.5989 110.609 16.67 110.595C16.7411 110.581 16.7939 110.56 16.8286 110.53C16.865 110.501 16.8832 110.465 16.8832 110.424C16.8832 110.38 16.865 110.345 16.8286 110.317C16.7939 110.288 16.7411 110.266 16.67 110.252C16.5989 110.238 16.5105 110.231 16.4048 110.231ZM18.4872 108.739H18.7888V108.812C18.7888 108.895 18.7749 108.976 18.7472 109.054C18.7212 109.132 18.6813 109.204 18.6276 109.272C18.5739 109.338 18.508 109.398 18.43 109.451C18.3537 109.503 18.2653 109.548 18.1648 109.584C18.0643 109.62 17.9525 109.646 17.8294 109.662L17.702 109.394C17.8095 109.38 17.9048 109.359 17.988 109.332C18.0729 109.302 18.1466 109.268 18.209 109.23C18.2714 109.19 18.3234 109.148 18.365 109.103C18.4066 109.058 18.4369 109.01 18.456 108.96C18.4768 108.91 18.4872 108.86 18.4872 108.812V108.739ZM18.5886 108.739H18.8876V108.812C18.8876 108.86 18.8971 108.91 18.9162 108.96C18.937 109.01 18.9682 109.058 19.0098 109.103C19.0514 109.148 19.1034 109.19 19.1658 109.23C19.2299 109.268 19.3036 109.302 19.3868 109.332C19.47 109.359 19.5653 109.38 19.6728 109.394L19.5454 109.662C19.4223 109.646 19.3105 109.62 19.21 109.584C19.1095 109.548 19.0202 109.503 18.9422 109.451C18.8659 109.398 18.8009 109.338 18.7472 109.272C18.6952 109.204 18.6553 109.132 18.6276 109.054C18.6016 108.976 18.5886 108.895 18.5886 108.812V108.739ZM18.5054 110H18.8512V110.881H18.5054V110ZM17.598 109.8H19.7768V110.078H17.598V109.8ZM17.7904 108.596H19.5766V108.869H17.7904V108.596ZM21.8489 109.225H22.4833V109.503H21.8489V109.225ZM21.1937 108.656H21.4719V109.007C21.4719 109.158 21.4589 109.304 21.4329 109.446C21.4069 109.588 21.3671 109.721 21.3133 109.844C21.2596 109.967 21.1911 110.075 21.1079 110.169C21.0265 110.263 20.9294 110.338 20.8167 110.395L20.6009 110.12C20.7032 110.071 20.7907 110.008 20.8635 109.93C20.9381 109.852 20.9996 109.763 21.0481 109.665C21.0984 109.564 21.1348 109.458 21.1573 109.347C21.1816 109.235 21.1937 109.121 21.1937 109.007V108.656ZM21.2639 108.656H21.5395V109.007C21.5395 109.119 21.5508 109.231 21.5733 109.342C21.5959 109.451 21.6297 109.554 21.6747 109.649C21.7215 109.744 21.7813 109.829 21.8541 109.904C21.9269 109.977 22.0136 110.035 22.1141 110.081L21.9061 110.356C21.7935 110.301 21.6964 110.228 21.6149 110.138C21.5335 110.046 21.4667 109.941 21.4147 109.823C21.3645 109.705 21.3263 109.577 21.3003 109.438C21.2761 109.3 21.2639 109.156 21.2639 109.007V108.656ZM22.3091 108.469H22.6549V110.884H22.3091V108.469ZM23.6531 109.709H23.9989V110.234H23.6531V109.709ZM24.7061 108.471H25.0519V110.296H24.7061V108.471ZM23.3177 110.562H25.1065V110.84H23.3177V110.562ZM23.3177 110.122H23.6635V110.637H23.3177V110.122ZM23.0603 109.813L23.0161 109.537C23.1635 109.535 23.3238 109.534 23.4971 109.532C23.6705 109.528 23.8473 109.522 24.0275 109.511C24.2078 109.501 24.3811 109.485 24.5475 109.464L24.5709 109.711C24.3993 109.741 24.2243 109.763 24.0457 109.779C23.8689 109.793 23.6965 109.801 23.5283 109.805C23.3602 109.808 23.2042 109.811 23.0603 109.813ZM24.2537 109.87H24.7841V110.107H24.2537V109.87ZM23.7909 108.554C23.9088 108.554 24.0128 108.573 24.1029 108.609C24.1931 108.645 24.2633 108.696 24.3135 108.76C24.3655 108.824 24.3915 108.899 24.3915 108.986C24.3915 109.071 24.3655 109.146 24.3135 109.212C24.2633 109.276 24.1931 109.326 24.1029 109.36C24.0128 109.395 23.9088 109.412 23.7909 109.412C23.6731 109.412 23.5682 109.395 23.4763 109.36C23.3862 109.326 23.316 109.276 23.2657 109.212C23.2155 109.146 23.1903 109.071 23.1903 108.986C23.1903 108.899 23.2155 108.824 23.2657 108.76C23.316 108.696 23.3862 108.645 23.4763 108.609C23.5682 108.573 23.6731 108.554 23.7909 108.554ZM23.7909 108.807C23.7112 108.807 23.6453 108.821 23.5933 108.851C23.5431 108.88 23.5179 108.925 23.5179 108.986C23.5179 109.043 23.5431 109.087 23.5933 109.119C23.6453 109.148 23.7112 109.163 23.7909 109.163C23.8724 109.163 23.9374 109.148 23.9859 109.119C24.0362 109.087 24.0613 109.043 24.0613 108.986C24.0613 108.946 24.0501 108.913 24.0275 108.887C24.005 108.861 23.9738 108.841 23.9339 108.827C23.8941 108.813 23.8464 108.807 23.7909 108.807Z" fill="black"/>
</g>
</g>
</svg>
