<svg width="194" height="171" viewBox="0 0 194 171" fill="none" xmlns="http://www.w3.org/2000/svg">
    <style>
        .shape {
        transition: fill 0.2s ease;
        }
        .region:hover .shape {
        fill: #84CD49;
        }
    </style>

    <g id="chungnam">
        <g id="teaan" class="region">
            <path class="shape" d="M9.9 31.4L9.7 28.5L18.2 24.5L14.1 29.1L20.9 30.4L25.1 14.5L25.5 15.3L25.3 16.3L25.4 19.5L24.5 23.8L28.3 28.2L28.2 28.9L25.4 32L25.1 33.2L24.9 33.4L26.6 36.5L26.4 37.2L22.1 39.5L23.5 42.7L25.4 40H28.9L31.7 44.1L29.9 50.1V56.2L30.9 70.6L29.7 71L28.4 71.9L26.4 74.5L23.5 73.3L23.7 64.1L19.8 62.1L21.7 52.7L11 61.5L5.9 61.2L4.9 57.2L14.5 55L9.7 49.4L4 49.2L5.3 52.6L1.4 56.3L0.5 46.2L4.8 43.3L5.3 34.8L8 35.6V40.1L11.4 44.6L8.8 36.9L9.9 31.4ZM28.7 72.6L31.3 71.6L33.1 76.2L33.2 76.9L33.7 81.5L33.3 83.2L38.3 95L40.4 101.9L39.5 105L39.4 105.1L38.6 105L34.7 101.3L34 103.4L32.3 103L31.3 102.4L31.5 98.4L27.7 98.1L25.5 77.9L25.7 75.6L26.7 76.1V74.5L28.1 72.8L28.7 72.6Z"
                  fill="#AFD88C" stroke="white" stroke-width="0.5"/>
            <path class="label" d="M12.568 48.144H13.088C13.4507 48.144 13.7733 48.1413 14.056 48.136C14.344 48.1253 14.6187 48.112 14.88 48.096C15.1467 48.0747 15.416 48.0427 15.688 48L15.776 48.856C15.4987 48.904 15.224 48.9413 14.952 48.968C14.68 48.9893 14.3947 49.0027 14.096 49.008C13.7973 49.0133 13.4613 49.016 13.088 49.016H12.568V48.144ZM12.568 44.064H15.56V44.912H13.584V48.496H12.568V44.064ZM13.288 46.008H15.416V46.824H13.288V46.008ZM17.672 43.296H18.688V50.704H17.672V43.296ZM16.784 46.168H18.016V47.024H16.784V46.168ZM16.08 43.416H17.072V50.376H16.08V43.416ZM24.4474 43.304H25.5114V48.688H24.4474V43.304ZM25.2154 45.416H26.4954V46.296H25.2154V45.416ZM20.7354 49.728H25.7754V50.584H20.7354V49.728ZM20.7354 48.128H21.8074V50.112H20.7354V48.128ZM21.7434 43.776C22.122 43.776 22.4634 43.856 22.7674 44.016C23.0714 44.176 23.3114 44.3973 23.4874 44.68C23.6687 44.9627 23.7594 45.288 23.7594 45.656C23.7594 46.0187 23.6687 46.344 23.4874 46.632C23.3114 46.9147 23.0714 47.1387 22.7674 47.304C22.4634 47.464 22.122 47.544 21.7434 47.544C21.3647 47.544 21.0234 47.464 20.7194 47.304C20.4154 47.1387 20.1754 46.9147 19.9994 46.632C19.8234 46.344 19.7354 46.0187 19.7354 45.656C19.7354 45.288 19.8234 44.9627 19.9994 44.68C20.1754 44.3973 20.4154 44.176 20.7194 44.016C21.0234 43.856 21.3647 43.776 21.7434 43.776ZM21.7434 44.696C21.562 44.696 21.3967 44.736 21.2474 44.816C21.1034 44.8907 20.9887 45 20.9034 45.144C20.818 45.2827 20.7754 45.4533 20.7754 45.656C20.7754 45.8587 20.818 46.032 20.9034 46.176C20.9887 46.3147 21.1034 46.424 21.2474 46.504C21.3967 46.5787 21.562 46.616 21.7434 46.616C21.93 46.616 22.0954 46.5787 22.2394 46.504C22.3887 46.424 22.506 46.3147 22.5914 46.176C22.6767 46.032 22.7194 45.8587 22.7194 45.656C22.7194 45.4533 22.6767 45.2827 22.5914 45.144C22.506 45 22.3887 44.8907 22.2394 44.816C22.0954 44.736 21.93 44.696 21.7434 44.696Z"
                  fill="black"/>
        </g>
        <g id="yesan" class="region">
            <path class="shape" d="M68.4992 46.7L74.2992 42.5L83.3992 50.8L91.3992 45.1L95.2992 54L107.899 61.9L99.1992 80.6L92.5992 79L89.7992 85.4L84.1992 84.8L83.2992 84.4L78.7992 82.6L83.1992 75.1L79.8992 63.1L65.0992 66.3L64.4992 72.6L59.6992 71.1L60.1992 64L65.8992 49.3L68.3992 50.5L68.4992 46.7Z"
                  fill="#AFD88C" stroke="white" stroke-width="0.5"/>
            <path class="label" d="M87.764 62.1282H89.004V62.9922H87.764V62.1282ZM87.764 64.4242H89.004V65.2802H87.764V64.4242ZM90.172 60.4962H91.188V67.9042H90.172V60.4962ZM88.7 60.6162H89.692V67.5762H88.7V60.6162ZM86.492 61.0162C86.8173 61.0162 87.1 61.1255 87.34 61.3442C87.5853 61.5575 87.772 61.8669 87.9 62.2722C88.0333 62.6722 88.1 63.1522 88.1 63.7122C88.1 64.2669 88.0333 64.7469 87.9 65.1522C87.772 65.5575 87.5853 65.8695 87.34 66.0882C87.1 66.3015 86.8147 66.4082 86.484 66.4082C86.164 66.4082 85.8813 66.3015 85.636 66.0882C85.396 65.8695 85.2093 65.5575 85.076 65.1522C84.948 64.7469 84.884 64.2669 84.884 63.7122C84.884 63.1522 84.948 62.6722 85.076 62.2722C85.2093 61.8669 85.396 61.5575 85.636 61.3442C85.8813 61.1255 86.1667 61.0162 86.492 61.0162ZM86.492 62.0242C86.3533 62.0242 86.236 62.0855 86.14 62.2082C86.044 62.3309 85.9693 62.5175 85.916 62.7682C85.868 63.0135 85.844 63.3282 85.844 63.7122C85.844 64.0855 85.868 64.3975 85.916 64.6482C85.9693 64.8989 86.044 65.0882 86.14 65.2162C86.236 65.3389 86.3533 65.4002 86.492 65.4002C86.6307 65.4002 86.748 65.3389 86.844 65.2162C86.94 65.0882 87.0147 64.8989 87.068 64.6482C87.1213 64.3975 87.148 64.0855 87.148 63.7122C87.148 63.3282 87.1213 63.0135 87.068 62.7682C87.0147 62.5175 86.94 62.3309 86.844 62.2082C86.748 62.0855 86.6307 62.0242 86.492 62.0242ZM93.8434 60.9522H94.7234V61.7522C94.7234 62.2429 94.646 62.7042 94.4914 63.1362C94.342 63.5629 94.1127 63.9362 93.8034 64.2562C93.4994 64.5762 93.11 64.8162 92.6354 64.9762L92.0674 64.1522C92.4887 64.0135 92.83 63.8215 93.0914 63.5762C93.3527 63.3255 93.542 63.0429 93.6594 62.7282C93.782 62.4082 93.8434 62.0829 93.8434 61.7522V60.9522ZM94.0594 60.9522H94.9234V61.7602C94.9234 61.9949 94.9554 62.2269 95.0194 62.4562C95.0834 62.6802 95.1847 62.8935 95.3234 63.0962C95.462 63.2935 95.638 63.4722 95.8514 63.6322C96.0647 63.7869 96.3207 63.9122 96.6194 64.0082L96.0754 64.8402C95.6114 64.6855 95.23 64.4562 94.9314 64.1522C94.638 63.8429 94.4194 63.4829 94.2754 63.0722C94.1314 62.6615 94.0594 62.2242 94.0594 61.7602V60.9522ZM96.9474 60.5042H98.0114V65.9202H96.9474V60.5042ZM97.7154 62.6482H98.9954V63.5202H97.7154V62.6482ZM93.2434 66.9282H98.2754V67.7842H93.2434V66.9282ZM93.2434 65.4002H94.3154V67.3842H93.2434V65.4002Z"
                  fill="black"/>
        </g>
        <g id="hongsung" class="region">
            <path class="shape" d="M43.5992 74.7002L43.1992 69.8002L60.3992 64.1002L59.8992 71.2002L64.5992 72.7002L65.2992 66.4002L80.0992 63.2002L83.3992 75.2002L78.8992 82.7002L83.3992 84.6002L78.6992 94.3002L70.4992 95.9002L63.2992 92.2002L62.7992 92.5002L62.6992 92.8002L61.6992 93.1002L60.4992 88.8002L56.4992 88.5002L56.1992 86.0002L55.7992 88.8002H55.6992L54.5992 88.6002L51.4992 86.1002L49.4992 85.0002L49.2992 84.7002L46.5992 87.4002L44.0992 81.9002L44.2992 81.5002L43.5992 74.7002Z"
                  fill="#AFD88C" stroke="white" stroke-width="0.5"/>
            <path class="label" d="M60.656 81.408C61.4773 81.408 62.112 81.5067 62.56 81.704C63.008 81.9013 63.232 82.1867 63.232 82.56C63.232 82.9387 63.008 83.224 62.56 83.416C62.112 83.6133 61.4773 83.712 60.656 83.712C59.84 83.712 59.208 83.6133 58.76 83.416C58.312 83.224 58.088 82.9387 58.088 82.56C58.088 82.1867 58.312 81.9013 58.76 81.704C59.208 81.5067 59.84 81.408 60.656 81.408ZM60.664 82.176C60.1467 82.176 59.768 82.2053 59.528 82.264C59.288 82.3227 59.168 82.424 59.168 82.568C59.168 82.7013 59.288 82.8 59.528 82.864C59.768 82.9227 60.1467 82.952 60.664 82.952C61.176 82.952 61.5493 82.9227 61.784 82.864C62.024 82.8 62.144 82.7013 62.144 82.568C62.144 82.424 62.024 82.3227 61.784 82.264C61.5493 82.2053 61.176 82.176 60.664 82.176ZM57.64 76.832H63.68V77.632H57.64V76.832ZM60.672 77.824C61.472 77.824 62.0853 77.9147 62.512 78.096C62.9387 78.272 63.152 78.536 63.152 78.888C63.152 79.2347 62.9387 79.4987 62.512 79.68C62.0853 79.856 61.472 79.944 60.672 79.944C59.8827 79.944 59.272 79.856 58.84 79.68C58.408 79.4987 58.192 79.2347 58.192 78.888C58.192 78.536 58.408 78.272 58.84 78.096C59.272 77.9147 59.8827 77.824 60.672 77.824ZM60.672 78.536C60.2187 78.536 59.8827 78.5653 59.664 78.624C59.4453 78.6773 59.336 78.7653 59.336 78.888C59.336 79.0053 59.4453 79.0907 59.664 79.144C59.8827 79.1973 60.2187 79.224 60.672 79.224C61.136 79.224 61.4747 79.1973 61.688 79.144C61.9067 79.0907 62.016 79.0053 62.016 78.888C62.016 78.7653 61.9067 78.6773 61.688 78.624C61.4747 78.5653 61.136 78.536 60.672 78.536ZM60.144 76.24H61.2V77.384H60.144V76.24ZM57.32 80.304H64.024V81.128H57.32V80.304ZM60.144 79.608H61.2V80.648H60.144V79.608ZM66.4074 76.688H67.2874V77.344C67.2874 77.84 67.21 78.3067 67.0554 78.744C66.906 79.1813 66.6767 79.5627 66.3674 79.888C66.058 80.2133 65.6607 80.4587 65.1754 80.624L64.6154 79.768C65.042 79.6347 65.386 79.4427 65.6474 79.192C65.9087 78.9413 66.1007 78.656 66.2234 78.336C66.346 78.016 66.4074 77.6853 66.4074 77.344V76.688ZM66.6234 76.688H67.4874V77.296C67.4874 77.6213 67.5434 77.936 67.6554 78.24C67.7674 78.5387 67.946 78.8053 68.1914 79.04C68.4367 79.2693 68.754 79.448 69.1434 79.576L68.5914 80.408C68.138 80.248 67.7647 80.016 67.4714 79.712C67.1834 79.408 66.97 79.0507 66.8314 78.64C66.6927 78.224 66.6234 77.776 66.6234 77.296V76.688ZM69.8154 76.304H70.8874V80.64H69.8154V76.304ZM68.3754 80.832C69.1594 80.832 69.778 80.96 70.2314 81.216C70.6847 81.4667 70.9114 81.816 70.9114 82.264C70.9114 82.7227 70.6847 83.0773 70.2314 83.328C69.778 83.584 69.1594 83.712 68.3754 83.712C67.5914 83.712 66.9727 83.584 66.5194 83.328C66.066 83.0773 65.8394 82.7227 65.8394 82.264C65.8394 81.816 66.066 81.4667 66.5194 81.216C66.9727 80.96 67.5914 80.832 68.3754 80.832ZM68.3754 81.656C68.0554 81.656 67.786 81.6773 67.5674 81.72C67.3487 81.7627 67.1807 81.832 67.0634 81.928C66.9514 82.0187 66.8954 82.1307 66.8954 82.264C66.8954 82.4027 66.9514 82.52 67.0634 82.616C67.1807 82.7067 67.3487 82.776 67.5674 82.824C67.786 82.8667 68.0554 82.888 68.3754 82.888C68.6954 82.888 68.9647 82.8667 69.1834 82.824C69.402 82.776 69.5674 82.7067 69.6794 82.616C69.7914 82.52 69.8474 82.4027 69.8474 82.264C69.8474 82.1307 69.7914 82.0187 69.6794 81.928C69.5674 81.832 69.402 81.7627 69.1834 81.72C68.9647 81.6773 68.6954 81.656 68.3754 81.656ZM68.4634 77.648H69.9754V78.512H68.4634V77.648Z"
                  fill="black"/>
        </g>
        <g id="chungyang" class="region">
            <path class="shape" d="M70.5 95.7002L78.7 94.1003L83.4 84.4002L84.3 84.8002L89.9 85.4002L92.7 79.0002L99.3 80.6003L98.5 93.2002L101.3 96.9002L108.7 95.2002L115.5 105.1L109 115.8L102.6 119L95.8 117.6L90.9 111.1L92.7 107.6L85.4 113L77.1 109.3L70.5 95.7002Z"
                  fill="#AFD88C" stroke="white" stroke-width="0.5"/>
            <path class="label" d="M84.984 98.6H85.848V98.864C85.848 99.296 85.7733 99.704 85.624 100.088C85.4747 100.472 85.2453 100.805 84.936 101.088C84.632 101.371 84.2453 101.581 83.776 101.72L83.272 100.896C83.672 100.779 83.9973 100.616 84.248 100.408C84.504 100.195 84.6907 99.9547 84.808 99.688C84.9253 99.416 84.984 99.1413 84.984 98.864V98.6ZM85.184 98.6H86.048V98.864C86.048 99.056 86.08 99.2453 86.144 99.432C86.2133 99.6187 86.3173 99.7947 86.456 99.96C86.6 100.125 86.7813 100.272 87 100.4C87.2187 100.528 87.4747 100.632 87.768 100.712L87.288 101.544C86.8187 101.416 86.4267 101.221 86.112 100.96C85.8027 100.693 85.5707 100.379 85.416 100.016C85.2613 99.6533 85.184 99.2693 85.184 98.864V98.6ZM83.528 98.064H87.512V98.904H83.528V98.064ZM84.984 97.272H86.048V98.4H84.984V97.272ZM87.304 99.272H88.712V100.128H87.304V99.272ZM88.456 97.304H89.528V101.776H88.456V97.304ZM87.016 101.896C87.8 101.896 88.4187 102.019 88.872 102.264C89.3253 102.509 89.552 102.856 89.552 103.304C89.552 103.747 89.3253 104.091 88.872 104.336C88.4187 104.587 87.8 104.712 87.016 104.712C86.232 104.712 85.6133 104.587 85.16 104.336C84.7067 104.091 84.48 103.747 84.48 103.304C84.48 102.856 84.7067 102.509 85.16 102.264C85.6133 102.019 86.232 101.896 87.016 101.896ZM87.016 102.712C86.696 102.712 86.424 102.733 86.2 102.776C85.9813 102.819 85.816 102.885 85.704 102.976C85.592 103.061 85.536 103.171 85.536 103.304C85.536 103.432 85.592 103.541 85.704 103.632C85.816 103.723 85.9813 103.789 86.2 103.832C86.424 103.875 86.696 103.896 87.016 103.896C87.3413 103.896 87.6133 103.875 87.832 103.832C88.0507 103.789 88.2133 103.723 88.32 103.632C88.432 103.541 88.488 103.432 88.488 103.304C88.488 103.171 88.432 103.061 88.32 102.976C88.2133 102.885 88.0507 102.819 87.832 102.776C87.6133 102.733 87.3413 102.712 87.016 102.712ZM96.1914 98.208H97.4634V99.072H96.1914V98.208ZM96.1914 99.816H97.4634V100.688H96.1914V99.816ZM92.7434 97.704C93.1274 97.704 93.4714 97.7813 93.7754 97.936C94.0794 98.0907 94.3194 98.304 94.4954 98.576C94.6714 98.8427 94.7594 99.152 94.7594 99.504C94.7594 99.8507 94.6714 100.16 94.4954 100.432C94.3194 100.699 94.0794 100.909 93.7754 101.064C93.4714 101.219 93.1274 101.296 92.7434 101.296C92.3647 101.296 92.0234 101.219 91.7194 101.064C91.4154 100.909 91.1754 100.699 90.9994 100.432C90.8234 100.16 90.7354 99.8507 90.7354 99.504C90.7354 99.152 90.8234 98.8427 90.9994 98.576C91.1754 98.304 91.4154 98.0907 91.7194 97.936C92.0234 97.7813 92.3647 97.704 92.7434 97.704ZM92.7434 98.592C92.562 98.592 92.3967 98.6293 92.2474 98.704C92.098 98.7733 91.9807 98.8773 91.8954 99.016C91.8154 99.1493 91.7754 99.312 91.7754 99.504C91.7754 99.6907 91.8154 99.8533 91.8954 99.992C91.9807 100.125 92.098 100.227 92.2474 100.296C92.3967 100.365 92.562 100.4 92.7434 100.4C92.9354 100.4 93.1034 100.365 93.2474 100.296C93.3914 100.227 93.506 100.125 93.5914 99.992C93.6767 99.8533 93.7194 99.6907 93.7194 99.504C93.7194 99.312 93.6767 99.1493 93.5914 99.016C93.506 98.8773 93.3914 98.7733 93.2474 98.704C93.1034 98.6293 92.9354 98.592 92.7434 98.592ZM95.4474 97.304H96.5114V101.624H95.4474V97.304ZM94.0954 101.776C94.6074 101.776 95.05 101.835 95.4234 101.952C95.802 102.069 96.0927 102.237 96.2954 102.456C96.498 102.675 96.5994 102.939 96.5994 103.248C96.5994 103.552 96.498 103.813 96.2954 104.032C96.0927 104.251 95.802 104.419 95.4234 104.536C95.05 104.653 94.6074 104.712 94.0954 104.712C93.5834 104.712 93.138 104.653 92.7594 104.536C92.386 104.419 92.0954 104.251 91.8874 104.032C91.6847 103.813 91.5834 103.552 91.5834 103.248C91.5834 102.939 91.6847 102.675 91.8874 102.456C92.0954 102.237 92.386 102.069 92.7594 101.952C93.138 101.835 93.5834 101.776 94.0954 101.776ZM94.0954 102.616C93.7807 102.616 93.5167 102.64 93.3034 102.688C93.09 102.731 92.9274 102.797 92.8154 102.888C92.7034 102.979 92.6474 103.099 92.6474 103.248C92.6474 103.387 92.7034 103.504 92.8154 103.6C92.9274 103.696 93.09 103.768 93.3034 103.816C93.5167 103.859 93.7807 103.88 94.0954 103.88C94.41 103.88 94.674 103.859 94.8874 103.816C95.106 103.768 95.2687 103.696 95.3754 103.6C95.4874 103.504 95.5434 103.387 95.5434 103.248C95.5434 103.099 95.4874 102.979 95.3754 102.888C95.2687 102.797 95.106 102.731 94.8874 102.688C94.674 102.64 94.41 102.616 94.0954 102.616Z"
                  fill="black"/>
        </g>
        <g id="seocheon" class="region">
            <path class="shape" d="M58.5004 140L69.5004 140.4L72.7004 138.2L85.5004 139.8V146.7L91.3004 149.8L90.9004 152.9L95.2004 156.9L94.4004 158.6L79.5004 164L76.9004 167.9H76.8004L76.0004 167.8L68.7004 166.9L69.4004 162.9L63.2004 155.6L66.5004 153.1L62.4004 152.6L57.0004 145.7L49.1004 144L47.4004 146.7L51.3004 138.5L58.5004 140Z"
                  fill="#AFD88C" stroke="white" stroke-width="0.5"/>
            <path class="label" d="M73.064 149.616H75.016V150.472H73.064V149.616ZM71.048 147.864H71.904V148.944C71.904 149.408 71.864 149.859 71.784 150.296C71.704 150.733 71.5813 151.141 71.416 151.52C71.2507 151.899 71.04 152.232 70.784 152.52C70.5333 152.808 70.2347 153.04 69.888 153.216L69.224 152.368C69.5387 152.219 69.808 152.024 70.032 151.784C70.2613 151.544 70.4507 151.272 70.6 150.968C70.7547 150.659 70.8667 150.333 70.936 149.992C71.0107 149.645 71.048 149.296 71.048 148.944V147.864ZM71.264 147.864H72.112V148.944C72.112 149.291 72.1467 149.635 72.216 149.976C72.2853 150.312 72.3893 150.627 72.528 150.92C72.672 151.213 72.856 151.475 73.08 151.704C73.304 151.928 73.5707 152.109 73.88 152.248L73.24 153.096C72.8933 152.925 72.5947 152.701 72.344 152.424C72.0933 152.141 71.888 151.819 71.728 151.456C71.5733 151.093 71.456 150.699 71.376 150.272C71.3013 149.845 71.264 149.403 71.264 148.944V147.864ZM74.48 147.288H75.544V154.72H74.48V147.288ZM78.3434 148.752H79.2154V149.032C79.2154 149.485 79.1407 149.912 78.9914 150.312C78.842 150.712 78.6154 151.061 78.3114 151.36C78.0074 151.659 77.6207 151.885 77.1514 152.04L76.6314 151.208C77.0314 151.08 77.3567 150.904 77.6074 150.68C77.8634 150.451 78.05 150.195 78.1674 149.912C78.2847 149.624 78.3434 149.331 78.3434 149.032V148.752ZM78.5434 148.752H79.4074V149.032C79.4074 149.309 79.466 149.584 79.5834 149.856C79.706 150.123 79.8954 150.365 80.1514 150.584C80.4074 150.797 80.7327 150.963 81.1274 151.08L80.6234 151.912C80.154 151.773 79.7647 151.563 79.4554 151.28C79.1514 150.992 78.922 150.656 78.7674 150.272C78.618 149.883 78.5434 149.469 78.5434 149.032V148.752ZM76.8874 148.176H80.8714V149.008H76.8874V148.176ZM78.3434 147.352H79.4074V148.488H78.3434V147.352ZM80.6314 149.456H82.3514V150.32H80.6314V149.456ZM81.8154 147.304H82.8874V152.784H81.8154V147.304ZM77.9914 153.728H83.0554V154.584H77.9914V153.728ZM77.9914 152.328H79.0554V154.288H77.9914V152.328Z"
                  fill="black"/>
        </g>
        <g id="buyeo" class="region">
            <path class="shape" d="M72.6992 138.2L77.9992 127.9L73.0992 125.9L71.1992 116.7L77.0992 109.3L85.3992 113L92.6992 107.6L90.8992 111.1L95.7992 117.6L102.599 119L108.999 115.8L110.899 121.4L120.099 124.9L109.699 136.4L112.499 144.7L106.199 143.7L96.6992 148L95.2992 156.9L90.9992 152.9L91.2992 149.7L85.4992 146.6V139.8L72.6992 138.2Z"
                  fill="#AFD88C" stroke="white" stroke-width="0.5"/>
            <path class="label" d="M88.328 133.56H95.032V134.4H88.328V133.56ZM91.12 133.984H92.184V136.712H91.12V133.984ZM89.088 129.584H90.144V130.424H93.192V129.584H94.24V132.856H89.088V129.584ZM90.144 131.256V132.016H93.192V131.256H90.144ZM98.9994 130.808H101.015V131.664H98.9994V130.808ZM98.9994 133.112H101.015V133.968H98.9994V133.112ZM97.7114 129.808C98.0794 129.808 98.4074 129.917 98.6954 130.136C98.9887 130.349 99.2154 130.656 99.3754 131.056C99.5407 131.451 99.6234 131.917 99.6234 132.456C99.6234 133 99.5407 133.472 99.3754 133.872C99.2154 134.267 98.9887 134.573 98.6954 134.792C98.4074 135.005 98.0794 135.112 97.7114 135.112C97.3434 135.112 97.0154 135.005 96.7274 134.792C96.4394 134.573 96.2127 134.267 96.0474 133.872C95.882 133.472 95.7994 133 95.7994 132.456C95.7994 131.917 95.882 131.451 96.0474 131.056C96.2127 130.656 96.4394 130.349 96.7274 130.136C97.0154 129.917 97.3434 129.808 97.7114 129.808ZM97.7114 130.776C97.5354 130.776 97.378 130.84 97.2394 130.968C97.106 131.096 96.9994 131.285 96.9194 131.536C96.8447 131.781 96.8074 132.088 96.8074 132.456C96.8074 132.819 96.8447 133.128 96.9194 133.384C96.9994 133.635 97.106 133.824 97.2394 133.952C97.378 134.08 97.5354 134.144 97.7114 134.144C97.898 134.144 98.058 134.08 98.1914 133.952C98.3247 133.824 98.4287 133.635 98.5034 133.384C98.578 133.128 98.6154 132.819 98.6154 132.456C98.6154 132.088 98.578 131.781 98.5034 131.536C98.4287 131.285 98.3247 131.096 98.1914 130.968C98.058 130.84 97.898 130.776 97.7114 130.776ZM100.839 129.288H101.903V136.72H100.839V129.288Z"
                  fill="black"/>
        </g>
        <g id="geumsan" class="region">
            <path class="shape" d="M158.9 125.8L160.9 128.6L165.3 135.8L168.6 137.6L174.2 131.1L179.7 129.1L180.8 133.1L185.7 132.2L187.5 139.4L186.4 147.3L192.6 157.6L190.2 162.2L192.8 163.3L189.2 164.4L189.6 168.2L179.1 162L178.2 170.7H169.4L166.8 163.7L162.5 167L159.4 164.8L156.5 150.6L152.6 147.9L153.8 139.6L157.9 134.1L158.9 125.8Z"
                  fill="#AFD88C" stroke="white" stroke-width="0.5"/>
            <path class="label" d="M166.152 146.632H170.84V147.472H166.152V146.632ZM165.328 149.296H172.04V150.136H165.328V149.296ZM170.2 146.632H171.248V147.224C171.248 147.539 171.24 147.877 171.224 148.24C171.208 148.603 171.144 149.024 171.032 149.504L169.968 149.496C170.085 149.011 170.152 148.589 170.168 148.232C170.189 147.875 170.2 147.539 170.2 147.224V146.632ZM166.112 150.912H171.216V153.632H166.112V150.912ZM170.176 151.744H167.16V152.792H170.176V151.744ZM174.343 146.752H175.223V147.552C175.223 148.043 175.146 148.504 174.991 148.936C174.842 149.363 174.613 149.736 174.303 150.056C173.999 150.376 173.61 150.616 173.135 150.776L172.567 149.952C172.989 149.813 173.33 149.621 173.591 149.376C173.853 149.125 174.042 148.843 174.159 148.528C174.282 148.208 174.343 147.883 174.343 147.552V146.752ZM174.559 146.752H175.423V147.56C175.423 147.795 175.455 148.027 175.519 148.256C175.583 148.48 175.685 148.693 175.823 148.896C175.962 149.093 176.138 149.272 176.351 149.432C176.565 149.587 176.821 149.712 177.119 149.808L176.575 150.64C176.111 150.485 175.73 150.256 175.431 149.952C175.138 149.643 174.919 149.283 174.775 148.872C174.631 148.461 174.559 148.024 174.559 147.56V146.752ZM177.447 146.304H178.511V151.72H177.447V146.304ZM178.215 148.448H179.495V149.32H178.215V148.448ZM173.743 152.728H178.775V153.584H173.743V152.728ZM173.743 151.2H174.815V153.184H173.743V151.2Z"
                  fill="black"/>
        </g>
        <g id="dangjin" class="region">
            <path class="shape" d="M59.8996 37.4002L52.9996 38.6002L50.5996 31.6002L46.1996 29.9002L45.0996 10.9002V10.8002L49.5996 1.2002L65.6996 11.0002L77.4996 13.0002L84.6996 16.9002L89.0996 25.8002L88.9996 25.9002L92.6996 29.9002L92.4996 30.9002L92.3996 31.6002L92.0996 33.5002L91.9996 34.2002L91.8996 34.8002L94.3996 44.0002L91.3996 45.2002L83.3996 50.9002L74.3996 42.6002L68.5996 46.8002L59.8996 37.4002Z"
                  fill="#AFD88C" stroke="white" stroke-width="0.5"/>
            <path class="label" d="M67.096 21.296H68.168V25.576H67.096V21.296ZM67.864 23.048H69.136V23.92H67.864V23.048ZM65.736 25.704C66.248 25.704 66.6907 25.7653 67.064 25.888C67.4373 26.0107 67.7253 26.184 67.928 26.408C68.136 26.6267 68.24 26.8933 68.24 27.208C68.24 27.5227 68.136 27.792 67.928 28.016C67.7253 28.2453 67.4373 28.4187 67.064 28.536C66.6907 28.6587 66.248 28.72 65.736 28.72C65.2293 28.72 64.7867 28.6587 64.408 28.536C64.0293 28.4187 63.736 28.2453 63.528 28.016C63.3253 27.792 63.224 27.5227 63.224 27.208C63.224 26.8933 63.3253 26.6267 63.528 26.408C63.736 26.184 64.0293 26.0107 64.408 25.888C64.7867 25.7653 65.2293 25.704 65.736 25.704ZM65.736 26.552C65.4213 26.552 65.1573 26.576 64.944 26.624C64.7307 26.672 64.5653 26.744 64.448 26.84C64.336 26.936 64.28 27.0587 64.28 27.208C64.28 27.352 64.336 27.4747 64.448 27.576C64.5653 27.672 64.7307 27.744 64.944 27.792C65.1573 27.84 65.4213 27.864 65.736 27.864C66.0507 27.864 66.3147 27.84 66.528 27.792C66.7467 27.744 66.912 27.672 67.024 27.576C67.136 27.4747 67.192 27.352 67.192 27.208C67.192 27.0587 67.136 26.936 67.024 26.84C66.912 26.744 66.7467 26.672 66.528 26.624C66.3147 26.576 66.0507 26.552 65.736 26.552ZM62.576 24.336H63.2C63.744 24.336 64.208 24.3307 64.592 24.32C64.976 24.3093 65.32 24.288 65.624 24.256C65.928 24.2187 66.2293 24.168 66.528 24.104L66.632 24.952C66.328 25.016 66.0187 25.0667 65.704 25.104C65.3893 25.136 65.032 25.16 64.632 25.176C64.2373 25.1867 63.76 25.192 63.2 25.192H62.576V24.336ZM62.576 21.792H65.896V22.648H63.64V24.92H62.576V21.792ZM71.4794 22.128H72.3594V22.752C72.3594 23.216 72.282 23.6587 72.1274 24.08C71.978 24.496 71.7487 24.8613 71.4394 25.176C71.13 25.4853 70.7354 25.7173 70.2554 25.872L69.7114 25.04C70.1274 24.9067 70.4634 24.72 70.7194 24.48C70.9807 24.24 71.1727 23.9707 71.2954 23.672C71.418 23.368 71.4794 23.0613 71.4794 22.752V22.128ZM71.7034 22.128H72.5674V22.752C72.5674 22.9707 72.602 23.1893 72.6714 23.408C72.7407 23.6213 72.8447 23.8267 72.9834 24.024C73.1274 24.216 73.3087 24.3893 73.5274 24.544C73.746 24.6987 74.0047 24.824 74.3034 24.92L73.7674 25.744C73.3034 25.5947 72.9194 25.3707 72.6154 25.072C72.3114 24.7733 72.082 24.424 71.9274 24.024C71.778 23.6187 71.7034 23.1947 71.7034 22.752V22.128ZM69.9994 21.824H74.0314V22.672H69.9994V21.824ZM74.7754 21.304H75.8394V26.648H74.7754V21.304ZM70.9034 27.728H76.0314V28.584H70.9034V27.728ZM70.9034 26.168H71.9674V28.152H70.9034V26.168Z"
                  fill="black"/>
        </g>
        <g id="gyeoryong" class="region">
            <path class="shape" d="M147.399 129.9L142.999 132.1L139.799 127.3L137.299 129L136.699 116L138.099 113.8L144.699 117.1L142.999 122.8L148.699 127L147.399 129.9Z"
                  fill="#AFD88C" stroke="white" stroke-width="0.5"/>
            <path class="label" d="M138.813 124.443H139.431V124.79H138.813V124.443ZM138.797 125.205H139.421V125.555H138.797V125.205ZM139.846 123.635H140.265V126.69H139.846V123.635ZM139.219 123.701H139.629V126.555H139.219V123.701ZM138.53 123.994H138.949C138.949 124.285 138.915 124.555 138.846 124.806C138.78 125.055 138.666 125.283 138.503 125.492C138.343 125.701 138.12 125.89 137.837 126.057L137.589 125.75C137.82 125.611 138.004 125.461 138.14 125.298C138.279 125.133 138.378 124.951 138.437 124.753C138.499 124.553 138.53 124.33 138.53 124.083V123.994ZM137.764 123.994H138.675V124.347H137.764V123.994ZM140.671 125.242H143.436V125.582H140.671V125.242ZM141.008 123.707H143.1V124.526H141.447V124.862H141.014V124.215H142.668V124.04H141.008V123.707ZM141.014 124.707H143.159V125.04H141.014V124.707ZM142.044 125.714C142.385 125.714 142.649 125.755 142.836 125.839C143.023 125.923 143.116 126.046 143.116 126.209C143.116 126.367 143.023 126.488 142.836 126.572C142.649 126.655 142.385 126.697 142.044 126.697C141.705 126.697 141.441 126.655 141.252 126.572C141.065 126.488 140.971 126.366 140.971 126.205C140.971 126.045 141.065 125.923 141.252 125.839C141.441 125.755 141.705 125.714 142.044 125.714ZM142.047 126.034C141.832 126.034 141.672 126.048 141.569 126.077C141.467 126.103 141.417 126.146 141.417 126.205C141.417 126.245 141.439 126.278 141.483 126.304C141.529 126.328 141.598 126.347 141.691 126.36C141.783 126.371 141.901 126.377 142.044 126.377C142.189 126.377 142.308 126.371 142.4 126.36C142.495 126.347 142.564 126.328 142.608 126.304C142.652 126.278 142.674 126.245 142.674 126.205C142.674 126.146 142.624 126.103 142.522 126.077C142.421 126.048 142.263 126.034 142.047 126.034ZM141.377 124.882H141.81V125.466H141.377V124.882ZM142.318 124.882H142.75V125.466H142.318V124.882Z"
                  fill="black"/>
        </g>
        <g id="nonsan" class="region">
            <path class="shape" d="M120.099 124.9L125.299 115L129.699 120.6L136.699 116L137.299 129L139.799 127.3L142.999 132.1L147.399 129.9L153.799 139.6L152.599 147.9L143.599 150.7L143.199 155.3L137.799 152.6L129.399 154.5L128.299 158L119.399 154.3L117.399 145.4L112.499 144.7L109.699 136.4L120.099 124.9Z"
                  fill="#AFD88C" stroke="white" stroke-width="0.5"/>
            <path class="label" d="M125.168 137.28H130.28V138.128H125.168V137.28ZM125.168 135.504H126.224V137.624H125.168V135.504ZM124.336 139.008H131.032V139.864H124.336V139.008ZM127.152 137.792H128.216V139.264H127.152V137.792ZM125.112 141.728H130.336V142.584H125.112V141.728ZM125.112 140.312H126.176V142.16H125.112V140.312ZM133.343 135.752H134.223V136.552C134.223 137.043 134.146 137.504 133.991 137.936C133.842 138.363 133.613 138.736 133.303 139.056C132.999 139.376 132.61 139.616 132.135 139.776L131.567 138.952C131.989 138.813 132.33 138.621 132.591 138.376C132.853 138.125 133.042 137.843 133.159 137.528C133.282 137.208 133.343 136.883 133.343 136.552V135.752ZM133.559 135.752H134.423V136.56C134.423 136.795 134.455 137.027 134.519 137.256C134.583 137.48 134.685 137.693 134.823 137.896C134.962 138.093 135.138 138.272 135.351 138.432C135.565 138.587 135.821 138.712 136.119 138.808L135.575 139.64C135.111 139.485 134.73 139.256 134.431 138.952C134.138 138.643 133.919 138.283 133.775 137.872C133.631 137.461 133.559 137.024 133.559 136.56V135.752ZM136.447 135.304H137.511V140.72H136.447V135.304ZM137.215 137.448H138.495V138.32H137.215V137.448ZM132.743 141.728H137.775V142.584H132.743V141.728ZM132.743 140.2H133.815V142.184H132.743V140.2Z"
                  fill="black"/>
        </g>
        <g id="seosan" class="region">
            <path class="shape" d="M39.8 8.1001L40.4 8.80009L45.1 10.7001V10.8001L45.8 12.1001L46.1 29.8001L50.5 31.5001L52.9 38.5001L59.8 37.3001L68.6 46.6001L68.5 50.4001L66 49.2001L60.3 63.9001L38.6 72.9001L33 70.6001L29.6 56.3001V50.2001L31.4 44.2001L28.6 40.1001L26.7 36.3001L26.5 35.7001L27.4 33.5001L29.7 32.6001L32.4 37.8001V30.6001L36.3 28.7001L41.2 26.7001L38 25.4001L39.5 20.8001L31.5 20.2001L28.6 16.9001L35.7 15.9001L27.9 11.3001L31.6 9.4001L39.8 8.1001Z"
                  fill="#AFD88C" stroke="white" stroke-width="0.5"/>
            <path class="label" d="M41.064 50.616H43.016V51.472H41.064V50.616ZM39.048 48.864H39.904V49.944C39.904 50.408 39.864 50.8587 39.784 51.296C39.704 51.7333 39.5813 52.1413 39.416 52.52C39.2507 52.8987 39.04 53.232 38.784 53.52C38.5333 53.808 38.2347 54.04 37.888 54.216L37.224 53.368C37.5387 53.2187 37.808 53.024 38.032 52.784C38.2613 52.544 38.4507 52.272 38.6 51.968C38.7547 51.6587 38.8667 51.3333 38.936 50.992C39.0107 50.6453 39.048 50.296 39.048 49.944V48.864ZM39.264 48.864H40.112V49.944C40.112 50.2907 40.1467 50.6347 40.216 50.976C40.2853 51.312 40.3893 51.6267 40.528 51.92C40.672 52.2133 40.856 52.4747 41.08 52.704C41.304 52.928 41.5707 53.1093 41.88 53.248L41.24 54.096C40.8933 53.9253 40.5947 53.7013 40.344 53.424C40.0933 53.1413 39.888 52.8187 39.728 52.456C39.5733 52.0933 39.456 51.6987 39.376 51.272C39.3013 50.8453 39.264 50.4027 39.264 49.944V48.864ZM42.48 48.288H43.544V55.72H42.48V48.288ZM46.3434 48.752H47.2234V49.552C47.2234 50.0427 47.146 50.504 46.9914 50.936C46.842 51.3627 46.6127 51.736 46.3034 52.056C45.9994 52.376 45.61 52.616 45.1354 52.776L44.5674 51.952C44.9887 51.8133 45.33 51.6213 45.5914 51.376C45.8527 51.1253 46.042 50.8427 46.1594 50.528C46.282 50.208 46.3434 49.8827 46.3434 49.552V48.752ZM46.5594 48.752H47.4234V49.56C47.4234 49.7947 47.4554 50.0267 47.5194 50.256C47.5834 50.48 47.6847 50.6933 47.8234 50.896C47.962 51.0933 48.138 51.272 48.3514 51.432C48.5647 51.5867 48.8207 51.712 49.1194 51.808L48.5754 52.64C48.1114 52.4853 47.73 52.256 47.4314 51.952C47.138 51.6427 46.9194 51.2827 46.7754 50.872C46.6314 50.4613 46.5594 50.024 46.5594 49.56V48.752ZM49.4474 48.304H50.5114V53.72H49.4474V48.304ZM50.2154 50.448H51.4954V51.32H50.2154V50.448ZM45.7434 54.728H50.7754V55.584H45.7434V54.728ZM45.7434 53.2H46.8154V55.184H45.7434V53.2Z"
                  fill="black"/>
        </g>
        <g id="asan" class="region">
            <path class="shape" d="M106.8 24.1004L121.6 21.4004L124.1 25.5004L126.5 45.2004L122.1 57.2004L113.3 65.6004L109.3 66.0004L108 61.9004L95.4 54.0004L91.5 45.1004L94.5 43.9004L92 34.7004L92.1 34.1004L92.6 30.8004L92.8 29.8004L95.3 30.4004L95.9 30.0004L97.5 29.4004L101 27.1004L104.7 24.7004L106.8 24.1004Z"
                  fill="#AFD88C" stroke="white" stroke-width="0.5"/>
            <path class="label" d="M104.312 36.808C104.691 36.808 105.024 36.9173 105.312 37.136C105.605 37.3493 105.835 37.656 106 38.056C106.171 38.4507 106.256 38.9173 106.256 39.456C106.256 40 106.171 40.472 106 40.872C105.835 41.2667 105.605 41.5733 105.312 41.792C105.024 42.0053 104.691 42.112 104.312 42.112C103.933 42.112 103.597 42.0053 103.304 41.792C103.011 41.5733 102.779 41.2667 102.608 40.872C102.443 40.472 102.36 40 102.36 39.456C102.36 38.9173 102.443 38.4507 102.608 38.056C102.779 37.656 103.011 37.3493 103.304 37.136C103.597 36.9173 103.933 36.808 104.312 36.808ZM104.312 37.776C104.131 37.776 103.968 37.84 103.824 37.968C103.685 38.096 103.576 38.2853 103.496 38.536C103.421 38.7813 103.384 39.088 103.384 39.456C103.384 39.8187 103.421 40.128 103.496 40.384C103.576 40.6347 103.685 40.824 103.824 40.952C103.968 41.08 104.131 41.144 104.312 41.144C104.493 41.144 104.653 41.08 104.792 40.952C104.931 40.824 105.037 40.6347 105.112 40.384C105.192 40.128 105.232 39.8187 105.232 39.456C105.232 39.088 105.192 38.7813 105.112 38.536C105.037 38.2853 104.931 38.096 104.792 37.968C104.653 37.84 104.493 37.776 104.312 37.776ZM107.056 36.304H108.128V43.712H107.056V36.304ZM107.896 39.096H109.2V39.968H107.896V39.096ZM111.343 36.752H112.223V37.552C112.223 38.0427 112.146 38.504 111.991 38.936C111.842 39.3627 111.613 39.736 111.303 40.056C110.999 40.376 110.61 40.616 110.135 40.776L109.567 39.952C109.989 39.8133 110.33 39.6213 110.591 39.376C110.853 39.1253 111.042 38.8427 111.159 38.528C111.282 38.208 111.343 37.8827 111.343 37.552V36.752ZM111.559 36.752H112.423V37.56C112.423 37.7947 112.455 38.0267 112.519 38.256C112.583 38.48 112.685 38.6933 112.823 38.896C112.962 39.0933 113.138 39.272 113.351 39.432C113.565 39.5867 113.821 39.712 114.119 39.808L113.575 40.64C113.111 40.4853 112.73 40.256 112.431 39.952C112.138 39.6427 111.919 39.2827 111.775 38.872C111.631 38.4613 111.559 38.024 111.559 37.56V36.752ZM114.447 36.304H115.511V41.72H114.447V36.304ZM115.215 38.448H116.495V39.32H115.215V38.448ZM110.743 42.728H115.775V43.584H110.743V42.728ZM110.743 41.2H111.815V43.184H110.743V41.2Z"
                  fill="black"/>
        </g>
        <g id="boyeong" class="region">
            <path class="shape" d="M40.9 108.9L43.4 112L43.3 112.1L40.1 111L34 108.8L34.2 108.3L35.6 108L38.6 107.6H40.4L40.9 108.9ZM50.1 118.9L49.2 116L50.6 115.8L59.8 113.8L49.7 107.1L46.1 107.5L48.2 101.1L52.8 98.8002L48.6 100L46.8 87.2002L49.5 85.0002L51.7 86.0002L54.6 88.4002H55L56 88.6003L56.7 88.2002L60.7 88.5002L61.8 92.8002L62 93.4002L63 92.5002L63.4 91.9002L70.6 95.6003L77.2 109.2L71.3 116.5L73.2 125.7L78.2 127.7L72.8 138L69.6 140.2L58.6 139.8L52.2 137.4L52.4 130.1L54.7 126L50.1 118.9Z"
                  fill="#AFD88C" stroke="white" stroke-width="0.5"/>
            <path class="label" d="M54.328 106.984H61.04V107.848H54.328V106.984ZM57.144 105.4H58.2V107.192H57.144V105.4ZM55.032 101.768H56.096V102.912H59.248V101.768H60.304V105.624H55.032V101.768ZM56.096 103.744V104.776H59.248V103.744H56.096ZM61.9674 104.728H62.5274C62.9914 104.728 63.3887 104.725 63.7194 104.72C64.0554 104.709 64.362 104.693 64.6394 104.672C64.9167 104.645 65.1914 104.605 65.4634 104.552L65.5754 105.392C65.3567 105.435 65.1407 105.469 64.9274 105.496C64.7194 105.517 64.4954 105.536 64.2554 105.552C64.0207 105.563 63.762 105.571 63.4794 105.576C63.202 105.576 62.8847 105.576 62.5274 105.576H61.9674V104.728ZM61.9514 101.688H65.2074V103.992H63.0234V105.352H61.9674V103.208H64.1514V102.528H61.9514V101.688ZM66.8154 101.304H67.8874V105.808H66.8154V101.304ZM65.6394 102.288H67.0154V103.136H65.6394V102.288ZM65.6394 103.816H67.0154V104.672H65.6394V103.816ZM65.3834 105.928C66.1727 105.928 66.7914 106.051 67.2394 106.296C67.6927 106.541 67.9194 106.885 67.9194 107.328C67.9194 107.776 67.6927 108.123 67.2394 108.368C66.7914 108.613 66.1727 108.736 65.3834 108.736C64.594 108.736 63.9727 108.613 63.5194 108.368C63.066 108.123 62.8394 107.776 62.8394 107.328C62.8394 106.885 63.066 106.541 63.5194 106.296C63.9727 106.051 64.594 105.928 65.3834 105.928ZM65.3834 106.728C65.058 106.728 64.786 106.752 64.5674 106.8C64.3487 106.843 64.1834 106.909 64.0714 107C63.9594 107.085 63.9034 107.195 63.9034 107.328C63.9034 107.467 63.9594 107.581 64.0714 107.672C64.1834 107.763 64.3487 107.829 64.5674 107.872C64.786 107.915 65.058 107.936 65.3834 107.936C65.7087 107.936 65.9807 107.915 66.1994 107.872C66.418 107.829 66.5807 107.763 66.6874 107.672C66.7994 107.581 66.8554 107.467 66.8554 107.328C66.8554 107.195 66.7994 107.085 66.6874 107C66.5807 106.909 66.418 106.843 66.1994 106.8C65.9807 106.752 65.7087 106.728 65.3834 106.728Z"
                  fill="black"/>
        </g>
        <g id="gongju" class="region">
            <path class="shape" d="M108 61.9001L109.3 66.0002L113.3 65.6002L122.3 67.9001L126.1 65.2001L131 71.4001L138.2 77.9001L133.4 88.7001L137.1 99.5002L143.6 104.7L147.6 103.5L144.7 117.1L138.1 113.8L136.7 116L129.7 120.6L125.3 115L120.1 124.9L110.9 121.4L109 115.8L115.5 105.1L108.7 95.2001L101.3 96.9001L98.5 93.2001L99.3 80.6002L108 61.9001Z"
                  fill="#AFD88C" stroke="white" stroke-width="0.5"/>
            <path class="label" d="M118.632 89.912C119.165 89.912 119.629 89.968 120.024 90.08C120.419 90.192 120.723 90.352 120.936 90.56C121.155 90.768 121.264 91.0187 121.264 91.312C121.264 91.6 121.155 91.848 120.936 92.056C120.723 92.2693 120.419 92.432 120.024 92.544C119.629 92.656 119.165 92.712 118.632 92.712C118.104 92.712 117.643 92.656 117.248 92.544C116.853 92.432 116.547 92.2693 116.328 92.056C116.115 91.848 116.008 91.6 116.008 91.312C116.008 91.0187 116.115 90.768 116.328 90.56C116.547 90.352 116.853 90.192 117.248 90.08C117.643 89.968 118.104 89.912 118.632 89.912ZM118.632 90.712C118.301 90.712 118.019 90.7333 117.784 90.776C117.549 90.8187 117.371 90.8853 117.248 90.976C117.131 91.0667 117.072 91.1787 117.072 91.312C117.072 91.4453 117.131 91.5573 117.248 91.648C117.371 91.7333 117.549 91.8 117.784 91.848C118.019 91.8907 118.301 91.912 118.632 91.912C118.968 91.912 119.253 91.8907 119.488 91.848C119.723 91.8 119.901 91.7333 120.024 91.648C120.147 91.5573 120.208 91.4453 120.208 91.312C120.208 91.1787 120.147 91.0667 120.024 90.976C119.901 90.8853 119.723 90.8187 119.488 90.776C119.253 90.7333 118.968 90.712 118.632 90.712ZM116.088 85.632H120.784V86.464H116.088V85.632ZM115.344 88.608H122.008V89.448H115.344V88.608ZM117.808 87.312H118.872V88.816H117.808V87.312ZM120.16 85.632H121.224V86.24C121.224 86.5333 121.216 86.84 121.2 87.16C121.184 87.48 121.123 87.832 121.016 88.216L119.96 88.112C120.061 87.7333 120.12 87.3973 120.136 87.104C120.152 86.8107 120.16 86.5227 120.16 86.24V85.632ZM125.423 86.12H126.351V86.344C126.351 86.6 126.309 86.848 126.223 87.088C126.143 87.328 126.021 87.552 125.855 87.76C125.69 87.9627 125.487 88.1467 125.247 88.312C125.013 88.472 124.741 88.608 124.431 88.72C124.122 88.832 123.778 88.912 123.399 88.96L123.007 88.136C123.338 88.0933 123.631 88.0293 123.887 87.944C124.149 87.8533 124.375 87.7493 124.567 87.632C124.759 87.5093 124.919 87.3787 125.047 87.24C125.175 87.1013 125.269 86.9547 125.327 86.8C125.391 86.6453 125.423 86.4933 125.423 86.344V86.12ZM125.735 86.12H126.655V86.344C126.655 86.4933 126.685 86.6453 126.743 86.8C126.807 86.9547 126.903 87.1013 127.031 87.24C127.159 87.3787 127.319 87.5093 127.511 87.632C127.709 87.7493 127.935 87.8533 128.191 87.944C128.447 88.0293 128.741 88.0933 129.071 88.136L128.679 88.96C128.301 88.912 127.957 88.832 127.647 88.72C127.338 88.608 127.063 88.472 126.823 88.312C126.589 88.1467 126.389 87.9627 126.223 87.76C126.063 87.552 125.941 87.328 125.855 87.088C125.775 86.848 125.735 86.6 125.735 86.344V86.12ZM125.479 90H126.543V92.712H125.479V90ZM122.687 89.384H129.391V90.24H122.687V89.384ZM123.279 85.68H128.775V86.52H123.279V85.68Z"
                  fill="black"/>
        </g>
        <g id="cheonan" class="region">
            <path class="shape" d="M127.469 16.2598L137.769 19.2598L137.898 19.2979L137.938 19.4277L138.899 22.6025L146.878 25.2627L146.975 25.2949L147.021 25.3857L148.583 28.4121L148.769 28.5049L148.793 28.4863L148.93 28.5859L149.26 28.751L149.21 28.79L151.547 30.499L151.67 30.5889L151.646 30.7393L151.168 33.7959L162.856 43.2061L162.912 43.251L162.936 43.3174L165.235 49.8174L165.288 49.9658L163.055 52.1992L162.897 52.1289L157.266 49.6045L152.388 55.166L148.298 60.4541L148.207 60.5713L148.061 60.5479L143.061 59.748L142.992 59.7363L142.939 59.6924L136.906 54.6484L131.401 54.5518L128.591 57.3623L132.64 60.0938L132.769 60.1807L132.748 60.334L131.248 71.4346L131.169 72.0176L130.804 71.5557L126.05 65.541L122.444 68.1045L122.351 68.1719L122.238 68.1426L113.238 65.8428L112.801 65.7314L113.127 65.4199L121.885 57.0586L126.242 45.1729L123.856 25.584L121.385 21.5303L121.273 21.3477L121.438 21.209L127.237 16.3086L127.34 16.2227L127.469 16.2598Z"
                  fill="#AFD88C" stroke="white" stroke-width="0.5"/>
            <path class="label" d="M133.984 38.752H134.856V39.032C134.856 39.4853 134.781 39.912 134.632 40.312C134.483 40.712 134.256 41.0613 133.952 41.36C133.648 41.6587 133.261 41.8853 132.792 42.04L132.272 41.208C132.672 41.08 132.997 40.904 133.248 40.68C133.504 40.4507 133.691 40.1947 133.808 39.912C133.925 39.624 133.984 39.3307 133.984 39.032V38.752ZM134.184 38.752H135.048V39.032C135.048 39.3093 135.107 39.584 135.224 39.856C135.347 40.1227 135.536 40.3653 135.792 40.584C136.048 40.7973 136.373 40.9627 136.768 41.08L136.264 41.912C135.795 41.7733 135.405 41.5627 135.096 41.28C134.792 40.992 134.563 40.656 134.408 40.272C134.259 39.8827 134.184 39.4693 134.184 39.032V38.752ZM132.528 38.176H136.512V39.008H132.528V38.176ZM133.984 37.352H135.048V38.488H133.984V37.352ZM136.272 39.456H137.992V40.32H136.272V39.456ZM137.456 37.304H138.528V42.784H137.456V37.304ZM133.632 43.728H138.696V44.584H133.632V43.728ZM133.632 42.328H134.696V44.288H133.632V42.328ZM144.447 37.304H145.511V42.688H144.447V37.304ZM145.215 39.416H146.495V40.296H145.215V39.416ZM140.735 43.728H145.775V44.584H140.735V43.728ZM140.735 42.128H141.807V44.112H140.735V42.128ZM141.743 37.776C142.122 37.776 142.463 37.856 142.767 38.016C143.071 38.176 143.311 38.3973 143.487 38.68C143.669 38.9627 143.759 39.288 143.759 39.656C143.759 40.0187 143.669 40.344 143.487 40.632C143.311 40.9147 143.071 41.1387 142.767 41.304C142.463 41.464 142.122 41.544 141.743 41.544C141.365 41.544 141.023 41.464 140.719 41.304C140.415 41.1387 140.175 40.9147 139.999 40.632C139.823 40.344 139.735 40.0187 139.735 39.656C139.735 39.288 139.823 38.9627 139.999 38.68C140.175 38.3973 140.415 38.176 140.719 38.016C141.023 37.856 141.365 37.776 141.743 37.776ZM141.743 38.696C141.562 38.696 141.397 38.736 141.247 38.816C141.103 38.8907 140.989 39 140.903 39.144C140.818 39.2827 140.775 39.4533 140.775 39.656C140.775 39.8587 140.818 40.032 140.903 40.176C140.989 40.3147 141.103 40.424 141.247 40.504C141.397 40.5787 141.562 40.616 141.743 40.616C141.93 40.616 142.095 40.5787 142.239 40.504C142.389 40.424 142.506 40.3147 142.591 40.176C142.677 40.032 142.719 39.8587 142.719 39.656C142.719 39.4533 142.677 39.2827 142.591 39.144C142.506 39 142.389 38.8907 142.239 38.816C142.095 38.736 141.93 38.696 141.743 38.696Z"
                  fill="black"/>
        </g>
    </g>
</svg>
