<svg width="54" height="66" viewBox="0 0 54 66" fill="none" xmlns="http://www.w3.org/2000/svg">
<g id="daegu">
<g id="dalseong">
<path id="&#235;&#139;&#172;&#236;&#132;&#177;&#234;&#181;&#176;" d="M17.4004 32.7001L26.6004 39.3L30.7004 33.8L31.2004 33.6001L34.8004 34.1001L42.7004 36.5001L44.2004 43.7001L35.4004 50.3L33.9004 44.7001L23.2004 48.8L23.5004 53.4001L20.6004 60.2001L3.5004 64.8L7.30038 60.4001L0.900391 50.3L11.1004 50.1001L4.80038 41.5001L9.5004 33.8L17.4004 32.7001ZM6.6004 19.6001L13.6004 12.8L16.4004 14.1001L15.6004 19.8L20.1004 20.8L22.8004 21.3L22.0004 24.2001L17.2004 24.5001L16.1004 29.9001L5.1004 27.2001L6.6004 19.6001Z" fill="#AFD88C" stroke="white" stroke-width="0.5"/>
<path id="&#235;&#139;&#172;&#236;&#132;&#177;" d="M16.216 44.494H16.447C16.641 44.494 16.809 44.492 16.951 44.488C17.093 44.482 17.223 44.473 17.341 44.461C17.461 44.447 17.579 44.428 17.695 44.404L17.737 44.713C17.617 44.739 17.496 44.759 17.374 44.773C17.252 44.787 17.117 44.797 16.969 44.803C16.821 44.807 16.647 44.809 16.447 44.809H16.216V44.494ZM16.216 43.63H17.461V43.942H16.615V44.671H16.216V43.63ZM17.908 43.486H18.307V44.866H17.908V43.486ZM18.199 44.011H18.676V44.335H18.199V44.011ZM16.474 44.983H18.307V45.748H16.873V46.081H16.477V45.457H17.914V45.295H16.474V44.983ZM16.477 45.922H18.388V46.237H16.477V45.922ZM19.5278 43.633H19.8578V43.879C19.8578 44.065 19.8288 44.24 19.7708 44.404C19.7148 44.568 19.6288 44.711 19.5128 44.833C19.3968 44.955 19.2478 45.047 19.0658 45.109L18.8558 44.788C19.0158 44.738 19.1448 44.666 19.2428 44.572C19.3408 44.478 19.4128 44.371 19.4588 44.251C19.5048 44.131 19.5278 44.007 19.5278 43.879V43.633ZM19.6088 43.633H19.9328V43.861C19.9328 43.983 19.9538 44.101 19.9958 44.215C20.0378 44.327 20.1048 44.427 20.1968 44.515C20.2888 44.601 20.4078 44.668 20.5538 44.716L20.3468 45.028C20.1768 44.968 20.0368 44.881 19.9268 44.767C19.8188 44.653 19.7388 44.519 19.6868 44.365C19.6348 44.209 19.6088 44.041 19.6088 43.861V43.633ZM20.8058 43.489H21.2078V45.115H20.8058V43.489ZM20.2658 45.187C20.5598 45.187 20.7918 45.235 20.9618 45.331C21.1318 45.425 21.2168 45.556 21.2168 45.724C21.2168 45.896 21.1318 46.029 20.9618 46.123C20.7918 46.219 20.5598 46.267 20.2658 46.267C19.9718 46.267 19.7398 46.219 19.5698 46.123C19.3998 46.029 19.3148 45.896 19.3148 45.724C19.3148 45.556 19.3998 45.425 19.5698 45.331C19.7398 45.235 19.9718 45.187 20.2658 45.187ZM20.2658 45.496C20.1458 45.496 20.0448 45.504 19.9628 45.52C19.8808 45.536 19.8178 45.562 19.7738 45.598C19.7318 45.632 19.7108 45.674 19.7108 45.724C19.7108 45.776 19.7318 45.82 19.7738 45.856C19.8178 45.89 19.8808 45.916 19.9628 45.934C20.0448 45.95 20.1458 45.958 20.2658 45.958C20.3858 45.958 20.4868 45.95 20.5688 45.934C20.6508 45.916 20.7128 45.89 20.7548 45.856C20.7968 45.82 20.8178 45.776 20.8178 45.724C20.8178 45.674 20.7968 45.632 20.7548 45.598C20.7128 45.562 20.6508 45.536 20.5688 45.52C20.4868 45.504 20.3858 45.496 20.2658 45.496ZM20.2988 43.993H20.8658V44.317H20.2988V43.993Z" fill="black"/>
</g>
<g id="dalseo">
<path id="&#235;&#139;&#172;&#236;&#132;&#156;&#234;&#181;&#172;" d="M21.9 24.2L28.9 25.2L29 25.5999L26.6 29.5999L30.7 33.7999L26.6 39.2L17.4 32.7L16 29.8999L17.1 24.3999L21.9 24.2Z" fill="#AFD88C" stroke="white" stroke-width="0.5"/>
<path id="&#235;&#139;&#172;&#236;&#132;&#156;" d="M20.18 29.745H20.3725C20.5342 29.745 20.6742 29.7433 20.7925 29.74C20.9108 29.735 21.0192 29.7275 21.1175 29.7175C21.2175 29.7058 21.3158 29.69 21.4125 29.67L21.4475 29.9275C21.3475 29.9492 21.2467 29.9658 21.145 29.9775C21.0433 29.9892 20.9308 29.9975 20.8075 30.0025C20.6842 30.0058 20.5392 30.0075 20.3725 30.0075H20.18V29.745ZM20.18 29.025H21.2175V29.285H20.5125V29.8925H20.18V29.025ZM21.59 28.905H21.9225V30.055H21.59V28.905ZM21.8325 29.3425H22.23V29.6125H21.8325V29.3425ZM20.395 30.1525H21.9225V30.79H20.7275V31.0675H20.3975V30.5475H21.595V30.4125H20.395V30.1525ZM20.3975 30.935H21.99V31.1975H20.3975V30.935ZM23.5698 29.63H24.1798V29.8975H23.5698V29.63ZM22.9398 29.0825H23.2073V29.42C23.2073 29.565 23.1948 29.7058 23.1698 29.8425C23.1448 29.9792 23.1065 30.1067 23.0548 30.225C23.0031 30.3433 22.9373 30.4475 22.8573 30.5375C22.779 30.6275 22.6856 30.7 22.5773 30.755L22.3698 30.49C22.4681 30.4433 22.5523 30.3825 22.6223 30.3075C22.694 30.2325 22.7531 30.1475 22.7998 30.0525C22.8481 29.9558 22.8831 29.8542 22.9048 29.7475C22.9281 29.6392 22.9398 29.53 22.9398 29.42V29.0825ZM23.0073 29.0825H23.2723V29.42C23.2723 29.5283 23.2831 29.6358 23.3048 29.7425C23.3265 29.8475 23.359 29.9458 23.4023 30.0375C23.4473 30.1292 23.5048 30.2108 23.5748 30.2825C23.6448 30.3525 23.7281 30.4092 23.8248 30.4525L23.6248 30.7175C23.5165 30.6642 23.4231 30.5942 23.3448 30.5075C23.2665 30.4192 23.2023 30.3183 23.1523 30.205C23.104 30.0917 23.0673 29.9683 23.0423 29.835C23.019 29.7017 23.0073 29.5633 23.0073 29.42V29.0825ZM24.0123 28.9025H24.3448V31.225H24.0123V28.9025Z" fill="black"/>
</g>
<g id="suseong">
<path id="&#236;&#136;&#152;&#236;&#132;&#177;&#234;&#181;&#172;" d="M31.2012 33.5001L33.3011 26.3L34.1012 24.3L48.2012 25.7001L47.3011 33.7001L42.8011 36.4001L34.9012 34.0001L31.2012 33.5001Z" fill="#AFD88C" stroke="white" stroke-width="0.5"/>
<path id="&#236;&#136;&#152;&#236;&#132;&#177;" d="M38.975 28.9725H39.265V29.0825C39.265 29.1708 39.2508 29.2567 39.2225 29.34C39.1958 29.4217 39.1558 29.4983 39.1025 29.57C39.0492 29.6417 38.9842 29.7058 38.9075 29.7625C38.8308 29.8192 38.7417 29.8675 38.64 29.9075C38.54 29.9458 38.43 29.975 38.31 29.995L38.18 29.7275C38.2867 29.7142 38.3817 29.6917 38.465 29.66C38.55 29.6283 38.6242 29.5908 38.6875 29.5475C38.7525 29.5042 38.8058 29.4567 38.8475 29.405C38.8892 29.3533 38.9208 29.3 38.9425 29.245C38.9642 29.19 38.975 29.1358 38.975 29.0825V28.9725ZM39.0375 28.9725H39.3275V29.0825C39.3275 29.1358 39.3383 29.19 39.36 29.245C39.3817 29.3 39.4133 29.3533 39.455 29.405C39.4967 29.4567 39.5492 29.5042 39.6125 29.5475C39.6775 29.5908 39.7517 29.6283 39.835 29.66C39.92 29.6917 40.0158 29.7142 40.1225 29.7275L39.9925 29.995C39.8708 29.975 39.76 29.9458 39.66 29.9075C39.56 29.8675 39.4717 29.8192 39.395 29.7625C39.3183 29.7042 39.2533 29.6392 39.2 29.5675C39.1467 29.4958 39.1058 29.4192 39.0775 29.3375C39.0508 29.2558 39.0375 29.1708 39.0375 29.0825V28.9725ZM38.975 30.3725H39.3075V31.2225H38.975V30.3725ZM38.1025 30.1625H40.1975V30.4325H38.1025V30.1625ZM40.9398 29.0275H41.2148V29.2325C41.2148 29.3875 41.1906 29.5333 41.1423 29.67C41.0956 29.8067 41.024 29.9258 40.9273 30.0275C40.8306 30.1292 40.7065 30.2058 40.5548 30.2575L40.3798 29.99C40.5131 29.9483 40.6206 29.8883 40.7023 29.81C40.784 29.7317 40.844 29.6425 40.8823 29.5425C40.9206 29.4425 40.9398 29.3392 40.9398 29.2325V29.0275ZM41.0073 29.0275H41.2773V29.2175C41.2773 29.3192 41.2948 29.4175 41.3298 29.5125C41.3648 29.6058 41.4206 29.6892 41.4973 29.7625C41.574 29.8342 41.6731 29.89 41.7948 29.93L41.6223 30.19C41.4806 30.14 41.364 30.0675 41.2723 29.9725C41.1823 29.8775 41.1156 29.7658 41.0723 29.6375C41.029 29.5075 41.0073 29.3675 41.0073 29.2175V29.0275ZM42.0048 28.9075H42.3398V30.2625H42.0048V28.9075ZM41.5548 30.3225C41.7998 30.3225 41.9931 30.3625 42.1348 30.4425C42.2765 30.5208 42.3473 30.63 42.3473 30.77C42.3473 30.9133 42.2765 31.0242 42.1348 31.1025C41.9931 31.1825 41.7998 31.2225 41.5548 31.2225C41.3098 31.2225 41.1165 31.1825 40.9748 31.1025C40.8331 31.0242 40.7623 30.9133 40.7623 30.77C40.7623 30.63 40.8331 30.5208 40.9748 30.4425C41.1165 30.3625 41.3098 30.3225 41.5548 30.3225ZM41.5548 30.58C41.4548 30.58 41.3706 30.5867 41.3023 30.6C41.234 30.6133 41.1815 30.635 41.1448 30.665C41.1098 30.6933 41.0923 30.7283 41.0923 30.77C41.0923 30.8133 41.1098 30.85 41.1448 30.88C41.1815 30.9083 41.234 30.93 41.3023 30.945C41.3706 30.9583 41.4548 30.965 41.5548 30.965C41.6548 30.965 41.739 30.9583 41.8073 30.945C41.8756 30.93 41.9273 30.9083 41.9623 30.88C41.9973 30.85 42.0148 30.8133 42.0148 30.77C42.0148 30.7283 41.9973 30.6933 41.9623 30.665C41.9273 30.635 41.8756 30.6133 41.8073 30.6C41.739 30.5867 41.6548 30.58 41.5548 30.58ZM41.5823 29.3275H42.0548V29.5975H41.5823V29.3275Z" fill="black"/>
</g>
<g id="bukgu">
<path id="&#235;&#182;&#129;&#234;&#181;&#172;" d="M32.4 5.5L36.2 16L33.5 23.2L29.6 22.6L22.7 21.3L20 20.8L22.2 16.8L23.1 15.7L23.2 15.1L23.6 14.3L22.9 6.79999L26.9 7.89999H27L32.4 5.5Z" fill="#AFD88C" stroke="white" stroke-width="0.5"/>
<path id="&#235;&#182;&#129;&#234;&#181;&#172;_2" d="M27.9775 15.2075H28.31V15.56H27.9775V15.2075ZM27.1 15.0075H29.195V15.2725H27.1V15.0075ZM27.3325 15.4675H28.9425V16.2225H28.61V15.73H27.3325V15.4675ZM27.3675 13.965H27.695V14.1675H28.6V13.965H28.93V14.8575H27.3675V13.965ZM27.695 14.4175V14.5975H28.6V14.4175H27.695ZM29.6423 14.04H31.0923V14.3025H29.6423V14.04ZM29.4023 15.025H31.4973V15.295H29.4023V15.025ZM30.2698 15.215H30.6048V16.2225H30.2698V15.215ZM30.9223 14.04H31.2498V14.245C31.2498 14.3283 31.2481 14.4167 31.2448 14.51C31.2431 14.6033 31.2365 14.7058 31.2248 14.8175C31.2131 14.9275 31.1915 15.0508 31.1598 15.1875L30.8348 15.1475C30.8781 14.9558 30.9031 14.7883 30.9098 14.645C30.9181 14.5 30.9223 14.3667 30.9223 14.245V14.04Z" fill="black"/>
</g>
<g id="namgu">
<path id="&#235;&#130;&#168;&#234;&#181;&#172;" d="M28.9996 25.6001L33.2996 26.3001L31.1996 33.5001L30.6996 33.8001L26.5996 29.6001L28.9996 25.6001Z" fill="#AFD88C" stroke="white" stroke-width="0.5"/>
<path id="&#235;&#130;&#168;&#234;&#181;&#172;_2" d="M29.4712 28.124H29.7372V29.168H29.4712V28.124ZM29.6652 28.514H29.9832V28.732H29.6652V28.514ZM28.5332 29.252H29.7372V29.958H28.5332V29.252ZM29.4792 29.462H28.7952V29.748H29.4792V29.462ZM28.3552 28.212H28.6212V28.97H28.3552V28.212ZM28.3552 28.856H28.5092C28.6359 28.856 28.7672 28.8514 28.9032 28.842C29.0406 28.8314 29.1819 28.812 29.3272 28.784L29.3572 28.996C29.2079 29.0267 29.0619 29.048 28.9192 29.06C28.7779 29.0707 28.6412 29.076 28.5092 29.076H28.3552V28.856ZM30.3131 28.232H31.4731V28.442H30.3131V28.232ZM30.1211 29.02H31.7971V29.236H30.1211V29.02ZM30.8151 29.172H31.0831V29.978H30.8151V29.172ZM31.3371 28.232H31.5991V28.396C31.5991 28.4627 31.5977 28.5334 31.5951 28.608C31.5937 28.6827 31.5884 28.7647 31.5791 28.854C31.5697 28.942 31.5524 29.0407 31.5271 29.15L31.2671 29.118C31.3017 28.9647 31.3217 28.8307 31.3271 28.716C31.3337 28.6 31.3371 28.4934 31.3371 28.396V28.232Z" fill="black"/>
</g>
<g id="seogu">
<path id="&#236;&#132;&#156;&#234;&#181;&#172;_00000095322446012922971850000014221499316402633894_" d="M22.7004 21.3L29.6004 22.6001L28.9004 25.2001L21.9004 24.2001L22.7004 21.3Z" fill="#AFD88C" stroke="white" stroke-width="0.5"/>
<path id="&#236;&#132;&#156;&#234;&#181;&#172;" d="M25.016 23.104H25.504V23.318H25.016V23.104ZM24.512 22.666H24.726V22.936C24.726 23.052 24.716 23.1646 24.696 23.274C24.676 23.3833 24.6453 23.4853 24.604 23.58C24.5627 23.6746 24.51 23.758 24.446 23.83C24.3833 23.902 24.3087 23.96 24.222 24.004L24.056 23.792C24.1347 23.7546 24.202 23.706 24.258 23.646C24.3153 23.586 24.3627 23.518 24.4 23.442C24.4387 23.3646 24.4667 23.2833 24.484 23.198C24.5027 23.1113 24.512 23.024 24.512 22.936V22.666ZM24.566 22.666H24.778V22.936C24.778 23.0226 24.7867 23.1086 24.804 23.194C24.8213 23.278 24.8473 23.3566 24.882 23.43C24.918 23.5033 24.964 23.5686 25.02 23.626C25.076 23.682 25.1427 23.7273 25.22 23.762L25.06 23.974C24.9733 23.9313 24.8987 23.8753 24.836 23.806C24.7733 23.7353 24.722 23.6546 24.682 23.564C24.6433 23.4733 24.614 23.3746 24.594 23.268C24.5753 23.1613 24.566 23.0506 24.566 22.936V22.666ZM25.37 22.522H25.636V24.38H25.37V22.522ZM26.1138 22.632H27.2738V22.842H26.1138V22.632ZM25.9218 23.42H27.5978V23.636H25.9218V23.42ZM26.6158 23.572H26.8838V24.378H26.6158V23.572ZM27.1378 22.632H27.3998V22.796C27.3998 22.8626 27.3985 22.9333 27.3958 23.008C27.3945 23.0826 27.3892 23.1646 27.3798 23.254C27.3705 23.342 27.3532 23.4406 27.3278 23.55L27.0678 23.518C27.1025 23.3646 27.1225 23.2306 27.1278 23.116C27.1345 23 27.1378 22.8933 27.1378 22.796V22.632Z" fill="black"/>
</g>
<g id="donggu">
<path id="&#235;&#143;&#153;&#234;&#181;&#172;_00000147187987661311838080000001073673105068167085_" d="M44.1004 1L49.1004 4.5L48.7004 5.70001L52.9004 20.9L51.4004 25.7H48.2004L34.1004 24.3L33.5004 23.2L36.2004 16L32.4004 5.5L37.1004 2L41.3004 1.5L44.1004 1Z" fill="#AFD88C" stroke="white" stroke-width="0.5"/>
<path id="&#235;&#143;&#153;&#234;&#181;&#172;" d="M41.105 12.995H43.1975V13.2575H41.105V12.995ZM41.985 12.6475H42.3175V13.0975H41.985V12.6475ZM41.3575 12.5425H42.96V12.8025H41.3575V12.5425ZM41.3575 12.005H42.9475V12.2675H41.6875V12.7075H41.3575V12.005ZM42.1425 13.3725C42.3925 13.3725 42.5892 13.41 42.7325 13.485C42.8758 13.5583 42.9475 13.6633 42.9475 13.8C42.9475 13.935 42.8758 14.0392 42.7325 14.1125C42.5892 14.1875 42.3925 14.225 42.1425 14.225C41.8925 14.225 41.6958 14.1875 41.5525 14.1125C41.4108 14.0392 41.34 13.935 41.34 13.8C41.34 13.6633 41.4108 13.5583 41.5525 13.485C41.6958 13.41 41.8925 13.3725 42.1425 13.3725ZM42.1425 13.625C42.0392 13.625 41.9525 13.6317 41.8825 13.645C41.8142 13.6567 41.7625 13.6758 41.7275 13.7025C41.6925 13.7275 41.675 13.7592 41.675 13.7975C41.675 13.8375 41.6925 13.8708 41.7275 13.8975C41.7625 13.9225 41.8142 13.9417 41.8825 13.955C41.9525 13.9667 42.0392 13.9725 42.1425 13.9725C42.2458 13.9725 42.3317 13.9667 42.4 13.955C42.47 13.9417 42.5225 13.9225 42.5575 13.8975C42.5925 13.8708 42.61 13.8375 42.61 13.7975C42.61 13.7592 42.5925 13.7275 42.5575 13.7025C42.5225 13.6758 42.47 13.6567 42.4 13.645C42.3317 13.6317 42.2458 13.625 42.1425 13.625ZM43.6423 12.04H45.0923V12.3025H43.6423V12.04ZM43.4023 13.025H45.4973V13.295H43.4023V13.025ZM44.2698 13.215H44.6048V14.2225H44.2698V13.215ZM44.9223 12.04H45.2498V12.245C45.2498 12.3283 45.2481 12.4167 45.2448 12.51C45.2431 12.6033 45.2365 12.7058 45.2248 12.8175C45.2131 12.9275 45.1915 13.0508 45.1598 13.1875L44.8348 13.1475C44.8781 12.9558 44.9031 12.7883 44.9098 12.645C44.9181 12.5 44.9223 12.3667 44.9223 12.245V12.04Z" fill="black"/>
</g>
<g id="junggu">
<path id="&#236;&#164;&#145;&#234;&#181;&#172;_00000163049878399489232690000013879300824881561003_" d="M29.6004 22.6001L33.5004 23.2001L34.1004 24.3001L33.3004 26.3001L29.0004 25.6001L28.9004 25.2001L29.6004 22.6001Z" fill="#AFD88C" stroke="white" stroke-width="0.5"/>
<path id="&#236;&#164;&#145;&#234;&#181;&#172;" d="M30.4852 24.456H30.7492V24.782H30.4852V24.456ZM29.7792 24.366H31.4552V24.578H29.7792V24.366ZM30.6132 24.708C30.8132 24.708 30.9706 24.7373 31.0852 24.796C31.1999 24.8533 31.2572 24.936 31.2572 25.044C31.2572 25.1493 31.1999 25.2313 31.0852 25.29C30.9706 25.3486 30.8132 25.378 30.6132 25.378C30.4132 25.378 30.2559 25.3486 30.1412 25.29C30.0279 25.2313 29.9712 25.1493 29.9712 25.044C29.9712 24.936 30.0279 24.8533 30.1412 24.796C30.2559 24.7373 30.4132 24.708 30.6132 24.708ZM30.6132 24.91C30.5306 24.91 30.4612 24.9146 30.4052 24.924C30.3506 24.9333 30.3092 24.948 30.2812 24.968C30.2532 24.9866 30.2392 25.012 30.2392 25.044C30.2392 25.0733 30.2532 25.098 30.2812 25.118C30.3092 25.138 30.3506 25.1526 30.4052 25.162C30.4612 25.1713 30.5306 25.176 30.6132 25.176C30.6959 25.176 30.7646 25.1713 30.8192 25.162C30.8752 25.1526 30.9172 25.138 30.9452 25.118C30.9732 25.098 30.9872 25.0733 30.9872 25.044C30.9872 25.012 30.9732 24.9866 30.9452 24.968C30.9172 24.948 30.8752 24.9333 30.8192 24.924C30.7646 24.9146 30.6959 24.91 30.6132 24.91ZM30.4352 23.7H30.6712V23.744C30.6712 23.8 30.6612 23.8533 30.6412 23.904C30.6212 23.9546 30.5912 24.002 30.5512 24.046C30.5126 24.0886 30.4639 24.1273 30.4052 24.162C30.3466 24.1966 30.2786 24.2253 30.2012 24.248C30.1239 24.2706 30.0379 24.2866 29.9432 24.296L29.8512 24.086C29.9326 24.0793 30.0046 24.068 30.0672 24.052C30.1312 24.036 30.1859 24.0166 30.2312 23.994C30.2779 23.97 30.3159 23.9446 30.3452 23.918C30.3759 23.89 30.3986 23.8613 30.4132 23.832C30.4279 23.8026 30.4352 23.7733 30.4352 23.744V23.7ZM30.5652 23.7H30.7992V23.744C30.7992 23.7733 30.8066 23.8033 30.8212 23.834C30.8359 23.8633 30.8579 23.8913 30.8872 23.918C30.9179 23.9446 30.9559 23.97 31.0012 23.994C31.0479 24.0166 31.1026 24.036 31.1652 24.052C31.2292 24.068 31.3019 24.0793 31.3832 24.086L31.2912 24.296C31.1966 24.2866 31.1106 24.2706 31.0332 24.248C30.9559 24.2253 30.8879 24.1973 30.8292 24.164C30.7719 24.1293 30.7232 24.0906 30.6832 24.048C30.6446 24.004 30.6152 23.9566 30.5952 23.906C30.5752 23.854 30.5652 23.8 30.5652 23.744V23.7ZM29.9332 23.602H31.3052V23.812H29.9332V23.602ZM31.8131 23.632H32.9731V23.842H31.8131V23.632ZM31.6211 24.42H33.2971V24.636H31.6211V24.42ZM32.3151 24.572H32.5831V25.378H32.3151V24.572ZM32.8371 23.632H33.0991V23.796C33.0991 23.8626 33.0977 23.9333 33.0951 24.008C33.0937 24.0826 33.0884 24.1646 33.0791 24.254C33.0697 24.342 33.0524 24.4406 33.0271 24.55L32.7671 24.518C32.8017 24.3646 32.8217 24.2306 32.8271 24.116C32.8337 24 32.8371 23.8933 32.8371 23.796V23.632Z" fill="black"/>
</g>
</g>
</svg>
