<svg width="41" height="50" viewBox="0 0 41 50" fill="none" xmlns="http://www.w3.org/2000/svg">
    <style>
        .shape {
        transition: fill 0.2s ease;
        }
        .region:hover .shape {
        fill: #84CD49;
        }
    </style>
    <g id="deajeon">
        <g id="deaduck" class="region">
            <path class="shape"
                  d="M30.6992 2.80005L32.1992 8.70007L27.5992 14.9001L28.6992 22.6001L24.3992 21.3L22.3992 24.1001L20.9992 22.8L19.6992 19.4001L23.0992 12.9001L19.1992 8.40005L20.7992 6.10007L26.9992 7.20007L30.6992 2.80005Z"
                  fill="#AFD88C" stroke="white" stroke-width="0.5"/>
            <path class="label"
                  d="M25.127 8.486H25.508V11.264H25.127V8.486ZM24.758 9.557H25.22V9.878H24.758V9.557ZM24.506 8.534H24.875V11.135H24.506V8.534ZM23.201 10.31H23.393C23.509 10.31 23.619 10.309 23.723 10.307C23.827 10.303 23.93 10.296 24.032 10.286C24.136 10.274 24.242 10.259 24.35 10.241L24.383 10.565C24.271 10.585 24.162 10.601 24.056 10.613C23.95 10.625 23.843 10.633 23.735 10.637C23.627 10.639 23.513 10.64 23.393 10.64H23.201V10.31ZM23.201 8.81H24.224V9.131H23.594V10.469H23.201V8.81ZM26.0298 9.761H26.2488C26.4348 9.761 26.5938 9.759 26.7258 9.755C26.8578 9.749 26.9768 9.741 27.0828 9.731C27.1888 9.719 27.2938 9.702 27.3978 9.68L27.4368 9.995C27.3288 10.019 27.2198 10.037 27.1098 10.049C26.9998 10.061 26.8758 10.069 26.7378 10.073C26.6018 10.077 26.4388 10.079 26.2488 10.079H26.0298V9.761ZM26.0298 8.675H27.2778V8.993H26.4258V9.848H26.0298V8.675ZM26.3118 10.286H28.2078V11.267H27.8058V10.604H26.3118V10.286ZM27.8058 8.486H28.2078V10.166H27.8058V8.486ZM27.1518 9.182H27.9108V9.497H27.1518V9.182Z"
                  fill="black"/>
        </g>
        <g id="yusung" class="region">
            <path class="shape"
                  d="M19.6996 19.4001L14.2996 22.2001L6.79961 36.1001L1.09961 31.9001L2.79961 26.2001L5.6996 12.6001L6.29961 12.4001L10.0996 11.6001L12.1996 10.7001L12.6996 10.5001L12.7996 10.3001L13.0996 10.1001L13.7996 7.7001L14.6996 7.40009L14.8996 7.00009L14.9996 6.40009H15.0996L15.4996 4.6001L15.5996 0.700104L20.0996 0.600098L21.0996 2.6001V2.80008L20.7996 3.90009L20.6996 4.80008L20.7996 6.1001L19.1996 8.40009L23.0996 12.9001L19.6996 19.4001Z"
                  fill="#AFD88C" stroke="white" stroke-width="0.5"/>
            <path class="label"
                  d="M9.69 18.244H10.095V19.264H9.69V18.244ZM10.65 18.244H11.055V19.264H10.65V18.244ZM9.123 18.034H11.637V18.355H9.123V18.034ZM10.374 16.582C10.572 16.582 10.746 16.607 10.896 16.657C11.048 16.707 11.166 16.779 11.25 16.873C11.334 16.967 11.376 17.077 11.376 17.203C11.376 17.329 11.334 17.439 11.25 17.533C11.166 17.625 11.048 17.697 10.896 17.749C10.746 17.799 10.572 17.824 10.374 17.824C10.176 17.824 10.001 17.799 9.849 17.749C9.699 17.697 9.581 17.625 9.495 17.533C9.411 17.439 9.369 17.329 9.369 17.203C9.369 17.077 9.411 16.967 9.495 16.873C9.581 16.779 9.699 16.707 9.849 16.657C10.001 16.607 10.176 16.582 10.374 16.582ZM10.374 16.897C10.252 16.897 10.146 16.909 10.056 16.933C9.968 16.957 9.9 16.992 9.852 17.038C9.804 17.082 9.78 17.137 9.78 17.203C9.78 17.269 9.804 17.325 9.852 17.371C9.9 17.415 9.968 17.449 10.056 17.473C10.146 17.495 10.252 17.506 10.374 17.506C10.496 17.506 10.601 17.495 10.689 17.473C10.777 17.449 10.845 17.415 10.893 17.371C10.943 17.325 10.968 17.269 10.968 17.203C10.968 17.137 10.943 17.082 10.893 17.038C10.845 16.992 10.777 16.957 10.689 16.933C10.601 16.909 10.496 16.897 10.374 16.897ZM12.5278 16.633H12.8578V16.879C12.8578 17.065 12.8288 17.24 12.7708 17.404C12.7148 17.568 12.6288 17.711 12.5128 17.833C12.3968 17.955 12.2478 18.047 12.0658 18.109L11.8558 17.788C12.0158 17.738 12.1448 17.666 12.2428 17.572C12.3408 17.478 12.4128 17.371 12.4588 17.251C12.5048 17.131 12.5278 17.007 12.5278 16.879V16.633ZM12.6088 16.633H12.9328V16.861C12.9328 16.983 12.9538 17.101 12.9958 17.215C13.0378 17.327 13.1048 17.427 13.1968 17.515C13.2888 17.601 13.4078 17.668 13.5538 17.716L13.3468 18.028C13.1768 17.968 13.0368 17.881 12.9268 17.767C12.8188 17.653 12.7388 17.519 12.6868 17.365C12.6348 17.209 12.6088 17.041 12.6088 16.861V16.633ZM13.8058 16.489H14.2078V18.115H13.8058V16.489ZM13.2658 18.187C13.5598 18.187 13.7918 18.235 13.9618 18.331C14.1318 18.425 14.2168 18.556 14.2168 18.724C14.2168 18.896 14.1318 19.029 13.9618 19.123C13.7918 19.219 13.5598 19.267 13.2658 19.267C12.9718 19.267 12.7398 19.219 12.5698 19.123C12.3998 19.029 12.3148 18.896 12.3148 18.724C12.3148 18.556 12.3998 18.425 12.5698 18.331C12.7398 18.235 12.9718 18.187 13.2658 18.187ZM13.2658 18.496C13.1458 18.496 13.0448 18.504 12.9628 18.52C12.8808 18.536 12.8178 18.562 12.7738 18.598C12.7318 18.632 12.7108 18.674 12.7108 18.724C12.7108 18.776 12.7318 18.82 12.7738 18.856C12.8178 18.89 12.8808 18.916 12.9628 18.934C13.0448 18.95 13.1458 18.958 13.2658 18.958C13.3858 18.958 13.4868 18.95 13.5688 18.934C13.6508 18.916 13.7128 18.89 13.7548 18.856C13.7968 18.82 13.8178 18.776 13.8178 18.724C13.8178 18.674 13.7968 18.632 13.7548 18.598C13.7128 18.562 13.6508 18.536 13.5688 18.52C13.4868 18.504 13.3858 18.496 13.2658 18.496ZM13.2988 16.993H13.8658V17.317H13.2988V16.993Z"
                  fill="black"/>
        </g>
        <g id="seogu" class="region">
            <path class="shape"
                  d="M16.8 32.2002L17 34.9001L16 43.2002L11.9 48.7002L5.5 39.0002L6.8 36.1002L14.3 22.2002L19.7 19.4001L21 22.8001L16.8 32.2002Z"
                  fill="#AFD88C" stroke="white" stroke-width="0.5"/>
            <path class="label"
                  d="M10.524 34.356H11.256V34.677H10.524V34.356ZM9.768 33.699H10.089V34.104C10.089 34.278 10.074 34.447 10.044 34.611C10.014 34.775 9.968 34.928 9.906 35.07C9.844 35.212 9.765 35.337 9.669 35.445C9.575 35.553 9.463 35.64 9.333 35.706L9.084 35.388C9.202 35.332 9.303 35.259 9.387 35.169C9.473 35.079 9.544 34.977 9.6 34.863C9.658 34.747 9.7 34.625 9.726 34.497C9.754 34.367 9.768 34.236 9.768 34.104V33.699ZM9.849 33.699H10.167V34.104C10.167 34.234 10.18 34.363 10.206 34.491C10.232 34.617 10.271 34.735 10.323 34.845C10.377 34.955 10.446 35.053 10.53 35.139C10.614 35.223 10.714 35.291 10.83 35.343L10.59 35.661C10.46 35.597 10.348 35.513 10.254 35.409C10.16 35.303 10.083 35.182 10.023 35.046C9.965 34.91 9.921 34.762 9.891 34.602C9.863 34.442 9.849 34.276 9.849 34.104V33.699ZM11.055 33.483H11.454V36.27H11.055V33.483ZM12.1708 33.648H13.9108V33.963H12.1708V33.648ZM11.8828 34.83H14.3968V35.154H11.8828V34.83ZM12.9238 35.058H13.3258V36.267H12.9238V35.058ZM13.7068 33.648H14.0998V33.894C14.0998 33.994 14.0978 34.1 14.0938 34.212C14.0918 34.324 14.0838 34.447 14.0698 34.581C14.0558 34.713 14.0298 34.861 13.9918 35.025L13.6018 34.977C13.6538 34.747 13.6838 34.546 13.6918 34.374C13.7018 34.2 13.7068 34.04 13.7068 33.894V33.648Z"
                  fill="black"/>
        </g>
        <g id="junggu" class="region">
            <path class="shape"
                  d="M22.3988 24.1001L27.9988 31.7001L24.0988 31.8L25.9988 40.1001L23.3988 44.9001L18.9988 37.7001L16.9988 34.9001L16.7988 32.2001L20.9988 22.8L22.3988 24.1001Z"
                  fill="#AFD88C" stroke="white" stroke-width="0.5"/>
            <path class="label"
                  d="M20.3782 29.884H20.7742V30.373H20.3782V29.884ZM19.3192 29.749H21.8332V30.067H19.3192V29.749ZM20.5702 30.262C20.8702 30.262 21.1062 30.306 21.2782 30.394C21.4502 30.48 21.5362 30.604 21.5362 30.766C21.5362 30.924 21.4502 31.047 21.2782 31.135C21.1062 31.223 20.8702 31.267 20.5702 31.267C20.2702 31.267 20.0342 31.223 19.8622 31.135C19.6922 31.047 19.6072 30.924 19.6072 30.766C19.6072 30.604 19.6922 30.48 19.8622 30.394C20.0342 30.306 20.2702 30.262 20.5702 30.262ZM20.5702 30.565C20.4462 30.565 20.3422 30.572 20.2582 30.586C20.1762 30.6 20.1142 30.622 20.0722 30.652C20.0302 30.68 20.0092 30.718 20.0092 30.766C20.0092 30.81 20.0302 30.847 20.0722 30.877C20.1142 30.907 20.1762 30.929 20.2582 30.943C20.3422 30.957 20.4462 30.964 20.5702 30.964C20.6942 30.964 20.7972 30.957 20.8792 30.943C20.9632 30.929 21.0262 30.907 21.0682 30.877C21.1102 30.847 21.1312 30.81 21.1312 30.766C21.1312 30.718 21.1102 30.68 21.0682 30.652C21.0262 30.622 20.9632 30.6 20.8792 30.586C20.7972 30.572 20.6942 30.565 20.5702 30.565ZM20.3032 28.75H20.6572V28.816C20.6572 28.9 20.6422 28.98 20.6122 29.056C20.5822 29.132 20.5372 29.203 20.4772 29.269C20.4192 29.333 20.3462 29.391 20.2582 29.443C20.1702 29.495 20.0682 29.538 19.9522 29.572C19.8362 29.606 19.7072 29.63 19.5652 29.644L19.4272 29.329C19.5492 29.319 19.6572 29.302 19.7512 29.278C19.8472 29.254 19.9292 29.225 19.9972 29.191C20.0672 29.155 20.1242 29.117 20.1682 29.077C20.2142 29.035 20.2482 28.992 20.2702 28.948C20.2922 28.904 20.3032 28.86 20.3032 28.816V28.75ZM20.4982 28.75H20.8492V28.816C20.8492 28.86 20.8602 28.905 20.8822 28.951C20.9042 28.995 20.9372 29.037 20.9812 29.077C21.0272 29.117 21.0842 29.155 21.1522 29.191C21.2222 29.225 21.3042 29.254 21.3982 29.278C21.4942 29.302 21.6032 29.319 21.7252 29.329L21.5872 29.644C21.4452 29.63 21.3162 29.606 21.2002 29.572C21.0842 29.538 20.9822 29.496 20.8942 29.446C20.8082 29.394 20.7352 29.336 20.6752 29.272C20.6172 29.206 20.5732 29.135 20.5432 29.059C20.5132 28.981 20.4982 28.9 20.4982 28.816V28.75ZM19.5502 28.603H21.6082V28.918H19.5502V28.603ZM22.37 28.648H24.11V28.963H22.37V28.648ZM22.082 29.83H24.596V30.154H22.082V29.83ZM23.123 30.058H23.525V31.267H23.123V30.058ZM23.906 28.648H24.299V28.894C24.299 28.994 24.297 29.1 24.293 29.212C24.291 29.324 24.283 29.447 24.269 29.581C24.255 29.713 24.229 29.861 24.191 30.025L23.801 29.977C23.853 29.747 23.883 29.546 23.891 29.374C23.901 29.2 23.906 29.04 23.906 28.894V28.648Z"
                  fill="black"/>
        </g>
        <g id="donggu" class="region">
            <path class="shape"
                  d="M32.2004 8.7002L33.4004 13.5002L35.0004 11.4002L40.1004 15.7002L36.4004 16.9002L33.3004 24.4002L32.3004 40.2002L26.7004 46.7002L23.4004 44.9002L26.0004 40.1002L24.1004 31.8002L28.0004 31.7002L22.4004 24.1002L24.4004 21.3002L28.7004 22.6002L27.6004 14.9002L32.2004 8.7002Z"
                  fill="#AFD88C" stroke="white" stroke-width="0.5"/>
            <path class="label"
                  d="M26.126 25.794H28.637V26.109H26.126V25.794ZM27.182 25.377H27.581V25.917H27.182V25.377ZM26.429 25.251H28.352V25.563H26.429V25.251ZM26.429 24.606H28.337V24.921H26.825V25.449H26.429V24.606ZM27.371 26.247C27.671 26.247 27.907 26.292 28.079 26.382C28.251 26.47 28.337 26.596 28.337 26.76C28.337 26.922 28.251 27.047 28.079 27.135C27.907 27.225 27.671 27.27 27.371 27.27C27.071 27.27 26.835 27.225 26.663 27.135C26.493 27.047 26.408 26.922 26.408 26.76C26.408 26.596 26.493 26.47 26.663 26.382C26.835 26.292 27.071 26.247 27.371 26.247ZM27.371 26.55C27.247 26.55 27.143 26.558 27.059 26.574C26.977 26.588 26.915 26.611 26.873 26.643C26.831 26.673 26.81 26.711 26.81 26.757C26.81 26.805 26.831 26.845 26.873 26.877C26.915 26.907 26.977 26.93 27.059 26.946C27.143 26.96 27.247 26.967 27.371 26.967C27.495 26.967 27.598 26.96 27.68 26.946C27.764 26.93 27.827 26.907 27.869 26.877C27.911 26.845 27.932 26.805 27.932 26.757C27.932 26.711 27.911 26.673 27.869 26.643C27.827 26.611 27.764 26.588 27.68 26.574C27.598 26.558 27.495 26.55 27.371 26.55ZM29.1708 24.648H30.9108V24.963H29.1708V24.648ZM28.8828 25.83H31.3968V26.154H28.8828V25.83ZM29.9238 26.058H30.3258V27.267H29.9238V26.058ZM30.7068 24.648H31.0998V24.894C31.0998 24.994 31.0978 25.1 31.0938 25.212C31.0918 25.324 31.0838 25.447 31.0698 25.581C31.0558 25.713 31.0298 25.861 30.9918 26.025L30.6018 25.977C30.6538 25.747 30.6838 25.546 30.6918 25.374C30.7018 25.2 30.7068 25.04 30.7068 24.894V24.648Z"
                  fill="black"/>
        </g>
    </g>
</svg>
