<svg width="284" height="249" viewBox="0 0 284 249" fill="none" xmlns="http://www.w3.org/2000/svg">
<g id="gangwondo">
<g id="Yangyang">
<path id="&#236;&#150;&#145;&#236;&#150;&#145;&#234;&#181;&#176;" d="M171.9 112.8L169.9 104L175.6 93.9002L172.2 87.6002L164.7 88.4002L162 81.1002L169.4 77.4002L187.1 70.7002L212.4 108.5L209.6 109.1L204.8 109.7L204.7 110.1L201.3 110.9V110.8L191.9 112.2L185.1 117.5L183.3 117L179.2 113L171.9 112.8Z" fill="#AFD88C" stroke="white" stroke-width="0.5"/>
<path id="&#236;&#150;&#145;&#236;&#150;&#145;" d="M186.832 92.208H188.104V93.072H186.832V92.208ZM186.832 93.816H188.104V94.688H186.832V93.816ZM183.384 91.704C183.768 91.704 184.112 91.7813 184.416 91.936C184.72 92.0907 184.96 92.304 185.136 92.576C185.312 92.8427 185.4 93.152 185.4 93.504C185.4 93.8507 185.312 94.16 185.136 94.432C184.96 94.6987 184.72 94.9093 184.416 95.064C184.112 95.2187 183.768 95.296 183.384 95.296C183.005 95.296 182.664 95.2187 182.36 95.064C182.056 94.9093 181.816 94.6987 181.64 94.432C181.464 94.16 181.376 93.8507 181.376 93.504C181.376 93.152 181.464 92.8427 181.64 92.576C181.816 92.304 182.056 92.0907 182.36 91.936C182.664 91.7813 183.005 91.704 183.384 91.704ZM183.384 92.592C183.203 92.592 183.037 92.6293 182.888 92.704C182.739 92.7733 182.621 92.8773 182.536 93.016C182.456 93.1493 182.416 93.312 182.416 93.504C182.416 93.6907 182.456 93.8533 182.536 93.992C182.621 94.1253 182.739 94.2267 182.888 94.296C183.037 94.3653 183.203 94.4 183.384 94.4C183.576 94.4 183.744 94.3653 183.888 94.296C184.032 94.2267 184.147 94.1253 184.232 93.992C184.317 93.8533 184.36 93.6907 184.36 93.504C184.36 93.312 184.317 93.1493 184.232 93.016C184.147 92.8773 184.032 92.7733 183.888 92.704C183.744 92.6293 183.576 92.592 183.384 92.592ZM186.088 91.304H187.152V95.624H186.088V91.304ZM184.736 95.776C185.248 95.776 185.691 95.8347 186.064 95.952C186.443 96.0693 186.733 96.2373 186.936 96.456C187.139 96.6747 187.24 96.9387 187.24 97.248C187.24 97.552 187.139 97.8133 186.936 98.032C186.733 98.2507 186.443 98.4187 186.064 98.536C185.691 98.6533 185.248 98.712 184.736 98.712C184.224 98.712 183.779 98.6533 183.4 98.536C183.027 98.4187 182.736 98.2507 182.528 98.032C182.325 97.8133 182.224 97.552 182.224 97.248C182.224 96.9387 182.325 96.6747 182.528 96.456C182.736 96.2373 183.027 96.0693 183.4 95.952C183.779 95.8347 184.224 95.776 184.736 95.776ZM184.736 96.616C184.421 96.616 184.157 96.64 183.944 96.688C183.731 96.7307 183.568 96.7973 183.456 96.888C183.344 96.9787 183.288 97.0987 183.288 97.248C183.288 97.3867 183.344 97.504 183.456 97.6C183.568 97.696 183.731 97.768 183.944 97.816C184.157 97.8587 184.421 97.88 184.736 97.88C185.051 97.88 185.315 97.8587 185.528 97.816C185.747 97.768 185.909 97.696 186.016 97.6C186.128 97.504 186.184 97.3867 186.184 97.248C186.184 97.0987 186.128 96.9787 186.016 96.888C185.909 96.7973 185.747 96.7307 185.528 96.688C185.315 96.64 185.051 96.616 184.736 96.616ZM194.191 92.208H195.463V93.072H194.191V92.208ZM194.191 93.816H195.463V94.688H194.191V93.816ZM190.743 91.704C191.127 91.704 191.471 91.7813 191.775 91.936C192.079 92.0907 192.319 92.304 192.495 92.576C192.671 92.8427 192.759 93.152 192.759 93.504C192.759 93.8507 192.671 94.16 192.495 94.432C192.319 94.6987 192.079 94.9093 191.775 95.064C191.471 95.2187 191.127 95.296 190.743 95.296C190.365 95.296 190.023 95.2187 189.719 95.064C189.415 94.9093 189.175 94.6987 188.999 94.432C188.823 94.16 188.735 93.8507 188.735 93.504C188.735 93.152 188.823 92.8427 188.999 92.576C189.175 92.304 189.415 92.0907 189.719 91.936C190.023 91.7813 190.365 91.704 190.743 91.704ZM190.743 92.592C190.562 92.592 190.397 92.6293 190.247 92.704C190.098 92.7733 189.981 92.8773 189.895 93.016C189.815 93.1493 189.775 93.312 189.775 93.504C189.775 93.6907 189.815 93.8533 189.895 93.992C189.981 94.1253 190.098 94.2267 190.247 94.296C190.397 94.3653 190.562 94.4 190.743 94.4C190.935 94.4 191.103 94.3653 191.247 94.296C191.391 94.2267 191.506 94.1253 191.591 93.992C191.677 93.8533 191.719 93.6907 191.719 93.504C191.719 93.312 191.677 93.1493 191.591 93.016C191.506 92.8773 191.391 92.7733 191.247 92.704C191.103 92.6293 190.935 92.592 190.743 92.592ZM193.447 91.304H194.511V95.624H193.447V91.304ZM192.095 95.776C192.607 95.776 193.05 95.8347 193.423 95.952C193.802 96.0693 194.093 96.2373 194.295 96.456C194.498 96.6747 194.599 96.9387 194.599 97.248C194.599 97.552 194.498 97.8133 194.295 98.032C194.093 98.2507 193.802 98.4187 193.423 98.536C193.05 98.6533 192.607 98.712 192.095 98.712C191.583 98.712 191.138 98.6533 190.759 98.536C190.386 98.4187 190.095 98.2507 189.887 98.032C189.685 97.8133 189.583 97.552 189.583 97.248C189.583 96.9387 189.685 96.6747 189.887 96.456C190.095 96.2373 190.386 96.0693 190.759 95.952C191.138 95.8347 191.583 95.776 192.095 95.776ZM192.095 96.616C191.781 96.616 191.517 96.64 191.303 96.688C191.09 96.7307 190.927 96.7973 190.815 96.888C190.703 96.9787 190.647 97.0987 190.647 97.248C190.647 97.3867 190.703 97.504 190.815 97.6C190.927 97.696 191.09 97.768 191.303 97.816C191.517 97.8587 191.781 97.88 192.095 97.88C192.41 97.88 192.674 97.8587 192.887 97.816C193.106 97.768 193.269 97.696 193.375 97.6C193.487 97.504 193.543 97.3867 193.543 97.248C193.543 97.0987 193.487 96.9787 193.375 96.888C193.269 96.7973 193.106 96.7307 192.887 96.688C192.674 96.64 192.41 96.616 192.095 96.616Z" fill="black"/>
</g>
<g id="Goseong">
<path id="&#234;&#179;&#160;&#236;&#132;&#177;&#234;&#181;&#176;" d="M144.799 43.1L150.099 44.3L151.199 54.6H156.099L157.299 59.3L164.199 56.5L166.399 64.2L171.199 66.7L183.899 60.1L167.799 28.6L161.999 9.2L156.899 3.5L155.399 0.5L150.299 5.3L144.799 37.4V43.1Z" fill="#AFD88C" stroke="white" stroke-width="0.5"/>
<path id="&#234;&#179;&#160;&#236;&#132;&#177;" d="M152.516 34.928H157.204V35.776H152.516V34.928ZM151.828 39.952H158.532V40.816H151.828V39.952ZM154.196 37.408H155.268V40.384H154.196V37.408ZM156.82 34.928H157.892V35.632C157.892 35.9413 157.887 36.2693 157.876 36.616C157.871 36.9627 157.847 37.3467 157.804 37.768C157.767 38.1893 157.697 38.6613 157.596 39.184L156.532 39.072C156.681 38.3307 156.767 37.6853 156.788 37.136C156.809 36.5813 156.82 36.08 156.82 35.632V34.928ZM160.907 34.688H161.787V35.344C161.787 35.84 161.71 36.3067 161.555 36.744C161.406 37.1813 161.177 37.5627 160.867 37.888C160.558 38.2133 160.161 38.4587 159.675 38.624L159.115 37.768C159.542 37.6347 159.886 37.4427 160.147 37.192C160.409 36.9413 160.601 36.656 160.723 36.336C160.846 36.016 160.907 35.6853 160.907 35.344V34.688ZM161.123 34.688H161.987V35.296C161.987 35.6213 162.043 35.936 162.155 36.24C162.267 36.5387 162.446 36.8053 162.691 37.04C162.937 37.2693 163.254 37.448 163.643 37.576L163.091 38.408C162.638 38.248 162.265 38.016 161.971 37.712C161.683 37.408 161.47 37.0507 161.331 36.64C161.193 36.224 161.123 35.776 161.123 35.296V34.688ZM164.315 34.304H165.387V38.64H164.315V34.304ZM162.875 38.832C163.659 38.832 164.278 38.96 164.731 39.216C165.185 39.4667 165.411 39.816 165.411 40.264C165.411 40.7227 165.185 41.0773 164.731 41.328C164.278 41.584 163.659 41.712 162.875 41.712C162.091 41.712 161.473 41.584 161.019 41.328C160.566 41.0773 160.339 40.7227 160.339 40.264C160.339 39.816 160.566 39.4667 161.019 39.216C161.473 38.96 162.091 38.832 162.875 38.832ZM162.875 39.656C162.555 39.656 162.286 39.6773 162.067 39.72C161.849 39.7627 161.681 39.832 161.563 39.928C161.451 40.0187 161.395 40.1307 161.395 40.264C161.395 40.4027 161.451 40.52 161.563 40.616C161.681 40.7067 161.849 40.776 162.067 40.824C162.286 40.8667 162.555 40.888 162.875 40.888C163.195 40.888 163.465 40.8667 163.683 40.824C163.902 40.776 164.067 40.7067 164.179 40.616C164.291 40.52 164.347 40.4027 164.347 40.264C164.347 40.1307 164.291 40.0187 164.179 39.928C164.067 39.832 163.902 39.7627 163.683 39.72C163.465 39.6773 163.195 39.656 162.875 39.656ZM162.963 35.648H164.475V36.512H162.963V35.648Z" fill="black"/>
</g>
<g id="Inje">
<path id="&#236;&#157;&#184;&#236;&#160;&#156;&#234;&#181;&#176;" d="M111.5 105.7L110.1 98.1998L115.7 94.1998L119.6 94.0998V89.0998L126.1 90.5998L126 85.2998L122.9 81.3998L125 79.3998L122.6 72.5998L127.2 58.6998L131.7 54.2998L132.9 46.9998L135.7 39.7998L144.8 37.2998V43.0998L150.1 44.2998L151.2 54.5998H156.2L157.4 59.2998L164.3 56.4998L166.5 64.1998L163.9 68.4998L169.4 77.3998L162 81.0998L164.7 88.3998L172.2 87.5998L175.6 93.8998L169.9 104L171.9 112.8L167.3 117.2L163.6 114L162.1 116.9L155.3 123.4L148.9 116.8L138.1 125.6L132.1 112.8L123.6 112.4L115.9 105.2L111.5 105.7Z" fill="#AFD88C" stroke="white" stroke-width="0.5"/>
<path id="&#236;&#157;&#184;&#236;&#160;&#156;" d="M143.416 81.304H144.48V86.624H143.416V81.304ZM139.544 87.728H144.672V88.584H139.544V87.728ZM139.544 86.096H140.608V88.08H139.544V86.096ZM140.448 81.776C140.827 81.776 141.168 81.856 141.472 82.016C141.776 82.176 142.016 82.3973 142.192 82.68C142.373 82.9627 142.464 83.288 142.464 83.656C142.464 84.0133 142.373 84.336 142.192 84.624C142.016 84.9067 141.776 85.1307 141.472 85.296C141.168 85.456 140.827 85.536 140.448 85.536C140.069 85.536 139.728 85.456 139.424 85.296C139.12 85.1307 138.877 84.9067 138.696 84.624C138.52 84.336 138.432 84.0133 138.432 83.656C138.432 83.288 138.52 82.9627 138.696 82.68C138.877 82.3973 139.12 82.176 139.424 82.016C139.728 81.856 140.069 81.776 140.448 81.776ZM140.448 82.688C140.267 82.688 140.101 82.728 139.952 82.808C139.803 82.8827 139.685 82.992 139.6 83.136C139.515 83.2747 139.472 83.448 139.472 83.656C139.472 83.8533 139.515 84.024 139.6 84.168C139.685 84.3067 139.803 84.416 139.952 84.496C140.101 84.5707 140.267 84.608 140.448 84.608C140.629 84.608 140.795 84.5707 140.944 84.496C141.093 84.416 141.211 84.3067 141.296 84.168C141.381 84.024 141.424 83.8533 141.424 83.656C141.424 83.448 141.381 83.2747 141.296 83.136C141.211 82.992 141.093 82.8827 140.944 82.808C140.795 82.728 140.629 82.688 140.448 82.688ZM151.031 81.296H152.047V88.704H151.031V81.296ZM148.591 83.832H149.823V84.696H148.591V83.832ZM149.535 81.416H150.527V88.368H149.535V81.416ZM146.999 82.504H147.799V83.264C147.799 83.68 147.767 84.0907 147.703 84.496C147.645 84.9013 147.551 85.2853 147.423 85.648C147.295 86.0053 147.127 86.328 146.919 86.616C146.711 86.904 146.461 87.1413 146.167 87.328L145.535 86.544C145.898 86.3147 146.186 86.0267 146.399 85.68C146.613 85.328 146.765 84.944 146.855 84.528C146.951 84.1067 146.999 83.6853 146.999 83.264V82.504ZM147.239 82.504H148.031V83.264C148.031 83.6747 148.077 84.08 148.167 84.48C148.258 84.88 148.407 85.2453 148.615 85.576C148.823 85.9013 149.106 86.168 149.463 86.376L148.847 87.144C148.453 86.9093 148.138 86.592 147.903 86.192C147.669 85.792 147.498 85.3413 147.391 84.84C147.29 84.3333 147.239 83.808 147.239 83.264V82.504ZM145.807 82.04H149.111V82.896H145.807V82.04Z" fill="black"/>
</g>
<g id="Yanggu">
<path id="&#236;&#150;&#145;&#234;&#181;&#172;&#234;&#181;&#176;" d="M113.8 51.1001L122.4 51.0001L125.7 45.1001L132.8 46.9001L131.7 54.2001L127.2 58.7001L122.6 72.6001L124.9 79.4001L122.8 81.4001L125.9 85.2001L126 90.5001L119.5 88.9001V94.0001L115.7 94.1001L113.6 93.4001L111.2 96.1001L106.5 90.3001L103.9 94.2001L99.9 88.5001L96.8 65.5001L93.5 63.8001L95 52.0001L99.2 47.6001L112.2 53.4001L113.8 51.1001Z" fill="#AFD88C" stroke="white" stroke-width="0.5"/>
<path id="&#236;&#150;&#145;&#234;&#181;&#172;" d="M108.832 66.208H110.104V67.072H108.832V66.208ZM108.832 67.816H110.104V68.688H108.832V67.816ZM105.384 65.704C105.768 65.704 106.112 65.7813 106.416 65.936C106.72 66.0907 106.96 66.304 107.136 66.576C107.312 66.8427 107.4 67.152 107.4 67.504C107.4 67.8507 107.312 68.16 107.136 68.432C106.96 68.6987 106.72 68.9093 106.416 69.064C106.112 69.2187 105.768 69.296 105.384 69.296C105.005 69.296 104.664 69.2187 104.36 69.064C104.056 68.9093 103.816 68.6987 103.64 68.432C103.464 68.16 103.376 67.8507 103.376 67.504C103.376 67.152 103.464 66.8427 103.64 66.576C103.816 66.304 104.056 66.0907 104.36 65.936C104.664 65.7813 105.005 65.704 105.384 65.704ZM105.384 66.592C105.203 66.592 105.037 66.6293 104.888 66.704C104.739 66.7733 104.621 66.8773 104.536 67.016C104.456 67.1493 104.416 67.312 104.416 67.504C104.416 67.6907 104.456 67.8533 104.536 67.992C104.621 68.1253 104.739 68.2267 104.888 68.296C105.037 68.3653 105.203 68.4 105.384 68.4C105.576 68.4 105.744 68.3653 105.888 68.296C106.032 68.2267 106.147 68.1253 106.232 67.992C106.317 67.8533 106.36 67.6907 106.36 67.504C106.36 67.312 106.317 67.1493 106.232 67.016C106.147 66.8773 106.032 66.7733 105.888 66.704C105.744 66.6293 105.576 66.592 105.384 66.592ZM108.088 65.304H109.152V69.624H108.088V65.304ZM106.736 69.776C107.248 69.776 107.691 69.8347 108.064 69.952C108.443 70.0693 108.733 70.2373 108.936 70.456C109.139 70.6747 109.24 70.9387 109.24 71.248C109.24 71.552 109.139 71.8133 108.936 72.032C108.733 72.2507 108.443 72.4187 108.064 72.536C107.691 72.6533 107.248 72.712 106.736 72.712C106.224 72.712 105.779 72.6533 105.4 72.536C105.027 72.4187 104.736 72.2507 104.528 72.032C104.325 71.8133 104.224 71.552 104.224 71.248C104.224 70.9387 104.325 70.6747 104.528 70.456C104.736 70.2373 105.027 70.0693 105.4 69.952C105.779 69.8347 106.224 69.776 106.736 69.776ZM106.736 70.616C106.421 70.616 106.157 70.64 105.944 70.688C105.731 70.7307 105.568 70.7973 105.456 70.888C105.344 70.9787 105.288 71.0987 105.288 71.248C105.288 71.3867 105.344 71.504 105.456 71.6C105.568 71.696 105.731 71.768 105.944 71.816C106.157 71.8587 106.421 71.88 106.736 71.88C107.051 71.88 107.315 71.8587 107.528 71.816C107.747 71.768 107.909 71.696 108.016 71.6C108.128 71.504 108.184 71.3867 108.184 71.248C108.184 71.0987 108.128 70.9787 108.016 70.888C107.909 70.7973 107.747 70.7307 107.528 70.688C107.315 70.64 107.051 70.616 106.736 70.616ZM111.455 65.728H116.095V66.568H111.455V65.728ZM110.687 68.88H117.391V69.744H110.687V68.88ZM113.463 69.488H114.535V72.712H113.463V69.488ZM115.551 65.728H116.599V66.384C116.599 66.6507 116.594 66.9333 116.583 67.232C116.578 67.5307 116.557 67.8587 116.519 68.216C116.482 68.568 116.413 68.9627 116.311 69.4L115.271 69.272C115.41 68.6587 115.49 68.1227 115.511 67.664C115.538 67.2 115.551 66.7733 115.551 66.384V65.728Z" fill="black"/>
</g>
<g id="Hwacheon">
<path id="&#237;&#153;&#148;&#236;&#178;&#156;&#234;&#181;&#176;" d="M89.3996 51.5L92.1996 51.7L95.0996 52.3L93.6996 63.8L96.9996 65.5L100.1 88.5L94.1996 88.3L93.9996 88.6L94.5996 93.6L90.7996 96.4L85.9996 97.4L80.7996 90.3L77.8996 92.6L74.9996 90.5L69.2996 92.8L68.9996 88L59.2996 83.2L59.8996 90.3L55.0996 96.4L46.5996 95.5L43.4996 88.5L41.5996 78.5L49.5996 75.7L51.1996 65.4L62.2996 52.4L75.3996 57.8L78.8996 53L88.5996 51.5H89.3996Z" fill="#AFD88C" stroke="white" stroke-width="0.5"/>
<path id="&#237;&#153;&#148;&#236;&#178;&#156;" d="M70.04 73.688H71.104V74.88H70.04V73.688ZM73.152 69.304H74.216V76.712H73.152V69.304ZM73.848 72.312H75.152V73.184H73.848V72.312ZM68.376 75.48L68.248 74.616C68.6747 74.616 69.1413 74.6133 69.648 74.608C70.16 74.6027 70.6827 74.584 71.216 74.552C71.7547 74.52 72.2747 74.472 72.776 74.408L72.856 75.176C72.3387 75.272 71.8133 75.344 71.28 75.392C70.7467 75.4347 70.232 75.4613 69.736 75.472C69.2453 75.4773 68.792 75.48 68.376 75.48ZM68.384 70.112H72.744V70.944H68.384V70.112ZM70.568 71.24C70.9253 71.24 71.24 71.2987 71.512 71.416C71.784 71.5333 71.9973 71.696 72.152 71.904C72.3067 72.112 72.384 72.3547 72.384 72.632C72.384 72.904 72.3067 73.1467 72.152 73.36C71.9973 73.568 71.784 73.7307 71.512 73.848C71.24 73.9653 70.9253 74.024 70.568 74.024C70.216 74.024 69.904 73.9653 69.632 73.848C69.36 73.7307 69.1467 73.568 68.992 73.36C68.8373 73.1467 68.76 72.904 68.76 72.632C68.76 72.3547 68.8373 72.112 68.992 71.904C69.1467 71.696 69.36 71.5333 69.632 71.416C69.904 71.2987 70.216 71.24 70.568 71.24ZM70.568 72.04C70.328 72.04 70.1333 72.0933 69.984 72.2C69.84 72.3013 69.768 72.4453 69.768 72.632C69.768 72.824 69.84 72.9707 69.984 73.072C70.1333 73.1733 70.328 73.224 70.568 73.224C70.8133 73.224 71.008 73.1733 71.152 73.072C71.3013 72.9707 71.376 72.824 71.376 72.632C71.376 72.4453 71.3013 72.3013 71.152 72.2C71.008 72.0933 70.8133 72.04 70.568 72.04ZM70.04 69.336H71.104V70.736H70.04V69.336ZM77.3434 70.752H78.2154V71.032C78.2154 71.4853 78.1407 71.912 77.9914 72.312C77.842 72.712 77.6154 73.0613 77.3114 73.36C77.0074 73.6587 76.6207 73.8853 76.1514 74.04L75.6314 73.208C76.0314 73.08 76.3567 72.904 76.6074 72.68C76.8634 72.4507 77.05 72.1947 77.1674 71.912C77.2847 71.624 77.3434 71.3307 77.3434 71.032V70.752ZM77.5434 70.752H78.4074V71.032C78.4074 71.3093 78.466 71.584 78.5834 71.856C78.706 72.1227 78.8954 72.3653 79.1514 72.584C79.4074 72.7973 79.7327 72.9627 80.1274 73.08L79.6234 73.912C79.154 73.7733 78.7647 73.5627 78.4554 73.28C78.1514 72.992 77.922 72.656 77.7674 72.272C77.618 71.8827 77.5434 71.4693 77.5434 71.032V70.752ZM75.8874 70.176H79.8714V71.008H75.8874V70.176ZM77.3434 69.352H78.4074V70.488H77.3434V69.352ZM79.6314 71.456H81.3514V72.32H79.6314V71.456ZM80.8154 69.304H81.8874V74.784H80.8154V69.304ZM76.9914 75.728H82.0554V76.584H76.9914V75.728ZM76.9914 74.328H78.0554V76.288H76.9914V74.328Z" fill="black"/>
</g>
<g id="Cheorwon">
<path id="&#236;&#178;&#160;&#236;&#155;&#144;&#234;&#181;&#176;" d="M13.5992 46.8999L10.9992 47.8999L5.29922 47.2999L1.19922 53.7999L3.99922 59.9999L8.59923 59.2999L10.6992 67.4999L16.0992 74.5999L23.3992 67.9999L22.4992 77.1999L29.9992 82.5999L35.1992 78.0999L38.4992 80.4999L41.5992 78.5999L49.5992 75.7999L51.1992 65.4999L62.2992 52.4999L75.3992 57.8999L78.8992 53.0999L88.5992 51.5999L82.2992 45.9999L76.6992 48.0999L60.9992 43.8999L49.7992 49.7999L35.5992 43.8999L32.0992 49.0999L25.3992 49.4999L25.2992 46.0999L17.9992 44.5999L13.5992 46.8999Z" fill="#AFD88C" stroke="white" stroke-width="0.5"/>
<path id="&#236;&#178;&#160;&#236;&#155;&#144;" d="M31.984 59.496H32.848V59.768C32.848 60.1573 32.7707 60.5227 32.616 60.864C32.4613 61.2 32.2267 61.4907 31.912 61.736C31.5973 61.976 31.2 62.152 30.72 62.264L30.256 61.448C30.56 61.3787 30.8187 61.2853 31.032 61.168C31.2507 61.0507 31.4293 60.9173 31.568 60.768C31.712 60.6187 31.816 60.4587 31.88 60.288C31.9493 60.1173 31.984 59.944 31.984 59.768V59.496ZM32.192 59.496H33.048V59.768C33.048 59.9333 33.0827 60.096 33.152 60.256C33.2213 60.4107 33.328 60.56 33.472 60.704C33.616 60.8427 33.7947 60.968 34.008 61.08C34.2267 61.1867 34.4827 61.2693 34.776 61.328L34.336 62.136C33.9787 62.056 33.664 61.9413 33.392 61.792C33.1253 61.6373 32.9013 61.456 32.72 61.248C32.544 61.04 32.4107 60.8107 32.32 60.56C32.2347 60.304 32.192 60.04 32.192 59.768V59.496ZM30.528 58.912H34.512V59.752H30.528V58.912ZM31.984 58.272H33.048V59.384H31.984V58.272ZM34.328 60.016H36.16V60.872H34.328V60.016ZM35.456 58.304H36.52V62.136H35.456V58.304ZM31.624 62.416H36.52V64.4H32.688V65.32H31.64V63.64H35.472V63.224H31.624V62.416ZM31.64 64.856H36.736V65.664H31.64V64.856ZM39.6154 62.104H40.6794V63.72H39.6154V62.104ZM42.8554 58.296H43.9194V63.912H42.8554V58.296ZM38.5834 64.728H44.0874V65.584H38.5834V64.728ZM38.5834 63.376H39.6474V64.96H38.5834V63.376ZM37.7914 62.424L37.6554 61.576C38.1087 61.5707 38.602 61.5653 39.1354 61.56C39.6687 61.5493 40.2127 61.528 40.7674 61.496C41.322 61.464 41.8554 61.416 42.3674 61.352L42.4394 62.112C41.9114 62.2027 41.3727 62.272 40.8234 62.32C40.2794 62.3627 39.7487 62.3893 39.2314 62.4C38.714 62.4107 38.234 62.4187 37.7914 62.424ZM41.4634 62.6H43.0954V63.328H41.4634V62.6ZM40.0394 58.552C40.402 58.552 40.722 58.608 40.9994 58.72C41.2767 58.832 41.4927 58.9867 41.6474 59.184C41.8074 59.3813 41.8874 59.6133 41.8874 59.88C41.8874 60.1413 41.8074 60.3733 41.6474 60.576C41.4927 60.7733 41.2767 60.9253 40.9994 61.032C40.722 61.1387 40.402 61.192 40.0394 61.192C39.6767 61.192 39.354 61.1387 39.0714 61.032C38.794 60.9253 38.578 60.7733 38.4234 60.576C38.2687 60.3733 38.1914 60.1413 38.1914 59.88C38.1914 59.6133 38.2687 59.3813 38.4234 59.184C38.578 58.9867 38.794 58.832 39.0714 58.72C39.354 58.608 39.6767 58.552 40.0394 58.552ZM40.0394 59.328C39.794 59.328 39.5914 59.3733 39.4314 59.464C39.2767 59.5547 39.1994 59.6933 39.1994 59.88C39.1994 60.056 39.2767 60.192 39.4314 60.288C39.5914 60.3787 39.794 60.424 40.0394 60.424C40.29 60.424 40.49 60.3787 40.6394 60.288C40.794 60.192 40.8714 60.056 40.8714 59.88C40.8714 59.7573 40.8367 59.656 40.7674 59.576C40.698 59.496 40.602 59.4347 40.4794 59.392C40.3567 59.3493 40.21 59.328 40.0394 59.328Z" fill="black"/>
</g>
<g id="Jeongseon">
<path id="&#236;&#160;&#149;&#236;&#132;&#160;&#234;&#181;&#176;" d="M187.199 208.5L179.799 189.8L175.699 187.2L176.599 181.1L182.799 180.2L182.899 173.7L185.399 176.1L187.299 163.2L190.299 162.6L191.599 167.8L196.999 163L202.099 169.4L204.299 166.4L210.999 167.6L213.899 173.2L218.299 171.2L222.499 159.1L225.299 165.3L233.699 168.2L232.499 171.1L232.399 171.2L235.899 175.8L231.999 181.8L225.199 183.3L218.299 198.7L222.399 201.1L219.899 204.3L226.299 217.9L225.499 228.8L207.099 218.9L193.099 223.7L190.199 218L185.099 217.9L184.699 210.3L187.199 208.5Z" fill="#AFD88C" stroke="white" stroke-width="0.5"/>
<path id="&#236;&#160;&#149;&#236;&#132;&#160;" d="M198.344 192.088H199.752V192.952H198.344V192.088ZM199.456 190.304H200.528V194.704H199.456V190.304ZM198.016 194.864C198.539 194.864 198.989 194.92 199.368 195.032C199.747 195.144 200.037 195.307 200.24 195.52C200.448 195.733 200.552 195.989 200.552 196.288C200.552 196.747 200.325 197.099 199.872 197.344C199.419 197.595 198.8 197.72 198.016 197.72C197.232 197.72 196.613 197.595 196.16 197.344C195.707 197.099 195.48 196.747 195.48 196.288C195.48 195.989 195.581 195.733 195.784 195.52C195.992 195.307 196.285 195.144 196.664 195.032C197.043 194.92 197.493 194.864 198.016 194.864ZM198.016 195.672C197.696 195.672 197.427 195.696 197.208 195.744C196.989 195.787 196.821 195.853 196.704 195.944C196.592 196.035 196.536 196.149 196.536 196.288C196.536 196.427 196.592 196.544 196.704 196.64C196.821 196.731 196.989 196.8 197.208 196.848C197.427 196.891 197.696 196.912 198.016 196.912C198.336 196.912 198.605 196.891 198.824 196.848C199.043 196.8 199.208 196.731 199.32 196.64C199.432 196.544 199.488 196.427 199.488 196.288C199.488 196.149 199.432 196.035 199.32 195.944C199.208 195.853 199.043 195.787 198.824 195.744C198.605 195.696 198.336 195.672 198.016 195.672ZM196.04 191.04H196.904V191.512C196.904 191.981 196.829 192.429 196.68 192.856C196.531 193.283 196.301 193.659 195.992 193.984C195.688 194.304 195.299 194.544 194.824 194.704L194.288 193.864C194.592 193.763 194.853 193.627 195.072 193.456C195.296 193.285 195.477 193.096 195.616 192.888C195.76 192.675 195.867 192.451 195.936 192.216C196.005 191.981 196.04 191.747 196.04 191.512V191.04ZM196.264 191.04H197.112V191.504C197.112 191.797 197.171 192.085 197.288 192.368C197.405 192.651 197.587 192.907 197.832 193.136C198.083 193.365 198.403 193.547 198.792 193.68L198.272 194.512C197.813 194.357 197.435 194.131 197.136 193.832C196.843 193.528 196.624 193.176 196.48 192.776C196.336 192.371 196.264 191.947 196.264 191.504V191.04ZM194.576 190.752H198.56V191.592H194.576V190.752ZM205.463 191.872H207.183V192.736H205.463V191.872ZM203.383 190.752H204.239V191.552C204.239 192.053 204.167 192.525 204.023 192.968C203.879 193.411 203.655 193.797 203.351 194.128C203.053 194.453 202.669 194.701 202.199 194.872L201.639 194.04C201.949 193.933 202.213 193.795 202.431 193.624C202.65 193.453 202.829 193.259 202.967 193.04C203.106 192.816 203.21 192.579 203.279 192.328C203.349 192.077 203.383 191.819 203.383 191.552V190.752ZM203.607 190.752H204.455V191.56C204.455 191.8 204.487 192.035 204.551 192.264C204.615 192.493 204.714 192.712 204.847 192.92C204.981 193.128 205.151 193.315 205.359 193.48C205.573 193.64 205.823 193.771 206.111 193.872L205.551 194.688C205.109 194.523 204.743 194.285 204.455 193.976C204.167 193.667 203.954 193.304 203.815 192.888C203.677 192.472 203.607 192.029 203.607 191.56V190.752ZM206.815 190.304H207.887V195.768H206.815V190.304ZM202.983 196.728H208.047V197.584H202.983V196.728ZM202.983 195.224H204.047V197.208H202.983V195.224Z" fill="black"/>
</g>
<g id="Pyeongchang">
<path id="&#237;&#143;&#137;&#236;&#176;&#189;&#234;&#181;&#176;" d="M184.498 123.8L186.698 125.8L187.098 131.9L198.998 131.5L204.698 136.1L207.498 146.8L203.598 149.6L204.098 156.7L197.598 159.3L196.998 163L191.598 167.8L190.298 162.6L187.298 163.2L185.398 176.1L182.898 173.7L182.798 180.2L176.598 181.1L175.698 187.2L179.798 189.8L187.198 208.5L184.698 210.4L180.498 207.6L177.398 207.4L165.698 198.9L163.798 206.4L159.398 207.1L153.198 202.4L153.298 193.5L145.698 188.8L142.898 177.7L150.098 168.5L147.598 155.6L143.998 154.6L151.198 142.6L163.998 144.9L169.198 138.2L177.698 137.9L179.698 127.2L184.498 123.8Z" fill="#AFD88C" stroke="white" stroke-width="0.5"/>
<path id="&#237;&#143;&#137;&#236;&#176;&#189;" d="M166.592 161.488H168.072V162.336H166.592V161.488ZM166.592 162.88H168.072V163.728H166.592V162.88ZM162.504 160.784H166.416V161.64H162.504V160.784ZM162.432 164.56L162.328 163.696C162.723 163.696 163.16 163.693 163.64 163.688C164.12 163.677 164.608 163.661 165.104 163.64C165.6 163.613 166.069 163.573 166.512 163.52L166.576 164.296C166.117 164.376 165.643 164.435 165.152 164.472C164.661 164.509 164.181 164.533 163.712 164.544C163.248 164.555 162.821 164.56 162.432 164.56ZM163.096 161.504H164.12V164.008H163.096V161.504ZM164.816 161.504H165.832V164.008H164.816V161.504ZM167.456 160.304H168.528V164.832H167.456V160.304ZM166.016 164.944C166.805 164.944 167.424 165.064 167.872 165.304C168.325 165.544 168.552 165.885 168.552 166.328C168.552 166.765 168.325 167.104 167.872 167.344C167.424 167.589 166.805 167.712 166.016 167.712C165.232 167.712 164.613 167.589 164.16 167.344C163.707 167.104 163.48 166.765 163.48 166.328C163.48 165.885 163.707 165.544 164.16 165.304C164.613 165.064 165.232 164.944 166.016 164.944ZM166.016 165.752C165.696 165.752 165.424 165.773 165.2 165.816C164.981 165.853 164.816 165.917 164.704 166.008C164.592 166.093 164.536 166.2 164.536 166.328C164.536 166.525 164.659 166.672 164.904 166.768C165.155 166.864 165.525 166.912 166.016 166.912C166.341 166.912 166.613 166.891 166.832 166.848C167.051 166.805 167.213 166.741 167.32 166.656C167.432 166.571 167.488 166.461 167.488 166.328C167.488 166.2 167.432 166.093 167.32 166.008C167.213 165.917 167.051 165.853 166.832 165.816C166.613 165.773 166.341 165.752 166.016 165.752ZM171.343 161.6H172.207V161.872C172.207 162.304 172.133 162.712 171.983 163.096C171.834 163.475 171.605 163.805 171.295 164.088C170.991 164.371 170.602 164.581 170.127 164.72L169.631 163.888C170.031 163.776 170.357 163.616 170.607 163.408C170.863 163.2 171.05 162.963 171.167 162.696C171.285 162.424 171.343 162.149 171.343 161.872V161.6ZM171.543 161.6H172.407V161.872C172.407 162.123 172.466 162.371 172.583 162.616C172.706 162.856 172.893 163.072 173.143 163.264C173.394 163.456 173.717 163.605 174.111 163.712L173.631 164.536C173.162 164.408 172.773 164.213 172.463 163.952C172.154 163.685 171.922 163.373 171.767 163.016C171.618 162.659 171.543 162.277 171.543 161.872V161.6ZM169.887 161.072H173.871V161.904H169.887V161.072ZM171.343 160.272H172.407V161.4H171.343V160.272ZM174.447 160.304H175.511V164.768H174.447V160.304ZM175.223 162.032H176.495V162.912H175.223V162.032ZM173.095 164.904C173.613 164.904 174.058 164.96 174.431 165.072C174.805 165.184 175.093 165.344 175.295 165.552C175.498 165.76 175.599 166.013 175.599 166.312C175.599 166.749 175.375 167.091 174.927 167.336C174.485 167.587 173.874 167.712 173.095 167.712C172.578 167.712 172.133 167.656 171.759 167.544C171.386 167.432 171.095 167.272 170.887 167.064C170.685 166.856 170.583 166.605 170.583 166.312C170.583 166.013 170.685 165.76 170.887 165.552C171.095 165.344 171.386 165.184 171.759 165.072C172.133 164.96 172.578 164.904 173.095 164.904ZM173.095 165.712C172.781 165.712 172.514 165.733 172.295 165.776C172.082 165.819 171.919 165.885 171.807 165.976C171.701 166.061 171.647 166.173 171.647 166.312C171.647 166.44 171.701 166.549 171.807 166.64C171.919 166.725 172.082 166.789 172.295 166.832C172.514 166.875 172.781 166.896 173.095 166.896C173.41 166.896 173.674 166.875 173.887 166.832C174.106 166.789 174.269 166.725 174.375 166.64C174.487 166.549 174.543 166.44 174.543 166.312C174.543 166.173 174.487 166.061 174.375 165.976C174.269 165.885 174.106 165.819 173.887 165.776C173.674 165.733 173.41 165.712 173.095 165.712Z" fill="black"/>
</g>
<g id="Yeongwol">
<path id="&#236;&#152;&#129;&#236;&#155;&#148;&#234;&#181;&#176;" d="M145.699 188.8L153.299 193.5L153.199 202.4L159.399 207.1L163.799 206.4L165.699 198.9L177.299 207.4H177.399L180.499 207.6L184.699 210.3L185.099 217.9L190.199 218L193.099 223.7L207.099 218.9L225.499 228.8L221.499 234.8L223.999 235.9L222.699 240.6L226.999 241.1L225.299 244.8L222.999 243.5L222.299 245L210.599 237.5L207.399 247.7L201.799 245.9L194.599 242L190.899 238.6L180.299 238.3L174.999 232.7L165.999 236.5L160.899 227.8L150.199 231.7L145.899 227.6L150.099 225.8L154.399 218.9L152.299 217.7L146.299 220.2L138.699 213.8L137.299 206.3L130.499 210.4L127.099 210.2L126.199 206.1L127.399 202.1L133.399 202.5L135.799 199.5L135.699 191.3L142.099 192L145.699 188.8Z" fill="#AFD88C" stroke="white" stroke-width="0.5"/>
<path id="&#236;&#152;&#129;&#236;&#155;&#148;" d="M169.6 218.264H171.792V219.12H169.6V218.264ZM169.6 219.912H171.792V220.76H169.6V219.912ZM168.368 217.696C168.741 217.696 169.075 217.776 169.368 217.936C169.661 218.091 169.893 218.304 170.064 218.576C170.24 218.848 170.328 219.16 170.328 219.512C170.328 219.859 170.24 220.168 170.064 220.44C169.893 220.712 169.661 220.928 169.368 221.088C169.075 221.243 168.741 221.32 168.368 221.32C168.005 221.32 167.675 221.243 167.376 221.088C167.083 220.928 166.848 220.712 166.672 220.44C166.501 220.168 166.416 219.859 166.416 219.512C166.416 219.16 166.501 218.848 166.672 218.576C166.848 218.304 167.083 218.091 167.376 217.936C167.675 217.776 168.005 217.696 168.368 217.696ZM168.368 218.592C168.192 218.592 168.032 218.629 167.888 218.704C167.744 218.773 167.629 218.877 167.544 219.016C167.464 219.149 167.424 219.315 167.424 219.512C167.424 219.699 167.464 219.861 167.544 220C167.629 220.139 167.744 220.245 167.888 220.32C168.032 220.389 168.192 220.424 168.368 220.424C168.555 220.424 168.717 220.389 168.856 220.32C169 220.245 169.112 220.139 169.192 220C169.272 219.861 169.312 219.699 169.312 219.512C169.312 219.315 169.272 219.149 169.192 219.016C169.112 218.877 169 218.773 168.856 218.704C168.717 218.629 168.555 218.592 168.368 218.592ZM171.456 217.304H172.528V221.64H171.456V217.304ZM170.016 221.792C170.539 221.792 170.987 221.851 171.36 221.968C171.739 222.08 172.032 222.245 172.24 222.464C172.448 222.683 172.552 222.944 172.552 223.248C172.552 223.552 172.448 223.813 172.24 224.032C172.032 224.256 171.739 224.424 171.36 224.536C170.987 224.653 170.539 224.712 170.016 224.712C169.493 224.712 169.043 224.653 168.664 224.536C168.285 224.424 167.992 224.256 167.784 224.032C167.581 223.813 167.48 223.552 167.48 223.248C167.48 222.944 167.581 222.683 167.784 222.464C167.992 222.245 168.285 222.08 168.664 221.968C169.043 221.851 169.493 221.792 170.016 221.792ZM170.016 222.608C169.696 222.608 169.424 222.632 169.2 222.68C168.976 222.728 168.808 222.8 168.696 222.896C168.584 222.987 168.528 223.104 168.528 223.248C168.528 223.392 168.584 223.512 168.696 223.608C168.808 223.704 168.976 223.776 169.2 223.824C169.424 223.867 169.696 223.888 170.016 223.888C170.341 223.888 170.613 223.867 170.832 223.824C171.056 223.776 171.224 223.704 171.336 223.608C171.448 223.512 171.504 223.392 171.504 223.248C171.504 223.104 171.448 222.987 171.336 222.896C171.224 222.8 171.056 222.728 170.832 222.68C170.613 222.632 170.341 222.608 170.016 222.608ZM175.471 220.304H176.535V221.592H175.471V220.304ZM178.855 217.296H179.919V221.584H178.855V217.296ZM173.799 220.64L173.687 219.904C174.162 219.904 174.666 219.901 175.199 219.896C175.733 219.891 176.274 219.877 176.823 219.856C177.373 219.835 177.906 219.8 178.423 219.752L178.479 220.408C177.946 220.483 177.407 220.536 176.863 220.568C176.319 220.6 175.789 220.621 175.271 220.632C174.754 220.637 174.263 220.64 173.799 220.64ZM174.743 221.816H179.919V223.552H175.807V224.136H174.751V222.88H178.871V222.536H174.743V221.816ZM174.751 223.928H180.095V224.664H174.751V223.928ZM177.551 220.728H179.183V221.368H177.551V220.728ZM176.039 217.408C176.407 217.408 176.73 217.453 177.007 217.544C177.285 217.635 177.501 217.763 177.655 217.928C177.81 218.093 177.887 218.291 177.887 218.52C177.887 218.744 177.81 218.939 177.655 219.104C177.501 219.269 177.285 219.397 177.007 219.488C176.73 219.579 176.407 219.624 176.039 219.624C175.671 219.624 175.346 219.579 175.063 219.488C174.786 219.397 174.57 219.269 174.415 219.104C174.261 218.939 174.183 218.744 174.183 218.52C174.183 218.291 174.261 218.093 174.415 217.928C174.57 217.763 174.786 217.635 175.063 217.544C175.346 217.453 175.671 217.408 176.039 217.408ZM176.039 218.104C175.778 218.104 175.567 218.139 175.407 218.208C175.253 218.277 175.175 218.381 175.175 218.52C175.175 218.653 175.253 218.755 175.407 218.824C175.567 218.893 175.778 218.928 176.039 218.928C176.306 218.928 176.514 218.893 176.663 218.824C176.818 218.755 176.895 218.653 176.895 218.52C176.895 218.381 176.818 218.277 176.663 218.208C176.514 218.139 176.306 218.104 176.039 218.104Z" fill="black"/>
</g>
<g id="Hoengseong">
<path id="&#237;&#154;&#161;&#236;&#132;&#177;&#234;&#181;&#176;" d="M87.6996 184.4L87.5996 179.1L82.5996 174.3L93.4996 166.6L108.8 153.1L114.9 157L126.6 150.4L127.1 146.7L144 154.6L147.6 155.6L150.1 168.5L142.9 177.7L145.7 188.8L142.1 192L135.7 191.3L135.8 199.5L133.4 202.5L127.4 202.1L126.2 206.1L119.2 204.6L116.9 200.9L124.7 189.3L123.1 186.1L106.2 181.9L103.7 173.7L97.1996 179.9L95.9996 190.6L90.1996 183.2L87.6996 184.4Z" fill="#AFD88C" stroke="white" stroke-width="0.5"/>
<path id="&#237;&#154;&#161;&#236;&#132;&#177;" d="M123.432 168.304H124.496V173.296H123.432V168.304ZM118.576 168.816H122.92V169.568H118.576V168.816ZM120.744 169.736C121.117 169.736 121.44 169.781 121.712 169.872C121.989 169.957 122.205 170.08 122.36 170.24C122.515 170.4 122.592 170.592 122.592 170.816C122.592 171.029 122.515 171.219 122.36 171.384C122.205 171.549 121.989 171.677 121.712 171.768C121.44 171.853 121.117 171.896 120.744 171.896C120.376 171.896 120.053 171.853 119.776 171.768C119.504 171.677 119.291 171.549 119.136 171.384C118.987 171.219 118.912 171.029 118.912 170.816C118.912 170.592 118.987 170.4 119.136 170.24C119.291 170.08 119.504 169.957 119.776 169.872C120.053 169.781 120.376 169.736 120.744 169.736ZM120.744 170.432C120.493 170.432 120.293 170.464 120.144 170.528C119.995 170.592 119.92 170.688 119.92 170.816C119.92 170.944 119.995 171.04 120.144 171.104C120.293 171.168 120.493 171.2 120.744 171.2C121 171.2 121.203 171.168 121.352 171.104C121.501 171.04 121.576 170.944 121.576 170.816C121.576 170.688 121.501 170.592 121.352 170.528C121.203 170.464 121 170.432 120.744 170.432ZM120.216 168.24H121.288V169.208H120.216V168.24ZM120.216 171.552H121.288V172.584H120.216V171.552ZM118.488 173.096L118.368 172.304C118.805 172.304 119.285 172.301 119.808 172.296C120.331 172.285 120.864 172.264 121.408 172.232C121.957 172.2 122.485 172.152 122.992 172.088L123.072 172.8C122.549 172.885 122.016 172.952 121.472 173C120.933 173.043 120.408 173.069 119.896 173.08C119.389 173.091 118.92 173.096 118.488 173.096ZM122 173.368C122.805 173.368 123.429 173.469 123.872 173.672C124.315 173.869 124.536 174.16 124.536 174.544C124.536 174.923 124.315 175.211 123.872 175.408C123.429 175.611 122.805 175.712 122 175.712C121.195 175.712 120.571 175.611 120.128 175.408C119.685 175.211 119.464 174.923 119.464 174.544C119.464 174.16 119.685 173.869 120.128 173.672C120.571 173.469 121.195 173.368 122 173.368ZM122 174.12C121.499 174.12 121.128 174.155 120.888 174.224C120.653 174.288 120.536 174.395 120.536 174.544C120.536 174.688 120.653 174.795 120.888 174.864C121.128 174.928 121.499 174.96 122 174.96C122.507 174.96 122.877 174.928 123.112 174.864C123.347 174.795 123.464 174.688 123.464 174.544C123.464 174.395 123.347 174.288 123.112 174.224C122.877 174.155 122.507 174.12 122 174.12ZM127.407 168.688H128.287V169.344C128.287 169.84 128.21 170.307 128.055 170.744C127.906 171.181 127.677 171.563 127.367 171.888C127.058 172.213 126.661 172.459 126.175 172.624L125.615 171.768C126.042 171.635 126.386 171.443 126.647 171.192C126.909 170.941 127.101 170.656 127.223 170.336C127.346 170.016 127.407 169.685 127.407 169.344V168.688ZM127.623 168.688H128.487V169.296C128.487 169.621 128.543 169.936 128.655 170.24C128.767 170.539 128.946 170.805 129.191 171.04C129.437 171.269 129.754 171.448 130.143 171.576L129.591 172.408C129.138 172.248 128.765 172.016 128.471 171.712C128.183 171.408 127.97 171.051 127.831 170.64C127.693 170.224 127.623 169.776 127.623 169.296V168.688ZM130.815 168.304H131.887V172.64H130.815V168.304ZM129.375 172.832C130.159 172.832 130.778 172.96 131.231 173.216C131.685 173.467 131.911 173.816 131.911 174.264C131.911 174.723 131.685 175.077 131.231 175.328C130.778 175.584 130.159 175.712 129.375 175.712C128.591 175.712 127.973 175.584 127.519 175.328C127.066 175.077 126.839 174.723 126.839 174.264C126.839 173.816 127.066 173.467 127.519 173.216C127.973 172.96 128.591 172.832 129.375 172.832ZM129.375 173.656C129.055 173.656 128.786 173.677 128.567 173.72C128.349 173.763 128.181 173.832 128.063 173.928C127.951 174.019 127.895 174.131 127.895 174.264C127.895 174.403 127.951 174.52 128.063 174.616C128.181 174.707 128.349 174.776 128.567 174.824C128.786 174.867 129.055 174.888 129.375 174.888C129.695 174.888 129.965 174.867 130.183 174.824C130.402 174.776 130.567 174.707 130.679 174.616C130.791 174.52 130.847 174.403 130.847 174.264C130.847 174.131 130.791 174.019 130.679 173.928C130.567 173.832 130.402 173.763 130.183 173.72C129.965 173.677 129.695 173.656 129.375 173.656ZM129.463 169.648H130.975V170.512H129.463V169.648Z" fill="black"/>
</g>
<g id="Hongcheon">
<path id="&#237;&#153;&#141;&#236;&#178;&#156;&#234;&#181;&#176;" d="M111.5 105.7L115.9 105.2L123.6 112.4L132.1 112.8L138.1 125.6L148.9 116.8L155.3 123.4L162.1 116.9L163.6 114L167.3 117.2L171.9 112.8L179.2 113L183.3 117L185.1 117.5L184.5 123.8L179.7 127.2L177.7 137.9L169.2 138.2L164 144.9L151.2 142.6L144 154.6L127.1 146.7L126.6 150.4L114.9 157L108.8 153.1L93.4996 166.6L87.1996 161.7L76.0996 161.3L63.2996 151.2L57.5996 154.8L54.5996 151.8L57.5996 139.1L61.7996 140.3L63.7996 147.4L67.0996 143.8L68.4996 146.8L80.3996 137H91.4996L94.5996 132.8L91.1996 128.8L89.0996 122.6L96.2996 122L98.6996 118L103.9 123.7L111.5 105.7Z" fill="#AFD88C" stroke="white" stroke-width="0.5"/>
<path id="&#237;&#153;&#141;&#236;&#178;&#156;" d="M116.656 136.408C117.477 136.408 118.112 136.507 118.56 136.704C119.008 136.901 119.232 137.187 119.232 137.56C119.232 137.939 119.008 138.224 118.56 138.416C118.112 138.613 117.477 138.712 116.656 138.712C115.84 138.712 115.208 138.613 114.76 138.416C114.312 138.224 114.088 137.939 114.088 137.56C114.088 137.187 114.312 136.901 114.76 136.704C115.208 136.507 115.84 136.408 116.656 136.408ZM116.664 137.176C116.147 137.176 115.768 137.205 115.528 137.264C115.288 137.323 115.168 137.424 115.168 137.568C115.168 137.701 115.288 137.8 115.528 137.864C115.768 137.923 116.147 137.952 116.664 137.952C117.176 137.952 117.549 137.923 117.784 137.864C118.024 137.8 118.144 137.701 118.144 137.568C118.144 137.424 118.024 137.323 117.784 137.264C117.549 137.205 117.176 137.176 116.664 137.176ZM113.64 131.832H119.68V132.632H113.64V131.832ZM116.672 132.824C117.472 132.824 118.085 132.915 118.512 133.096C118.939 133.272 119.152 133.536 119.152 133.888C119.152 134.235 118.939 134.499 118.512 134.68C118.085 134.856 117.472 134.944 116.672 134.944C115.883 134.944 115.272 134.856 114.84 134.68C114.408 134.499 114.192 134.235 114.192 133.888C114.192 133.536 114.408 133.272 114.84 133.096C115.272 132.915 115.883 132.824 116.672 132.824ZM116.672 133.536C116.219 133.536 115.883 133.565 115.664 133.624C115.445 133.677 115.336 133.765 115.336 133.888C115.336 134.005 115.445 134.091 115.664 134.144C115.883 134.197 116.219 134.224 116.672 134.224C117.136 134.224 117.475 134.197 117.688 134.144C117.907 134.091 118.016 134.005 118.016 133.888C118.016 133.765 117.907 133.677 117.688 133.624C117.475 133.565 117.136 133.536 116.672 133.536ZM116.144 131.24H117.2V132.384H116.144V131.24ZM113.32 135.304H120.024V136.128H113.32V135.304ZM116.144 134.608H117.2V135.648H116.144V134.608ZM122.343 132.752H123.215V133.032C123.215 133.485 123.141 133.912 122.991 134.312C122.842 134.712 122.615 135.061 122.311 135.36C122.007 135.659 121.621 135.885 121.151 136.04L120.631 135.208C121.031 135.08 121.357 134.904 121.607 134.68C121.863 134.451 122.05 134.195 122.167 133.912C122.285 133.624 122.343 133.331 122.343 133.032V132.752ZM122.543 132.752H123.407V133.032C123.407 133.309 123.466 133.584 123.583 133.856C123.706 134.123 123.895 134.365 124.151 134.584C124.407 134.797 124.733 134.963 125.127 135.08L124.623 135.912C124.154 135.773 123.765 135.563 123.455 135.28C123.151 134.992 122.922 134.656 122.767 134.272C122.618 133.883 122.543 133.469 122.543 133.032V132.752ZM120.887 132.176H124.871V133.008H120.887V132.176ZM122.343 131.352H123.407V132.488H122.343V131.352ZM124.631 133.456H126.351V134.32H124.631V133.456ZM125.815 131.304H126.887V136.784H125.815V131.304ZM121.991 137.728H127.055V138.584H121.991V137.728ZM121.991 136.328H123.055V138.288H121.991V136.328Z" fill="black"/>
</g>
<g id="Samcheok">
<path id="&#236;&#130;&#188;&#236;&#178;&#153;&#236;&#139;&#156;" d="M260.499 179.8L261.999 186.2L269.499 191.5L270.999 200.4L282.299 213.9L280.399 220.5L283.499 227.8L275.399 231.3L266.399 239.4L268.099 244.9L261.499 244.5L250.099 235.5L249.099 226.5L237.999 219.7L236.599 213.7L239.999 203.9L237.299 198.6L233.699 198.8L226.299 217.7L219.899 204.1L222.299 201L218.199 198.6L225.099 183.2L231.899 181.7L237.799 184.7L244.099 179.6L254.399 178.8L257.099 176.7L260.499 179.8Z" fill="#AFD88C" stroke="white" stroke-width="0.5"/>
<path id="&#236;&#130;&#188;&#236;&#178;&#153;" d="M251.984 203.68H252.864V204.304C252.864 204.789 252.789 205.251 252.64 205.688C252.491 206.12 252.261 206.499 251.952 206.824C251.648 207.144 251.259 207.387 250.784 207.552L250.224 206.712C250.64 206.573 250.976 206.379 251.232 206.128C251.493 205.877 251.683 205.595 251.8 205.28C251.923 204.96 251.984 204.635 251.984 204.304V203.68ZM252.208 203.68H253.064V204.28C253.064 204.509 253.096 204.739 253.16 204.968C253.224 205.192 253.323 205.405 253.456 205.608C253.589 205.805 253.76 205.981 253.968 206.136C254.181 206.291 254.435 206.419 254.728 206.52L254.168 207.344C253.725 207.184 253.357 206.952 253.064 206.648C252.771 206.344 252.555 205.989 252.416 205.584C252.277 205.179 252.208 204.744 252.208 204.28V203.68ZM255.088 203.304H256.152V207.584H255.088V203.304ZM255.864 204.976H257.136V205.848H255.864V204.976ZM251.336 207.872H256.152V210.632H251.336V207.872ZM255.112 208.704H252.384V209.792H255.112V208.704ZM261.607 205.312H262.999V206.168H261.607V205.312ZM258.831 208.104H263.887V210.712H262.815V208.952H258.831V208.104ZM262.815 203.304H263.887V207.784H262.815V203.304ZM259.343 204.664H260.207V204.928C260.207 205.36 260.133 205.771 259.983 206.16C259.834 206.544 259.605 206.88 259.295 207.168C258.991 207.451 258.605 207.661 258.135 207.8L257.631 206.968C258.031 206.851 258.357 206.688 258.607 206.48C258.863 206.267 259.05 206.024 259.167 205.752C259.285 205.48 259.343 205.205 259.343 204.928V204.664ZM259.543 204.664H260.407V204.928C260.407 205.189 260.469 205.448 260.591 205.704C260.714 205.955 260.901 206.181 261.151 206.384C261.407 206.581 261.733 206.736 262.127 206.848L261.639 207.672C261.17 207.539 260.778 207.336 260.463 207.064C260.154 206.792 259.922 206.472 259.767 206.104C259.618 205.736 259.543 205.344 259.543 204.928V204.664ZM257.887 204.072H261.871V204.904H257.887V204.072ZM259.343 203.272H260.407V204.432H259.343V203.272Z" fill="black"/>
</g>
<g id="Sokcho">
<path id="&#236;&#134;&#141;&#236;&#180;&#136;&#236;&#139;&#156;" d="M184.098 59.7998L187.098 70.6998L169.398 77.3998L163.898 68.4998L166.498 64.1998L171.298 66.6998L184.098 59.7998Z" fill="#AFD88C" stroke="white" stroke-width="0.5"/>
<path id="&#236;&#134;&#141;&#236;&#180;&#136;" d="M166.42 70.0962H173.132V70.9362H166.42V70.0962ZM169.228 69.1362H170.292V70.4642H169.228V69.1362ZM169.22 66.6322H170.132V66.8562C170.132 67.1282 170.089 67.3895 170.004 67.6402C169.918 67.8855 169.793 68.1122 169.628 68.3202C169.462 68.5282 169.26 68.7175 169.02 68.8882C168.78 69.0535 168.502 69.1949 168.188 69.3122C167.878 69.4295 167.532 69.5149 167.148 69.5682L166.756 68.7282C167.092 68.6909 167.39 68.6295 167.652 68.5442C167.918 68.4535 168.148 68.3469 168.34 68.2242C168.537 68.1015 168.7 67.9655 168.828 67.8162C168.961 67.6669 169.06 67.5122 169.124 67.3522C169.188 67.1869 169.22 67.0215 169.22 66.8562V66.6322ZM169.396 66.6322H170.3V66.8562C170.3 67.0269 170.332 67.1949 170.396 67.3602C170.46 67.5255 170.556 67.6829 170.684 67.8322C170.812 67.9762 170.972 68.1095 171.164 68.2322C171.361 68.3549 171.593 68.4589 171.86 68.5442C172.126 68.6295 172.428 68.6909 172.764 68.7282L172.372 69.5682C171.993 69.5149 171.646 69.4295 171.332 69.3122C171.022 69.1949 170.745 69.0562 170.5 68.8962C170.26 68.7309 170.057 68.5442 169.892 68.3362C169.726 68.1229 169.601 67.8935 169.516 67.6482C169.436 67.4029 169.396 67.1389 169.396 66.8562V66.6322ZM167.164 71.4562H172.316V73.9122H171.252V72.2962H167.164V71.4562ZM173.787 72.2082H180.499V73.0722H173.787V72.2082ZM176.611 70.7762H177.667V72.6482H176.611V70.7762ZM176.603 68.0402H177.539V68.2002C177.539 68.5575 177.47 68.8935 177.331 69.2082C177.192 69.5175 176.987 69.7975 176.715 70.0482C176.448 70.2989 176.12 70.5095 175.731 70.6802C175.342 70.8509 174.891 70.9682 174.379 71.0322L173.995 70.1842C174.448 70.1309 174.838 70.0402 175.163 69.9122C175.494 69.7789 175.763 69.6189 175.971 69.4322C176.184 69.2455 176.342 69.0482 176.443 68.8402C176.55 68.6269 176.603 68.4135 176.603 68.2002V68.0402ZM176.739 68.0402H177.675V68.2002C177.675 68.4135 177.726 68.6269 177.827 68.8402C177.934 69.0482 178.091 69.2455 178.299 69.4322C178.512 69.6189 178.784 69.7789 179.115 69.9122C179.446 70.0402 179.835 70.1309 180.283 70.1842L179.899 71.0322C179.387 70.9682 178.936 70.8509 178.547 70.6802C178.158 70.5095 177.827 70.2989 177.555 70.0482C177.288 69.7975 177.086 69.5175 176.947 69.2082C176.808 68.8935 176.739 68.5575 176.739 68.2002V68.0402ZM174.355 67.5042H179.915V68.3522H174.355V67.5042ZM176.611 66.6002H177.667V67.8482H176.611V66.6002Z" fill="black"/>
</g>
<g id="Taebaek">
<path id="&#237;&#131;&#156;&#235;&#176;&#177;&#236;&#139;&#156;" d="M237.3 198.8L239.9 204.1L236.5 213.9L238 219.9L249.1 226.7L250.1 235.7L245.7 241.2L233.1 239.5L231.3 237L228.3 237.4L227 241.1L222.7 240.6L224 235.9L221.5 234.8L225.5 228.8L226.3 217.9L233.7 198.9L237.3 198.8Z" fill="#AFD88C" stroke="white" stroke-width="0.5"/>
<path id="&#237;&#131;&#156;&#235;&#176;&#177;" d="M229.568 230.144H230.088C230.451 230.144 230.773 230.141 231.056 230.136C231.344 230.125 231.619 230.112 231.88 230.096C232.147 230.075 232.416 230.043 232.688 230L232.776 230.856C232.499 230.904 232.224 230.941 231.952 230.968C231.68 230.989 231.395 231.003 231.096 231.008C230.797 231.013 230.461 231.016 230.088 231.016H229.568V230.144ZM229.568 226.064H232.56V226.912H230.584V230.496H229.568V226.064ZM230.288 228.008H232.416V228.824H230.288V228.008ZM234.672 225.296H235.688V232.704H234.672V225.296ZM233.784 228.168H235.016V229.024H233.784V228.168ZM233.08 225.416H234.072V232.376H233.08V225.416ZM236.943 225.768H237.943V226.816H238.887V225.768H239.871V229.36H236.943V225.768ZM237.943 227.624V228.52H238.887V227.624H237.943ZM241.983 225.304H242.999V229.76H241.983V225.304ZM241.103 227.112H242.279V227.968H241.103V227.112ZM240.423 225.432H241.415V229.736H240.423V225.432ZM237.903 230.104H242.999V232.712H241.935V230.944H237.903V230.104Z" fill="black"/>
</g>
<g id="Donghae">
<path id="&#235;&#143;&#153;&#237;&#149;&#180;&#236;&#139;&#156;" d="M255.2 173.6L257.2 176.8L254.5 178.9L244.2 179.7L237.9 184.8L232 181.8L235.9 175.8L232.4 171.2L232.5 171.1L233.7 168.1L242.8 165.9L244.1 158H244.2L245.6 157.4V157.3L251.1 160.2V167.2L255.7 173.3L255.2 173.6Z" fill="#AFD88C" stroke="white" stroke-width="0.5"/>
<path id="&#235;&#143;&#153;&#237;&#149;&#180;" d="M237.336 172.084H244.032V172.924H237.336V172.084ZM240.152 170.972H241.216V172.412H240.152V170.972ZM238.144 170.636H243.272V171.468H238.144V170.636ZM238.144 168.916H243.232V169.756H239.2V171.164H238.144V168.916ZM240.656 173.292C241.456 173.292 242.085 173.412 242.544 173.652C243.003 173.886 243.232 174.222 243.232 174.66C243.232 175.092 243.003 175.425 242.544 175.66C242.085 175.9 241.456 176.02 240.656 176.02C239.856 176.02 239.227 175.9 238.768 175.66C238.315 175.425 238.088 175.092 238.088 174.66C238.088 174.222 238.315 173.886 238.768 173.652C239.227 173.412 239.856 173.292 240.656 173.292ZM240.656 174.1C240.325 174.1 240.048 174.121 239.824 174.164C239.605 174.201 239.44 174.262 239.328 174.348C239.216 174.428 239.16 174.529 239.16 174.652C239.16 174.78 239.216 174.886 239.328 174.972C239.44 175.052 239.605 175.113 239.824 175.156C240.048 175.193 240.325 175.212 240.656 175.212C240.987 175.212 241.261 175.193 241.48 175.156C241.704 175.113 241.872 175.052 241.984 174.972C242.096 174.886 242.152 174.78 242.152 174.652C242.152 174.529 242.096 174.428 241.984 174.348C241.872 174.262 241.704 174.201 241.48 174.164C241.261 174.121 240.987 174.1 240.656 174.1ZM244.679 169.716H248.223V170.556H244.679V169.716ZM246.463 170.892C246.778 170.892 247.055 170.966 247.295 171.116C247.541 171.265 247.733 171.473 247.871 171.74C248.015 172.001 248.087 172.305 248.087 172.652C248.087 172.998 248.015 173.305 247.871 173.572C247.733 173.833 247.541 174.038 247.295 174.188C247.055 174.337 246.778 174.412 246.463 174.412C246.149 174.412 245.869 174.337 245.623 174.188C245.378 174.038 245.186 173.833 245.047 173.572C244.909 173.305 244.839 172.998 244.839 172.652C244.839 172.305 244.909 172.001 245.047 171.74C245.186 171.473 245.378 171.265 245.623 171.116C245.874 170.966 246.154 170.892 246.463 170.892ZM246.463 171.772C246.335 171.772 246.218 171.806 246.111 171.876C246.005 171.945 245.922 172.046 245.863 172.18C245.805 172.308 245.775 172.465 245.775 172.652C245.775 172.838 245.805 172.998 245.863 173.132C245.922 173.265 246.005 173.366 246.111 173.436C246.218 173.5 246.335 173.532 246.463 173.532C246.597 173.532 246.714 173.5 246.815 173.436C246.917 173.366 246.997 173.265 247.055 173.132C247.114 172.998 247.143 172.838 247.143 172.652C247.143 172.465 247.114 172.308 247.055 172.18C246.997 172.046 246.917 171.945 246.815 171.876C246.714 171.806 246.597 171.772 246.463 171.772ZM250.039 168.596H251.047V176.004H250.039V168.596ZM249.151 171.612H250.367V172.468H249.151V171.612ZM248.479 168.732H249.471V175.692H248.479V168.732ZM245.943 168.796H246.991V170.244H245.943V168.796Z" fill="black"/>
</g>
<g id="Gangneung">
<path id="&#234;&#176;&#149;&#235;&#166;&#137;&#236;&#139;&#156;" d="M204.1 156.7L203.6 149.6L207.5 146.7L204.7 136L199 131.4L187.1 131.9L186.7 125.7L184.5 123.8L185.1 117.4L191.8 112.2L201.2 110.8V110.9L204.6 110.1V110L204.7 109.7L209.5 109.1L212.3 108.5L243.4 145.9L242.6 149.9L245.6 157.4V157.5L244.2 158.1H244.1L242.8 166L233.7 168.2L225.2 165.4L222.5 159.1L218.3 171.3L213.9 173.3L211 167.7L204.4 166.5L202.2 169.5L197 163L197.6 159.2L204.1 156.7Z" fill="#AFD88C" stroke="white" stroke-width="0.5"/>
<path id="&#234;&#176;&#149;&#235;&#166;&#137;" d="M214.088 131.296H215.152V135.584H214.088V131.296ZM214.864 133.024H216.136V133.904H214.864V133.024ZM211.976 131.784H213.12C213.12 132.445 212.987 133.04 212.72 133.568C212.453 134.091 212.064 134.536 211.552 134.904C211.045 135.272 210.429 135.557 209.704 135.76L209.272 134.912C209.864 134.747 210.36 134.536 210.76 134.28C211.165 134.019 211.469 133.723 211.672 133.392C211.875 133.056 211.976 132.696 211.976 132.312V131.784ZM209.616 131.784H212.616V132.632H209.616V131.784ZM212.752 135.68C213.253 135.68 213.691 135.744 214.064 135.872C214.437 135.995 214.725 136.171 214.928 136.4C215.136 136.624 215.24 136.891 215.24 137.2C215.24 137.509 215.136 137.776 214.928 138C214.725 138.229 214.437 138.405 214.064 138.528C213.691 138.651 213.253 138.712 212.752 138.712C212.256 138.712 211.821 138.651 211.448 138.528C211.075 138.405 210.784 138.229 210.576 138C210.368 137.776 210.264 137.509 210.264 137.2C210.264 136.891 210.368 136.624 210.576 136.4C210.784 136.171 211.075 135.995 211.448 135.872C211.821 135.744 212.256 135.68 212.752 135.68ZM212.752 136.504C212.459 136.504 212.203 136.531 211.984 136.584C211.771 136.637 211.605 136.715 211.488 136.816C211.376 136.917 211.32 137.045 211.32 137.2C211.32 137.349 211.376 137.475 211.488 137.576C211.605 137.677 211.771 137.755 211.984 137.808C212.203 137.861 212.459 137.888 212.752 137.888C213.056 137.888 213.315 137.861 213.528 137.808C213.741 137.755 213.904 137.677 214.016 137.576C214.133 137.475 214.192 137.349 214.192 137.2C214.192 137.045 214.133 136.917 214.016 136.816C213.904 136.715 213.741 136.637 213.528 136.584C213.315 136.531 213.056 136.504 212.752 136.504ZM216.687 135.144H223.391V135.976H216.687V135.144ZM217.503 131.488H222.575V133.472H218.567V134.288H217.519V132.728H221.527V132.296H217.503V131.488ZM217.519 133.92H222.719V134.728H217.519V133.92ZM220.015 136.344C220.842 136.344 221.482 136.445 221.935 136.648C222.389 136.851 222.615 137.147 222.615 137.536C222.615 137.92 222.389 138.213 221.935 138.416C221.482 138.624 220.842 138.728 220.015 138.728C219.194 138.728 218.554 138.624 218.095 138.416C217.642 138.213 217.415 137.92 217.415 137.536C217.415 137.147 217.642 136.851 218.095 136.648C218.554 136.445 219.194 136.344 220.015 136.344ZM220.023 137.12C219.501 137.12 219.114 137.155 218.863 137.224C218.618 137.288 218.495 137.392 218.495 137.536C218.495 137.632 218.549 137.712 218.655 137.776C218.767 137.835 218.935 137.88 219.159 137.912C219.383 137.939 219.669 137.952 220.015 137.952C220.367 137.952 220.655 137.939 220.879 137.912C221.109 137.88 221.277 137.835 221.383 137.776C221.49 137.712 221.543 137.632 221.543 137.536C221.543 137.392 221.421 137.288 221.175 137.224C220.93 137.155 220.546 137.12 220.023 137.12Z" fill="black"/>
</g>
<g id="Wonju">
<path id="&#236;&#155;&#144;&#236;&#163;&#188;&#236;&#139;&#156;" d="M87.6985 184.4L90.1985 183.2L95.9984 190.6L97.1985 179.9L103.698 173.7L106.198 181.9L123.098 186.1L124.698 189.3L116.898 200.9L119.198 204.6L126.198 206.1L127.098 210.2L130.498 210.4L137.298 206.3L138.698 213.8L133.298 219.4L128.398 216.1L126.298 220.7L117.898 223.3L114.998 214.5L109.198 212.8L102.998 217.6L103.598 227.1L101.298 226.8L100.098 229.5L96.7984 227.3L86.3984 230.6L80.8984 219.6L80.9984 219.4L81.1984 214.9L82.5984 195.6L87.6985 184.4Z" fill="#AFD88C" stroke="white" stroke-width="0.5"/>
<path id="&#236;&#155;&#144;&#236;&#163;&#188;" d="M95.256 202.104H96.32V203.72H95.256V202.104ZM98.496 198.296H99.56V203.912H98.496V198.296ZM94.224 204.728H99.728V205.584H94.224V204.728ZM94.224 203.376H95.288V204.96H94.224V203.376ZM93.432 202.424L93.296 201.576C93.7493 201.571 94.2427 201.565 94.776 201.56C95.3093 201.549 95.8533 201.528 96.408 201.496C96.9627 201.464 97.496 201.416 98.008 201.352L98.08 202.112C97.552 202.203 97.0133 202.272 96.464 202.32C95.92 202.363 95.3893 202.389 94.872 202.4C94.3547 202.411 93.8747 202.419 93.432 202.424ZM97.104 202.6H98.736V203.328H97.104V202.6ZM95.68 198.552C96.0427 198.552 96.3627 198.608 96.64 198.72C96.9173 198.832 97.1333 198.987 97.288 199.184C97.448 199.381 97.528 199.613 97.528 199.88C97.528 200.141 97.448 200.373 97.288 200.576C97.1333 200.773 96.9173 200.925 96.64 201.032C96.3627 201.139 96.0427 201.192 95.68 201.192C95.3173 201.192 94.9947 201.139 94.712 201.032C94.4347 200.925 94.2187 200.773 94.064 200.576C93.9093 200.373 93.832 200.141 93.832 199.88C93.832 199.613 93.9093 199.381 94.064 199.184C94.2187 198.987 94.4347 198.832 94.712 198.72C94.9947 198.608 95.3173 198.552 95.68 198.552ZM95.68 199.328C95.4347 199.328 95.232 199.373 95.072 199.464C94.9173 199.555 94.84 199.693 94.84 199.88C94.84 200.056 94.9173 200.192 95.072 200.288C95.232 200.379 95.4347 200.424 95.68 200.424C95.9307 200.424 96.1307 200.379 96.28 200.288C96.4347 200.192 96.512 200.056 96.512 199.88C96.512 199.757 96.4773 199.656 96.408 199.576C96.3387 199.496 96.2427 199.435 96.12 199.392C95.9973 199.349 95.8507 199.328 95.68 199.328ZM103.423 199.12H104.351V199.344C104.351 199.6 104.309 199.848 104.223 200.088C104.143 200.328 104.021 200.552 103.855 200.76C103.69 200.963 103.487 201.147 103.247 201.312C103.013 201.472 102.741 201.608 102.431 201.72C102.122 201.832 101.778 201.912 101.399 201.96L101.007 201.136C101.338 201.093 101.631 201.029 101.887 200.944C102.149 200.853 102.375 200.749 102.567 200.632C102.759 200.509 102.919 200.379 103.047 200.24C103.175 200.101 103.269 199.955 103.327 199.8C103.391 199.645 103.423 199.493 103.423 199.344V199.12ZM103.735 199.12H104.655V199.344C104.655 199.493 104.685 199.645 104.743 199.8C104.807 199.955 104.903 200.101 105.031 200.24C105.159 200.379 105.319 200.509 105.511 200.632C105.709 200.749 105.935 200.853 106.191 200.944C106.447 201.029 106.741 201.093 107.071 201.136L106.679 201.96C106.301 201.912 105.957 201.832 105.647 201.72C105.338 201.608 105.063 201.472 104.823 201.312C104.589 201.147 104.389 200.963 104.223 200.76C104.063 200.552 103.941 200.328 103.855 200.088C103.775 199.848 103.735 199.6 103.735 199.344V199.12ZM103.479 203H104.543V205.712H103.479V203ZM100.687 202.384H107.391V203.24H100.687V202.384ZM101.279 198.68H106.775V199.52H101.279V198.68Z" fill="black"/>
</g>
<g id="Chuncheon">
<path id="&#236;&#182;&#152;&#236;&#178;&#156;&#236;&#139;&#156;" d="M111.5 105.7L103.9 123.7L98.6996 118L96.2996 122L89.0996 122.6L91.1996 128.8L94.5996 132.8L91.4996 137H80.3996L68.4996 146.8L67.0996 143.8L63.7996 147.4L61.7996 140.3L57.5996 139.1L51.0996 140.4L55.7996 134.2L52.7996 129.1L53.3996 122.8L63.2996 116L64.5996 107.9L62.5996 103.4L55.7996 101.7L55.1996 96.5999L59.8996 90.3999L59.2996 83.3999L68.9996 88.0999L69.2996 92.8999L74.9996 90.6999L77.7996 92.7999L80.6996 90.3999L85.8996 97.4999L90.6996 96.4999L94.4996 93.5999L93.8996 88.6999L94.0996 88.3999L99.9996 88.5999L104 94.3999L106.5 90.4999L111.3 96.1999L113.7 93.4999L115.7 94.1999L110.1 98.1999L111.5 105.7Z" fill="#AFD88C" stroke="white" stroke-width="0.5"/>
<path id="&#236;&#182;&#152;&#236;&#178;&#156;" d="M75.136 108.328H76.2V109.416H75.136V108.328ZM75.072 109.496H76.008V109.64C76.008 109.933 75.9413 110.205 75.808 110.456C75.68 110.701 75.4853 110.92 75.224 111.112C74.968 111.304 74.648 111.461 74.264 111.584C73.88 111.707 73.4373 111.789 72.936 111.832L72.6 111.024C73.048 110.987 73.4267 110.925 73.736 110.84C74.0507 110.749 74.304 110.643 74.496 110.52C74.6933 110.392 74.8373 110.251 74.928 110.096C75.024 109.941 75.072 109.789 75.072 109.64V109.496ZM75.328 109.496H76.264V109.64C76.264 109.789 76.3093 109.941 76.4 110.096C76.4907 110.251 76.632 110.392 76.824 110.52C77.0213 110.643 77.2773 110.749 77.592 110.84C77.9067 110.925 78.2853 110.987 78.728 111.024L78.4 111.832C77.8987 111.789 77.456 111.707 77.072 111.584C76.688 111.461 76.3653 111.304 76.104 111.112C75.848 110.92 75.6533 110.701 75.52 110.456C75.392 110.205 75.328 109.933 75.328 109.64V109.496ZM72.96 109.016H78.376V109.84H72.96V109.016ZM72.32 112.128H79.032V112.96H72.32V112.128ZM75.232 112.576H76.296V114.144H75.232V112.576ZM73.096 114.728H78.288V115.584H73.096V114.728ZM73.096 113.512H74.16V115.072H73.096V113.512ZM81.3434 109.752H82.2154V110.032C82.2154 110.485 82.1407 110.912 81.9914 111.312C81.842 111.712 81.6154 112.061 81.3114 112.36C81.0074 112.659 80.6207 112.885 80.1514 113.04L79.6314 112.208C80.0314 112.08 80.3567 111.904 80.6074 111.68C80.8634 111.451 81.05 111.195 81.1674 110.912C81.2847 110.624 81.3434 110.331 81.3434 110.032V109.752ZM81.5434 109.752H82.4074V110.032C82.4074 110.309 82.466 110.584 82.5834 110.856C82.706 111.123 82.8954 111.365 83.1514 111.584C83.4074 111.797 83.7327 111.963 84.1274 112.08L83.6234 112.912C83.154 112.773 82.7647 112.563 82.4554 112.28C82.1514 111.992 81.922 111.656 81.7674 111.272C81.618 110.883 81.5434 110.469 81.5434 110.032V109.752ZM79.8874 109.176H83.8714V110.008H79.8874V109.176ZM81.3434 108.352H82.4074V109.488H81.3434V108.352ZM83.6314 110.456H85.3514V111.32H83.6314V110.456ZM84.8154 108.304H85.8874V113.784H84.8154V108.304ZM80.9914 114.728H86.0554V115.584H80.9914V114.728ZM80.9914 113.328H82.0554V115.288H80.9914V113.328Z" fill="black"/>
</g>
</g>
</svg>
