<svg width="50" height="34" viewBox="0 0 50 34" fill="none" xmlns="http://www.w3.org/2000/svg">
<g id="gwangju">
<g id="Gwangsan">
<path id="&#234;&#180;&#145;&#236;&#130;&#176;&#234;&#181;&#172;" d="M1.70039 23.4L0.400391 18.4L3.90039 14.4L1.50039 11.3L9.50039 8.29999L15.3004 1L14.7004 4.90002L24.9004 5.79999L28.1004 12.5L25.3004 13.6L20.6004 26.9L16.5004 30.5L11.6004 23.8L1.70039 23.4Z" fill="#AFD88C" stroke="white" stroke-width="0.5"/>
<path id="&#234;&#180;&#145;&#236;&#130;&#176;" d="M11.246 14.639H12.434V14.954H11.246V14.639ZM11.588 15.26H11.981V15.944H11.588V15.26ZM12.275 14.639H12.671V14.819C12.671 14.911 12.668 15.018 12.662 15.14C12.656 15.262 12.637 15.399 12.605 15.551L12.218 15.518C12.248 15.37 12.265 15.24 12.269 15.128C12.273 15.014 12.275 14.911 12.275 14.819V14.639ZM12.938 14.486H13.34V16.181H12.938V14.486ZM13.184 15.17H13.673V15.497H13.184V15.17ZM11.12 16.067L11.081 15.749C11.249 15.749 11.429 15.748 11.621 15.746C11.815 15.744 12.012 15.738 12.212 15.728C12.412 15.716 12.604 15.699 12.788 15.677L12.815 15.959C12.625 15.991 12.431 16.015 12.233 16.031C12.035 16.045 11.841 16.055 11.651 16.061C11.463 16.065 11.286 16.067 11.12 16.067ZM12.404 16.211C12.602 16.211 12.772 16.232 12.914 16.274C13.058 16.316 13.169 16.376 13.247 16.454C13.325 16.532 13.364 16.626 13.364 16.736C13.364 16.846 13.325 16.94 13.247 17.018C13.169 17.098 13.058 17.159 12.914 17.201C12.772 17.243 12.602 17.264 12.404 17.264C12.208 17.264 12.037 17.243 11.891 17.201C11.747 17.159 11.636 17.098 11.558 17.018C11.48 16.94 11.441 16.846 11.441 16.736C11.441 16.626 11.48 16.532 11.558 16.454C11.636 16.376 11.747 16.316 11.891 16.274C12.037 16.232 12.208 16.211 12.404 16.211ZM12.404 16.517C12.224 16.517 12.086 16.535 11.99 16.571C11.896 16.607 11.849 16.662 11.849 16.736C11.849 16.808 11.896 16.862 11.99 16.898C12.086 16.934 12.224 16.952 12.404 16.952C12.582 16.952 12.718 16.934 12.812 16.898C12.908 16.862 12.956 16.808 12.956 16.736C12.956 16.662 12.908 16.607 12.812 16.571C12.718 16.535 12.582 16.517 12.404 16.517ZM14.5038 14.657H14.8338V14.957C14.8338 15.141 14.8048 15.314 14.7468 15.476C14.6908 15.636 14.6048 15.776 14.4888 15.896C14.3748 16.016 14.2288 16.106 14.0508 16.166L13.8378 15.857C13.9958 15.805 14.1238 15.733 14.2218 15.641C14.3198 15.547 14.3908 15.441 14.4348 15.323C14.4808 15.203 14.5038 15.081 14.5038 14.957V14.657ZM14.5848 14.657H14.9088V14.96C14.9088 15.048 14.9208 15.135 14.9448 15.221C14.9688 15.305 15.0068 15.385 15.0588 15.461C15.1108 15.535 15.1768 15.602 15.2568 15.662C15.3368 15.72 15.4328 15.767 15.5448 15.803L15.3408 16.115C15.1668 16.057 15.0238 15.971 14.9118 15.857C14.8018 15.741 14.7198 15.606 14.6658 15.452C14.6118 15.298 14.5848 15.134 14.5848 14.96V14.657ZM15.6678 14.489H16.0668V16.52H15.6678V14.489ZM15.9558 15.293H16.4358V15.62H15.9558V15.293ZM14.2788 16.898H16.1658V17.219H14.2788V16.898ZM14.2788 16.325H14.6808V17.069H14.2788V16.325Z" fill="black"/>
</g>
<g id="gwangju_bukgu">
<path id="&#235;&#182;&#129;&#234;&#181;&#172;_00000166644947004510416370000000521895385418006683_" d="M30.6004 2.19995L35.1004 1.19995L42.0004 13.4L48.8004 14.5999L47.1004 20.7L46.5004 22.7L38.1004 16.2999L34.1004 17.9L25.3004 13.5999L28.1004 12.4999L24.9004 5.79993L30.6004 2.19995Z" fill="#AFD88C" stroke="white" stroke-width="0.5"/>
<path id="&#235;&#182;&#129;&#234;&#181;&#172;" d="M33.173 11.049H33.572V11.472H33.173V11.049ZM32.12 10.809H34.634V11.127H32.12V10.809ZM32.399 11.361H34.331V12.267H33.932V11.676H32.399V11.361ZM32.441 9.558H32.834V9.801H33.92V9.558H34.316V10.629H32.441V9.558ZM32.834 10.101V10.317H33.92V10.101H32.834ZM35.1708 9.648H36.9108V9.963H35.1708V9.648ZM34.8828 10.83H37.3968V11.154H34.8828V10.83ZM35.9238 11.058H36.3258V12.267H35.9238V11.058ZM36.7068 9.648H37.0998V9.894C37.0998 9.994 37.0978 10.1 37.0938 10.212C37.0918 10.324 37.0838 10.447 37.0698 10.581C37.0558 10.713 37.0298 10.861 36.9918 11.025L36.6018 10.977C36.6538 10.747 36.6838 10.546 36.6918 10.374C36.7018 10.2 36.7068 10.04 36.7068 9.894V9.648Z" fill="black"/>
</g>
<g id="gwangju_Namgu">
<path id="&#235;&#130;&#168;&#234;&#181;&#172;_00000057829278394348245060000007176446015815177360_" d="M20.5996 26.9001L31.5996 23.3L31.2996 18.7001L34.3996 18.3L35.5996 27.3L32.0996 29.4001L22.4996 33.3L14.5996 32.4001L16.4996 30.5001L20.5996 26.9001Z" fill="#AFD88C" stroke="white" stroke-width="0.5"/>
<path id="&#235;&#130;&#168;&#234;&#181;&#172;" d="M24.908 27.486H25.307V29.052H24.908V27.486ZM25.199 28.071H25.676V28.398H25.199V28.071ZM23.501 29.178H25.307V30.237H23.501V29.178ZM24.92 29.493H23.894V29.922H24.92V29.493ZM23.234 27.618H23.633V28.755H23.234V27.618ZM23.234 28.584H23.465C23.655 28.584 23.852 28.577 24.056 28.563C24.262 28.547 24.474 28.518 24.692 28.476L24.737 28.794C24.513 28.84 24.294 28.872 24.08 28.89C23.868 28.906 23.663 28.914 23.465 28.914H23.234V28.584ZM26.1708 27.648H27.9108V27.963H26.1708V27.648ZM25.8828 28.83H28.3968V29.154H25.8828V28.83ZM26.9238 29.058H27.3258V30.267H26.9238V29.058ZM27.7068 27.648H28.0998V27.894C28.0998 27.994 28.0978 28.1 28.0938 28.212C28.0918 28.324 28.0838 28.447 28.0698 28.581C28.0558 28.713 28.0298 28.861 27.9918 29.025L27.6018 28.977C27.6538 28.747 27.6838 28.546 27.6918 28.374C27.7018 28.2 27.7068 28.04 27.7068 27.894V27.648Z" fill="black"/>
</g>
<g id="gwangju_Seogu">
<path id="&#236;&#132;&#156;&#234;&#181;&#172;_00000160873284323135002220000003850002728341375910_" d="M25.2996 13.6001L34.0996 17.9001L34.3996 18.3001L31.2996 18.7001L31.5996 23.3001L20.5996 26.9001L25.2996 13.6001Z" fill="#AFD88C" stroke="white" stroke-width="0.5"/>
<path id="&#236;&#132;&#156;&#234;&#181;&#172;" d="M25.524 20.356H26.256V20.677H25.524V20.356ZM24.768 19.699H25.089V20.104C25.089 20.278 25.074 20.447 25.044 20.611C25.014 20.775 24.968 20.928 24.906 21.07C24.844 21.212 24.765 21.337 24.669 21.445C24.575 21.553 24.463 21.64 24.333 21.706L24.084 21.388C24.202 21.332 24.303 21.259 24.387 21.169C24.473 21.079 24.544 20.977 24.6 20.863C24.658 20.747 24.7 20.625 24.726 20.497C24.754 20.367 24.768 20.236 24.768 20.104V19.699ZM24.849 19.699H25.167V20.104C25.167 20.234 25.18 20.363 25.206 20.491C25.232 20.617 25.271 20.735 25.323 20.845C25.377 20.955 25.446 21.053 25.53 21.139C25.614 21.223 25.714 21.291 25.83 21.343L25.59 21.661C25.46 21.597 25.348 21.513 25.254 21.409C25.16 21.303 25.083 21.182 25.023 21.046C24.965 20.91 24.921 20.762 24.891 20.602C24.863 20.442 24.849 20.276 24.849 20.104V19.699ZM26.055 19.483H26.454V22.27H26.055V19.483ZM27.1708 19.648H28.9108V19.963H27.1708V19.648ZM26.8828 20.83H29.3968V21.154H26.8828V20.83ZM27.9238 21.058H28.3258V22.267H27.9238V21.058ZM28.7068 19.648H29.0998V19.894C29.0998 19.994 29.0978 20.1 29.0938 20.212C29.0918 20.324 29.0838 20.447 29.0698 20.581C29.0558 20.713 29.0298 20.861 28.9918 21.025L28.6018 20.977C28.6538 20.747 28.6838 20.546 28.6918 20.374C28.7018 20.2 28.7068 20.04 28.7068 19.894V19.648Z" fill="black"/>
</g>
<g id="gwangju_Donggu">
<path id="&#235;&#143;&#153;&#234;&#181;&#172;_00000183228372764615208210000009311056761204497822_" d="M34.0996 17.9001L38.0996 16.3L46.4996 22.7001L39.6996 30.2001L35.5996 27.3L34.3996 18.3L34.0996 17.9001Z" fill="#AFD88C" stroke="white" stroke-width="0.5"/>
<path id="&#235;&#143;&#153;&#234;&#181;&#172;" d="M37.126 22.794H39.637V23.109H37.126V22.794ZM38.182 22.377H38.581V22.917H38.182V22.377ZM37.429 22.251H39.352V22.563H37.429V22.251ZM37.429 21.606H39.337V21.921H37.825V22.449H37.429V21.606ZM38.371 23.247C38.671 23.247 38.907 23.292 39.079 23.382C39.251 23.47 39.337 23.596 39.337 23.76C39.337 23.922 39.251 24.047 39.079 24.135C38.907 24.225 38.671 24.27 38.371 24.27C38.071 24.27 37.835 24.225 37.663 24.135C37.493 24.047 37.408 23.922 37.408 23.76C37.408 23.596 37.493 23.47 37.663 23.382C37.835 23.292 38.071 23.247 38.371 23.247ZM38.371 23.55C38.247 23.55 38.143 23.558 38.059 23.574C37.977 23.588 37.915 23.611 37.873 23.643C37.831 23.673 37.81 23.711 37.81 23.757C37.81 23.805 37.831 23.845 37.873 23.877C37.915 23.907 37.977 23.93 38.059 23.946C38.143 23.96 38.247 23.967 38.371 23.967C38.495 23.967 38.598 23.96 38.68 23.946C38.764 23.93 38.827 23.907 38.869 23.877C38.911 23.845 38.932 23.805 38.932 23.757C38.932 23.711 38.911 23.673 38.869 23.643C38.827 23.611 38.764 23.588 38.68 23.574C38.598 23.558 38.495 23.55 38.371 23.55ZM40.1708 21.648H41.9108V21.963H40.1708V21.648ZM39.8828 22.83H42.3968V23.154H39.8828V22.83ZM40.9238 23.058H41.3258V24.267H40.9238V23.058ZM41.7068 21.648H42.0998V21.894C42.0998 21.994 42.0978 22.1 42.0938 22.212C42.0918 22.324 42.0838 22.447 42.0698 22.581C42.0558 22.713 42.0298 22.861 41.9918 23.025L41.6018 22.977C41.6538 22.747 41.6838 22.546 41.6918 22.374C41.7018 22.2 41.7068 22.04 41.7068 21.894V21.648Z" fill="black"/>
</g>
</g>
</svg>
