<svg width="249" height="250" viewBox="0 0 249 250" fill="none" xmlns="http://www.w3.org/2000/svg">
<g id="gyeongbuk">
<g id="Cheongsong">
<path id="Vector" d="M152.301 88.1001L158.201 90.2001L161.001 96.0001L168.601 97.1001L168.901 101.9L171.801 102.4L184.901 130.2L174.901 145.5L170.001 139.7L160.701 138.4V138.5L160.001 140.3L163.601 144.1L152.101 154.7L140.101 154.1L138.501 150.2L138.301 141.7L133.801 140.4L139.101 134.7L144.301 133.3L150.801 117.3L148.601 108.8L151.701 100.3L148.701 98.1001L152.301 88.1001Z" fill="#AFD88C" stroke="white" stroke-width="0.5"/>
<path id="Vector_2" d="M156.983 121.6H157.847V121.864C157.847 122.296 157.772 122.704 157.623 123.088C157.474 123.472 157.244 123.805 156.935 124.088C156.631 124.371 156.244 124.581 155.775 124.72L155.271 123.896C155.671 123.779 155.996 123.616 156.247 123.408C156.503 123.195 156.69 122.955 156.807 122.688C156.924 122.416 156.983 122.141 156.983 121.864V121.6ZM157.183 121.6H158.047V121.864C158.047 122.056 158.079 122.245 158.143 122.432C158.212 122.619 158.316 122.795 158.455 122.96C158.599 123.125 158.78 123.272 158.999 123.4C159.218 123.528 159.474 123.632 159.767 123.712L159.287 124.544C158.818 124.416 158.426 124.221 158.111 123.96C157.802 123.693 157.57 123.379 157.415 123.016C157.26 122.653 157.183 122.269 157.183 121.864V121.6ZM155.527 121.064H159.511V121.904H155.527V121.064ZM156.983 120.272H158.047V121.4H156.983V120.272ZM159.303 122.272H160.711V123.128H159.303V122.272ZM160.455 120.304H161.527V124.776H160.455V120.304ZM159.015 124.896C159.799 124.896 160.418 125.019 160.871 125.264C161.324 125.509 161.551 125.856 161.551 126.304C161.551 126.747 161.324 127.091 160.871 127.336C160.418 127.587 159.799 127.712 159.015 127.712C158.231 127.712 157.612 127.587 157.159 127.336C156.706 127.091 156.479 126.747 156.479 126.304C156.479 125.856 156.706 125.509 157.159 125.264C157.612 125.019 158.231 124.896 159.015 124.896ZM159.015 125.712C158.695 125.712 158.423 125.733 158.199 125.776C157.98 125.819 157.815 125.885 157.703 125.976C157.591 126.061 157.535 126.171 157.535 126.304C157.535 126.432 157.591 126.541 157.703 126.632C157.815 126.723 157.98 126.789 158.199 126.832C158.423 126.875 158.695 126.896 159.015 126.896C159.34 126.896 159.612 126.875 159.831 126.832C160.05 126.789 160.212 126.723 160.319 126.632C160.431 126.541 160.487 126.432 160.487 126.304C160.487 126.171 160.431 126.061 160.319 125.976C160.212 125.885 160.05 125.819 159.831 125.776C159.612 125.733 159.34 125.712 159.015 125.712ZM165.486 122.928H166.55V124.256H165.486V122.928ZM165.478 120.432H166.39V120.656C166.39 120.928 166.348 121.189 166.262 121.44C166.177 121.685 166.052 121.912 165.886 122.12C165.721 122.328 165.518 122.517 165.278 122.688C165.038 122.853 164.761 122.995 164.446 123.112C164.137 123.229 163.79 123.315 163.406 123.368L163.014 122.528C163.35 122.491 163.649 122.429 163.91 122.344C164.177 122.253 164.406 122.147 164.598 122.024C164.796 121.901 164.958 121.765 165.086 121.616C165.22 121.467 165.318 121.312 165.382 121.152C165.446 120.987 165.478 120.821 165.478 120.656V120.432ZM165.654 120.432H166.558V120.656C166.558 120.827 166.59 120.995 166.654 121.16C166.718 121.325 166.814 121.483 166.942 121.632C167.07 121.776 167.23 121.909 167.422 122.032C167.62 122.155 167.852 122.259 168.118 122.344C168.385 122.429 168.686 122.491 169.022 122.528L168.63 123.368C168.252 123.315 167.905 123.229 167.59 123.112C167.281 122.995 167.004 122.856 166.758 122.696C166.518 122.531 166.316 122.344 166.15 122.136C165.985 121.923 165.86 121.693 165.774 121.448C165.694 121.203 165.654 120.939 165.654 120.656V120.432ZM162.678 123.832H169.382V124.672H162.678V123.832ZM166.014 125.072C166.82 125.072 167.449 125.189 167.902 125.424C168.361 125.653 168.59 125.976 168.59 126.392C168.59 126.819 168.361 127.144 167.902 127.368C167.449 127.597 166.82 127.712 166.014 127.712C165.209 127.712 164.58 127.597 164.126 127.368C163.673 127.144 163.446 126.819 163.446 126.392C163.446 125.976 163.673 125.653 164.126 125.424C164.58 125.189 165.209 125.072 166.014 125.072ZM166.014 125.872C165.518 125.872 165.145 125.915 164.894 126C164.644 126.08 164.518 126.211 164.518 126.392C164.518 126.573 164.644 126.707 164.894 126.792C165.145 126.877 165.518 126.92 166.014 126.92C166.516 126.92 166.889 126.877 167.134 126.792C167.385 126.707 167.51 126.573 167.51 126.392C167.51 126.211 167.385 126.08 167.134 126C166.889 125.915 166.516 125.872 166.014 125.872Z" fill="black"/>
</g>
<g id="Yecheon">
<path id="Vector_3" d="M82.5016 49.2L86.6016 51.2999L85.9016 60.3998L95.5016 61.4999L100.602 72.0998L102.402 79.5998L92.4016 83.4999L93.0016 87.6999L89.0016 87.4999L88.5016 92.5998L80.4016 100.5L73.7016 103.3L72.4016 99.0998L69.4016 99.8999L66.0016 110.9L59.4016 107.5L60.1016 98.2998L63.6016 91.5998L59.1016 86.4999L64.9016 82.1999L65.1016 79.3999L67.9016 81.5998L70.4016 79.9999L66.5016 75.8999L68.0016 66.9999L72.6016 64.4999L72.4016 56.4999L79.0016 54.8998L82.5016 49.2Z" fill="#AFD88C" stroke="white" stroke-width="0.5"/>
<path id="Vector_4" d="M77.2648 75.9279H78.5048V76.7919H77.2648V75.9279ZM77.2648 78.2239H78.5048V79.0799H77.2648V78.2239ZM79.6728 74.2959H80.6888V81.7039H79.6728V74.2959ZM78.2008 74.4159H79.1928V81.3759H78.2008V74.4159ZM75.9928 74.8159C76.3181 74.8159 76.6008 74.9252 76.8408 75.1439C77.0861 75.3572 77.2728 75.6666 77.4008 76.0719C77.5341 76.4719 77.6008 76.9519 77.6008 77.5119C77.6008 78.0666 77.5341 78.5466 77.4008 78.9519C77.2728 79.3572 77.0861 79.6692 76.8408 79.8879C76.6008 80.1012 76.3155 80.2079 75.9848 80.2079C75.6648 80.2079 75.3821 80.1012 75.1368 79.8879C74.8968 79.6692 74.7101 79.3572 74.5768 78.9519C74.4488 78.5466 74.3848 78.0666 74.3848 77.5119C74.3848 76.9519 74.4488 76.4719 74.5768 76.0719C74.7101 75.6666 74.8968 75.3572 75.1368 75.1439C75.3821 74.9252 75.6675 74.8159 75.9928 74.8159ZM75.9928 75.8239C75.8541 75.8239 75.7368 75.8852 75.6408 76.0079C75.5448 76.1306 75.4701 76.3172 75.4168 76.5679C75.3688 76.8132 75.3448 77.1279 75.3448 77.5119C75.3448 77.8852 75.3688 78.1972 75.4168 78.4479C75.4701 78.6986 75.5448 78.8879 75.6408 79.0159C75.7368 79.1386 75.8541 79.1999 75.9928 79.1999C76.1315 79.1999 76.2488 79.1386 76.3448 79.0159C76.4408 78.8879 76.5155 78.6986 76.5688 78.4479C76.6221 78.1972 76.6488 77.8852 76.6488 77.5119C76.6488 77.1279 76.6221 76.8132 76.5688 76.5679C76.5155 76.3172 76.4408 76.1306 76.3448 76.0079C76.2488 75.8852 76.1315 75.8239 75.9928 75.8239ZM83.3442 75.7519H84.2162V76.0319C84.2162 76.4852 84.1415 76.9119 83.9922 77.3119C83.8428 77.7119 83.6162 78.0612 83.3122 78.3599C83.0082 78.6586 82.6215 78.8852 82.1522 79.0399L81.6322 78.2079C82.0322 78.0799 82.3575 77.9039 82.6082 77.6799C82.8642 77.4506 83.0508 77.1946 83.1682 76.9119C83.2855 76.6239 83.3442 76.3306 83.3442 76.0319V75.7519ZM83.5442 75.7519H84.4082V76.0319C84.4082 76.3092 84.4668 76.5839 84.5842 76.8559C84.7068 77.1226 84.8962 77.3652 85.1522 77.5839C85.4082 77.7972 85.7335 77.9626 86.1282 78.0799L85.6242 78.9119C85.1548 78.7732 84.7655 78.5626 84.4562 78.2799C84.1522 77.9919 83.9228 77.6559 83.7682 77.2719C83.6188 76.8826 83.5442 76.4692 83.5442 76.0319V75.7519ZM81.8882 75.1759H85.8722V76.0079H81.8882V75.1759ZM83.3442 74.3519H84.4082V75.4879H83.3442V74.3519ZM85.6322 76.4559H87.3522V77.3199H85.6322V76.4559ZM86.8162 74.3039H87.8882V79.7839H86.8162V74.3039ZM82.9922 80.7279H88.0562V81.5839H82.9922V80.7279ZM82.9922 79.3279H84.0562V81.2879H82.9922V79.3279Z" fill="black"/>
</g>
<g id="Uiseong">
<path id="Vector_5" d="M66.0016 110.9L69.5016 99.8L72.5016 99L73.8015 103.2L80.5016 100.4L83.7016 105L88.5016 100.8L95.9016 105L102.902 118.3L115.802 111.5L116.302 106.8L121.002 104.9L131.602 110.5L134.202 120.5L137.802 122.5L139.402 134.7L134.102 140.4L138.602 141.7L138.802 150.2L132.902 147.7L131.102 147.4L127.802 151.6L110.402 147L107.802 149.2L107.302 140.8L102.002 138.3L96.7016 138.9L92.6016 135L83.8015 130.8L78.6016 137.1L72.4016 128.9L69.0016 127.5L66.1016 130.5L63.1016 128L69.5016 118.8L66.0016 110.9Z" fill="#AFD88C" stroke="white" stroke-width="0.5"/>
<path id="Vector_6" d="M100.711 122.792C101.095 122.792 101.442 122.869 101.751 123.024C102.06 123.179 102.303 123.395 102.479 123.672C102.655 123.944 102.743 124.259 102.743 124.616C102.743 124.968 102.655 125.283 102.479 125.56C102.303 125.837 102.06 126.053 101.751 126.208C101.442 126.363 101.095 126.44 100.711 126.44C100.322 126.44 99.9727 126.363 99.6634 126.208C99.3541 126.053 99.1087 125.837 98.9274 125.56C98.7514 125.283 98.6634 124.968 98.6634 124.616C98.6634 124.259 98.7514 123.944 98.9274 123.672C99.1087 123.395 99.3541 123.179 99.6634 123.024C99.9727 122.869 100.322 122.792 100.711 122.792ZM100.711 123.704C100.519 123.704 100.346 123.741 100.191 123.816C100.042 123.885 99.9221 123.989 99.8314 124.128C99.7461 124.261 99.7034 124.424 99.7034 124.616C99.7034 124.808 99.7461 124.973 99.8314 125.112C99.9221 125.251 100.042 125.357 100.191 125.432C100.346 125.501 100.519 125.536 100.711 125.536C100.898 125.536 101.066 125.501 101.215 125.432C101.364 125.357 101.482 125.251 101.567 125.112C101.658 124.973 101.703 124.808 101.703 124.616C101.703 124.424 101.658 124.261 101.567 124.128C101.482 123.989 101.364 123.885 101.215 123.816C101.066 123.741 100.898 123.704 100.711 123.704ZM103.439 122.288H104.503V129.72H103.439V122.288ZM98.4794 128.224L98.3594 127.36C98.7914 127.36 99.2687 127.357 99.7914 127.352C100.319 127.341 100.86 127.32 101.415 127.288C101.975 127.251 102.516 127.195 103.039 127.12L103.111 127.888C102.578 127.995 102.036 128.072 101.487 128.12C100.938 128.163 100.407 128.192 99.8954 128.208C99.3834 128.219 98.9114 128.224 98.4794 128.224ZM107.406 122.688H108.286V123.344C108.286 123.84 108.209 124.307 108.054 124.744C107.905 125.181 107.676 125.563 107.366 125.888C107.057 126.213 106.66 126.459 106.174 126.624L105.614 125.768C106.041 125.635 106.385 125.443 106.646 125.192C106.908 124.941 107.1 124.656 107.222 124.336C107.345 124.016 107.406 123.685 107.406 123.344V122.688ZM107.622 122.688H108.486V123.296C108.486 123.621 108.542 123.936 108.654 124.24C108.766 124.539 108.945 124.805 109.19 125.04C109.436 125.269 109.753 125.448 110.142 125.576L109.59 126.408C109.137 126.248 108.764 126.016 108.47 125.712C108.182 125.408 107.969 125.051 107.83 124.64C107.692 124.224 107.622 123.776 107.622 123.296V122.688ZM110.814 122.304H111.886V126.64H110.814V122.304ZM109.374 126.832C110.158 126.832 110.777 126.96 111.23 127.216C111.684 127.467 111.91 127.816 111.91 128.264C111.91 128.723 111.684 129.077 111.23 129.328C110.777 129.584 110.158 129.712 109.374 129.712C108.59 129.712 107.972 129.584 107.518 129.328C107.065 129.077 106.838 128.723 106.838 128.264C106.838 127.816 107.065 127.467 107.518 127.216C107.972 126.96 108.59 126.832 109.374 126.832ZM109.374 127.656C109.054 127.656 108.785 127.677 108.566 127.72C108.348 127.763 108.18 127.832 108.062 127.928C107.95 128.019 107.894 128.131 107.894 128.264C107.894 128.403 107.95 128.52 108.062 128.616C108.18 128.707 108.348 128.776 108.566 128.824C108.785 128.867 109.054 128.888 109.374 128.888C109.694 128.888 109.964 128.867 110.182 128.824C110.401 128.776 110.566 128.707 110.678 128.616C110.79 128.52 110.846 128.403 110.846 128.264C110.846 128.131 110.79 128.019 110.678 127.928C110.566 127.832 110.401 127.763 110.182 127.72C109.964 127.677 109.694 127.656 109.374 127.656ZM109.462 123.648H110.974V124.512H109.462V123.648Z" fill="black"/>
</g>
<g id="Chilgok">
<path id="Vector_7" d="M63.7 168.3L68.6 167.7L72.5 172.5L78 167.5L86.3 170.5L89 162.1L98.1 164.4L99 172.6L106.8 169.6L105.6 177.7L108.1 180L103.4 183.5L98 185.9L93.9 184.8L94.6 192.3V192.4L94.2 193L94.1 193.7H94L93.3 194.8H93.2L91 198.8L86.6 197.8L87.4 192.1L84.5 190.8L77.6 197.6L77.1 191.1L71 189.1L63.5 175.2L63.7 168.3Z" fill="#AFD88C" stroke="white" stroke-width="0.5"/>
<path id="Vector_8" d="M81.4168 176.304H82.4808V180.168H81.4168V176.304ZM77.5448 180.456H82.4808V182.4H78.6008V183.2H77.5528V181.664H81.4248V181.256H77.5448V180.456ZM77.5528 182.856H82.6648V183.664H77.5528V182.856ZM78.1288 177.472H78.9928V177.568C78.9928 177.968 78.9128 178.344 78.7528 178.696C78.5981 179.048 78.3608 179.352 78.0408 179.608C77.7261 179.864 77.3288 180.051 76.8488 180.168L76.3848 179.352C76.6888 179.277 76.9501 179.179 77.1688 179.056C77.3875 178.933 77.5661 178.792 77.7048 178.632C77.8488 178.472 77.9555 178.301 78.0248 178.12C78.0941 177.939 78.1288 177.755 78.1288 177.568V177.472ZM78.3448 177.472H79.1928V177.568C79.1928 177.744 79.2275 177.92 79.2968 178.096C79.3715 178.272 79.4808 178.437 79.6248 178.592C79.7688 178.741 79.9501 178.877 80.1688 179C80.3928 179.117 80.6541 179.208 80.9528 179.272L80.4968 180.088C80.1341 180.003 79.8168 179.88 79.5448 179.72C79.2781 179.555 79.0541 179.36 78.8728 179.136C78.6968 178.912 78.5635 178.669 78.4728 178.408C78.3875 178.141 78.3448 177.861 78.3448 177.568V177.472ZM76.6408 176.944H80.6888V177.784H76.6408V176.944ZM78.1288 176.256H79.2008V177.368H78.1288V176.256ZM83.7042 179.696H90.3682V180.544H83.7042V179.696ZM84.3842 181.168H89.5202V183.712H88.4482V182.016H84.3842V181.168ZM84.4482 176.664H89.1442V177.504H84.4482V176.664ZM86.1682 178.312H87.2322V179.84H86.1682V178.312ZM88.5202 176.664H89.5842V177.184C89.5842 177.461 89.5762 177.776 89.5602 178.128C89.5442 178.475 89.4882 178.869 89.3922 179.312L88.3362 179.216C88.4268 178.784 88.4802 178.405 88.4962 178.08C88.5122 177.755 88.5202 177.456 88.5202 177.184V176.664Z" fill="black"/>
</g>
<g id="Gyeongsan">
<path id="Vector_9" d="M120.101 182.5L126.701 183.2L136.001 188.5L139.301 205.7L150.401 206.8L147.201 214.3L142.401 220.8L140.901 218.1L135.301 221.7L127.601 221.4L124.501 228.1L115.401 221.6L113.801 214.4L118.301 211.7L119.201 203.7H122.401L123.901 198.9L119.701 183.7V183.6L120.101 182.5Z" fill="#AFD88C" stroke="white" stroke-width="0.5"/>
<path id="Vector_10" d="M127.897 207.472H129.633V208.312H127.897V207.472ZM127.833 209H129.577V209.856H127.833V209ZM129.457 206.296H130.529V210.56H129.457V206.296ZM127.049 206.8H128.177C128.177 207.472 128.052 208.067 127.801 208.584C127.55 209.096 127.174 209.531 126.673 209.888C126.172 210.24 125.545 210.52 124.793 210.728L124.385 209.896C125.014 209.731 125.524 209.523 125.913 209.272C126.302 209.016 126.588 208.723 126.769 208.392C126.956 208.061 127.049 207.704 127.049 207.32V206.8ZM124.785 206.8H127.793V207.648H124.785V206.8ZM128.073 210.656C128.574 210.656 129.012 210.717 129.385 210.84C129.764 210.963 130.054 211.136 130.257 211.36C130.465 211.584 130.569 211.851 130.569 212.16C130.569 212.469 130.465 212.736 130.257 212.96C130.054 213.184 129.764 213.357 129.385 213.48C129.012 213.608 128.574 213.672 128.073 213.672C127.572 213.672 127.132 213.608 126.753 213.48C126.38 213.357 126.089 213.184 125.881 212.96C125.673 212.736 125.569 212.469 125.569 212.16C125.569 211.851 125.673 211.584 125.881 211.36C126.089 211.136 126.38 210.963 126.753 210.84C127.132 210.717 127.572 210.656 128.073 210.656ZM128.073 211.472C127.769 211.472 127.508 211.499 127.289 211.552C127.076 211.605 126.91 211.683 126.793 211.784C126.676 211.885 126.617 212.011 126.617 212.16C126.617 212.309 126.676 212.437 126.793 212.544C126.91 212.645 127.076 212.723 127.289 212.776C127.508 212.824 127.769 212.848 128.073 212.848C128.377 212.848 128.636 212.824 128.849 212.776C129.062 212.723 129.228 212.645 129.345 212.544C129.462 212.437 129.521 212.309 129.521 212.16C129.521 212.011 129.462 211.885 129.345 211.784C129.228 211.683 129.062 211.605 128.849 211.552C128.636 211.499 128.377 211.472 128.073 211.472ZM133.344 206.752H134.224V207.552C134.224 208.043 134.147 208.504 133.992 208.936C133.843 209.363 133.614 209.736 133.304 210.056C133 210.376 132.611 210.616 132.136 210.776L131.568 209.952C131.99 209.813 132.331 209.621 132.592 209.376C132.854 209.125 133.043 208.843 133.16 208.528C133.283 208.208 133.344 207.883 133.344 207.552V206.752ZM133.56 206.752H134.424V207.56C134.424 207.795 134.456 208.027 134.52 208.256C134.584 208.48 134.686 208.693 134.824 208.896C134.963 209.093 135.139 209.272 135.352 209.432C135.566 209.587 135.822 209.712 136.12 209.808L135.576 210.64C135.112 210.485 134.731 210.256 134.432 209.952C134.139 209.643 133.92 209.283 133.776 208.872C133.632 208.461 133.56 208.024 133.56 207.56V206.752ZM136.448 206.304H137.512V211.72H136.448V206.304ZM137.216 208.448H138.496V209.32H137.216V208.448ZM132.744 212.728H137.776V213.584H132.744V212.728ZM132.744 211.2H133.816V213.184H132.744V211.2Z" fill="black"/>
</g>
<g id="Sangju">
<path id="Vector_11" d="M36.7 207.3L37.9 202.2L33 192.2L38 194.6L38.9 189.3L46 187.4L48.2 176.6L55 173.5L63.5 175.2L71 189.1L77.1 191.1L77.6 197.6L76.1 205.2L73.6 214.2L62.4 209.1L58.9 216.5L53.6 210.9H48.5L47.8 217L38.4 208.7L36.7 207.3Z" fill="#AFD88C" stroke="white" stroke-width="0.5"/>
<path id="Vector_12" d="M51.0479 191.688H51.9279V192.344C51.9279 192.84 51.8506 193.307 51.6959 193.744C51.5466 194.181 51.3172 194.563 51.0079 194.888C50.6986 195.213 50.3012 195.459 49.8159 195.624L49.2559 194.768C49.6826 194.635 50.0266 194.443 50.2879 194.192C50.5492 193.941 50.7412 193.656 50.8639 193.336C50.9866 193.016 51.0479 192.685 51.0479 192.344V191.688ZM51.2639 191.688H52.1279V192.296C52.1279 192.621 52.1839 192.936 52.2959 193.24C52.4079 193.539 52.5866 193.805 52.8319 194.04C53.0772 194.269 53.3946 194.448 53.7839 194.576L53.2319 195.408C52.7786 195.248 52.4052 195.016 52.1119 194.712C51.8239 194.408 51.6106 194.051 51.4719 193.64C51.3332 193.224 51.2639 192.776 51.2639 192.296V191.688ZM54.4559 191.304H55.5279V195.64H54.4559V191.304ZM53.0159 195.832C53.7999 195.832 54.4186 195.96 54.8719 196.216C55.3252 196.467 55.5519 196.816 55.5519 197.264C55.5519 197.723 55.3252 198.077 54.8719 198.328C54.4186 198.584 53.7999 198.712 53.0159 198.712C52.2319 198.712 51.6132 198.584 51.1599 198.328C50.7066 198.077 50.4799 197.723 50.4799 197.264C50.4799 196.816 50.7066 196.467 51.1599 196.216C51.6132 195.96 52.2319 195.832 53.0159 195.832ZM53.0159 196.656C52.6959 196.656 52.4266 196.677 52.2079 196.72C51.9892 196.763 51.8212 196.832 51.7039 196.928C51.5919 197.019 51.5359 197.131 51.5359 197.264C51.5359 197.403 51.5919 197.52 51.7039 197.616C51.8212 197.707 51.9892 197.776 52.2079 197.824C52.4266 197.867 52.6959 197.888 53.0159 197.888C53.3359 197.888 53.6052 197.867 53.8239 197.824C54.0426 197.776 54.2079 197.707 54.3199 197.616C54.4319 197.52 54.4879 197.403 54.4879 197.264C54.4879 197.131 54.4319 197.019 54.3199 196.928C54.2079 196.832 54.0426 196.763 53.8239 196.72C53.6052 196.677 53.3359 196.656 53.0159 196.656ZM53.1039 192.648H54.6159V193.512H53.1039V192.648ZM59.4233 192.12H60.3513V192.344C60.3513 192.6 60.3086 192.848 60.2233 193.088C60.1433 193.328 60.0206 193.552 59.8553 193.76C59.6899 193.963 59.4873 194.147 59.2473 194.312C59.0126 194.472 58.7406 194.608 58.4313 194.72C58.1219 194.832 57.7779 194.912 57.3993 194.96L57.0073 194.136C57.3379 194.093 57.6313 194.029 57.8873 193.944C58.1486 193.853 58.3753 193.749 58.5673 193.632C58.7593 193.509 58.9193 193.379 59.0473 193.24C59.1753 193.101 59.2686 192.955 59.3273 192.8C59.3913 192.645 59.4233 192.493 59.4233 192.344V192.12ZM59.7353 192.12H60.6553V192.344C60.6553 192.493 60.6846 192.645 60.7433 192.8C60.8073 192.955 60.9033 193.101 61.0313 193.24C61.1593 193.379 61.3193 193.509 61.5113 193.632C61.7086 193.749 61.9353 193.853 62.1913 193.944C62.4473 194.029 62.7406 194.093 63.0713 194.136L62.6793 194.96C62.3006 194.912 61.9566 194.832 61.6473 194.72C61.3379 194.608 61.0633 194.472 60.8233 194.312C60.5886 194.147 60.3886 193.963 60.2233 193.76C60.0633 193.552 59.9406 193.328 59.8553 193.088C59.7753 192.848 59.7353 192.6 59.7353 192.344V192.12ZM59.4793 196H60.5433V198.712H59.4793V196ZM56.6873 195.384H63.3913V196.24H56.6873V195.384ZM57.2793 191.68H62.7753V192.52H57.2793V191.68Z" fill="black"/>
</g>
<g id="Gimcheon">
<path id="Vector_13" d="M43.9016 142L61.0016 151.5L64.1016 156L61.5016 165.7L63.7016 168.3L63.5016 175.2L55.0016 173.5L48.2016 176.6L46.0016 187.4L38.9016 189.3L38.0016 194.6L33.0016 192.2L37.9016 202.2L36.7016 207.3L28.4016 209L24.5016 204.4L17.4016 204.9L16.7016 199L13.3015 200.1L12.2016 196.5L15.5016 190.3L11.1016 178.8L21.7016 171.3L26.3015 158L23.8015 151.3L33.9016 150.8L30.6016 145.2L32.3015 142.8L36.3015 144.5L43.9016 142Z" fill="#AFD88C" stroke="white" stroke-width="0.5"/>
<path id="Vector_14" d="M35.1034 168.72H36.2234C36.2234 169.376 36.0874 169.963 35.8154 170.48C35.5434 170.992 35.1514 171.427 34.6394 171.784C34.1274 172.136 33.5007 172.408 32.7594 172.6L32.3594 171.76C32.9727 171.611 33.4821 171.411 33.8874 171.16C34.2927 170.909 34.5967 170.621 34.7994 170.296C35.0021 169.965 35.1034 169.619 35.1034 169.256V168.72ZM32.7834 168.72H35.7914V169.56H32.7834V168.72ZM37.4154 168.296H38.4794V172.424H37.4154V168.296ZM33.5754 172.744H38.4794V175.632H33.5754V172.744ZM37.4314 173.576H34.6234V174.792H37.4314V173.576ZM41.3428 169.752H42.2148V170.032C42.2148 170.485 42.1401 170.912 41.9908 171.312C41.8414 171.712 41.6148 172.061 41.3108 172.36C41.0068 172.659 40.6201 172.885 40.1508 173.04L39.6308 172.208C40.0308 172.08 40.3561 171.904 40.6068 171.68C40.8628 171.451 41.0494 171.195 41.1668 170.912C41.2841 170.624 41.3428 170.331 41.3428 170.032V169.752ZM41.5428 169.752H42.4068V170.032C42.4068 170.309 42.4654 170.584 42.5828 170.856C42.7054 171.123 42.8948 171.365 43.1508 171.584C43.4068 171.797 43.7321 171.963 44.1268 172.08L43.6228 172.912C43.1534 172.773 42.7641 172.563 42.4548 172.28C42.1508 171.992 41.9214 171.656 41.7668 171.272C41.6174 170.883 41.5428 170.469 41.5428 170.032V169.752ZM39.8868 169.176H43.8708V170.008H39.8868V169.176ZM41.3428 168.352H42.4068V169.488H41.3428V168.352ZM43.6308 170.456H45.3508V171.32H43.6308V170.456ZM44.8148 168.304H45.8868V173.784H44.8148V168.304ZM40.9908 174.728H46.0548V175.584H40.9908V174.728ZM40.9908 173.328H42.0548V175.288H40.9908V173.328Z" fill="black"/>
</g>
<g id="Andong">
<path id="Vector_15" d="M127.3 54.0998L128.2 56.8998L131.8 54.7L138.1 60.3998L139.4 59.9999L145.9 60.3998L150.8 64.0998L152.3 88.0998L148.7 98.0998L151.7 100.3L148.6 108.8L150.8 117.3L144.3 133.3L139.1 134.7L137.5 122.5L133.9 120.5L131.3 110.6L120.7 105L116.1 106.9L115.6 111.5L102.7 118.3L95.7004 105.1L88.4004 100.9L83.6004 105.1L80.4004 100.5L88.5004 92.5998L89.0004 87.4999L93.0004 87.6999L92.4004 83.4999L102.4 79.5998L100.6 72.0998L101.7 69.6999L119 72.2998L119.6 56.5998L120.2 54.8998L122.7 55.2L126.6 52.7999V52.7L127.4 54.0998H127.3Z" fill="#AFD88C" stroke="white" stroke-width="0.5"/>
<path id="Vector_16" d="M121.089 82.304H122.153V87.688H121.089V82.304ZM121.857 84.416H123.137V85.296H121.857V84.416ZM117.377 88.728H122.417V89.584H117.377V88.728ZM117.377 87.128H118.449V89.112H117.377V87.128ZM118.385 82.776C118.764 82.776 119.105 82.856 119.409 83.016C119.713 83.176 119.953 83.3973 120.129 83.68C120.31 83.9627 120.401 84.288 120.401 84.656C120.401 85.0187 120.31 85.344 120.129 85.632C119.953 85.9147 119.713 86.1387 119.409 86.304C119.105 86.464 118.764 86.544 118.385 86.544C118.006 86.544 117.665 86.464 117.361 86.304C117.057 86.1387 116.817 85.9147 116.641 85.632C116.465 85.344 116.377 85.0187 116.377 84.656C116.377 84.288 116.465 83.9627 116.641 83.68C116.817 83.3973 117.057 83.176 117.361 83.016C117.665 82.856 118.006 82.776 118.385 82.776ZM118.385 83.696C118.204 83.696 118.038 83.736 117.889 83.816C117.745 83.8907 117.63 84 117.545 84.144C117.46 84.2827 117.417 84.4533 117.417 84.656C117.417 84.8587 117.46 85.032 117.545 85.176C117.63 85.3147 117.745 85.424 117.889 85.504C118.038 85.5787 118.204 85.616 118.385 85.616C118.572 85.616 118.737 85.5787 118.881 85.504C119.03 85.424 119.148 85.3147 119.233 85.176C119.318 85.032 119.361 84.8587 119.361 84.656C119.361 84.4533 119.318 84.2827 119.233 84.144C119.148 84 119.03 83.8907 118.881 83.816C118.737 83.736 118.572 83.696 118.385 83.696ZM123.696 85.784H130.392V86.624H123.696V85.784ZM126.512 84.672H127.576V86.112H126.512V84.672ZM124.504 84.336H129.632V85.168H124.504V84.336ZM124.504 82.616H129.592V83.456H125.56V84.864H124.504V82.616ZM127.016 86.992C127.816 86.992 128.446 87.112 128.904 87.352C129.363 87.5867 129.592 87.9227 129.592 88.36C129.592 88.792 129.363 89.1253 128.904 89.36C128.446 89.6 127.816 89.72 127.016 89.72C126.216 89.72 125.587 89.6 125.128 89.36C124.675 89.1253 124.448 88.792 124.448 88.36C124.448 87.9227 124.675 87.5867 125.128 87.352C125.587 87.112 126.216 86.992 127.016 86.992ZM127.016 87.8C126.686 87.8 126.408 87.8213 126.184 87.864C125.966 87.9013 125.8 87.9627 125.688 88.048C125.576 88.128 125.52 88.2293 125.52 88.352C125.52 88.48 125.576 88.5867 125.688 88.672C125.8 88.752 125.966 88.8133 126.184 88.856C126.408 88.8933 126.686 88.912 127.016 88.912C127.347 88.912 127.622 88.8933 127.84 88.856C128.064 88.8133 128.232 88.752 128.344 88.672C128.456 88.5867 128.512 88.48 128.512 88.352C128.512 88.2293 128.456 88.128 128.344 88.048C128.232 87.9627 128.064 87.9013 127.84 87.864C127.622 87.8213 127.347 87.8 127.016 87.8Z" fill="black"/>
</g>
<g id="Gumi">
<path id="Vector_17" d="M43.9004 142L46.1004 136L55.5004 134.7L58.5004 125.9L62.8004 127.9L65.9004 130.4L68.8004 127.4L72.2004 128.8L78.5004 137L79.4004 143.5L82.4004 147.7L88.0004 145.3L90.3004 152.9L92.8004 150.3L97.2004 154L95.1004 156.6L98.1004 164.3L89.0004 162.1L86.3004 170.5L78.0004 167.5L72.5004 172.5L68.6004 167.7L63.7004 168.3L61.5004 165.7L64.1004 156L61.0004 151.5L43.9004 142Z" fill="#AFD88C" stroke="white" stroke-width="0.5"/>
<path id="Vector_18" d="M65.0961 147.728H69.7361V148.568H65.0961V147.728ZM64.3281 150.88H71.0321V151.744H64.3281V150.88ZM67.1041 151.488H68.1761V154.712H67.1041V151.488ZM69.1921 147.728H70.2401V148.384C70.2401 148.651 70.2348 148.933 70.2241 149.232C70.2188 149.531 70.1974 149.859 70.1601 150.216C70.1228 150.568 70.0534 150.963 69.9521 151.4L68.9121 151.272C69.0508 150.659 69.1308 150.123 69.1521 149.664C69.1788 149.2 69.1921 148.773 69.1921 148.384V147.728ZM72.0475 147.96H75.6075V152.944H72.0475V147.96ZM74.5675 148.8H73.0955V152.104H74.5675V148.8ZM76.7675 147.288H77.8315V154.72H76.7675V147.288Z" fill="black"/>
</g>
<g id="Yeongju">
<path id="Vector_19" d="M107.601 15L114.801 18.9L114.401 19.7L113.101 24.5V24.4L112.901 29.2L111.601 32.1L110.201 37.9L106.101 42.5L106.701 47.5L110.801 49.8L117.301 46L118.601 50.5H118.501L115.701 52.9L117.701 57.9L119.601 56.7L119.001 72.3L101.701 69.7L100.601 72.1L95.5008 61.5L85.9008 60.4L86.6008 51.3L82.5008 49.2L79.3008 44.8L81.4008 36.8L95.5008 25.6L97.3008 19.9L102.101 17L105.201 18.9L107.601 15Z" fill="#AFD88C" stroke="white" stroke-width="0.5"/>
<path id="Vector_20" d="M92.6 40.2642H94.792V41.1202H92.6V40.2642ZM92.6 41.9122H94.792V42.7602H92.6V41.9122ZM91.368 39.6962C91.7413 39.6962 92.0747 39.7762 92.368 39.9362C92.6613 40.0909 92.8933 40.3042 93.064 40.5762C93.24 40.8482 93.328 41.1602 93.328 41.5122C93.328 41.8589 93.24 42.1682 93.064 42.4402C92.8933 42.7122 92.6613 42.9282 92.368 43.0882C92.0747 43.2429 91.7413 43.3202 91.368 43.3202C91.0053 43.3202 90.6747 43.2429 90.376 43.0882C90.0827 42.9282 89.848 42.7122 89.672 42.4402C89.5013 42.1682 89.416 41.8589 89.416 41.5122C89.416 41.1602 89.5013 40.8482 89.672 40.5762C89.848 40.3042 90.0827 40.0909 90.376 39.9362C90.6747 39.7762 91.0053 39.6962 91.368 39.6962ZM91.368 40.5922C91.192 40.5922 91.032 40.6295 90.888 40.7042C90.744 40.7735 90.6293 40.8775 90.544 41.0162C90.464 41.1495 90.424 41.3149 90.424 41.5122C90.424 41.6989 90.464 41.8615 90.544 42.0002C90.6293 42.1389 90.744 42.2455 90.888 42.3202C91.032 42.3895 91.192 42.4242 91.368 42.4242C91.5547 42.4242 91.7173 42.3895 91.856 42.3202C92 42.2455 92.112 42.1389 92.192 42.0002C92.272 41.8615 92.312 41.6989 92.312 41.5122C92.312 41.3149 92.272 41.1495 92.192 41.0162C92.112 40.8775 92 40.7735 91.856 40.7042C91.7173 40.6295 91.5547 40.5922 91.368 40.5922ZM94.456 39.3042H95.528V43.6402H94.456V39.3042ZM93.016 43.7922C93.5387 43.7922 93.9867 43.8509 94.36 43.9682C94.7387 44.0802 95.032 44.2455 95.24 44.4642C95.448 44.6829 95.552 44.9442 95.552 45.2482C95.552 45.5522 95.448 45.8135 95.24 46.0322C95.032 46.2562 94.7387 46.4242 94.36 46.5362C93.9867 46.6535 93.5387 46.7122 93.016 46.7122C92.4933 46.7122 92.0427 46.6535 91.664 46.5362C91.2853 46.4242 90.992 46.2562 90.784 46.0322C90.5813 45.8135 90.48 45.5522 90.48 45.2482C90.48 44.9442 90.5813 44.6829 90.784 44.4642C90.992 44.2455 91.2853 44.0802 91.664 43.9682C92.0427 43.8509 92.4933 43.7922 93.016 43.7922ZM93.016 44.6082C92.696 44.6082 92.424 44.6322 92.2 44.6802C91.976 44.7282 91.808 44.8002 91.696 44.8962C91.584 44.9869 91.528 45.1042 91.528 45.2482C91.528 45.3922 91.584 45.5122 91.696 45.6082C91.808 45.7042 91.976 45.7762 92.2 45.8242C92.424 45.8669 92.696 45.8882 93.016 45.8882C93.3413 45.8882 93.6133 45.8669 93.832 45.8242C94.056 45.7762 94.224 45.7042 94.336 45.6082C94.448 45.5122 94.504 45.3922 94.504 45.2482C94.504 45.1042 94.448 44.9869 94.336 44.8962C94.224 44.8002 94.056 44.7282 93.832 44.6802C93.6133 44.6322 93.3413 44.6082 93.016 44.6082ZM99.4234 40.1202H100.351V40.3442C100.351 40.6002 100.309 40.8482 100.223 41.0882C100.143 41.3282 100.021 41.5522 99.8554 41.7602C99.69 41.9629 99.4874 42.1469 99.2474 42.3122C99.0127 42.4722 98.7407 42.6082 98.4314 42.7202C98.122 42.8322 97.778 42.9122 97.3994 42.9602L97.0074 42.1362C97.338 42.0935 97.6314 42.0295 97.8874 41.9442C98.1487 41.8535 98.3754 41.7495 98.5674 41.6322C98.7594 41.5095 98.9194 41.3789 99.0474 41.2402C99.1754 41.1015 99.2687 40.9549 99.3274 40.8002C99.3914 40.6455 99.4234 40.4935 99.4234 40.3442V40.1202ZM99.7354 40.1202H100.655V40.3442C100.655 40.4935 100.685 40.6455 100.743 40.8002C100.807 40.9549 100.903 41.1015 101.031 41.2402C101.159 41.3789 101.319 41.5095 101.511 41.6322C101.709 41.7495 101.935 41.8535 102.191 41.9442C102.447 42.0295 102.741 42.0935 103.071 42.1362L102.679 42.9602C102.301 42.9122 101.957 42.8322 101.647 42.7202C101.338 42.6082 101.063 42.4722 100.823 42.3122C100.589 42.1469 100.389 41.9629 100.223 41.7602C100.063 41.5522 99.9407 41.3282 99.8554 41.0882C99.7754 40.8482 99.7354 40.6002 99.7354 40.3442V40.1202ZM99.4794 44.0002H100.543V46.7122H99.4794V44.0002ZM96.6874 43.3842H103.391V44.2402H96.6874V43.3842ZM97.2794 39.6802H102.775V40.5202H97.2794V39.6802Z" fill="black"/>
</g>
<g id="Yeongyang">
<path id="Vector_21" d="M150.8 64.1L150 60.2L164.3 51.3L171.2 43.4L175.7 43L177.6 46.7L181.9 47.2L184.7 43.2L187.6 45.1L186.1 50.1L191.4 58.2L186.2 63.9L189.2 67.9L186.1 75L181.5 77L179.7 88.4L183.5 92.4L182.3 97L183.9 100.6L181.2 100.1L181 104L171.8 102.4L168.9 101.9L168.6 97.1L161 96L158.2 90.2L152.3 88.1L150.8 64.1Z" fill="#AFD88C" stroke="white" stroke-width="0.5"/>
<path id="Vector_22" d="M164.6 70.264H166.792V71.12H164.6V70.264ZM164.6 71.912H166.792V72.76H164.6V71.912ZM163.368 69.696C163.741 69.696 164.075 69.776 164.368 69.936C164.661 70.0907 164.893 70.304 165.064 70.576C165.24 70.848 165.328 71.16 165.328 71.512C165.328 71.8587 165.24 72.168 165.064 72.44C164.893 72.712 164.661 72.928 164.368 73.088C164.075 73.2427 163.741 73.32 163.368 73.32C163.005 73.32 162.675 73.2427 162.376 73.088C162.083 72.928 161.848 72.712 161.672 72.44C161.501 72.168 161.416 71.8587 161.416 71.512C161.416 71.16 161.501 70.848 161.672 70.576C161.848 70.304 162.083 70.0907 162.376 69.936C162.675 69.776 163.005 69.696 163.368 69.696ZM163.368 70.592C163.192 70.592 163.032 70.6293 162.888 70.704C162.744 70.7733 162.629 70.8773 162.544 71.016C162.464 71.1493 162.424 71.3147 162.424 71.512C162.424 71.6987 162.464 71.8613 162.544 72C162.629 72.1387 162.744 72.2453 162.888 72.32C163.032 72.3893 163.192 72.424 163.368 72.424C163.555 72.424 163.717 72.3893 163.856 72.32C164 72.2453 164.112 72.1387 164.192 72C164.272 71.8613 164.312 71.6987 164.312 71.512C164.312 71.3147 164.272 71.1493 164.192 71.016C164.112 70.8773 164 70.7733 163.856 70.704C163.717 70.6293 163.555 70.592 163.368 70.592ZM166.456 69.304H167.528V73.64H166.456V69.304ZM165.016 73.792C165.539 73.792 165.987 73.8507 166.36 73.968C166.739 74.08 167.032 74.2453 167.24 74.464C167.448 74.6827 167.552 74.944 167.552 75.248C167.552 75.552 167.448 75.8133 167.24 76.032C167.032 76.256 166.739 76.424 166.36 76.536C165.987 76.6533 165.539 76.712 165.016 76.712C164.493 76.712 164.043 76.6533 163.664 76.536C163.285 76.424 162.992 76.256 162.784 76.032C162.581 75.8133 162.48 75.552 162.48 75.248C162.48 74.944 162.581 74.6827 162.784 74.464C162.992 74.2453 163.285 74.08 163.664 73.968C164.043 73.8507 164.493 73.792 165.016 73.792ZM165.016 74.608C164.696 74.608 164.424 74.632 164.2 74.68C163.976 74.728 163.808 74.8 163.696 74.896C163.584 74.9867 163.528 75.104 163.528 75.248C163.528 75.392 163.584 75.512 163.696 75.608C163.808 75.704 163.976 75.776 164.2 75.824C164.424 75.8667 164.696 75.888 165.016 75.888C165.341 75.888 165.613 75.8667 165.832 75.824C166.056 75.776 166.224 75.704 166.336 75.608C166.448 75.512 166.504 75.392 166.504 75.248C166.504 75.104 166.448 74.9867 166.336 74.896C166.224 74.8 166.056 74.728 165.832 74.68C165.613 74.632 165.341 74.608 165.016 74.608ZM174.191 70.208H175.463V71.072H174.191V70.208ZM174.191 71.816H175.463V72.688H174.191V71.816ZM170.743 69.704C171.127 69.704 171.471 69.7813 171.775 69.936C172.079 70.0907 172.319 70.304 172.495 70.576C172.671 70.8427 172.759 71.152 172.759 71.504C172.759 71.8507 172.671 72.16 172.495 72.432C172.319 72.6987 172.079 72.9093 171.775 73.064C171.471 73.2187 171.127 73.296 170.743 73.296C170.365 73.296 170.023 73.2187 169.719 73.064C169.415 72.9093 169.175 72.6987 168.999 72.432C168.823 72.16 168.735 71.8507 168.735 71.504C168.735 71.152 168.823 70.8427 168.999 70.576C169.175 70.304 169.415 70.0907 169.719 69.936C170.023 69.7813 170.365 69.704 170.743 69.704ZM170.743 70.592C170.562 70.592 170.397 70.6293 170.247 70.704C170.098 70.7733 169.981 70.8773 169.895 71.016C169.815 71.1493 169.775 71.312 169.775 71.504C169.775 71.6907 169.815 71.8533 169.895 71.992C169.981 72.1253 170.098 72.2267 170.247 72.296C170.397 72.3653 170.562 72.4 170.743 72.4C170.935 72.4 171.103 72.3653 171.247 72.296C171.391 72.2267 171.506 72.1253 171.591 71.992C171.677 71.8533 171.719 71.6907 171.719 71.504C171.719 71.312 171.677 71.1493 171.591 71.016C171.506 70.8773 171.391 70.7733 171.247 70.704C171.103 70.6293 170.935 70.592 170.743 70.592ZM173.447 69.304H174.511V73.624H173.447V69.304ZM172.095 73.776C172.607 73.776 173.05 73.8347 173.423 73.952C173.802 74.0693 174.093 74.2373 174.295 74.456C174.498 74.6747 174.599 74.9387 174.599 75.248C174.599 75.552 174.498 75.8133 174.295 76.032C174.093 76.2507 173.802 76.4187 173.423 76.536C173.05 76.6533 172.607 76.712 172.095 76.712C171.583 76.712 171.138 76.6533 170.759 76.536C170.386 76.4187 170.095 76.2507 169.887 76.032C169.685 75.8133 169.583 75.552 169.583 75.248C169.583 74.9387 169.685 74.6747 169.887 74.456C170.095 74.2373 170.386 74.0693 170.759 73.952C171.138 73.8347 171.583 73.776 172.095 73.776ZM172.095 74.616C171.781 74.616 171.517 74.64 171.303 74.688C171.09 74.7307 170.927 74.7973 170.815 74.888C170.703 74.9787 170.647 75.0987 170.647 75.248C170.647 75.3867 170.703 75.504 170.815 75.6C170.927 75.696 171.09 75.768 171.303 75.816C171.517 75.8587 171.781 75.88 172.095 75.88C172.41 75.88 172.674 75.8587 172.887 75.816C173.106 75.768 173.269 75.696 173.375 75.6C173.487 75.504 173.543 75.3867 173.543 75.248C173.543 75.0987 173.487 74.9787 173.375 74.888C173.269 74.7973 173.106 74.7307 172.887 74.688C172.674 74.64 172.41 74.616 172.095 74.616Z" fill="black"/>
</g>
<g id="Bonghwa">
<path id="Vector_23" d="M118.502 50.5002L117.302 46.0002L110.802 49.8002L106.702 47.6002L106.102 42.5002L110.202 37.9002L111.602 32.1002L112.902 29.2002L113.102 24.5002L114.402 19.7002L120.402 20.7002L123.602 10.5002L135.302 18.0002L136.002 16.5002L138.302 17.8002L141.302 10.4002L144.302 10.0002L149.702 11.4002L158.702 14.3002L163.102 8.7002L174.502 17.7002L171.402 21.2002L164.602 20.5002L162.902 27.5002L161.102 31.4002L168.702 35.8002L171.202 43.4002L164.302 51.3002L150.002 60.2002L150.802 64.1002L145.902 60.4002L138.102 60.5002L131.802 54.8002L128.202 56.9002L127.402 54.1002L126.602 52.7002L122.702 55.2002L120.202 54.9002L119.602 56.7002L117.702 57.9002L115.702 52.9002L118.502 50.5002Z" fill="#AFD88C" stroke="white" stroke-width="0.5"/>
<path id="Vector_24" d="M132.32 35.8722H139.024V36.7122H132.32V35.8722ZM135.136 35.0002H136.192V36.1042H135.136V35.0002ZM135.656 37.0642C136.461 37.0642 137.091 37.1815 137.544 37.4162C137.997 37.6455 138.224 37.9709 138.224 38.3922C138.224 38.8189 137.997 39.1442 137.544 39.3682C137.091 39.5975 136.461 39.7122 135.656 39.7122C134.856 39.7122 134.227 39.5975 133.768 39.3682C133.315 39.1442 133.088 38.8189 133.088 38.3922C133.088 37.9709 133.315 37.6455 133.768 37.4162C134.227 37.1815 134.856 37.0642 135.656 37.0642ZM135.656 37.8642C135.325 37.8642 135.048 37.8829 134.824 37.9202C134.605 37.9575 134.44 38.0162 134.328 38.0962C134.216 38.1709 134.16 38.2695 134.16 38.3922C134.16 38.5095 134.216 38.6082 134.328 38.6882C134.44 38.7629 134.605 38.8215 134.824 38.8642C135.048 38.9015 135.325 38.9202 135.656 38.9202C135.992 38.9202 136.269 38.9015 136.488 38.8642C136.707 38.8215 136.872 38.7629 136.984 38.6882C137.096 38.6082 137.152 38.5095 137.152 38.3922C137.152 38.2695 137.096 38.1709 136.984 38.0962C136.872 38.0162 136.707 37.9575 136.488 37.9202C136.269 37.8829 135.992 37.8642 135.656 37.8642ZM133.176 32.5122H134.224V33.1362H137.12V32.5122H138.176V35.3202H133.176V32.5122ZM134.224 33.9282V34.4882H137.12V33.9282H134.224ZM141.399 36.6882H142.463V37.8802H141.399V36.6882ZM144.511 32.3042H145.575V39.7122H144.511V32.3042ZM145.207 35.3122H146.511V36.1842H145.207V35.3122ZM139.735 38.4802L139.607 37.6162C140.034 37.6162 140.501 37.6135 141.007 37.6082C141.519 37.6029 142.042 37.5842 142.575 37.5522C143.114 37.5202 143.634 37.4722 144.135 37.4082L144.215 38.1762C143.698 38.2722 143.173 38.3442 142.639 38.3922C142.106 38.4349 141.591 38.4615 141.095 38.4722C140.605 38.4775 140.151 38.4802 139.735 38.4802ZM139.743 33.1122H144.103V33.9442H139.743V33.1122ZM141.927 34.2402C142.285 34.2402 142.599 34.2989 142.871 34.4162C143.143 34.5335 143.357 34.6962 143.511 34.9042C143.666 35.1122 143.743 35.3549 143.743 35.6322C143.743 35.9042 143.666 36.1469 143.511 36.3602C143.357 36.5682 143.143 36.7309 142.871 36.8482C142.599 36.9655 142.285 37.0242 141.927 37.0242C141.575 37.0242 141.263 36.9655 140.991 36.8482C140.719 36.7309 140.506 36.5682 140.351 36.3602C140.197 36.1469 140.119 35.9042 140.119 35.6322C140.119 35.3549 140.197 35.1122 140.351 34.9042C140.506 34.6962 140.719 34.5335 140.991 34.4162C141.263 34.2989 141.575 34.2402 141.927 34.2402ZM141.927 35.0402C141.687 35.0402 141.493 35.0935 141.343 35.2002C141.199 35.3015 141.127 35.4455 141.127 35.6322C141.127 35.8242 141.199 35.9709 141.343 36.0722C141.493 36.1735 141.687 36.2242 141.927 36.2242C142.173 36.2242 142.367 36.1735 142.511 36.0722C142.661 35.9709 142.735 35.8242 142.735 35.6322C142.735 35.4455 142.661 35.3015 142.511 35.2002C142.367 35.0935 142.173 35.0402 141.927 35.0402ZM141.399 32.3362H142.463V33.7362H141.399V32.3362Z" fill="black"/>
</g>
<g id="Yeongdeok">
<path id="Vector_25" d="M186.1 75L196.9 78.4L200.5 75.5L205.6 79.4L203.9 87L209.7 100.3L200.9 138.3L191.8 138.5L190.8 129.8L185 130.3L171.9 102.6L181 104.2L181.2 100.3L183.9 100.8L182.3 97.2L183.6 92.6L179.8 88.6L181.6 77.3L186.1 75Z" fill="#AFD88C" stroke="white" stroke-width="0.5"/>
<path id="Vector_26" d="M191.6 101.264H193.792V102.12H191.6V101.264ZM191.6 102.912H193.792V103.76H191.6V102.912ZM190.368 100.696C190.741 100.696 191.075 100.776 191.368 100.936C191.661 101.091 191.893 101.304 192.064 101.576C192.24 101.848 192.328 102.16 192.328 102.512C192.328 102.859 192.24 103.168 192.064 103.44C191.893 103.712 191.661 103.928 191.368 104.088C191.075 104.243 190.741 104.32 190.368 104.32C190.005 104.32 189.675 104.243 189.376 104.088C189.083 103.928 188.848 103.712 188.672 103.44C188.501 103.168 188.416 102.859 188.416 102.512C188.416 102.16 188.501 101.848 188.672 101.576C188.848 101.304 189.083 101.091 189.376 100.936C189.675 100.776 190.005 100.696 190.368 100.696ZM190.368 101.592C190.192 101.592 190.032 101.629 189.888 101.704C189.744 101.773 189.629 101.877 189.544 102.016C189.464 102.149 189.424 102.315 189.424 102.512C189.424 102.699 189.464 102.861 189.544 103C189.629 103.139 189.744 103.245 189.888 103.32C190.032 103.389 190.192 103.424 190.368 103.424C190.555 103.424 190.717 103.389 190.856 103.32C191 103.245 191.112 103.139 191.192 103C191.272 102.861 191.312 102.699 191.312 102.512C191.312 102.315 191.272 102.149 191.192 102.016C191.112 101.877 191 101.773 190.856 101.704C190.717 101.629 190.555 101.592 190.368 101.592ZM193.456 100.304H194.528V104.64H193.456V100.304ZM192.016 104.792C192.539 104.792 192.987 104.851 193.36 104.968C193.739 105.08 194.032 105.245 194.24 105.464C194.448 105.683 194.552 105.944 194.552 106.248C194.552 106.552 194.448 106.813 194.24 107.032C194.032 107.256 193.739 107.424 193.36 107.536C192.987 107.653 192.539 107.712 192.016 107.712C191.493 107.712 191.043 107.653 190.664 107.536C190.285 107.424 189.992 107.256 189.784 107.032C189.581 106.813 189.48 106.552 189.48 106.248C189.48 105.944 189.581 105.683 189.784 105.464C189.992 105.245 190.285 105.08 190.664 104.968C191.043 104.851 191.493 104.792 192.016 104.792ZM192.016 105.608C191.696 105.608 191.424 105.632 191.2 105.68C190.976 105.728 190.808 105.8 190.696 105.896C190.584 105.987 190.528 106.104 190.528 106.248C190.528 106.392 190.584 106.512 190.696 106.608C190.808 106.704 190.976 106.776 191.2 106.824C191.424 106.867 191.696 106.888 192.016 106.888C192.341 106.888 192.613 106.867 192.832 106.824C193.056 106.776 193.224 106.704 193.336 106.608C193.448 106.512 193.504 106.392 193.504 106.248C193.504 106.104 193.448 105.987 193.336 105.896C193.224 105.8 193.056 105.728 192.832 105.68C192.613 105.632 192.341 105.608 192.016 105.608ZM196.079 103.696H196.663C197.159 103.696 197.583 103.691 197.935 103.68C198.287 103.664 198.605 103.643 198.887 103.616C199.17 103.584 199.45 103.539 199.727 103.48L199.831 104.32C199.543 104.384 199.253 104.432 198.959 104.464C198.666 104.496 198.335 104.517 197.967 104.528C197.605 104.539 197.17 104.544 196.663 104.544H196.079V103.696ZM196.079 100.8H199.407V101.648H197.135V103.928H196.079V100.8ZM196.831 105.096H201.887V107.712H200.815V105.944H196.831V105.096ZM200.815 100.296H201.887V104.776H200.815V100.296ZM199.071 102.152H201.095V102.992H199.071V102.152Z" fill="black"/>
</g>
<g id="Uljin">
<path id="Vector_27" d="M188.401 4.5L196.501 1L197.701 8.2L205.101 14.5L202.601 19.1L203.701 40.7L211.601 64.8L211.301 72.5L205.501 79.3L200.401 75.4L196.801 78.3L186.001 74.9L189.101 67.8L186.101 63.8L191.301 58.1L185.901 50L187.401 45L184.601 43.1L181.801 47.1L177.401 46.6L175.501 42.9L171.001 43.3L168.601 35.7L161.301 30.5L162.801 27.4L164.501 20.4L171.201 21.1L174.301 17.6L180.901 18L179.201 12.5L188.401 4.5Z" fill="#AFD88C" stroke="white" stroke-width="0.5"/>
<path id="Vector_28" d="M184.136 34.8242H185.192V35.8642H184.136V34.8242ZM184.68 31.3682C185.523 31.3682 186.179 31.4775 186.648 31.6962C187.123 31.9095 187.36 32.2215 187.36 32.6322C187.36 33.0375 187.123 33.3495 186.648 33.5682C186.179 33.7869 185.523 33.8962 184.68 33.8962C183.832 33.8962 183.171 33.7869 182.696 33.5682C182.227 33.3495 181.992 33.0375 181.992 32.6322C181.992 32.2215 182.227 31.9095 182.696 31.6962C183.171 31.4775 183.832 31.3682 184.68 31.3682ZM184.672 32.1442C184.32 32.1442 184.027 32.1629 183.792 32.2002C183.557 32.2322 183.381 32.2855 183.264 32.3602C183.152 32.4295 183.096 32.5202 183.096 32.6322C183.096 32.7442 183.152 32.8375 183.264 32.9122C183.381 32.9815 183.557 33.0322 183.792 33.0642C184.027 33.0962 184.32 33.1122 184.672 33.1122C185.029 33.1122 185.325 33.0962 185.56 33.0642C185.795 33.0322 185.968 32.9815 186.08 32.9122C186.192 32.8375 186.248 32.7442 186.248 32.6322C186.248 32.5202 186.192 32.4295 186.08 32.3602C185.968 32.2855 185.795 32.2322 185.56 32.2002C185.325 32.1629 185.029 32.1442 184.672 32.1442ZM181.32 34.2082H188.024V35.0482H181.32V34.2082ZM182.088 35.5362H187.208V37.4322H183.152V38.0882H182.096V36.6962H186.16V36.3202H182.088V35.5362ZM182.096 37.8562H187.408V38.6642H182.096V37.8562ZM190.479 32.1282H191.359V32.7522C191.359 33.2162 191.282 33.6589 191.127 34.0802C190.978 34.4962 190.749 34.8615 190.439 35.1762C190.13 35.4855 189.735 35.7175 189.255 35.8722L188.711 35.0402C189.127 34.9069 189.463 34.7202 189.719 34.4802C189.981 34.2402 190.173 33.9709 190.295 33.6722C190.418 33.3682 190.479 33.0615 190.479 32.7522V32.1282ZM190.703 32.1282H191.567V32.7522C191.567 32.9709 191.602 33.1895 191.671 33.4082C191.741 33.6215 191.845 33.8269 191.983 34.0242C192.127 34.2162 192.309 34.3895 192.527 34.5442C192.746 34.6989 193.005 34.8242 193.303 34.9202L192.767 35.7442C192.303 35.5949 191.919 35.3709 191.615 35.0722C191.311 34.7735 191.082 34.4242 190.927 34.0242C190.778 33.6189 190.703 33.1949 190.703 32.7522V32.1282ZM188.999 31.8242H193.031V32.6722H188.999V31.8242ZM193.775 31.3042H194.839V36.6482H193.775V31.3042ZM189.903 37.7282H195.031V38.5842H189.903V37.7282ZM189.903 36.1682H190.967V38.1522H189.903V36.1682Z" fill="black"/>
</g>
<g id="Gunwi">
<path id="Vector_29" d="M78.5 137L83.6 130.7L92.4 134.8L96.5 138.8L101.8 138.2L107.1 140.7L107.6 149.2L110.2 147L127.5 151.5L130.8 147.4L132.7 147.6L138.5 150.2L140.1 154.1L139.2 158.9L135.5 158.6L128.5 167.9L121.2 164.3L115.2 175.9L115.1 179L112.4 179.5H112.3L108.1 180L105.6 177.7L106.8 169.6L99 172.6L98.1 164.4V164.3L95.1 156.6L97.2 154L92.8 150.3L90.3 152.9L88 145.3L82.4 147.7L79.4 143.5L78.5 137Z" fill="#AFD88C" stroke="white" stroke-width="0.5"/>
<path id="Vector_30" d="M103.152 155.64H107.832V156.488H103.152V155.64ZM102.328 158.424H109.04V159.272H102.328V158.424ZM105.2 158.936H106.264V160.84H105.2V158.936ZM107.2 155.64H108.256V156.28C108.256 156.632 108.245 157.013 108.224 157.424C108.208 157.829 108.139 158.296 108.016 158.824L106.968 158.72C107.085 158.208 107.152 157.76 107.168 157.376C107.189 156.992 107.2 156.627 107.2 156.28V155.64ZM103.104 161.728H108.36V162.584H103.104V161.728ZM103.104 160.184H104.168V161.912H103.104V160.184ZM112.087 155.592C112.461 155.592 112.794 155.661 113.087 155.8C113.381 155.933 113.61 156.12 113.775 156.36C113.946 156.595 114.031 156.867 114.031 157.176C114.031 157.485 113.946 157.76 113.775 158C113.61 158.235 113.381 158.421 113.087 158.56C112.794 158.693 112.461 158.76 112.087 158.76C111.714 158.76 111.381 158.693 111.087 158.56C110.794 158.421 110.562 158.235 110.391 158C110.226 157.76 110.143 157.485 110.143 157.176C110.143 156.867 110.226 156.595 110.391 156.36C110.562 156.12 110.794 155.933 111.087 155.8C111.381 155.661 111.714 155.592 112.087 155.592ZM112.087 156.456C111.911 156.456 111.754 156.485 111.615 156.544C111.477 156.597 111.367 156.677 111.287 156.784C111.207 156.891 111.167 157.021 111.167 157.176C111.167 157.331 111.207 157.461 111.287 157.568C111.367 157.669 111.477 157.749 111.615 157.808C111.754 157.861 111.911 157.888 112.087 157.888C112.269 157.888 112.429 157.861 112.567 157.808C112.706 157.749 112.815 157.669 112.895 157.568C112.975 157.461 113.015 157.331 113.015 157.176C113.015 157.021 112.975 156.891 112.895 156.784C112.815 156.677 112.706 156.597 112.567 156.544C112.429 156.485 112.269 156.456 112.087 156.456ZM111.583 159.504H112.655V162.48H111.583V159.504ZM114.823 155.296H115.887V162.704H114.823V155.296ZM109.831 160.064L109.711 159.2C110.138 159.2 110.615 159.197 111.143 159.192C111.677 159.181 112.223 159.157 112.783 159.12C113.343 159.083 113.885 159.024 114.407 158.944L114.471 159.72C113.938 159.827 113.397 159.904 112.847 159.952C112.298 160 111.765 160.029 111.247 160.04C110.73 160.051 110.258 160.059 109.831 160.064Z" fill="black"/>
</g>
<g id="Yeongcheon">
<path id="Vector_31" d="M115.102 179L115.202 175.9L121.202 164.3L128.502 167.9L135.502 158.6L139.202 158.9L140.102 154.1L152.102 154.7L159.102 156.5L162.502 163L166.002 161.7L165.502 165.8L172.902 172.1L170.802 175.3L172.102 179.1L167.902 179.8L171.002 192L168.702 193.7L162.202 190L157.402 195.5L156.102 205H156.002L150.402 206.7L139.302 205.7L136.002 188.5L126.702 183.2L120.102 182.5L115.102 179Z" fill="#AFD88C" stroke="white" stroke-width="0.5"/>
<path id="Vector_32" d="M143.6 175.264H145.792V176.12H143.6V175.264ZM143.6 176.912H145.792V177.76H143.6V176.912ZM142.368 174.696C142.741 174.696 143.075 174.776 143.368 174.936C143.661 175.091 143.893 175.304 144.064 175.576C144.24 175.848 144.328 176.16 144.328 176.512C144.328 176.859 144.24 177.168 144.064 177.44C143.893 177.712 143.661 177.928 143.368 178.088C143.075 178.243 142.741 178.32 142.368 178.32C142.005 178.32 141.675 178.243 141.376 178.088C141.083 177.928 140.848 177.712 140.672 177.44C140.501 177.168 140.416 176.859 140.416 176.512C140.416 176.16 140.501 175.848 140.672 175.576C140.848 175.304 141.083 175.091 141.376 174.936C141.675 174.776 142.005 174.696 142.368 174.696ZM142.368 175.592C142.192 175.592 142.032 175.629 141.888 175.704C141.744 175.773 141.629 175.877 141.544 176.016C141.464 176.149 141.424 176.315 141.424 176.512C141.424 176.699 141.464 176.861 141.544 177C141.629 177.139 141.744 177.245 141.888 177.32C142.032 177.389 142.192 177.424 142.368 177.424C142.555 177.424 142.717 177.389 142.856 177.32C143 177.245 143.112 177.139 143.192 177C143.272 176.861 143.312 176.699 143.312 176.512C143.312 176.315 143.272 176.149 143.192 176.016C143.112 175.877 143 175.773 142.856 175.704C142.717 175.629 142.555 175.592 142.368 175.592ZM145.456 174.304H146.528V178.64H145.456V174.304ZM144.016 178.792C144.539 178.792 144.987 178.851 145.36 178.968C145.739 179.08 146.032 179.245 146.24 179.464C146.448 179.683 146.552 179.944 146.552 180.248C146.552 180.552 146.448 180.813 146.24 181.032C146.032 181.256 145.739 181.424 145.36 181.536C144.987 181.653 144.539 181.712 144.016 181.712C143.493 181.712 143.043 181.653 142.664 181.536C142.285 181.424 141.992 181.256 141.784 181.032C141.581 180.813 141.48 180.552 141.48 180.248C141.48 179.944 141.581 179.683 141.784 179.464C141.992 179.245 142.285 179.08 142.664 178.968C143.043 178.851 143.493 178.792 144.016 178.792ZM144.016 179.608C143.696 179.608 143.424 179.632 143.2 179.68C142.976 179.728 142.808 179.8 142.696 179.896C142.584 179.987 142.528 180.104 142.528 180.248C142.528 180.392 142.584 180.512 142.696 180.608C142.808 180.704 142.976 180.776 143.2 180.824C143.424 180.867 143.696 180.888 144.016 180.888C144.341 180.888 144.613 180.867 144.832 180.824C145.056 180.776 145.224 180.704 145.336 180.608C145.448 180.512 145.504 180.392 145.504 180.248C145.504 180.104 145.448 179.987 145.336 179.896C145.224 179.8 145.056 179.728 144.832 179.68C144.613 179.632 144.341 179.608 144.016 179.608ZM149.343 175.752H150.215V176.032C150.215 176.485 150.141 176.912 149.991 177.312C149.842 177.712 149.615 178.061 149.311 178.36C149.007 178.659 148.621 178.885 148.151 179.04L147.631 178.208C148.031 178.08 148.357 177.904 148.607 177.68C148.863 177.451 149.05 177.195 149.167 176.912C149.285 176.624 149.343 176.331 149.343 176.032V175.752ZM149.543 175.752H150.407V176.032C150.407 176.309 150.466 176.584 150.583 176.856C150.706 177.123 150.895 177.365 151.151 177.584C151.407 177.797 151.733 177.963 152.127 178.08L151.623 178.912C151.154 178.773 150.765 178.563 150.455 178.28C150.151 177.992 149.922 177.656 149.767 177.272C149.618 176.883 149.543 176.469 149.543 176.032V175.752ZM147.887 175.176H151.871V176.008H147.887V175.176ZM149.343 174.352H150.407V175.488H149.343V174.352ZM151.631 176.456H153.351V177.32H151.631V176.456ZM152.815 174.304H153.887V179.784H152.815V174.304ZM148.991 180.728H154.055V181.584H148.991V180.728ZM148.991 179.328H150.055V181.288H148.991V179.328Z" fill="black"/>
</g>
<g id="Gyeongju">
<path id="Vector_33" d="M172.9 172.1L176.8 176.3L185.2 168.6L190.1 170.6L189 176.2L200 201.4L206.1 202.4L208.3 198.2L212.2 204L218.9 205.2L212.1 234.6L199.8 230.4L192.6 236.1L187.3 233.5L187.4 227.2L173.2 223.7L164.5 228.8L165.1 236.6L160.7 235.5L159.4 228.5L155 228.8L151 222.1L156.1 205L157.4 195.5L162.2 190L168.7 193.7L171 192L167.9 179.8L172.1 179L170.8 175.2L172.9 172.1Z" fill="#AFD88C" stroke="white" stroke-width="0.5"/>
<path id="Vector_34" d="M179.897 203.472H181.633V204.312H179.897V203.472ZM179.833 205H181.577V205.856H179.833V205ZM181.457 202.296H182.529V206.56H181.457V202.296ZM179.049 202.8H180.177C180.177 203.472 180.052 204.067 179.801 204.584C179.55 205.096 179.174 205.531 178.673 205.888C178.172 206.24 177.545 206.52 176.793 206.728L176.385 205.896C177.014 205.731 177.524 205.523 177.913 205.272C178.302 205.016 178.588 204.723 178.769 204.392C178.956 204.061 179.049 203.704 179.049 203.32V202.8ZM176.785 202.8H179.793V203.648H176.785V202.8ZM180.073 206.656C180.574 206.656 181.012 206.717 181.385 206.84C181.764 206.963 182.054 207.136 182.257 207.36C182.465 207.584 182.569 207.851 182.569 208.16C182.569 208.469 182.465 208.736 182.257 208.96C182.054 209.184 181.764 209.357 181.385 209.48C181.012 209.608 180.574 209.672 180.073 209.672C179.572 209.672 179.132 209.608 178.753 209.48C178.38 209.357 178.089 209.184 177.881 208.96C177.673 208.736 177.569 208.469 177.569 208.16C177.569 207.851 177.673 207.584 177.881 207.36C178.089 207.136 178.38 206.963 178.753 206.84C179.132 206.717 179.572 206.656 180.073 206.656ZM180.073 207.472C179.769 207.472 179.508 207.499 179.289 207.552C179.076 207.605 178.91 207.683 178.793 207.784C178.676 207.885 178.617 208.011 178.617 208.16C178.617 208.309 178.676 208.437 178.793 208.544C178.91 208.645 179.076 208.723 179.289 208.776C179.508 208.824 179.769 208.848 180.073 208.848C180.377 208.848 180.636 208.824 180.849 208.776C181.062 208.723 181.228 208.645 181.345 208.544C181.462 208.437 181.521 208.309 181.521 208.16C181.521 208.011 181.462 207.885 181.345 207.784C181.228 207.683 181.062 207.605 180.849 207.552C180.636 207.499 180.377 207.472 180.073 207.472ZM186.424 203.12H187.352V203.344C187.352 203.6 187.31 203.848 187.224 204.088C187.144 204.328 187.022 204.552 186.856 204.76C186.691 204.963 186.488 205.147 186.248 205.312C186.014 205.472 185.742 205.608 185.432 205.72C185.123 205.832 184.779 205.912 184.4 205.96L184.008 205.136C184.339 205.093 184.632 205.029 184.888 204.944C185.15 204.853 185.376 204.749 185.568 204.632C185.76 204.509 185.92 204.379 186.048 204.24C186.176 204.101 186.27 203.955 186.328 203.8C186.392 203.645 186.424 203.493 186.424 203.344V203.12ZM186.736 203.12H187.656V203.344C187.656 203.493 187.686 203.645 187.744 203.8C187.808 203.955 187.904 204.101 188.032 204.24C188.16 204.379 188.32 204.509 188.512 204.632C188.71 204.749 188.936 204.853 189.192 204.944C189.448 205.029 189.742 205.093 190.072 205.136L189.68 205.96C189.302 205.912 188.958 205.832 188.648 205.72C188.339 205.608 188.064 205.472 187.824 205.312C187.59 205.147 187.39 204.963 187.224 204.76C187.064 204.552 186.942 204.328 186.856 204.088C186.776 203.848 186.736 203.6 186.736 203.344V203.12ZM186.48 207H187.544V209.712H186.48V207ZM183.688 206.384H190.392V207.24H183.688V206.384ZM184.28 202.68H189.776V203.52H184.28V202.68Z" fill="black"/>
</g>
<g id="pohang_Bukgu">
<path id="Vector_35" d="M204.1 155.2V159.8L209.6 162.4L202 170.6L198.4 177.9L190 170.5L185.1 168.5L176.7 176.2L172.8 172L165.4 165.6L165.9 161.6L162.4 162.9L158.9 156.4L151.9 154.6L163.4 144L159.8 140.2L160.4 138.7L160.6 138.4L169.9 139.7L174.8 145.4L184.8 130.1L190.6 129.6L191.6 138.3L200.7 138.1L200.5 147.5L202.1 151L202.6 151.1L203.8 154.7L204.1 155.2Z" fill="#AFD88C" stroke="white" stroke-width="0.5"/>
<path id="Vector_36" d="M166.328 158.016H173.04V158.88H166.328V158.016ZM169.136 156.336H170.192V158.4H169.136V156.336ZM166.84 152.904H172.488V153.76H166.84V152.904ZM166.88 155.856H172.464V156.696H166.88V155.856ZM167.848 153.608H168.912V155.952H167.848V153.608ZM170.416 153.608H171.48V155.952H170.416V153.608ZM178.447 152.304H179.511V157H178.447V152.304ZM179.223 154.192H180.495V155.056H179.223V154.192ZM177.111 157.072C177.618 157.072 178.058 157.125 178.431 157.232C178.805 157.339 179.09 157.491 179.287 157.688C179.49 157.885 179.591 158.12 179.591 158.392C179.591 158.669 179.49 158.907 179.287 159.104C179.09 159.301 178.805 159.451 178.431 159.552C178.058 159.659 177.618 159.712 177.111 159.712C176.599 159.712 176.157 159.659 175.783 159.552C175.41 159.451 175.122 159.301 174.919 159.104C174.717 158.907 174.615 158.669 174.615 158.392C174.615 158.12 174.717 157.885 174.919 157.688C175.122 157.491 175.41 157.339 175.783 157.232C176.157 157.125 176.599 157.072 177.111 157.072ZM177.111 157.88C176.642 157.88 176.285 157.923 176.039 158.008C175.799 158.088 175.679 158.216 175.679 158.392C175.679 158.573 175.799 158.707 176.039 158.792C176.285 158.877 176.642 158.92 177.111 158.92C177.575 158.92 177.927 158.877 178.167 158.792C178.413 158.707 178.535 158.573 178.535 158.392C178.535 158.216 178.413 158.088 178.167 158.008C177.927 157.923 177.575 157.88 177.111 157.88ZM173.687 153H178.039V153.832H173.687V153ZM175.863 154.08C176.226 154.08 176.543 154.136 176.815 154.248C177.087 154.355 177.301 154.509 177.455 154.712C177.61 154.909 177.687 155.141 177.687 155.408C177.687 155.669 177.61 155.901 177.455 156.104C177.301 156.301 177.087 156.456 176.815 156.568C176.543 156.675 176.226 156.728 175.863 156.728C175.506 156.728 175.189 156.675 174.911 156.568C174.639 156.456 174.426 156.301 174.271 156.104C174.117 155.901 174.039 155.669 174.039 155.408C174.039 155.141 174.117 154.909 174.271 154.712C174.426 154.509 174.639 154.355 174.911 154.248C175.189 154.136 175.506 154.08 175.863 154.08ZM175.863 154.848C175.629 154.848 175.437 154.896 175.287 154.992C175.138 155.083 175.063 155.221 175.063 155.408C175.063 155.589 175.138 155.725 175.287 155.816C175.437 155.907 175.629 155.952 175.863 155.952C176.103 155.952 176.295 155.907 176.439 155.816C176.589 155.725 176.663 155.589 176.663 155.408C176.663 155.221 176.589 155.083 176.439 154.992C176.295 154.896 176.103 154.848 175.863 154.848ZM175.335 152.248H176.391V153.448H175.335V152.248ZM185.831 156.464H186.895V157.592H185.831V156.464ZM183.023 155.824H189.727V156.672H183.023V155.824ZM183.767 157.296H188.919V159.712H187.855V158.136H183.767V157.296ZM183.879 152.488H184.927V153.136H187.823V152.488H188.879V155.344H183.879V152.488ZM184.927 153.936V154.512H187.823V153.936H184.927ZM191.159 152.728H195.799V153.568H191.159V152.728ZM190.391 155.88H197.095V156.744H190.391V155.88ZM193.167 156.488H194.239V159.712H193.167V156.488ZM195.255 152.728H196.303V153.384C196.303 153.651 196.297 153.933 196.287 154.232C196.281 154.531 196.26 154.859 196.223 155.216C196.185 155.568 196.116 155.963 196.015 156.4L194.975 156.272C195.113 155.659 195.193 155.123 195.215 154.664C195.241 154.2 195.255 153.773 195.255 153.384V152.728Z" fill="black"/>
</g>
<g id="pohang_Namgu">
<path id="Vector_37" d="M219.702 172.2L220.402 170.8L224.502 165.4L227.902 176.9L219.902 191L220.102 198.9L222.202 200L219.002 205.1L212.302 203.9L208.402 198.1L206.202 202.3L200.102 201.3L189.102 176.1L190.202 170.5L198.602 177.9L201.202 172.4L203.002 175.6L208.802 175.2L205.002 176.7L210.602 181.4L213.302 178.7L219.702 172.2Z" fill="#AFD88C" stroke="white" stroke-width="0.5"/>
<path id="Vector_38" d="M196.246 188.262H201.28V188.91H196.246V188.262ZM198.352 187.002H199.144V188.55H198.352V187.002ZM196.63 184.428H200.866V185.07H196.63V184.428ZM196.66 186.642H200.848V187.272H196.66V186.642ZM197.386 184.956H198.184V186.714H197.386V184.956ZM199.312 184.956H200.11V186.714H199.312V184.956ZM205.336 183.978H206.134V187.5H205.336V183.978ZM205.918 185.394H206.872V186.042H205.918V185.394ZM204.334 187.554C204.714 187.554 205.044 187.594 205.324 187.674C205.604 187.754 205.818 187.868 205.966 188.016C206.118 188.164 206.194 188.34 206.194 188.544C206.194 188.752 206.118 188.93 205.966 189.078C205.818 189.226 205.604 189.338 205.324 189.414C205.044 189.494 204.714 189.534 204.334 189.534C203.95 189.534 203.618 189.494 203.338 189.414C203.058 189.338 202.842 189.226 202.69 189.078C202.538 188.93 202.462 188.752 202.462 188.544C202.462 188.34 202.538 188.164 202.69 188.016C202.842 187.868 203.058 187.754 203.338 187.674C203.618 187.594 203.95 187.554 204.334 187.554ZM204.334 188.16C203.982 188.16 203.714 188.192 203.53 188.256C203.35 188.316 203.26 188.412 203.26 188.544C203.26 188.68 203.35 188.78 203.53 188.844C203.714 188.908 203.982 188.94 204.334 188.94C204.682 188.94 204.946 188.908 205.126 188.844C205.31 188.78 205.402 188.68 205.402 188.544C205.402 188.412 205.31 188.316 205.126 188.256C204.946 188.192 204.682 188.16 204.334 188.16ZM201.766 184.5H205.03V185.124H201.766V184.5ZM203.398 185.31C203.67 185.31 203.908 185.352 204.112 185.436C204.316 185.516 204.476 185.632 204.592 185.784C204.708 185.932 204.766 186.106 204.766 186.306C204.766 186.502 204.708 186.676 204.592 186.828C204.476 186.976 204.316 187.092 204.112 187.176C203.908 187.256 203.67 187.296 203.398 187.296C203.13 187.296 202.892 187.256 202.684 187.176C202.48 187.092 202.32 186.976 202.204 186.828C202.088 186.676 202.03 186.502 202.03 186.306C202.03 186.106 202.088 185.932 202.204 185.784C202.32 185.632 202.48 185.516 202.684 185.436C202.892 185.352 203.13 185.31 203.398 185.31ZM203.398 185.886C203.222 185.886 203.078 185.922 202.966 185.994C202.854 186.062 202.798 186.166 202.798 186.306C202.798 186.442 202.854 186.544 202.966 186.612C203.078 186.68 203.222 186.714 203.398 186.714C203.578 186.714 203.722 186.68 203.83 186.612C203.942 186.544 203.998 186.442 203.998 186.306C203.998 186.166 203.942 186.062 203.83 185.994C203.722 185.922 203.578 185.886 203.398 185.886ZM203.002 183.936H203.794V184.836H203.002V183.936ZM212.343 183.972H213.141V187.104H212.343V183.972ZM212.925 185.142H213.879V185.796H212.925V185.142ZM209.529 187.356H213.141V189.474H209.529V187.356ZM212.367 187.986H210.315V188.844H212.367V187.986ZM208.995 184.236H209.793V186.51H208.995V184.236ZM208.995 186.168H209.457C209.837 186.168 210.231 186.154 210.639 186.126C211.051 186.094 211.475 186.036 211.911 185.952L212.001 186.588C211.553 186.68 211.115 186.744 210.687 186.78C210.263 186.812 209.853 186.828 209.457 186.828H208.995V186.168ZM214.869 184.296H218.349V184.926H214.869V184.296ZM214.293 186.66H219.321V187.308H214.293V186.66ZM216.375 187.116H217.179V189.534H216.375V187.116ZM217.941 184.296H218.727V184.788C218.727 184.988 218.723 185.2 218.715 185.424C218.711 185.648 218.695 185.894 218.667 186.162C218.639 186.426 218.587 186.722 218.511 187.05L217.731 186.954C217.835 186.494 217.895 186.092 217.911 185.748C217.931 185.4 217.941 185.08 217.941 184.788V184.296Z" fill="black"/>
</g>
<g id="Mungyeong">
<path id="Vector_39" d="M56.4008 45.7002L72.4008 56.5002L72.6008 64.5002L68.0008 67.0002L66.5008 75.9002L70.4008 80.0002L67.9008 81.6002L65.1008 79.4002L64.9008 82.2002L59.1008 86.5002L63.6008 91.6002L60.1008 98.3002L54.4008 98.5002L53.9008 92.2002L41.3008 84.9002L35.3008 87.6002L33.1008 96.8002L23.6008 97.3002L23.4008 102.1L17.7008 99.1002L16.7008 88.2002L17.7008 78.4002L10.3008 75.7002L12.8008 73.7002L17.2008 74.3002L21.1008 66.9002L21.2008 67.0002L35.0008 71.6002L30.2008 65.4002L33.5008 54.6002L37.8008 57.6002L42.8008 52.0002L51.4008 54.8002L53.3008 55.1002L52.6008 49.7002L55.8008 49.9002L56.4008 45.7002Z" fill="#AFD88C" stroke="white" stroke-width="0.5"/>
<path id="Vector_40" d="M41.3203 71.9599H48.0323V72.7999H41.3203V71.9599ZM44.2323 72.4879H45.2963V74.0479H44.2323V72.4879ZM42.1443 68.6079H47.1763V71.3679H42.1443V68.6079ZM46.1283 69.4399H43.1923V70.5279H46.1283V69.4399ZM42.0963 74.7279H47.2883V75.5839H42.0963V74.7279ZM42.0963 73.4239H43.1603V75.0159H42.0963V73.4239ZM52.2557 69.4719H53.9917V70.3119H52.2557V69.4719ZM52.1917 70.9999H53.9357V71.8559H52.1917V70.9999ZM53.8157 68.2959H54.8877V72.5599H53.8157V68.2959ZM51.4077 68.7999H52.5357C52.5357 69.4719 52.4103 70.0666 52.1597 70.5839C51.909 71.0959 51.533 71.5306 51.0317 71.8879C50.5303 72.2399 49.9037 72.5199 49.1517 72.7279L48.7437 71.8959C49.373 71.7306 49.8823 71.5226 50.2717 71.2719C50.661 71.0159 50.9463 70.7226 51.1277 70.3919C51.3143 70.0612 51.4077 69.7039 51.4077 69.3199V68.7999ZM49.1437 68.7999H52.1517V69.6479H49.1437V68.7999ZM52.4317 72.6559C52.933 72.6559 53.3703 72.7172 53.7437 72.8399C54.1223 72.9626 54.413 73.1359 54.6157 73.3599C54.8237 73.5839 54.9277 73.8506 54.9277 74.1599C54.9277 74.4692 54.8237 74.7359 54.6157 74.9599C54.413 75.1839 54.1223 75.3572 53.7437 75.4799C53.3703 75.6079 52.933 75.6719 52.4317 75.6719C51.9303 75.6719 51.4903 75.6079 51.1117 75.4799C50.7383 75.3572 50.4477 75.1839 50.2397 74.9599C50.0317 74.7359 49.9277 74.4692 49.9277 74.1599C49.9277 73.8506 50.0317 73.5839 50.2397 73.3599C50.4477 73.1359 50.7383 72.9626 51.1117 72.8399C51.4903 72.7172 51.9303 72.6559 52.4317 72.6559ZM52.4317 73.4719C52.1277 73.4719 51.8663 73.4986 51.6477 73.5519C51.4343 73.6052 51.269 73.6826 51.1517 73.7839C51.0343 73.8852 50.9757 74.0106 50.9757 74.1599C50.9757 74.3092 51.0343 74.4372 51.1517 74.5439C51.269 74.6452 51.4343 74.7226 51.6477 74.7759C51.8663 74.8239 52.1277 74.8479 52.4317 74.8479C52.7357 74.8479 52.9943 74.8239 53.2077 74.7759C53.421 74.7226 53.5863 74.6452 53.7037 74.5439C53.821 74.4372 53.8797 74.3092 53.8797 74.1599C53.8797 74.0106 53.821 73.8852 53.7037 73.7839C53.5863 73.6826 53.421 73.6052 53.2077 73.5519C52.9943 73.4986 52.7357 73.4719 52.4317 73.4719Z" fill="black"/>
</g>
<g id="Goryeong">
<path id="Vector_41" d="M76.1016 205.2L87.0016 207.9L88.4016 210.7L80.5016 211.7L75.8015 219.5L82.1016 228L71.8015 228.3L78.3015 238.4L74.5016 242.8L73.6016 242.4L72.0016 237.6L66.1016 235.9L56.3015 238.5L47.6016 236.3L47.9016 233.2L53.1016 231.6L47.8015 217L48.5016 210.9H53.6016L58.9016 216.5L62.4016 209.1L73.6016 214.2L76.1016 205.2Z" fill="#AFD88C" stroke="white" stroke-width="0.5"/>
<path id="Vector_42" d="M56.0161 219.928H60.7041V220.776H56.0161V219.928ZM55.3281 224.952H62.0321V225.816H55.3281V224.952ZM57.6961 222.408H58.7681V225.384H57.6961V222.408ZM60.3201 219.928H61.3921V220.632C61.3921 220.941 61.3868 221.269 61.3761 221.616C61.3708 221.963 61.3468 222.347 61.3041 222.768C61.2668 223.189 61.1974 223.661 61.0961 224.184L60.0321 224.072C60.1814 223.331 60.2668 222.685 60.2881 222.136C60.3094 221.581 60.3201 221.08 60.3201 220.632V219.928ZM62.9675 222.728H63.5275C63.9915 222.728 64.3888 222.725 64.7195 222.72C65.0555 222.709 65.3621 222.693 65.6395 222.672C65.9168 222.645 66.1915 222.605 66.4635 222.552L66.5755 223.392C66.3568 223.435 66.1408 223.469 65.9275 223.496C65.7195 223.517 65.4955 223.536 65.2555 223.552C65.0208 223.563 64.7621 223.571 64.4795 223.576C64.2021 223.576 63.8848 223.576 63.5275 223.576H62.9675V222.728ZM62.9515 219.688H66.2075V221.992H64.0235V223.352H62.9675V221.208H65.1515V220.528H62.9515V219.688ZM67.8155 219.304H68.8875V223.808H67.8155V219.304ZM66.6395 220.288H68.0155V221.136H66.6395V220.288ZM66.6395 221.816H68.0155V222.672H66.6395V221.816ZM66.3835 223.928C67.1728 223.928 67.7915 224.051 68.2395 224.296C68.6928 224.541 68.9195 224.885 68.9195 225.328C68.9195 225.776 68.6928 226.123 68.2395 226.368C67.7915 226.613 67.1728 226.736 66.3835 226.736C65.5941 226.736 64.9728 226.613 64.5195 226.368C64.0661 226.123 63.8395 225.776 63.8395 225.328C63.8395 224.885 64.0661 224.541 64.5195 224.296C64.9728 224.051 65.5941 223.928 66.3835 223.928ZM66.3835 224.728C66.0581 224.728 65.7861 224.752 65.5675 224.8C65.3488 224.843 65.1835 224.909 65.0715 225C64.9595 225.085 64.9035 225.195 64.9035 225.328C64.9035 225.467 64.9595 225.581 65.0715 225.672C65.1835 225.763 65.3488 225.829 65.5675 225.872C65.7861 225.915 66.0581 225.936 66.3835 225.936C66.7088 225.936 66.9808 225.915 67.1995 225.872C67.4181 225.829 67.5808 225.763 67.6875 225.672C67.7995 225.581 67.8555 225.467 67.8555 225.328C67.8555 225.195 67.7995 225.085 67.6875 225C67.5808 224.909 67.4181 224.843 67.1995 224.8C66.9808 224.752 66.7088 224.728 66.3835 224.728Z" fill="black"/>
</g>
<g id="Sangju_2">
<path id="Vector_43" d="M0.800781 88.2001L8.30078 86.4001L6.80078 83.2001L10.9008 79.6001L16.5008 88.1001L17.5008 99.0001L23.2008 102L23.4008 97.3001L32.9008 96.8001L35.0008 87.5001L41.1008 84.9001L53.7008 92.1001L54.1008 98.4001L59.9008 98.2001L59.2008 107.4L65.7008 110.8L69.0008 118.5L62.6008 127.7L58.2008 125.7L55.2008 134.5L45.8008 135.8L43.6008 141.8L36.1008 144.3L32.1008 142.6L27.6008 139.5L21.3008 142.6L14.2008 135L11.5008 139.3H7.70081L6.80078 132.6L12.6008 126.3L11.2008 124L10.6008 106.1L14.0008 99.5001L0.800781 88.2001Z" fill="#AFD88C" stroke="white" stroke-width="0.5"/>
<path id="Vector_44" d="M32.951 112.696H33.823V113.36C33.823 113.845 33.7483 114.307 33.599 114.744C33.455 115.176 33.231 115.555 32.927 115.88C32.623 116.205 32.2363 116.448 31.767 116.608L31.207 115.776C31.623 115.632 31.959 115.437 32.215 115.192C32.471 114.941 32.6577 114.656 32.775 114.336C32.8923 114.016 32.951 113.691 32.951 113.36V112.696ZM33.167 112.696H34.023V113.456C34.023 113.68 34.055 113.899 34.119 114.112C34.1883 114.325 34.2897 114.525 34.423 114.712C34.5563 114.899 34.727 115.067 34.935 115.216C35.143 115.36 35.3937 115.477 35.687 115.568L35.135 116.4C34.687 116.251 34.3163 116.029 34.023 115.736C33.735 115.443 33.519 115.101 33.375 114.712C33.2363 114.323 33.167 113.904 33.167 113.456V112.696ZM36.087 112.304H37.151V116.68H36.087V112.304ZM36.863 114.016H38.135V114.896H36.863V114.016ZM34.735 116.848C35.2523 116.848 35.6977 116.907 36.071 117.024C36.4443 117.136 36.7323 117.299 36.935 117.512C37.1377 117.72 37.239 117.976 37.239 118.28C37.239 118.579 37.1377 118.835 36.935 119.048C36.7323 119.261 36.4443 119.424 36.071 119.536C35.6977 119.653 35.2523 119.712 34.735 119.712C34.223 119.712 33.7777 119.653 33.399 119.536C33.0257 119.424 32.735 119.261 32.527 119.048C32.3243 118.835 32.223 118.579 32.223 118.28C32.223 117.976 32.3243 117.72 32.527 117.512C32.735 117.299 33.0257 117.136 33.399 117.024C33.7777 116.907 34.223 116.848 34.735 116.848ZM34.735 117.672C34.4203 117.672 34.1563 117.696 33.943 117.744C33.7297 117.787 33.567 117.853 33.455 117.944C33.343 118.029 33.287 118.141 33.287 118.28C33.287 118.413 33.343 118.525 33.455 118.616C33.567 118.707 33.7297 118.776 33.943 118.824C34.1563 118.867 34.4203 118.888 34.735 118.888C35.0497 118.888 35.3137 118.867 35.527 118.824C35.7457 118.776 35.9083 118.707 36.015 118.616C36.127 118.525 36.183 118.413 36.183 118.28C36.183 118.141 36.127 118.029 36.015 117.944C35.9083 117.853 35.7457 117.787 35.527 117.744C35.3137 117.696 35.0497 117.672 34.735 117.672ZM41.4224 113.12H42.3504V113.344C42.3504 113.6 42.3077 113.848 42.2224 114.088C42.1424 114.328 42.0197 114.552 41.8544 114.76C41.689 114.963 41.4864 115.147 41.2464 115.312C41.0117 115.472 40.7397 115.608 40.4304 115.72C40.121 115.832 39.777 115.912 39.3984 115.96L39.0064 115.136C39.337 115.093 39.6304 115.029 39.8864 114.944C40.1477 114.853 40.3744 114.749 40.5664 114.632C40.7584 114.509 40.9184 114.379 41.0464 114.24C41.1744 114.101 41.2677 113.955 41.3264 113.8C41.3904 113.645 41.4224 113.493 41.4224 113.344V113.12ZM41.7344 113.12H42.6544V113.344C42.6544 113.493 42.6837 113.645 42.7424 113.8C42.8064 113.955 42.9024 114.101 43.0304 114.24C43.1584 114.379 43.3184 114.509 43.5104 114.632C43.7077 114.749 43.9344 114.853 44.1904 114.944C44.4464 115.029 44.7397 115.093 45.0704 115.136L44.6784 115.96C44.2997 115.912 43.9557 115.832 43.6464 115.72C43.337 115.608 43.0624 115.472 42.8224 115.312C42.5877 115.147 42.3877 114.963 42.2224 114.76C42.0624 114.552 41.9397 114.328 41.8544 114.088C41.7744 113.848 41.7344 113.6 41.7344 113.344V113.12ZM41.4784 117H42.5424V119.712H41.4784V117ZM38.6864 116.384H45.3904V117.24H38.6864V116.384ZM39.2784 112.68H44.7744V113.52H39.2784V112.68Z" fill="black"/>
</g>
<g id="Cheongdo">
<path id="Vector_45" d="M156.001 205.1L151.001 222.1L154.901 228.8L159.301 228.6L160.601 235.5L155.101 240.4L152.501 242.2L147.201 238.2H139.501L135.101 245.4L129.601 245.6L127.401 249.1L114.901 244.9L102.801 246.7L95.6008 240.6L94.6008 231.3L94.3008 226.7L105.001 222.5L106.601 228.2L115.301 221.6L124.501 228.1L127.601 221.4L135.301 221.7L140.901 218.1L142.401 220.8L147.201 214.3V214.2L150.401 206.8L156.001 205.1Z" fill="#AFD88C" stroke="white" stroke-width="0.5"/>
<path id="Vector_46" d="M120.983 233.6H121.847V233.864C121.847 234.296 121.772 234.704 121.623 235.088C121.474 235.472 121.244 235.805 120.935 236.088C120.631 236.371 120.244 236.581 119.775 236.72L119.271 235.896C119.671 235.779 119.996 235.616 120.247 235.408C120.503 235.195 120.69 234.955 120.807 234.688C120.924 234.416 120.983 234.141 120.983 233.864V233.6ZM121.183 233.6H122.047V233.864C122.047 234.056 122.079 234.245 122.143 234.432C122.212 234.619 122.316 234.795 122.455 234.96C122.599 235.125 122.78 235.272 122.999 235.4C123.218 235.528 123.474 235.632 123.767 235.712L123.287 236.544C122.818 236.416 122.426 236.221 122.111 235.96C121.802 235.693 121.57 235.379 121.415 235.016C121.26 234.653 121.183 234.269 121.183 233.864V233.6ZM119.527 233.064H123.511V233.904H119.527V233.064ZM120.983 232.272H122.047V233.4H120.983V232.272ZM123.303 234.272H124.711V235.128H123.303V234.272ZM124.455 232.304H125.527V236.776H124.455V232.304ZM123.015 236.896C123.799 236.896 124.418 237.019 124.871 237.264C125.324 237.509 125.551 237.856 125.551 238.304C125.551 238.747 125.324 239.091 124.871 239.336C124.418 239.587 123.799 239.712 123.015 239.712C122.231 239.712 121.612 239.587 121.159 239.336C120.706 239.091 120.479 238.747 120.479 238.304C120.479 237.856 120.706 237.509 121.159 237.264C121.612 237.019 122.231 236.896 123.015 236.896ZM123.015 237.712C122.695 237.712 122.423 237.733 122.199 237.776C121.98 237.819 121.815 237.885 121.703 237.976C121.591 238.061 121.535 238.171 121.535 238.304C121.535 238.432 121.591 238.541 121.703 238.632C121.815 238.723 121.98 238.789 122.199 238.832C122.423 238.875 122.695 238.896 123.015 238.896C123.34 238.896 123.612 238.875 123.831 238.832C124.05 238.789 124.212 238.723 124.319 238.632C124.431 238.541 124.487 238.432 124.487 238.304C124.487 238.171 124.431 238.061 124.319 237.976C124.212 237.885 124.05 237.819 123.831 237.776C123.612 237.733 123.34 237.712 123.015 237.712ZM127.47 235.6H132.678V236.456H127.47V235.6ZM126.686 238.008H133.398V238.88H126.686V238.008ZM129.502 235.992H130.558V238.288H129.502V235.992ZM127.47 232.808H132.622V233.656H128.526V235.968H127.47V232.808Z" fill="black"/>
</g>
<g id="Ulleung">
<path id="Vector_47" d="M234.5 122.7L234.8 131.4L229.4 136.6L221.3 133.6L218.9 126.1L232.8 121.4L233.9 122.5L234.5 122.7ZM248.2 137.1L248.5 137.4L247.6 138L247.5 138.1L246.8 137.7L247.8 136.9L247.9 137.2L248.2 137.1ZM246.4 136.6L245.7 137.5L244.7 136.2L245.8 135.5L246.4 136.6Z" fill="#AFD88C" stroke="white" stroke-width="0.5"/>
<path id="&#236;&#154;&#184;&#235;&#166;&#137;" d="M224.813 129.048H225.531V129.754H224.813V129.048ZM225.183 126.7C225.755 126.7 226.201 126.775 226.52 126.923C226.842 127.068 227.004 127.28 227.004 127.559C227.004 127.834 226.842 128.046 226.52 128.195C226.201 128.343 225.755 128.417 225.183 128.417C224.607 128.417 224.157 128.343 223.835 128.195C223.516 128.046 223.357 127.834 223.357 127.559C223.357 127.28 223.516 127.068 223.835 126.923C224.157 126.775 224.607 126.7 225.183 126.7ZM225.178 127.227C224.938 127.227 224.739 127.239 224.58 127.265C224.421 127.287 224.301 127.324 224.221 127.374C224.145 127.421 224.107 127.483 224.107 127.559C224.107 127.635 224.145 127.699 224.221 127.749C224.301 127.796 224.421 127.83 224.58 127.852C224.739 127.874 224.938 127.885 225.178 127.885C225.421 127.885 225.622 127.874 225.781 127.852C225.94 127.83 226.058 127.796 226.134 127.749C226.21 127.699 226.248 127.635 226.248 127.559C226.248 127.483 226.21 127.421 226.134 127.374C226.058 127.324 225.94 127.287 225.781 127.265C225.622 127.239 225.421 127.227 225.178 127.227ZM222.9 128.629H227.455V129.2H222.9V128.629ZM223.422 129.531H226.9V130.82H224.145V131.265H223.428V130.32H226.188V130.064H223.422V129.531ZM223.428 131.108H227.036V131.656H223.428V131.108ZM227.906 129.265H232.46V129.83H227.906V129.265ZM228.46 126.781H231.906V128.129H229.183V128.684H228.471V127.624H231.194V127.33H228.46V126.781ZM228.471 128.434H232.004V128.983H228.471V128.434ZM230.167 130.08C230.728 130.08 231.163 130.15 231.471 130.287C231.778 130.424 231.933 130.625 231.933 130.89C231.933 131.151 231.778 131.351 231.471 131.488C231.163 131.629 230.728 131.7 230.167 131.7C229.608 131.7 229.173 131.629 228.862 131.488C228.554 131.351 228.4 131.151 228.4 130.89C228.4 130.625 228.554 130.424 228.862 130.287C229.173 130.15 229.608 130.08 230.167 130.08ZM230.172 130.608C229.816 130.608 229.554 130.631 229.384 130.678C229.217 130.722 229.134 130.792 229.134 130.89C229.134 130.955 229.169 131.01 229.243 131.053C229.319 131.093 229.433 131.124 229.585 131.146C229.737 131.163 229.93 131.173 230.167 131.173C230.406 131.173 230.601 131.163 230.754 131.146C230.909 131.124 231.023 131.093 231.096 131.053C231.168 131.01 231.205 130.955 231.205 130.89C231.205 130.792 231.12 130.722 230.955 130.678C230.788 130.631 230.527 130.608 230.172 130.608Z" fill="black"/>
</g>
</g>
</svg>
