<svg width="212" height="204" viewBox="0 0 212 204" fill="none" xmlns="http://www.w3.org/2000/svg">
<g id="gyeongnam">
<g id="Uiryeong">
<path id="&#236;&#157;&#152;&#235;&#160;&#185;&#234;&#181;&#176;" d="M80.8988 74.6V67.8L89.4988 62.5L103.699 62L109.099 66.7L104.099 70.2L103.299 73.6L110.499 79.3L111.199 80.8L109.899 85.3L104.299 86.5L105.499 90.2H105.399L95.7988 85.9L90.4988 102.1L80.6989 102.7L75.1989 87.7L69.8988 90.8L65.7988 84.8L79.4988 80.1L80.8988 74.6Z" fill="#AFD88C" stroke="white" stroke-width="0.5"/>
<path id="&#236;&#157;&#152;&#235;&#160;&#185;" d="M86.39 74.24C86.87 74.24 87.3033 74.3367 87.69 74.53C88.0767 74.7233 88.38 74.9933 88.6 75.34C88.82 75.68 88.93 76.0733 88.93 76.52C88.93 76.96 88.82 77.3533 88.6 77.7C88.38 78.0467 88.0767 78.3167 87.69 78.51C87.3033 78.7033 86.87 78.8 86.39 78.8C85.9033 78.8 85.4667 78.7033 85.08 78.51C84.6933 78.3167 84.3867 78.0467 84.16 77.7C83.94 77.3533 83.83 76.96 83.83 76.52C83.83 76.0733 83.94 75.68 84.16 75.34C84.3867 74.9933 84.6933 74.7233 85.08 74.53C85.4667 74.3367 85.9033 74.24 86.39 74.24ZM86.39 75.38C86.15 75.38 85.9333 75.4267 85.74 75.52C85.5533 75.6067 85.4033 75.7367 85.29 75.91C85.1833 76.0767 85.13 76.28 85.13 76.52C85.13 76.76 85.1833 76.9667 85.29 77.14C85.4033 77.3133 85.5533 77.4467 85.74 77.54C85.9333 77.6267 86.15 77.67 86.39 77.67C86.6233 77.67 86.8333 77.6267 87.02 77.54C87.2067 77.4467 87.3533 77.3133 87.46 77.14C87.5733 76.9667 87.63 76.76 87.63 76.52C87.63 76.28 87.5733 76.0767 87.46 75.91C87.3533 75.7367 87.2067 75.6067 87.02 75.52C86.8333 75.4267 86.6233 75.38 86.39 75.38ZM89.8 73.61H91.13V82.9H89.8V73.61ZM83.6 81.03L83.45 79.95C83.99 79.95 84.5867 79.9467 85.24 79.94C85.9 79.9267 86.5767 79.9 87.27 79.86C87.97 79.8133 88.6467 79.7433 89.3 79.65L89.39 80.61C88.7233 80.7433 88.0467 80.84 87.36 80.9C86.6733 80.9533 86.01 80.99 85.37 81.01C84.73 81.0233 84.14 81.03 83.6 81.03ZM92.9592 77.91H93.6592C94.2392 77.91 94.7359 77.9067 95.1492 77.9C95.5692 77.8867 95.9526 77.8667 96.2992 77.84C96.6459 77.8067 96.9892 77.7567 97.3292 77.69L97.4692 78.74C97.1959 78.7933 96.9259 78.8367 96.6592 78.87C96.3992 78.8967 96.1192 78.92 95.8192 78.94C95.5259 78.9533 95.2026 78.9633 94.8492 78.97C94.5026 78.97 94.1059 78.97 93.6592 78.97H92.9592V77.91ZM92.9392 74.11H97.0092V76.99H94.2792V78.69H92.9592V76.01H95.6892V75.16H92.9392V74.11ZM99.0192 73.63H100.359V79.26H99.0192V73.63ZM97.5492 74.86H99.2692V75.92H97.5492V74.86ZM97.5492 76.77H99.2692V77.84H97.5492V76.77ZM97.2292 79.41C98.2159 79.41 98.9892 79.5633 99.5492 79.87C100.116 80.1767 100.399 80.6067 100.399 81.16C100.399 81.72 100.116 82.1533 99.5492 82.46C98.9892 82.7667 98.2159 82.92 97.2292 82.92C96.2426 82.92 95.4659 82.7667 94.8992 82.46C94.3326 82.1533 94.0492 81.72 94.0492 81.16C94.0492 80.6067 94.3326 80.1767 94.8992 79.87C95.4659 79.5633 96.2426 79.41 97.2292 79.41ZM97.2292 80.41C96.8226 80.41 96.4826 80.44 96.2092 80.5C95.9359 80.5533 95.7292 80.6367 95.5892 80.75C95.4492 80.8567 95.3792 80.9933 95.3792 81.16C95.3792 81.3333 95.4492 81.4767 95.5892 81.59C95.7292 81.7033 95.9359 81.7867 96.2092 81.84C96.4826 81.8933 96.8226 81.92 97.2292 81.92C97.6359 81.92 97.9759 81.8933 98.2492 81.84C98.5226 81.7867 98.7259 81.7033 98.8592 81.59C98.9992 81.4767 99.0692 81.3333 99.0692 81.16C99.0692 80.9933 98.9992 80.8567 98.8592 80.75C98.7259 80.6367 98.5226 80.5533 98.2492 80.5C97.9759 80.44 97.6359 80.41 97.2292 80.41Z" fill="black"/>
</g>
<g id="Geoje">
<path id="&#234;&#177;&#176;&#236;&#160;&#156;&#236;&#139;&#156;" d="M123.799 153.1L122.999 153.3L122.399 153.1L122.099 152.4L121.699 147.3L121.999 146.1L122.099 146L123.999 146.4L123.799 153.1ZM130.599 155.5L135.999 158.9L130.999 150.4L133.499 146.8L139.099 148.7L139.699 143.6L140.299 142.3L141.399 140.2L141.799 138.5L142.299 137.6L142.199 135.6L148.099 138.1L144.499 142.6L148.699 155.2L144.999 160.9L152.399 158.4L148.799 163L150.299 166.3L148.699 167L150.999 175L141.599 171.3L142.399 175.5L137.899 179.4L143.599 183.2H136.499L137.999 187.8L130.099 187.9L133.999 184L129.899 182.9L132.699 176.9L127.399 178.6L128.999 175.5L130.499 174.2L133.199 168.6L129.399 164.8L122.099 172.1L120.999 167.4L117.599 167.1L116.699 163.9L116.299 162L118.799 157.6L119.899 155.9L121.799 155.2L122.899 154.1H124.299L128.299 157.7L130.599 155.5Z" fill="#AFD88C" stroke="white" stroke-width="0.5"/>
<path id="&#234;&#177;&#176;&#236;&#160;&#156;" d="M136.092 160.978H136.89V166.534H136.092V160.978ZM135.024 163.102H136.482V163.75H135.024V163.102ZM134.274 161.548H135.06C135.06 161.968 135.02 162.37 134.94 162.754C134.864 163.134 134.734 163.494 134.55 163.834C134.366 164.174 134.114 164.49 133.794 164.782C133.478 165.07 133.08 165.334 132.6 165.574L132.18 164.956C132.572 164.76 132.9 164.548 133.164 164.32C133.432 164.092 133.648 163.846 133.812 163.582C133.976 163.318 134.094 163.03 134.166 162.718C134.238 162.402 134.274 162.06 134.274 161.692V161.548ZM132.444 161.548H134.694V162.184H132.444V161.548ZM141.774 160.972H142.536V166.528H141.774V160.972ZM139.944 162.874H140.868V163.522H139.944V162.874ZM140.652 161.062H141.396V166.276H140.652V161.062ZM138.75 161.878H139.35V162.448C139.35 162.76 139.326 163.068 139.278 163.372C139.234 163.676 139.164 163.964 139.068 164.236C138.972 164.504 138.846 164.746 138.69 164.962C138.534 165.178 138.346 165.356 138.126 165.496L137.652 164.908C137.924 164.736 138.14 164.52 138.3 164.26C138.46 163.996 138.574 163.708 138.642 163.396C138.714 163.08 138.75 162.764 138.75 162.448V161.878ZM138.93 161.878H139.524V162.448C139.524 162.756 139.558 163.06 139.626 163.36C139.694 163.66 139.806 163.934 139.962 164.182C140.118 164.426 140.33 164.626 140.598 164.782L140.136 165.358C139.84 165.182 139.604 164.944 139.428 164.644C139.252 164.344 139.124 164.006 139.044 163.63C138.968 163.25 138.93 162.856 138.93 162.448V161.878ZM137.856 161.53H140.334V162.172H137.856V161.53Z" fill="black"/>
</g>
<g id="Yangsan">
<path id="&#236;&#150;&#145;&#236;&#130;&#176;&#236;&#139;&#156;" d="M185.299 98.5L179.299 90L167.199 81.8L169.199 76.8L173.499 75.9L171.599 72L178.899 68.4L177.699 62.4L182.199 58.8L190.099 58L201.399 71.4L208.499 72.6L211.299 77.2L208.999 80.3L206.199 86L198.399 83.4L200.599 86.1L197.399 93.5L189.599 98.4L185.299 98.5Z" fill="#AFD88C" stroke="white" stroke-width="0.5"/>
<path id="&#236;&#150;&#145;&#236;&#130;&#176;" d="M184.29 76.76H185.88V77.84H184.29V76.76ZM184.29 78.77H185.88V79.86H184.29V78.77ZM179.98 76.13C180.46 76.13 180.89 76.2267 181.27 76.42C181.65 76.6133 181.95 76.88 182.17 77.22C182.39 77.5533 182.5 77.94 182.5 78.38C182.5 78.8133 182.39 79.2 182.17 79.54C181.95 79.8733 181.65 80.1367 181.27 80.33C180.89 80.5233 180.46 80.62 179.98 80.62C179.507 80.62 179.08 80.5233 178.7 80.33C178.32 80.1367 178.02 79.8733 177.8 79.54C177.58 79.2 177.47 78.8133 177.47 78.38C177.47 77.94 177.58 77.5533 177.8 77.22C178.02 76.88 178.32 76.6133 178.7 76.42C179.08 76.2267 179.507 76.13 179.98 76.13ZM179.98 77.24C179.753 77.24 179.547 77.2867 179.36 77.38C179.173 77.4667 179.027 77.5967 178.92 77.77C178.82 77.9367 178.77 78.14 178.77 78.38C178.77 78.6133 178.82 78.8167 178.92 78.99C179.027 79.1567 179.173 79.2833 179.36 79.37C179.547 79.4567 179.753 79.5 179.98 79.5C180.22 79.5 180.43 79.4567 180.61 79.37C180.79 79.2833 180.933 79.1567 181.04 78.99C181.147 78.8167 181.2 78.6133 181.2 78.38C181.2 78.14 181.147 77.9367 181.04 77.77C180.933 77.5967 180.79 77.4667 180.61 77.38C180.43 77.2867 180.22 77.24 179.98 77.24ZM183.36 75.63H184.69V81.03H183.36V75.63ZM181.67 81.22C182.31 81.22 182.863 81.2933 183.33 81.44C183.803 81.5867 184.167 81.7967 184.42 82.07C184.673 82.3433 184.8 82.6733 184.8 83.06C184.8 83.44 184.673 83.7667 184.42 84.04C184.167 84.3133 183.803 84.5233 183.33 84.67C182.863 84.8167 182.31 84.89 181.67 84.89C181.03 84.89 180.473 84.8167 180 84.67C179.533 84.5233 179.17 84.3133 178.91 84.04C178.657 83.7667 178.53 83.44 178.53 83.06C178.53 82.6733 178.657 82.3433 178.91 82.07C179.17 81.7967 179.533 81.5867 180 81.44C180.473 81.2933 181.03 81.22 181.67 81.22ZM181.67 82.27C181.277 82.27 180.947 82.3 180.68 82.36C180.413 82.4133 180.21 82.4967 180.07 82.61C179.93 82.7233 179.86 82.8733 179.86 83.06C179.86 83.2333 179.93 83.38 180.07 83.5C180.21 83.62 180.413 83.71 180.68 83.77C180.947 83.8233 181.277 83.85 181.67 83.85C182.063 83.85 182.393 83.8233 182.66 83.77C182.933 83.71 183.137 83.62 183.27 83.5C183.41 83.38 183.48 83.2333 183.48 83.06C183.48 82.8733 183.41 82.7233 183.27 82.61C183.137 82.4967 182.933 82.4133 182.66 82.36C182.393 82.3 182.063 82.27 181.67 82.27ZM188.679 76.19H189.779V77.19C189.779 77.8033 189.683 78.38 189.489 78.92C189.303 79.4533 189.016 79.92 188.629 80.32C188.249 80.72 187.763 81.02 187.169 81.22L186.459 80.19C186.986 80.0167 187.413 79.7767 187.739 79.47C188.066 79.1567 188.303 78.8033 188.449 78.41C188.603 78.01 188.679 77.6033 188.679 77.19V76.19ZM188.949 76.19H190.029V77.2C190.029 77.4933 190.069 77.7833 190.149 78.07C190.229 78.35 190.356 78.6167 190.529 78.87C190.703 79.1167 190.923 79.34 191.189 79.54C191.456 79.7333 191.776 79.89 192.149 80.01L191.469 81.05C190.889 80.8567 190.413 80.57 190.039 80.19C189.673 79.8033 189.399 79.3533 189.219 78.84C189.039 78.3267 188.949 77.78 188.949 77.2V76.19ZM192.559 75.63H193.889V82.4H192.559V75.63ZM193.519 78.31H195.119V79.4H193.519V78.31ZM187.929 83.66H194.219V84.73H187.929V83.66ZM187.929 81.75H189.269V84.23H187.929V81.75Z" fill="black"/>
</g>
<g id="Sancheong">
<path id="&#236;&#130;&#176;&#236;&#178;&#173;&#234;&#181;&#176;" d="M36.7004 53.7L39.5004 60.2L50.0004 61.7L52.8004 72.0999L62.0004 77.2999L65.8004 84.7999L69.9004 90.7999L62.8004 90.4999L61.5004 94.4999L53.5004 97.7999L51.1004 104.1L45.2004 103.2L43.7004 107.7L41.2004 107.1L38.5004 102.1L35.2004 107.2L26.6004 108.4L17.5004 101.4L15.4004 92.9L20.8004 89.9999L36.7004 53.7Z" fill="#AFD88C" stroke="white" stroke-width="0.5"/>
<path id="&#236;&#130;&#176;&#236;&#178;&#173;" d="M35.48 81.19H36.58V82.19C36.58 82.8033 36.4833 83.38 36.29 83.92C36.1033 84.4533 35.8167 84.92 35.43 85.32C35.05 85.72 34.5633 86.02 33.97 86.22L33.26 85.19C33.7867 85.0167 34.2133 84.7767 34.54 84.47C34.8667 84.1567 35.1033 83.8033 35.25 83.41C35.4033 83.01 35.48 82.6033 35.48 82.19V81.19ZM35.75 81.19H36.83V82.2C36.83 82.4933 36.87 82.7833 36.95 83.07C37.03 83.35 37.1567 83.6167 37.33 83.87C37.5033 84.1167 37.7233 84.34 37.99 84.54C38.2567 84.7333 38.5767 84.89 38.95 85.01L38.27 86.05C37.69 85.8567 37.2133 85.57 36.84 85.19C36.4733 84.8033 36.2 84.3533 36.02 83.84C35.84 83.3267 35.75 82.78 35.75 82.2V81.19ZM39.36 80.63H40.69V87.4H39.36V80.63ZM40.32 83.31H41.92V84.4H40.32V83.31ZM34.73 88.66H41.02V89.73H34.73V88.66ZM34.73 86.75H36.07V89.23H34.73V86.75ZM44.6792 82.25H45.7592V82.58C45.7592 83.12 45.6659 83.63 45.4792 84.11C45.2926 84.59 45.0059 85.0067 44.6192 85.36C44.2392 85.7133 43.7559 85.9767 43.1692 86.15L42.5392 85.12C43.0392 84.9733 43.4459 84.77 43.7592 84.51C44.0792 84.2433 44.3126 83.9433 44.4592 83.61C44.6059 83.27 44.6792 82.9267 44.6792 82.58V82.25ZM44.9292 82.25H46.0092V82.58C46.0092 82.82 46.0492 83.0567 46.1292 83.29C46.2159 83.5233 46.3459 83.7433 46.5192 83.95C46.6992 84.1567 46.9259 84.34 47.1992 84.5C47.4726 84.66 47.7926 84.79 48.1592 84.89L47.5592 85.93C46.9726 85.77 46.4826 85.5267 46.0892 85.2C45.7026 84.8667 45.4126 84.4733 45.2192 84.02C45.0259 83.5667 44.9292 83.0867 44.9292 82.58V82.25ZM42.8592 81.58H47.8392V82.63H42.8592V81.58ZM44.6792 80.59H46.0092V82H44.6792V80.59ZM47.5792 83.09H49.3392V84.16H47.5792V83.09ZM49.0192 80.63H50.3592V86.22H49.0192V80.63ZM47.2192 86.37C48.1992 86.37 48.9726 86.5233 49.5392 86.83C50.1059 87.1367 50.3892 87.57 50.3892 88.13C50.3892 88.6833 50.1059 89.1133 49.5392 89.42C48.9726 89.7333 48.1992 89.89 47.2192 89.89C46.2392 89.89 45.4659 89.7333 44.8992 89.42C44.3326 89.1133 44.0492 88.6833 44.0492 88.13C44.0492 87.57 44.3326 87.1367 44.8992 86.83C45.4659 86.5233 46.2392 86.37 47.2192 86.37ZM47.2192 87.39C46.8192 87.39 46.4792 87.4167 46.1992 87.47C45.9259 87.5233 45.7192 87.6067 45.5792 87.72C45.4392 87.8267 45.3692 87.9633 45.3692 88.13C45.3692 88.29 45.4392 88.4267 45.5792 88.54C45.7192 88.6533 45.9259 88.7367 46.1992 88.79C46.4792 88.8433 46.8192 88.87 47.2192 88.87C47.6259 88.87 47.9659 88.8433 48.2392 88.79C48.5126 88.7367 48.7159 88.6533 48.8492 88.54C48.9892 88.4267 49.0592 88.29 49.0592 88.13C49.0592 87.9633 48.9892 87.8267 48.8492 87.72C48.7159 87.6067 48.5126 87.5233 48.2392 87.47C47.9659 87.4167 47.6259 87.39 47.2192 87.39Z" fill="black"/>
</g>
<g id="Uichang">
<path id="&#236;&#176;&#189;&#236;&#155;&#144;&#236;&#139;&#156;_&#236;&#157;&#152;&#236;&#176;&#189;&#234;&#181;&#172;" d="M148.4 104.7L138.7 104.5L136.6 107.4L136.5 107.6L135.9 108H135.8L130.5 99.5L126.9 86.9L129 82.5L132.2 80.5L137.4 83.8L138.6 83.3L153.1 87.8L144 93.7L148.4 104.7Z" fill="#AFD88C" stroke="white" stroke-width="0.5"/>
<path id="&#236;&#176;&#189;&#236;&#155;&#144; &#236;&#157;&#152;&#236;&#176;&#189;" d="M133.64 89.625H134.18V89.795C134.18 90.065 134.134 90.32 134.04 90.56C133.947 90.7967 133.804 91.0033 133.61 91.18C133.42 91.3567 133.177 91.4883 132.88 91.575L132.57 91.055C132.82 90.985 133.024 90.885 133.18 90.755C133.34 90.625 133.457 90.4767 133.53 90.31C133.604 90.14 133.64 89.9683 133.64 89.795V89.625ZM133.765 89.625H134.305V89.795C134.305 89.9517 134.342 90.1067 134.415 90.26C134.492 90.41 134.609 90.545 134.765 90.665C134.922 90.785 135.124 90.8783 135.37 90.945L135.07 91.46C134.777 91.38 134.534 91.2583 134.34 91.095C134.147 90.9283 134.002 90.7333 133.905 90.51C133.812 90.2867 133.765 90.0483 133.765 89.795V89.625ZM132.73 89.295H135.22V89.815H132.73V89.295ZM133.64 88.795H134.305V89.5H133.64V88.795ZM135.58 88.815H136.245V91.605H135.58V88.815ZM136.065 89.895H136.86V90.445H136.065V89.895ZM134.735 91.69C135.059 91.69 135.337 91.725 135.57 91.795C135.804 91.865 135.984 91.965 136.11 92.095C136.237 92.225 136.3 92.3833 136.3 92.57C136.3 92.8433 136.16 93.0567 135.88 93.21C135.604 93.3667 135.222 93.445 134.735 93.445C134.412 93.445 134.134 93.41 133.9 93.34C133.667 93.27 133.485 93.17 133.355 93.04C133.229 92.91 133.165 92.7533 133.165 92.57C133.165 92.3833 133.229 92.225 133.355 92.095C133.485 91.965 133.667 91.865 133.9 91.795C134.134 91.725 134.412 91.69 134.735 91.69ZM134.735 92.195C134.539 92.195 134.372 92.2083 134.235 92.235C134.102 92.2617 134 92.3033 133.93 92.36C133.864 92.4133 133.83 92.4833 133.83 92.57C133.83 92.65 133.864 92.7183 133.93 92.775C134 92.8283 134.102 92.8683 134.235 92.895C134.372 92.9217 134.539 92.935 134.735 92.935C134.932 92.935 135.097 92.9217 135.23 92.895C135.367 92.8683 135.469 92.8283 135.535 92.775C135.605 92.7183 135.64 92.65 135.64 92.57C135.64 92.4833 135.605 92.4133 135.535 92.36C135.469 92.3033 135.367 92.2617 135.23 92.235C135.097 92.2083 134.932 92.195 134.735 92.195ZM138.41 91.19H139.075V92.2H138.41V91.19ZM140.435 88.81H141.1V92.32H140.435V88.81ZM137.765 92.83H141.205V93.365H137.765V92.83ZM137.765 91.985H138.43V92.975H137.765V91.985ZM137.27 91.39L137.185 90.86C137.468 90.8567 137.777 90.8533 138.11 90.85C138.443 90.8433 138.783 90.83 139.13 90.81C139.477 90.79 139.81 90.76 140.13 90.72L140.175 91.195C139.845 91.2517 139.508 91.295 139.165 91.325C138.825 91.3517 138.493 91.3683 138.17 91.375C137.847 91.3817 137.547 91.3867 137.27 91.39ZM139.565 91.5H140.585V91.955H139.565V91.5ZM138.675 88.97C138.902 88.97 139.102 89.005 139.275 89.075C139.448 89.145 139.583 89.2417 139.68 89.365C139.78 89.4883 139.83 89.6333 139.83 89.8C139.83 89.9633 139.78 90.1083 139.68 90.235C139.583 90.3583 139.448 90.4533 139.275 90.52C139.102 90.5867 138.902 90.62 138.675 90.62C138.448 90.62 138.247 90.5867 138.07 90.52C137.897 90.4533 137.762 90.3583 137.665 90.235C137.568 90.1083 137.52 89.9633 137.52 89.8C137.52 89.6333 137.568 89.4883 137.665 89.365C137.762 89.2417 137.897 89.145 138.07 89.075C138.247 89.005 138.448 88.97 138.675 88.97ZM138.675 89.455C138.522 89.455 138.395 89.4833 138.295 89.54C138.198 89.5967 138.15 89.6833 138.15 89.8C138.15 89.91 138.198 89.995 138.295 90.055C138.395 90.1117 138.522 90.14 138.675 90.14C138.832 90.14 138.957 90.1117 139.05 90.055C139.147 89.995 139.195 89.91 139.195 89.8C139.195 89.7233 139.173 89.66 139.13 89.61C139.087 89.56 139.027 89.5217 138.95 89.495C138.873 89.4683 138.782 89.455 138.675 89.455ZM134.095 95.12C134.335 95.12 134.552 95.1683 134.745 95.265C134.939 95.3617 135.09 95.4967 135.2 95.67C135.31 95.84 135.365 96.0367 135.365 96.26C135.365 96.48 135.31 96.6767 135.2 96.85C135.09 97.0233 134.939 97.1583 134.745 97.255C134.552 97.3517 134.335 97.4 134.095 97.4C133.852 97.4 133.634 97.3517 133.44 97.255C133.247 97.1583 133.094 97.0233 132.98 96.85C132.87 96.6767 132.815 96.48 132.815 96.26C132.815 96.0367 132.87 95.84 132.98 95.67C133.094 95.4967 133.247 95.3617 133.44 95.265C133.634 95.1683 133.852 95.12 134.095 95.12ZM134.095 95.69C133.975 95.69 133.867 95.7133 133.77 95.76C133.677 95.8033 133.602 95.8683 133.545 95.955C133.492 96.0383 133.465 96.14 133.465 96.26C133.465 96.38 133.492 96.4833 133.545 96.57C133.602 96.6567 133.677 96.7233 133.77 96.77C133.867 96.8133 133.975 96.835 134.095 96.835C134.212 96.835 134.317 96.8133 134.41 96.77C134.504 96.7233 134.577 96.6567 134.63 96.57C134.687 96.4833 134.715 96.38 134.715 96.26C134.715 96.14 134.687 96.0383 134.63 95.955C134.577 95.8683 134.504 95.8033 134.41 95.76C134.317 95.7133 134.212 95.69 134.095 95.69ZM135.8 94.805H136.465V99.45H135.8V94.805ZM132.7 98.515L132.625 97.975C132.895 97.975 133.194 97.9733 133.52 97.97C133.85 97.9633 134.189 97.95 134.535 97.93C134.885 97.9067 135.224 97.8717 135.55 97.825L135.595 98.305C135.262 98.3717 134.924 98.42 134.58 98.45C134.237 98.4767 133.905 98.495 133.585 98.505C133.265 98.5117 132.97 98.515 132.7 98.515ZM138.24 95.625H138.78V95.795C138.78 96.065 138.733 96.32 138.64 96.56C138.547 96.7967 138.403 97.0033 138.21 97.18C138.02 97.3567 137.777 97.4883 137.48 97.575L137.17 97.055C137.42 96.985 137.623 96.885 137.78 96.755C137.94 96.625 138.057 96.4767 138.13 96.31C138.203 96.14 138.24 95.9683 138.24 95.795V95.625ZM138.365 95.625H138.905V95.795C138.905 95.9517 138.942 96.1067 139.015 96.26C139.092 96.41 139.208 96.545 139.365 96.665C139.522 96.785 139.723 96.8783 139.97 96.945L139.67 97.46C139.377 97.38 139.133 97.2583 138.94 97.095C138.747 96.9283 138.602 96.7333 138.505 96.51C138.412 96.2867 138.365 96.0483 138.365 95.795V95.625ZM137.33 95.295H139.82V95.815H137.33V95.295ZM138.24 94.795H138.905V95.5H138.24V94.795ZM140.18 94.815H140.845V97.605H140.18V94.815ZM140.665 95.895H141.46V96.445H140.665V95.895ZM139.335 97.69C139.658 97.69 139.937 97.725 140.17 97.795C140.403 97.865 140.583 97.965 140.71 98.095C140.837 98.225 140.9 98.3833 140.9 98.57C140.9 98.8433 140.76 99.0567 140.48 99.21C140.203 99.3667 139.822 99.445 139.335 99.445C139.012 99.445 138.733 99.41 138.5 99.34C138.267 99.27 138.085 99.17 137.955 99.04C137.828 98.91 137.765 98.7533 137.765 98.57C137.765 98.3833 137.828 98.225 137.955 98.095C138.085 97.965 138.267 97.865 138.5 97.795C138.733 97.725 139.012 97.69 139.335 97.69ZM139.335 98.195C139.138 98.195 138.972 98.2083 138.835 98.235C138.702 98.2617 138.6 98.3033 138.53 98.36C138.463 98.4133 138.43 98.4833 138.43 98.57C138.43 98.65 138.463 98.7183 138.53 98.775C138.6 98.8283 138.702 98.8683 138.835 98.895C138.972 98.9217 139.138 98.935 139.335 98.935C139.532 98.935 139.697 98.9217 139.83 98.895C139.967 98.8683 140.068 98.8283 140.135 98.775C140.205 98.7183 140.24 98.65 140.24 98.57C140.24 98.4833 140.205 98.4133 140.135 98.36C140.068 98.3033 139.967 98.2617 139.83 98.235C139.697 98.2083 139.532 98.195 139.335 98.195Z" fill="black"/>
</g>
<g id="Seongsan">
<path id="&#236;&#176;&#189;&#236;&#155;&#144;&#236;&#139;&#156;_&#236;&#132;&#177;&#236;&#130;&#176;&#234;&#181;&#172;" d="M138.7 104.5L148.4 104.7L150.5 115.7L139.4 113.8L133.7 118.4L132.2 116.2L131.7 115.1L131.4 114.4L131 110.9L134.7 108.9L136.1 108.1L136.6 107.6V107.4L138.7 104.5Z" fill="#AFD88C" stroke="white" stroke-width="0.5"/>
<path id="&#236;&#176;&#189;&#236;&#155;&#144; &#236;&#132;&#177;&#236;&#130;&#176;" d="M135.368 110.037H135.746V110.156C135.746 110.345 135.713 110.524 135.648 110.692C135.583 110.858 135.482 111.002 135.347 111.126C135.214 111.25 135.044 111.342 134.836 111.402L134.619 111.038C134.794 110.989 134.936 110.919 135.046 110.828C135.158 110.737 135.24 110.634 135.291 110.517C135.342 110.398 135.368 110.278 135.368 110.156V110.037ZM135.456 110.037H135.834V110.156C135.834 110.266 135.859 110.375 135.911 110.482C135.964 110.587 136.046 110.681 136.156 110.765C136.265 110.849 136.406 110.915 136.579 110.961L136.369 111.322C136.164 111.266 135.993 111.181 135.858 111.066C135.723 110.95 135.621 110.813 135.554 110.657C135.488 110.501 135.456 110.334 135.456 110.156V110.037ZM134.731 109.806H136.474V110.17H134.731V109.806ZM135.368 109.456H135.834V109.95H135.368V109.456ZM136.726 109.47H137.192V111.423H136.726V109.47ZM137.066 110.226H137.622V110.611H137.066V110.226ZM136.135 111.483C136.361 111.483 136.556 111.507 136.719 111.556C136.882 111.605 137.008 111.675 137.097 111.766C137.186 111.857 137.23 111.968 137.23 112.099C137.23 112.29 137.132 112.44 136.936 112.547C136.742 112.657 136.475 112.711 136.135 112.711C135.908 112.711 135.713 112.687 135.55 112.638C135.387 112.589 135.26 112.519 135.169 112.428C135.08 112.337 135.036 112.227 135.036 112.099C135.036 111.968 135.08 111.857 135.169 111.766C135.26 111.675 135.387 111.605 135.55 111.556C135.713 111.507 135.908 111.483 136.135 111.483ZM136.135 111.836C135.997 111.836 135.88 111.846 135.785 111.864C135.691 111.883 135.62 111.912 135.571 111.952C135.524 111.989 135.501 112.038 135.501 112.099C135.501 112.155 135.524 112.203 135.571 112.242C135.62 112.28 135.691 112.308 135.785 112.326C135.88 112.345 135.997 112.354 136.135 112.354C136.272 112.354 136.388 112.345 136.481 112.326C136.577 112.308 136.648 112.28 136.695 112.242C136.744 112.203 136.768 112.155 136.768 112.099C136.768 112.038 136.744 111.989 136.695 111.952C136.648 111.912 136.577 111.883 136.481 111.864C136.388 111.846 136.272 111.836 136.135 111.836ZM138.707 111.133H139.172V111.84H138.707V111.133ZM140.124 109.467H140.59V111.924H140.124V109.467ZM138.255 112.281H140.663V112.655H138.255V112.281ZM138.255 111.689H138.721V112.382H138.255V111.689ZM137.909 111.273L137.849 110.902C138.048 110.9 138.263 110.897 138.497 110.895C138.73 110.89 138.968 110.881 139.211 110.867C139.453 110.853 139.687 110.832 139.911 110.804L139.942 111.136C139.711 111.176 139.476 111.206 139.235 111.227C138.997 111.246 138.765 111.258 138.539 111.262C138.312 111.267 138.102 111.271 137.909 111.273ZM139.515 111.35H140.229V111.668H139.515V111.35ZM138.892 109.579C139.051 109.579 139.191 109.603 139.312 109.652C139.434 109.701 139.528 109.769 139.596 109.855C139.666 109.942 139.701 110.043 139.701 110.16C139.701 110.274 139.666 110.376 139.596 110.464C139.528 110.551 139.434 110.617 139.312 110.664C139.191 110.711 139.051 110.734 138.892 110.734C138.734 110.734 138.592 110.711 138.469 110.664C138.347 110.617 138.253 110.551 138.185 110.464C138.118 110.376 138.084 110.274 138.084 110.16C138.084 110.043 138.118 109.942 138.185 109.855C138.253 109.769 138.347 109.701 138.469 109.652C138.592 109.603 138.734 109.579 138.892 109.579ZM138.892 109.918C138.785 109.918 138.696 109.938 138.626 109.978C138.559 110.018 138.525 110.078 138.525 110.16C138.525 110.237 138.559 110.296 138.626 110.338C138.696 110.378 138.785 110.398 138.892 110.398C139.002 110.398 139.089 110.378 139.155 110.338C139.222 110.296 139.256 110.237 139.256 110.16C139.256 110.106 139.241 110.062 139.211 110.027C139.18 109.992 139.138 109.965 139.085 109.946C139.031 109.928 138.967 109.918 138.892 109.918ZM142.704 109.638H143.089V109.925C143.089 110.142 143.055 110.347 142.987 110.538C142.922 110.729 142.821 110.896 142.686 111.038C142.551 111.181 142.377 111.288 142.165 111.36L141.92 110.986C142.106 110.928 142.257 110.844 142.371 110.734C142.485 110.624 142.569 110.499 142.623 110.359C142.677 110.219 142.704 110.075 142.704 109.925V109.638ZM142.798 109.638H143.176V109.904C143.176 110.047 143.201 110.184 143.25 110.317C143.299 110.448 143.377 110.565 143.484 110.667C143.591 110.768 143.73 110.846 143.901 110.902L143.659 111.266C143.461 111.196 143.297 111.094 143.169 110.961C143.043 110.828 142.95 110.672 142.889 110.492C142.828 110.31 142.798 110.114 142.798 109.904V109.638ZM144.195 109.47H144.664V111.367H144.195V109.47ZM143.565 111.451C143.908 111.451 144.178 111.507 144.377 111.619C144.575 111.729 144.674 111.882 144.674 112.078C144.674 112.279 144.575 112.434 144.377 112.543C144.178 112.655 143.908 112.711 143.565 112.711C143.222 112.711 142.951 112.655 142.753 112.543C142.554 112.434 142.455 112.279 142.455 112.078C142.455 111.882 142.554 111.729 142.753 111.619C142.951 111.507 143.222 111.451 143.565 111.451ZM143.565 111.812C143.425 111.812 143.307 111.821 143.211 111.84C143.115 111.859 143.042 111.889 142.991 111.931C142.942 111.971 142.917 112.02 142.917 112.078C142.917 112.139 142.942 112.19 142.991 112.232C143.042 112.272 143.115 112.302 143.211 112.323C143.307 112.342 143.425 112.351 143.565 112.351C143.705 112.351 143.822 112.342 143.918 112.323C144.014 112.302 144.086 112.272 144.135 112.232C144.184 112.19 144.209 112.139 144.209 112.078C144.209 112.02 144.184 111.971 144.135 111.931C144.086 111.889 144.014 111.859 143.918 111.84C143.822 111.821 143.705 111.812 143.565 111.812ZM143.603 110.058H144.265V110.436H143.603V110.058ZM145.895 109.666H146.28V110.016C146.28 110.231 146.247 110.433 146.179 110.622C146.114 110.809 146.013 110.972 145.878 111.112C145.745 111.252 145.575 111.357 145.367 111.427L145.118 111.066C145.303 111.006 145.452 110.922 145.566 110.814C145.681 110.705 145.764 110.581 145.815 110.443C145.869 110.303 145.895 110.161 145.895 110.016V109.666ZM145.99 109.666H146.368V110.02C146.368 110.123 146.382 110.224 146.41 110.324C146.438 110.422 146.482 110.516 146.543 110.604C146.604 110.691 146.681 110.769 146.774 110.839C146.867 110.907 146.979 110.961 147.11 111.003L146.872 111.367C146.669 111.3 146.502 111.199 146.371 111.066C146.243 110.931 146.147 110.774 146.084 110.594C146.021 110.414 145.99 110.223 145.99 110.02V109.666ZM147.253 109.47H147.719V111.84H147.253V109.47ZM147.589 110.408H148.149V110.79H147.589V110.408ZM145.633 112.281H147.834V112.655H145.633V112.281ZM145.633 111.612H146.102V112.48H145.633V111.612Z" fill="black"/>
</g>
<g id="Jinhae">
<path id="&#236;&#176;&#189;&#236;&#155;&#144;&#236;&#139;&#156;_&#236;&#167;&#132;&#237;&#149;&#180;&#234;&#181;&#172;" d="M157.299 117.2L163.699 124L161.899 127.7L159.699 129.7L155.799 129.8L158.499 126.5L156.799 124.2L153.899 131.2L150.699 129.2L150.999 126.3L147.799 127.2L143.999 126.2V118.4L140.999 123.5L138.399 118.6L136.199 119.4L136.099 121.4L133.299 120.4L133.399 120.1L133.599 119.9L139.299 113.9L150.399 115.8L157.299 117.2Z" fill="#AFD88C" stroke="white" stroke-width="0.5"/>
<path id="&#236;&#176;&#189;&#236;&#155;&#144; &#236;&#167;&#132;&#237;&#149;&#180;" d="M145.868 120.637H146.246V120.756C146.246 120.945 146.213 121.124 146.148 121.292C146.083 121.458 145.982 121.602 145.847 121.726C145.714 121.85 145.544 121.942 145.336 122.002L145.119 121.638C145.294 121.589 145.436 121.519 145.546 121.428C145.658 121.337 145.74 121.234 145.791 121.117C145.842 120.998 145.868 120.878 145.868 120.756V120.637ZM145.956 120.637H146.334V120.756C146.334 120.866 146.359 120.975 146.411 121.082C146.464 121.187 146.546 121.281 146.656 121.365C146.765 121.449 146.906 121.515 147.079 121.561L146.869 121.922C146.664 121.866 146.493 121.781 146.358 121.666C146.223 121.55 146.121 121.413 146.054 121.257C145.988 121.101 145.956 120.934 145.956 120.756V120.637ZM145.231 120.406H146.974V120.77H145.231V120.406ZM145.868 120.056H146.334V120.55H145.868V120.056ZM147.226 120.07H147.692V122.023H147.226V120.07ZM147.566 120.826H148.122V121.211H147.566V120.826ZM146.635 122.083C146.861 122.083 147.056 122.107 147.219 122.156C147.382 122.205 147.508 122.275 147.597 122.366C147.686 122.457 147.73 122.568 147.73 122.699C147.73 122.89 147.632 123.04 147.436 123.147C147.242 123.257 146.975 123.312 146.635 123.312C146.408 123.312 146.213 123.287 146.05 123.238C145.887 123.189 145.76 123.119 145.669 123.028C145.58 122.937 145.536 122.827 145.536 122.699C145.536 122.568 145.58 122.457 145.669 122.366C145.76 122.275 145.887 122.205 146.05 122.156C146.213 122.107 146.408 122.083 146.635 122.083ZM146.635 122.436C146.497 122.436 146.38 122.446 146.285 122.464C146.191 122.483 146.12 122.512 146.071 122.552C146.024 122.589 146.001 122.638 146.001 122.699C146.001 122.755 146.024 122.803 146.071 122.842C146.12 122.88 146.191 122.908 146.285 122.926C146.38 122.945 146.497 122.954 146.635 122.954C146.772 122.954 146.888 122.945 146.981 122.926C147.077 122.908 147.148 122.88 147.195 122.842C147.244 122.803 147.268 122.755 147.268 122.699C147.268 122.638 147.244 122.589 147.195 122.552C147.148 122.512 147.077 122.483 146.981 122.464C146.888 122.446 146.772 122.436 146.635 122.436ZM149.207 121.733H149.672V122.44H149.207V121.733ZM150.624 120.067H151.09V122.524H150.624V120.067ZM148.755 122.881H151.163V123.256H148.755V122.881ZM148.755 122.289H149.221V122.982H148.755V122.289ZM148.409 121.873L148.349 121.502C148.548 121.5 148.763 121.497 148.997 121.495C149.23 121.49 149.468 121.481 149.711 121.467C149.953 121.453 150.187 121.432 150.411 121.404L150.442 121.736C150.211 121.776 149.976 121.806 149.735 121.827C149.497 121.846 149.265 121.858 149.039 121.862C148.812 121.867 148.602 121.871 148.409 121.873ZM150.015 121.95H150.729V122.268H150.015V121.95ZM149.392 120.179C149.551 120.179 149.691 120.203 149.812 120.252C149.934 120.301 150.028 120.369 150.096 120.455C150.166 120.542 150.201 120.643 150.201 120.76C150.201 120.874 150.166 120.976 150.096 121.064C150.028 121.151 149.934 121.217 149.812 121.264C149.691 121.311 149.551 121.334 149.392 121.334C149.234 121.334 149.092 121.311 148.969 121.264C148.847 121.217 148.753 121.151 148.685 121.064C148.618 120.976 148.584 120.874 148.584 120.76C148.584 120.643 148.618 120.542 148.685 120.455C148.753 120.369 148.847 120.301 148.969 120.252C149.092 120.203 149.234 120.179 149.392 120.179ZM149.392 120.518C149.285 120.518 149.196 120.538 149.126 120.578C149.059 120.618 149.025 120.678 149.025 120.76C149.025 120.837 149.059 120.896 149.126 120.938C149.196 120.978 149.285 120.998 149.392 120.998C149.502 120.998 149.589 120.978 149.655 120.938C149.722 120.896 149.756 120.837 149.756 120.76C149.756 120.706 149.741 120.662 149.711 120.627C149.68 120.592 149.638 120.565 149.585 120.546C149.531 120.528 149.467 120.518 149.392 120.518ZM153.235 120.431H153.62V120.704C153.62 120.907 153.586 121.101 153.519 121.285C153.453 121.467 153.353 121.627 153.218 121.764C153.082 121.9 152.91 122.001 152.7 122.069L152.462 121.705C152.644 121.647 152.791 121.565 152.903 121.46C153.017 121.355 153.101 121.237 153.155 121.106C153.208 120.973 153.235 120.839 153.235 120.704V120.431ZM153.333 120.431H153.711V120.704C153.711 120.8 153.726 120.895 153.757 120.991C153.787 121.084 153.832 121.174 153.893 121.26C153.956 121.344 154.035 121.42 154.131 121.488C154.227 121.556 154.34 121.61 154.471 121.652L154.236 122.013C154.033 121.948 153.865 121.85 153.732 121.719C153.599 121.588 153.499 121.435 153.431 121.26C153.366 121.083 153.333 120.898 153.333 120.704V120.431ZM152.588 120.298H154.352V120.669H152.588V120.298ZM154.677 120.07H155.143V122.408H154.677V120.07ZM152.983 122.881H155.227V123.256H152.983V122.881ZM152.983 122.198H153.449V123.067H152.983V122.198ZM155.667 120.557H157.218V120.924H155.667V120.557ZM156.448 121.072C156.586 121.072 156.707 121.104 156.812 121.169C156.919 121.235 157.003 121.326 157.064 121.442C157.127 121.557 157.158 121.69 157.158 121.841C157.158 121.993 157.127 122.127 157.064 122.244C157.003 122.358 156.919 122.448 156.812 122.513C156.707 122.579 156.586 122.611 156.448 122.611C156.31 122.611 156.188 122.579 156.08 122.513C155.973 122.448 155.889 122.358 155.828 122.244C155.768 122.127 155.737 121.993 155.737 121.841C155.737 121.69 155.768 121.557 155.828 121.442C155.889 121.326 155.973 121.235 156.08 121.169C156.19 121.104 156.313 121.072 156.448 121.072ZM156.448 121.456C156.392 121.456 156.341 121.472 156.294 121.502C156.247 121.532 156.211 121.577 156.185 121.635C156.16 121.691 156.147 121.76 156.147 121.841C156.147 121.923 156.16 121.993 156.185 122.051C156.211 122.11 156.247 122.154 156.294 122.184C156.341 122.212 156.392 122.226 156.448 122.226C156.506 122.226 156.558 122.212 156.602 122.184C156.646 122.154 156.681 122.11 156.707 122.051C156.733 121.993 156.745 121.923 156.745 121.841C156.745 121.76 156.733 121.691 156.707 121.635C156.681 121.577 156.646 121.532 156.602 121.502C156.558 121.472 156.506 121.456 156.448 121.456ZM158.012 120.067H158.453V123.308H158.012V120.067ZM157.624 121.386H158.156V121.761H157.624V121.386ZM157.33 120.126H157.764V123.172H157.33V120.126ZM156.22 120.154H156.679V120.788H156.22V120.154Z" fill="black"/>
</g>
<g id="Masanhappo">
<path id="&#236;&#176;&#189;&#236;&#155;&#144;&#236;&#139;&#156;_&#235;&#167;&#136;&#236;&#130;&#176;&#237;&#149;&#169;&#237;&#143;&#172;&#234;&#181;&#172;" d="M130.4 110.2L129.8 115L130.6 116.2L130.9 116.9L132.1 119.8L130.2 121.9L130.8 122.3L130.6 123.1L136 128.8L134 130.3L136.4 131.6L128.9 133.4L131 131.5L127.7 131.6L127.9 129.2L130.6 128.5L125.6 127.6L124.4 123.3L121.9 126.9L113.2 125.7L116.8 130.2L115.1 130.6L113.3 131L111.3 132.5L109.8 133.6L110.3 128.9L106.8 129.4L100.1 122.7L102.4 112.2L106.4 110.4L108.8 115.9L116.8 113L121.8 114.7L124.9 108.9L130.3 107.5L130.4 110.2Z" fill="#AFD88C" stroke="white" stroke-width="0.5"/>
<path id="&#236;&#176;&#189;&#236;&#155;&#144; &#235;&#167;&#136;&#236;&#130;&#176;&#237;&#149;&#169;&#237;&#143;&#172;" d="M103.992 118.3H104.424V118.436C104.424 118.652 104.387 118.856 104.312 119.048C104.237 119.237 104.123 119.403 103.968 119.544C103.816 119.685 103.621 119.791 103.384 119.86L103.136 119.444C103.336 119.388 103.499 119.308 103.624 119.204C103.752 119.1 103.845 118.981 103.904 118.848C103.963 118.712 103.992 118.575 103.992 118.436V118.3ZM104.092 118.3H104.524V118.436C104.524 118.561 104.553 118.685 104.612 118.808C104.673 118.928 104.767 119.036 104.892 119.132C105.017 119.228 105.179 119.303 105.376 119.356L105.136 119.768C104.901 119.704 104.707 119.607 104.552 119.476C104.397 119.343 104.281 119.187 104.204 119.008C104.129 118.829 104.092 118.639 104.092 118.436V118.3ZM103.264 118.036H105.256V118.452H103.264V118.036ZM103.992 117.636H104.524V118.2H103.992V117.636ZM105.544 117.652H106.076V119.884H105.544V117.652ZM105.932 118.516H106.568V118.956H105.932V118.516ZM104.868 119.952C105.127 119.952 105.349 119.98 105.536 120.036C105.723 120.092 105.867 120.172 105.968 120.276C106.069 120.38 106.12 120.507 106.12 120.656C106.12 120.875 106.008 121.045 105.784 121.168C105.563 121.293 105.257 121.356 104.868 121.356C104.609 121.356 104.387 121.328 104.2 121.272C104.013 121.216 103.868 121.136 103.764 121.032C103.663 120.928 103.612 120.803 103.612 120.656C103.612 120.507 103.663 120.38 103.764 120.276C103.868 120.172 104.013 120.092 104.2 120.036C104.387 119.98 104.609 119.952 104.868 119.952ZM104.868 120.356C104.711 120.356 104.577 120.367 104.468 120.388C104.361 120.409 104.28 120.443 104.224 120.488C104.171 120.531 104.144 120.587 104.144 120.656C104.144 120.72 104.171 120.775 104.224 120.82C104.28 120.863 104.361 120.895 104.468 120.916C104.577 120.937 104.711 120.948 104.868 120.948C105.025 120.948 105.157 120.937 105.264 120.916C105.373 120.895 105.455 120.863 105.508 120.82C105.564 120.775 105.592 120.72 105.592 120.656C105.592 120.587 105.564 120.531 105.508 120.488C105.455 120.443 105.373 120.409 105.264 120.388C105.157 120.367 105.025 120.356 104.868 120.356ZM107.808 119.552H108.34V120.36H107.808V119.552ZM109.428 117.648H109.96V120.456H109.428V117.648ZM107.292 120.864H110.044V121.292H107.292V120.864ZM107.292 120.188H107.824V120.98H107.292V120.188ZM106.896 119.712L106.828 119.288C107.054 119.285 107.301 119.283 107.568 119.28C107.834 119.275 108.106 119.264 108.384 119.248C108.661 119.232 108.928 119.208 109.184 119.176L109.22 119.556C108.956 119.601 108.686 119.636 108.412 119.66C108.14 119.681 107.874 119.695 107.616 119.7C107.357 119.705 107.117 119.709 106.896 119.712ZM108.732 119.8H109.548V120.164H108.732V119.8ZM108.02 117.776C108.201 117.776 108.361 117.804 108.5 117.86C108.638 117.916 108.746 117.993 108.824 118.092C108.904 118.191 108.944 118.307 108.944 118.44C108.944 118.571 108.904 118.687 108.824 118.788C108.746 118.887 108.638 118.963 108.5 119.016C108.361 119.069 108.201 119.096 108.02 119.096C107.838 119.096 107.677 119.069 107.536 119.016C107.397 118.963 107.289 118.887 107.212 118.788C107.134 118.687 107.096 118.571 107.096 118.44C107.096 118.307 107.134 118.191 107.212 118.092C107.289 117.993 107.397 117.916 107.536 117.86C107.677 117.804 107.838 117.776 108.02 117.776ZM108.02 118.164C107.897 118.164 107.796 118.187 107.716 118.232C107.638 118.277 107.6 118.347 107.6 118.44C107.6 118.528 107.638 118.596 107.716 118.644C107.796 118.689 107.897 118.712 108.02 118.712C108.145 118.712 108.245 118.689 108.32 118.644C108.397 118.596 108.436 118.528 108.436 118.44C108.436 118.379 108.418 118.328 108.384 118.288C108.349 118.248 108.301 118.217 108.24 118.196C108.178 118.175 108.105 118.164 108.02 118.164ZM111.628 117.996H113.4V120.452H111.628V117.996ZM112.876 118.416H112.152V120.036H112.876V118.416ZM113.88 117.652H114.416V121.356H113.88V117.652ZM114.3 119.048H114.952V119.484H114.3V119.048ZM116.023 117.876H116.463V118.276C116.463 118.521 116.425 118.752 116.347 118.968C116.273 119.181 116.158 119.368 116.003 119.528C115.851 119.688 115.657 119.808 115.419 119.888L115.135 119.476C115.346 119.407 115.517 119.311 115.647 119.188C115.778 119.063 115.873 118.921 115.931 118.764C115.993 118.604 116.023 118.441 116.023 118.276V117.876ZM116.131 117.876H116.563V118.28C116.563 118.397 116.579 118.513 116.611 118.628C116.643 118.74 116.694 118.847 116.763 118.948C116.833 119.047 116.921 119.136 117.027 119.216C117.134 119.293 117.262 119.356 117.411 119.404L117.139 119.82C116.907 119.743 116.717 119.628 116.567 119.476C116.421 119.321 116.311 119.141 116.239 118.936C116.167 118.731 116.131 118.512 116.131 118.28V117.876ZM117.575 117.652H118.107V120.36H117.575V117.652ZM117.959 118.724H118.599V119.16H117.959V118.724ZM115.723 120.864H118.239V121.292H115.723V120.864ZM115.723 120.1H116.259V121.092H115.723V120.1ZM121.255 117.652H121.787V119.82H121.255V117.652ZM121.579 118.54H122.279V118.976H121.579V118.54ZM119.379 119.964H119.907V120.24H121.263V119.964H121.787V121.316H119.379V119.964ZM119.907 120.64V120.9H121.263V120.64H119.907ZM118.875 117.972H121.051V118.392H118.875V117.972ZM119.963 118.488C120.144 118.488 120.303 118.516 120.439 118.572C120.575 118.625 120.682 118.701 120.759 118.8C120.836 118.899 120.875 119.013 120.875 119.144C120.875 119.275 120.836 119.389 120.759 119.488C120.682 119.587 120.575 119.664 120.439 119.72C120.303 119.773 120.144 119.8 119.963 119.8C119.784 119.8 119.626 119.773 119.487 119.72C119.351 119.664 119.244 119.587 119.167 119.488C119.09 119.389 119.051 119.275 119.051 119.144C119.051 119.013 119.09 118.899 119.167 118.8C119.244 118.701 119.351 118.625 119.487 118.572C119.626 118.516 119.784 118.488 119.963 118.488ZM119.963 118.876C119.846 118.876 119.75 118.9 119.675 118.948C119.6 118.993 119.563 119.059 119.563 119.144C119.563 119.232 119.6 119.3 119.675 119.348C119.75 119.393 119.846 119.416 119.963 119.416C120.083 119.416 120.179 119.393 120.251 119.348C120.326 119.3 120.363 119.232 120.363 119.144C120.363 119.059 120.326 118.993 120.251 118.948C120.179 118.9 120.083 118.876 119.963 118.876ZM119.699 117.62H120.227V118.204H119.699V117.62ZM122.555 120.508H125.911V120.94H122.555V120.508ZM123.959 119.668H124.487V120.7H123.959V119.668ZM122.811 117.952H125.635V118.38H122.811V117.952ZM122.831 119.428H125.623V119.848H122.831V119.428ZM123.315 118.304H123.847V119.476H123.315V118.304ZM124.599 118.304H125.131V119.476H124.599V118.304Z" fill="black"/>
</g>
<g id="Masanhoewon">
<path id="&#236;&#176;&#189;&#236;&#155;&#144;&#236;&#139;&#156;_&#235;&#167;&#136;&#236;&#130;&#176;&#237;&#154;&#140;&#236;&#155;&#144;&#234;&#181;&#172;" d="M116.9 112.8L118.3 99.3999L130.5 99.4999L135.8 108L134.6 108.8L131.8 109.1L125 108.7L121.9 114.5L116.9 112.8Z" fill="#AFD88C" stroke="white" stroke-width="0.5"/>
<path id="&#236;&#176;&#189;&#236;&#155;&#144; &#235;&#167;&#136;&#236;&#130;&#176;&#237;&#154;&#140;&#236;&#155;&#144;" d="M122.984 101.475H123.308V101.577C123.308 101.739 123.28 101.892 123.224 102.036C123.168 102.178 123.082 102.302 122.966 102.408C122.852 102.514 122.706 102.593 122.528 102.645L122.342 102.333C122.492 102.291 122.614 102.231 122.708 102.153C122.804 102.075 122.874 101.986 122.918 101.886C122.962 101.784 122.984 101.681 122.984 101.577V101.475ZM123.059 101.475H123.383V101.577C123.383 101.671 123.405 101.764 123.449 101.856C123.495 101.946 123.565 102.027 123.659 102.099C123.753 102.171 123.874 102.227 124.022 102.267L123.842 102.576C123.666 102.528 123.52 102.455 123.404 102.357C123.288 102.257 123.201 102.14 123.143 102.006C123.087 101.872 123.059 101.729 123.059 101.577V101.475ZM122.438 101.277H123.932V101.589H122.438V101.277ZM122.984 100.977H123.383V101.4H122.984V100.977ZM124.148 100.989H124.547V102.663H124.148V100.989ZM124.439 101.637H124.916V101.967H124.439V101.637ZM123.641 102.714C123.835 102.714 124.002 102.735 124.142 102.777C124.282 102.819 124.39 102.879 124.466 102.957C124.542 103.035 124.58 103.13 124.58 103.242C124.58 103.406 124.496 103.534 124.328 103.626C124.162 103.72 123.933 103.767 123.641 103.767C123.447 103.767 123.28 103.746 123.14 103.704C123 103.662 122.891 103.602 122.813 103.524C122.737 103.446 122.699 103.352 122.699 103.242C122.699 103.13 122.737 103.035 122.813 102.957C122.891 102.879 123 102.819 123.14 102.777C123.28 102.735 123.447 102.714 123.641 102.714ZM123.641 103.017C123.523 103.017 123.423 103.025 123.341 103.041C123.261 103.057 123.2 103.082 123.158 103.116C123.118 103.148 123.098 103.19 123.098 103.242C123.098 103.29 123.118 103.331 123.158 103.365C123.2 103.397 123.261 103.421 123.341 103.437C123.423 103.453 123.523 103.461 123.641 103.461C123.759 103.461 123.858 103.453 123.938 103.437C124.02 103.421 124.081 103.397 124.121 103.365C124.163 103.331 124.184 103.29 124.184 103.242C124.184 103.19 124.163 103.148 124.121 103.116C124.081 103.082 124.02 103.057 123.938 103.041C123.858 103.025 123.759 103.017 123.641 103.017ZM125.846 102.414H126.245V103.02H125.846V102.414ZM127.061 100.986H127.46V103.092H127.061V100.986ZM125.459 103.398H127.523V103.719H125.459V103.398ZM125.459 102.891H125.858V103.485H125.459V102.891ZM125.162 102.534L125.111 102.216C125.281 102.214 125.466 102.212 125.666 102.21C125.866 102.206 126.07 102.198 126.278 102.186C126.486 102.174 126.686 102.156 126.878 102.132L126.905 102.417C126.707 102.451 126.505 102.477 126.299 102.495C126.095 102.511 125.896 102.521 125.702 102.525C125.508 102.529 125.328 102.532 125.162 102.534ZM126.539 102.6H127.151V102.873H126.539V102.6ZM126.005 101.082C126.141 101.082 126.261 101.103 126.365 101.145C126.469 101.187 126.55 101.245 126.608 101.319C126.668 101.393 126.698 101.48 126.698 101.58C126.698 101.678 126.668 101.765 126.608 101.841C126.55 101.915 126.469 101.972 126.365 102.012C126.261 102.052 126.141 102.072 126.005 102.072C125.869 102.072 125.748 102.052 125.642 102.012C125.538 101.972 125.457 101.915 125.399 101.841C125.341 101.765 125.312 101.678 125.312 101.58C125.312 101.48 125.341 101.393 125.399 101.319C125.457 101.245 125.538 101.187 125.642 101.145C125.748 101.103 125.869 101.082 126.005 101.082ZM126.005 101.373C125.913 101.373 125.837 101.39 125.777 101.424C125.719 101.458 125.69 101.51 125.69 101.58C125.69 101.646 125.719 101.697 125.777 101.733C125.837 101.767 125.913 101.784 126.005 101.784C126.099 101.784 126.174 101.767 126.23 101.733C126.288 101.697 126.317 101.646 126.317 101.58C126.317 101.534 126.304 101.496 126.278 101.466C126.252 101.436 126.216 101.413 126.17 101.397C126.124 101.381 126.069 101.373 126.005 101.373ZM119.687 105.247H121.016V107.089H119.687V105.247ZM120.623 105.562H120.08V106.777H120.623V105.562ZM121.376 104.989H121.778V107.767H121.376V104.989ZM121.691 106.036H122.18V106.363H121.691V106.036ZM122.984 105.157H123.314V105.457C123.314 105.641 123.285 105.814 123.227 105.976C123.171 106.136 123.085 106.276 122.969 106.396C122.855 106.516 122.709 106.606 122.531 106.666L122.318 106.357C122.476 106.305 122.604 106.233 122.702 106.141C122.8 106.047 122.871 105.941 122.915 105.823C122.961 105.703 122.984 105.581 122.984 105.457V105.157ZM123.065 105.157H123.389V105.46C123.389 105.548 123.401 105.635 123.425 105.721C123.449 105.805 123.487 105.885 123.539 105.961C123.591 106.035 123.657 106.102 123.737 106.162C123.817 106.22 123.913 106.267 124.025 106.303L123.821 106.615C123.647 106.557 123.504 106.471 123.392 106.357C123.282 106.241 123.2 106.106 123.146 105.952C123.092 105.798 123.065 105.634 123.065 105.46V105.157ZM124.148 104.989H124.547V107.02H124.148V104.989ZM124.436 105.793H124.916V106.12H124.436V105.793ZM122.759 107.398H124.646V107.719H122.759V107.398ZM122.759 106.825H123.161V107.569H122.759V106.825ZM125.825 106.678H126.224V107.128H125.825V106.678ZM127.04 104.989H127.439V107.767H127.04V104.989ZM125.183 107.305L125.135 106.981C125.303 106.981 125.486 106.98 125.684 106.978C125.882 106.976 126.085 106.969 126.293 106.957C126.503 106.945 126.705 106.926 126.899 106.9L126.926 107.188C126.724 107.224 126.52 107.251 126.314 107.269C126.11 107.285 125.912 107.295 125.72 107.299C125.528 107.303 125.349 107.305 125.183 107.305ZM125.189 105.295H126.863V105.607H125.189V105.295ZM126.026 105.715C126.162 105.715 126.282 105.737 126.386 105.781C126.49 105.825 126.571 105.886 126.629 105.964C126.689 106.042 126.719 106.133 126.719 106.237C126.719 106.339 126.689 106.43 126.629 106.51C126.571 106.588 126.49 106.649 126.386 106.693C126.282 106.737 126.162 106.759 126.026 106.759C125.89 106.759 125.77 106.737 125.666 106.693C125.562 106.649 125.48 106.588 125.42 106.51C125.362 106.43 125.333 106.339 125.333 106.237C125.333 106.133 125.362 106.042 125.42 105.964C125.48 105.886 125.562 105.825 125.666 105.781C125.77 105.737 125.89 105.715 126.026 105.715ZM126.026 106.015C125.934 106.015 125.859 106.035 125.801 106.075C125.743 106.113 125.714 106.167 125.714 106.237C125.714 106.309 125.743 106.364 125.801 106.402C125.859 106.44 125.934 106.459 126.026 106.459C126.118 106.459 126.193 106.44 126.251 106.402C126.309 106.364 126.338 106.309 126.338 106.237C126.338 106.167 126.309 106.113 126.251 106.075C126.193 106.035 126.118 106.015 126.026 106.015ZM125.825 104.998H126.227V105.475H125.825V104.998ZM128.606 106.414H129.005V107.02H128.606V106.414ZM129.821 104.986H130.22V107.092H129.821V104.986ZM128.219 107.398H130.283V107.719H128.219V107.398ZM128.219 106.891H128.618V107.485H128.219V106.891ZM127.922 106.534L127.871 106.216C128.041 106.214 128.226 106.212 128.426 106.21C128.626 106.206 128.83 106.198 129.038 106.186C129.246 106.174 129.446 106.156 129.638 106.132L129.665 106.417C129.467 106.451 129.265 106.477 129.059 106.495C128.855 106.511 128.656 106.521 128.462 106.525C128.268 106.529 128.088 106.532 127.922 106.534ZM129.299 106.6H129.911V106.873H129.299V106.6ZM128.765 105.082C128.901 105.082 129.021 105.103 129.125 105.145C129.229 105.187 129.31 105.245 129.368 105.319C129.428 105.393 129.458 105.48 129.458 105.58C129.458 105.678 129.428 105.765 129.368 105.841C129.31 105.915 129.229 105.972 129.125 106.012C129.021 106.052 128.901 106.072 128.765 106.072C128.629 106.072 128.508 106.052 128.402 106.012C128.298 105.972 128.217 105.915 128.159 105.841C128.101 105.765 128.072 105.678 128.072 105.58C128.072 105.48 128.101 105.393 128.159 105.319C128.217 105.245 128.298 105.187 128.402 105.145C128.508 105.103 128.629 105.082 128.765 105.082ZM128.765 105.373C128.673 105.373 128.597 105.39 128.537 105.424C128.479 105.458 128.45 105.51 128.45 105.58C128.45 105.646 128.479 105.697 128.537 105.733C128.597 105.767 128.673 105.784 128.765 105.784C128.859 105.784 128.934 105.767 128.99 105.733C129.048 105.697 129.077 105.646 129.077 105.58C129.077 105.534 129.064 105.496 129.038 105.466C129.012 105.436 128.976 105.413 128.93 105.397C128.884 105.381 128.829 105.373 128.765 105.373Z" fill="black"/>
</g>
<g id="Gimhae">
<path id="&#234;&#185;&#128;&#237;&#149;&#180;&#236;&#139;&#156;" d="M153.1 87.8L165.2 79.8L167.1 81.9001L179.2 90.0001L185.2 98.6L183.1 104.5L168.9 108.2L167.8 118.1L166.2 115.4L157.3 117.2L150.5 115.7L148.4 104.7L144 93.7001L153.1 87.8Z" fill="#AFD88C" stroke="white" stroke-width="0.5"/>
<path id="&#234;&#185;&#128;&#237;&#149;&#180;" d="M158.88 95.15H160.28C160.28 95.97 160.11 96.7033 159.77 97.35C159.43 97.99 158.94 98.5333 158.3 98.98C157.66 99.42 156.877 99.76 155.95 100L155.45 98.95C156.217 98.7633 156.853 98.5133 157.36 98.2C157.867 97.8867 158.247 97.5267 158.5 97.12C158.753 96.7067 158.88 96.2733 158.88 95.82V95.15ZM155.98 95.15H159.74V96.2H155.98V95.15ZM161.77 94.62H163.1V99.78H161.77V94.62ZM156.97 100.18H163.1V103.79H156.97V100.18ZM161.79 101.22H158.28V102.74H161.79V101.22ZM164.599 96.02H169.029V97.07H164.599V96.02ZM166.829 97.49C167.223 97.49 167.569 97.5833 167.869 97.77C168.176 97.9567 168.416 98.2167 168.589 98.55C168.769 98.8767 168.859 99.2567 168.859 99.69C168.859 100.123 168.769 100.507 168.589 100.84C168.416 101.167 168.176 101.423 167.869 101.61C167.569 101.797 167.223 101.89 166.829 101.89C166.436 101.89 166.086 101.797 165.779 101.61C165.473 101.423 165.233 101.167 165.059 100.84C164.886 100.507 164.799 100.123 164.799 99.69C164.799 99.2567 164.886 98.8767 165.059 98.55C165.233 98.2167 165.473 97.9567 165.779 97.77C166.093 97.5833 166.443 97.49 166.829 97.49ZM166.829 98.59C166.669 98.59 166.523 98.6333 166.389 98.72C166.256 98.8067 166.153 98.9333 166.079 99.1C166.006 99.26 165.969 99.4567 165.969 99.69C165.969 99.9233 166.006 100.123 166.079 100.29C166.153 100.457 166.256 100.583 166.389 100.67C166.523 100.75 166.669 100.79 166.829 100.79C166.996 100.79 167.143 100.75 167.269 100.67C167.396 100.583 167.496 100.457 167.569 100.29C167.643 100.123 167.679 99.9233 167.679 99.69C167.679 99.4567 167.643 99.26 167.569 99.1C167.496 98.9333 167.396 98.8067 167.269 98.72C167.143 98.6333 166.996 98.59 166.829 98.59ZM171.299 94.62H172.559V103.88H171.299V94.62ZM170.189 98.39H171.709V99.46H170.189V98.39ZM169.349 94.79H170.589V103.49H169.349V94.79ZM166.179 94.87H167.489V96.68H166.179V94.87Z" fill="black"/>
</g>
<g id="Tongyeong">
<path id="&#237;&#134;&#181;&#236;&#152;&#129;&#236;&#139;&#156;" d="M103.599 165.3L109.899 163.8L103.999 159.5V162.7L100.899 160.1L97.9992 161.9L94.0992 158.1L94.3992 157.6L94.9992 157L100.799 157.2L98.7992 154.7L107.199 146.9L111.299 148.4L109.599 149.4L111.699 153L108.599 158.4L110.199 162.3L113.699 155.5L115.899 162.3L114.399 160.7L113.899 166.2L112.699 167.2L108.399 168.2L106.799 169L106.399 169.1L105.399 168.4L105.499 167.7L103.599 165.3ZM104.599 171.2L99.2992 169.2H99.3992L100.599 167L103.399 168.3L105.399 171.5L105.299 169L105.699 169.3L106.099 169.5H107.099L107.299 169.4L108.399 168.4L111.499 168.9L112.599 169.3L112.699 170.4L112.799 173L112.599 174.5L111.999 176.8L107.199 179.1L102.799 174.4L104.599 171.2ZM115.699 176.3L115.099 174.3L115.199 172.8L115.699 175.4L118.299 173.8L115.699 171.3L116.399 170.6L121.299 178.5L118.899 180L115.999 178.4L116.599 177.4L115.699 176.3ZM81.3992 170.9L83.5992 167.7L84.1992 167.6H84.2992L85.9992 167.2L89.8992 171.4L86.5992 174.3L81.3992 170.9ZM88.2992 197.3L93.9992 200.1L86.5992 203.3L85.9992 196.9L88.2992 197.3ZM79.1992 169.6L77.6992 165.4L81.1992 164.4L85.6992 166.7L84.1992 167.1L83.5992 167L79.1992 169.6Z" fill="#AFD88C" stroke="white" stroke-width="0.5"/>
<path id="&#237;&#134;&#181;&#236;&#152;&#129;" d="M103.117 154.917H105.631V155.229H103.117V154.917ZM104.176 154.623H104.572V155.034H104.176V154.623ZM103.432 154.446H105.367V154.749H103.432V154.446ZM103.432 153.558H105.343V153.861H103.828V154.62H103.432V153.558ZM103.714 154.005H105.283V154.296H103.714V154.005ZM104.371 155.355C104.677 155.355 104.914 155.394 105.082 155.472C105.252 155.55 105.337 155.663 105.337 155.811C105.337 155.959 105.252 156.072 105.082 156.15C104.914 156.228 104.677 156.267 104.371 156.267C104.067 156.267 103.83 156.228 103.66 156.15C103.492 156.072 103.408 155.959 103.408 155.811C103.408 155.663 103.492 155.55 103.66 155.472C103.83 155.394 104.067 155.355 104.371 155.355ZM104.371 155.646C104.179 155.646 104.037 155.659 103.945 155.685C103.853 155.711 103.807 155.753 103.807 155.811C103.807 155.869 103.853 155.911 103.945 155.937C104.037 155.961 104.179 155.973 104.371 155.973C104.563 155.973 104.705 155.961 104.797 155.937C104.889 155.911 104.935 155.869 104.935 155.811C104.935 155.753 104.889 155.711 104.797 155.685C104.705 155.659 104.563 155.646 104.371 155.646ZM107.11 153.849H107.932V154.17H107.11V153.849ZM107.11 154.467H107.932V154.785H107.11V154.467ZM106.648 153.636C106.788 153.636 106.913 153.666 107.023 153.726C107.133 153.784 107.22 153.864 107.284 153.966C107.35 154.068 107.383 154.185 107.383 154.317C107.383 154.447 107.35 154.563 107.284 154.665C107.22 154.767 107.133 154.848 107.023 154.908C106.913 154.966 106.788 154.995 106.648 154.995C106.512 154.995 106.388 154.966 106.276 154.908C106.166 154.848 106.078 154.767 106.012 154.665C105.948 154.563 105.916 154.447 105.916 154.317C105.916 154.185 105.948 154.068 106.012 153.966C106.078 153.864 106.166 153.784 106.276 153.726C106.388 153.666 106.512 153.636 106.648 153.636ZM106.648 153.972C106.582 153.972 106.522 153.986 106.468 154.014C106.414 154.04 106.371 154.079 106.339 154.131C106.309 154.181 106.294 154.243 106.294 154.317C106.294 154.387 106.309 154.448 106.339 154.5C106.371 154.552 106.414 154.592 106.468 154.62C106.522 154.646 106.582 154.659 106.648 154.659C106.718 154.659 106.779 154.646 106.831 154.62C106.885 154.592 106.927 154.552 106.957 154.5C106.987 154.448 107.002 154.387 107.002 154.317C107.002 154.243 106.987 154.181 106.957 154.131C106.927 154.079 106.885 154.04 106.831 154.014C106.779 153.986 106.718 153.972 106.648 153.972ZM107.806 153.489H108.208V155.115H107.806V153.489ZM107.266 155.172C107.462 155.172 107.63 155.194 107.77 155.238C107.912 155.28 108.022 155.342 108.1 155.424C108.178 155.506 108.217 155.604 108.217 155.718C108.217 155.832 108.178 155.93 108.1 156.012C108.022 156.096 107.912 156.159 107.77 156.201C107.63 156.245 107.462 156.267 107.266 156.267C107.07 156.267 106.901 156.245 106.759 156.201C106.617 156.159 106.507 156.096 106.429 156.012C106.353 155.93 106.315 155.832 106.315 155.718C106.315 155.604 106.353 155.506 106.429 155.424C106.507 155.342 106.617 155.28 106.759 155.238C106.901 155.194 107.07 155.172 107.266 155.172ZM107.266 155.478C107.146 155.478 107.044 155.487 106.96 155.505C106.876 155.523 106.813 155.55 106.771 155.586C106.729 155.62 106.708 155.664 106.708 155.718C106.708 155.772 106.729 155.817 106.771 155.853C106.813 155.889 106.876 155.916 106.96 155.934C107.044 155.95 107.146 155.958 107.266 155.958C107.388 155.958 107.49 155.95 107.572 155.934C107.656 155.916 107.719 155.889 107.761 155.853C107.803 155.817 107.824 155.772 107.824 155.718C107.824 155.664 107.803 155.62 107.761 155.586C107.719 155.55 107.656 155.523 107.572 155.505C107.49 155.487 107.388 155.478 107.266 155.478Z" fill="black"/>
</g>
<g id="Sacheon">
<path id="&#236;&#130;&#172;&#236;&#178;&#156;&#236;&#139;&#156;" d="M69.9004 154.4L64.3004 154.6L59.5004 149.4L62.2004 147.2L60.0004 139L63.0004 128.4L58.2004 138.2L56.8004 134.9L52.1004 136.6L57.9004 141.1L57.2004 144.8L50.1004 145.2L48.0004 146L46.8004 144L46.6004 141.2L45.6004 140.4L46.6004 135L41.8004 129.2L44.0004 123.9L39.9004 120L47.6004 118.9L55.3004 118.4L55.9004 124.8L62.1004 122.1L67.4004 126.8L73.3004 124.5L77.7004 127.6L74.6004 130.4L79.3004 134.5L76.0004 140.6L77.5004 144.8L73.0004 145.5L71.1004 154.6L69.9004 154.4Z" fill="#AFD88C" stroke="white" stroke-width="0.5"/>
<path id="&#236;&#130;&#172;&#236;&#178;&#156;" d="M47.494 127.404H48.136V128.208C48.136 128.552 48.106 128.888 48.046 129.216C47.986 129.54 47.892 129.842 47.764 130.122C47.64 130.402 47.482 130.652 47.29 130.872C47.098 131.088 46.872 131.26 46.612 131.388L46.132 130.746C46.368 130.638 46.57 130.494 46.738 130.314C46.91 130.134 47.052 129.93 47.164 129.702C47.276 129.474 47.358 129.234 47.41 128.982C47.466 128.726 47.494 128.468 47.494 128.208V127.404ZM47.65 127.404H48.292V128.208C48.292 128.46 48.316 128.708 48.364 128.952C48.416 129.196 48.494 129.428 48.598 129.648C48.706 129.864 48.84 130.058 49 130.23C49.16 130.402 49.352 130.544 49.576 130.656L49.09 131.292C48.842 131.164 48.626 130.996 48.442 130.788C48.262 130.576 48.114 130.334 47.998 130.062C47.882 129.786 47.794 129.492 47.734 129.18C47.678 128.864 47.65 128.54 47.65 128.208V127.404ZM49.792 126.978H50.596V132.534H49.792V126.978ZM50.422 129.114H51.4V129.774H50.422V129.114ZM53.0075 128.064H53.6615V128.274C53.6615 128.614 53.6055 128.934 53.4935 129.234C53.3815 129.534 53.2115 129.796 52.9835 130.02C52.7555 130.244 52.4655 130.414 52.1135 130.53L51.7235 129.906C52.0235 129.81 52.2675 129.678 52.4555 129.51C52.6475 129.338 52.7875 129.146 52.8755 128.934C52.9635 128.718 53.0075 128.498 53.0075 128.274V128.064ZM53.1575 128.064H53.8055V128.274C53.8055 128.482 53.8495 128.688 53.9375 128.892C54.0295 129.092 54.1715 129.274 54.3635 129.438C54.5555 129.598 54.7995 129.722 55.0955 129.81L54.7175 130.434C54.3655 130.33 54.0735 130.172 53.8415 129.96C53.6135 129.744 53.4415 129.492 53.3255 129.204C53.2135 128.912 53.1575 128.602 53.1575 128.274V128.064ZM51.9155 127.632H54.9035V128.256H51.9155V127.632ZM53.0075 127.014H53.8055V127.866H53.0075V127.014ZM54.7235 128.592H56.0135V129.24H54.7235V128.592ZM55.6115 126.978H56.4155V131.088H55.6115V126.978ZM52.7435 131.796H56.5415V132.438H52.7435V131.796ZM52.7435 130.746H53.5415V132.216H52.7435V130.746Z" fill="black"/>
</g>
<g id="Jinju">
<path id="&#236;&#167;&#132;&#236;&#163;&#188;&#236;&#139;&#156;" d="M47.4992 118.8L41.1992 107.1L43.6992 107.7L45.1992 103.2L51.0992 104.1L53.4992 97.7999L61.4992 94.4999L62.7992 90.4999L69.8992 90.7999L75.1992 87.7L80.6992 102.7L90.4992 102.1L102.499 112L100.199 122.5L82.2992 124.5L79.5992 128.8L82.5992 131L79.1992 134.5L74.4992 130.4L77.5992 127.6L73.0992 124.5L67.1992 126.8L61.8992 122.1L55.7992 124.8L55.1992 118.4L47.4992 118.8Z" fill="#AFD88C" stroke="white" stroke-width="0.5"/>
<path id="&#236;&#167;&#132;&#236;&#163;&#188;" d="M65.65 108.66H66.75V109.44C66.75 110.02 66.6533 110.573 66.46 111.1C66.2733 111.62 65.9867 112.077 65.6 112.47C65.2133 112.857 64.72 113.147 64.12 113.34L63.44 112.3C63.96 112.133 64.38 111.9 64.7 111.6C65.0267 111.3 65.2667 110.963 65.42 110.59C65.5733 110.21 65.65 109.827 65.65 109.44V108.66ZM65.93 108.66H67.01V109.44C67.01 109.713 67.0533 109.987 67.14 110.26C67.2267 110.527 67.3567 110.783 67.53 111.03C67.71 111.27 67.9367 111.487 68.21 111.68C68.4833 111.873 68.8067 112.03 69.18 112.15L68.51 113.18C67.93 112.993 67.45 112.713 67.07 112.34C66.69 111.967 66.4033 111.53 66.21 111.03C66.0233 110.523 65.93 109.993 65.93 109.44V108.66ZM63.8 108.28H68.84V109.34H63.8V108.28ZM69.77 107.63H71.1V114.31H69.77V107.63ZM64.93 115.66H71.34V116.73H64.93V115.66ZM64.93 113.71H66.26V116.19H64.93V113.71ZM76.0292 108.65H77.1892V108.93C77.1892 109.25 77.1359 109.56 77.0292 109.86C76.9292 110.16 76.7759 110.44 76.5692 110.7C76.3626 110.953 76.1092 111.183 75.8092 111.39C75.5159 111.59 75.1759 111.76 74.7892 111.9C74.4026 112.04 73.9726 112.14 73.4992 112.2L73.0092 111.17C73.4226 111.117 73.7892 111.037 74.1092 110.93C74.4359 110.817 74.7192 110.687 74.9592 110.54C75.1992 110.387 75.3992 110.223 75.5592 110.05C75.7192 109.877 75.8359 109.693 75.9092 109.5C75.9892 109.307 76.0292 109.117 76.0292 108.93V108.65ZM76.4192 108.65H77.5692V108.93C77.5692 109.117 77.6059 109.307 77.6792 109.5C77.7592 109.693 77.8792 109.877 78.0392 110.05C78.1992 110.223 78.3992 110.387 78.6392 110.54C78.8859 110.687 79.1692 110.817 79.4892 110.93C79.8092 111.037 80.1759 111.117 80.5892 111.17L80.0992 112.2C79.6259 112.14 79.1959 112.04 78.8092 111.9C78.4226 111.76 78.0792 111.59 77.7792 111.39C77.4859 111.183 77.2359 110.953 77.0292 110.7C76.8292 110.44 76.6759 110.16 76.5692 109.86C76.4692 109.56 76.4192 109.25 76.4192 108.93V108.65ZM76.0992 113.5H77.4292V116.89H76.0992V113.5ZM72.6092 112.73H80.9892V113.8H72.6092V112.73ZM73.3492 108.1H80.2192V109.15H73.3492V108.1Z" fill="black"/>
</g>
<g id="Miryang">
<path id="&#235;&#176;&#128;&#236;&#150;&#145;&#236;&#139;&#156;" d="M138.6 83.2999L138.5 75.2999L128.5 68.2999L130.8 50.7L142.9 48.8999L155.4 53.0999L157.6 49.5999L163.1 49.3999L167.5 42.2H175.2L180.5 46.2L183.1 44.3999L185.3 49.9999L179.2 53.7999L182.5 56.2L182.2 58.7999L177.7 62.3999L178.9 68.3999L171.6 71.9999L173.5 75.8999L169.2 76.7999L167.2 81.7999L165.3 79.7999L153.1 87.7999L138.6 83.2999Z" fill="#AFD88C" stroke="white" stroke-width="0.5"/>
<path id="&#235;&#176;&#128;&#236;&#150;&#145;" d="M146.87 64.08H151.36V68.01H146.87V64.08ZM150.06 65.12H148.18V66.96H150.06V65.12ZM152.77 63.63H154.1V68.29H152.77V63.63ZM147.92 68.7H154.1V71.21H149.25V72.16H147.94V70.26H152.78V69.72H147.92V68.7ZM147.94 71.79H154.33V72.83H147.94V71.79ZM162.489 64.76H164.079V65.84H162.489V64.76ZM162.489 66.77H164.079V67.86H162.489V66.77ZM158.179 64.13C158.659 64.13 159.089 64.2267 159.469 64.42C159.849 64.6133 160.149 64.88 160.369 65.22C160.589 65.5533 160.699 65.94 160.699 66.38C160.699 66.8133 160.589 67.2 160.369 67.54C160.149 67.8733 159.849 68.1367 159.469 68.33C159.089 68.5233 158.659 68.62 158.179 68.62C157.706 68.62 157.279 68.5233 156.899 68.33C156.519 68.1367 156.219 67.8733 155.999 67.54C155.779 67.2 155.669 66.8133 155.669 66.38C155.669 65.94 155.779 65.5533 155.999 65.22C156.219 64.88 156.519 64.6133 156.899 64.42C157.279 64.2267 157.706 64.13 158.179 64.13ZM158.179 65.24C157.953 65.24 157.746 65.2867 157.559 65.38C157.373 65.4667 157.226 65.5967 157.119 65.77C157.019 65.9367 156.969 66.14 156.969 66.38C156.969 66.6133 157.019 66.8167 157.119 66.99C157.226 67.1567 157.373 67.2833 157.559 67.37C157.746 67.4567 157.953 67.5 158.179 67.5C158.419 67.5 158.629 67.4567 158.809 67.37C158.989 67.2833 159.133 67.1567 159.239 66.99C159.346 66.8167 159.399 66.6133 159.399 66.38C159.399 66.14 159.346 65.9367 159.239 65.77C159.133 65.5967 158.989 65.4667 158.809 65.38C158.629 65.2867 158.419 65.24 158.179 65.24ZM161.559 63.63H162.889V69.03H161.559V63.63ZM159.869 69.22C160.509 69.22 161.063 69.2933 161.529 69.44C162.003 69.5867 162.366 69.7967 162.619 70.07C162.873 70.3433 162.999 70.6733 162.999 71.06C162.999 71.44 162.873 71.7667 162.619 72.04C162.366 72.3133 162.003 72.5233 161.529 72.67C161.063 72.8167 160.509 72.89 159.869 72.89C159.229 72.89 158.673 72.8167 158.199 72.67C157.733 72.5233 157.369 72.3133 157.109 72.04C156.856 71.7667 156.729 71.44 156.729 71.06C156.729 70.6733 156.856 70.3433 157.109 70.07C157.369 69.7967 157.733 69.5867 158.199 69.44C158.673 69.2933 159.229 69.22 159.869 69.22ZM159.869 70.27C159.476 70.27 159.146 70.3 158.879 70.36C158.613 70.4133 158.409 70.4967 158.269 70.61C158.129 70.7233 158.059 70.8733 158.059 71.06C158.059 71.2333 158.129 71.38 158.269 71.5C158.409 71.62 158.613 71.71 158.879 71.77C159.146 71.8233 159.476 71.85 159.869 71.85C160.263 71.85 160.593 71.8233 160.859 71.77C161.133 71.71 161.336 71.62 161.469 71.5C161.609 71.38 161.679 71.2333 161.679 71.06C161.679 70.8733 161.609 70.7233 161.469 70.61C161.336 70.4967 161.133 70.4133 160.859 70.36C160.593 70.3 160.263 70.27 159.869 70.27Z" fill="black"/>
</g>
<g id="Haman">
<path id="&#237;&#149;&#168;&#236;&#149;&#136;&#234;&#181;&#176;" d="M111.2 80.7999L116.6 82.5999L120.8 79.3999L129 82.4999L126.9 86.8999L130.5 99.4999L118.3 99.3999L116.9 112.8L108.9 115.7L106.5 110.1L102.5 112L90.5 102.2L95.8 85.8999L105.4 90.1999L104.3 86.4999L109.9 85.2999L111.2 80.7999Z" fill="#AFD88C" stroke="white" stroke-width="0.5"/>
<path id="&#237;&#149;&#168;&#236;&#149;&#136;" d="M103.36 94.63H104.69V100.2H103.36V94.63ZM104.33 96.91H105.92V98H104.33V96.91ZM98.67 100.61H104.69V103.79H98.67V100.61ZM103.39 101.65H99.98V102.74H103.39V101.65ZM97.41 95.45H102.85V96.5H97.41V95.45ZM100.13 96.78C100.583 96.78 100.98 96.85 101.32 96.99C101.66 97.13 101.927 97.3267 102.12 97.58C102.313 97.8267 102.41 98.1167 102.41 98.45C102.41 98.7767 102.313 99.0667 102.12 99.32C101.927 99.5667 101.66 99.76 101.32 99.9C100.98 100.04 100.583 100.11 100.13 100.11C99.6833 100.11 99.2867 100.04 98.94 99.9C98.6 99.76 98.3333 99.5667 98.14 99.32C97.9467 99.0667 97.85 98.7767 97.85 98.45C97.85 98.1167 97.9467 97.8267 98.14 97.58C98.3333 97.3267 98.6 97.13 98.94 96.99C99.2867 96.85 99.6833 96.78 100.13 96.78ZM100.13 97.76C99.8367 97.76 99.5967 97.82 99.41 97.94C99.2233 98.0533 99.13 98.2233 99.13 98.45C99.13 98.6767 99.2233 98.85 99.41 98.97C99.5967 99.0833 99.8367 99.14 100.13 99.14C100.43 99.14 100.67 99.0833 100.85 98.97C101.037 98.85 101.13 98.6767 101.13 98.45C101.13 98.2233 101.037 98.0533 100.85 97.94C100.67 97.82 100.43 97.76 100.13 97.76ZM99.47 94.56H100.79V96.02H99.47V94.56ZM112.559 94.63H113.889V101.36H112.559V94.63ZM113.519 97.27H115.119V98.37H113.519V97.27ZM107.919 102.66H114.219V103.73H107.919V102.66ZM107.919 100.66H109.259V103.14H107.919V100.66ZM109.179 95.22C109.653 95.22 110.079 95.32 110.459 95.52C110.839 95.72 111.139 95.9967 111.359 96.35C111.586 96.7033 111.699 97.11 111.699 97.57C111.699 98.0233 111.586 98.43 111.359 98.79C111.139 99.1433 110.839 99.4233 110.459 99.63C110.079 99.83 109.653 99.93 109.179 99.93C108.706 99.93 108.279 99.83 107.899 99.63C107.519 99.4233 107.219 99.1433 106.999 98.79C106.779 98.43 106.669 98.0233 106.669 97.57C106.669 97.11 106.779 96.7033 106.999 96.35C107.219 95.9967 107.519 95.72 107.899 95.52C108.279 95.32 108.706 95.22 109.179 95.22ZM109.179 96.37C108.953 96.37 108.746 96.42 108.559 96.52C108.379 96.6133 108.236 96.75 108.129 96.93C108.023 97.1033 107.969 97.3167 107.969 97.57C107.969 97.8233 108.023 98.04 108.129 98.22C108.236 98.3933 108.379 98.53 108.559 98.63C108.746 98.7233 108.953 98.77 109.179 98.77C109.413 98.77 109.619 98.7233 109.799 98.63C109.986 98.53 110.133 98.3933 110.239 98.22C110.346 98.04 110.399 97.8233 110.399 97.57C110.399 97.3167 110.346 97.1033 110.239 96.93C110.133 96.75 109.986 96.6133 109.799 96.52C109.619 96.42 109.413 96.37 109.179 96.37Z" fill="black"/>
</g>
<g id="Hapcheon">
<path id="&#237;&#149;&#169;&#236;&#178;&#156;&#234;&#181;&#176;" d="M66.4 12.7L75.8 20.9999L81.1 35.5999L75.9 37.2L75.6 40.2999L84.3 42.4999L94.1 39.8999L100 41.5999L101.6 46.3999L100 58.3999L103.7 61.9999L89.5 62.4999L80.9 67.7999V74.5999L79.5 80.0999L65.8 84.7999L62 77.2999L52.8 72.0999L50 61.7L55.1 43.4999L61.4 36.4999L66.8 35.5999L59.4 19.7L66.4 12.7Z" fill="#AFD88C" stroke="white" stroke-width="0.5"/>
<path id="&#237;&#149;&#169;&#236;&#178;&#156;" d="M69.36 50.63H70.69V56.05H69.36V50.63ZM70.17 52.85H71.92V53.94H70.17V52.85ZM64.67 56.41H65.99V57.1H69.38V56.41H70.69V59.79H64.67V56.41ZM65.99 58.1V58.75H69.38V58.1H65.99ZM63.41 51.43H68.85V52.48H63.41V51.43ZM66.13 52.72C66.5833 52.72 66.98 52.79 67.32 52.93C67.66 53.0633 67.9267 53.2533 68.12 53.5C68.3133 53.7467 68.41 54.0333 68.41 54.36C68.41 54.6867 68.3133 54.9733 68.12 55.22C67.9267 55.4667 67.66 55.66 67.32 55.8C66.98 55.9333 66.5833 56 66.13 56C65.6833 56 65.2867 55.9333 64.94 55.8C64.6 55.66 64.3333 55.4667 64.14 55.22C63.9467 54.9733 63.85 54.6867 63.85 54.36C63.85 54.0333 63.9467 53.7467 64.14 53.5C64.3333 53.2533 64.6 53.0633 64.94 52.93C65.2867 52.79 65.6833 52.72 66.13 52.72ZM66.13 53.69C65.8367 53.69 65.5967 53.75 65.41 53.87C65.2233 53.9833 65.13 54.1467 65.13 54.36C65.13 54.58 65.2233 54.75 65.41 54.87C65.5967 54.9833 65.8367 55.04 66.13 55.04C66.43 55.04 66.67 54.9833 66.85 54.87C67.0367 54.75 67.13 54.58 67.13 54.36C67.13 54.1467 67.0367 53.9833 66.85 53.87C66.67 53.75 66.43 53.69 66.13 53.69ZM65.47 50.55H66.79V52.01H65.47V50.55ZM74.6792 52.44H75.7692V52.79C75.7692 53.3567 75.6759 53.89 75.4892 54.39C75.3026 54.89 75.0192 55.3267 74.6392 55.7C74.2592 56.0733 73.7759 56.3567 73.1892 56.55L72.5392 55.51C73.0392 55.35 73.4459 55.13 73.7592 54.85C74.0792 54.5633 74.3126 54.2433 74.4592 53.89C74.6059 53.53 74.6792 53.1633 74.6792 52.79V52.44ZM74.9292 52.44H76.0092V52.79C76.0092 53.1367 76.0826 53.48 76.2292 53.82C76.3826 54.1533 76.6192 54.4567 76.9392 54.73C77.2592 54.9967 77.6659 55.2033 78.1592 55.35L77.5292 56.39C76.9426 56.2167 76.4559 55.9533 76.0692 55.6C75.6892 55.24 75.4026 54.82 75.2092 54.34C75.0226 53.8533 74.9292 53.3367 74.9292 52.79V52.44ZM72.8592 51.72H77.8392V52.76H72.8592V51.72ZM74.6792 50.69H76.0092V52.11H74.6792V50.69ZM77.5392 53.32H79.6892V54.4H77.5392V53.32ZM79.0192 50.63H80.3592V57.48H79.0192V50.63ZM74.2392 58.66H80.5692V59.73H74.2392V58.66ZM74.2392 56.91H75.5692V59.36H74.2392V56.91Z" fill="black"/>
</g>
<g id="Hadong">
<path id="&#237;&#149;&#152;&#235;&#143;&#153;&#234;&#181;&#176;" d="M6.6996 90.8L15.3996 92.9001L17.4996 101.4L26.6996 108.5L35.2996 107.2L38.5996 102.1L41.2996 107.2L47.5996 118.9L39.8996 120L43.9996 123.9L41.7996 129.2L46.5996 135L45.5996 140.4L43.4996 139.1L45.5996 141.6L45.1996 143.6L45.5996 144.5L44.0996 147.3L40.9996 150.2L35.8996 151L34.9996 148.4L32.2996 151.5L30.8996 151.4L27.9996 152L24.5996 147.9L28.0996 141.1L25.6996 134.8L7.1996 114.2L1.09961 94.5001L6.6996 90.8Z" fill="#AFD88C" stroke="white" stroke-width="0.5"/>
<path id="&#237;&#149;&#152;&#235;&#143;&#153;" d="M24.34 112.63H25.67V121.89H24.34V112.63ZM25.37 116.24H27V117.34H25.37V116.24ZM18.36 113.99H23.76V115.05H18.36V113.99ZM21.08 115.58C21.5267 115.58 21.9267 115.677 22.28 115.87C22.6333 116.057 22.91 116.313 23.11 116.64C23.3167 116.967 23.42 117.347 23.42 117.78C23.42 118.213 23.3167 118.597 23.11 118.93C22.91 119.257 22.6333 119.517 22.28 119.71C21.9333 119.897 21.5333 119.99 21.08 119.99C20.6333 119.99 20.23 119.897 19.87 119.71C19.5167 119.517 19.2367 119.257 19.03 118.93C18.83 118.597 18.73 118.213 18.73 117.78C18.73 117.347 18.83 116.967 19.03 116.64C19.2367 116.313 19.5167 116.057 19.87 115.87C20.23 115.677 20.6333 115.58 21.08 115.58ZM21.08 116.66C20.8667 116.66 20.68 116.703 20.52 116.79C20.36 116.877 20.2333 117.003 20.14 117.17C20.0467 117.337 20 117.54 20 117.78C20 118.013 20.0467 118.217 20.14 118.39C20.2333 118.557 20.36 118.687 20.52 118.78C20.68 118.867 20.8667 118.91 21.08 118.91C21.2867 118.91 21.47 118.867 21.63 118.78C21.79 118.687 21.9167 118.557 22.01 118.39C22.1033 118.217 22.15 118.013 22.15 117.78C22.15 117.54 22.1033 117.337 22.01 117.17C21.9167 117.003 21.79 116.877 21.63 116.79C21.47 116.703 21.2867 116.66 21.08 116.66ZM20.4 112.78H21.74V114.4H20.4V112.78ZM27.6192 116.98H35.9892V118.03H27.6192V116.98ZM31.1392 115.59H32.4692V117.39H31.1392V115.59ZM28.6292 115.17H35.0392V116.21H28.6292V115.17ZM28.6292 113.02H34.9892V114.07H29.9492V115.83H28.6292V113.02ZM31.7692 118.49C32.7692 118.49 33.5559 118.64 34.1292 118.94C34.7026 119.233 34.9892 119.653 34.9892 120.2C34.9892 120.74 34.7026 121.157 34.1292 121.45C33.5559 121.75 32.7692 121.9 31.7692 121.9C30.7692 121.9 29.9826 121.75 29.4092 121.45C28.8426 121.157 28.5592 120.74 28.5592 120.2C28.5592 119.653 28.8426 119.233 29.4092 118.94C29.9826 118.64 30.7692 118.49 31.7692 118.49ZM31.7692 119.5C31.3559 119.5 31.0092 119.527 30.7292 119.58C30.4559 119.627 30.2492 119.703 30.1092 119.81C29.9692 119.91 29.8992 120.037 29.8992 120.19C29.8992 120.35 29.9692 120.483 30.1092 120.59C30.2492 120.69 30.4559 120.767 30.7292 120.82C31.0092 120.867 31.3559 120.89 31.7692 120.89C32.1826 120.89 32.5259 120.867 32.7992 120.82C33.0792 120.767 33.2892 120.69 33.4292 120.59C33.5692 120.483 33.6392 120.35 33.6392 120.19C33.6392 120.037 33.5692 119.91 33.4292 119.81C33.2892 119.703 33.0792 119.627 32.7992 119.58C32.5259 119.527 32.1826 119.5 31.7692 119.5Z" fill="black"/>
</g>
<g id="Changnyeong">
<path id="&#236;&#176;&#189;&#235;&#133;&#149;&#234;&#181;&#176;" d="M122.6 35.3L123.6 44.6001L130.8 50.7001L128.5 68.3L138.5 75.3L138.6 83.3L137.4 83.8L132.2 80.5001L129 82.5001L120.8 79.4001L116.6 82.6001L111.2 80.8L110.5 79.3L103.3 73.6001L104.1 70.2001L109.1 66.7001L103.7 62.0001L100 58.4001L101.6 46.4001L102.5 46.8L119.6 42.2001L122.6 35.3Z" fill="#AFD88C" stroke="white" stroke-width="0.5"/>
<path id="&#236;&#176;&#189;&#235;&#133;&#149;" d="M110.48 54.25H111.56V54.59C111.56 55.13 111.467 55.64 111.28 56.12C111.093 56.5933 110.807 57.0067 110.42 57.36C110.04 57.7133 109.553 57.9767 108.96 58.15L108.34 57.11C108.84 56.97 109.247 56.77 109.56 56.51C109.88 56.25 110.113 55.9533 110.26 55.62C110.407 55.28 110.48 54.9367 110.48 54.59V54.25ZM110.73 54.25H111.81V54.59C111.81 54.9033 111.883 55.2133 112.03 55.52C112.183 55.82 112.417 56.09 112.73 56.33C113.043 56.57 113.447 56.7567 113.94 56.89L113.34 57.92C112.753 57.76 112.267 57.5167 111.88 57.19C111.493 56.8567 111.203 56.4667 111.01 56.02C110.823 55.5733 110.73 55.0967 110.73 54.59V54.25ZM108.66 53.59H113.64V54.63H108.66V53.59ZM110.48 52.59H111.81V54H110.48V52.59ZM114.36 52.63H115.69V58.21H114.36V52.63ZM115.33 54.79H116.92V55.89H115.33V54.79ZM112.67 58.38C113.317 58.38 113.873 58.45 114.34 58.59C114.807 58.73 115.167 58.93 115.42 59.19C115.673 59.45 115.8 59.7667 115.8 60.14C115.8 60.6867 115.52 61.1133 114.96 61.42C114.407 61.7333 113.643 61.89 112.67 61.89C112.023 61.89 111.467 61.82 111 61.68C110.533 61.54 110.17 61.34 109.91 61.08C109.657 60.82 109.53 60.5067 109.53 60.14C109.53 59.7667 109.657 59.45 109.91 59.19C110.17 58.93 110.533 58.73 111 58.59C111.467 58.45 112.023 58.38 112.67 58.38ZM112.67 59.39C112.277 59.39 111.943 59.4167 111.67 59.47C111.403 59.5233 111.2 59.6067 111.06 59.72C110.927 59.8267 110.86 59.9667 110.86 60.14C110.86 60.3 110.927 60.4367 111.06 60.55C111.2 60.6567 111.403 60.7367 111.67 60.79C111.943 60.8433 112.277 60.87 112.67 60.87C113.063 60.87 113.393 60.8433 113.66 60.79C113.933 60.7367 114.137 60.6567 114.27 60.55C114.41 60.4367 114.48 60.3 114.48 60.14C114.48 59.9667 114.41 59.8267 114.27 59.72C114.137 59.6067 113.933 59.5233 113.66 59.47C113.393 59.4167 113.063 59.39 112.67 59.39ZM118.139 53.09H119.469V56.99H118.139V53.09ZM118.139 56.72H118.899C119.433 56.72 119.919 56.7133 120.359 56.7C120.799 56.6867 121.219 56.66 121.619 56.62C122.026 56.5733 122.433 56.5133 122.839 56.44L122.999 57.49C122.573 57.5767 122.149 57.6433 121.729 57.69C121.309 57.73 120.869 57.76 120.409 57.78C119.956 57.7933 119.453 57.8 118.899 57.8H118.139V56.72ZM124.019 52.62H125.359V58.18H124.019V52.62ZM121.819 53.45H124.349V54.46H121.819V53.45ZM121.819 55.04H124.349V56.05H121.819V55.04ZM122.219 58.3C123.199 58.3 123.973 58.46 124.539 58.78C125.106 59.0933 125.389 59.53 125.389 60.09C125.389 60.6633 125.106 61.1067 124.539 61.42C123.973 61.74 123.199 61.9 122.219 61.9C121.239 61.9 120.466 61.74 119.899 61.42C119.333 61.1067 119.049 60.6633 119.049 60.09C119.049 59.53 119.333 59.0933 119.899 58.78C120.466 58.46 121.239 58.3 122.219 58.3ZM122.219 59.33C121.819 59.33 121.483 59.3567 121.209 59.41C120.936 59.4633 120.726 59.55 120.579 59.67C120.439 59.7833 120.369 59.9233 120.369 60.09C120.369 60.2633 120.439 60.41 120.579 60.53C120.726 60.6433 120.936 60.73 121.209 60.79C121.483 60.8433 121.819 60.87 122.219 60.87C122.619 60.87 122.956 60.8433 123.229 60.79C123.503 60.73 123.709 60.6433 123.849 60.53C123.989 60.41 124.059 60.2633 124.059 60.09C124.059 59.9233 123.989 59.7833 123.849 59.67C123.709 59.55 123.503 59.4633 123.229 59.41C122.956 59.3567 122.619 59.33 122.219 59.33Z" fill="black"/>
</g>
<g id="Namhae">
<path id="&#235;&#130;&#168;&#237;&#149;&#180;&#234;&#181;&#176;" d="M59.3004 154.9L56.9004 163.4L61.7004 158.7L62.5004 165.6L66.6004 168.2L64.2004 169H63.9004L61.8004 168.2L60.1004 167.1L58.0004 167.9L51.8004 166.8L50.7004 163.2L54.0004 159.4L54.4004 158.1L56.8004 155.7L57.1004 155.4L58.1004 155.2L59.3004 154.9ZM38.3004 152.4L42.0004 151L46.6004 154.3V154.4L46.4004 156.5L42.4004 162.7L44.9004 168.5L48.4004 172.6L54.3004 168.9L59.5004 168.7L61.9004 169.6L63.2004 170.6L62.6004 181L62.7004 181.1L60.1004 185L63.4004 188L58.8004 189.4L57.6004 185.7L50.2004 188.1L49.5004 177.5L43.2004 179.9L43.5004 185.2H37.3004L34.6004 181.7L37.5004 177.6L31.4004 166.7L33.4004 160.9L33.3004 159.3L33.4004 157.8L38.9004 158.7L36.8004 155.1L37.5004 153.4L38.3004 152.4Z" fill="#AFD88C" stroke="white" stroke-width="0.5"/>
<path id="&#235;&#130;&#168;&#237;&#149;&#180;" d="M53.816 172.972H54.614V176.104H53.816V172.972ZM54.398 174.142H55.352V174.796H54.398V174.142ZM51.002 176.356H54.614V178.474H51.002V176.356ZM53.84 176.986H51.788V177.844H53.84V176.986ZM50.468 173.236H51.266V175.51H50.468V173.236ZM50.468 175.168H50.93C51.31 175.168 51.704 175.154 52.112 175.126C52.524 175.094 52.948 175.036 53.384 174.952L53.474 175.588C53.026 175.68 52.588 175.744 52.16 175.78C51.736 175.812 51.326 175.828 50.93 175.828H50.468V175.168ZM55.7595 173.812H58.4175V174.442H55.7595V173.812ZM57.0975 174.694C57.3335 174.694 57.5415 174.75 57.7215 174.862C57.9055 174.974 58.0495 175.13 58.1535 175.33C58.2615 175.526 58.3155 175.754 58.3155 176.014C58.3155 176.274 58.2615 176.504 58.1535 176.704C58.0495 176.9 57.9055 177.054 57.7215 177.166C57.5415 177.278 57.3335 177.334 57.0975 177.334C56.8615 177.334 56.6515 177.278 56.4675 177.166C56.2835 177.054 56.1395 176.9 56.0355 176.704C55.9315 176.504 55.8795 176.274 55.8795 176.014C55.8795 175.754 55.9315 175.526 56.0355 175.33C56.1395 175.13 56.2835 174.974 56.4675 174.862C56.6555 174.75 56.8655 174.694 57.0975 174.694ZM57.0975 175.354C57.0015 175.354 56.9135 175.38 56.8335 175.432C56.7535 175.484 56.6915 175.56 56.6475 175.66C56.6035 175.756 56.5815 175.874 56.5815 176.014C56.5815 176.154 56.6035 176.274 56.6475 176.374C56.6915 176.474 56.7535 176.55 56.8335 176.602C56.9135 176.65 57.0015 176.674 57.0975 176.674C57.1975 176.674 57.2855 176.65 57.3615 176.602C57.4375 176.55 57.4975 176.474 57.5415 176.374C57.5855 176.274 57.6075 176.154 57.6075 176.014C57.6075 175.874 57.5855 175.756 57.5415 175.66C57.4975 175.56 57.4375 175.484 57.3615 175.432C57.2855 175.38 57.1975 175.354 57.0975 175.354ZM59.7795 172.972H60.5355V178.528H59.7795V172.972ZM59.1135 175.234H60.0255V175.876H59.1135V175.234ZM58.6095 173.074H59.3535V178.294H58.6095V173.074ZM56.7075 173.122H57.4935V174.208H56.7075V173.122Z" fill="black"/>
</g>
<g id="Geochang">
<path id="&#234;&#177;&#176;&#236;&#176;&#189;&#234;&#181;&#176;" d="M40.1996 0.5L41.2996 4.10001L44.6996 3L45.3996 8.89999L52.4996 8.39999L56.3996 13L64.6996 11.3L66.3996 12.7L59.3996 19.7L66.7996 35.6L61.3996 36.5L55.0996 43.5L49.9996 61.7L39.4996 60.2L36.6996 53.7L33.9996 51.6L38.5996 45.6L39.2996 38.1L33.8996 39.6L24.6996 28.7L20.6996 30.1L14.0996 22.6L16.5996 19.5L22.2996 10.7L34.6996 7.29999L36.8996 1L40.1996 0.5Z" fill="#AFD88C" stroke="white" stroke-width="0.5"/>
<path id="&#234;&#177;&#176;&#236;&#176;&#189;" d="M40.82 20.63H42.15V29.89H40.82V20.63ZM39.04 24.17H41.47V25.25H39.04V24.17ZM37.79 21.58H39.1C39.1 22.28 39.0333 22.95 38.9 23.59C38.7733 24.2233 38.5567 24.8233 38.25 25.39C37.9433 25.9567 37.5233 26.4833 36.99 26.97C36.4633 27.45 35.8 27.89 35 28.29L34.3 27.26C34.9533 26.9333 35.5 26.58 35.94 26.2C36.3867 25.82 36.7467 25.41 37.02 24.97C37.2933 24.53 37.49 24.05 37.61 23.53C37.73 23.0033 37.79 22.4333 37.79 21.82V21.58ZM34.74 21.58H38.49V22.64H34.74V21.58ZM45.6792 22.25H46.7592V22.59C46.7592 23.13 46.6659 23.64 46.4792 24.12C46.2926 24.5933 46.0059 25.0067 45.6192 25.36C45.2392 25.7133 44.7526 25.9767 44.1592 26.15L43.5392 25.11C44.0392 24.97 44.4459 24.77 44.7592 24.51C45.0792 24.25 45.3126 23.9533 45.4592 23.62C45.6059 23.28 45.6792 22.9367 45.6792 22.59V22.25ZM45.9292 22.25H47.0092V22.59C47.0092 22.9033 47.0826 23.2133 47.2292 23.52C47.3826 23.82 47.6159 24.09 47.9292 24.33C48.2426 24.57 48.6459 24.7567 49.1392 24.89L48.5392 25.92C47.9526 25.76 47.4659 25.5167 47.0792 25.19C46.6926 24.8567 46.4026 24.4667 46.2092 24.02C46.0226 23.5733 45.9292 23.0967 45.9292 22.59V22.25ZM43.8592 21.59H48.8392V22.63H43.8592V21.59ZM45.6792 20.59H47.0092V22H45.6792V20.59ZM49.5592 20.63H50.8892V26.21H49.5592V20.63ZM50.5292 22.79H52.1192V23.89H50.5292V22.79ZM47.8692 26.38C48.5159 26.38 49.0726 26.45 49.5392 26.59C50.0059 26.73 50.3659 26.93 50.6192 27.19C50.8726 27.45 50.9992 27.7667 50.9992 28.14C50.9992 28.6867 50.7192 29.1133 50.1592 29.42C49.6059 29.7333 48.8426 29.89 47.8692 29.89C47.2226 29.89 46.6659 29.82 46.1992 29.68C45.7326 29.54 45.3692 29.34 45.1092 29.08C44.8559 28.82 44.7292 28.5067 44.7292 28.14C44.7292 27.7667 44.8559 27.45 45.1092 27.19C45.3692 26.93 45.7326 26.73 46.1992 26.59C46.6659 26.45 47.2226 26.38 47.8692 26.38ZM47.8692 27.39C47.4759 27.39 47.1426 27.4167 46.8692 27.47C46.6026 27.5233 46.3992 27.6067 46.2592 27.72C46.1259 27.8267 46.0592 27.9667 46.0592 28.14C46.0592 28.3 46.1259 28.4367 46.2592 28.55C46.3992 28.6567 46.6026 28.7367 46.8692 28.79C47.1426 28.8433 47.4759 28.87 47.8692 28.87C48.2626 28.87 48.5926 28.8433 48.8592 28.79C49.1326 28.7367 49.3359 28.6567 49.4692 28.55C49.6092 28.4367 49.6792 28.3 49.6792 28.14C49.6792 27.9667 49.6092 27.8267 49.4692 27.72C49.3359 27.6067 49.1326 27.5233 48.8592 27.47C48.5926 27.4167 48.2626 27.39 47.8692 27.39Z" fill="black"/>
</g>
<g id="Goseong">
<path id="&#234;&#179;&#160;&#236;&#132;&#177;&#234;&#181;&#176;_00000028326800830962186490000011380967607044266940_" d="M90.6992 155.6L89.9992 151.7L81.1992 152.9L80.8992 156.8L79.7992 159.2L75.6992 156.7L73.0992 159.9L70.7992 156.7L68.6992 158.3L69.8992 154.7H70.8992L72.7992 145.6L77.2992 144.9L75.7992 140.7L79.0992 134.6L82.4992 131.1L79.4992 128.9L82.2992 124.6L100.099 122.5L106.699 129.2L110.199 128.7L109.699 133.4L102.199 134.7L102.799 139.9L112.199 132.7L113.199 131.3L113.399 131.2L115.399 130.6L115.499 130.5L117.299 132L114.399 134.9L119.799 140.2L117.799 142.3L116.999 143.4L107.899 143.3L112.399 146.6L98.9992 152.5L96.7992 148.2L94.2992 156L94.1992 156.1L91.6992 155.6H90.6992Z" fill="#AFD88C" stroke="white" stroke-width="0.5"/>
<path id="&#234;&#179;&#160;&#236;&#132;&#177;" d="M85.016 136.928H89.704V137.776H85.016V136.928ZM84.328 141.952H91.032V142.816H84.328V141.952ZM86.696 139.408H87.768V142.384H86.696V139.408ZM89.32 136.928H90.392V137.632C90.392 137.941 90.3867 138.269 90.376 138.616C90.3707 138.963 90.3467 139.347 90.304 139.768C90.2667 140.189 90.1973 140.661 90.096 141.184L89.032 141.072C89.1813 140.331 89.2667 139.685 89.288 139.136C89.3093 138.581 89.32 138.08 89.32 137.632V136.928ZM93.4074 136.688H94.2874V137.344C94.2874 137.84 94.21 138.307 94.0554 138.744C93.906 139.181 93.6767 139.563 93.3674 139.888C93.058 140.213 92.6607 140.459 92.1754 140.624L91.6154 139.768C92.042 139.635 92.386 139.443 92.6474 139.192C92.9087 138.941 93.1007 138.656 93.2234 138.336C93.346 138.016 93.4074 137.685 93.4074 137.344V136.688ZM93.6234 136.688H94.4874V137.296C94.4874 137.621 94.5434 137.936 94.6554 138.24C94.7674 138.539 94.946 138.805 95.1914 139.04C95.4367 139.269 95.754 139.448 96.1434 139.576L95.5914 140.408C95.138 140.248 94.7647 140.016 94.4714 139.712C94.1834 139.408 93.97 139.051 93.8314 138.64C93.6927 138.224 93.6234 137.776 93.6234 137.296V136.688ZM96.8154 136.304H97.8874V140.64H96.8154V136.304ZM95.3754 140.832C96.1594 140.832 96.778 140.96 97.2314 141.216C97.6847 141.467 97.9114 141.816 97.9114 142.264C97.9114 142.723 97.6847 143.077 97.2314 143.328C96.778 143.584 96.1594 143.712 95.3754 143.712C94.5914 143.712 93.9727 143.584 93.5194 143.328C93.066 143.077 92.8394 142.723 92.8394 142.264C92.8394 141.816 93.066 141.467 93.5194 141.216C93.9727 140.96 94.5914 140.832 95.3754 140.832ZM95.3754 141.656C95.0554 141.656 94.786 141.677 94.5674 141.72C94.3487 141.763 94.1807 141.832 94.0634 141.928C93.9514 142.019 93.8954 142.131 93.8954 142.264C93.8954 142.403 93.9514 142.52 94.0634 142.616C94.1807 142.707 94.3487 142.776 94.5674 142.824C94.786 142.867 95.0554 142.888 95.3754 142.888C95.6954 142.888 95.9647 142.867 96.1834 142.824C96.402 142.776 96.5674 142.707 96.6794 142.616C96.7914 142.52 96.8474 142.403 96.8474 142.264C96.8474 142.131 96.7914 142.019 96.6794 141.928C96.5674 141.832 96.402 141.763 96.1834 141.72C95.9647 141.677 95.6954 141.656 95.3754 141.656ZM95.4634 137.648H96.9754V138.512H95.4634V137.648Z" fill="black"/>
</g>
<g id="Hamyang">
<path id="&#237;&#149;&#168;&#236;&#150;&#145;&#234;&#181;&#176;" d="M14.1 22.6001L20.7 30.1001L24.7 28.7001L33.9 39.6001L39.3 38.1001L38.6 45.6001L34 51.6001L36.7 53.7001L20.8 90.0001L15.4 92.9001L6.7 90.8001L5.3 85.6001L13.5 73.1001L8.7 71.0001L10.8 66.7001L7.60001 59.0001L2 56.2001L8.5 46.1001L6.5 41.8001L14.1 22.6001Z" fill="#AFD88C" stroke="white" stroke-width="0.5"/>
<path id="&#237;&#149;&#168;&#236;&#150;&#145;" d="M18.36 47.63H19.69V53.2H18.36V47.63ZM19.33 49.91H20.92V51H19.33V49.91ZM13.67 53.61H19.69V56.79H13.67V53.61ZM18.39 54.65H14.98V55.74H18.39V54.65ZM12.41 48.45H17.85V49.5H12.41V48.45ZM15.13 49.78C15.5833 49.78 15.98 49.85 16.32 49.99C16.66 50.13 16.9267 50.3267 17.12 50.58C17.3133 50.8267 17.41 51.1167 17.41 51.45C17.41 51.7767 17.3133 52.0667 17.12 52.32C16.9267 52.5667 16.66 52.76 16.32 52.9C15.98 53.04 15.5833 53.11 15.13 53.11C14.6833 53.11 14.2867 53.04 13.94 52.9C13.6 52.76 13.3333 52.5667 13.14 52.32C12.9467 52.0667 12.85 51.7767 12.85 51.45C12.85 51.1167 12.9467 50.8267 13.14 50.58C13.3333 50.3267 13.6 50.13 13.94 49.99C14.2867 49.85 14.6833 49.78 15.13 49.78ZM15.13 50.76C14.8367 50.76 14.5967 50.82 14.41 50.94C14.2233 51.0533 14.13 51.2233 14.13 51.45C14.13 51.6767 14.2233 51.85 14.41 51.97C14.5967 52.0833 14.8367 52.14 15.13 52.14C15.43 52.14 15.67 52.0833 15.85 51.97C16.0367 51.85 16.13 51.6767 16.13 51.45C16.13 51.2233 16.0367 51.0533 15.85 50.94C15.67 50.82 15.43 50.76 15.13 50.76ZM14.47 47.56H15.79V49.02H14.47V47.56ZM28.4892 48.76H30.0792V49.84H28.4892V48.76ZM28.4892 50.77H30.0792V51.86H28.4892V50.77ZM24.1792 48.13C24.6592 48.13 25.0892 48.2267 25.4692 48.42C25.8492 48.6133 26.1492 48.88 26.3692 49.22C26.5892 49.5533 26.6992 49.94 26.6992 50.38C26.6992 50.8133 26.5892 51.2 26.3692 51.54C26.1492 51.8733 25.8492 52.1367 25.4692 52.33C25.0892 52.5233 24.6592 52.62 24.1792 52.62C23.7059 52.62 23.2792 52.5233 22.8992 52.33C22.5192 52.1367 22.2192 51.8733 21.9992 51.54C21.7792 51.2 21.6692 50.8133 21.6692 50.38C21.6692 49.94 21.7792 49.5533 21.9992 49.22C22.2192 48.88 22.5192 48.6133 22.8992 48.42C23.2792 48.2267 23.7059 48.13 24.1792 48.13ZM24.1792 49.24C23.9526 49.24 23.7459 49.2867 23.5592 49.38C23.3726 49.4667 23.2259 49.5967 23.1192 49.77C23.0192 49.9367 22.9692 50.14 22.9692 50.38C22.9692 50.6133 23.0192 50.8167 23.1192 50.99C23.2259 51.1567 23.3726 51.2833 23.5592 51.37C23.7459 51.4567 23.9526 51.5 24.1792 51.5C24.4192 51.5 24.6292 51.4567 24.8092 51.37C24.9892 51.2833 25.1326 51.1567 25.2392 50.99C25.3459 50.8167 25.3992 50.6133 25.3992 50.38C25.3992 50.14 25.3459 49.9367 25.2392 49.77C25.1326 49.5967 24.9892 49.4667 24.8092 49.38C24.6292 49.2867 24.4192 49.24 24.1792 49.24ZM27.5592 47.63H28.8892V53.03H27.5592V47.63ZM25.8692 53.22C26.5092 53.22 27.0626 53.2933 27.5292 53.44C28.0026 53.5867 28.3659 53.7967 28.6192 54.07C28.8726 54.3433 28.9992 54.6733 28.9992 55.06C28.9992 55.44 28.8726 55.7667 28.6192 56.04C28.3659 56.3133 28.0026 56.5233 27.5292 56.67C27.0626 56.8167 26.5092 56.89 25.8692 56.89C25.2292 56.89 24.6726 56.8167 24.1992 56.67C23.7326 56.5233 23.3692 56.3133 23.1092 56.04C22.8559 55.7667 22.7292 55.44 22.7292 55.06C22.7292 54.6733 22.8559 54.3433 23.1092 54.07C23.3692 53.7967 23.7326 53.5867 24.1992 53.44C24.6726 53.2933 25.2292 53.22 25.8692 53.22ZM25.8692 54.27C25.4759 54.27 25.1459 54.3 24.8792 54.36C24.6126 54.4133 24.4092 54.4967 24.2692 54.61C24.1292 54.7233 24.0592 54.8733 24.0592 55.06C24.0592 55.2333 24.1292 55.38 24.2692 55.5C24.4092 55.62 24.6126 55.71 24.8792 55.77C25.1459 55.8233 25.4759 55.85 25.8692 55.85C26.2626 55.85 26.5926 55.8233 26.8592 55.77C27.1326 55.71 27.3359 55.62 27.4692 55.5C27.6092 55.38 27.6792 55.2333 27.6792 55.06C27.6792 54.8733 27.6092 54.7233 27.4692 54.61C27.3359 54.4967 27.1326 54.4133 26.8592 54.36C26.5926 54.3 26.2626 54.27 25.8692 54.27Z" fill="black"/>
</g>
</g>
</svg>
