<svg width="127" height="97" viewBox="0 0 127 97" fill="none" xmlns="http://www.w3.org/2000/svg">
<g id="incheon">
<g id="ganghwa">
<g id="&#234;&#176;&#149;&#237;&#153;&#148;&#234;&#181;&#176;">
<path d="M73.8008 26.4L70.4008 29.4L67.6008 23.7L61.2008 18.9L63.9008 13.8L66.9008 12.7L68.8008 13.4L67.9008 14.6L67.8008 19.1L72.2008 21.5L73.5008 21.8L74.9008 23.7L74.7008 24.5L74.2008 26.2L73.8008 26.4ZM53.3008 9.10001L60.9008 2.1L69.6008 5.39999L69.1008 6.60001V6.7L66.9008 9.10001L65.1008 10.1H64.9008L61.5008 9.7L60.2008 10.3L56.8008 12.3L53.3008 9.10001ZM71.7008 6.39999L81.6008 0.5L91.1008 8.8L91.4008 10.6L91.7008 11.5L93.3008 13.6L93.2008 13.9V14.6L93.1008 14.8L92.3008 15.9L91.8008 16.9V17.6L91.7008 18.1L93.3008 20.5L92.9008 20.9L92.6008 22.2L92.5008 23.6L93.4008 29.8L93.5008 30L94.0008 31.1L95.3008 33.1L95.4008 33.6L91.8008 36.4L91.3008 36.9L86.9008 36.6L80.3008 37.3L78.6008 37.1L74.0008 34.3L73.4008 30.6L79.3008 27.4L76.6008 22.7L74.6008 20.4L72.8008 19.9L71.8008 17.8L72.0008 14.1L71.7008 6.39999Z" fill="#AFD88C"/>
<path d="M70.5008 29.6L70.3008 29.7M73.8008 26.4L70.4008 29.4L67.6008 23.7L61.2008 18.9L63.9008 13.8L66.9008 12.7L68.8008 13.4L67.9008 14.6L67.8008 19.1L72.2008 21.5L73.5008 21.8L74.9008 23.7L74.7008 24.5L74.2008 26.2L73.8008 26.4ZM53.3008 9.10001L60.9008 2.1L69.6008 5.39999L69.1008 6.60001V6.7L66.9008 9.10001L65.1008 10.1H64.9008L61.5008 9.7L60.2008 10.3L56.8008 12.3L53.3008 9.10001ZM71.7008 6.39999L81.6008 0.5L91.1008 8.8L91.4008 10.6L91.7008 11.5L93.3008 13.6L93.2008 13.9V14.6L93.1008 14.8L92.3008 15.9L91.8008 16.9V17.6L91.7008 18.1L93.3008 20.5L92.9008 20.9L92.6008 22.2L92.5008 23.6L93.4008 29.8L93.5008 30L94.0008 31.1L95.3008 33.1L95.4008 33.6L91.8008 36.4L91.3008 36.9L86.9008 36.6L80.3008 37.3L78.6008 37.1L74.0008 34.3L73.4008 30.6L79.3008 27.4L76.6008 22.7L74.6008 20.4L72.8008 19.9L71.8008 17.8L72.0008 14.1L71.7008 6.39999Z" stroke="white" stroke-width="0.5"/>
</g>
<path id="&#234;&#176;&#149;&#237;&#153;&#148;" d="M82.908 18.486H83.307V20.094H82.908V18.486ZM83.199 19.134H83.676V19.464H83.199V19.134ZM82.116 18.669H82.545C82.545 18.917 82.495 19.14 82.395 19.338C82.295 19.534 82.149 19.701 81.957 19.839C81.767 19.977 81.536 20.084 81.264 20.16L81.102 19.842C81.324 19.78 81.51 19.701 81.66 19.605C81.812 19.507 81.926 19.396 82.002 19.272C82.078 19.146 82.116 19.011 82.116 18.867V18.669ZM81.231 18.669H82.356V18.987H81.231V18.669ZM82.407 20.13C82.595 20.13 82.759 20.154 82.899 20.202C83.039 20.248 83.147 20.314 83.223 20.4C83.301 20.484 83.34 20.584 83.34 20.7C83.34 20.816 83.301 20.916 83.223 21C83.147 21.086 83.039 21.152 82.899 21.198C82.759 21.244 82.595 21.267 82.407 21.267C82.221 21.267 82.058 21.244 81.918 21.198C81.778 21.152 81.669 21.086 81.591 21C81.513 20.916 81.474 20.816 81.474 20.7C81.474 20.584 81.513 20.484 81.591 20.4C81.669 20.314 81.778 20.248 81.918 20.202C82.058 20.154 82.221 20.13 82.407 20.13ZM82.407 20.439C82.297 20.439 82.201 20.449 82.119 20.469C82.039 20.489 81.977 20.518 81.933 20.556C81.891 20.594 81.87 20.642 81.87 20.7C81.87 20.756 81.891 20.803 81.933 20.841C81.977 20.879 82.039 20.908 82.119 20.928C82.201 20.948 82.297 20.958 82.407 20.958C82.521 20.958 82.618 20.948 82.698 20.928C82.778 20.908 82.839 20.879 82.881 20.841C82.925 20.803 82.947 20.756 82.947 20.7C82.947 20.642 82.925 20.594 82.881 20.556C82.839 20.518 82.778 20.489 82.698 20.469C82.618 20.449 82.521 20.439 82.407 20.439ZM84.5248 20.133H84.9238V20.58H84.5248V20.133ZM85.6918 18.489H86.0908V21.267H85.6918V18.489ZM85.9528 19.617H86.4418V19.944H85.9528V19.617ZM83.9008 20.805L83.8528 20.481C84.0128 20.481 84.1878 20.48 84.3778 20.478C84.5698 20.476 84.7658 20.469 84.9658 20.457C85.1678 20.445 85.3628 20.427 85.5508 20.403L85.5808 20.691C85.3868 20.727 85.1898 20.754 84.9898 20.772C84.7898 20.788 84.5968 20.798 84.4108 20.802C84.2268 20.804 84.0568 20.805 83.9008 20.805ZM83.9038 18.792H85.5388V19.104H83.9038V18.792ZM84.7228 19.215C84.8568 19.215 84.9748 19.237 85.0768 19.281C85.1788 19.325 85.2588 19.386 85.3168 19.464C85.3748 19.542 85.4038 19.633 85.4038 19.737C85.4038 19.839 85.3748 19.93 85.3168 20.01C85.2588 20.088 85.1788 20.149 85.0768 20.193C84.9748 20.237 84.8568 20.259 84.7228 20.259C84.5908 20.259 84.4738 20.237 84.3718 20.193C84.2698 20.149 84.1898 20.088 84.1318 20.01C84.0738 19.93 84.0448 19.839 84.0448 19.737C84.0448 19.633 84.0738 19.542 84.1318 19.464C84.1898 19.386 84.2698 19.325 84.3718 19.281C84.4738 19.237 84.5908 19.215 84.7228 19.215ZM84.7228 19.515C84.6328 19.515 84.5598 19.535 84.5038 19.575C84.4498 19.613 84.4228 19.667 84.4228 19.737C84.4228 19.809 84.4498 19.864 84.5038 19.902C84.5598 19.94 84.6328 19.959 84.7228 19.959C84.8148 19.959 84.8878 19.94 84.9418 19.902C84.9978 19.864 85.0258 19.809 85.0258 19.737C85.0258 19.667 84.9978 19.613 84.9418 19.575C84.8878 19.535 84.8148 19.515 84.7228 19.515ZM84.5248 18.501H84.9238V19.026H84.5248V18.501Z" fill="black"/>
</g>
<g id="seogu">
<path id="&#236;&#132;&#156;&#234;&#181;&#172;" d="M101.8 44.5001L110.1 40.2001L101.1 37.8001L108.8 30.6001L117.8 38.1001L112.4 39.3001L116.1 44.2001L113.2 48.7001L113 57.0001L112.7 56.9001L111.3 56.3001L107 51.8001L104.9 53.0001H103.8H102.6V50.9001L102.4 49.8001L101.8 44.5001Z" fill="#AFD88C" stroke="white" stroke-width="0.5"/>
<path id="&#236;&#132;&#156;&#234;&#181;&#172;_2" d="M107.27 46.63H107.88V46.8975H107.27V46.63ZM106.64 46.0825H106.908V46.42C106.908 46.565 106.895 46.7058 106.87 46.8425C106.845 46.9792 106.807 47.1067 106.755 47.225C106.703 47.3433 106.638 47.4475 106.558 47.5375C106.479 47.6275 106.386 47.7 106.278 47.755L106.07 47.49C106.168 47.4433 106.253 47.3825 106.323 47.3075C106.394 47.2325 106.453 47.1475 106.5 47.0525C106.548 46.9558 106.583 46.8542 106.605 46.7475C106.628 46.6392 106.64 46.53 106.64 46.42V46.0825ZM106.708 46.0825H106.973V46.42C106.973 46.5283 106.983 46.6358 107.005 46.7425C107.027 46.8475 107.059 46.9458 107.103 47.0375C107.148 47.1292 107.205 47.2108 107.275 47.2825C107.345 47.3525 107.428 47.4092 107.525 47.4525L107.325 47.7175C107.217 47.6642 107.123 47.5942 107.045 47.5075C106.967 47.4192 106.903 47.3183 106.853 47.205C106.804 47.0917 106.768 46.9683 106.743 46.835C106.719 46.7017 106.708 46.5633 106.708 46.42V46.0825ZM107.713 45.9025H108.045V48.225H107.713V45.9025ZM108.642 46.04H110.092V46.3025H108.642V46.04ZM108.402 47.025H110.497V47.295H108.402V47.025ZM109.27 47.215H109.605V48.2225H109.27V47.215ZM109.922 46.04H110.25V46.245C110.25 46.3283 110.248 46.4167 110.245 46.51C110.243 46.6033 110.236 46.7058 110.225 46.8175C110.213 46.9275 110.191 47.0508 110.16 47.1875L109.835 47.1475C109.878 46.9558 109.903 46.7883 109.91 46.645C109.918 46.5 109.922 46.3667 109.922 46.245V46.04Z" fill="black"/>
</g>
<g id="gyeyang">
<path id="&#234;&#179;&#132;&#236;&#150;&#145;&#234;&#181;&#172;" d="M117.8 38.1001L126.3 39.8001L122.8 44.0001L122 48.7001H113.2L116.1 44.2001L112.4 39.3001L117.8 38.1001Z" fill="#AFD88C" stroke="white" stroke-width="0.5"/>
<path id="&#234;&#179;&#132;&#236;&#150;&#145;" d="M117.995 42.5175H118.463V42.78H117.995V42.5175ZM117.983 43.095H118.455V43.36H117.983V43.095ZM118.778 41.905H119.095V44.22H118.778V41.905ZM118.303 41.955H118.613V44.1175H118.303V41.955ZM117.78 42.1775H118.098C118.098 42.3975 118.072 42.6025 118.02 42.7925C117.97 42.9808 117.883 43.1542 117.76 43.3125C117.638 43.4708 117.47 43.6133 117.255 43.74L117.068 43.5075C117.242 43.4025 117.382 43.2883 117.485 43.165C117.59 43.04 117.665 42.9025 117.71 42.7525C117.757 42.6008 117.78 42.4317 117.78 42.245V42.1775ZM117.2 42.1775H117.89V42.445H117.2V42.1775ZM121.122 42.19H121.52V42.46H121.122V42.19ZM121.122 42.6925H121.52V42.965H121.122V42.6925ZM120.045 42.0325C120.165 42.0325 120.272 42.0567 120.367 42.105C120.462 42.1533 120.537 42.22 120.592 42.305C120.647 42.3883 120.675 42.485 120.675 42.595C120.675 42.7033 120.647 42.8 120.592 42.885C120.537 42.9683 120.462 43.0342 120.367 43.0825C120.272 43.1308 120.165 43.155 120.045 43.155C119.926 43.155 119.82 43.1308 119.725 43.0825C119.63 43.0342 119.555 42.9683 119.5 42.885C119.445 42.8 119.417 42.7033 119.417 42.595C119.417 42.485 119.445 42.3883 119.5 42.305C119.555 42.22 119.63 42.1533 119.725 42.105C119.82 42.0567 119.926 42.0325 120.045 42.0325ZM120.045 42.31C119.988 42.31 119.936 42.3217 119.89 42.345C119.843 42.3667 119.806 42.3992 119.78 42.4425C119.755 42.4842 119.742 42.535 119.742 42.595C119.742 42.6533 119.755 42.7042 119.78 42.7475C119.806 42.7892 119.843 42.8208 119.89 42.8425C119.936 42.8642 119.988 42.875 120.045 42.875C120.105 42.875 120.157 42.8642 120.202 42.8425C120.247 42.8208 120.283 42.7892 120.31 42.7475C120.336 42.7042 120.35 42.6533 120.35 42.595C120.35 42.535 120.336 42.4842 120.31 42.4425C120.283 42.3992 120.247 42.3667 120.202 42.345C120.157 42.3217 120.105 42.31 120.045 42.31ZM120.89 41.9075H121.222V43.2575H120.89V41.9075ZM120.467 43.305C120.627 43.305 120.766 43.3233 120.882 43.36C121.001 43.3967 121.091 43.4492 121.155 43.5175C121.218 43.5858 121.25 43.6683 121.25 43.765C121.25 43.86 121.218 43.9417 121.155 44.01C121.091 44.0783 121.001 44.1308 120.882 44.1675C120.766 44.2042 120.627 44.2225 120.467 44.2225C120.307 44.2225 120.168 44.2042 120.05 44.1675C119.933 44.1308 119.842 44.0783 119.777 44.01C119.714 43.9417 119.682 43.86 119.682 43.765C119.682 43.6683 119.714 43.5858 119.777 43.5175C119.842 43.4492 119.933 43.3967 120.05 43.36C120.168 43.3233 120.307 43.305 120.467 43.305ZM120.467 43.5675C120.369 43.5675 120.286 43.575 120.22 43.59C120.153 43.6033 120.102 43.6242 120.067 43.6525C120.032 43.6808 120.015 43.7183 120.015 43.765C120.015 43.8083 120.032 43.845 120.067 43.875C120.102 43.905 120.153 43.9275 120.22 43.9425C120.286 43.9558 120.369 43.9625 120.467 43.9625C120.566 43.9625 120.648 43.9558 120.715 43.9425C120.783 43.9275 120.834 43.905 120.867 43.875C120.902 43.845 120.92 43.8083 120.92 43.765C120.92 43.7183 120.902 43.6808 120.867 43.6525C120.834 43.6242 120.783 43.6033 120.715 43.59C120.648 43.575 120.566 43.5675 120.467 43.5675Z" fill="black"/>
</g>
<g id="bupyeong">
<path id="&#235;&#182;&#128;&#237;&#143;&#137;&#234;&#181;&#172;" d="M122 48.7002L119.8 54.5002L122.9 56.9002L113 57.0002L113.2 48.7002H122Z" fill="#AFD88C" stroke="white" stroke-width="0.5"/>
<path id="&#235;&#182;&#128;&#237;&#143;&#137;" d="M114.603 52.7375H116.698V53H114.603V52.7375ZM115.475 52.87H115.808V53.7225H115.475V52.87ZM114.84 51.495H115.17V51.7575H116.123V51.495H116.45V52.5175H114.84V51.495ZM115.17 52.0175V52.255H116.123V52.0175H115.17ZM118.235 51.7775H118.697V52.0425H118.235V51.7775ZM118.235 52.2125H118.697V52.4775H118.235V52.2125ZM116.957 51.5575H118.18V51.825H116.957V51.5575ZM116.935 52.7375L116.902 52.4675C117.026 52.4675 117.162 52.4667 117.312 52.465C117.462 52.4617 117.615 52.4567 117.77 52.45C117.925 52.4417 118.071 52.4292 118.21 52.4125L118.23 52.655C118.086 52.68 117.938 52.6983 117.785 52.71C117.631 52.7217 117.481 52.7292 117.335 52.7325C117.19 52.7358 117.056 52.7375 116.935 52.7375ZM117.142 51.7825H117.462V52.565H117.142V51.7825ZM117.68 51.7825H117.997V52.565H117.68V51.7825ZM118.505 51.4075H118.84V52.8225H118.505V51.4075ZM118.055 52.8575C118.301 52.8575 118.495 52.895 118.635 52.97C118.776 53.045 118.847 53.1517 118.847 53.29C118.847 53.4267 118.776 53.5325 118.635 53.6075C118.495 53.6842 118.301 53.7225 118.055 53.7225C117.81 53.7225 117.616 53.6842 117.475 53.6075C117.333 53.5325 117.262 53.4267 117.262 53.29C117.262 53.1517 117.333 53.045 117.475 52.97C117.616 52.895 117.81 52.8575 118.055 52.8575ZM118.055 53.11C117.955 53.11 117.87 53.1167 117.8 53.13C117.731 53.1417 117.68 53.1617 117.645 53.19C117.61 53.2167 117.592 53.25 117.592 53.29C117.592 53.3517 117.631 53.3975 117.707 53.4275C117.786 53.4575 117.901 53.4725 118.055 53.4725C118.156 53.4725 118.241 53.4658 118.31 53.4525C118.378 53.4392 118.429 53.4192 118.462 53.3925C118.497 53.3658 118.515 53.3317 118.515 53.29C118.515 53.25 118.497 53.2167 118.462 53.19C118.429 53.1617 118.378 53.1417 118.31 53.13C118.241 53.1167 118.156 53.11 118.055 53.11Z" fill="black"/>
</g>
<g id="namdong">
<path id="&#235;&#130;&#168;&#235;&#143;&#153;&#234;&#181;&#172;" d="M119.901 67.2999L119.801 67.7999L119.201 68.5999L117.701 70.1999H112.401L110.301 69.2999L114.701 61.8999L112.701 56.8999L113.001 56.9999L122.901 56.8999H124.201L120.901 65.9999V66.0999L120.801 66.3999L119.901 67.2999Z" fill="#AFD88C" stroke="white" stroke-width="0.5"/>
<path id="&#235;&#130;&#168;&#235;&#143;&#153;" d="M116.59 62.905H116.923V64.21H116.59V62.905ZM116.833 63.3925H117.23V63.665H116.833V63.3925ZM115.418 64.315H116.923V65.1975H115.418V64.315ZM116.6 64.5775H115.745V64.935H116.6V64.5775ZM115.195 63.015H115.528V63.9625H115.195V63.015ZM115.195 63.82H115.388C115.546 63.82 115.71 63.8142 115.88 63.8025C116.052 63.7892 116.228 63.765 116.41 63.73L116.448 63.995C116.261 64.0333 116.078 64.06 115.9 64.075C115.723 64.0883 115.553 64.095 115.388 64.095H115.195V63.82ZM117.405 63.995H119.497V64.2575H117.405V63.995ZM118.285 63.6475H118.617V64.0975H118.285V63.6475ZM117.657 63.5425H119.26V63.8025H117.657V63.5425ZM117.657 63.005H119.247V63.2675H117.987V63.7075H117.657V63.005ZM118.442 64.3725C118.692 64.3725 118.889 64.41 119.032 64.485C119.176 64.5583 119.247 64.6633 119.247 64.8C119.247 64.935 119.176 65.0392 119.032 65.1125C118.889 65.1875 118.692 65.225 118.442 65.225C118.192 65.225 117.996 65.1875 117.852 65.1125C117.711 65.0392 117.64 64.935 117.64 64.8C117.64 64.6633 117.711 64.5583 117.852 64.485C117.996 64.41 118.192 64.3725 118.442 64.3725ZM118.442 64.625C118.339 64.625 118.252 64.6317 118.182 64.645C118.114 64.6567 118.062 64.6758 118.027 64.7025C117.992 64.7275 117.975 64.7592 117.975 64.7975C117.975 64.8375 117.992 64.8708 118.027 64.8975C118.062 64.9225 118.114 64.9417 118.182 64.955C118.252 64.9667 118.339 64.9725 118.442 64.9725C118.546 64.9725 118.631 64.9667 118.7 64.955C118.77 64.9417 118.822 64.9225 118.857 64.8975C118.892 64.8708 118.91 64.8375 118.91 64.7975C118.91 64.7592 118.892 64.7275 118.857 64.7025C118.822 64.6758 118.77 64.6567 118.7 64.645C118.631 64.6317 118.546 64.625 118.442 64.625Z" fill="black"/>
</g>
<g id="yeonsu">
<path id="&#236;&#151;&#176;&#236;&#136;&#152;&#234;&#181;&#172;" d="M104.599 77.0999L99.6992 76.1999L108.699 74.8999L103.099 69.9999L102.499 63.9999L102.899 63.7999H104.899L106.299 63.1999L114.699 61.8999L110.299 69.2999H110.199L112.399 70.1999L112.799 71.9999L109.999 75.4999L109.699 75.7999L106.899 77.0999H104.599Z" fill="#AFD88C" stroke="white" stroke-width="0.5"/>
<path id="&#236;&#151;&#176;&#236;&#136;&#152;" d="M106.148 66.2275H106.83V66.495H106.148V66.2275ZM106.148 66.79H106.83V67.0575H106.148V66.79ZM106.705 65.9075H107.04V67.6H106.705V65.9075ZM105.51 67.915H107.093V68.1825H105.51V67.915ZM105.51 67.435H105.843V68.055H105.51V67.435ZM105.74 66.045C105.855 66.045 105.958 66.0708 106.05 66.1225C106.143 66.1725 106.217 66.2425 106.27 66.3325C106.325 66.4225 106.353 66.5258 106.353 66.6425C106.353 66.7575 106.325 66.8608 106.27 66.9525C106.217 67.0425 106.143 67.1133 106.05 67.165C105.958 67.2167 105.855 67.2425 105.74 67.2425C105.627 67.2425 105.523 67.2167 105.43 67.165C105.338 67.1133 105.265 67.0425 105.21 66.9525C105.157 66.8608 105.13 66.7575 105.13 66.6425C105.13 66.5258 105.157 66.4225 105.21 66.3325C105.265 66.2425 105.338 66.1725 105.43 66.1225C105.523 66.0708 105.627 66.045 105.74 66.045ZM105.74 66.335C105.685 66.335 105.635 66.3475 105.59 66.3725C105.545 66.3975 105.509 66.4333 105.483 66.48C105.458 66.525 105.445 66.5792 105.445 66.6425C105.445 66.7075 105.458 66.7633 105.483 66.81C105.509 66.855 105.545 66.89 105.59 66.915C105.635 66.9383 105.685 66.95 105.74 66.95C105.797 66.95 105.847 66.9383 105.89 66.915C105.935 66.89 105.97 66.855 105.995 66.81C106.022 66.7633 106.035 66.7075 106.035 66.6425C106.035 66.5792 106.022 66.525 105.995 66.48C105.97 66.4333 105.935 66.3975 105.89 66.3725C105.847 66.3475 105.797 66.335 105.74 66.335ZM108.275 65.9725H108.565V66.0825C108.565 66.1708 108.551 66.2567 108.522 66.34C108.496 66.4217 108.456 66.4983 108.402 66.57C108.349 66.6417 108.284 66.7058 108.207 66.7625C108.131 66.8192 108.041 66.8675 107.94 66.9075C107.84 66.9458 107.73 66.975 107.61 66.995L107.48 66.7275C107.586 66.7142 107.681 66.6917 107.765 66.66C107.85 66.6283 107.924 66.5908 107.987 66.5475C108.052 66.5042 108.106 66.4567 108.147 66.405C108.189 66.3533 108.221 66.3 108.242 66.245C108.264 66.19 108.275 66.1358 108.275 66.0825V65.9725ZM108.337 65.9725H108.627V66.0825C108.627 66.1358 108.638 66.19 108.66 66.245C108.681 66.3 108.713 66.3533 108.755 66.405C108.796 66.4567 108.849 66.5042 108.912 66.5475C108.977 66.5908 109.051 66.6283 109.135 66.66C109.22 66.6917 109.316 66.7142 109.422 66.7275L109.292 66.995C109.171 66.975 109.06 66.9458 108.96 66.9075C108.86 66.8675 108.771 66.8192 108.695 66.7625C108.618 66.7042 108.553 66.6392 108.5 66.5675C108.446 66.4958 108.406 66.4192 108.377 66.3375C108.351 66.2558 108.337 66.1708 108.337 66.0825V65.9725ZM108.275 67.3725H108.607V68.2225H108.275V67.3725ZM107.402 67.1625H109.497V67.4325H107.402V67.1625Z" fill="black"/>
</g>
<g id="junggu">
<path id="&#236;&#164;&#145;&#234;&#181;&#172;_00000090283923639619113360000014432887308064126373_" d="M78.4 66.0999L81.8 71.5999L81.3 72.1999L80.1 72.7999L76.4 68.9999L77.9 65.8999L78.4 66.0999ZM103 54.3999L102.6 55.3999L103.7 54.9999L107.2 57.2999L105.6 61.4999L104.7 63.2999H103.6H103.1L103 63.1999L103.1 59.3999L101 61.7999L100.6 58.1999L101.7 57.5999V57.4999L101.4 55.9999L103 54.3999ZM89.5 47.3999L96.9 49.6999H97.6L99.8 53.8999L82.1 64.4999L80.4 64.1999L78.8 65.1999L78.5 65.0999L76.4 60.3999L72.5 61.0999L72 56.2999L78.7 53.1999L82.1 52.4999L84.3 52.3999L86.2 52.2999L89 49.5999L89.2 48.1999L89.5 47.3999Z" fill="#AFD88C" stroke="white" stroke-width="0.5"/>
<path id="&#236;&#164;&#145;&#234;&#181;&#172;" d="M84.179 56.884H84.575V57.373H84.179V56.884ZM83.12 56.749H85.634V57.067H83.12V56.749ZM84.371 57.262C84.671 57.262 84.907 57.306 85.079 57.394C85.251 57.48 85.337 57.604 85.337 57.766C85.337 57.924 85.251 58.047 85.079 58.135C84.907 58.223 84.671 58.267 84.371 58.267C84.071 58.267 83.835 58.223 83.663 58.135C83.493 58.047 83.408 57.924 83.408 57.766C83.408 57.604 83.493 57.48 83.663 57.394C83.835 57.306 84.071 57.262 84.371 57.262ZM84.371 57.565C84.247 57.565 84.143 57.572 84.059 57.586C83.977 57.6 83.915 57.622 83.873 57.652C83.831 57.68 83.81 57.718 83.81 57.766C83.81 57.81 83.831 57.847 83.873 57.877C83.915 57.907 83.977 57.929 84.059 57.943C84.143 57.957 84.247 57.964 84.371 57.964C84.495 57.964 84.598 57.957 84.68 57.943C84.764 57.929 84.827 57.907 84.869 57.877C84.911 57.847 84.932 57.81 84.932 57.766C84.932 57.718 84.911 57.68 84.869 57.652C84.827 57.622 84.764 57.6 84.68 57.586C84.598 57.572 84.495 57.565 84.371 57.565ZM84.104 55.75H84.458V55.816C84.458 55.9 84.443 55.98 84.413 56.056C84.383 56.132 84.338 56.203 84.278 56.269C84.22 56.333 84.147 56.391 84.059 56.443C83.971 56.495 83.869 56.538 83.753 56.572C83.637 56.606 83.508 56.63 83.366 56.644L83.228 56.329C83.35 56.319 83.458 56.302 83.552 56.278C83.648 56.254 83.73 56.225 83.798 56.191C83.868 56.155 83.925 56.117 83.969 56.077C84.015 56.035 84.049 55.992 84.071 55.948C84.093 55.904 84.104 55.86 84.104 55.816V55.75ZM84.299 55.75H84.65V55.816C84.65 55.86 84.661 55.905 84.683 55.951C84.705 55.995 84.738 56.037 84.782 56.077C84.828 56.117 84.885 56.155 84.953 56.191C85.023 56.225 85.105 56.254 85.199 56.278C85.295 56.302 85.404 56.319 85.526 56.329L85.388 56.644C85.246 56.63 85.117 56.606 85.001 56.572C84.885 56.538 84.783 56.496 84.695 56.446C84.609 56.394 84.536 56.336 84.476 56.272C84.418 56.206 84.374 56.135 84.344 56.059C84.314 55.981 84.299 55.9 84.299 55.816V55.75ZM83.351 55.603H85.409V55.918H83.351V55.603ZM86.1708 55.648H87.9108V55.963H86.1708V55.648ZM85.8828 56.83H88.3968V57.154H85.8828V56.83ZM86.9238 57.058H87.3258V58.267H86.9238V57.058ZM87.7068 55.648H88.0998V55.894C88.0998 55.994 88.0978 56.1 88.0938 56.212C88.0918 56.324 88.0838 56.447 88.0698 56.581C88.0558 56.713 88.0298 56.861 87.9918 57.025L87.6018 56.977C87.6538 56.747 87.6838 56.546 87.6918 56.374C87.7018 56.2 87.7068 56.04 87.7068 55.894V55.648Z" fill="black"/>
</g>
<g id="ongjin">
<g id="&#236;&#152;&#185;&#236;&#167;&#132;&#234;&#181;&#176;">
<path d="M10.9 57.7001H10.7L5.1 61.6001L8 65.0001L11.8 63.1001L10.9 57.7001ZM82.7 49.4001L85.2 50.3001H85.8L85.7 49.2001L86.2 47.7001V46.6001L85.2 45.8001L84.8 45.4001L81.1 49.5001L81.9 50.0001L82.7 49.4001ZM39.8 87.0001L37.3 94.9001L43.8 96.6001L45 96.3001L44.6 95.3001L47.2 93.6001L39.8 87.0001ZM9.2 43.2001L3.1 44.9001L0.5 43.1001L2.8 51.9001L10.1 53.2001L16.4 47.1001L13.6 43.1001L9.2 43.2001ZM81 87.5001L80.6 93.9001L81.6 94.2001L83.2 92.4001L84.1 95.4001L88.9 88.8001L89 87.2001L81 87.5001ZM35.9 63.0001L32.7 62.8001L32.5 64.6001L35.5 66.1001V64.6001L35.9 63.0001Z" fill="#AFD88C"/>
<path d="M11.3 64.0001H11.1M10.9 57.7001H10.7L5.1 61.6001L8 65.0001L11.8 63.1001L10.9 57.7001ZM82.7 49.4001L85.2 50.3001H85.8L85.7 49.2001L86.2 47.7001V46.6001L85.2 45.8001L84.8 45.4001L81.1 49.5001L81.9 50.0001L82.7 49.4001ZM39.8 87.0001L37.3 94.9001L43.8 96.6001L45 96.3001L44.6 95.3001L47.2 93.6001L39.8 87.0001ZM9.2 43.2001L3.1 44.9001L0.5 43.1001L2.8 51.9001L10.1 53.2001L16.4 47.1001L13.6 43.1001L9.2 43.2001ZM81 87.5001L80.6 93.9001L81.6 94.2001L83.2 92.4001L84.1 95.4001L88.9 88.8001L89 87.2001L81 87.5001ZM35.9 63.0001L32.7 62.8001L32.5 64.6001L35.5 66.1001V64.6001L35.9 63.0001Z" stroke="white" stroke-width="0.5"/>
</g>
<path id="&#236;&#152;&#185;&#236;&#167;&#132;" d="M6.1 47.9975H8.195V48.26H6.1V47.9975ZM7.1425 48.3725C7.3925 48.3725 7.58917 48.41 7.7325 48.485C7.87583 48.5583 7.9475 48.6625 7.9475 48.7975C7.9475 48.9325 7.87583 49.0367 7.7325 49.11C7.58917 49.185 7.3925 49.2225 7.1425 49.2225C6.8925 49.2225 6.69583 49.185 6.5525 49.11C6.41083 49.0367 6.34 48.9325 6.34 48.7975C6.34 48.6625 6.41083 48.5583 6.5525 48.485C6.69583 48.41 6.8925 48.3725 7.1425 48.3725ZM7.1425 48.625C7.03917 48.625 6.9525 48.6317 6.8825 48.645C6.81417 48.6567 6.7625 48.675 6.7275 48.7C6.6925 48.725 6.675 48.7575 6.675 48.7975C6.675 48.8375 6.6925 48.8708 6.7275 48.8975C6.7625 48.9225 6.81417 48.9408 6.8825 48.9525C6.9525 48.9642 7.03917 48.97 7.1425 48.97C7.24583 48.97 7.33167 48.9642 7.4 48.9525C7.47 48.9408 7.5225 48.9225 7.5575 48.8975C7.5925 48.8708 7.61 48.8375 7.61 48.7975C7.61 48.7575 7.5925 48.725 7.5575 48.7C7.5225 48.675 7.47 48.6567 7.4 48.645C7.33167 48.6317 7.24583 48.625 7.1425 48.625ZM6.9775 47.7575H7.31V48.0975H6.9775V47.7575ZM7.1475 46.945C7.31917 46.945 7.4675 46.9633 7.5925 47C7.7175 47.035 7.81417 47.0867 7.8825 47.155C7.9525 47.2217 7.9875 47.3017 7.9875 47.395C7.9875 47.4883 7.9525 47.5692 7.8825 47.6375C7.81417 47.7042 7.7175 47.7558 7.5925 47.7925C7.4675 47.8292 7.31917 47.8475 7.1475 47.8475C6.97917 47.8475 6.83167 47.8292 6.705 47.7925C6.57833 47.7558 6.48083 47.7042 6.4125 47.6375C6.34417 47.5692 6.31 47.4883 6.31 47.395C6.31 47.3017 6.34417 47.2217 6.4125 47.155C6.48083 47.0867 6.57833 47.035 6.705 47C6.83167 46.9633 6.97917 46.945 7.1475 46.945ZM7.1475 47.2C7.04417 47.2 6.955 47.2075 6.88 47.2225C6.805 47.2358 6.74833 47.2567 6.71 47.285C6.67333 47.3133 6.655 47.35 6.655 47.395C6.655 47.4383 6.67333 47.475 6.71 47.505C6.74833 47.5333 6.805 47.555 6.88 47.57C6.955 47.5833 7.04417 47.59 7.1475 47.59C7.25417 47.59 7.34417 47.5833 7.4175 47.57C7.49083 47.555 7.54667 47.5333 7.585 47.505C7.62333 47.475 7.6425 47.4383 7.6425 47.395C7.6425 47.35 7.62333 47.3133 7.585 47.285C7.54667 47.2567 7.49083 47.2358 7.4175 47.2225C7.34417 47.2075 7.25417 47.2 7.1475 47.2ZM8.9623 47.165H9.2373V47.36C9.2373 47.505 9.21314 47.6433 9.1648 47.775C9.11814 47.905 9.04647 48.0192 8.9498 48.1175C8.85314 48.2142 8.7298 48.2867 8.5798 48.335L8.4098 48.075C8.5398 48.0333 8.6448 47.975 8.7248 47.9C8.80647 47.825 8.86647 47.7408 8.9048 47.6475C8.94314 47.5525 8.9623 47.4567 8.9623 47.36V47.165ZM9.0323 47.165H9.3023V47.36C9.3023 47.4283 9.31314 47.4967 9.3348 47.565C9.35647 47.6317 9.38897 47.6958 9.4323 47.7575C9.4773 47.8175 9.53397 47.8717 9.6023 47.92C9.67064 47.9683 9.75147 48.0075 9.8448 48.0375L9.6773 48.295C9.5323 48.2483 9.4123 48.1783 9.3173 48.085C9.2223 47.9917 9.15064 47.8825 9.1023 47.7575C9.05564 47.6308 9.0323 47.4983 9.0323 47.36V47.165ZM8.4998 47.07H9.7598V47.335H8.4998V47.07ZM9.9923 46.9075H10.3248V48.5775H9.9923V46.9075ZM8.7823 48.915H10.3848V49.1825H8.7823V48.915ZM8.7823 48.4275H9.1148V49.0475H8.7823V48.4275Z" fill="black"/>
</g>
<g id="donggu">
<path id="&#235;&#143;&#153;&#234;&#181;&#172;" d="M106.601 53L111.301 56.2L107.301 57.3L103.501 54.9L103.301 54.3L104.101 53.9H104.201L105.301 53.5L106.601 53Z" fill="#AFD88C" stroke="white" stroke-width="0.5"/>
<path id="&#235;&#143;&#153;&#234;&#181;&#172;_2" d="M105.762 55.1968H107.018V55.3543H105.762V55.1968ZM106.29 54.9883H106.49V55.2583H106.29V54.9883ZM105.914 54.9253H106.875V55.0813H105.914V54.9253ZM105.914 54.6028H106.868V54.7603H106.112V55.0243H105.914V54.6028ZM106.385 55.4233C106.535 55.4233 106.653 55.4458 106.739 55.4908C106.825 55.5348 106.868 55.5978 106.868 55.6798C106.868 55.7608 106.825 55.8233 106.739 55.8673C106.653 55.9123 106.535 55.9348 106.385 55.9348C106.235 55.9348 106.117 55.9123 106.031 55.8673C105.946 55.8233 105.903 55.7608 105.903 55.6798C105.903 55.5978 105.946 55.5348 106.031 55.4908C106.117 55.4458 106.235 55.4233 106.385 55.4233ZM106.385 55.5748C106.323 55.5748 106.271 55.5788 106.229 55.5868C106.188 55.5938 106.157 55.6053 106.136 55.6213C106.115 55.6363 106.104 55.6553 106.104 55.6783C106.104 55.7023 106.115 55.7223 106.136 55.7383C106.157 55.7533 106.188 55.7648 106.229 55.7728C106.271 55.7798 106.323 55.7833 106.385 55.7833C106.447 55.7833 106.498 55.7798 106.539 55.7728C106.581 55.7648 106.613 55.7533 106.634 55.7383C106.655 55.7223 106.665 55.7023 106.665 55.6783C106.665 55.6553 106.655 55.6363 106.634 55.6213C106.613 55.6053 106.581 55.5938 106.539 55.5868C106.498 55.5788 106.447 55.5748 106.385 55.5748ZM107.285 54.6238H108.155V54.7813H107.285V54.6238ZM107.141 55.2148H108.398V55.3768H107.141V55.2148ZM107.661 55.3288H107.862V55.9333H107.661V55.3288ZM108.053 54.6238H108.249V54.7468C108.249 54.7968 108.248 54.8498 108.246 54.9058C108.245 54.9618 108.241 55.0233 108.234 55.0903C108.227 55.1563 108.214 55.2303 108.195 55.3123L108 55.2883C108.026 55.1733 108.041 55.0728 108.045 54.9868C108.05 54.8998 108.053 54.8198 108.053 54.7468V54.6238Z" fill="black"/>
</g>
<g id="michuhol">
<path id="&#235;&#175;&#184;&#236;&#182;&#148;&#237;&#153;&#128;&#234;&#181;&#172;" d="M107.299 57.3002L111.299 56.2002L112.699 56.9002L114.699 61.9002L106.299 63.2002L105.799 62.2002L105.699 61.5002L107.299 57.3002Z" fill="#AFD88C" stroke="white" stroke-width="0.5"/>
<path id="&#235;&#175;&#184;&#236;&#182;&#148;&#237;&#153;&#128;" d="M107.572 58.99H108.462V60.236H107.572V58.99ZM108.202 59.2H107.834V60.026H108.202V59.2ZM108.752 58.822H109.018V60.68H108.752V58.822ZM110.024 60.01H110.29V60.68H110.024V60.01ZM109.322 59.934H110.998V60.15H109.322V59.934ZM110.022 59.158H110.256V59.202C110.256 59.2633 110.246 59.3233 110.224 59.382C110.204 59.4393 110.174 59.4933 110.132 59.544C110.091 59.5933 110.04 59.6387 109.978 59.68C109.917 59.72 109.846 59.754 109.766 59.782C109.686 59.8087 109.598 59.828 109.5 59.84L109.406 59.63C109.49 59.6207 109.565 59.6053 109.63 59.584C109.697 59.5627 109.755 59.5373 109.804 59.508C109.854 59.4787 109.894 59.4473 109.926 59.414C109.96 59.3793 109.984 59.344 109.998 59.308C110.014 59.2707 110.022 59.2353 110.022 59.202V59.158ZM110.058 59.158H110.29V59.202C110.29 59.234 110.298 59.2687 110.314 59.306C110.332 59.342 110.356 59.3773 110.388 59.412C110.42 59.4453 110.461 59.4773 110.51 59.508C110.56 59.5373 110.617 59.5627 110.682 59.584C110.749 59.6053 110.824 59.6207 110.906 59.63L110.814 59.84C110.716 59.8293 110.626 59.81 110.546 59.782C110.468 59.7527 110.398 59.718 110.336 59.678C110.275 59.638 110.224 59.5927 110.182 59.542C110.141 59.49 110.11 59.4353 110.088 59.378C110.068 59.3207 110.058 59.262 110.058 59.202V59.158ZM109.472 59.036H110.844V59.246H109.472V59.036ZM110.024 58.83H110.29V59.108H110.024V58.83ZM111.24 58.936H112.75V59.12H111.24V58.936ZM111.998 59.162C112.203 59.162 112.358 59.1813 112.462 59.22C112.566 59.2573 112.618 59.316 112.618 59.396C112.618 59.4747 112.566 59.5333 112.462 59.572C112.358 59.6093 112.203 59.628 111.998 59.628C111.794 59.628 111.639 59.6093 111.534 59.572C111.43 59.5333 111.378 59.4747 111.378 59.396C111.378 59.316 111.43 59.2573 111.534 59.22C111.639 59.1813 111.794 59.162 111.998 59.162ZM111.998 59.33C111.875 59.33 111.788 59.3353 111.736 59.346C111.685 59.3553 111.66 59.372 111.66 59.396C111.66 59.4187 111.685 59.4353 111.736 59.446C111.788 59.4553 111.875 59.46 111.998 59.46C112.121 59.46 112.207 59.4553 112.258 59.446C112.31 59.4353 112.336 59.4187 112.336 59.396C112.336 59.372 112.31 59.3553 112.258 59.346C112.207 59.3353 112.121 59.33 111.998 59.33ZM111.866 58.806H112.13V59.09H111.866V58.806ZM111.16 59.706H112.836V59.898H111.16V59.706ZM111.866 59.552H112.13V59.804H111.866V59.552ZM111.352 59.97H112.632V60.398H111.624V60.512H111.354V60.228H112.362V60.152H111.352V59.97ZM111.354 60.482H112.682V60.666H111.354V60.482Z" fill="black"/>
</g>
</g>
</svg>
