<svg width="107" height="58" viewBox="0 0 107 58" fill="none" xmlns="http://www.w3.org/2000/svg">
<g id="jeju">
<g id="Seogwipo">
<path id="&#236;&#132;&#156;&#234;&#183;&#128;&#237;&#143;&#172;&#236;&#139;&#156;" d="M75.7992 22.3L97.1992 12.8L97.5992 13.4001H97.7992L100.599 13.9001L99.9992 17.1L101.699 13.5001L102.899 16.8L88.5992 39.4001L80.4992 40.2001L76.1992 44.6L64.9992 45.3L57.1992 51.2001L46.8992 50.3L40.3992 52.6L38.5992 50.1L27.0992 51.6L21.3992 50.0001L13.8992 57.0001L0.699219 43.3L3.79919 41.3L10.6992 45.0001V42.6L17.2992 38.2001L23.3992 34.1L31.7992 34.2001L36.0992 33.6L36.4992 32.2001L42.2992 31.9001L47.4992 31.5001L54.8992 29.7001H54.9992L56.5992 29.3L68.5992 24.0001L72.1992 22.2001H75.5992L75.7992 22.3Z" fill="#AFD88C" stroke="white" stroke-width="0.5"/>
<path id="&#236;&#132;&#156;&#234;&#183;&#128;&#237;&#143;&#172;" d="M44.572 37.068H46.768V38.031H44.572V37.068ZM42.304 35.097H43.267V36.312C43.267 36.834 43.222 37.341 43.132 37.833C43.042 38.325 42.904 38.784 42.718 39.21C42.532 39.636 42.295 40.011 42.007 40.335C41.725 40.659 41.389 40.92 40.999 41.118L40.252 40.164C40.606 39.996 40.909 39.777 41.161 39.507C41.419 39.237 41.632 38.931 41.8 38.589C41.974 38.241 42.1 37.875 42.178 37.491C42.262 37.101 42.304 36.708 42.304 36.312V35.097ZM42.547 35.097H43.501V36.312C43.501 36.702 43.54 37.089 43.618 37.473C43.696 37.851 43.813 38.205 43.969 38.535C44.131 38.865 44.338 39.159 44.59 39.417C44.842 39.669 45.142 39.873 45.49 40.029L44.77 40.983C44.38 40.791 44.044 40.539 43.762 40.227C43.48 39.909 43.249 39.546 43.069 39.138C42.895 38.73 42.763 38.286 42.673 37.806C42.589 37.326 42.547 36.828 42.547 36.312V35.097ZM46.165 34.449H47.362V42.81H46.165V34.449ZM50.6733 38.958H51.8793V42.36H50.6733V38.958ZM54.5343 34.458H55.7403V42.792H54.5343V34.458ZM48.7473 39.255L48.6033 38.283C49.1553 38.283 49.7373 38.28 50.3493 38.274C50.9613 38.262 51.5853 38.241 52.2213 38.211C52.8573 38.175 53.4753 38.124 54.0753 38.058L54.1563 38.931C53.5443 39.021 52.9233 39.09 52.2933 39.138C51.6693 39.18 51.0573 39.21 50.4573 39.228C49.8633 39.24 49.2933 39.249 48.7473 39.255ZM49.2693 35.034H52.5453V35.988H49.2693V35.034ZM52.1133 35.034H53.3013V35.511C53.3013 35.835 53.2893 36.24 53.2653 36.726C53.2413 37.212 53.1633 37.794 53.0313 38.472L51.8523 38.382C51.9783 37.722 52.0533 37.155 52.0773 36.681C52.1013 36.207 52.1133 35.817 52.1133 35.511V35.034ZM56.9276 40.893H64.4786V41.865H56.9276V40.893ZM60.0866 39.003H61.2746V41.325H60.0866V39.003ZM57.5036 35.142H63.8576V36.105H57.5036V35.142ZM57.5486 38.463H63.8306V39.408H57.5486V38.463ZM58.6376 35.934H59.8346V38.571H58.6376V35.934ZM61.5266 35.934H62.7236V38.571H61.5266V35.934Z" fill="black"/>
</g>
<g id="Jeju">
<path id="&#236;&#160;&#156;&#236;&#163;&#188;&#236;&#139;&#156;" d="M104 6.30005L105.7 11.6L102.7 10.9001L103.4 6.60004L104 6.30005ZM0.799988 43.2001L0.5 33.9001L20.1 14.2001L62.3 4.20007L63.5 1.10004L87.3 0.800049L91.4 6.10004L97.3 6.80005L98.6 9.70007L97 12.8L75.6 22.3L75.5 22.2001H72.1L68.5 24.0001L56.5 29.3L54.9 29.7001H54.8L47.4 31.5001H47.3L42.2 31.9001L36.4 32.2001L36 33.6L31.7 34.2001L23.3 34.1L17.2 38.2001L10.6 42.6V45.0001L3.70001 41.3L0.799988 43.2001Z" fill="#AFD88C" stroke="white" stroke-width="0.5"/>
<path id="&#236;&#160;&#156;&#236;&#163;&#188;" d="M43.381 14.458H44.524V22.792H43.381V14.458ZM40.636 17.311H42.022V18.283H40.636V17.311ZM41.698 14.593H42.814V22.414H41.698V14.593ZM38.845 15.817H39.745V16.672C39.745 17.14 39.709 17.602 39.637 18.058C39.571 18.514 39.466 18.946 39.322 19.354C39.178 19.756 38.989 20.119 38.755 20.443C38.521 20.767 38.239 21.034 37.909 21.244L37.198 20.362C37.606 20.104 37.93 19.78 38.17 19.39C38.41 18.994 38.581 18.562 38.683 18.094C38.791 17.62 38.845 17.146 38.845 16.672V15.817ZM39.115 15.817H40.006V16.672C40.006 17.134 40.057 17.59 40.159 18.04C40.261 18.49 40.429 18.901 40.663 19.273C40.897 19.639 41.215 19.939 41.617 20.173L40.924 21.037C40.48 20.773 40.126 20.416 39.862 19.966C39.598 19.516 39.406 19.009 39.286 18.445C39.172 17.875 39.115 17.284 39.115 16.672V15.817ZM37.504 15.295H41.221V16.258H37.504V15.295ZM48.7263 15.385H49.7703V15.637C49.7703 15.925 49.7223 16.204 49.6263 16.474C49.5363 16.744 49.3983 16.996 49.2123 17.23C49.0263 17.458 48.7983 17.665 48.5283 17.851C48.2643 18.031 47.9583 18.184 47.6103 18.31C47.2623 18.436 46.8753 18.526 46.4493 18.58L46.0083 17.653C46.3803 17.605 46.7103 17.533 46.9983 17.437C47.2923 17.335 47.5473 17.218 47.7633 17.086C47.9793 16.948 48.1593 16.801 48.3033 16.645C48.4473 16.489 48.5523 16.324 48.6183 16.15C48.6903 15.976 48.7263 15.805 48.7263 15.637V15.385ZM49.0773 15.385H50.1123V15.637C50.1123 15.805 50.1453 15.976 50.2113 16.15C50.2833 16.324 50.3913 16.489 50.5353 16.645C50.6793 16.801 50.8593 16.948 51.0753 17.086C51.2973 17.218 51.5523 17.335 51.8403 17.437C52.1283 17.533 52.4583 17.605 52.8303 17.653L52.3893 18.58C51.9633 18.526 51.5763 18.436 51.2283 18.31C50.8803 18.184 50.5713 18.031 50.3013 17.851C50.0373 17.665 49.8123 17.458 49.6263 17.23C49.4463 16.996 49.3083 16.744 49.2123 16.474C49.1223 16.204 49.0773 15.925 49.0773 15.637V15.385ZM48.7893 19.75H49.9863V22.801H48.7893V19.75ZM45.6483 19.057H53.1903V20.02H45.6483V19.057ZM46.3143 14.89H52.4973V15.835H46.3143V14.89Z" fill="black"/>
</g>
</g>
</svg>
