<svg width="249" height="216" viewBox="0 0 249 216" fill="none" xmlns="http://www.w3.org/2000/svg">
<g id="jeonnam">
<g id="Mokpo">
<path id="&#235;&#170;&#169;&#237;&#143;&#172;&#236;&#139;&#156;" d="M66.5012 100.4L73.5012 105V105.2L73.9012 108.3L72.2012 108.6L70.1012 108.2L62.8012 110.2L62.4012 110.1L60.7012 106.7L66.5012 100.4Z" fill="#AFD88C" stroke="white" stroke-width="0.5"/>
<path id="&#235;&#170;&#169;&#237;&#143;&#172;" d="M64.5434 103.956H66.9336V105.199H64.5434V103.956ZM66.4358 104.351H65.0412V104.804H66.4358V104.351ZM64.152 105.533H67.3364V105.932H64.152V105.533ZM65.4896 105.111H65.9912V105.643H65.4896V105.111ZM64.5054 106.187H66.9526V107.338H66.4472V106.582H64.5054V106.187ZM67.6515 106.533H70.8397V106.943H67.6515V106.533ZM68.9853 105.735H69.4869V106.715H68.9853V105.735ZM67.8947 104.104H70.5775V104.511H67.8947V104.104ZM67.9137 105.507H70.5661V105.906H67.9137V105.507ZM68.3735 104.439H68.8789V105.552H68.3735V104.439ZM69.5933 104.439H70.0987V105.552H69.5933V104.439Z" fill="black"/>
</g>
<g id="Gwangyang">
<path id="&#234;&#180;&#145;&#236;&#150;&#145;&#236;&#139;&#156;" d="M234 87.4998L233.4 89.4998L230.3 87.5998L227.6 93.8998L228.5 91.1998L224.1 91.5998L221.1 83.3998L218.4 89.5998L214.4 83.0998L217 76.5998L211.9 67.4998L212.8 60.3998L216 61.8998L221.8 58.2998L224.4 48.2998L242.9 68.8998L245.3 75.1998L241.2 82.5998L241.1 82.6998L237.7 80.4998L238.2 83.7998L234 87.4998Z" fill="#AFD88C" stroke="white" stroke-width="0.5"/>
<path id="&#234;&#180;&#145;&#236;&#150;&#145;" d="M220.656 67.704H223.824V68.544H220.656V67.704ZM221.568 69.36H222.616V71.184H221.568V69.36ZM223.4 67.704H224.456V68.184C224.456 68.4293 224.448 68.7147 224.432 69.04C224.416 69.3653 224.365 69.7307 224.28 70.136L223.248 70.048C223.328 69.6533 223.373 69.3067 223.384 69.008C223.395 68.704 223.4 68.4293 223.4 68.184V67.704ZM225.168 67.296H226.24V71.816H225.168V67.296ZM225.824 69.12H227.128V69.992H225.824V69.12ZM220.32 71.512L220.216 70.664C220.664 70.664 221.144 70.6613 221.656 70.656C222.173 70.6507 222.699 70.6347 223.232 70.608C223.765 70.576 224.277 70.5307 224.768 70.472L224.84 71.224C224.333 71.3093 223.816 71.3733 223.288 71.416C222.76 71.4533 222.243 71.48 221.736 71.496C221.235 71.5067 220.763 71.512 220.32 71.512ZM223.744 71.896C224.272 71.896 224.725 71.952 225.104 72.064C225.488 72.176 225.784 72.336 225.992 72.544C226.2 72.752 226.304 73.0027 226.304 73.296C226.304 73.5893 226.2 73.84 225.992 74.048C225.784 74.2613 225.488 74.424 225.104 74.536C224.725 74.648 224.272 74.704 223.744 74.704C223.221 74.704 222.765 74.648 222.376 74.536C221.992 74.424 221.696 74.2613 221.488 74.048C221.28 73.84 221.176 73.5893 221.176 73.296C221.176 73.0027 221.28 72.752 221.488 72.544C221.696 72.336 221.992 72.176 222.376 72.064C222.765 71.952 223.221 71.896 223.744 71.896ZM223.744 72.712C223.264 72.712 222.896 72.76 222.64 72.856C222.389 72.952 222.264 73.0987 222.264 73.296C222.264 73.488 222.389 73.632 222.64 73.728C222.896 73.824 223.264 73.872 223.744 73.872C224.219 73.872 224.581 73.824 224.832 73.728C225.088 73.632 225.216 73.488 225.216 73.296C225.216 73.0987 225.088 72.952 224.832 72.856C224.581 72.76 224.219 72.712 223.744 72.712ZM233.191 68.208H234.463V69.072H233.191V68.208ZM233.191 69.816H234.463V70.688H233.191V69.816ZM229.743 67.704C230.127 67.704 230.471 67.7813 230.775 67.936C231.079 68.0907 231.319 68.304 231.495 68.576C231.671 68.8427 231.759 69.152 231.759 69.504C231.759 69.8507 231.671 70.16 231.495 70.432C231.319 70.6987 231.079 70.9093 230.775 71.064C230.471 71.2187 230.127 71.296 229.743 71.296C229.365 71.296 229.023 71.2187 228.719 71.064C228.415 70.9093 228.175 70.6987 227.999 70.432C227.823 70.16 227.735 69.8507 227.735 69.504C227.735 69.152 227.823 68.8427 227.999 68.576C228.175 68.304 228.415 68.0907 228.719 67.936C229.023 67.7813 229.365 67.704 229.743 67.704ZM229.743 68.592C229.562 68.592 229.397 68.6293 229.247 68.704C229.098 68.7733 228.981 68.8773 228.895 69.016C228.815 69.1493 228.775 69.312 228.775 69.504C228.775 69.6907 228.815 69.8533 228.895 69.992C228.981 70.1253 229.098 70.2267 229.247 70.296C229.397 70.3653 229.562 70.4 229.743 70.4C229.935 70.4 230.103 70.3653 230.247 70.296C230.391 70.2267 230.506 70.1253 230.591 69.992C230.677 69.8533 230.719 69.6907 230.719 69.504C230.719 69.312 230.677 69.1493 230.591 69.016C230.506 68.8773 230.391 68.7733 230.247 68.704C230.103 68.6293 229.935 68.592 229.743 68.592ZM232.447 67.304H233.511V71.624H232.447V67.304ZM231.095 71.776C231.607 71.776 232.05 71.8347 232.423 71.952C232.802 72.0693 233.093 72.2373 233.295 72.456C233.498 72.6747 233.599 72.9387 233.599 73.248C233.599 73.552 233.498 73.8133 233.295 74.032C233.093 74.2507 232.802 74.4187 232.423 74.536C232.05 74.6533 231.607 74.712 231.095 74.712C230.583 74.712 230.138 74.6533 229.759 74.536C229.386 74.4187 229.095 74.2507 228.887 74.032C228.685 73.8133 228.583 73.552 228.583 73.248C228.583 72.9387 228.685 72.6747 228.887 72.456C229.095 72.2373 229.386 72.0693 229.759 71.952C230.138 71.8347 230.583 71.776 231.095 71.776ZM231.095 72.616C230.781 72.616 230.517 72.64 230.303 72.688C230.09 72.7307 229.927 72.7973 229.815 72.888C229.703 72.9787 229.647 73.0987 229.647 73.248C229.647 73.3867 229.703 73.504 229.815 73.6C229.927 73.696 230.09 73.768 230.303 73.816C230.517 73.8587 230.781 73.88 231.095 73.88C231.41 73.88 231.674 73.8587 231.887 73.816C232.106 73.768 232.269 73.696 232.375 73.6C232.487 73.504 232.543 73.3867 232.543 73.248C232.543 73.0987 232.487 72.9787 232.375 72.888C232.269 72.7973 232.106 72.7307 231.887 72.688C231.674 72.64 231.41 72.616 231.095 72.616Z" fill="black"/>
</g>
<g id="Boseong">
<path id="&#235;&#179;&#180;&#236;&#132;&#177;&#234;&#181;&#176;" d="M166.4 80.1999L168.2 81.6999L169.4 78.5999L172.3 83.5999L173.1 92.9999L183.3 91.7999L187.3 97.2999H191.1L192.8 101.2L197.4 102.7L188.2 101.6L198.9 105.7L198.7 106L194.9 109.5L187.6 103.5L175.7 109.4L172.5 115.3L169.3 121.7L169.2 122.5L164.5 124.6L160.2 122.2L157.8 126.6L156 128.3L154.8 128.9L150.4 132.4L149.5 133.5L146.3 126.4L140.9 126L140 122.2L145.6 117.6L146.5 104.3L148.6 101.8L155.4 96.3999L155.5 86.4999L166.4 80.1999Z" fill="#AFD88C" stroke="white" stroke-width="0.5"/>
<path id="&#235;&#179;&#180;&#236;&#132;&#177;" d="M156.328 108.984H163.04V109.848H156.328V108.984ZM159.144 107.4H160.2V109.192H159.144V107.4ZM157.032 103.768H158.096V104.912H161.248V103.768H162.304V107.624H157.032V103.768ZM158.096 105.744V106.776H161.248V105.744H158.096ZM165.407 103.688H166.287V104.344C166.287 104.84 166.21 105.307 166.055 105.744C165.906 106.181 165.677 106.563 165.367 106.888C165.058 107.213 164.661 107.459 164.175 107.624L163.615 106.768C164.042 106.635 164.386 106.443 164.647 106.192C164.909 105.941 165.101 105.656 165.223 105.336C165.346 105.016 165.407 104.685 165.407 104.344V103.688ZM165.623 103.688H166.487V104.296C166.487 104.621 166.543 104.936 166.655 105.24C166.767 105.539 166.946 105.805 167.191 106.04C167.437 106.269 167.754 106.448 168.143 106.576L167.591 107.408C167.138 107.248 166.765 107.016 166.471 106.712C166.183 106.408 165.97 106.051 165.831 105.64C165.693 105.224 165.623 104.776 165.623 104.296V103.688ZM168.815 103.304H169.887V107.64H168.815V103.304ZM167.375 107.832C168.159 107.832 168.778 107.96 169.231 108.216C169.685 108.467 169.911 108.816 169.911 109.264C169.911 109.723 169.685 110.077 169.231 110.328C168.778 110.584 168.159 110.712 167.375 110.712C166.591 110.712 165.973 110.584 165.519 110.328C165.066 110.077 164.839 109.723 164.839 109.264C164.839 108.816 165.066 108.467 165.519 108.216C165.973 107.96 166.591 107.832 167.375 107.832ZM167.375 108.656C167.055 108.656 166.786 108.677 166.567 108.72C166.349 108.763 166.181 108.832 166.063 108.928C165.951 109.019 165.895 109.131 165.895 109.264C165.895 109.403 165.951 109.52 166.063 109.616C166.181 109.707 166.349 109.776 166.567 109.824C166.786 109.867 167.055 109.888 167.375 109.888C167.695 109.888 167.965 109.867 168.183 109.824C168.402 109.776 168.567 109.707 168.679 109.616C168.791 109.52 168.847 109.403 168.847 109.264C168.847 109.131 168.791 109.019 168.679 108.928C168.567 108.832 168.402 108.763 168.183 108.72C167.965 108.677 167.695 108.656 167.375 108.656ZM167.463 104.648H168.975V105.512H167.463V104.648Z" fill="black"/>
</g>
<g id="Hwasun">
<path id="&#237;&#153;&#148;&#236;&#136;&#156;&#234;&#181;&#176;" d="M159.2 46.1998L167.9 43.2998L169.4 56.1998L166.4 80.1998L155.5 86.6998L155.3 96.4998L148.6 102L142.8 102.4L139.8 99.9998L136.1 104.2L131.7 100.6L130.8 96.4998L125.5 97.0998L121.1 96.6998L122 95.8998V95.7998L127.9 92.3998L126.6 85.9998L130.3 77.6998L126.9 74.9998L130.1 64.3998L133.6 62.2998L137.7 65.1998L144.5 57.6998L145.1 55.6998L154.3 57.9998L152.2 48.3998L159.2 46.1998Z" fill="#AFD88C" stroke="white" stroke-width="0.5"/>
<path id="&#237;&#153;&#148;&#236;&#136;&#156;" d="M143.04 76.688H144.104V77.88H143.04V76.688ZM146.152 72.304H147.216V79.712H146.152V72.304ZM146.848 75.312H148.152V76.184H146.848V75.312ZM141.376 78.48L141.248 77.616C141.675 77.616 142.141 77.6133 142.648 77.608C143.16 77.6027 143.683 77.584 144.216 77.552C144.755 77.52 145.275 77.472 145.776 77.408L145.856 78.176C145.339 78.272 144.813 78.344 144.28 78.392C143.747 78.4347 143.232 78.4613 142.736 78.472C142.245 78.4773 141.792 78.48 141.376 78.48ZM141.384 73.112H145.744V73.944H141.384V73.112ZM143.568 74.24C143.925 74.24 144.24 74.2987 144.512 74.416C144.784 74.5333 144.997 74.696 145.152 74.904C145.307 75.112 145.384 75.3547 145.384 75.632C145.384 75.904 145.307 76.1467 145.152 76.36C144.997 76.568 144.784 76.7307 144.512 76.848C144.24 76.9653 143.925 77.024 143.568 77.024C143.216 77.024 142.904 76.9653 142.632 76.848C142.36 76.7307 142.147 76.568 141.992 76.36C141.837 76.1467 141.76 75.904 141.76 75.632C141.76 75.3547 141.837 75.112 141.992 74.904C142.147 74.696 142.36 74.5333 142.632 74.416C142.904 74.2987 143.216 74.24 143.568 74.24ZM143.568 75.04C143.328 75.04 143.133 75.0933 142.984 75.2C142.84 75.3013 142.768 75.4453 142.768 75.632C142.768 75.824 142.84 75.9707 142.984 76.072C143.133 76.1733 143.328 76.224 143.568 76.224C143.813 76.224 144.008 76.1733 144.152 76.072C144.301 75.9707 144.376 75.824 144.376 75.632C144.376 75.4453 144.301 75.3013 144.152 75.2C144.008 75.0933 143.813 75.04 143.568 75.04ZM143.04 72.336H144.104V73.736H143.04V72.336ZM151.487 72.488H152.399V72.728C152.399 73 152.357 73.264 152.271 73.52C152.186 73.7707 152.061 74.008 151.895 74.232C151.73 74.4507 151.525 74.648 151.279 74.824C151.039 75 150.762 75.1493 150.447 75.272C150.138 75.3947 149.794 75.4827 149.415 75.536L149.015 74.704C149.346 74.6613 149.642 74.592 149.903 74.496C150.17 74.3947 150.402 74.28 150.599 74.152C150.797 74.0187 150.959 73.8747 151.087 73.72C151.221 73.56 151.319 73.3973 151.383 73.232C151.453 73.0613 151.487 72.8933 151.487 72.728V72.488ZM151.663 72.488H152.575V72.728C152.575 72.888 152.607 73.0533 152.671 73.224C152.741 73.3893 152.842 73.5493 152.975 73.704C153.109 73.8587 153.274 74.0027 153.471 74.136C153.669 74.264 153.898 74.376 154.159 74.472C154.426 74.568 154.722 74.64 155.047 74.688L154.647 75.512C154.269 75.4587 153.922 75.3707 153.607 75.248C153.298 75.1253 153.021 74.9787 152.775 74.808C152.535 74.632 152.333 74.4347 152.167 74.216C152.002 73.992 151.877 73.7573 151.791 73.512C151.706 73.2613 151.663 73 151.663 72.728V72.488ZM148.679 75.944H155.391V76.784H148.679V75.944ZM151.591 76.472H152.655V78.032H151.591V76.472ZM149.455 78.728H154.647V79.584H149.455V78.728ZM149.455 77.408H150.519V79H149.455V77.408Z" fill="black"/>
</g>
<g id="Damyang">
<path id="&#235;&#139;&#180;&#236;&#150;&#145;&#234;&#181;&#176;" d="M128.601 37.2L126.301 26.4L134.501 17.2L133.901 13.7999L141.101 14.0999L144.201 4.29993L148.701 3.69995L150.901 9.99994L147.701 14.9999L153.201 19.5999L149.601 26.4L155.101 28.5999L156.501 29.4999L154.501 37.9999L159.201 46.2L152.201 48.4L154.301 57.9999L145.101 55.7L146.801 49.5999L140.001 48.4L133.101 36.2L128.601 37.2Z" fill="#AFD88C" stroke="white" stroke-width="0.5"/>
<path id="&#235;&#139;&#180;&#236;&#150;&#145;" d="M140.088 26.296H141.152V30.448H140.088V26.296ZM140.864 27.96H142.136V28.824H140.864V27.96ZM135.6 29.344H136.216C136.755 29.344 137.213 29.3387 137.592 29.328C137.976 29.3173 138.317 29.296 138.616 29.264C138.92 29.2267 139.219 29.1787 139.512 29.12L139.616 29.96C139.317 30.024 139.011 30.0747 138.696 30.112C138.387 30.144 138.035 30.1653 137.64 30.176C137.245 30.1867 136.771 30.192 136.216 30.192H135.6V29.344ZM135.6 26.76H138.896V27.6H136.664V29.832H135.6V26.76ZM136.336 30.776H141.152V33.632H136.336V30.776ZM140.112 31.608H137.384V32.792H140.112V31.608ZM148.191 27.208H149.463V28.072H148.191V27.208ZM148.191 28.816H149.463V29.688H148.191V28.816ZM144.743 26.704C145.127 26.704 145.471 26.7813 145.775 26.936C146.079 27.0907 146.319 27.304 146.495 27.576C146.671 27.8427 146.759 28.152 146.759 28.504C146.759 28.8507 146.671 29.16 146.495 29.432C146.319 29.6987 146.079 29.9093 145.775 30.064C145.471 30.2187 145.127 30.296 144.743 30.296C144.365 30.296 144.023 30.2187 143.719 30.064C143.415 29.9093 143.175 29.6987 142.999 29.432C142.823 29.16 142.735 28.8507 142.735 28.504C142.735 28.152 142.823 27.8427 142.999 27.576C143.175 27.304 143.415 27.0907 143.719 26.936C144.023 26.7813 144.365 26.704 144.743 26.704ZM144.743 27.592C144.562 27.592 144.397 27.6293 144.247 27.704C144.098 27.7733 143.981 27.8773 143.895 28.016C143.815 28.1493 143.775 28.312 143.775 28.504C143.775 28.6907 143.815 28.8533 143.895 28.992C143.981 29.1253 144.098 29.2267 144.247 29.296C144.397 29.3653 144.562 29.4 144.743 29.4C144.935 29.4 145.103 29.3653 145.247 29.296C145.391 29.2267 145.506 29.1253 145.591 28.992C145.677 28.8533 145.719 28.6907 145.719 28.504C145.719 28.312 145.677 28.1493 145.591 28.016C145.506 27.8773 145.391 27.7733 145.247 27.704C145.103 27.6293 144.935 27.592 144.743 27.592ZM147.447 26.304H148.511V30.624H147.447V26.304ZM146.095 30.776C146.607 30.776 147.05 30.8347 147.423 30.952C147.802 31.0693 148.093 31.2373 148.295 31.456C148.498 31.6747 148.599 31.9387 148.599 32.248C148.599 32.552 148.498 32.8133 148.295 33.032C148.093 33.2507 147.802 33.4187 147.423 33.536C147.05 33.6533 146.607 33.712 146.095 33.712C145.583 33.712 145.138 33.6533 144.759 33.536C144.386 33.4187 144.095 33.2507 143.887 33.032C143.685 32.8133 143.583 32.552 143.583 32.248C143.583 31.9387 143.685 31.6747 143.887 31.456C144.095 31.2373 144.386 31.0693 144.759 30.952C145.138 30.8347 145.583 30.776 146.095 30.776ZM146.095 31.616C145.781 31.616 145.517 31.64 145.303 31.688C145.09 31.7307 144.927 31.7973 144.815 31.888C144.703 31.9787 144.647 32.0987 144.647 32.248C144.647 32.3867 144.703 32.504 144.815 32.6C144.927 32.696 145.09 32.768 145.303 32.816C145.517 32.8587 145.781 32.88 146.095 32.88C146.41 32.88 146.674 32.8587 146.887 32.816C147.106 32.768 147.269 32.696 147.375 32.6C147.487 32.504 147.543 32.3867 147.543 32.248C147.543 32.0987 147.487 31.9787 147.375 31.888C147.269 31.7973 147.106 31.7307 146.887 31.688C146.674 31.64 146.41 31.616 146.095 31.616Z" fill="black"/>
</g>
<g id="Yeosu">
<path id="&#236;&#151;&#172;&#236;&#136;&#152;&#236;&#139;&#156;" d="M233.3 97.8999L243.3 98.3999L239.7 111.6L242.8 116.8L239.1 117.9L234.7 120.4L228.4 115L226.5 122.6L224.2 120.8L222.7 122.7L226 126.3H223.2L225.5 129.7L226.2 131.1L226.9 134.7L226.7 134.9L218.8 131L218.5 134.3L214.9 129.4L218.3 123L215 123.4L216 118.6L220.2 116L217.4 113.9L215.7 111.5L217.5 110.8L215.5 106.9L211 106.4L211.9 104L213 94.9999L219.2 94.2999L220.1 93.8999L220.6 92.9999H221.9L222.7 93.4999L219.7 96.2999L226 101L224.4 102.9L226.1 103.8L233.3 97.8999ZM238.5 147L243.1 150L245.8 156.8L233.7 148.9L237.6 147.1L238.5 147ZM228.8 146.5L227.3 142.2L234.6 144.8L228.8 146.5ZM239.7 129.1L241 126.5L242.2 125.6L241.1 123.8L239.4 120.2L239.2 118.4L245.3 121.2L245.6 123.7L241.7 123.1L247.8 129.8L247.2 141.3L240.6 140.5L235.5 136L236.3 132.8L236.8 131.7L237 131L237.2 130.8L239.7 129.1ZM236.1 92.5999L239.8 93.7999V96.5999L234.4 96.8999L236 92.5999H236.1Z" fill="#AFD88C" stroke="white" stroke-width="0.5"/>
<path id="&#236;&#151;&#172;&#236;&#136;&#152;" d="M223.64 107.808H225.656V108.664H223.64V107.808ZM223.64 110.112H225.656V110.968H223.64V110.112ZM222.352 106.808C222.72 106.808 223.048 106.917 223.336 107.136C223.629 107.349 223.856 107.656 224.016 108.056C224.181 108.451 224.264 108.917 224.264 109.456C224.264 110 224.181 110.472 224.016 110.872C223.856 111.267 223.629 111.573 223.336 111.792C223.048 112.005 222.72 112.112 222.352 112.112C221.984 112.112 221.656 112.005 221.368 111.792C221.08 111.573 220.853 111.267 220.688 110.872C220.523 110.472 220.44 110 220.44 109.456C220.44 108.917 220.523 108.451 220.688 108.056C220.853 107.656 221.08 107.349 221.368 107.136C221.656 106.917 221.984 106.808 222.352 106.808ZM222.352 107.776C222.176 107.776 222.019 107.84 221.88 107.968C221.747 108.096 221.64 108.285 221.56 108.536C221.485 108.781 221.448 109.088 221.448 109.456C221.448 109.819 221.485 110.128 221.56 110.384C221.64 110.635 221.747 110.824 221.88 110.952C222.019 111.08 222.176 111.144 222.352 111.144C222.539 111.144 222.699 111.08 222.832 110.952C222.965 110.824 223.069 110.635 223.144 110.384C223.219 110.128 223.256 109.819 223.256 109.456C223.256 109.088 223.219 108.781 223.144 108.536C223.069 108.285 222.965 108.096 222.832 107.968C222.699 107.84 222.539 107.776 222.352 107.776ZM225.48 106.288H226.544V113.72H225.48V106.288ZM230.479 106.512H231.407V106.864C231.407 107.147 231.362 107.421 231.271 107.688C231.186 107.949 231.058 108.195 230.887 108.424C230.717 108.653 230.509 108.859 230.263 109.04C230.018 109.221 229.733 109.376 229.407 109.504C229.087 109.627 228.735 109.72 228.351 109.784L227.935 108.928C228.277 108.885 228.581 108.813 228.847 108.712C229.119 108.611 229.357 108.491 229.559 108.352C229.767 108.213 229.938 108.061 230.071 107.896C230.205 107.731 230.306 107.56 230.375 107.384C230.445 107.208 230.479 107.035 230.479 106.864V106.512ZM230.679 106.512H231.607V106.864C231.607 107.035 231.642 107.208 231.711 107.384C231.781 107.56 231.882 107.731 232.015 107.896C232.149 108.061 232.317 108.213 232.519 108.352C232.727 108.491 232.965 108.611 233.231 108.712C233.503 108.813 233.81 108.885 234.151 108.928L233.735 109.784C233.346 109.72 232.991 109.627 232.671 109.504C232.351 109.376 232.069 109.221 231.823 109.04C231.578 108.853 231.37 108.645 231.199 108.416C231.029 108.187 230.898 107.941 230.807 107.68C230.722 107.419 230.679 107.147 230.679 106.864V106.512ZM230.479 110.992H231.543V113.712H230.479V110.992ZM227.687 110.32H234.391V111.184H227.687V110.32Z" fill="black"/>
</g>
<g id="Suncheon">
<path id="&#236;&#136;&#156;&#236;&#178;&#156;&#236;&#139;&#156;" d="M196.601 47.3999L212.701 60.3999L211.801 67.4999L216.901 76.5999L214.301 83.0999L218.301 89.5999L217.601 92.2999L219.201 89.5999L220.101 93.1999L220.201 94.0999L217.701 92.2999L219.301 94.4999L213.101 95.1999L212.301 101.3H210.901L211.201 93.9999L205.601 95.1999L206.201 101.8L200.301 102.4L200.401 99.4999L197.401 103L192.701 101.4L191.001 97.4999H187.201L183.201 91.9999L173.001 93.1999L172.201 83.7999L169.301 78.7999L168.101 81.8999L166.301 80.3999L169.301 56.2999L177.501 64.0999L185.201 66.0999L196.601 54.1999V47.3999Z" fill="#AFD88C" stroke="white" stroke-width="0.5"/>
<path id="&#236;&#136;&#156;&#236;&#178;&#156;" d="M187.128 74.488H188.04V74.728C188.04 75 187.997 75.264 187.912 75.52C187.827 75.7707 187.701 76.008 187.536 76.232C187.371 76.4507 187.165 76.648 186.92 76.824C186.68 77 186.403 77.1493 186.088 77.272C185.779 77.3947 185.435 77.4827 185.056 77.536L184.656 76.704C184.987 76.6613 185.283 76.592 185.544 76.496C185.811 76.3947 186.043 76.28 186.24 76.152C186.437 76.0187 186.6 75.8747 186.728 75.72C186.861 75.56 186.96 75.3973 187.024 75.232C187.093 75.0613 187.128 74.8933 187.128 74.728V74.488ZM187.304 74.488H188.216V74.728C188.216 74.888 188.248 75.0533 188.312 75.224C188.381 75.3893 188.483 75.5493 188.616 75.704C188.749 75.8587 188.915 76.0027 189.112 76.136C189.309 76.264 189.539 76.376 189.8 76.472C190.067 76.568 190.363 76.64 190.688 76.688L190.288 77.512C189.909 77.4587 189.563 77.3707 189.248 77.248C188.939 77.1253 188.661 76.9787 188.416 76.808C188.176 76.632 187.973 76.4347 187.808 76.216C187.643 75.992 187.517 75.7573 187.432 75.512C187.347 75.2613 187.304 75 187.304 74.728V74.488ZM184.32 77.944H191.032V78.784H184.32V77.944ZM187.232 78.472H188.296V80.032H187.232V78.472ZM185.096 80.728H190.288V81.584H185.096V80.728ZM185.096 79.408H186.16V81H185.096V79.408ZM193.343 75.752H194.215V76.032C194.215 76.4853 194.141 76.912 193.991 77.312C193.842 77.712 193.615 78.0613 193.311 78.36C193.007 78.6587 192.621 78.8853 192.151 79.04L191.631 78.208C192.031 78.08 192.357 77.904 192.607 77.68C192.863 77.4507 193.05 77.1947 193.167 76.912C193.285 76.624 193.343 76.3307 193.343 76.032V75.752ZM193.543 75.752H194.407V76.032C194.407 76.3093 194.466 76.584 194.583 76.856C194.706 77.1227 194.895 77.3653 195.151 77.584C195.407 77.7973 195.733 77.9627 196.127 78.08L195.623 78.912C195.154 78.7733 194.765 78.5627 194.455 78.28C194.151 77.992 193.922 77.656 193.767 77.272C193.618 76.8827 193.543 76.4693 193.543 76.032V75.752ZM191.887 75.176H195.871V76.008H191.887V75.176ZM193.343 74.352H194.407V75.488H193.343V74.352ZM195.631 76.456H197.351V77.32H195.631V76.456ZM196.815 74.304H197.887V79.784H196.815V74.304ZM192.991 80.728H198.055V81.584H192.991V80.728ZM192.991 79.328H194.055V81.288H192.991V79.328Z" fill="black"/>
</g>
<g id="Gokseong">
<path id="&#234;&#179;&#161;&#236;&#132;&#177;&#234;&#181;&#176;" d="M168.1 24.2L170.3 27.4L172.6 24.4L177.1 27.9L189.5 26.4L193.4 29.4999L195.7 39.0999L191.1 41.5999L192.4 46.5999L196.6 47.4V54.0999L185.2 65.9L177.5 63.9999L169.4 56.2L167.9 43.2999L159.2 46.2L154.5 37.9999L156.5 29.4999L156.8 29.5999L168.1 24.2Z" fill="#AFD88C" stroke="white" stroke-width="0.5"/>
<path id="&#234;&#179;&#161;&#236;&#132;&#177;" d="M173.344 41.696H180.008V42.544H173.344V41.696ZM174.024 43.168H179.16V45.712H178.088V44.016H174.024V43.168ZM174.088 38.664H178.784V39.504H174.088V38.664ZM175.808 40.312H176.872V41.84H175.808V40.312ZM178.16 38.664H179.224V39.184C179.224 39.4613 179.216 39.776 179.2 40.128C179.184 40.4747 179.128 40.8693 179.032 41.312L177.976 41.216C178.067 40.784 178.12 40.4053 178.136 40.08C178.152 39.7547 178.16 39.456 178.16 39.184V38.664ZM182.407 38.688H183.287V39.344C183.287 39.84 183.21 40.3067 183.055 40.744C182.906 41.1813 182.677 41.5627 182.367 41.888C182.058 42.2133 181.661 42.4587 181.175 42.624L180.615 41.768C181.042 41.6347 181.386 41.4427 181.647 41.192C181.909 40.9413 182.101 40.656 182.223 40.336C182.346 40.016 182.407 39.6853 182.407 39.344V38.688ZM182.623 38.688H183.487V39.296C183.487 39.6213 183.543 39.936 183.655 40.24C183.767 40.5387 183.946 40.8053 184.191 41.04C184.437 41.2693 184.754 41.448 185.143 41.576L184.591 42.408C184.138 42.248 183.765 42.016 183.471 41.712C183.183 41.408 182.97 41.0507 182.831 40.64C182.693 40.224 182.623 39.776 182.623 39.296V38.688ZM185.815 38.304H186.887V42.64H185.815V38.304ZM184.375 42.832C185.159 42.832 185.778 42.96 186.231 43.216C186.685 43.4667 186.911 43.816 186.911 44.264C186.911 44.7227 186.685 45.0773 186.231 45.328C185.778 45.584 185.159 45.712 184.375 45.712C183.591 45.712 182.973 45.584 182.519 45.328C182.066 45.0773 181.839 44.7227 181.839 44.264C181.839 43.816 182.066 43.4667 182.519 43.216C182.973 42.96 183.591 42.832 184.375 42.832ZM184.375 43.656C184.055 43.656 183.786 43.6773 183.567 43.72C183.349 43.7627 183.181 43.832 183.063 43.928C182.951 44.0187 182.895 44.1307 182.895 44.264C182.895 44.4027 182.951 44.52 183.063 44.616C183.181 44.7067 183.349 44.776 183.567 44.824C183.786 44.8667 184.055 44.888 184.375 44.888C184.695 44.888 184.965 44.8667 185.183 44.824C185.402 44.776 185.567 44.7067 185.679 44.616C185.791 44.52 185.847 44.4027 185.847 44.264C185.847 44.1307 185.791 44.0187 185.679 43.928C185.567 43.832 185.402 43.7627 185.183 43.72C184.965 43.6773 184.695 43.656 184.375 43.656ZM184.463 39.648H185.975V40.512H184.463V39.648Z" fill="black"/>
</g>
<g id="Jangheung">
<path id="&#236;&#158;&#165;&#237;&#157;&#165;&#234;&#181;&#176;" d="M125.501 97.1L130.801 96.5L131.701 100.7L136.201 104.2L139.901 100L142.901 102.4L148.701 102L146.601 104.5L145.701 117.8L140.101 122.4L141.001 126.2L146.401 126.6L149.601 133.7L137.401 134.4L144.001 138.6L140.901 143.2L144.501 143.9L144.201 146L142.201 145.1V148.4L138.201 149.9L140.801 159.2L136.001 157.3L136.901 161.6L126.901 161.5L128.401 166.7L123.801 162.7L122.901 152.9L128.901 147.7L124.201 136.1L128.101 134.9L120.101 111.3L117.301 110.5L118.801 103L125.501 97.1Z" fill="#AFD88C" stroke="white" stroke-width="0.5"/>
<path id="&#236;&#158;&#165;&#237;&#157;&#165;" d="M126.976 117.128H127.848V117.592C127.848 118.061 127.771 118.507 127.616 118.928C127.467 119.349 127.237 119.72 126.928 120.04C126.619 120.355 126.227 120.589 125.752 120.744L125.224 119.904C125.629 119.771 125.96 119.584 126.216 119.344C126.477 119.099 126.669 118.824 126.792 118.52C126.915 118.211 126.976 117.901 126.976 117.592V117.128ZM127.192 117.128H128.048V117.592C128.048 117.88 128.107 118.16 128.224 118.432C128.341 118.699 128.523 118.939 128.768 119.152C129.019 119.365 129.344 119.533 129.744 119.656L129.232 120.488C128.763 120.349 128.376 120.136 128.072 119.848C127.773 119.555 127.552 119.216 127.408 118.832C127.264 118.443 127.192 118.029 127.192 117.592V117.128ZM125.496 116.792H129.504V117.64H125.496V116.792ZM130.088 116.304H131.152V120.696H130.088V116.304ZM130.864 118H132.136V118.872H130.864V118ZM128.736 120.824C129.253 120.824 129.699 120.883 130.072 121C130.445 121.112 130.733 121.275 130.936 121.488C131.139 121.701 131.24 121.96 131.24 122.264C131.24 122.568 131.139 122.827 130.936 123.04C130.733 123.259 130.445 123.424 130.072 123.536C129.699 123.653 129.253 123.712 128.736 123.712C128.224 123.712 127.779 123.653 127.4 123.536C127.027 123.424 126.736 123.259 126.528 123.04C126.325 122.827 126.224 122.568 126.224 122.264C126.224 121.96 126.325 121.701 126.528 121.488C126.736 121.275 127.027 121.112 127.4 121C127.779 120.883 128.224 120.824 128.736 120.824ZM128.736 121.656C128.421 121.656 128.157 121.677 127.944 121.72C127.731 121.763 127.568 121.829 127.456 121.92C127.344 122.011 127.288 122.125 127.288 122.264C127.288 122.408 127.344 122.525 127.456 122.616C127.568 122.707 127.731 122.776 127.944 122.824C128.157 122.867 128.421 122.888 128.736 122.888C129.051 122.888 129.315 122.867 129.528 122.824C129.747 122.776 129.909 122.707 130.016 122.616C130.128 122.525 130.184 122.408 130.184 122.264C130.184 122.125 130.128 122.011 130.016 121.92C129.909 121.829 129.747 121.763 129.528 121.72C129.315 121.677 129.051 121.656 128.736 121.656ZM136.015 121.408C136.837 121.408 137.471 121.507 137.919 121.704C138.367 121.901 138.591 122.187 138.591 122.56C138.591 122.944 138.367 123.232 137.919 123.424C137.471 123.621 136.837 123.72 136.015 123.72C135.199 123.72 134.567 123.621 134.119 123.424C133.671 123.232 133.447 122.947 133.447 122.568C133.447 122.189 133.671 121.901 134.119 121.704C134.567 121.507 135.199 121.408 136.015 121.408ZM136.023 122.176C135.506 122.176 135.127 122.208 134.887 122.272C134.647 122.331 134.527 122.427 134.527 122.56C134.527 122.699 134.647 122.8 134.887 122.864C135.127 122.923 135.506 122.952 136.023 122.952C136.535 122.952 136.909 122.923 137.143 122.864C137.383 122.8 137.503 122.699 137.503 122.56C137.503 122.427 137.383 122.331 137.143 122.272C136.909 122.208 136.535 122.176 136.023 122.176ZM132.999 116.832H139.039V117.632H132.999V116.832ZM136.031 117.824C136.831 117.824 137.445 117.915 137.871 118.096C138.298 118.277 138.511 118.541 138.511 118.888C138.511 119.24 138.298 119.507 137.871 119.688C137.445 119.864 136.831 119.952 136.031 119.952C135.242 119.952 134.631 119.864 134.199 119.688C133.767 119.507 133.551 119.24 133.551 118.888C133.551 118.541 133.767 118.277 134.199 118.096C134.631 117.915 135.242 117.824 136.031 117.824ZM136.031 118.544C135.578 118.544 135.242 118.571 135.023 118.624C134.805 118.677 134.695 118.768 134.695 118.896C134.695 119.013 134.805 119.101 135.023 119.16C135.242 119.213 135.578 119.24 136.031 119.24C136.495 119.24 136.834 119.213 137.047 119.16C137.266 119.101 137.375 119.013 137.375 118.896C137.375 118.768 137.266 118.677 137.047 118.624C136.834 118.571 136.495 118.544 136.031 118.544ZM135.503 116.232H136.559V117.376H135.503V116.232ZM132.679 120.264H139.383V121.088H132.679V120.264Z" fill="black"/>
</g>
<g id="Hampyeong">
<path id="&#237;&#149;&#168;&#237;&#143;&#137;&#234;&#181;&#176;" d="M63.2012 50.3999L68.1012 46.8999L71.6012 49.0999L77.0012 45.8999L87.8012 46.8999L91.8012 40.0999L99.6012 46.3999L102.001 49.5999L98.5012 53.5999L99.8012 58.5999L95.7012 62.8999L92.1012 61.0999L91.6012 76.9999L89.7012 80.3999L87.0012 78.1999L84.9012 80.2999L75.4012 72.3999L77.0012 65.9999L74.2012 64.4999L71.4012 62.6999L74.6012 60.0999L69.6012 59.2999L63.6012 51.2999L63.2012 50.3999Z" fill="#AFD88C" stroke="white" stroke-width="0.5"/>
<path id="&#237;&#149;&#168;&#237;&#143;&#137;" d="M83.088 54.304H84.152V58.76H83.088V54.304ZM83.864 56.128H85.136V57H83.864V56.128ZM79.336 59.088H84.152V61.632H79.336V59.088ZM83.112 59.92H80.384V60.792H83.112V59.92ZM78.328 54.96H82.68V55.8H78.328V54.96ZM80.504 56.024C80.8667 56.024 81.184 56.08 81.456 56.192C81.728 56.304 81.9413 56.4613 82.096 56.664C82.2507 56.8613 82.328 57.0933 82.328 57.36C82.328 57.6213 82.2507 57.8533 82.096 58.056C81.9413 58.2533 81.728 58.408 81.456 58.52C81.184 58.632 80.8667 58.688 80.504 58.688C80.1467 58.688 79.8293 58.632 79.552 58.52C79.28 58.408 79.0667 58.2533 78.912 58.056C78.7573 57.8533 78.68 57.6213 78.68 57.36C78.68 57.0933 78.7573 56.8613 78.912 56.664C79.0667 56.4613 79.28 56.304 79.552 56.192C79.8293 56.08 80.1467 56.024 80.504 56.024ZM80.504 56.808C80.2693 56.808 80.0773 56.856 79.928 56.952C79.7787 57.0427 79.704 57.1787 79.704 57.36C79.704 57.5413 79.7787 57.68 79.928 57.776C80.0773 57.8667 80.2693 57.912 80.504 57.912C80.744 57.912 80.936 57.8667 81.08 57.776C81.2293 57.68 81.304 57.5413 81.304 57.36C81.304 57.1787 81.2293 57.0427 81.08 56.952C80.936 56.856 80.744 56.808 80.504 56.808ZM79.976 54.248H81.032V55.416H79.976V54.248ZM89.9514 55.488H91.4314V56.336H89.9514V55.488ZM89.9514 56.88H91.4314V57.728H89.9514V56.88ZM85.8634 54.784H89.7754V55.64H85.8634V54.784ZM85.7914 58.56L85.6874 57.696C86.082 57.696 86.5194 57.6933 86.9994 57.688C87.4794 57.6773 87.9674 57.6613 88.4634 57.64C88.9594 57.6133 89.4287 57.5733 89.8714 57.52L89.9354 58.296C89.4767 58.376 89.002 58.4347 88.5114 58.472C88.0207 58.5093 87.5407 58.5333 87.0714 58.544C86.6074 58.5547 86.1807 58.56 85.7914 58.56ZM86.4554 55.504H87.4794V58.008H86.4554V55.504ZM88.1754 55.504H89.1914V58.008H88.1754V55.504ZM90.8154 54.304H91.8874V58.832H90.8154V54.304ZM89.3754 58.944C90.1647 58.944 90.7834 59.064 91.2314 59.304C91.6847 59.544 91.9114 59.8853 91.9114 60.328C91.9114 60.7653 91.6847 61.104 91.2314 61.344C90.7834 61.5893 90.1647 61.712 89.3754 61.712C88.5914 61.712 87.9727 61.5893 87.5194 61.344C87.066 61.104 86.8394 60.7653 86.8394 60.328C86.8394 59.8853 87.066 59.544 87.5194 59.304C87.9727 59.064 88.5914 58.944 89.3754 58.944ZM89.3754 59.752C89.0554 59.752 88.7834 59.7733 88.5594 59.816C88.3407 59.8533 88.1754 59.9173 88.0634 60.008C87.9514 60.0933 87.8954 60.2 87.8954 60.328C87.8954 60.5253 88.018 60.672 88.2634 60.768C88.514 60.864 88.8847 60.912 89.3754 60.912C89.7007 60.912 89.9727 60.8907 90.1914 60.848C90.41 60.8053 90.5727 60.7413 90.6794 60.656C90.7914 60.5707 90.8474 60.4613 90.8474 60.328C90.8474 60.2 90.7914 60.0933 90.6794 60.008C90.5727 59.9173 90.41 59.8533 90.1914 59.816C89.9727 59.7733 89.7007 59.752 89.3754 59.752Z" fill="black"/>
</g>
<g id="Muan">
<path id="&#235;&#172;&#180;&#236;&#149;&#136;&#234;&#181;&#176;" d="M73.8008 108.4L73.4008 105L67.0008 99.5998L66.6008 94.5998L63.3008 76.0998L62.4008 88.3998L59.2008 89.2998L57.3008 88.8998L54.9008 87.1998L54.4008 86.9998L54.2008 86.0998L56.4008 84.5998L53.1008 81.1998L53.4008 79.3998L55.4008 77.4998L55.0008 79.5998L59.3008 80.0998L61.3008 76.8998L58.1008 76.5998L65.5008 70.7998L64.3008 67.9998L60.6008 69.5998L58.0008 61.8998L54.5008 68.5998L49.0008 67.1998V66.6998L48.8008 65.1998L47.3008 60.3998L50.3008 52.1998L56.7008 55.7998L59.9008 50.7998L60.1008 51.0998L58.1008 61.3998L60.5008 60.0998L60.7008 60.1998L59.7008 63.9998L67.2008 64.7998L67.1008 71.6998L70.2008 71.5998L74.1008 64.3998L77.0008 65.9998L75.2008 72.1998L84.7008 80.0998V88.8998H81.2008L85.4008 94.0998L86.6008 96.5998L86.7008 96.6998H86.8008L86.2008 98.9998L80.7008 112.1L73.8008 108.4Z" fill="#AFD88C" stroke="white" stroke-width="0.5"/>
<path id="&#235;&#172;&#180;&#236;&#149;&#136;" d="M67.328 88.44H74.032V89.296H67.328V88.44ZM70.12 88.984H71.184V91.712H70.12V88.984ZM68.096 84.664H73.232V87.648H68.096V84.664ZM72.192 85.496H69.144V86.816H72.192V85.496ZM79.4474 84.304H80.5114V89.688H79.4474V84.304ZM80.2154 86.416H81.4954V87.296H80.2154V86.416ZM75.7354 90.728H80.7754V91.584H75.7354V90.728ZM75.7354 89.128H76.8074V91.112H75.7354V89.128ZM76.7434 84.776C77.122 84.776 77.4634 84.856 77.7674 85.016C78.0714 85.176 78.3114 85.3973 78.4874 85.68C78.6687 85.9627 78.7594 86.288 78.7594 86.656C78.7594 87.0187 78.6687 87.344 78.4874 87.632C78.3114 87.9147 78.0714 88.1387 77.7674 88.304C77.4634 88.464 77.122 88.544 76.7434 88.544C76.3647 88.544 76.0234 88.464 75.7194 88.304C75.4154 88.1387 75.1754 87.9147 74.9994 87.632C74.8234 87.344 74.7354 87.0187 74.7354 86.656C74.7354 86.288 74.8234 85.9627 74.9994 85.68C75.1754 85.3973 75.4154 85.176 75.7194 85.016C76.0234 84.856 76.3647 84.776 76.7434 84.776ZM76.7434 85.696C76.562 85.696 76.3967 85.736 76.2474 85.816C76.1034 85.8907 75.9887 86 75.9034 86.144C75.818 86.2827 75.7754 86.4533 75.7754 86.656C75.7754 86.8587 75.818 87.032 75.9034 87.176C75.9887 87.3147 76.1034 87.424 76.2474 87.504C76.3967 87.5787 76.562 87.616 76.7434 87.616C76.93 87.616 77.0954 87.5787 77.2394 87.504C77.3887 87.424 77.506 87.3147 77.5914 87.176C77.6767 87.032 77.7194 86.8587 77.7194 86.656C77.7194 86.4533 77.6767 86.2827 77.5914 86.144C77.506 86 77.3887 85.8907 77.2394 85.816C77.0954 85.736 76.93 85.696 76.7434 85.696Z" fill="black"/>
</g>
<g id="Yeongam">
<path id="&#236;&#152;&#129;&#236;&#149;&#148;&#234;&#181;&#176;" d="M72.1996 108.7L73.8996 108.4L80.5996 112L85.9996 99.6998L86.0996 98.8998L86.6996 96.5998L92.9996 87.0998L96.8996 93.5998L102 94.6998L101.4 84.7998L105 85.4998L107.8 93.0998L121.2 96.6998L125.6 97.0998L119 103.2L117.5 110.7L114.2 110.1L110.8 114.5L102.7 114.9L99.5996 118.4L102.8 121.3L101.3 124.7L86.6996 128.6L87.5996 126L84.9996 127.3L83.9996 127.9L83.2996 128.1L80.2996 125.1L79.8996 121.2L75.2996 120.4L76.6996 116.9L69.9996 117.3L68.7996 116.4L67.1996 116.9L64.6996 118.9L61.5996 116.5L63.8996 112.2L71.8996 110.6L72.1996 108.7Z" fill="#AFD88C" stroke="white" stroke-width="0.5"/>
<path id="&#236;&#152;&#129;&#236;&#149;&#148;" d="M92.6 105.264H94.792V106.12H92.6V105.264ZM92.6 106.912H94.792V107.76H92.6V106.912ZM91.368 104.696C91.7413 104.696 92.0747 104.776 92.368 104.936C92.6613 105.091 92.8933 105.304 93.064 105.576C93.24 105.848 93.328 106.16 93.328 106.512C93.328 106.859 93.24 107.168 93.064 107.44C92.8933 107.712 92.6613 107.928 92.368 108.088C92.0747 108.243 91.7413 108.32 91.368 108.32C91.0053 108.32 90.6747 108.243 90.376 108.088C90.0827 107.928 89.848 107.712 89.672 107.44C89.5013 107.168 89.416 106.859 89.416 106.512C89.416 106.16 89.5013 105.848 89.672 105.576C89.848 105.304 90.0827 105.091 90.376 104.936C90.6747 104.776 91.0053 104.696 91.368 104.696ZM91.368 105.592C91.192 105.592 91.032 105.629 90.888 105.704C90.744 105.773 90.6293 105.877 90.544 106.016C90.464 106.149 90.424 106.315 90.424 106.512C90.424 106.699 90.464 106.861 90.544 107C90.6293 107.139 90.744 107.245 90.888 107.32C91.032 107.389 91.192 107.424 91.368 107.424C91.5547 107.424 91.7173 107.389 91.856 107.32C92 107.245 92.112 107.139 92.192 107C92.272 106.861 92.312 106.699 92.312 106.512C92.312 106.315 92.272 106.149 92.192 106.016C92.112 105.877 92 105.773 91.856 105.704C91.7173 105.629 91.5547 105.592 91.368 105.592ZM94.456 104.304H95.528V108.64H94.456V104.304ZM93.016 108.792C93.5387 108.792 93.9867 108.851 94.36 108.968C94.7387 109.08 95.032 109.245 95.24 109.464C95.448 109.683 95.552 109.944 95.552 110.248C95.552 110.552 95.448 110.813 95.24 111.032C95.032 111.256 94.7387 111.424 94.36 111.536C93.9867 111.653 93.5387 111.712 93.016 111.712C92.4933 111.712 92.0427 111.653 91.664 111.536C91.2853 111.424 90.992 111.256 90.784 111.032C90.5813 110.813 90.48 110.552 90.48 110.248C90.48 109.944 90.5813 109.683 90.784 109.464C90.992 109.245 91.2853 109.08 91.664 108.968C92.0427 108.851 92.4933 108.792 93.016 108.792ZM93.016 109.608C92.696 109.608 92.424 109.632 92.2 109.68C91.976 109.728 91.808 109.8 91.696 109.896C91.584 109.987 91.528 110.104 91.528 110.248C91.528 110.392 91.584 110.512 91.696 110.608C91.808 110.704 91.976 110.776 92.2 110.824C92.424 110.867 92.696 110.888 93.016 110.888C93.3413 110.888 93.6133 110.867 93.832 110.824C94.056 110.776 94.224 110.704 94.336 110.608C94.448 110.512 94.504 110.392 94.504 110.248C94.504 110.104 94.448 109.987 94.336 109.896C94.224 109.8 94.056 109.728 93.832 109.68C93.6133 109.632 93.3413 109.608 93.016 109.608ZM101.447 104.304H102.511V108.512H101.447V104.304ZM102.223 105.936H103.495V106.808H102.223V105.936ZM97.6954 108.824H102.511V111.632H97.6954V108.824ZM101.471 109.664H98.7434V110.792H101.471V109.664ZM98.7434 104.704C99.1274 104.704 99.4714 104.781 99.7754 104.936C100.079 105.091 100.319 105.304 100.495 105.576C100.671 105.843 100.759 106.152 100.759 106.504C100.759 106.851 100.671 107.16 100.495 107.432C100.319 107.699 100.079 107.909 99.7754 108.064C99.4714 108.219 99.1274 108.296 98.7434 108.296C98.3647 108.296 98.0234 108.219 97.7194 108.064C97.4154 107.909 97.1754 107.699 96.9994 107.432C96.8234 107.16 96.7354 106.851 96.7354 106.504C96.7354 106.152 96.8234 105.843 96.9994 105.576C97.1754 105.304 97.4154 105.091 97.7194 104.936C98.0234 104.781 98.3647 104.704 98.7434 104.704ZM98.7434 105.592C98.562 105.592 98.3967 105.629 98.2474 105.704C98.098 105.773 97.9807 105.877 97.8954 106.016C97.8154 106.149 97.7754 106.312 97.7754 106.504C97.7754 106.691 97.8154 106.853 97.8954 106.992C97.9807 107.125 98.098 107.227 98.2474 107.296C98.3967 107.365 98.562 107.4 98.7434 107.4C98.9354 107.4 99.1034 107.365 99.2474 107.296C99.3914 107.227 99.506 107.125 99.5914 106.992C99.6767 106.853 99.7194 106.691 99.7194 106.504C99.7194 106.312 99.6767 106.149 99.5914 106.016C99.506 105.877 99.3914 105.773 99.2474 105.704C99.1034 105.629 98.9354 105.592 98.7434 105.592Z" fill="black"/>
</g>
<g id="Haenam">
<path id="&#237;&#149;&#180;&#235;&#130;&#168;&#234;&#181;&#176;" d="M94 176.1L92 183L86 182.3L84.2 185.2L82 186.7L80.6 186.4L80.5 184.3L81.1 176.1L75.1 178.1L74 175.9V175.8L76.8 175.9L74.8 172.5L74.9 172.4L78.2 172.3L76.9 168.7L80.8 167.8L79.6 163.7L75.6 165.6L72.8 162.4L75.8 162.2L73.6 155.9L75.1 153.3L71.4 150.7L73.7 149.3L67.9 145.1L64.2 149.1L63.8 144.5L54.8 143.6L53.6 141.7L50.5 139.1L52.4 133.7L47.5 128.2L51.6 113.8L56 115.2L60.5 124L64.7 118.9L69.3 120L74.8 121.7L79 125L84.7 129.7L85.5 128.7L86.5 128.5L101.1 124.6L105.7 126.1L102.7 133.8L105 134.2L102.3 138.8L104.2 144.6L100.6 148.5L103.1 150.6L102.7 159L109.3 161.5V161.6L108.5 162.9L103 165.4L102.2 166L97.9 168L97.7 168.8L95.2 169.6L94.5 174.8L94 176.1Z" fill="#AFD88C" stroke="white" stroke-width="0.5"/>
<path id="&#237;&#149;&#180;&#235;&#130;&#168;" d="M77.32 142.416H80.864V143.256H77.32V142.416ZM79.104 143.592C79.4187 143.592 79.696 143.667 79.936 143.816C80.1813 143.965 80.3733 144.173 80.512 144.44C80.656 144.701 80.728 145.005 80.728 145.352C80.728 145.699 80.656 146.005 80.512 146.272C80.3733 146.533 80.1813 146.739 79.936 146.888C79.696 147.037 79.4187 147.112 79.104 147.112C78.7893 147.112 78.5093 147.037 78.264 146.888C78.0187 146.739 77.8267 146.533 77.688 146.272C77.5493 146.005 77.48 145.699 77.48 145.352C77.48 145.005 77.5493 144.701 77.688 144.44C77.8267 144.173 78.0187 143.965 78.264 143.816C78.5147 143.667 78.7947 143.592 79.104 143.592ZM79.104 144.472C78.976 144.472 78.8587 144.507 78.752 144.576C78.6453 144.645 78.5627 144.747 78.504 144.88C78.4453 145.008 78.416 145.165 78.416 145.352C78.416 145.539 78.4453 145.699 78.504 145.832C78.5627 145.965 78.6453 146.067 78.752 146.136C78.8587 146.2 78.976 146.232 79.104 146.232C79.2373 146.232 79.3547 146.2 79.456 146.136C79.5573 146.067 79.6373 145.965 79.696 145.832C79.7547 145.699 79.784 145.539 79.784 145.352C79.784 145.165 79.7547 145.008 79.696 144.88C79.6373 144.747 79.5573 144.645 79.456 144.576C79.3547 144.507 79.2373 144.472 79.104 144.472ZM82.68 141.296H83.688V148.704H82.68V141.296ZM81.792 144.312H83.008V145.168H81.792V144.312ZM81.12 141.432H82.112V148.392H81.12V141.432ZM78.584 141.496H79.632V142.944H78.584V141.496ZM89.4474 141.296H90.5114V145.472H89.4474V141.296ZM90.2234 142.856H91.4954V143.728H90.2234V142.856ZM85.6954 145.808H90.5114V148.632H85.6954V145.808ZM89.4794 146.648H86.7434V147.792H89.4794V146.648ZM84.9834 141.648H86.0474V144.68H84.9834V141.648ZM84.9834 144.224H85.5994C86.106 144.224 86.6314 144.205 87.1754 144.168C87.7247 144.125 88.29 144.048 88.8714 143.936L88.9914 144.784C88.394 144.907 87.81 144.992 87.2394 145.04C86.674 145.083 86.1274 145.104 85.5994 145.104H84.9834V144.224Z" fill="black"/>
</g>
<g id="Gangjin">
<path id="&#234;&#176;&#149;&#236;&#167;&#132;&#234;&#181;&#176;" d="M119.9 163L115.6 159.6L117.9 146.1L116.5 147.2L115.4 133.5L113.1 154.7L109.5 156.8L111.5 159.1L108.9 161.6L102.3 159.1L102.7 150.7L100.2 148.6L103.8 144.7L101.9 138.9L104.6 134.3L102.3 133.9L105.3 126.2L100.7 124.7L102.2 121.3L99 118.4L102.1 114.9L110.2 114.5L113.6 110.1L116.9 110.7L119.7 111.5L127.7 135.1L123.8 136.3L128.5 147.9L122.5 153.1L122.9 162.7V162.8L119.9 163Z" fill="#AFD88C" stroke="white" stroke-width="0.5"/>
<path id="&#234;&#176;&#149;&#236;&#167;&#132;" d="M111.088 121.296H112.152V125.584H111.088V121.296ZM111.864 123.024H113.136V123.904H111.864V123.024ZM108.976 121.784H110.12C110.12 122.445 109.987 123.04 109.72 123.568C109.453 124.091 109.064 124.536 108.552 124.904C108.045 125.272 107.429 125.557 106.704 125.76L106.272 124.912C106.864 124.747 107.36 124.536 107.76 124.28C108.165 124.019 108.469 123.723 108.672 123.392C108.875 123.056 108.976 122.696 108.976 122.312V121.784ZM106.616 121.784H109.616V122.632H106.616V121.784ZM109.752 125.68C110.253 125.68 110.691 125.744 111.064 125.872C111.437 125.995 111.725 126.171 111.928 126.4C112.136 126.624 112.24 126.891 112.24 127.2C112.24 127.509 112.136 127.776 111.928 128C111.725 128.229 111.437 128.405 111.064 128.528C110.691 128.651 110.253 128.712 109.752 128.712C109.256 128.712 108.821 128.651 108.448 128.528C108.075 128.405 107.784 128.229 107.576 128C107.368 127.776 107.264 127.509 107.264 127.2C107.264 126.891 107.368 126.624 107.576 126.4C107.784 126.171 108.075 125.995 108.448 125.872C108.821 125.744 109.256 125.68 109.752 125.68ZM109.752 126.504C109.459 126.504 109.203 126.531 108.984 126.584C108.771 126.637 108.605 126.715 108.488 126.816C108.376 126.917 108.32 127.045 108.32 127.2C108.32 127.349 108.376 127.475 108.488 127.576C108.605 127.677 108.771 127.755 108.984 127.808C109.203 127.861 109.459 127.888 109.752 127.888C110.056 127.888 110.315 127.861 110.528 127.808C110.741 127.755 110.904 127.677 111.016 127.576C111.133 127.475 111.192 127.349 111.192 127.2C111.192 127.045 111.133 126.917 111.016 126.816C110.904 126.715 110.741 126.637 110.528 126.584C110.315 126.531 110.056 126.504 109.752 126.504ZM115.479 122.128H116.359V122.752C116.359 123.216 116.282 123.659 116.127 124.08C115.978 124.496 115.749 124.861 115.439 125.176C115.13 125.485 114.735 125.717 114.255 125.872L113.711 125.04C114.127 124.907 114.463 124.72 114.719 124.48C114.981 124.24 115.173 123.971 115.295 123.672C115.418 123.368 115.479 123.061 115.479 122.752V122.128ZM115.703 122.128H116.567V122.752C116.567 122.971 116.602 123.189 116.671 123.408C116.741 123.621 116.845 123.827 116.983 124.024C117.127 124.216 117.309 124.389 117.527 124.544C117.746 124.699 118.005 124.824 118.303 124.92L117.767 125.744C117.303 125.595 116.919 125.371 116.615 125.072C116.311 124.773 116.082 124.424 115.927 124.024C115.778 123.619 115.703 123.195 115.703 122.752V122.128ZM113.999 121.824H118.031V122.672H113.999V121.824ZM118.775 121.304H119.839V126.648H118.775V121.304ZM114.903 127.728H120.031V128.584H114.903V127.728ZM114.903 126.168H115.967V128.152H114.903V126.168Z" fill="black"/>
</g>
<g id="Yeonggwang">
<path id="&#236;&#152;&#129;&#234;&#180;&#145;&#234;&#181;&#176;" d="M60.4012 37.1998H57.6012L60.6012 33.4998L58.8012 31.5998L64.8012 29.4998L70.6012 8.7998L77.2012 8.89981L79.1012 11.4998L77.3012 15.6998L84.2012 28.1998L91.0012 28.9998L90.9012 24.5998L98.6012 26.2998L94.3012 29.2998L91.7012 39.9998L87.7012 46.7998L76.9012 45.7998L71.5012 48.9998L68.0012 46.7998L63.1012 50.2998L61.0012 47.0998L63.2012 46.9998L64.0012 42.7998L58.9012 45.7998L59.6012 42.4998L54.2012 42.9998L55.2012 36.9998L57.2012 38.9998L58.4012 36.3998L60.4012 37.1998Z" fill="#AFD88C" stroke="white" stroke-width="0.5"/>
<path id="&#236;&#152;&#129;&#234;&#180;&#145;" d="M70.6 33.264H72.792V34.12H70.6V33.264ZM70.6 34.912H72.792V35.76H70.6V34.912ZM69.368 32.696C69.7413 32.696 70.0747 32.776 70.368 32.936C70.6613 33.0907 70.8933 33.304 71.064 33.576C71.24 33.848 71.328 34.16 71.328 34.512C71.328 34.8587 71.24 35.168 71.064 35.44C70.8933 35.712 70.6613 35.928 70.368 36.088C70.0747 36.2427 69.7413 36.32 69.368 36.32C69.0053 36.32 68.6747 36.2427 68.376 36.088C68.0827 35.928 67.848 35.712 67.672 35.44C67.5013 35.168 67.416 34.8587 67.416 34.512C67.416 34.16 67.5013 33.848 67.672 33.576C67.848 33.304 68.0827 33.0907 68.376 32.936C68.6747 32.776 69.0053 32.696 69.368 32.696ZM69.368 33.592C69.192 33.592 69.032 33.6293 68.888 33.704C68.744 33.7733 68.6293 33.8773 68.544 34.016C68.464 34.1493 68.424 34.3147 68.424 34.512C68.424 34.6987 68.464 34.8613 68.544 35C68.6293 35.1387 68.744 35.2453 68.888 35.32C69.032 35.3893 69.192 35.424 69.368 35.424C69.5547 35.424 69.7173 35.3893 69.856 35.32C70 35.2453 70.112 35.1387 70.192 35C70.272 34.8613 70.312 34.6987 70.312 34.512C70.312 34.3147 70.272 34.1493 70.192 34.016C70.112 33.8773 70 33.7733 69.856 33.704C69.7173 33.6293 69.5547 33.592 69.368 33.592ZM72.456 32.304H73.528V36.64H72.456V32.304ZM71.016 36.792C71.5387 36.792 71.9867 36.8507 72.36 36.968C72.7387 37.08 73.032 37.2453 73.24 37.464C73.448 37.6827 73.552 37.944 73.552 38.248C73.552 38.552 73.448 38.8133 73.24 39.032C73.032 39.256 72.7387 39.424 72.36 39.536C71.9867 39.6533 71.5387 39.712 71.016 39.712C70.4933 39.712 70.0427 39.6533 69.664 39.536C69.2853 39.424 68.992 39.256 68.784 39.032C68.5813 38.8133 68.48 38.552 68.48 38.248C68.48 37.944 68.5813 37.6827 68.784 37.464C68.992 37.2453 69.2853 37.08 69.664 36.968C70.0427 36.8507 70.4933 36.792 71.016 36.792ZM71.016 37.608C70.696 37.608 70.424 37.632 70.2 37.68C69.976 37.728 69.808 37.8 69.696 37.896C69.584 37.9867 69.528 38.104 69.528 38.248C69.528 38.392 69.584 38.512 69.696 38.608C69.808 38.704 69.976 38.776 70.2 38.824C70.424 38.8667 70.696 38.888 71.016 38.888C71.3413 38.888 71.6133 38.8667 71.832 38.824C72.056 38.776 72.224 38.704 72.336 38.608C72.448 38.512 72.504 38.392 72.504 38.248C72.504 38.104 72.448 37.9867 72.336 37.896C72.224 37.8 72.056 37.728 71.832 37.68C71.6133 37.632 71.3413 37.608 71.016 37.608ZM75.0154 32.704H78.1834V33.544H75.0154V32.704ZM75.9274 34.36H76.9754V36.184H75.9274V34.36ZM77.7594 32.704H78.8154V33.184C78.8154 33.4293 78.8074 33.7147 78.7914 34.04C78.7754 34.3653 78.7247 34.7307 78.6394 35.136L77.6074 35.048C77.6874 34.6533 77.7327 34.3067 77.7434 34.008C77.754 33.704 77.7594 33.4293 77.7594 33.184V32.704ZM79.5274 32.296H80.5994V36.816H79.5274V32.296ZM80.1834 34.12H81.4874V34.992H80.1834V34.12ZM74.6794 36.512L74.5754 35.664C75.0234 35.664 75.5034 35.6613 76.0154 35.656C76.5327 35.6507 77.058 35.6347 77.5914 35.608C78.1247 35.576 78.6367 35.5307 79.1274 35.472L79.1994 36.224C78.6927 36.3093 78.1754 36.3733 77.6474 36.416C77.1194 36.4533 76.602 36.48 76.0954 36.496C75.594 36.5067 75.122 36.512 74.6794 36.512ZM78.1034 36.896C78.6314 36.896 79.0847 36.952 79.4634 37.064C79.8474 37.176 80.1434 37.336 80.3514 37.544C80.5594 37.752 80.6634 38.0027 80.6634 38.296C80.6634 38.5893 80.5594 38.84 80.3514 39.048C80.1434 39.2613 79.8474 39.424 79.4634 39.536C79.0847 39.648 78.6314 39.704 78.1034 39.704C77.5807 39.704 77.1247 39.648 76.7354 39.536C76.3514 39.424 76.0554 39.2613 75.8474 39.048C75.6394 38.84 75.5354 38.5893 75.5354 38.296C75.5354 38.0027 75.6394 37.752 75.8474 37.544C76.0554 37.336 76.3514 37.176 76.7354 37.064C77.1247 36.952 77.5807 36.896 78.1034 36.896ZM78.1034 37.712C77.6234 37.712 77.2554 37.76 76.9994 37.856C76.7487 37.952 76.6234 38.0987 76.6234 38.296C76.6234 38.488 76.7487 38.632 76.9994 38.728C77.2554 38.824 77.6234 38.872 78.1034 38.872C78.578 38.872 78.9407 38.824 79.1914 38.728C79.4474 38.632 79.5754 38.488 79.5754 38.296C79.5754 38.0987 79.4474 37.952 79.1914 37.856C78.9407 37.76 78.578 37.712 78.1034 37.712Z" fill="black"/>
</g>
<g id="Jangseong">
<path id="&#236;&#158;&#165;&#236;&#132;&#177;&#234;&#181;&#176;" d="M91.7012 39.9999L94.3012 29.2999L98.6012 26.2999L98.5012 25.1999L99.4012 24.9999L99.6012 25.0999L101.401 21.3999L103.901 22.5999L109.801 17.4999L108.701 13.8999L112.701 11.2999L111.001 6.69992V5.69992L115.201 3.2999L121.701 0.399902L127.501 4.3999L133.901 13.7999L134.501 17.1999L126.301 26.3999L128.601 37.1999L122.901 40.7999L112.701 39.8999L113.301 35.9999L107.501 43.2999L99.5012 46.2999L91.7012 39.9999Z" fill="#AFD88C" stroke="white" stroke-width="0.5"/>
<path id="&#236;&#158;&#165;&#236;&#132;&#177;" d="M107.976 26.128H108.848V26.592C108.848 27.0613 108.771 27.5067 108.616 27.928C108.467 28.3493 108.237 28.72 107.928 29.04C107.619 29.3547 107.227 29.5893 106.752 29.744L106.224 28.904C106.629 28.7707 106.96 28.584 107.216 28.344C107.477 28.0987 107.669 27.824 107.792 27.52C107.915 27.2107 107.976 26.9013 107.976 26.592V26.128ZM108.192 26.128H109.048V26.592C109.048 26.88 109.107 27.16 109.224 27.432C109.341 27.6987 109.523 27.9387 109.768 28.152C110.019 28.3653 110.344 28.5333 110.744 28.656L110.232 29.488C109.763 29.3493 109.376 29.136 109.072 28.848C108.773 28.5547 108.552 28.216 108.408 27.832C108.264 27.4427 108.192 27.0293 108.192 26.592V26.128ZM106.496 25.792H110.504V26.64H106.496V25.792ZM111.088 25.304H112.152V29.696H111.088V25.304ZM111.864 27H113.136V27.872H111.864V27ZM109.736 29.824C110.253 29.824 110.699 29.8827 111.072 30C111.445 30.112 111.733 30.2747 111.936 30.488C112.139 30.7013 112.24 30.96 112.24 31.264C112.24 31.568 112.139 31.8267 111.936 32.04C111.733 32.2587 111.445 32.424 111.072 32.536C110.699 32.6533 110.253 32.712 109.736 32.712C109.224 32.712 108.779 32.6533 108.4 32.536C108.027 32.424 107.736 32.2587 107.528 32.04C107.325 31.8267 107.224 31.568 107.224 31.264C107.224 30.96 107.325 30.7013 107.528 30.488C107.736 30.2747 108.027 30.112 108.4 30C108.779 29.8827 109.224 29.824 109.736 29.824ZM109.736 30.656C109.421 30.656 109.157 30.6773 108.944 30.72C108.731 30.7627 108.568 30.8293 108.456 30.92C108.344 31.0107 108.288 31.1253 108.288 31.264C108.288 31.408 108.344 31.5253 108.456 31.616C108.568 31.7067 108.731 31.776 108.944 31.824C109.157 31.8667 109.421 31.888 109.736 31.888C110.051 31.888 110.315 31.8667 110.528 31.824C110.747 31.776 110.909 31.7067 111.016 31.616C111.128 31.5253 111.184 31.408 111.184 31.264C111.184 31.1253 111.128 31.0107 111.016 30.92C110.909 30.8293 110.747 30.7627 110.528 30.72C110.315 30.6773 110.051 30.656 109.736 30.656ZM115.407 25.688H116.287V26.344C116.287 26.84 116.21 27.3067 116.055 27.744C115.906 28.1813 115.677 28.5627 115.367 28.888C115.058 29.2133 114.661 29.4587 114.175 29.624L113.615 28.768C114.042 28.6347 114.386 28.4427 114.647 28.192C114.909 27.9413 115.101 27.656 115.223 27.336C115.346 27.016 115.407 26.6853 115.407 26.344V25.688ZM115.623 25.688H116.487V26.296C116.487 26.6213 116.543 26.936 116.655 27.24C116.767 27.5387 116.946 27.8053 117.191 28.04C117.437 28.2693 117.754 28.448 118.143 28.576L117.591 29.408C117.138 29.248 116.765 29.016 116.471 28.712C116.183 28.408 115.97 28.0507 115.831 27.64C115.693 27.224 115.623 26.776 115.623 26.296V25.688ZM118.815 25.304H119.887V29.64H118.815V25.304ZM117.375 29.832C118.159 29.832 118.778 29.96 119.231 30.216C119.685 30.4667 119.911 30.816 119.911 31.264C119.911 31.7227 119.685 32.0773 119.231 32.328C118.778 32.584 118.159 32.712 117.375 32.712C116.591 32.712 115.973 32.584 115.519 32.328C115.066 32.0773 114.839 31.7227 114.839 31.264C114.839 30.816 115.066 30.4667 115.519 30.216C115.973 29.96 116.591 29.832 117.375 29.832ZM117.375 30.656C117.055 30.656 116.786 30.6773 116.567 30.72C116.349 30.7627 116.181 30.832 116.063 30.928C115.951 31.0187 115.895 31.1307 115.895 31.264C115.895 31.4027 115.951 31.52 116.063 31.616C116.181 31.7067 116.349 31.776 116.567 31.824C116.786 31.8667 117.055 31.888 117.375 31.888C117.695 31.888 117.965 31.8667 118.183 31.824C118.402 31.776 118.567 31.7067 118.679 31.616C118.791 31.52 118.847 31.4027 118.847 31.264C118.847 31.1307 118.791 31.0187 118.679 30.928C118.567 30.832 118.402 30.7627 118.183 30.72C117.965 30.6773 117.695 30.656 117.375 30.656ZM117.463 26.648H118.975V27.512H117.463V26.648Z" fill="black"/>
</g>
<g id="Wando">
<path id="&#236;&#153;&#132;&#235;&#143;&#132;&#234;&#181;&#176;" d="M93.3004 209.4L90.5004 207.3L82.5004 213.3L78.9004 210.7L82.5004 204.6L85.5004 205.3L86.9004 206L88.2004 206.3L89.0004 206.1H89.5004L90.8004 206.3L94.5004 208.1V208.2L93.3004 209.4ZM97.7004 201.5L100.1 202.3L102 205L98.4004 206.1L102 209.7L99.0004 215.3L94.9004 209.9L95.3004 208.8L98.1004 206.2L95.8004 204.5L97.7004 201.5ZM129.2 199.1L132.7 203.8L131.2 209.4L123.6 207.4L124.7 201.7L126.6 200.1L128.1 199.2L129.2 199.1ZM86.4004 195.9L94.5004 200.9L91.5004 201.3L93.3004 204.1L89.5004 202.6L89.6004 205.6L87.0004 205L86.2004 204.7L84.4004 202.5L85.4004 201.2L85.2004 200.4L85.6004 198.5L85.3004 196.1L86.4004 195.9ZM116.3 179L118.1 180.7L121.8 176.8L129.9 179L128.1 184.4L116.6 183.4L113.3 181.4L112.2 180.7L111.7 180.9L112.1 180.4L112 179.8L115.5 178.7L116.3 179ZM153.2 176.6L156.3 180.3L152 178.8L153.3 181.1L148.7 184.8L150 179.9L141.4 176.7L142 176.5L145.2 174.2L147.2 173.6L149 178.2L152.6 176.7L153.2 176.6ZM98.5004 181.4L96.9004 179.3V176.1L96.8004 174.3L96.7004 174V173.1L97.2004 172.2L97.7004 171.1L101.8 170.1L102.2 169.9L108 172.8L108.8 175.3L113.7 183.9L112.3 185.8L114.4 187.8L108.8 185.1L108.6 187.9L103.7 187L98.5004 181.4ZM122 163.5L123.1 167.1L120.6 167.4L121.8 168L123.9 167.5L125.9 172L125.8 172.1L116.6 173.1L114.8 177.8L114 177.5L113.1 176L114.9 173.2L112.1 171.3L113.1 168.6L114.3 166.9L116.5 165.2L118.1 165.3L119.6 164.6L122 163.5Z" fill="#AFD88C" stroke="white" stroke-width="0.5"/>
<path id="&#236;&#153;&#132;&#235;&#143;&#132;" d="M100.255 177.685H100.92V178.39H100.255V177.685ZM100.585 176C100.808 176 101.007 176.04 101.18 176.12C101.353 176.197 101.49 176.307 101.59 176.45C101.69 176.59 101.74 176.753 101.74 176.94C101.74 177.123 101.69 177.287 101.59 177.43C101.49 177.57 101.353 177.68 101.18 177.76C101.007 177.84 100.808 177.88 100.585 177.88C100.362 177.88 100.162 177.84 99.985 177.76C99.8117 177.68 99.675 177.57 99.575 177.43C99.475 177.287 99.425 177.123 99.425 176.94C99.425 176.753 99.475 176.59 99.575 176.45C99.675 176.307 99.8117 176.197 99.985 176.12C100.162 176.04 100.362 176 100.585 176ZM100.585 176.495C100.482 176.495 100.388 176.513 100.305 176.55C100.225 176.583 100.162 176.633 100.115 176.7C100.068 176.767 100.045 176.847 100.045 176.94C100.045 177.033 100.068 177.113 100.115 177.18C100.162 177.243 100.225 177.293 100.305 177.33C100.388 177.363 100.482 177.38 100.585 177.38C100.692 177.38 100.785 177.363 100.865 177.33C100.945 177.293 101.007 177.243 101.05 177.18C101.097 177.113 101.12 177.033 101.12 176.94C101.12 176.847 101.097 176.767 101.05 176.7C101.007 176.633 100.945 176.583 100.865 176.55C100.785 176.513 100.692 176.495 100.585 176.495ZM102.21 175.815H102.875V179.345H102.21V175.815ZM102.645 177.27H103.46V177.81H102.645V177.27ZM99.79 179.83H103.035V180.36H99.79V179.83ZM99.79 179.045H100.455V180.06H99.79V179.045ZM99.265 178.745L99.185 178.22C99.4483 178.22 99.7367 178.218 100.05 178.215C100.367 178.208 100.688 178.195 101.015 178.175C101.345 178.155 101.662 178.123 101.965 178.08L102.01 178.555C101.7 178.612 101.382 178.655 101.055 178.685C100.728 178.712 100.412 178.728 100.105 178.735C99.7983 178.742 99.5183 178.745 99.265 178.745ZM104.295 177.875H107.55V178.41H104.295V177.875ZM103.805 179.38H108V179.925H103.805V179.38ZM105.565 178.12H106.225V179.555H105.565V178.12ZM104.295 176.13H107.515V176.66H104.955V178.105H104.295V176.13Z" fill="black"/>
</g>
<g id="Sinan">
<path id="&#236;&#139;&#160;&#236;&#149;&#136;&#234;&#181;&#176;" d="M39.9004 58.0999L47.3004 60.5999L48.8004 65.4L49.0004 66.9V67.4L50.6004 70.4L49.5004 72.2L49.1004 72.7L48.1004 73.7999L45.3004 73.0999L44.5004 72.7L45.2004 67.4999L41.7004 69.5999L41.3004 66.0999L36.2004 65.2L36.1004 63.7999L35.8004 60.2L39.9004 58.0999ZM26.6004 90.7L27.4004 92.7L25.1004 94.0999L25.8004 96.7L25.4004 96.7999L25.2004 96.7L23.7004 97.5999L23.3004 97.7999L21.6004 98.2L20.8004 99.5999L20.2004 99.7L18.0004 95.2999L16.1004 97.0999L15.7004 97.2L11.8004 96.2999L10.6004 94.9L16.6004 88.9999L22.1004 89.2999L22.2004 84.9999L26.6004 90.7ZM51.5004 97.2L51.0004 93.4999H54.1004L51.3004 89.4999H56.1004L56.9004 89.7999L58.2004 90.0999L60.2004 91.7999L55.2004 94.7999L62.3004 98.2L60.8004 105L54.3004 98.7999L49.1004 100.6L48.8004 100.9L47.4004 100.6L44.2004 99.5999L45.0004 96.9L51.5004 97.2ZM26.0004 110.9L30.9004 111.5L31.2004 112.1L32.7004 113.9L34.4004 113.7L37.0004 114.9L37.9004 118.3L38.3004 118.9L37.6004 121.6L33.9004 122.6L32.4004 118L29.9004 120.2L24.4004 121V120.2L23.1004 111.6L23.9004 111.7L26.0004 110.9ZM6.90039 110.2L14.4004 105.9L14.5004 106.2L14.6004 112.8L11.0004 113L8.80039 111.7L7.10039 118.1L6.80039 118.7L6.40039 119H6.30039L4.80039 119.4L4.60039 119.5L0.900391 117.7L1.70039 109.6L6.90039 110.2ZM9.50039 116.6L11.5004 119.5L16.3004 122.1L9.00039 129L8.50039 128.8L4.60039 126.5L3.50039 120.4L4.60039 120L6.30039 119.5L7.60039 118.4L9.50039 116.6ZM20.3004 64.4999L22.8004 64.2999L21.9004 59.4L30.3004 53.2L35.7004 53.4L31.2004 55.0999L30.8004 59.5999L31.2004 61.2V62.7999L30.8004 64.2L30.3004 66.2999L26.3004 67.2999L25.3004 66.7V64.5999L23.5004 66.7L20.3004 64.4999ZM29.1004 94.2999L35.2004 97.2999L32.3004 97.0999L33.1004 102.6L30.4004 101.5L30.1004 106.7L27.0004 107.4L24.0004 104.7L22.4004 99.2L23.7004 98.7L25.4004 97.5999L26.3004 97.4L29.7004 98.9999L29.1004 94.2999ZM20.9004 133.3L27.1004 136.6L27.7004 138.9L27.2004 144.2L27.4004 145.3L27.2004 145.6L26.6004 145.3L18.2004 148.8L22.1004 146.1L18.5004 143.7H20.9004L22.4004 144.6L23.4004 142.6L25.5004 140.6L23.2004 139.2L20.9004 133.3ZM30.0004 72.7L36.6004 72.2999L37.4004 80.0999L32.7004 83.5999L31.8004 83.4L31.1004 83.7999L33.9004 77.4L28.8004 76.4L30.0004 72.7ZM34.3004 126.8L38.3004 132.3L40.4004 132.7L31.1004 136L30.1004 135.6L31.4004 131.6L29.1004 130.1L31.1004 128.8L34.3004 126.8ZM18.9004 141.6L16.6004 143.5L15.5004 133.5L19.3004 133.3L22.1004 139.5L22.3004 141L22.0004 142L21.3004 143L21.1004 143.1L20.9004 143L18.9004 141.6ZM33.8004 105L37.0004 107.9L35.8004 112.5L34.2004 113L33.2004 112.8L32.9004 113.1L31.6004 112L26.9004 109.4L26.4004 109.1L30.5004 107.5L33.8004 107.4V105Z" fill="#AFD88C" stroke="white" stroke-width="0.5"/>
<path id="&#236;&#139;&#160;&#236;&#149;&#136;" d="M19.708 90.652H20.24V93.352H19.708V90.652ZM17.772 93.864H20.336V94.292H17.772V93.864ZM17.772 93.092H18.304V94.084H17.772V93.092ZM18.032 90.856H18.472V91.216C18.472 91.456 18.4333 91.6853 18.356 91.904C18.2813 92.1227 18.1667 92.3147 18.012 92.48C17.8573 92.6453 17.66 92.7707 17.42 92.856L17.148 92.432C17.356 92.36 17.524 92.26 17.652 92.132C17.7827 92.004 17.8787 91.86 17.94 91.7C18.0013 91.54 18.032 91.3787 18.032 91.216V90.856ZM18.14 90.856H18.572V91.216C18.572 91.336 18.588 91.4547 18.62 91.572C18.6547 91.6867 18.7067 91.796 18.776 91.9C18.8453 92.0013 18.9347 92.0933 19.044 92.176C19.1533 92.2587 19.2827 92.324 19.432 92.372L19.164 92.792C18.9293 92.7147 18.736 92.5973 18.584 92.44C18.432 92.2827 18.32 92.0987 18.248 91.888C18.176 91.6773 18.14 91.4533 18.14 91.216V90.856ZM23.2237 90.652H23.7557V93.344H23.2237V90.652ZM23.6077 91.708H24.2477V92.148H23.6077V91.708ZM21.3677 93.864H23.8877V94.292H21.3677V93.864ZM21.3677 93.064H21.9037V94.056H21.3677V93.064ZM21.8717 90.888C22.061 90.888 22.2317 90.928 22.3837 91.008C22.5357 91.088 22.6557 91.1987 22.7437 91.34C22.8344 91.4813 22.8797 91.644 22.8797 91.828C22.8797 92.0093 22.8344 92.172 22.7437 92.316C22.6557 92.4573 22.5357 92.5693 22.3837 92.652C22.2317 92.732 22.061 92.772 21.8717 92.772C21.6824 92.772 21.5117 92.732 21.3597 92.652C21.2077 92.5693 21.0877 92.4573 20.9997 92.316C20.9117 92.172 20.8677 92.0093 20.8677 91.828C20.8677 91.644 20.9117 91.4813 20.9997 91.34C21.0877 91.1987 21.2077 91.088 21.3597 91.008C21.5117 90.928 21.6824 90.888 21.8717 90.888ZM21.8717 91.348C21.781 91.348 21.6984 91.368 21.6237 91.408C21.5517 91.4453 21.4944 91.5 21.4517 91.572C21.409 91.6413 21.3877 91.7267 21.3877 91.828C21.3877 91.9293 21.409 92.016 21.4517 92.088C21.4944 92.1573 21.5517 92.212 21.6237 92.252C21.6984 92.2893 21.781 92.308 21.8717 92.308C21.965 92.308 22.0477 92.2893 22.1197 92.252C22.1944 92.212 22.253 92.1573 22.2957 92.088C22.3384 92.016 22.3597 91.9293 22.3597 91.828C22.3597 91.7267 22.3384 91.6413 22.2957 91.572C22.253 91.5 22.1944 91.4453 22.1197 91.408C22.0477 91.368 21.965 91.348 21.8717 91.348Z" fill="black"/>
</g>
<g id="Jindo">
<path id="&#236;&#167;&#132;&#235;&#143;&#132;&#234;&#181;&#176;" d="M15.5996 186.1L18.5996 181.9L25.0996 184.1L25.7996 188.7L20.9996 188.6L15.5996 186.1ZM50.0996 174.5L50.4996 171.4L53.8996 172.6L50.0996 174.5ZM42.3996 148.8L48.0996 140.7L52.9996 142.7L54.1996 144.1L54.2996 146.1L58.2996 146.3L63.4996 155.3L63.7996 157.1H60.1996L62.0996 158.6L61.2996 162.7L60.9996 163.1L58.8996 166.1L58.0996 167.2L57.3996 169.2L54.9996 165.8L53.3996 169.2L47.7996 170.2L48.4996 172.6L30.4996 175.5L32.3996 171.9L28.4996 171.5L25.2996 166.2L30.5996 162.5L28.8996 159.8L36.1996 156L37.0996 153.2L38.3996 151.6L38.5996 151.4L38.1996 154.2L39.4996 152.1L42.7996 151.1L42.3996 148.8Z" fill="#AFD88C" stroke="white" stroke-width="0.5"/>
<path id="&#236;&#167;&#132;&#235;&#143;&#132;" d="M41.12 157.128H42V157.752C42 158.216 41.9227 158.659 41.768 159.08C41.6187 159.496 41.3893 159.861 41.08 160.176C40.7707 160.485 40.376 160.717 39.896 160.872L39.352 160.04C39.768 159.907 40.104 159.72 40.36 159.48C40.6213 159.24 40.8133 158.971 40.936 158.672C41.0587 158.368 41.12 158.061 41.12 157.752V157.128ZM41.344 157.128H42.208V157.752C42.208 157.971 42.2427 158.189 42.312 158.408C42.3813 158.621 42.4853 158.827 42.624 159.024C42.768 159.216 42.9493 159.389 43.168 159.544C43.3867 159.699 43.6453 159.824 43.944 159.92L43.408 160.744C42.944 160.595 42.56 160.371 42.256 160.072C41.952 159.773 41.7227 159.424 41.568 159.024C41.4187 158.619 41.344 158.195 41.344 157.752V157.128ZM39.64 156.824H43.672V157.672H39.64V156.824ZM44.416 156.304H45.48V161.648H44.416V156.304ZM40.544 162.728H45.672V163.584H40.544V162.728ZM40.544 161.168H41.608V163.152H40.544V161.168ZM47.4714 159.6H52.6794V160.456H47.4714V159.6ZM46.6874 162.008H53.3994V162.88H46.6874V162.008ZM49.5034 159.992H50.5594V162.288H49.5034V159.992ZM47.4714 156.808H52.6234V157.656H48.5274V159.968H47.4714V156.808Z" fill="black"/>
</g>
<g id="Gurye">
<path id="&#234;&#181;&#172;&#235;&#161;&#128;&#234;&#181;&#176;" d="M193.4 29.4999L200.1 20.0999L204.5 19.7L218.1 28.4999L224.2 48.2999L221.6 58.2999L215.8 61.9L212.7 60.4L196.6 47.4L192.4 46.5999L191.1 41.5999L195.7 39.0999L193.4 29.4999Z" fill="#AFD88C" stroke="white" stroke-width="0.5"/>
<path id="&#234;&#181;&#172;&#235;&#161;&#128;" d="M202.096 37.728H206.736V38.568H202.096V37.728ZM201.328 40.88H208.032V41.744H201.328V40.88ZM204.104 41.488H205.176V44.712H204.104V41.488ZM206.192 37.728H207.24V38.384C207.24 38.6507 207.235 38.9333 207.224 39.232C207.219 39.5307 207.197 39.8587 207.16 40.216C207.123 40.568 207.053 40.9627 206.952 41.4L205.912 41.272C206.051 40.6587 206.131 40.1227 206.152 39.664C206.179 39.2 206.192 38.7733 206.192 38.384V37.728ZM208.887 42.168H209.375C209.765 42.168 210.143 42.1573 210.511 42.136C210.885 42.1147 211.282 42.0693 211.703 42L211.783 42.864C211.346 42.9387 210.938 42.9867 210.559 43.008C210.181 43.0293 209.786 43.04 209.375 43.04H208.887V42.168ZM208.871 38.008H211.383V40.864H209.919V42.424H208.887V40.032H210.359V38.856H208.871V38.008ZM214.031 37.296H215.047V44.704H214.031V37.296ZM211.735 39.12H212.911V39.968H211.735V39.12ZM212.511 37.416H213.503V44.36H212.511V37.416ZM211.735 40.952H212.911V41.808H211.735V40.952Z" fill="black"/>
</g>
<g id="Goheung">
<path id="&#234;&#179;&#160;&#237;&#157;&#165;&#234;&#181;&#176;" d="M202.601 158.7L206.001 161.6L208.801 159.1L213.101 163.4L212.301 167.1L206.601 168.6L207.301 165.6L203.401 163.8L206.301 163.2L201.701 163L202.301 161.1V158.9L202.601 158.7ZM171.401 155.6L173.901 158.9L170.401 165.9L156.301 163.8L155.801 158.9L158.301 156.4L161.801 159.1L165.201 157.3L170.601 155.9L171.401 155.6ZM202.201 148.1L205.401 149.1L202.701 152.8L208.201 154.6L207.801 157.2L202.801 158.2H202.101L200.701 156.3L200.901 155.5L202.901 154.1L199.701 151.8L199.901 151.4L201.001 149.6L201.601 148.9L202.201 148.1ZM173.301 114.6L175.701 109.6L187.601 103.7L194.801 112.3L192.501 119.4L200.701 129.4L207.101 132.1L203.001 132.8L207.801 134.3L209.001 138.6L206.601 143.3L202.701 139.7L201.201 142.9L194.601 141.3L195.701 144.1L199.001 144.6L194.701 145.6L200.101 147L199.901 149L199.301 151.7V151.9L199.101 152.9L197.001 151.5L195.601 154.1L192.401 154.2L194.101 156.7L189.801 156.1L188.501 158.4L187.501 156.5L184.301 160.5L185.801 164L178.101 157.7L180.101 154.6L179.001 154.8L168.701 149.8L165.701 151.8L165.501 151.9L163.101 151.5L159.401 150.5L158.801 144.6L159.501 143.8L162.301 139.8L162.701 139.2L165.601 140.1L165.801 135.1L167.901 132.5L172.901 130.8L173.501 126.7L179.701 120.9L179.901 130.3L187.901 122.1L185.601 115.5L177.501 118.8L173.301 114.6Z" fill="#AFD88C" stroke="white" stroke-width="0.5"/>
<path id="&#234;&#179;&#160;&#237;&#157;&#165;" d="M177.016 137.928H181.704V138.776H177.016V137.928ZM176.328 142.952H183.032V143.816H176.328V142.952ZM178.696 140.408H179.768V143.384H178.696V140.408ZM181.32 137.928H182.392V138.632C182.392 138.941 182.387 139.269 182.376 139.616C182.371 139.963 182.347 140.347 182.304 140.768C182.267 141.189 182.197 141.661 182.096 142.184L181.032 142.072C181.181 141.331 181.267 140.685 181.288 140.136C181.309 139.581 181.32 139.08 181.32 138.632V137.928ZM187.015 142.408C187.837 142.408 188.471 142.507 188.919 142.704C189.367 142.901 189.591 143.187 189.591 143.56C189.591 143.944 189.367 144.232 188.919 144.424C188.471 144.621 187.837 144.72 187.015 144.72C186.199 144.72 185.567 144.621 185.119 144.424C184.671 144.232 184.447 143.947 184.447 143.568C184.447 143.189 184.671 142.901 185.119 142.704C185.567 142.507 186.199 142.408 187.015 142.408ZM187.023 143.176C186.506 143.176 186.127 143.208 185.887 143.272C185.647 143.331 185.527 143.427 185.527 143.56C185.527 143.699 185.647 143.8 185.887 143.864C186.127 143.923 186.506 143.952 187.023 143.952C187.535 143.952 187.909 143.923 188.143 143.864C188.383 143.8 188.503 143.699 188.503 143.56C188.503 143.427 188.383 143.331 188.143 143.272C187.909 143.208 187.535 143.176 187.023 143.176ZM183.999 137.832H190.039V138.632H183.999V137.832ZM187.031 138.824C187.831 138.824 188.445 138.915 188.871 139.096C189.298 139.277 189.511 139.541 189.511 139.888C189.511 140.24 189.298 140.507 188.871 140.688C188.445 140.864 187.831 140.952 187.031 140.952C186.242 140.952 185.631 140.864 185.199 140.688C184.767 140.507 184.551 140.24 184.551 139.888C184.551 139.541 184.767 139.277 185.199 139.096C185.631 138.915 186.242 138.824 187.031 138.824ZM187.031 139.544C186.578 139.544 186.242 139.571 186.023 139.624C185.805 139.677 185.695 139.768 185.695 139.896C185.695 140.013 185.805 140.101 186.023 140.16C186.242 140.213 186.578 140.24 187.031 140.24C187.495 140.24 187.834 140.213 188.047 140.16C188.266 140.101 188.375 140.013 188.375 139.896C188.375 139.768 188.266 139.677 188.047 139.624C187.834 139.571 187.495 139.544 187.031 139.544ZM186.503 137.232H187.559V138.376H186.503V137.232ZM183.679 141.264H190.383V142.088H183.679V141.264Z" fill="black"/>
</g>
<g id="Naju">
<path id="&#235;&#130;&#152;&#236;&#163;&#188;&#236;&#139;&#156;" d="M99.7012 58.3999L109.601 58.7999L114.501 65.4999L112.601 67.3999L120.501 68.2999L130.101 64.3999L126.901 74.9999L130.301 77.6999L126.601 85.9999L127.901 92.3999L122.001 95.7999V95.8999L121.101 96.6999L107.701 93.0999L104.901 85.4999L101.301 84.8999L102.001 94.7999L96.9012 93.6999L92.9012 87.1999L86.6012 96.6999L86.5012 96.5999L85.4012 94.0999L81.2012 88.8999H84.8012V80.0999L86.9012 77.9999L89.6012 80.1999L91.5012 76.7999L91.9012 60.8999L95.5012 62.6999L99.7012 58.3999Z" fill="#AFD88C" stroke="white" stroke-width="0.5"/>
<path id="&#235;&#130;&#152;&#236;&#163;&#188;" d="M104.856 76.096H106.16V76.976H104.856V76.096ZM104.056 73.288H105.128V80.696H104.056V73.288ZM99.552 74H100.608V78.608H99.552V74ZM99.552 78.008H100.184C100.712 78.008 101.261 77.9867 101.832 77.944C102.403 77.9013 102.987 77.8213 103.584 77.704L103.696 78.568C103.077 78.696 102.475 78.784 101.888 78.832C101.301 78.8747 100.733 78.896 100.184 78.896H99.552V78.008ZM109.423 74.12H110.351V74.344C110.351 74.6 110.309 74.848 110.223 75.088C110.143 75.328 110.021 75.552 109.855 75.76C109.69 75.9627 109.487 76.1467 109.247 76.312C109.013 76.472 108.741 76.608 108.431 76.72C108.122 76.832 107.778 76.912 107.399 76.96L107.007 76.136C107.338 76.0933 107.631 76.0293 107.887 75.944C108.149 75.8533 108.375 75.7493 108.567 75.632C108.759 75.5093 108.919 75.3787 109.047 75.24C109.175 75.1013 109.269 74.9547 109.327 74.8C109.391 74.6453 109.423 74.4933 109.423 74.344V74.12ZM109.735 74.12H110.655V74.344C110.655 74.4933 110.685 74.6453 110.743 74.8C110.807 74.9547 110.903 75.1013 111.031 75.24C111.159 75.3787 111.319 75.5093 111.511 75.632C111.709 75.7493 111.935 75.8533 112.191 75.944C112.447 76.0293 112.741 76.0933 113.071 76.136L112.679 76.96C112.301 76.912 111.957 76.832 111.647 76.72C111.338 76.608 111.063 76.472 110.823 76.312C110.589 76.1467 110.389 75.9627 110.223 75.76C110.063 75.552 109.941 75.328 109.855 75.088C109.775 74.848 109.735 74.6 109.735 74.344V74.12ZM109.479 78H110.543V80.712H109.479V78ZM106.687 77.384H113.391V78.24H106.687V77.384ZM107.279 73.68H112.775V74.52H107.279V73.68Z" fill="black"/>
</g>
</g>
</svg>
