<svg width="191" height="135" viewBox="0 0 191 135" fill="none" xmlns="http://www.w3.org/2000/svg">
<g id="jeonbuk">
<g id="Jangsu">
<path id="&#236;&#158;&#165;&#236;&#136;&#152;&#234;&#181;&#176;" d="M153.5 50.6001L154.8 54.7001L160.5 55.1001L163.6 58.5001L161.1 61.6001L153.5 80.8001L155.5 85.1001L149 95.2001L147 98.4001L146.2 106.2L143.9 108.6L140 106.8L141.7 104.3L136.7 97.9001L126.8 94.1001L125.3 96.3001L120.8 94.5001L120.6 93.8001L122.9 85.9001L127.2 85.8001H127.3L128.4 85.6001L130 84.6001L130.1 84.5001L134.2 84.7001L135.4 71.2001L141.1 63.9001L140.9 54.8001L148.2 57.7001L153.5 50.6001Z" fill="#AFD88C" stroke="white" stroke-width="0.5"/>
<path id="&#236;&#158;&#165;&#236;&#136;&#152;" d="M136.976 81.128H137.848V81.592C137.848 82.0613 137.771 82.5067 137.616 82.928C137.467 83.3493 137.237 83.72 136.928 84.04C136.619 84.3547 136.227 84.5893 135.752 84.744L135.224 83.904C135.629 83.7707 135.96 83.584 136.216 83.344C136.477 83.0987 136.669 82.824 136.792 82.52C136.915 82.2107 136.976 81.9013 136.976 81.592V81.128ZM137.192 81.128H138.048V81.592C138.048 81.88 138.107 82.16 138.224 82.432C138.341 82.6987 138.523 82.9387 138.768 83.152C139.019 83.3653 139.344 83.5333 139.744 83.656L139.232 84.488C138.763 84.3493 138.376 84.136 138.072 83.848C137.773 83.5547 137.552 83.216 137.408 82.832C137.264 82.4427 137.192 82.0293 137.192 81.592V81.128ZM135.496 80.792H139.504V81.64H135.496V80.792ZM140.088 80.304H141.152V84.696H140.088V80.304ZM140.864 82H142.136V82.872H140.864V82ZM138.736 84.824C139.253 84.824 139.699 84.8827 140.072 85C140.445 85.112 140.733 85.2747 140.936 85.488C141.139 85.7013 141.24 85.96 141.24 86.264C141.24 86.568 141.139 86.8267 140.936 87.04C140.733 87.2587 140.445 87.424 140.072 87.536C139.699 87.6533 139.253 87.712 138.736 87.712C138.224 87.712 137.779 87.6533 137.4 87.536C137.027 87.424 136.736 87.2587 136.528 87.04C136.325 86.8267 136.224 86.568 136.224 86.264C136.224 85.96 136.325 85.7013 136.528 85.488C136.736 85.2747 137.027 85.112 137.4 85C137.779 84.8827 138.224 84.824 138.736 84.824ZM138.736 85.656C138.421 85.656 138.157 85.6773 137.944 85.72C137.731 85.7627 137.568 85.8293 137.456 85.92C137.344 86.0107 137.288 86.1253 137.288 86.264C137.288 86.408 137.344 86.5253 137.456 86.616C137.568 86.7067 137.731 86.776 137.944 86.824C138.157 86.8667 138.421 86.888 138.736 86.888C139.051 86.888 139.315 86.8667 139.528 86.824C139.747 86.776 139.909 86.7067 140.016 86.616C140.128 86.5253 140.184 86.408 140.184 86.264C140.184 86.1253 140.128 86.0107 140.016 85.92C139.909 85.8293 139.747 85.7627 139.528 85.72C139.315 85.6773 139.051 85.656 138.736 85.656ZM145.479 80.512H146.407V80.864C146.407 81.1467 146.362 81.4213 146.271 81.688C146.186 81.9493 146.058 82.1947 145.887 82.424C145.717 82.6533 145.509 82.8587 145.263 83.04C145.018 83.2213 144.733 83.376 144.407 83.504C144.087 83.6267 143.735 83.72 143.351 83.784L142.935 82.928C143.277 82.8853 143.581 82.8133 143.847 82.712C144.119 82.6107 144.357 82.4907 144.559 82.352C144.767 82.2133 144.938 82.0613 145.071 81.896C145.205 81.7307 145.306 81.56 145.375 81.384C145.445 81.208 145.479 81.0347 145.479 80.864V80.512ZM145.679 80.512H146.607V80.864C146.607 81.0347 146.642 81.208 146.711 81.384C146.781 81.56 146.882 81.7307 147.015 81.896C147.149 82.0613 147.317 82.2133 147.519 82.352C147.727 82.4907 147.965 82.6107 148.231 82.712C148.503 82.8133 148.81 82.8853 149.151 82.928L148.735 83.784C148.346 83.72 147.991 83.6267 147.671 83.504C147.351 83.376 147.069 83.2213 146.823 83.04C146.578 82.8533 146.37 82.6453 146.199 82.416C146.029 82.1867 145.898 81.9413 145.807 81.68C145.722 81.4187 145.679 81.1467 145.679 80.864V80.512ZM145.479 84.992H146.543V87.712H145.479V84.992ZM142.687 84.32H149.391V85.184H142.687V84.32Z" fill="black"/>
</g>
<g id="Imsil">
<path id="&#236;&#158;&#132;&#236;&#139;&#164;&#234;&#181;&#176;" d="M90.9004 82.1002L90.8004 78.3002L91.1004 77.1002L92.2004 69.3002L97.2004 66.4002L101.3 70.7002L106.1 73.9002L107.1 67.3002L105.9 63.2002V63.1002L107.6 61.7002L108.1 60.7002L109.1 60.2002L111.6 70.3002L111.2 74.3002L118.8 77.7002L129.1 81.4002L130 84.6002L128.5 85.6002H128.4L127.3 85.8002L122.9 85.9002L120.6 93.8002L120.8 94.5002L120.7 94.6002L117 95.5002L117.5 99.3002L119.8 103.6L119.4 104L118.1 104.2L113.6 105.8L113.7 107.1L103.7 107.6L100.8 105.2L99.3004 105.3L99.2004 105.6L99.1004 105.7L94.2004 109.7L90.8004 103L88.3004 102.1L88.2004 101.8L86.3004 100.6L89.2004 98.5002L85.1004 95.7002L84.9004 90.3002L87.4004 89.4002L86.3004 84.5002L87.9004 84.8002L90.9004 82.1002Z" fill="#AFD88C" stroke="white" stroke-width="0.5"/>
<path id="&#236;&#158;&#132;&#236;&#139;&#164;" d="M100.416 85.304H101.48V89.496H100.416V85.304ZM96.552 89.824H101.48V92.632H96.552V89.824ZM100.44 90.664H97.6V91.792H100.44V90.664ZM97.448 85.64C97.832 85.64 98.176 85.7173 98.48 85.872C98.784 86.0213 99.024 86.2293 99.2 86.496C99.376 86.7627 99.464 87.0693 99.464 87.416C99.464 87.7627 99.376 88.072 99.2 88.344C99.024 88.6107 98.784 88.8213 98.48 88.976C98.176 89.1253 97.832 89.2 97.448 89.2C97.064 89.2 96.72 89.1253 96.416 88.976C96.112 88.8213 95.872 88.6107 95.696 88.344C95.52 88.072 95.432 87.7627 95.432 87.416C95.432 87.0693 95.52 86.7627 95.696 86.496C95.872 86.2293 96.112 86.0213 96.416 85.872C96.72 85.7173 97.064 85.64 97.448 85.64ZM97.448 86.52C97.2667 86.52 97.1013 86.5573 96.952 86.632C96.8027 86.7013 96.6853 86.8027 96.6 86.936C96.5147 87.064 96.472 87.224 96.472 87.416C96.472 87.6027 96.5147 87.7653 96.6 87.904C96.6853 88.0373 96.8027 88.1387 96.952 88.208C97.1013 88.2773 97.2667 88.312 97.448 88.312C97.6347 88.312 97.8 88.2773 97.944 88.208C98.0933 88.1387 98.2107 88.0373 98.296 87.904C98.3813 87.7653 98.424 87.6027 98.424 87.416C98.424 87.224 98.3813 87.064 98.296 86.936C98.2107 86.8027 98.0933 86.7013 97.944 86.632C97.8 86.5573 97.6347 86.52 97.448 86.52ZM107.775 85.304H108.839V89.04H107.775V85.304ZM103.903 89.368H108.839V91.376H104.959V92.12H103.911V90.616H107.783V90.184H103.903V89.368ZM103.911 91.832H109.023V92.664H103.911V91.832ZM104.423 85.472H105.303V86.024C105.303 86.4773 105.226 86.9093 105.071 87.32C104.917 87.7307 104.679 88.088 104.359 88.392C104.045 88.696 103.645 88.9227 103.159 89.072L102.647 88.232C102.957 88.136 103.223 88.0107 103.447 87.856C103.671 87.7013 103.855 87.5253 103.999 87.328C104.143 87.1307 104.25 86.9227 104.319 86.704C104.389 86.48 104.423 86.2533 104.423 86.024V85.472ZM104.639 85.472H105.503V86.024C105.503 86.248 105.538 86.4667 105.607 86.68C105.677 86.888 105.781 87.0853 105.919 87.272C106.058 87.4587 106.237 87.624 106.455 87.768C106.674 87.912 106.933 88.0267 107.231 88.112L106.719 88.944C106.367 88.8373 106.061 88.6907 105.799 88.504C105.538 88.312 105.319 88.088 105.143 87.832C104.973 87.5707 104.845 87.288 104.759 86.984C104.679 86.68 104.639 86.36 104.639 86.024V85.472Z" fill="black"/>
</g>
<g id="Wansan">
<path id="&#236;&#160;&#132;&#236;&#163;&#188;&#236;&#139;&#156;_&#236;&#153;&#132;&#236;&#130;&#176;&#234;&#181;&#172;" d="M84.4004 52.0002L87.8004 49.9001L91.5004 53.9001L94.5004 52.1002L102.1 56.4001L99.8004 60.6002L95.1004 59.2002L85.3004 67.8001L80.9004 63.5002L82.8004 58.0002L83.1004 52.7002L84.4004 52.0002Z" fill="#AFD88C" stroke="white" stroke-width="0.5"/>
<path id="&#236;&#160;&#132;&#236;&#163;&#188; &#236;&#153;&#132;&#236;&#130;&#176;" d="M85.8414 56.0276H86.6584V56.4342H85.8414V56.0276ZM86.3924 55.1194H86.9016V57.6844H86.3924V55.1194ZM84.576 58.1708H86.9814V58.5774H84.576V58.1708ZM84.576 57.4678H85.0814V58.4102H84.576V57.4678ZM84.7698 55.5792H85.1802V55.7996C85.1802 56.0226 85.1447 56.2341 85.0738 56.4342C85.0028 56.6344 84.8939 56.8104 84.747 56.9624C84.6026 57.1119 84.4164 57.2246 84.1884 57.3006L83.9376 56.8978C84.082 56.8497 84.2061 56.7876 84.31 56.7116C84.4164 56.6331 84.5025 56.5444 84.5684 56.4456C84.6368 56.3468 84.6874 56.243 84.7204 56.134C84.7533 56.0251 84.7698 55.9136 84.7698 55.7996V55.5792ZM84.8762 55.5792H85.279V55.7996C85.279 55.9364 85.3068 56.0732 85.3626 56.21C85.4183 56.3443 85.5044 56.4672 85.621 56.5786C85.74 56.6876 85.892 56.7737 86.077 56.837L85.83 57.2284C85.6121 57.155 85.4322 57.0473 85.2904 56.9054C85.151 56.761 85.0472 56.5938 84.9788 56.4038C84.9104 56.2113 84.8762 56.0099 84.8762 55.7996V55.5792ZM84.0744 55.355H85.9668V55.7578H84.0744V55.355ZM88.7519 55.507H89.1927V55.6134C89.1927 55.735 89.1724 55.8528 89.1319 55.9668C89.0939 56.0808 89.0356 56.1872 88.9571 56.286C88.8786 56.3823 88.7823 56.4697 88.6683 56.5482C88.5568 56.6242 88.4276 56.6888 88.2807 56.742C88.1338 56.7952 87.9704 56.8332 87.7905 56.856L87.6043 56.4646C87.7614 56.4444 87.9007 56.414 88.0223 56.3734C88.1464 56.3304 88.2541 56.281 88.3453 56.2252C88.4365 56.167 88.5125 56.1049 88.5733 56.039C88.6341 55.9732 88.6784 55.9035 88.7063 55.83C88.7367 55.7566 88.7519 55.6844 88.7519 55.6134V55.507ZM88.9001 55.507H89.3371V55.6134C89.3371 55.6844 89.351 55.7566 89.3789 55.83C89.4093 55.9035 89.4549 55.9732 89.5157 56.039C89.5765 56.1049 89.6525 56.167 89.7437 56.2252C89.8374 56.281 89.9451 56.3304 90.0667 56.3734C90.1883 56.414 90.3276 56.4444 90.4847 56.4646L90.2985 56.856C90.1186 56.8332 89.9552 56.7952 89.8083 56.742C89.6614 56.6888 89.5309 56.6242 89.4169 56.5482C89.3054 56.4697 89.2104 56.3823 89.1319 56.286C89.0559 56.1872 88.9976 56.0808 88.9571 55.9668C88.9191 55.8528 88.9001 55.735 88.9001 55.6134V55.507ZM88.7785 57.35H89.2839V58.6382H88.7785V57.35ZM87.4523 57.0574H90.6367V57.464H87.4523V57.0574ZM87.7335 55.298H90.3441V55.697H87.7335V55.298ZM92.6886 56.5406H93.194V57.0764H92.6886V56.5406ZM92.9394 55.26C93.1091 55.26 93.2598 55.2904 93.3916 55.3512C93.5233 55.4095 93.6272 55.4931 93.7032 55.602C93.7792 55.7084 93.8172 55.8326 93.8172 55.9744C93.8172 56.1138 93.7792 56.2379 93.7032 56.3468C93.6272 56.4532 93.5233 56.5368 93.3916 56.5976C93.2598 56.6584 93.1091 56.6888 92.9394 56.6888C92.7696 56.6888 92.6176 56.6584 92.4834 56.5976C92.3516 56.5368 92.2478 56.4532 92.1718 56.3468C92.0958 56.2379 92.0578 56.1138 92.0578 55.9744C92.0578 55.8326 92.0958 55.7084 92.1718 55.602C92.2478 55.4931 92.3516 55.4095 92.4834 55.3512C92.6176 55.2904 92.7696 55.26 92.9394 55.26ZM92.9394 55.6362C92.8608 55.6362 92.7899 55.6502 92.7266 55.678C92.6658 55.7034 92.6176 55.7414 92.5822 55.792C92.5467 55.8427 92.529 55.9035 92.529 55.9744C92.529 56.0454 92.5467 56.1062 92.5822 56.1568C92.6176 56.205 92.6658 56.243 92.7266 56.2708C92.7899 56.2962 92.8608 56.3088 92.9394 56.3088C93.0204 56.3088 93.0914 56.2962 93.1522 56.2708C93.213 56.243 93.2598 56.205 93.2928 56.1568C93.3282 56.1062 93.346 56.0454 93.346 55.9744C93.346 55.9035 93.3282 55.8427 93.2928 55.792C93.2598 55.7414 93.213 55.7034 93.1522 55.678C93.0914 55.6502 93.0204 55.6362 92.9394 55.6362ZM94.1744 55.1194H94.6798V57.8022H94.1744V55.1194ZM94.505 56.2252H95.1244V56.6356H94.505V56.2252ZM92.3352 58.1708H94.8014V58.5736H92.3352V58.1708ZM92.3352 57.5742H92.8406V58.3456H92.3352V57.5742ZM91.9362 57.3462L91.8754 56.9472C92.0755 56.9472 92.2946 56.946 92.5328 56.9434C92.7734 56.9384 93.0179 56.9282 93.2662 56.913C93.517 56.8978 93.7576 56.8738 93.9882 56.8408L94.0224 57.2018C93.7868 57.2449 93.5448 57.2778 93.2966 57.3006C93.0483 57.3209 92.8076 57.3336 92.5746 57.3386C92.3415 57.3437 92.1287 57.3462 91.9362 57.3462ZM96.1729 55.3322H96.5909V55.7122C96.5909 55.9453 96.5541 56.1644 96.4807 56.3696C96.4097 56.5723 96.3008 56.7496 96.1539 56.9016C96.0095 57.0536 95.8245 57.1676 95.5991 57.2436L95.3293 56.8522C95.5294 56.7864 95.6915 56.6952 95.8157 56.5786C95.9398 56.4596 96.0297 56.3253 96.0855 56.1758C96.1437 56.0238 96.1729 55.8693 96.1729 55.7122V55.3322ZM96.2755 55.3322H96.6859V55.716C96.6859 55.8275 96.7011 55.9377 96.7315 56.0466C96.7619 56.153 96.81 56.2544 96.8759 56.3506C96.9417 56.4444 97.0253 56.5292 97.1267 56.6052C97.228 56.6787 97.3496 56.7382 97.4915 56.7838L97.2331 57.179C97.0127 57.1056 96.8315 56.9966 96.6897 56.8522C96.5503 56.7053 96.4465 56.5343 96.3781 56.3392C96.3097 56.1442 96.2755 55.9364 96.2755 55.716V55.3322ZM97.6473 55.1194H98.1527V57.692H97.6473V55.1194ZM98.0121 56.1378H98.6201V56.552H98.0121V56.1378ZM95.8879 58.1708H98.2781V58.5774H95.8879V58.1708ZM95.8879 57.445H96.3971V58.3874H95.8879V57.445Z" fill="black"/>
</g>
<g id="Deokjin">
<path id="&#236;&#160;&#132;&#236;&#163;&#188;&#236;&#139;&#156;_&#235;&#141;&#149;&#236;&#167;&#132;&#234;&#181;&#172;" d="M102.101 56.4002L94.5008 52.1002L91.5008 53.9002L87.8008 49.9002L84.4008 52.0002L83.1008 52.7002L75.4008 46.2002L74.3008 43.4002L79.6008 41.3002L92.0008 40.7002L96.0008 48.3002L99.6008 47.2002L104.301 53.2002L102.101 56.4002Z" fill="#AFD88C" stroke="white" stroke-width="0.5"/>
<path id="&#236;&#160;&#132;&#236;&#163;&#188; &#235;&#141;&#149;&#236;&#167;&#132;" d="M80.0406 44.7276H80.8576V45.1342H80.0406V44.7276ZM80.5916 43.8194H81.1008V46.3844H80.5916V43.8194ZM78.7752 46.8708H81.1806V47.2774H78.7752V46.8708ZM78.7752 46.1678H79.2806V47.1102H78.7752V46.1678ZM78.969 44.2792H79.3794V44.4996C79.3794 44.7225 79.3439 44.9341 79.273 45.1342C79.2021 45.3343 79.0931 45.5104 78.9462 45.6624C78.8018 45.8119 78.6156 45.9246 78.3876 46.0006L78.1368 45.5978C78.2812 45.5497 78.4053 45.4876 78.5092 45.4116C78.6156 45.3331 78.7017 45.2444 78.7676 45.1456C78.836 45.0468 78.8867 44.9429 78.9196 44.834C78.9525 44.7251 78.969 44.6136 78.969 44.4996V44.2792ZM79.0754 44.2792H79.4782V44.4996C79.4782 44.6364 79.5061 44.7732 79.5618 44.91C79.6175 45.0443 79.7037 45.1671 79.8202 45.2786C79.9393 45.3875 80.0913 45.4737 80.2762 45.537L80.0292 45.9284C79.8113 45.8549 79.6315 45.7473 79.4896 45.6054C79.3503 45.461 79.2464 45.2938 79.178 45.1038C79.1096 44.9113 79.0754 44.7099 79.0754 44.4996V44.2792ZM78.2736 44.055H80.166V44.4578H78.2736V44.055ZM82.9511 44.207H83.3919V44.3134C83.3919 44.435 83.3716 44.5528 83.3311 44.6668C83.2931 44.7808 83.2348 44.8872 83.1563 44.986C83.0778 45.0823 82.9815 45.1697 82.8675 45.2482C82.756 45.3242 82.6268 45.3888 82.4799 45.442C82.333 45.4952 82.1696 45.5332 81.9897 45.556L81.8035 45.1646C81.9606 45.1443 82.0999 45.1139 82.2215 45.0734C82.3456 45.0303 82.4533 44.9809 82.5445 44.9252C82.6357 44.8669 82.7117 44.8049 82.7725 44.739C82.8333 44.6731 82.8776 44.6035 82.9055 44.53C82.9359 44.4565 82.9511 44.3843 82.9511 44.3134V44.207ZM83.0993 44.207H83.5363V44.3134C83.5363 44.3843 83.5502 44.4565 83.5781 44.53C83.6085 44.6035 83.6541 44.6731 83.7149 44.739C83.7757 44.8049 83.8517 44.8669 83.9429 44.9252C84.0366 44.9809 84.1443 45.0303 84.2659 45.0734C84.3875 45.1139 84.5268 45.1443 84.6839 45.1646L84.4977 45.556C84.3178 45.5332 84.1544 45.4952 84.0075 45.442C83.8606 45.3888 83.7301 45.3242 83.6161 45.2482C83.5046 45.1697 83.4096 45.0823 83.3311 44.986C83.2551 44.8872 83.1968 44.7808 83.1563 44.6668C83.1183 44.5528 83.0993 44.435 83.0993 44.3134V44.207ZM82.9777 46.05H83.4831V47.3382H82.9777V46.05ZM81.6515 45.7574H84.8359V46.164H81.6515V45.7574ZM81.9327 43.998H84.5433V44.397H81.9327V43.998ZM86.276 45.4306H86.5534C86.789 45.4306 86.9904 45.4281 87.1576 45.423C87.3248 45.4154 87.4755 45.4053 87.6098 45.3926C87.7441 45.3774 87.8771 45.3559 88.0088 45.328L88.0582 45.727C87.9214 45.7574 87.7833 45.7802 87.644 45.7954C87.5047 45.8106 87.3476 45.8207 87.1728 45.8258C87.0005 45.8309 86.7941 45.8334 86.5534 45.8334H86.276V45.4306ZM86.276 44.055H87.8568V44.4578H86.7776V45.5408H86.276V44.055ZM86.6332 46.0956H89.0348V47.3382H88.5256V46.4984H86.6332V46.0956ZM88.5256 43.8156H89.0348V45.9436H88.5256V43.8156ZM87.6972 44.6972H88.6586V45.0962H87.6972V44.6972ZM90.4367 44.2108H90.8547V44.5072C90.8547 44.7276 90.818 44.9379 90.7445 45.138C90.6736 45.3356 90.5646 45.5091 90.4177 45.6586C90.2708 45.8055 90.0833 45.9157 89.8553 45.9892L89.5969 45.594C89.7945 45.5307 89.9541 45.442 90.0757 45.328C90.1998 45.214 90.291 45.0861 90.3493 44.9442C90.4076 44.7998 90.4367 44.6541 90.4367 44.5072V44.2108ZM90.5431 44.2108H90.9535V44.5072C90.9535 44.6111 90.97 44.7149 91.0029 44.8188C91.0358 44.9201 91.0852 45.0177 91.1511 45.1114C91.2195 45.2026 91.3056 45.2849 91.4095 45.3584C91.5134 45.4319 91.6362 45.4914 91.7781 45.537L91.5235 45.9284C91.3031 45.8575 91.1207 45.7511 90.9763 45.6092C90.8319 45.4673 90.723 45.3014 90.6495 45.1114C90.5786 44.9189 90.5431 44.7175 90.5431 44.5072V44.2108ZM89.7337 44.0664H91.6489V44.4692H89.7337V44.0664ZM92.0023 43.8194H92.5077V46.3578H92.0023V43.8194ZM90.1631 46.8708H92.5989V47.2774H90.1631V46.8708ZM90.1631 46.1298H90.6685V47.0722H90.1631V46.1298Z" fill="black"/>
</g>
<g id="Gunsan">
<path id="&#234;&#181;&#176;&#236;&#130;&#176;&#236;&#139;&#156;" d="M14.4008 34.4002L12.8008 28.8002L36.0008 26.9002L36.2008 26.7002L38.3008 26.5002L42.4008 27.2002L42.7008 21.1002L57.6008 15.7002L63.9008 25.2002L55.7008 38.2002L47.9008 41.5002V44.3002L39.9008 44.6002L38.5008 44.8002H38.3008L34.8008 45.3002H34.5008L33.4008 45.4002L33.2008 42.4002L27.8008 42.8002H25.4008L25.9008 34.0002L14.4008 34.4002Z" fill="#AFD88C" stroke="white" stroke-width="0.5"/>
<path id="&#234;&#181;&#176;&#236;&#130;&#176;" d="M37.152 29.64H41.832V30.488H37.152V29.64ZM36.328 32.424H43.04V33.272H36.328V32.424ZM39.2 32.936H40.264V34.84H39.2V32.936ZM41.2 29.64H42.256V30.28C42.256 30.632 42.2453 31.0133 42.224 31.424C42.208 31.8293 42.1387 32.296 42.016 32.824L40.968 32.72C41.0853 32.208 41.152 31.76 41.168 31.376C41.1893 30.992 41.2 30.6267 41.2 30.28V29.64ZM37.104 35.728H42.36V36.584H37.104V35.728ZM37.104 34.184H38.168V35.912H37.104V34.184ZM45.3434 29.752H46.2234V30.552C46.2234 31.0427 46.146 31.504 45.9914 31.936C45.842 32.3627 45.6127 32.736 45.3034 33.056C44.9994 33.376 44.61 33.616 44.1354 33.776L43.5674 32.952C43.9887 32.8133 44.33 32.6213 44.5914 32.376C44.8527 32.1253 45.042 31.8427 45.1594 31.528C45.282 31.208 45.3434 30.8827 45.3434 30.552V29.752ZM45.5594 29.752H46.4234V30.56C46.4234 30.7947 46.4554 31.0267 46.5194 31.256C46.5834 31.48 46.6847 31.6933 46.8234 31.896C46.962 32.0933 47.138 32.272 47.3514 32.432C47.5647 32.5867 47.8207 32.712 48.1194 32.808L47.5754 33.64C47.1114 33.4853 46.73 33.256 46.4314 32.952C46.138 32.6427 45.9194 32.2827 45.7754 31.872C45.6314 31.4613 45.5594 31.024 45.5594 30.56V29.752ZM48.4474 29.304H49.5114V34.72H48.4474V29.304ZM49.2154 31.448H50.4954V32.32H49.2154V31.448ZM44.7434 35.728H49.7754V36.584H44.7434V35.728ZM44.7434 34.2H45.8154V36.184H44.7434V34.2Z" fill="black"/>
</g>
<g id="Iksan">
<path id="&#236;&#157;&#181;&#236;&#130;&#176;&#236;&#139;&#156;" d="M58.3992 14.0001L59.7992 5.10007L69.2992 0.800049L75.5992 1.80005L80.4992 2.50006L82.4992 11.4001L91.3992 15.1001L86.3992 36.1001L79.7992 36.9001L79.4992 41.3L74.2992 43.4001L68.9992 38.3L63.0992 40.4001L55.6992 38.2001L63.8992 25.1001L57.5992 15.7001L58.3992 14.0001Z" fill="#AFD88C" stroke="white" stroke-width="0.5"/>
<path id="&#236;&#157;&#181;&#236;&#130;&#176;" d="M67.432 22.992H72.48V25.712H71.416V23.84H67.432V22.992ZM71.416 18.304H72.48V22.648H71.416V18.304ZM68.448 18.704C68.832 18.704 69.176 18.784 69.48 18.944C69.784 19.0987 70.024 19.312 70.2 19.584C70.376 19.8507 70.464 20.16 70.464 20.512C70.464 20.8693 70.376 21.184 70.2 21.456C70.024 21.728 69.784 21.9413 69.48 22.096C69.176 22.2507 68.832 22.328 68.448 22.328C68.0693 22.328 67.7253 22.2507 67.416 22.096C67.112 21.9413 66.872 21.728 66.696 21.456C66.52 21.184 66.432 20.8693 66.432 20.512C66.432 20.16 66.52 19.8507 66.696 19.584C66.872 19.312 67.112 19.0987 67.416 18.944C67.7253 18.784 68.0693 18.704 68.448 18.704ZM68.448 19.6C68.2667 19.6 68.1013 19.6373 67.952 19.712C67.8027 19.7813 67.6853 19.8853 67.6 20.024C67.5147 20.1573 67.472 20.32 67.472 20.512C67.472 20.7093 67.5147 20.8773 67.6 21.016C67.6853 21.1493 67.8027 21.2533 67.952 21.328C68.1013 21.3973 68.2667 21.432 68.448 21.432C68.6347 21.432 68.8 21.3973 68.944 21.328C69.0933 21.2533 69.2107 21.1493 69.296 21.016C69.3813 20.8773 69.424 20.7093 69.424 20.512C69.424 20.32 69.3813 20.1573 69.296 20.024C69.2107 19.8853 69.0933 19.7813 68.944 19.712C68.8 19.6373 68.6347 19.6 68.448 19.6ZM75.3434 18.752H76.2234V19.552C76.2234 20.0427 76.146 20.504 75.9914 20.936C75.842 21.3627 75.6127 21.736 75.3034 22.056C74.9994 22.376 74.61 22.616 74.1354 22.776L73.5674 21.952C73.9887 21.8133 74.33 21.6213 74.5914 21.376C74.8527 21.1253 75.042 20.8427 75.1594 20.528C75.282 20.208 75.3434 19.8827 75.3434 19.552V18.752ZM75.5594 18.752H76.4234V19.56C76.4234 19.7947 76.4554 20.0267 76.5194 20.256C76.5834 20.48 76.6847 20.6933 76.8234 20.896C76.962 21.0933 77.138 21.272 77.3514 21.432C77.5647 21.5867 77.8207 21.712 78.1194 21.808L77.5754 22.64C77.1114 22.4853 76.73 22.256 76.4314 21.952C76.138 21.6427 75.9194 21.2827 75.7754 20.872C75.6314 20.4613 75.5594 20.024 75.5594 19.56V18.752ZM78.4474 18.304H79.5114V23.72H78.4474V18.304ZM79.2154 20.448H80.4954V21.32H79.2154V20.448ZM74.7434 24.728H79.7754V25.584H74.7434V24.728ZM74.7434 23.2H75.8154V25.184H74.7434V23.2Z" fill="black"/>
</g>
<g id="Jeongeup">
<path id="&#236;&#160;&#149;&#236;&#157;&#141;&#236;&#139;&#156;" d="M52.4008 69.8001L58.3008 67.1002L58.6008 62.9001L71.6008 69.6002L78.3008 77.5002L82.5008 75.8001L86.2008 84.5002L87.4008 89.4001L85.0008 90.3001L85.1008 95.7002L89.2008 98.5002L89.0008 98.8001L86.3008 100.6L88.3008 101.8L88.4008 102.1L81.2008 102L71.1008 94.7002L65.5008 99.6002L66.0008 106.3L56.6008 106.4L57.5008 109.4L51.7008 105.4L45.2008 108.3L44.8008 93.8001L38.3008 91.8001L39.5008 80.1002L44.4008 76.9001L52.6008 74.5002L52.4008 69.8001Z" fill="#AFD88C" stroke="white" stroke-width="0.5"/>
<path id="&#236;&#160;&#149;&#236;&#157;&#141;" d="M58.344 84.088H59.752V84.952H58.344V84.088ZM59.456 82.304H60.528V86.704H59.456V82.304ZM58.016 86.864C58.5387 86.864 58.9893 86.92 59.368 87.032C59.7467 87.144 60.0373 87.3067 60.24 87.52C60.448 87.7333 60.552 87.9893 60.552 88.288C60.552 88.7467 60.3253 89.0987 59.872 89.344C59.4187 89.5947 58.8 89.72 58.016 89.72C57.232 89.72 56.6133 89.5947 56.16 89.344C55.7067 89.0987 55.48 88.7467 55.48 88.288C55.48 87.9893 55.5813 87.7333 55.784 87.52C55.992 87.3067 56.2853 87.144 56.664 87.032C57.0427 86.92 57.4933 86.864 58.016 86.864ZM58.016 87.672C57.696 87.672 57.4267 87.696 57.208 87.744C56.9893 87.7867 56.8213 87.8533 56.704 87.944C56.592 88.0347 56.536 88.1493 56.536 88.288C56.536 88.4267 56.592 88.544 56.704 88.64C56.8213 88.7307 56.9893 88.8 57.208 88.848C57.4267 88.8907 57.696 88.912 58.016 88.912C58.336 88.912 58.6053 88.8907 58.824 88.848C59.0427 88.8 59.208 88.7307 59.32 88.64C59.432 88.544 59.488 88.4267 59.488 88.288C59.488 88.1493 59.432 88.0347 59.32 87.944C59.208 87.8533 59.0427 87.7867 58.824 87.744C58.6053 87.696 58.336 87.672 58.016 87.672ZM56.04 83.04H56.904V83.512C56.904 83.9813 56.8293 84.4293 56.68 84.856C56.5307 85.2827 56.3013 85.6587 55.992 85.984C55.688 86.304 55.2987 86.544 54.824 86.704L54.288 85.864C54.592 85.7627 54.8533 85.6267 55.072 85.456C55.296 85.2853 55.4773 85.096 55.616 84.888C55.76 84.6747 55.8667 84.4507 55.936 84.216C56.0053 83.9813 56.04 83.7467 56.04 83.512V83.04ZM56.264 83.04H57.112V83.504C57.112 83.7973 57.1707 84.0853 57.288 84.368C57.4053 84.6507 57.5867 84.9067 57.832 85.136C58.0827 85.3653 58.4027 85.5467 58.792 85.68L58.272 86.512C57.8133 86.3573 57.4347 86.1307 57.136 85.832C56.8427 85.528 56.624 85.176 56.48 84.776C56.336 84.3707 56.264 83.9467 56.264 83.504V83.04ZM54.576 82.752H58.56V83.592H54.576V82.752ZM65.0314 82.408C65.5807 82.408 66.0554 82.464 66.4554 82.576C66.8607 82.688 67.1727 82.8507 67.3914 83.064C67.61 83.272 67.7194 83.5227 67.7194 83.816C67.7194 84.1093 67.61 84.3627 67.3914 84.576C67.1727 84.784 66.8607 84.944 66.4554 85.056C66.0554 85.1627 65.5807 85.216 65.0314 85.216C64.4874 85.216 64.0127 85.1627 63.6074 85.056C63.2074 84.944 62.898 84.784 62.6794 84.576C62.4607 84.3627 62.3514 84.1093 62.3514 83.816C62.3514 83.5227 62.4607 83.272 62.6794 83.064C62.898 82.8507 63.2074 82.688 63.6074 82.576C64.0127 82.464 64.4874 82.408 65.0314 82.408ZM65.0314 83.216C64.6954 83.216 64.4074 83.2373 64.1674 83.28C63.9327 83.3227 63.754 83.3893 63.6314 83.48C63.514 83.5707 63.4554 83.6827 63.4554 83.816C63.4554 83.9493 63.514 84.0613 63.6314 84.152C63.754 84.2427 63.9327 84.3093 64.1674 84.352C64.4074 84.3947 64.6954 84.416 65.0314 84.416C65.3727 84.416 65.6607 84.3947 65.8954 84.352C66.13 84.3093 66.3087 84.2427 66.4314 84.152C66.554 84.0613 66.6154 83.9493 66.6154 83.816C66.6154 83.6827 66.554 83.5707 66.4314 83.48C66.3087 83.3893 66.13 83.3227 65.8954 83.28C65.6607 83.2373 65.3727 83.216 65.0314 83.216ZM62.4634 86.824H63.5194V87.392H66.5274V86.824H67.5834V89.632H62.4634V86.824ZM63.5194 88.192V88.792H66.5274V88.192H63.5194ZM61.6794 85.6H68.3834V86.448H61.6794V85.6Z" fill="black"/>
</g>
<g id="Sunchang">
<path id="&#236;&#136;&#156;&#236;&#176;&#189;&#234;&#181;&#176;" d="M57.4996 109.3L56.5996 106.4L65.9996 106.3L65.4996 99.6002L71.0996 94.7002L81.1996 102L88.2996 102.1L90.7996 103L94.1996 109.7L99.0996 105.7L99.1996 105.6L99.2996 105.3L100.8 105.2L103.7 107.6L113.7 107.1L113.9 107.6L111.8 114.6L111 115.4L103.1 119.4L98.0996 129.2L86.7996 134.6L86.4996 134.5L85.0996 133.6L79.5996 131.4L83.1996 124.6L77.6996 120L80.8996 115L78.6996 108.7L74.1996 109.3L71.0996 119.1L63.8996 118.8L57.4996 109.4V109.3Z" fill="#AFD88C" stroke="white" stroke-width="0.5"/>
<path id="&#236;&#136;&#156;&#236;&#176;&#189;" d="M88.128 114.488H89.04V114.728C89.04 115 88.9973 115.264 88.912 115.52C88.8267 115.771 88.7013 116.008 88.536 116.232C88.3707 116.451 88.1653 116.648 87.92 116.824C87.68 117 87.4027 117.149 87.088 117.272C86.7787 117.395 86.4347 117.483 86.056 117.536L85.656 116.704C85.9867 116.661 86.2827 116.592 86.544 116.496C86.8107 116.395 87.0427 116.28 87.24 116.152C87.4373 116.019 87.6 115.875 87.728 115.72C87.8613 115.56 87.96 115.397 88.024 115.232C88.0933 115.061 88.128 114.893 88.128 114.728V114.488ZM88.304 114.488H89.216V114.728C89.216 114.888 89.248 115.053 89.312 115.224C89.3813 115.389 89.4827 115.549 89.616 115.704C89.7493 115.859 89.9147 116.003 90.112 116.136C90.3093 116.264 90.5387 116.376 90.8 116.472C91.0667 116.568 91.3627 116.64 91.688 116.688L91.288 117.512C90.9093 117.459 90.5627 117.371 90.248 117.248C89.9387 117.125 89.6613 116.979 89.416 116.808C89.176 116.632 88.9733 116.435 88.808 116.216C88.6427 115.992 88.5173 115.757 88.432 115.512C88.3467 115.261 88.304 115 88.304 114.728V114.488ZM85.32 117.944H92.032V118.784H85.32V117.944ZM88.232 118.472H89.296V120.032H88.232V118.472ZM86.096 120.728H91.288V121.584H86.096V120.728ZM86.096 119.408H87.16V121H86.096V119.408ZM94.3434 115.6H95.2074V115.872C95.2074 116.304 95.1327 116.712 94.9834 117.096C94.834 117.475 94.6047 117.805 94.2954 118.088C93.9914 118.371 93.602 118.581 93.1274 118.72L92.6314 117.888C93.0314 117.776 93.3567 117.616 93.6074 117.408C93.8634 117.2 94.05 116.963 94.1674 116.696C94.2847 116.424 94.3434 116.149 94.3434 115.872V115.6ZM94.5434 115.6H95.4074V115.872C95.4074 116.123 95.466 116.371 95.5834 116.616C95.706 116.856 95.8927 117.072 96.1434 117.264C96.394 117.456 96.7167 117.605 97.1114 117.712L96.6314 118.536C96.162 118.408 95.7727 118.213 95.4634 117.952C95.154 117.685 94.922 117.373 94.7674 117.016C94.618 116.659 94.5434 116.277 94.5434 115.872V115.6ZM92.8874 115.072H96.8714V115.904H92.8874V115.072ZM94.3434 114.272H95.4074V115.4H94.3434V114.272ZM97.4474 114.304H98.5114V118.768H97.4474V114.304ZM98.2234 116.032H99.4954V116.912H98.2234V116.032ZM96.0954 118.904C96.6127 118.904 97.058 118.96 97.4314 119.072C97.8047 119.184 98.0927 119.344 98.2954 119.552C98.498 119.76 98.5994 120.013 98.5994 120.312C98.5994 120.749 98.3754 121.091 97.9274 121.336C97.4847 121.587 96.874 121.712 96.0954 121.712C95.578 121.712 95.1327 121.656 94.7594 121.544C94.386 121.432 94.0954 121.272 93.8874 121.064C93.6847 120.856 93.5834 120.605 93.5834 120.312C93.5834 120.013 93.6847 119.76 93.8874 119.552C94.0954 119.344 94.386 119.184 94.7594 119.072C95.1327 118.96 95.578 118.904 96.0954 118.904ZM96.0954 119.712C95.7807 119.712 95.514 119.733 95.2954 119.776C95.082 119.819 94.9194 119.885 94.8074 119.976C94.7007 120.061 94.6474 120.173 94.6474 120.312C94.6474 120.44 94.7007 120.549 94.8074 120.64C94.9194 120.725 95.082 120.789 95.2954 120.832C95.514 120.875 95.7807 120.896 96.0954 120.896C96.41 120.896 96.674 120.875 96.8874 120.832C97.106 120.789 97.2687 120.725 97.3754 120.64C97.4874 120.549 97.5434 120.44 97.5434 120.312C97.5434 120.173 97.4874 120.061 97.3754 119.976C97.2687 119.885 97.106 119.819 96.8874 119.776C96.674 119.733 96.41 119.712 96.0954 119.712Z" fill="black"/>
</g>
<g id="Buan">
<path id="&#235;&#182;&#128;&#236;&#149;&#136;&#234;&#181;&#176;" d="M6.19922 87.5001V86.9001L6.29922 87.0001L6.19922 87.5001ZM6.39922 86.7001L5.19922 81.5001L14.9992 73.3L19.3992 74.2001L27.4992 56.3L37.0992 56.9001L35.9992 54.3L44.1992 56.9001L46.6992 64.0001L50.3992 69.4001L52.2992 69.7001L52.3992 74.4001L44.1992 76.8L39.2992 80.0001L38.0992 91.7001L32.3992 92.2001L28.8992 90.3L27.9992 90.0001L24.8992 88.9001L25.2992 89.4001L15.2992 89.8L12.7992 90.3L12.6992 90.4001L6.29922 87.4001L6.09922 86.9001L6.39922 86.7001Z" fill="#AFD88C" stroke="white" stroke-width="0.5"/>
<path id="&#235;&#182;&#128;&#236;&#149;&#136;" d="M23.328 75.56H30.032V76.4H23.328V75.56ZM26.12 75.984H27.184V78.712H26.12V75.984ZM24.088 71.584H25.144V72.424H28.192V71.584H29.24V74.856H24.088V71.584ZM25.144 73.256V74.016H28.192V73.256H25.144ZM35.4474 71.304H36.5114V76.688H35.4474V71.304ZM36.2154 73.416H37.4954V74.296H36.2154V73.416ZM31.7354 77.728H36.7754V78.584H31.7354V77.728ZM31.7354 76.128H32.8074V78.112H31.7354V76.128ZM32.7434 71.776C33.122 71.776 33.4634 71.856 33.7674 72.016C34.0714 72.176 34.3114 72.3973 34.4874 72.68C34.6687 72.9627 34.7594 73.288 34.7594 73.656C34.7594 74.0187 34.6687 74.344 34.4874 74.632C34.3114 74.9147 34.0714 75.1387 33.7674 75.304C33.4634 75.464 33.122 75.544 32.7434 75.544C32.3647 75.544 32.0234 75.464 31.7194 75.304C31.4154 75.1387 31.1754 74.9147 30.9994 74.632C30.8234 74.344 30.7354 74.0187 30.7354 73.656C30.7354 73.288 30.8234 72.9627 30.9994 72.68C31.1754 72.3973 31.4154 72.176 31.7194 72.016C32.0234 71.856 32.3647 71.776 32.7434 71.776ZM32.7434 72.696C32.562 72.696 32.3967 72.736 32.2474 72.816C32.1034 72.8907 31.9887 73 31.9034 73.144C31.818 73.2827 31.7754 73.4533 31.7754 73.656C31.7754 73.8587 31.818 74.032 31.9034 74.176C31.9887 74.3147 32.1034 74.424 32.2474 74.504C32.3967 74.5787 32.562 74.616 32.7434 74.616C32.93 74.616 33.0954 74.5787 33.2394 74.504C33.3887 74.424 33.506 74.3147 33.5914 74.176C33.6767 74.032 33.7194 73.8587 33.7194 73.656C33.7194 73.4533 33.6767 73.2827 33.5914 73.144C33.506 73 33.3887 72.8907 33.2394 72.816C33.0954 72.736 32.93 72.696 32.7434 72.696Z" fill="black"/>
</g>
<g id="Gochang">
<path id="&#234;&#179;&#160;&#236;&#176;&#189;&#234;&#181;&#176;" d="M27.5 91.5L28.6 92L32.5 95.3L33.4 99.3L32.6 92.3L38.3 91.8L44.8 93.8L45.1 108.3L40.9 110.7V111.7L42.6 116.3L38.5 118.9L39.6 122.5L33.7 127.6L31.2 126.4L29.1 130.2H28.3L28.4 131.4L25.1 130.6L20.7 129.8L20.8 134.2L14 133.4L7.1 120.9L9.1 117.6L7.4 114.6L1 113.1L8.2 99.9L9.8 101.7L16.5 97.4L18.8 96.6L21.4 96.8L22.8 102.1L25.3 92.5L27.5 91.5Z" fill="#AFD88C" stroke="white" stroke-width="0.5"/>
<path id="&#234;&#179;&#160;&#236;&#176;&#189;" d="M17.016 109.928H21.704V110.776H17.016V109.928ZM16.328 114.952H23.032V115.816H16.328V114.952ZM18.696 112.408H19.768V115.384H18.696V112.408ZM21.32 109.928H22.392V110.632C22.392 110.941 22.3867 111.269 22.376 111.616C22.3707 111.963 22.3467 112.347 22.304 112.768C22.2667 113.189 22.1973 113.661 22.096 114.184L21.032 114.072C21.1813 113.331 21.2667 112.685 21.288 112.136C21.3093 111.581 21.32 111.08 21.32 110.632V109.928ZM25.3434 110.6H26.2074V110.872C26.2074 111.304 26.1327 111.712 25.9834 112.096C25.834 112.475 25.6047 112.805 25.2954 113.088C24.9914 113.371 24.602 113.581 24.1274 113.72L23.6314 112.888C24.0314 112.776 24.3567 112.616 24.6074 112.408C24.8634 112.2 25.05 111.963 25.1674 111.696C25.2847 111.424 25.3434 111.149 25.3434 110.872V110.6ZM25.5434 110.6H26.4074V110.872C26.4074 111.123 26.466 111.371 26.5834 111.616C26.706 111.856 26.8927 112.072 27.1434 112.264C27.394 112.456 27.7167 112.605 28.1114 112.712L27.6314 113.536C27.162 113.408 26.7727 113.213 26.4634 112.952C26.154 112.685 25.922 112.373 25.7674 112.016C25.618 111.659 25.5434 111.277 25.5434 110.872V110.6ZM23.8874 110.072H27.8714V110.904H23.8874V110.072ZM25.3434 109.272H26.4074V110.4H25.3434V109.272ZM28.4474 109.304H29.5114V113.768H28.4474V109.304ZM29.2234 111.032H30.4954V111.912H29.2234V111.032ZM27.0954 113.904C27.6127 113.904 28.058 113.96 28.4314 114.072C28.8047 114.184 29.0927 114.344 29.2954 114.552C29.498 114.76 29.5994 115.013 29.5994 115.312C29.5994 115.749 29.3754 116.091 28.9274 116.336C28.4847 116.587 27.874 116.712 27.0954 116.712C26.578 116.712 26.1327 116.656 25.7594 116.544C25.386 116.432 25.0954 116.272 24.8874 116.064C24.6847 115.856 24.5834 115.605 24.5834 115.312C24.5834 115.013 24.6847 114.76 24.8874 114.552C25.0954 114.344 25.386 114.184 25.7594 114.072C26.1327 113.96 26.578 113.904 27.0954 113.904ZM27.0954 114.712C26.7807 114.712 26.514 114.733 26.2954 114.776C26.082 114.819 25.9194 114.885 25.8074 114.976C25.7007 115.061 25.6474 115.173 25.6474 115.312C25.6474 115.44 25.7007 115.549 25.8074 115.64C25.9194 115.725 26.082 115.789 26.2954 115.832C26.514 115.875 26.7807 115.896 27.0954 115.896C27.41 115.896 27.674 115.875 27.8874 115.832C28.106 115.789 28.2687 115.725 28.3754 115.64C28.4874 115.549 28.5434 115.44 28.5434 115.312C28.5434 115.173 28.4874 115.061 28.3754 114.976C28.2687 114.885 28.106 114.819 27.8874 114.776C27.674 114.733 27.41 114.712 27.0954 114.712Z" fill="black"/>
</g>
<g id="Jinan">
<path id="&#236;&#167;&#132;&#236;&#149;&#136;&#234;&#181;&#176;" d="M122.5 21.9001L125.6 24.1001L129.9 20.8L132.5 27.8H141.3L148.6 40.2001L147.7 44.4001L151.3 44.2001L153.5 50.6001L148.2 57.7001L140.9 54.8L141.1 63.9001L135.4 71.2001L134.2 84.7001L130.1 84.5001L129 81.4001L118.8 77.7001L111.2 74.4001V74.3L111.6 70.3L109.1 60.2001L113.1 56.6001L116.8 39.8L119.6 39.0001L118.1 29.0001L120.5 23.7001L122.5 21.9001Z" fill="#AFD88C" stroke="white" stroke-width="0.5"/>
<path id="&#236;&#167;&#132;&#236;&#149;&#136;" d="M124.12 48.128H125V48.752C125 49.216 124.923 49.6587 124.768 50.08C124.619 50.496 124.389 50.8613 124.08 51.176C123.771 51.4853 123.376 51.7173 122.896 51.872L122.352 51.04C122.768 50.9067 123.104 50.72 123.36 50.48C123.621 50.24 123.813 49.9707 123.936 49.672C124.059 49.368 124.12 49.0613 124.12 48.752V48.128ZM124.344 48.128H125.208V48.752C125.208 48.9707 125.243 49.1893 125.312 49.408C125.381 49.6213 125.485 49.8267 125.624 50.024C125.768 50.216 125.949 50.3893 126.168 50.544C126.387 50.6987 126.645 50.824 126.944 50.92L126.408 51.744C125.944 51.5947 125.56 51.3707 125.256 51.072C124.952 50.7733 124.723 50.424 124.568 50.024C124.419 49.6187 124.344 49.1947 124.344 48.752V48.128ZM122.64 47.824H126.672V48.672H122.64V47.824ZM127.416 47.304H128.48V52.648H127.416V47.304ZM123.544 53.728H128.672V54.584H123.544V53.728ZM123.544 52.168H124.608V54.152H123.544V52.168ZM134.447 47.304H135.511V52.688H134.447V47.304ZM135.215 49.416H136.495V50.296H135.215V49.416ZM130.735 53.728H135.775V54.584H130.735V53.728ZM130.735 52.128H131.807V54.112H130.735V52.128ZM131.743 47.776C132.122 47.776 132.463 47.856 132.767 48.016C133.071 48.176 133.311 48.3973 133.487 48.68C133.669 48.9627 133.759 49.288 133.759 49.656C133.759 50.0187 133.669 50.344 133.487 50.632C133.311 50.9147 133.071 51.1387 132.767 51.304C132.463 51.464 132.122 51.544 131.743 51.544C131.365 51.544 131.023 51.464 130.719 51.304C130.415 51.1387 130.175 50.9147 129.999 50.632C129.823 50.344 129.735 50.0187 129.735 49.656C129.735 49.288 129.823 48.9627 129.999 48.68C130.175 48.3973 130.415 48.176 130.719 48.016C131.023 47.856 131.365 47.776 131.743 47.776ZM131.743 48.696C131.562 48.696 131.397 48.736 131.247 48.816C131.103 48.8907 130.989 49 130.903 49.144C130.818 49.2827 130.775 49.4533 130.775 49.656C130.775 49.8587 130.818 50.032 130.903 50.176C130.989 50.3147 131.103 50.424 131.247 50.504C131.397 50.5787 131.562 50.616 131.743 50.616C131.93 50.616 132.095 50.5787 132.239 50.504C132.389 50.424 132.506 50.3147 132.591 50.176C132.677 50.032 132.719 49.8587 132.719 49.656C132.719 49.4533 132.677 49.2827 132.591 49.144C132.506 49 132.389 48.8907 132.239 48.816C132.095 48.736 131.93 48.696 131.743 48.696Z" fill="black"/>
</g>
<g id="Wanju">
<path id="&#236;&#153;&#132;&#236;&#163;&#188;&#234;&#181;&#176;" d="M75.3996 46.2L83.1996 52.7L82.8996 58L74.5996 54.5L75.3996 46.2ZM115.7 5L119.6 7.70001L122.5 21.9L120.5 23.7L118.2 29L119.6 39.1L116.8 39.9L113.1 56.7L109.1 60.3L108.1 60.8L107.6 61.8L105.9 63.3L107.1 67.4L106.1 74L101.3 70.8H101.2L97.0996 66.5L92.0996 69.4L90.9996 77.2V77.3L90.5996 78.4V78.5L90.6996 82.2L87.6996 84.9L86.0996 84.5L82.3996 75.8L85.1996 67.8L94.9996 59.2L99.7996 60.6L102.1 56.4L104.3 53.2L99.4996 47.2L95.8996 48.2L91.8996 40.6L79.3996 41.2L79.6996 36.9L86.2996 36L91.2996 15L92.3996 11.5L100.8 9.5L106.2 12.3L106.6 7.60001L115.7 5Z" fill="#AFD88C" stroke="white" stroke-width="0.5"/>
<path id="&#236;&#153;&#132;&#236;&#163;&#188;" d="M99.008 32.296H100.072V33.424H99.008V32.296ZM99.536 29.6C99.8933 29.6 100.211 29.664 100.488 29.792C100.765 29.9147 100.984 30.0907 101.144 30.32C101.304 30.544 101.384 30.8053 101.384 31.104C101.384 31.3973 101.304 31.6587 101.144 31.888C100.984 32.112 100.765 32.288 100.488 32.416C100.211 32.544 99.8933 32.608 99.536 32.608C99.1787 32.608 98.8587 32.544 98.576 32.416C98.2987 32.288 98.08 32.112 97.92 31.888C97.76 31.6587 97.68 31.3973 97.68 31.104C97.68 30.8053 97.76 30.544 97.92 30.32C98.08 30.0907 98.2987 29.9147 98.576 29.792C98.8587 29.664 99.1787 29.6 99.536 29.6ZM99.536 30.392C99.3707 30.392 99.2213 30.4213 99.088 30.48C98.96 30.5333 98.8587 30.6133 98.784 30.72C98.7093 30.8267 98.672 30.9547 98.672 31.104C98.672 31.2533 98.7093 31.3813 98.784 31.488C98.8587 31.5893 98.96 31.6693 99.088 31.728C99.2213 31.7813 99.3707 31.808 99.536 31.808C99.7067 31.808 99.856 31.7813 99.984 31.728C100.112 31.6693 100.211 31.5893 100.28 31.488C100.355 31.3813 100.392 31.2533 100.392 31.104C100.392 30.9547 100.355 30.8267 100.28 30.72C100.211 30.6133 100.112 30.5333 99.984 30.48C99.856 30.4213 99.7067 30.392 99.536 30.392ZM102.136 29.304H103.2V34.952H102.136V29.304ZM102.832 31.632H104.136V32.496H102.832V31.632ZM98.264 35.728H103.456V36.576H98.264V35.728ZM98.264 34.472H99.328V36.096H98.264V34.472ZM97.424 33.992L97.296 33.152C97.7173 33.152 98.1787 33.1493 98.68 33.144C99.1867 33.1333 99.7013 33.112 100.224 33.08C100.752 33.048 101.259 32.9973 101.744 32.928L101.816 33.688C101.32 33.7787 100.811 33.848 100.288 33.896C99.7653 33.9387 99.2587 33.9653 98.768 33.976C98.2773 33.9867 97.8293 33.992 97.424 33.992ZM107.423 30.12H108.351V30.344C108.351 30.6 108.309 30.848 108.223 31.088C108.143 31.328 108.021 31.552 107.855 31.76C107.69 31.9627 107.487 32.1467 107.247 32.312C107.013 32.472 106.741 32.608 106.431 32.72C106.122 32.832 105.778 32.912 105.399 32.96L105.007 32.136C105.338 32.0933 105.631 32.0293 105.887 31.944C106.149 31.8533 106.375 31.7493 106.567 31.632C106.759 31.5093 106.919 31.3787 107.047 31.24C107.175 31.1013 107.269 30.9547 107.327 30.8C107.391 30.6453 107.423 30.4933 107.423 30.344V30.12ZM107.735 30.12H108.655V30.344C108.655 30.4933 108.685 30.6453 108.743 30.8C108.807 30.9547 108.903 31.1013 109.031 31.24C109.159 31.3787 109.319 31.5093 109.511 31.632C109.709 31.7493 109.935 31.8533 110.191 31.944C110.447 32.0293 110.741 32.0933 111.071 32.136L110.679 32.96C110.301 32.912 109.957 32.832 109.647 32.72C109.338 32.608 109.063 32.472 108.823 32.312C108.589 32.1467 108.389 31.9627 108.223 31.76C108.063 31.552 107.941 31.328 107.855 31.088C107.775 30.848 107.735 30.6 107.735 30.344V30.12ZM107.479 34H108.543V36.712H107.479V34ZM104.687 33.384H111.391V34.24H104.687V33.384ZM105.279 29.68H110.775V30.52H105.279V29.68Z" fill="black"/>
</g>
<g id="Gimje">
<path id="&#234;&#185;&#128;&#236;&#160;&#156;&#236;&#139;&#156;" d="M40.3004 44.5002L47.9004 44.3002V41.5002L55.7004 38.2002L63.1004 40.4002L69.0004 38.3002L74.3004 43.4002L75.4004 46.2002L74.5004 54.5002L82.8004 58.0002L80.9004 63.5002L85.3004 67.7002L82.5004 75.7002L78.3004 77.4002L71.6004 69.5002L58.6004 62.8002L58.3004 67.0002L52.4004 69.7002L50.5004 69.4002L46.8004 63.9002L44.3004 56.9002L36.1004 54.3002L33.4004 45.4002L34.5004 45.3002L38.3004 44.8002L40.2004 44.5002H40.3004Z" fill="#AFD88C" stroke="white" stroke-width="0.5"/>
<path id="&#234;&#185;&#128;&#236;&#160;&#156;" d="M54.104 50.72H55.224C55.224 51.376 55.088 51.9627 54.816 52.48C54.544 52.992 54.152 53.4267 53.64 53.784C53.128 54.136 52.5013 54.408 51.76 54.6L51.36 53.76C51.9733 53.6107 52.4827 53.4107 52.888 53.16C53.2933 52.9093 53.5973 52.6213 53.8 52.296C54.0027 51.9653 54.104 51.6187 54.104 51.256V50.72ZM51.784 50.72H54.792V51.56H51.784V50.72ZM56.416 50.296H57.48V54.424H56.416V50.296ZM52.576 54.744H57.48V57.632H52.576V54.744ZM56.432 55.576H53.624V56.792H56.432V55.576ZM64.0314 50.296H65.0474V57.704H64.0314V50.296ZM61.5914 52.832H62.8234V53.696H61.5914V52.832ZM62.5354 50.416H63.5274V57.368H62.5354V50.416ZM59.9994 51.504H60.7994V52.264C60.7994 52.68 60.7674 53.0907 60.7034 53.496C60.6447 53.9013 60.5514 54.2853 60.4234 54.648C60.2954 55.0053 60.1274 55.328 59.9194 55.616C59.7114 55.904 59.4607 56.1413 59.1674 56.328L58.5354 55.544C58.898 55.3147 59.186 55.0267 59.3994 54.68C59.6127 54.328 59.7647 53.944 59.8554 53.528C59.9514 53.1067 59.9994 52.6853 59.9994 52.264V51.504ZM60.2394 51.504H61.0314V52.264C61.0314 52.6747 61.0767 53.08 61.1674 53.48C61.258 53.88 61.4074 54.2453 61.6154 54.576C61.8234 54.9013 62.106 55.168 62.4634 55.376L61.8474 56.144C61.4527 55.9093 61.138 55.592 60.9034 55.192C60.6687 54.792 60.498 54.3413 60.3914 53.84C60.29 53.3333 60.2394 52.808 60.2394 52.264V51.504ZM58.8074 51.04H62.1114V51.896H58.8074V51.04Z" fill="black"/>
</g>
<g id="Muju">
<path id="&#235;&#172;&#180;&#236;&#163;&#188;&#234;&#181;&#176;" d="M155.701 14.7002L158.601 19.5002L162.201 15.6002L163.801 19.9002L171.401 21.5002L182.501 19.2002L186.101 21.8002L190.501 33.3002L187.201 39.5002L183.901 40.0002L181.701 46.3002L169.301 49.7002L163.601 58.5002L160.501 55.1002L154.801 54.7002L153.501 50.6002L151.301 44.2002L147.701 44.4002L148.601 40.2002L141.301 27.8002L142.201 19.1002L152.601 25.4002L152.301 21.5002L155.901 20.4002L153.301 19.3002L155.701 14.7002Z" fill="#AFD88C" stroke="white" stroke-width="0.5"/>
<path id="&#235;&#172;&#180;&#236;&#163;&#188;" d="M158.328 36.44H165.032V37.296H158.328V36.44ZM161.12 36.984H162.184V39.712H161.12V36.984ZM159.096 32.664H164.232V35.648H159.096V32.664ZM163.192 33.496H160.144V34.816H163.192V33.496ZM168.423 33.12H169.351V33.344C169.351 33.6 169.309 33.848 169.223 34.088C169.143 34.328 169.021 34.552 168.855 34.76C168.69 34.9627 168.487 35.1467 168.247 35.312C168.013 35.472 167.741 35.608 167.431 35.72C167.122 35.832 166.778 35.912 166.399 35.96L166.007 35.136C166.338 35.0933 166.631 35.0293 166.887 34.944C167.149 34.8533 167.375 34.7493 167.567 34.632C167.759 34.5093 167.919 34.3787 168.047 34.24C168.175 34.1013 168.269 33.9547 168.327 33.8C168.391 33.6453 168.423 33.4933 168.423 33.344V33.12ZM168.735 33.12H169.655V33.344C169.655 33.4933 169.685 33.6453 169.743 33.8C169.807 33.9547 169.903 34.1013 170.031 34.24C170.159 34.3787 170.319 34.5093 170.511 34.632C170.709 34.7493 170.935 34.8533 171.191 34.944C171.447 35.0293 171.741 35.0933 172.071 35.136L171.679 35.96C171.301 35.912 170.957 35.832 170.647 35.72C170.338 35.608 170.063 35.472 169.823 35.312C169.589 35.1467 169.389 34.9627 169.223 34.76C169.063 34.552 168.941 34.328 168.855 34.088C168.775 33.848 168.735 33.6 168.735 33.344V33.12ZM168.479 37H169.543V39.712H168.479V37ZM165.687 36.384H172.391V37.24H165.687V36.384ZM166.279 32.68H171.775V33.52H166.279V32.68Z" fill="black"/>
</g>
<g id="Namwon">
<path id="&#235;&#130;&#168;&#236;&#155;&#144;&#236;&#139;&#156;" d="M125.3 96.3001L126.8 94.1001L136.7 97.9001L141.7 104.3L140 106.8L143.9 108.6L146.2 106.2L147 98.4001L149 95.2001L154.6 98.0001L157.8 105.7L155.7 110L160.5 112.1L152.3 124.6L153.7 129.8L148.1 133.5L134.5 124.7L130.1 125.1L123.4 134.5L119.5 131.4L107.1 132.9L102.6 129.4L100.3 132.4L98.0996 129.2L103.1 119.4L111 115.4L111.8 114.6L113.9 107.6L113.7 107.1L113.6 105.8L118.1 104.2L119.4 104L119.8 103.6L117.5 99.3001L117 95.5001L120.7 94.6001L120.8 94.5001L125.3 96.3001Z" fill="#AFD88C" stroke="white" stroke-width="0.5"/>
<path id="&#235;&#130;&#168;&#236;&#155;&#144;" d="M128.088 111.296H129.152V115.472H128.088V111.296ZM128.864 112.856H130.136V113.728H128.864V112.856ZM124.336 115.808H129.152V118.632H124.336V115.808ZM128.12 116.648H125.384V117.792H128.12V116.648ZM123.624 111.648H124.688V114.68H123.624V111.648ZM123.624 114.224H124.24C124.747 114.224 125.272 114.205 125.816 114.168C126.365 114.125 126.931 114.048 127.512 113.936L127.632 114.784C127.035 114.907 126.451 114.992 125.88 115.04C125.315 115.083 124.768 115.104 124.24 115.104H123.624V114.224ZM132.615 115.104H133.679V116.72H132.615V115.104ZM135.855 111.296H136.919V116.912H135.855V111.296ZM131.583 117.728H137.087V118.584H131.583V117.728ZM131.583 116.376H132.647V117.96H131.583V116.376ZM130.791 115.424L130.655 114.576C131.109 114.571 131.602 114.565 132.135 114.56C132.669 114.549 133.213 114.528 133.767 114.496C134.322 114.464 134.855 114.416 135.367 114.352L135.439 115.112C134.911 115.203 134.373 115.272 133.823 115.32C133.279 115.363 132.749 115.389 132.231 115.4C131.714 115.411 131.234 115.419 130.791 115.424ZM134.463 115.6H136.095V116.328H134.463V115.6ZM133.039 111.552C133.402 111.552 133.722 111.608 133.999 111.72C134.277 111.832 134.493 111.987 134.647 112.184C134.807 112.381 134.887 112.613 134.887 112.88C134.887 113.141 134.807 113.373 134.647 113.576C134.493 113.773 134.277 113.925 133.999 114.032C133.722 114.139 133.402 114.192 133.039 114.192C132.677 114.192 132.354 114.139 132.071 114.032C131.794 113.925 131.578 113.773 131.423 113.576C131.269 113.373 131.191 113.141 131.191 112.88C131.191 112.613 131.269 112.381 131.423 112.184C131.578 111.987 131.794 111.832 132.071 111.72C132.354 111.608 132.677 111.552 133.039 111.552ZM133.039 112.328C132.794 112.328 132.591 112.373 132.431 112.464C132.277 112.555 132.199 112.693 132.199 112.88C132.199 113.056 132.277 113.192 132.431 113.288C132.591 113.379 132.794 113.424 133.039 113.424C133.29 113.424 133.49 113.379 133.639 113.288C133.794 113.192 133.871 113.056 133.871 112.88C133.871 112.757 133.837 112.656 133.767 112.576C133.698 112.496 133.602 112.435 133.479 112.392C133.357 112.349 133.21 112.328 133.039 112.328Z" fill="black"/>
</g>
</g>
</svg>
