<svg width="37" height="52" viewBox="0 0 37 52" fill="none" xmlns="http://www.w3.org/2000/svg">
<g id="sejong">
<g id="Sejong">
<path id="&#236;&#132;&#184;&#236;&#162;&#133;&#237;&#138;&#185;&#235;&#179;&#132;&#236;&#158;&#144;&#236;&#185;&#152;&#236;&#139;&#156;_00000020366141440786130000000003127030897387599272_" d="M20.7008 49.5999L16.7008 50.7999L10.2008 45.5999L6.50078 34.7999L11.3008 23.9999L4.10078 17.4999L5.60078 6.3999L1.30078 3.49991L4.40077 0.399902L10.1008 0.499908L16.2008 5.59991L21.2008 6.3999L24.0008 7.7999L19.9008 14.3999L23.0008 22.7999L27.8008 26.4999L32.7008 25.5999L36.7008 31.6999L35.1008 37.5999L30.6008 37.6999L30.5008 41.5999L30.1008 43.3999L30.0008 43.9999L29.7008 44.3999L28.8008 44.6999L28.1008 46.9999L27.8008 47.2999L27.7008 47.4999L27.2008 47.6999L25.1008 48.5999L21.4008 49.3999H21.3008L20.7008 49.5999Z" fill="#AFD88C" stroke="white" stroke-width="0.5"/>
<path id="&#236;&#132;&#184;&#236;&#162;&#133;" d="M16.62 28.896H17.236V29.328H16.62V28.896ZM15.832 27.972H16.236V28.592C16.236 28.8027 16.2213 29.0093 16.192 29.212C16.1627 29.4147 16.1147 29.6053 16.048 29.784C15.984 29.9627 15.8987 30.124 15.792 30.268C15.688 30.4093 15.5613 30.5253 15.412 30.616L15.092 30.216C15.2307 30.1333 15.3467 30.032 15.44 29.912C15.5333 29.792 15.6093 29.66 15.668 29.516C15.7267 29.372 15.768 29.2227 15.792 29.068C15.8187 28.9107 15.832 28.752 15.832 28.592V27.972ZM15.948 27.972H16.344V28.568C16.344 28.72 16.3547 28.8707 16.376 29.02C16.4 29.1693 16.4373 29.312 16.488 29.448C16.5387 29.584 16.6053 29.7093 16.688 29.824C16.7733 29.9387 16.88 30.0373 17.008 30.12L16.716 30.536C16.572 30.4453 16.4493 30.3307 16.348 30.192C16.2493 30.0507 16.1707 29.892 16.112 29.716C16.0533 29.54 16.0107 29.3547 15.984 29.16C15.96 28.9653 15.948 28.768 15.948 28.568V27.972ZM17.836 27.648H18.344V31.352H17.836V27.648ZM17.084 27.708H17.58V31.188H17.084V27.708ZM20.2437 28.976H20.7757V29.64H20.2437V28.976ZM18.8397 29.424H22.1917V29.844H18.8397V29.424ZM20.5077 30.048C20.9104 30.048 21.225 30.1053 21.4517 30.22C21.681 30.332 21.7957 30.4933 21.7957 30.704C21.7957 30.912 21.681 31.072 21.4517 31.184C21.225 31.2987 20.9104 31.356 20.5077 31.356C20.105 31.356 19.7904 31.2987 19.5637 31.184C19.337 31.072 19.2237 30.912 19.2237 30.704C19.2237 30.4933 19.337 30.332 19.5637 30.22C19.7904 30.1053 20.105 30.048 20.5077 30.048ZM20.5077 30.448C20.2597 30.448 20.073 30.4693 19.9477 30.512C19.8224 30.552 19.7597 30.616 19.7597 30.704C19.7597 30.792 19.8224 30.8573 19.9477 30.9C20.073 30.94 20.2597 30.96 20.5077 30.96C20.7584 30.96 20.945 30.94 21.0677 30.9C21.193 30.8573 21.2557 30.792 21.2557 30.704C21.2557 30.616 21.193 30.552 21.0677 30.512C20.945 30.4693 20.7584 30.448 20.5077 30.448ZM20.1517 28H20.6237V28.088C20.6237 28.2 20.6037 28.3067 20.5637 28.408C20.5237 28.5093 20.4637 28.604 20.3837 28.692C20.3064 28.7773 20.209 28.8547 20.0917 28.924C19.9744 28.9933 19.8384 29.0507 19.6837 29.096C19.529 29.1387 19.357 29.1693 19.1677 29.188L18.9837 28.772C19.1464 28.7587 19.2904 28.736 19.4157 28.704C19.5437 28.6693 19.653 28.6293 19.7437 28.584C19.837 28.5387 19.913 28.4893 19.9717 28.436C20.033 28.38 20.0784 28.3227 20.1077 28.264C20.137 28.2053 20.1517 28.1467 20.1517 28.088V28ZM20.4117 28H20.8797V28.088C20.8797 28.1467 20.8944 28.2067 20.9237 28.268C20.953 28.3267 20.997 28.3827 21.0557 28.436C21.117 28.4893 21.1944 28.5387 21.2877 28.584C21.381 28.6293 21.4904 28.6693 21.6157 28.704C21.7437 28.736 21.889 28.7587 22.0517 28.772L21.8677 29.188C21.6757 29.1693 21.5024 29.1387 21.3477 29.096C21.1957 29.0507 21.061 28.9947 20.9437 28.928C20.8264 28.8587 20.7277 28.7813 20.6477 28.696C20.5704 28.608 20.5117 28.5133 20.4717 28.412C20.4317 28.308 20.4117 28.2 20.4117 28.088V28ZM19.1477 27.804H21.8917V28.224H19.1477V27.804Z" fill="black"/>
</g>
</g>
</svg>
