<svg width="54" height="44" viewBox="0 0 54 44" fill="none" xmlns="http://www.w3.org/2000/svg">
<g id="seoul">
<g id="gangdong">
<path id="&#234;&#176;&#149;&#235;&#143;&#153;&#234;&#181;&#172;" d="M50.9 20.4004L52.8 25.7004L48 30.1004L43.5 26.0004L44.3 23.9004L50.9 20.4004Z" fill="#AFD88C" stroke="white" stroke-width="0.5"/>
<path id="&#234;&#176;&#149;&#235;&#143;&#153;" d="M47.954 24.743H48.1535V25.547H47.954V24.743ZM48.0995 25.067H48.338V25.232H48.0995V25.067ZM47.558 24.8345H47.7725C47.7725 24.9585 47.7475 25.07 47.6975 25.169C47.6475 25.267 47.5745 25.3505 47.4785 25.4195C47.3835 25.4885 47.268 25.542 47.132 25.58L47.051 25.421C47.162 25.39 47.255 25.3505 47.33 25.3025C47.406 25.2535 47.463 25.198 47.501 25.136C47.539 25.073 47.558 25.0055 47.558 24.9335V24.8345ZM47.1155 24.8345H47.678V24.9935H47.1155V24.8345ZM47.7035 25.565C47.7975 25.565 47.8795 25.577 47.9495 25.601C48.0195 25.624 48.0735 25.657 48.1115 25.7C48.1505 25.742 48.17 25.792 48.17 25.85C48.17 25.908 48.1505 25.958 48.1115 26C48.0735 26.043 48.0195 26.076 47.9495 26.099C47.8795 26.122 47.7975 26.1335 47.7035 26.1335C47.6105 26.1335 47.529 26.122 47.459 26.099C47.389 26.076 47.3345 26.043 47.2955 26C47.2565 25.958 47.237 25.908 47.237 25.85C47.237 25.792 47.2565 25.742 47.2955 25.7C47.3345 25.657 47.389 25.624 47.459 25.601C47.529 25.577 47.6105 25.565 47.7035 25.565ZM47.7035 25.7195C47.6485 25.7195 47.6005 25.7245 47.5595 25.7345C47.5195 25.7445 47.4885 25.759 47.4665 25.778C47.4455 25.797 47.435 25.821 47.435 25.85C47.435 25.878 47.4455 25.9015 47.4665 25.9205C47.4885 25.9395 47.5195 25.954 47.5595 25.964C47.6005 25.974 47.6485 25.979 47.7035 25.979C47.7605 25.979 47.809 25.974 47.849 25.964C47.889 25.954 47.9195 25.9395 47.9405 25.9205C47.9625 25.9015 47.9735 25.878 47.9735 25.85C47.9735 25.821 47.9625 25.797 47.9405 25.778C47.9195 25.759 47.889 25.7445 47.849 25.7345C47.809 25.7245 47.7605 25.7195 47.7035 25.7195ZM48.4429 25.397H49.6984V25.5545H48.4429V25.397ZM48.9709 25.1885H49.1704V25.4585H48.9709V25.1885ZM48.5944 25.1255H49.5559V25.2815H48.5944V25.1255ZM48.5944 24.803H49.5484V24.9605H48.7924V25.2245H48.5944V24.803ZM49.0654 25.6235C49.2154 25.6235 49.3334 25.646 49.4194 25.691C49.5054 25.735 49.5484 25.798 49.5484 25.88C49.5484 25.961 49.5054 26.0235 49.4194 26.0675C49.3334 26.1125 49.2154 26.135 49.0654 26.135C48.9154 26.135 48.7974 26.1125 48.7114 26.0675C48.6264 26.0235 48.5839 25.961 48.5839 25.88C48.5839 25.798 48.6264 25.735 48.7114 25.691C48.7974 25.646 48.9154 25.6235 49.0654 25.6235ZM49.0654 25.775C49.0034 25.775 48.9514 25.779 48.9094 25.787C48.8684 25.794 48.8374 25.8055 48.8164 25.8215C48.7954 25.8365 48.7849 25.8555 48.7849 25.8785C48.7849 25.9025 48.7954 25.9225 48.8164 25.9385C48.8374 25.9535 48.8684 25.965 48.9094 25.973C48.9514 25.98 49.0034 25.9835 49.0654 25.9835C49.1274 25.9835 49.1789 25.98 49.2199 25.973C49.2619 25.965 49.2934 25.9535 49.3144 25.9385C49.3354 25.9225 49.3459 25.9025 49.3459 25.8785C49.3459 25.8555 49.3354 25.8365 49.3144 25.8215C49.2934 25.8055 49.2619 25.794 49.2199 25.787C49.1789 25.779 49.1274 25.775 49.0654 25.775Z" fill="black"/>
</g>
<g id="songpa">
<path id="&#236;&#134;&#161;&#237;&#140;&#140;&#234;&#181;&#172;" d="M43.5008 26L48.0008 30.1L47.8008 36.9L45.3008 38L43.5008 33.7L39.3008 32.4L38.3008 28.9L42.3008 27.4L43.5008 26Z" fill="#AFD88C" stroke="white" stroke-width="0.5"/>
<path id="&#236;&#134;&#161;&#237;&#140;&#140;" d="M42.5865 30.7365H42.786V30.9855H42.5865V30.7365ZM42.585 30.2685H42.756V30.3105C42.756 30.3615 42.748 30.4105 42.732 30.4575C42.716 30.5035 42.6925 30.546 42.6615 30.585C42.6305 30.624 42.5925 30.6595 42.5475 30.6915C42.5025 30.7225 42.4505 30.749 42.3915 30.771C42.3335 30.793 42.2685 30.809 42.1965 30.819L42.123 30.6615C42.186 30.6545 42.242 30.643 42.291 30.627C42.341 30.61 42.384 30.59 42.42 30.567C42.457 30.544 42.4875 30.5185 42.5115 30.4905C42.5365 30.4625 42.555 30.4335 42.567 30.4035C42.579 30.3725 42.585 30.3415 42.585 30.3105V30.2685ZM42.618 30.2685H42.7875V30.3105C42.7875 30.3425 42.7935 30.374 42.8055 30.405C42.8175 30.436 42.8355 30.4655 42.8595 30.4935C42.8835 30.5205 42.9135 30.5455 42.9495 30.5685C42.9865 30.5915 43.03 30.611 43.08 30.627C43.13 30.643 43.1865 30.6545 43.2495 30.6615L43.176 30.819C43.105 30.809 43.04 30.793 42.981 30.771C42.923 30.749 42.871 30.723 42.825 30.693C42.78 30.662 42.742 30.627 42.711 30.588C42.68 30.548 42.6565 30.505 42.6405 30.459C42.6255 30.413 42.618 30.3635 42.618 30.3105V30.2685ZM42.06 30.906H43.317V31.0635H42.06V30.906ZM42.6855 31.1385C42.8365 31.1385 42.9545 31.1605 43.0395 31.2045C43.1255 31.2475 43.1685 31.308 43.1685 31.386C43.1685 31.466 43.1255 31.527 43.0395 31.569C42.9545 31.612 42.8365 31.6335 42.6855 31.6335C42.5345 31.6335 42.4165 31.612 42.3315 31.569C42.2465 31.527 42.204 31.466 42.204 31.386C42.204 31.308 42.2465 31.2475 42.3315 31.2045C42.4165 31.1605 42.5345 31.1385 42.6855 31.1385ZM42.6855 31.2885C42.5925 31.2885 42.5225 31.2965 42.4755 31.3125C42.4285 31.3275 42.405 31.352 42.405 31.386C42.405 31.42 42.4285 31.445 42.4755 31.461C42.5225 31.477 42.5925 31.485 42.6855 31.485C42.7795 31.485 42.8495 31.477 42.8955 31.461C42.9425 31.445 42.966 31.42 42.966 31.386C42.966 31.352 42.9425 31.3275 42.8955 31.3125C42.8495 31.2965 42.7795 31.2885 42.6855 31.2885ZM43.4594 30.372H44.2259V30.5295H43.4594V30.372ZM43.4444 31.3155L43.4234 31.1535C43.5034 31.1535 43.5909 31.153 43.6859 31.152C43.7819 31.15 43.8794 31.1465 43.9784 31.1415C44.0784 31.1355 44.1744 31.127 44.2664 31.116L44.2769 31.26C44.1829 31.276 44.0864 31.288 43.9874 31.296C43.8894 31.304 43.7939 31.3095 43.7009 31.3125C43.6089 31.3145 43.5234 31.3155 43.4444 31.3155ZM43.5779 30.4965H43.7714V31.197H43.5779V30.4965ZM43.9139 30.4965H44.1059V31.197H43.9139V30.4965ZM44.3279 30.2445H44.5289V31.6335H44.3279V30.2445ZM44.4854 30.7695H44.7299V30.9345H44.4854V30.7695Z" fill="black"/>
</g>
<g id="gangnam">
<path id="&#234;&#176;&#149;&#235;&#130;&#168;&#234;&#181;&#172;" d="M32.1 27.4004L36.9 28.3004L38.3 28.9004L39.3 32.4004L43.5 33.7004L45.3 38.0004L41.7 39.6004L40.5 36.6004L36.2 37.9004L31 28.7004L32.1 27.4004Z" fill="#AFD88C" stroke="white" stroke-width="0.5"/>
<path id="&#234;&#176;&#149;&#235;&#130;&#168;" d="M36.454 32.743H36.6535V33.547H36.454V32.743ZM36.5995 33.067H36.838V33.232H36.5995V33.067ZM36.058 32.8345H36.2725C36.2725 32.9585 36.2475 33.07 36.1975 33.169C36.1475 33.267 36.0745 33.3505 35.9785 33.4195C35.8835 33.4885 35.768 33.542 35.632 33.58L35.551 33.421C35.662 33.39 35.755 33.3505 35.83 33.3025C35.906 33.2535 35.963 33.198 36.001 33.136C36.039 33.073 36.058 33.0055 36.058 32.9335V32.8345ZM35.6155 32.8345H36.178V32.9935H35.6155V32.8345ZM36.2035 33.565C36.2975 33.565 36.3795 33.577 36.4495 33.601C36.5195 33.624 36.5735 33.657 36.6115 33.7C36.6505 33.742 36.67 33.792 36.67 33.85C36.67 33.908 36.6505 33.958 36.6115 34C36.5735 34.043 36.5195 34.076 36.4495 34.099C36.3795 34.122 36.2975 34.1335 36.2035 34.1335C36.1105 34.1335 36.029 34.122 35.959 34.099C35.889 34.076 35.8345 34.043 35.7955 34C35.7565 33.958 35.737 33.908 35.737 33.85C35.737 33.792 35.7565 33.742 35.7955 33.7C35.8345 33.657 35.889 33.624 35.959 33.601C36.029 33.577 36.1105 33.565 36.2035 33.565ZM36.2035 33.7195C36.1485 33.7195 36.1005 33.7245 36.0595 33.7345C36.0195 33.7445 35.9885 33.759 35.9665 33.778C35.9455 33.797 35.935 33.821 35.935 33.85C35.935 33.878 35.9455 33.9015 35.9665 33.9205C35.9885 33.9395 36.0195 33.954 36.0595 33.964C36.1005 33.974 36.1485 33.979 36.2035 33.979C36.2605 33.979 36.309 33.974 36.349 33.964C36.389 33.954 36.4195 33.9395 36.4405 33.9205C36.4625 33.9015 36.4735 33.878 36.4735 33.85C36.4735 33.821 36.4625 33.797 36.4405 33.778C36.4195 33.759 36.389 33.7445 36.349 33.7345C36.309 33.7245 36.2605 33.7195 36.2035 33.7195ZM37.8339 32.743H38.0334V33.526H37.8339V32.743ZM37.9794 33.0355H38.2179V33.199H37.9794V33.0355ZM37.1304 33.589H38.0334V34.1185H37.1304V33.589ZM37.8399 33.7465H37.3269V33.961H37.8399V33.7465ZM36.9969 32.809H37.1964V33.3775H36.9969V32.809ZM36.9969 33.292H37.1124C37.2074 33.292 37.3059 33.2885 37.4079 33.2815C37.5109 33.2735 37.6169 33.259 37.7259 33.238L37.7484 33.397C37.6364 33.42 37.5269 33.436 37.4199 33.445C37.3139 33.453 37.2114 33.457 37.1124 33.457H36.9969V33.292Z" fill="black"/>
</g>
<g id="seocho">
<path id="&#236;&#132;&#156;&#236;&#180;&#136;&#234;&#181;&#172;" d="M31 28.7002L36.2 37.9002L40.5 36.6002L41.7 39.6002L35.7 43.6002L34.2 38.3002L28.4 39.2002L27.6 36.4002L27.5 31.7002L31 28.7002Z" fill="#AFD88C" stroke="white" stroke-width="0.5"/>
<path id="&#236;&#132;&#156;&#236;&#180;&#136;" d="M31.762 36.178H32.128V36.3385H31.762V36.178ZM31.384 35.8495H31.5445V36.052C31.5445 36.139 31.537 36.2235 31.522 36.3055C31.507 36.3875 31.484 36.464 31.453 36.535C31.422 36.606 31.3825 36.6685 31.3345 36.7225C31.2875 36.7765 31.2315 36.82 31.1665 36.853L31.042 36.694C31.101 36.666 31.1515 36.6295 31.1935 36.5845C31.2365 36.5395 31.272 36.4885 31.3 36.4315C31.329 36.3735 31.35 36.3125 31.363 36.2485C31.377 36.1835 31.384 36.118 31.384 36.052V35.8495ZM31.4245 35.8495H31.5835V36.052C31.5835 36.117 31.59 36.1815 31.603 36.2455C31.616 36.3085 31.6355 36.3675 31.6615 36.4225C31.6885 36.4775 31.723 36.5265 31.765 36.5695C31.807 36.6115 31.857 36.6455 31.915 36.6715L31.795 36.8305C31.73 36.7985 31.674 36.7565 31.627 36.7045C31.58 36.6515 31.5415 36.591 31.5115 36.523C31.4825 36.455 31.4605 36.381 31.4455 36.301C31.4315 36.221 31.4245 36.138 31.4245 36.052V35.8495ZM32.0275 35.7415H32.227V37.135H32.0275V35.7415ZM32.4414 36.814H33.6999V36.976H32.4414V36.814ZM32.9709 36.5455H33.1689V36.8965H32.9709V36.5455ZM32.9694 36.0325H33.1449V36.0625C33.1449 36.1295 33.1319 36.1925 33.1059 36.2515C33.0799 36.3095 33.0414 36.362 32.9904 36.409C32.9404 36.456 32.8789 36.4955 32.8059 36.5275C32.7329 36.5595 32.6484 36.5815 32.5524 36.5935L32.4804 36.4345C32.5654 36.4245 32.6384 36.4075 32.6994 36.3835C32.7614 36.3585 32.8119 36.3285 32.8509 36.2935C32.8909 36.2585 32.9204 36.2215 32.9394 36.1825C32.9594 36.1425 32.9694 36.1025 32.9694 36.0625V36.0325ZM32.9949 36.0325H33.1704V36.0625C33.1704 36.1025 33.1799 36.1425 33.1989 36.1825C33.2189 36.2215 33.2484 36.2585 33.2874 36.2935C33.3274 36.3285 33.3784 36.3585 33.4404 36.3835C33.5024 36.4075 33.5754 36.4245 33.6594 36.4345L33.5874 36.5935C33.4914 36.5815 33.4069 36.5595 33.3339 36.5275C33.2609 36.4955 33.1989 36.456 33.1479 36.409C33.0979 36.362 33.0599 36.3095 33.0339 36.2515C33.0079 36.1925 32.9949 36.1295 32.9949 36.0625V36.0325ZM32.5479 35.932H33.5904V36.091H32.5479V35.932ZM32.9709 35.7625H33.1689V35.9965H32.9709V35.7625Z" fill="black"/>
</g>
<g id="gwanak">
<path id="&#234;&#180;&#128;&#236;&#149;&#133;&#234;&#181;&#172;" d="M17.8008 35.0002L24.9008 33.7002L27.6008 36.4002L28.4008 39.2002L25.3008 41.9002L23.4008 42.3002L20.9008 40.4002L17.3008 35.9002L17.8008 35.0002Z" fill="#AFD88C" stroke="white" stroke-width="0.5"/>
<path id="&#234;&#180;&#128;&#236;&#149;&#133;" d="M22.123 37.345H22.717V37.504H22.123V37.345ZM22.294 37.669H22.4905V38.0155H22.294V37.669ZM22.639 37.345H22.8355V37.432C22.8355 37.481 22.834 37.5395 22.831 37.6075C22.829 37.6745 22.8195 37.752 22.8025 37.84L22.609 37.8175C22.624 37.7325 22.6325 37.659 22.6345 37.597C22.6375 37.535 22.639 37.48 22.639 37.432V37.345ZM22.969 37.243H23.17V38.2825H22.969V37.243ZM23.0905 37.6675H23.3365V37.831H23.0905V37.6675ZM22.243 38.449H23.215V38.6095H22.243V38.449ZM22.243 38.191H22.444V38.4985H22.243V38.191ZM22.0585 38.098L22.0405 37.939C22.1205 37.939 22.209 37.9385 22.306 37.9375C22.403 37.9355 22.502 37.9315 22.603 37.9255C22.704 37.9185 22.801 37.9085 22.894 37.8955L22.9075 38.038C22.8115 38.055 22.7135 38.068 22.6135 38.077C22.5135 38.085 22.416 38.0905 22.321 38.0935C22.226 38.0955 22.1385 38.097 22.0585 38.098ZM23.8269 37.3195C23.8989 37.3195 23.9634 37.3345 24.0204 37.3645C24.0774 37.3935 24.1224 37.4335 24.1554 37.4845C24.1884 37.5345 24.2049 37.5925 24.2049 37.6585C24.2049 37.7255 24.1884 37.7845 24.1554 37.8355C24.1224 37.8865 24.0774 37.9265 24.0204 37.9555C23.9634 37.9845 23.8989 37.999 23.8269 37.999C23.7559 37.999 23.6919 37.9845 23.6349 37.9555C23.5779 37.9265 23.5329 37.8865 23.4999 37.8355C23.4669 37.7845 23.4504 37.7255 23.4504 37.6585C23.4504 37.5925 23.4669 37.5345 23.4999 37.4845C23.5329 37.4335 23.5779 37.3935 23.6349 37.3645C23.6919 37.3345 23.7559 37.3195 23.8269 37.3195ZM23.8269 37.4875C23.7929 37.4875 23.7619 37.4945 23.7339 37.5085C23.7059 37.5215 23.6839 37.541 23.6679 37.567C23.6529 37.592 23.6454 37.6225 23.6454 37.6585C23.6454 37.6955 23.6529 37.727 23.6679 37.753C23.6839 37.778 23.7059 37.7975 23.7339 37.8115C23.7619 37.8245 23.7929 37.831 23.8269 37.831C23.8629 37.831 23.8944 37.8245 23.9214 37.8115C23.9484 37.7975 23.9699 37.778 23.9859 37.753C24.0019 37.727 24.0099 37.6955 24.0099 37.6585C24.0099 37.6225 24.0019 37.592 23.9859 37.567C23.9699 37.541 23.9484 37.5215 23.9214 37.5085C23.8944 37.4945 23.8629 37.4875 23.8269 37.4875ZM24.3339 37.2445H24.5334V38.056H24.3339V37.2445ZM24.4794 37.567H24.7179V37.732H24.4794V37.567ZM23.6064 38.116H24.5334V38.6335H24.3339V38.2735H23.6064V38.116Z" fill="black"/>
</g>
<g id="dongjak">
<path id="&#235;&#143;&#153;&#236;&#158;&#145;&#234;&#181;&#172;" d="M23.7008 29.9004L27.5008 31.7004L27.6008 36.4004L24.9008 33.7004L17.8008 35.0004L23.7008 29.9004Z" fill="#AFD88C" stroke="white" stroke-width="0.5"/>
<path id="&#235;&#143;&#153;&#236;&#158;&#145;" d="M23.063 32.397H24.3185V32.5545H23.063V32.397ZM23.591 32.1885H23.7905V32.4585H23.591V32.1885ZM23.2145 32.1255H24.176V32.2815H23.2145V32.1255ZM23.2145 31.803H24.1685V31.9605H23.4125V32.2245H23.2145V31.803ZM23.6855 32.6235C23.8355 32.6235 23.9535 32.646 24.0395 32.691C24.1255 32.735 24.1685 32.798 24.1685 32.88C24.1685 32.961 24.1255 33.0235 24.0395 33.0675C23.9535 33.1125 23.8355 33.135 23.6855 33.135C23.5355 33.135 23.4175 33.1125 23.3315 33.0675C23.2465 33.0235 23.204 32.961 23.204 32.88C23.204 32.798 23.2465 32.735 23.3315 32.691C23.4175 32.646 23.5355 32.6235 23.6855 32.6235ZM23.6855 32.775C23.6235 32.775 23.5715 32.779 23.5295 32.787C23.4885 32.794 23.4575 32.8055 23.4365 32.8215C23.4155 32.8365 23.405 32.8555 23.405 32.8785C23.405 32.9025 23.4155 32.9225 23.4365 32.9385C23.4575 32.9535 23.4885 32.965 23.5295 32.973C23.5715 32.98 23.6235 32.9835 23.6855 32.9835C23.7475 32.9835 23.799 32.98 23.84 32.973C23.882 32.965 23.9135 32.9535 23.9345 32.9385C23.9555 32.9225 23.966 32.9025 23.966 32.8785C23.966 32.8555 23.9555 32.8365 23.9345 32.8215C23.9135 32.8055 23.882 32.794 23.84 32.787C23.799 32.779 23.7475 32.775 23.6855 32.775ZM24.7504 31.8855H24.9139V31.9725C24.9139 32.0605 24.8994 32.1435 24.8704 32.2215C24.8424 32.2995 24.7994 32.368 24.7414 32.427C24.6844 32.485 24.6119 32.5285 24.5239 32.5575L24.4204 32.403C24.4974 32.377 24.5599 32.3415 24.6079 32.2965C24.6569 32.2515 24.6929 32.201 24.7159 32.145C24.7389 32.088 24.7504 32.0305 24.7504 31.9725V31.8855ZM24.7894 31.8855H24.9514V31.9725C24.9514 32.0265 24.9624 32.0805 24.9844 32.1345C25.0064 32.1875 25.0409 32.2355 25.0879 32.2785C25.1359 32.3205 25.1969 32.3535 25.2709 32.3775L25.1704 32.5335C25.0834 32.5055 25.0119 32.463 24.9559 32.406C24.8999 32.349 24.8579 32.2835 24.8299 32.2095C24.8029 32.1345 24.7894 32.0555 24.7894 31.9725V31.8855ZM24.4729 31.8255H25.2244V31.9845H24.4729V31.8255ZM25.3339 31.7445H25.5334V32.58H25.3339V31.7445ZM25.4794 32.079H25.7179V32.244H25.4794V32.079ZM24.6064 32.6415H25.5334V33.1335H25.3339V32.8005H24.6064V32.6415Z" fill="black"/>
</g>
<g id="yeongdeungpo">
<path id="&#236;&#152;&#129;&#235;&#147;&#177;&#237;&#143;&#172;&#234;&#181;&#172;" d="M15.1004 23.8003L23.0004 27.4003L23.7004 29.9003L17.8004 35.0003L14.9004 29.8003L15.8004 26.4003L15.1004 25.1003V23.8003Z" fill="#AFD88C" stroke="white" stroke-width="0.5"/>
<path id="&#236;&#152;&#129;&#235;&#147;&#177;&#237;&#143;&#172;" d="M17.675 28.9245H18.086V29.085H17.675V28.9245ZM17.675 29.2335H18.086V29.3925H17.675V29.2335ZM17.444 28.818C17.514 28.818 17.5765 28.833 17.6315 28.863C17.6865 28.892 17.73 28.932 17.762 28.983C17.795 29.034 17.8115 29.0925 17.8115 29.1585C17.8115 29.2235 17.795 29.2815 17.762 29.3325C17.73 29.3835 17.6865 29.424 17.6315 29.454C17.5765 29.483 17.514 29.4975 17.444 29.4975C17.376 29.4975 17.314 29.483 17.258 29.454C17.203 29.424 17.159 29.3835 17.126 29.3325C17.094 29.2815 17.078 29.2235 17.078 29.1585C17.078 29.0925 17.094 29.034 17.126 28.983C17.159 28.932 17.203 28.892 17.258 28.863C17.314 28.833 17.376 28.818 17.444 28.818ZM17.444 28.986C17.411 28.986 17.381 28.993 17.354 29.007C17.327 29.02 17.3055 29.0395 17.2895 29.0655C17.2745 29.0905 17.267 29.1215 17.267 29.1585C17.267 29.1935 17.2745 29.224 17.2895 29.25C17.3055 29.276 17.327 29.296 17.354 29.31C17.381 29.323 17.411 29.3295 17.444 29.3295C17.479 29.3295 17.5095 29.323 17.5355 29.31C17.5625 29.296 17.5835 29.276 17.5985 29.25C17.6135 29.224 17.621 29.1935 17.621 29.1585C17.621 29.1215 17.6135 29.0905 17.5985 29.0655C17.5835 29.0395 17.5625 29.02 17.5355 29.007C17.5095 28.993 17.479 28.986 17.444 28.986ZM18.023 28.7445H18.224V29.5575H18.023V28.7445ZM17.753 29.586C17.851 29.586 17.935 29.597 18.005 29.619C18.076 29.64 18.131 29.671 18.17 29.712C18.209 29.753 18.2285 29.802 18.2285 29.859C18.2285 29.916 18.209 29.965 18.17 30.006C18.131 30.048 18.076 30.0795 18.005 30.1005C17.935 30.1225 17.851 30.1335 17.753 30.1335C17.655 30.1335 17.5705 30.1225 17.4995 30.1005C17.4285 30.0795 17.3735 30.048 17.3345 30.006C17.2965 29.965 17.2775 29.916 17.2775 29.859C17.2775 29.802 17.2965 29.753 17.3345 29.712C17.3735 29.671 17.4285 29.64 17.4995 29.619C17.5705 29.597 17.655 29.586 17.753 29.586ZM17.753 29.739C17.693 29.739 17.642 29.7435 17.6 29.7525C17.558 29.7615 17.5265 29.775 17.5055 29.793C17.4845 29.81 17.474 29.832 17.474 29.859C17.474 29.886 17.4845 29.9085 17.5055 29.9265C17.5265 29.9445 17.558 29.958 17.6 29.967C17.642 29.975 17.693 29.979 17.753 29.979C17.814 29.979 17.865 29.975 17.906 29.967C17.948 29.958 17.9795 29.9445 18.0005 29.9265C18.0215 29.9085 18.032 29.886 18.032 29.859C18.032 29.832 18.0215 29.81 18.0005 29.793C17.9795 29.775 17.948 29.7615 17.906 29.7525C17.865 29.7435 17.814 29.739 17.753 29.739ZM18.4429 29.379H19.6984V29.541H18.4429V29.379ZM18.5944 29.1255H19.5559V29.283H18.5944V29.1255ZM18.5944 28.7805H19.5484V28.941H18.7924V29.2035H18.5944V28.7805ZM19.0654 29.622C19.2154 29.622 19.3334 29.6445 19.4194 29.6895C19.5054 29.7335 19.5484 29.7965 19.5484 29.8785C19.5484 29.9595 19.5054 30.022 19.4194 30.066C19.3334 30.111 19.2154 30.1335 19.0654 30.1335C18.9154 30.1335 18.7974 30.111 18.7114 30.066C18.6264 30.022 18.5839 29.9595 18.5839 29.8785C18.5839 29.7965 18.6264 29.7335 18.7114 29.6895C18.7974 29.6445 18.9154 29.622 19.0654 29.622ZM19.0654 29.7735C19.0034 29.7735 18.9514 29.7775 18.9094 29.7855C18.8684 29.7925 18.8374 29.804 18.8164 29.82C18.7954 29.835 18.7849 29.8545 18.7849 29.8785C18.7849 29.9015 18.7954 29.921 18.8164 29.937C18.8374 29.952 18.8684 29.9635 18.9094 29.9715C18.9514 29.9785 19.0034 29.982 19.0654 29.982C19.1274 29.982 19.1789 29.9785 19.2199 29.9715C19.2619 29.9635 19.2934 29.952 19.3144 29.937C19.3354 29.921 19.3459 29.9015 19.3459 29.8785C19.3459 29.8545 19.3354 29.835 19.3144 29.82C19.2934 29.804 19.2619 29.7925 19.2199 29.7855C19.1789 29.7775 19.1274 29.7735 19.0654 29.7735ZM19.8213 29.8155H21.0798V29.9775H19.8213V29.8155ZM20.3478 29.5005H20.5458V29.8875H20.3478V29.5005ZM19.9173 28.857H20.9763V29.0175H19.9173V28.857ZM19.9248 29.4105H20.9718V29.568H19.9248V29.4105ZM20.1063 28.989H20.3058V29.4285H20.1063V28.989ZM20.5878 28.989H20.7873V29.4285H20.5878V28.989Z" fill="black"/>
</g>
<g id="geumcheon">
<path id="&#234;&#184;&#136;&#236;&#178;&#156;&#234;&#181;&#172;" d="M14.2012 34.9004L17.3012 35.9004L20.9012 40.4004L17.2012 42.2004L14.2012 34.9004Z" fill="#AFD88C" stroke="white" stroke-width="0.5"/>
<path id="&#234;&#184;&#136;&#236;&#178;&#156;" d="M16.8156 38.806H17.6946V38.9635H16.8156V38.806ZM16.6611 39.3055H17.9196V39.463H16.6611V39.3055ZM17.5746 38.806H17.7711V38.917C17.7711 38.976 17.7696 39.0395 17.7666 39.1075C17.7636 39.1755 17.7516 39.2545 17.7306 39.3445L17.5311 39.343C17.5531 39.252 17.5656 39.173 17.5686 39.106C17.5726 39.039 17.5746 38.976 17.5746 38.917V38.806ZM16.8081 39.6085H17.7651V40.1185H16.8081V39.6085ZM17.5701 39.7645H17.0046V39.961H17.5701V39.7645ZM18.3515 39.016H18.515V39.0685C18.515 39.1535 18.501 39.2335 18.473 39.3085C18.445 39.3835 18.4025 39.449 18.3455 39.505C18.2885 39.561 18.216 39.6035 18.128 39.6325L18.0305 39.4765C18.1055 39.4525 18.1665 39.4195 18.2135 39.3775C18.2615 39.3345 18.2965 39.2865 18.3185 39.2335C18.3405 39.1795 18.3515 39.1245 18.3515 39.0685V39.016ZM18.389 39.016H18.551V39.0685C18.551 39.1205 18.562 39.172 18.584 39.223C18.607 39.273 18.6425 39.3185 18.6905 39.3595C18.7385 39.3995 18.7995 39.4305 18.8735 39.4525L18.779 39.6085C18.691 39.5825 18.618 39.543 18.56 39.49C18.503 39.436 18.46 39.373 18.431 39.301C18.403 39.228 18.389 39.1505 18.389 39.0685V39.016ZM18.0785 38.908H18.8255V39.064H18.0785V38.908ZM18.3515 38.7535H18.551V38.9665H18.3515V38.7535ZM18.7805 39.148H19.103V39.31H18.7805V39.148ZM19.0025 38.7445H19.2035V39.772H19.0025V38.7445ZM18.2855 39.949H19.235V40.1095H18.2855V39.949ZM18.2855 39.6865H18.485V40.054H18.2855V39.6865Z" fill="black"/>
</g>
<g id="guro">
<path id="&#234;&#181;&#172;&#235;&#161;&#156;&#234;&#181;&#172;" d="M14.9008 29.8003L17.8008 35.0003L17.3008 35.9003L14.2008 34.9003L9.10078 36.1003L6.80078 36.5003L8.30078 31.2003L14.9008 29.8003Z" fill="#AFD88C" stroke="white" stroke-width="0.5"/>
<path id="&#234;&#181;&#172;&#235;&#161;&#156;" d="M11.2055 32.5242H12.0755V32.6817H11.2055V32.5242ZM11.0615 33.1152H12.3185V33.2772H11.0615V33.1152ZM11.582 33.2292H11.783V33.8337H11.582V33.2292ZM11.9735 32.5242H12.17V32.6472C12.17 32.6972 12.169 32.7502 12.167 32.8062C12.166 32.8622 12.162 32.9237 12.155 32.9907C12.148 33.0567 12.135 33.1307 12.116 33.2127L11.921 33.1887C11.947 33.0737 11.962 32.9732 11.966 32.8872C11.971 32.8002 11.9735 32.7202 11.9735 32.6472V32.5242ZM12.4414 33.5187H13.6999V33.6807H12.4414V33.5187ZM12.9694 33.2547H13.1674V33.5832H12.9694V33.2547ZM12.5839 32.5332H13.5574V32.9967H12.7834V33.2292H12.5854V32.8407H13.3594V32.6922H12.5839V32.5332ZM12.5854 33.1512H13.5889V33.3102H12.5854V33.1512Z" fill="black"/>
</g>
<g id="seoul_gangseo">
<path id="&#234;&#176;&#149;&#236;&#132;&#156;&#234;&#181;&#172;" d="M5.40077 16.1001L11.7008 21.4001L15.1008 23.8001V25.1001L10.0008 28.4001L7.80078 26.2001L0.800781 24.0001L4.30078 19.8001L5.40077 16.1001Z" fill="#AFD88C" stroke="white" stroke-width="0.5"/>
<path id="&#234;&#176;&#149;&#236;&#132;&#156;" d="M7.954 22.743H8.1535V23.547H7.954V22.743ZM8.0995 23.067H8.338V23.232H8.0995V23.067ZM7.558 22.8345H7.7725C7.7725 22.9585 7.7475 23.07 7.6975 23.169C7.6475 23.267 7.5745 23.3505 7.4785 23.4195C7.3835 23.4885 7.268 23.542 7.132 23.58L7.051 23.421C7.162 23.39 7.255 23.3505 7.33 23.3025C7.406 23.2535 7.463 23.198 7.501 23.136C7.539 23.073 7.558 23.0055 7.558 22.9335V22.8345ZM7.1155 22.8345H7.678V22.9935H7.1155V22.8345ZM7.7035 23.565C7.7975 23.565 7.8795 23.577 7.9495 23.601C8.0195 23.624 8.0735 23.657 8.1115 23.7C8.1505 23.742 8.17 23.792 8.17 23.85C8.17 23.908 8.1505 23.958 8.1115 24C8.0735 24.043 8.0195 24.076 7.9495 24.099C7.8795 24.122 7.7975 24.1335 7.7035 24.1335C7.6105 24.1335 7.529 24.122 7.459 24.099C7.389 24.076 7.3345 24.043 7.2955 24C7.2565 23.958 7.237 23.908 7.237 23.85C7.237 23.792 7.2565 23.742 7.2955 23.7C7.3345 23.657 7.389 23.624 7.459 23.601C7.529 23.577 7.6105 23.565 7.7035 23.565ZM7.7035 23.7195C7.6485 23.7195 7.6005 23.7245 7.5595 23.7345C7.5195 23.7445 7.4885 23.759 7.4665 23.778C7.4455 23.797 7.435 23.821 7.435 23.85C7.435 23.878 7.4455 23.9015 7.4665 23.9205C7.4885 23.9395 7.5195 23.954 7.5595 23.964C7.6005 23.974 7.6485 23.979 7.7035 23.979C7.7605 23.979 7.809 23.974 7.849 23.964C7.889 23.954 7.9195 23.9395 7.9405 23.9205C7.9625 23.9015 7.9735 23.878 7.9735 23.85C7.9735 23.821 7.9625 23.797 7.9405 23.778C7.9195 23.759 7.889 23.7445 7.849 23.7345C7.809 23.7245 7.7605 23.7195 7.7035 23.7195ZM9.14188 23.178H9.50788V23.3385H9.14188V23.178ZM8.76388 22.8495H8.92438V23.052C8.92438 23.139 8.91688 23.2235 8.90188 23.3055C8.88688 23.3875 8.86388 23.464 8.83288 23.535C8.80188 23.606 8.76238 23.6685 8.71438 23.7225C8.66738 23.7765 8.61138 23.82 8.54638 23.853L8.42188 23.694C8.48088 23.666 8.53138 23.6295 8.57338 23.5845C8.61638 23.5395 8.65188 23.4885 8.67988 23.4315C8.70888 23.3735 8.72988 23.3125 8.74288 23.2485C8.75688 23.1835 8.76388 23.118 8.76388 23.052V22.8495ZM8.80438 22.8495H8.96338V23.052C8.96338 23.117 8.96988 23.1815 8.98288 23.2455C8.99588 23.3085 9.01538 23.3675 9.04138 23.4225C9.06838 23.4775 9.10288 23.5265 9.14488 23.5695C9.18688 23.6115 9.23688 23.6455 9.29488 23.6715L9.17488 23.8305C9.10988 23.7985 9.05388 23.7565 9.00688 23.7045C8.95988 23.6515 8.92138 23.591 8.89138 23.523C8.86238 23.455 8.84038 23.381 8.82538 23.301C8.81138 23.221 8.80438 23.138 8.80438 23.052V22.8495ZM9.40738 22.7415H9.60688V24.135H9.40738V22.7415Z" fill="black"/>
</g>
<g id="yangcheon">
<path id="&#236;&#150;&#145;&#236;&#178;&#156;&#234;&#181;&#172;" d="M7.80078 26.2001L10.0008 28.4001L15.1008 25.1001L15.8008 26.4001L14.9008 29.8001L8.30078 31.2001L7.80078 26.2001Z" fill="#AFD88C" stroke="white" stroke-width="0.5"/>
<path id="&#236;&#150;&#145;&#236;&#178;&#156;" d="M12.5935 28.0141H12.832V28.1761H12.5935V28.0141ZM12.5935 28.3156H12.832V28.4791H12.5935V28.3156ZM11.947 27.9196C12.019 27.9196 12.0835 27.9341 12.1405 27.9631C12.1975 27.9921 12.2425 28.0321 12.2755 28.0831C12.3085 28.1331 12.325 28.1911 12.325 28.2571C12.325 28.3221 12.3085 28.3801 12.2755 28.4311C12.2425 28.4811 12.1975 28.5206 12.1405 28.5496C12.0835 28.5786 12.019 28.5931 11.947 28.5931C11.876 28.5931 11.812 28.5786 11.755 28.5496C11.698 28.5206 11.653 28.4811 11.62 28.4311C11.587 28.3801 11.5705 28.3221 11.5705 28.2571C11.5705 28.1911 11.587 28.1331 11.62 28.0831C11.653 28.0321 11.698 27.9921 11.755 27.9631C11.812 27.9341 11.876 27.9196 11.947 27.9196ZM11.947 28.0861C11.913 28.0861 11.882 28.0931 11.854 28.1071C11.826 28.1201 11.804 28.1396 11.788 28.1656C11.773 28.1906 11.7655 28.2211 11.7655 28.2571C11.7655 28.2921 11.773 28.3226 11.788 28.3486C11.804 28.3736 11.826 28.3926 11.854 28.4056C11.882 28.4186 11.913 28.4251 11.947 28.4251C11.983 28.4251 12.0145 28.4186 12.0415 28.4056C12.0685 28.3926 12.09 28.3736 12.106 28.3486C12.122 28.3226 12.13 28.2921 12.13 28.2571C12.13 28.2211 12.122 28.1906 12.106 28.1656C12.09 28.1396 12.0685 28.1201 12.0415 28.1071C12.0145 28.0931 11.983 28.0861 11.947 28.0861ZM12.454 27.8446H12.6535V28.6546H12.454V27.8446ZM12.2005 28.6831C12.2965 28.6831 12.3795 28.6941 12.4495 28.7161C12.5205 28.7381 12.575 28.7696 12.613 28.8106C12.651 28.8516 12.67 28.9011 12.67 28.9591C12.67 29.0161 12.651 29.0651 12.613 29.1061C12.575 29.1471 12.5205 29.1786 12.4495 29.2006C12.3795 29.2226 12.2965 29.2336 12.2005 29.2336C12.1045 29.2336 12.021 29.2226 11.95 29.2006C11.88 29.1786 11.8255 29.1471 11.7865 29.1061C11.7485 29.0651 11.7295 29.0161 11.7295 28.9591C11.7295 28.9011 11.7485 28.8516 11.7865 28.8106C11.8255 28.7696 11.88 28.7381 11.95 28.7161C12.021 28.6941 12.1045 28.6831 12.2005 28.6831ZM12.2005 28.8406C12.1415 28.8406 12.092 28.8451 12.052 28.8541C12.012 28.8621 11.9815 28.8746 11.9605 28.8916C11.9395 28.9086 11.929 28.9311 11.929 28.9591C11.929 28.9851 11.9395 29.0071 11.9605 29.0251C11.9815 29.0431 12.012 29.0566 12.052 29.0656C12.092 29.0736 12.1415 29.0776 12.2005 29.0776C12.2595 29.0776 12.309 29.0736 12.349 29.0656C12.39 29.0566 12.4205 29.0431 12.4405 29.0251C12.4615 29.0071 12.472 28.9851 12.472 28.9591C12.472 28.9311 12.4615 28.9086 12.4405 28.8916C12.4205 28.8746 12.39 28.8621 12.349 28.8541C12.309 28.8451 12.2595 28.8406 12.2005 28.8406ZM13.2519 28.1161H13.4154V28.1686C13.4154 28.2536 13.4014 28.3336 13.3734 28.4086C13.3454 28.4836 13.3029 28.5491 13.2459 28.6051C13.1889 28.6611 13.1164 28.7036 13.0284 28.7326L12.9309 28.5766C13.0059 28.5526 13.0669 28.5196 13.1139 28.4776C13.1619 28.4346 13.1969 28.3866 13.2189 28.3336C13.2409 28.2796 13.2519 28.2246 13.2519 28.1686V28.1161ZM13.2894 28.1161H13.4514V28.1686C13.4514 28.2206 13.4624 28.2721 13.4844 28.3231C13.5074 28.3731 13.5429 28.4186 13.5909 28.4596C13.6389 28.4996 13.6999 28.5306 13.7739 28.5526L13.6794 28.7086C13.5914 28.6826 13.5184 28.6431 13.4604 28.5901C13.4034 28.5361 13.3604 28.4731 13.3314 28.4011C13.3034 28.3281 13.2894 28.2506 13.2894 28.1686V28.1161ZM12.9789 28.0081H13.7259V28.1641H12.9789V28.0081ZM13.2519 27.8536H13.4514V28.0666H13.2519V27.8536ZM13.6809 28.2481H14.0034V28.4101H13.6809V28.2481ZM13.9029 27.8446H14.1039V28.8721H13.9029V27.8446ZM13.1859 29.0491H14.1354V29.2096H13.1859V29.0491ZM13.1859 28.7866H13.3854V29.1541H13.1859V28.7866Z" fill="black"/>
</g>
<g id="mapo">
<path id="&#235;&#167;&#136;&#237;&#143;&#172;&#234;&#181;&#172;" d="M15.3012 18.4004L17.8012 20.7004L25.2012 23.4004V24.6004L23.0012 27.4004L15.1012 23.8004L11.7012 21.4004L15.3012 18.4004Z" fill="#AFD88C" stroke="white" stroke-width="0.5"/>
<path id="&#235;&#167;&#136;&#237;&#143;&#172;" d="M17.5039 22.8735H18.1684V23.7945H17.5039V22.8735ZM17.9719 23.031H17.7004V23.6385H17.9719V23.031ZM18.3484 22.7445H18.5494V24.1335H18.3484V22.7445ZM18.5059 23.268H18.7504V23.4315H18.5059V23.268ZM18.8418 23.8155H20.1003V23.9775H18.8418V23.8155ZM19.3683 23.5005H19.5663V23.8875H19.3683V23.5005ZM18.9378 22.857H19.9968V23.0175H18.9378V22.857ZM18.9453 23.4105H19.9923V23.568H18.9453V23.4105ZM19.1268 22.989H19.3263V23.4285H19.1268V22.989ZM19.6083 22.989H19.8078V23.4285H19.6083V22.989Z" fill="black"/>
</g>
<g id="seodaemun">
<path id="&#236;&#132;&#156;&#235;&#140;&#128;&#235;&#172;&#184;&#234;&#181;&#172;" d="M23.8008 15.4004L25.8008 22.4004L25.2008 23.4004L17.8008 20.7004L23.8008 15.4004Z" fill="#AFD88C" stroke="white" stroke-width="0.5"/>
<path id="&#236;&#132;&#156;&#235;&#140;&#128;&#235;&#172;&#184;" d="M21.0628 19.9778H21.4288V20.1383H21.0628V19.9778ZM20.6848 19.6493H20.8453V19.8518C20.8453 19.9388 20.8378 20.0233 20.8228 20.1053C20.8078 20.1873 20.7848 20.2638 20.7538 20.3348C20.7228 20.4058 20.6833 20.4683 20.6353 20.5223C20.5883 20.5763 20.5323 20.6198 20.4673 20.6528L20.3428 20.4938C20.4018 20.4658 20.4523 20.4293 20.4943 20.3843C20.5373 20.3393 20.5728 20.2883 20.6008 20.2313C20.6298 20.1733 20.6508 20.1123 20.6638 20.0483C20.6778 19.9833 20.6848 19.9178 20.6848 19.8518V19.6493ZM20.7253 19.6493H20.8843V19.8518C20.8843 19.9168 20.8908 19.9813 20.9038 20.0453C20.9168 20.1083 20.9363 20.1673 20.9623 20.2223C20.9893 20.2773 21.0238 20.3263 21.0658 20.3693C21.1078 20.4113 21.1578 20.4453 21.2158 20.4713L21.0958 20.6303C21.0308 20.5983 20.9748 20.5563 20.9278 20.5043C20.8808 20.4513 20.8423 20.3908 20.8123 20.3228C20.7833 20.2548 20.7613 20.1808 20.7463 20.1008C20.7323 20.0208 20.7253 19.9378 20.7253 19.8518V19.6493ZM21.3283 19.5413H21.5278V20.9348H21.3283V19.5413ZM22.7442 19.5428H22.9347V20.9318H22.7442V19.5428ZM22.5597 20.0783H22.7907V20.2388H22.5597V20.0783ZM22.4337 19.5668H22.6182V20.8673H22.4337V19.5668ZM21.7812 20.4548H21.8772C21.9352 20.4548 21.9902 20.4543 22.0422 20.4533C22.0942 20.4513 22.1457 20.4478 22.1967 20.4428C22.2487 20.4368 22.3017 20.4293 22.3557 20.4203L22.3722 20.5823C22.3162 20.5923 22.2617 20.6003 22.2087 20.6063C22.1557 20.6123 22.1022 20.6163 22.0482 20.6183C21.9942 20.6193 21.9372 20.6198 21.8772 20.6198H21.7812V20.4548ZM21.7812 19.7048H22.2927V19.8653H21.9777V20.5343H21.7812V19.7048ZM23.1205 20.2298H24.379V20.3873H23.1205V20.2298ZM23.6665 20.3288H23.866V20.6213H23.6665V20.3288ZM23.275 19.6013H24.2185V20.1188H23.275V19.6013ZM24.022 19.7573H23.4715V19.9613H24.022V19.7573ZM23.266 20.7488H24.2395V20.9093H23.266V20.7488ZM23.266 20.5043H23.4655V20.8028H23.266V20.5043Z" fill="black"/>
</g>
<g id="eunpyeong">
<path id="&#236;&#157;&#128;&#237;&#143;&#137;&#234;&#181;&#172;" d="M15.3008 18.4003L17.8008 17.7003L18.2008 9.30029L23.5008 7.80029L24.8008 12.4003L23.8008 15.4003L17.8008 20.7003L15.3008 18.4003Z" fill="#AFD88C" stroke="white" stroke-width="0.5"/>
<path id="&#236;&#157;&#128;&#237;&#143;&#137;" d="M19.7592 13.4525H21.0162V13.61H19.7592V13.4525ZM19.9122 13.949H20.8752V14.1095H19.9122V13.949ZM19.9122 13.703H20.1117V14H19.9122V13.703ZM20.3877 12.785C20.4887 12.785 20.5767 12.7965 20.6517 12.8195C20.7277 12.8425 20.7867 12.8755 20.8287 12.9185C20.8707 12.9615 20.8917 13.012 20.8917 13.07C20.8917 13.129 20.8707 13.18 20.8287 13.223C20.7867 13.266 20.7277 13.299 20.6517 13.322C20.5767 13.345 20.4887 13.3565 20.3877 13.3565C20.2877 13.3565 20.1997 13.345 20.1237 13.322C20.0487 13.299 19.9902 13.266 19.9482 13.223C19.9062 13.18 19.8852 13.129 19.8852 13.07C19.8852 13.012 19.9062 12.9615 19.9482 12.9185C19.9902 12.8755 20.0487 12.8425 20.1237 12.8195C20.1997 12.7965 20.2877 12.785 20.3877 12.785ZM20.3877 12.9425C20.3267 12.9425 20.2737 12.9475 20.2287 12.9575C20.1837 12.9675 20.1497 12.982 20.1267 13.001C20.1037 13.019 20.0922 13.042 20.0922 13.07C20.0922 13.098 20.1037 13.1215 20.1267 13.1405C20.1497 13.1595 20.1837 13.174 20.2287 13.184C20.2737 13.194 20.3267 13.199 20.3877 13.199C20.4507 13.199 20.5042 13.194 20.5482 13.184C20.5922 13.174 20.6257 13.1595 20.6487 13.1405C20.6727 13.1215 20.6847 13.098 20.6847 13.07C20.6847 13.042 20.6727 13.019 20.6487 13.001C20.6257 12.982 20.5922 12.9675 20.5482 12.9575C20.5042 12.9475 20.4507 12.9425 20.3877 12.9425ZM21.9401 12.9665H22.2176V13.1255H21.9401V12.9665ZM21.9401 13.2275H22.2176V13.3865H21.9401V13.2275ZM21.1736 12.8345H21.9071V12.995H21.1736V12.8345ZM21.1601 13.5425L21.1406 13.3805C21.2146 13.3805 21.2966 13.38 21.3866 13.379C21.4766 13.377 21.5681 13.374 21.6611 13.37C21.7541 13.365 21.8421 13.3575 21.9251 13.3475L21.9371 13.493C21.8511 13.508 21.7621 13.519 21.6701 13.526C21.5781 13.533 21.4881 13.5375 21.4001 13.5395C21.3131 13.5415 21.2331 13.5425 21.1601 13.5425ZM21.2846 12.9695H21.4766V13.439H21.2846V12.9695ZM21.6071 12.9695H21.7976V13.439H21.6071V12.9695ZM22.1021 12.7445H22.3031V13.5935H22.1021V12.7445ZM21.8321 13.6145C21.9801 13.6145 22.0961 13.637 22.1801 13.682C22.2651 13.727 22.3076 13.791 22.3076 13.874C22.3076 13.956 22.2651 14.0195 22.1801 14.0645C22.0961 14.1105 21.9801 14.1335 21.8321 14.1335C21.6851 14.1335 21.5691 14.1105 21.4841 14.0645C21.3991 14.0195 21.3566 13.956 21.3566 13.874C21.3566 13.791 21.3991 13.727 21.4841 13.682C21.5691 13.637 21.6851 13.6145 21.8321 13.6145ZM21.8321 13.766C21.7721 13.766 21.7211 13.77 21.6791 13.778C21.6381 13.785 21.6071 13.797 21.5861 13.814C21.5651 13.83 21.5546 13.85 21.5546 13.874C21.5546 13.911 21.5776 13.9385 21.6236 13.9565C21.6706 13.9745 21.7401 13.9835 21.8321 13.9835C21.8931 13.9835 21.9441 13.9795 21.9851 13.9715C22.0261 13.9635 22.0566 13.9515 22.0766 13.9355C22.0976 13.9195 22.1081 13.899 22.1081 13.874C22.1081 13.85 22.0976 13.83 22.0766 13.814C22.0566 13.797 22.0261 13.785 21.9851 13.778C21.9441 13.77 21.8931 13.766 21.8321 13.766Z" fill="black"/>
</g>
<g id="nowon">
<path id="&#235;&#133;&#184;&#236;&#155;&#144;&#234;&#181;&#172;" d="M43.8008 10.5001L43.1008 13.9001L38.7008 14.7001L36.2008 13.3001L35.3008 12.3001L36.5008 3.70009L40.1008 2.1001L43.8008 10.5001Z" fill="#AFD88C" stroke="white" stroke-width="0.5"/>
<path id="&#235;&#133;&#184;&#236;&#155;&#144;" d="M38.2025 9.3415H39.1865V9.5005H38.2025V9.3415ZM38.0615 9.817H39.32V9.9775H38.0615V9.817ZM38.5895 9.436H38.789V9.862H38.5895V9.436ZM38.2025 8.8495H38.402V9.4105H38.2025V8.8495ZM39.8029 9.457H40.0024V9.76H39.8029V9.457ZM40.4104 8.743H40.6099V9.796H40.4104V8.743ZM39.6094 9.949H40.6414V10.1095H39.6094V9.949ZM39.6094 9.6955H39.8089V9.9925H39.6094V9.6955ZM39.4609 9.517L39.4354 9.358C39.5204 9.357 39.6129 9.356 39.7129 9.355C39.8129 9.353 39.9149 9.349 40.0189 9.343C40.1229 9.337 40.2229 9.328 40.3189 9.316L40.3324 9.4585C40.2334 9.4755 40.1324 9.4885 40.0294 9.4975C39.9274 9.5055 39.8279 9.5105 39.7309 9.5125C39.6339 9.5145 39.5439 9.516 39.4609 9.517ZM40.1494 9.55H40.4554V9.6865H40.1494V9.55ZM39.8824 8.791C39.9504 8.791 40.0104 8.8015 40.0624 8.8225C40.1144 8.8435 40.1549 8.8725 40.1839 8.9095C40.2139 8.9465 40.2289 8.99 40.2289 9.04C40.2289 9.089 40.2139 9.1325 40.1839 9.1705C40.1549 9.2075 40.1144 9.236 40.0624 9.256C40.0104 9.276 39.9504 9.286 39.8824 9.286C39.8144 9.286 39.7539 9.276 39.7009 9.256C39.6489 9.236 39.6084 9.2075 39.5794 9.1705C39.5504 9.1325 39.5359 9.089 39.5359 9.04C39.5359 8.99 39.5504 8.9465 39.5794 8.9095C39.6084 8.8725 39.6489 8.8435 39.7009 8.8225C39.7539 8.8015 39.8144 8.791 39.8824 8.791ZM39.8824 8.9365C39.8364 8.9365 39.7984 8.945 39.7684 8.962C39.7394 8.979 39.7249 9.005 39.7249 9.04C39.7249 9.073 39.7394 9.0985 39.7684 9.1165C39.7984 9.1335 39.8364 9.142 39.8824 9.142C39.9294 9.142 39.9669 9.1335 39.9949 9.1165C40.0239 9.0985 40.0384 9.073 40.0384 9.04C40.0384 9.017 40.0319 8.998 40.0189 8.983C40.0059 8.968 39.9879 8.9565 39.9649 8.9485C39.9419 8.9405 39.9144 8.9365 39.8824 8.9365Z" fill="black"/>
</g>
<g id="dobong">
<path id="&#235;&#143;&#132;&#235;&#180;&#137;&#234;&#181;&#172;" d="M35.3016 12.3002L31.1016 3.90019L32.0016 1.2002L36.5016 3.7002L35.3016 12.3002Z" fill="#AFD88C" stroke="white" stroke-width="0.5"/>
<path id="&#235;&#143;&#132;&#235;&#180;&#137;" d="M33.0093 4.8625H33.9858V5.023H33.0093V4.8625ZM32.8623 5.314H34.1208V5.4775H32.8623V5.314ZM33.3903 4.936H33.5883V5.3665H33.3903V4.936ZM33.0093 4.339H33.9753V4.498H33.2073V4.9315H33.0093V4.339ZM34.2407 4.9135H35.4977V5.071H34.2407V4.9135ZM34.7687 4.75H34.9667V4.957H34.7687V4.75ZM34.8662 5.137C35.0172 5.137 35.1352 5.159 35.2202 5.203C35.3052 5.246 35.3477 5.307 35.3477 5.386C35.3477 5.466 35.3052 5.527 35.2202 5.569C35.1352 5.612 35.0172 5.6335 34.8662 5.6335C34.7162 5.6335 34.5982 5.612 34.5122 5.569C34.4272 5.527 34.3847 5.466 34.3847 5.386C34.3847 5.307 34.4272 5.246 34.5122 5.203C34.5982 5.159 34.7162 5.137 34.8662 5.137ZM34.8662 5.287C34.8042 5.287 34.7522 5.2905 34.7102 5.2975C34.6692 5.3045 34.6382 5.3155 34.6172 5.3305C34.5962 5.3445 34.5857 5.363 34.5857 5.386C34.5857 5.408 34.5962 5.4265 34.6172 5.4415C34.6382 5.4555 34.6692 5.4665 34.7102 5.4745C34.7522 5.4815 34.8042 5.485 34.8662 5.485C34.9292 5.485 34.9812 5.4815 35.0222 5.4745C35.0632 5.4665 35.0942 5.4555 35.1152 5.4415C35.1362 5.4265 35.1467 5.408 35.1467 5.386C35.1467 5.363 35.1362 5.3445 35.1152 5.3305C35.0942 5.3155 35.0632 5.3045 35.0222 5.2975C34.9812 5.2905 34.9292 5.287 34.8662 5.287ZM34.4012 4.2835H34.5977V4.4005H35.1407V4.2835H35.3387V4.81H34.4012V4.2835ZM34.5977 4.549V4.654H35.1407V4.549H34.5977Z" fill="black"/>
</g>
<g id="gangbuk">
<path id="&#234;&#176;&#149;&#235;&#182;&#129;&#234;&#181;&#172;" d="M29.1 4.6004L31.1 3.90039L35.3 12.3004L36.2 13.3004L33.7 15.7004L28.3 11.5004L28.1 11.4004H28L29.1 4.6004Z" fill="#AFD88C" stroke="white" stroke-width="0.5"/>
<path id="&#234;&#176;&#149;&#235;&#182;&#129;" d="M30.8544 10.0428H31.0539V10.8468H30.8544V10.0428ZM30.9999 10.3668H31.2384V10.5318H30.9999V10.3668ZM30.4584 10.1343H30.6729C30.6729 10.2583 30.6479 10.3698 30.5979 10.4688C30.5479 10.5668 30.4749 10.6503 30.3789 10.7193C30.2839 10.7883 30.1684 10.8418 30.0324 10.8798L29.9514 10.7208C30.0624 10.6898 30.1554 10.6503 30.2304 10.6023C30.3064 10.5533 30.3634 10.4978 30.4014 10.4358C30.4394 10.3728 30.4584 10.3053 30.4584 10.2333V10.1343ZM30.0159 10.1343H30.5784V10.2933H30.0159V10.1343ZM30.6039 10.8648C30.6979 10.8648 30.7799 10.8768 30.8499 10.9008C30.9199 10.9238 30.9739 10.9568 31.0119 10.9998C31.0509 11.0418 31.0704 11.0918 31.0704 11.1498C31.0704 11.2078 31.0509 11.2578 31.0119 11.2998C30.9739 11.3428 30.9199 11.3758 30.8499 11.3988C30.7799 11.4218 30.6979 11.4333 30.6039 11.4333C30.5109 11.4333 30.4294 11.4218 30.3594 11.3988C30.2894 11.3758 30.2349 11.3428 30.1959 11.2998C30.1569 11.2578 30.1374 11.2078 30.1374 11.1498C30.1374 11.0918 30.1569 11.0418 30.1959 10.9998C30.2349 10.9568 30.2894 10.9238 30.3594 10.9008C30.4294 10.8768 30.5109 10.8648 30.6039 10.8648ZM30.6039 11.0193C30.5489 11.0193 30.5009 11.0243 30.4599 11.0343C30.4199 11.0443 30.3889 11.0588 30.3669 11.0778C30.3459 11.0968 30.3354 11.1208 30.3354 11.1498C30.3354 11.1778 30.3459 11.2013 30.3669 11.2203C30.3889 11.2393 30.4199 11.2538 30.4599 11.2638C30.5009 11.2738 30.5489 11.2788 30.6039 11.2788C30.6609 11.2788 30.7094 11.2738 30.7494 11.2638C30.7894 11.2538 30.8199 11.2393 30.8409 11.2203C30.8629 11.2013 30.8739 11.1778 30.8739 11.1498C30.8739 11.1208 30.8629 11.0968 30.8409 11.0778C30.8199 11.0588 30.7894 11.0443 30.7494 11.0343C30.7094 11.0243 30.6609 11.0193 30.6039 11.0193ZM31.8668 10.8243H32.0663V11.0358H31.8668V10.8243ZM31.3403 10.7043H32.5973V10.8633H31.3403V10.7043ZM31.4798 10.9803H32.4458V11.4333H32.2463V11.1378H31.4798V10.9803ZM31.5008 10.0788H31.6973V10.2003H32.2403V10.0788H32.4383V10.6143H31.5008V10.0788ZM31.6973 10.3503V10.4583H32.2403V10.3503H31.6973Z" fill="black"/>
</g>
<g id="seongbuk">
<path id="&#236;&#132;&#177;&#235;&#182;&#129;&#234;&#181;&#172;" d="M32.8004 20.5L27.1004 17.4L26.9004 12.1L28.3004 11.5L33.7004 15.7L36.2004 13.3L38.7004 14.7L38.8004 15.9L32.8004 20.5Z" fill="#AFD88C" stroke="white" stroke-width="0.5"/>
<path id="&#236;&#132;&#177;&#235;&#182;&#129;" d="M31.384 16.8165H31.549V16.9395C31.549 17.0325 31.5345 17.12 31.5055 17.202C31.4775 17.284 31.4345 17.3555 31.3765 17.4165C31.3185 17.4775 31.244 17.5235 31.153 17.5545L31.048 17.394C31.128 17.369 31.1925 17.333 31.2415 17.286C31.2905 17.239 31.3265 17.1855 31.3495 17.1255C31.3725 17.0655 31.384 17.0035 31.384 16.9395V16.8165ZM31.4245 16.8165H31.5865V16.9305C31.5865 16.9915 31.597 17.0505 31.618 17.1075C31.639 17.1635 31.6725 17.2135 31.7185 17.2575C31.7645 17.3005 31.824 17.334 31.897 17.358L31.7935 17.514C31.7085 17.484 31.6385 17.4405 31.5835 17.3835C31.5295 17.3265 31.4895 17.2595 31.4635 17.1825C31.4375 17.1045 31.4245 17.0205 31.4245 16.9305V16.8165ZM32.023 16.7445H32.224V17.5575H32.023V16.7445ZM31.753 17.5935C31.9 17.5935 32.016 17.6175 32.101 17.6655C32.186 17.7125 32.2285 17.778 32.2285 17.862C32.2285 17.948 32.186 18.0145 32.101 18.0615C32.016 18.1095 31.9 18.1335 31.753 18.1335C31.606 18.1335 31.49 18.1095 31.405 18.0615C31.32 18.0145 31.2775 17.948 31.2775 17.862C31.2775 17.778 31.32 17.7125 31.405 17.6655C31.49 17.6175 31.606 17.5935 31.753 17.5935ZM31.753 17.748C31.693 17.748 31.6425 17.752 31.6015 17.76C31.5605 17.768 31.529 17.781 31.507 17.799C31.486 17.816 31.4755 17.837 31.4755 17.862C31.4755 17.888 31.486 17.91 31.507 17.928C31.529 17.945 31.5605 17.958 31.6015 17.967C31.6425 17.975 31.693 17.979 31.753 17.979C31.813 17.979 31.8635 17.975 31.9045 17.967C31.9455 17.958 31.9765 17.945 31.9975 17.928C32.0185 17.91 32.029 17.888 32.029 17.862C32.029 17.837 32.0185 17.816 31.9975 17.799C31.9765 17.781 31.9455 17.768 31.9045 17.76C31.8635 17.752 31.813 17.748 31.753 17.748ZM31.7695 16.9965H32.053V17.1585H31.7695V16.9965ZM32.9664 17.5245H33.1659V17.736H32.9664V17.5245ZM32.4399 17.4045H33.6969V17.5635H32.4399V17.4045ZM32.5794 17.6805H33.5454V18.1335H33.3459V17.838H32.5794V17.6805ZM32.6004 16.779H32.7969V16.9005H33.3399V16.779H33.5379V17.3145H32.6004V16.779ZM32.7969 17.0505V17.1585H33.3399V17.0505H32.7969Z" fill="black"/>
</g>
<g id="dongdaemun">
<path id="&#235;&#143;&#153;&#235;&#140;&#128;&#235;&#172;&#184;&#234;&#181;&#172;" d="M38.8008 15.9004L39.6008 21.3004L39.7008 21.5004L39.4008 22.3004L39.0008 23.4004L32.9008 21.5004L32.8008 20.5004L38.8008 15.9004Z" fill="#AFD88C" stroke="white" stroke-width="0.5"/>
<path id="&#235;&#143;&#153;&#235;&#140;&#128;&#235;&#172;&#184;" d="M34.563 20.5972H35.8185V20.7547H34.563V20.5972ZM35.091 20.3887H35.2905V20.6587H35.091V20.3887ZM34.7145 20.3257H35.676V20.4817H34.7145V20.3257ZM34.7145 20.0032H35.6685V20.1607H34.9125V20.4247H34.7145V20.0032ZM35.1855 20.8237C35.3355 20.8237 35.4535 20.8462 35.5395 20.8912C35.6255 20.9352 35.6685 20.9982 35.6685 21.0802C35.6685 21.1612 35.6255 21.2237 35.5395 21.2677C35.4535 21.3127 35.3355 21.3352 35.1855 21.3352C35.0355 21.3352 34.9175 21.3127 34.8315 21.2677C34.7465 21.2237 34.704 21.1612 34.704 21.0802C34.704 20.9982 34.7465 20.9352 34.8315 20.8912C34.9175 20.8462 35.0355 20.8237 35.1855 20.8237ZM35.1855 20.9752C35.1235 20.9752 35.0715 20.9792 35.0295 20.9872C34.9885 20.9942 34.9575 21.0057 34.9365 21.0217C34.9155 21.0367 34.905 21.0557 34.905 21.0787C34.905 21.1027 34.9155 21.1227 34.9365 21.1387C34.9575 21.1537 34.9885 21.1652 35.0295 21.1732C35.0715 21.1802 35.1235 21.1837 35.1855 21.1837C35.2475 21.1837 35.299 21.1802 35.34 21.1732C35.382 21.1652 35.4135 21.1537 35.4345 21.1387C35.4555 21.1227 35.466 21.1027 35.466 21.0787C35.466 21.0557 35.4555 21.0367 35.4345 21.0217C35.4135 21.0057 35.382 20.9942 35.34 20.9872C35.299 20.9792 35.2475 20.9752 35.1855 20.9752ZM36.9434 19.9432H37.1339V21.3322H36.9434V19.9432ZM36.7589 20.4787H36.9899V20.6392H36.7589V20.4787ZM36.6329 19.9672H36.8174V21.2677H36.6329V19.9672ZM35.9804 20.8552H36.0764C36.1344 20.8552 36.1894 20.8547 36.2414 20.8537C36.2934 20.8517 36.3449 20.8482 36.3959 20.8432C36.4479 20.8372 36.5009 20.8297 36.5549 20.8207L36.5714 20.9827C36.5154 20.9927 36.4609 21.0007 36.4079 21.0067C36.3549 21.0127 36.3014 21.0167 36.2474 21.0187C36.1934 21.0197 36.1364 21.0202 36.0764 21.0202H35.9804V20.8552ZM35.9804 20.1052H36.4919V20.2657H36.1769V20.9347H35.9804V20.1052ZM37.3198 20.6302H38.5783V20.7877H37.3198V20.6302ZM37.8658 20.7292H38.0653V21.0217H37.8658V20.7292ZM37.4743 20.0017H38.4178V20.5192H37.4743V20.0017ZM38.2213 20.1577H37.6708V20.3617H38.2213V20.1577ZM37.4653 21.1492H38.4388V21.3097H37.4653V21.1492ZM37.4653 20.9047H37.6648V21.2032H37.4653V20.9047Z" fill="black"/>
</g>
<g id="jungnang">
<path id="&#236;&#164;&#145;&#235;&#158;&#145;&#234;&#181;&#172;" d="M43.1012 13.9004L42.5012 21.2004L39.7012 21.5004L39.6012 21.3004L38.8012 15.9004L38.7012 14.7004L43.1012 13.9004Z" fill="#AFD88C" stroke="white" stroke-width="0.5"/>
<path id="&#236;&#164;&#145;&#235;&#158;&#145;" d="M40.0895 17.2418H40.2875V17.4863H40.0895V17.2418ZM39.56 17.1743H40.817V17.3333H39.56V17.1743ZM40.1855 17.4308C40.3355 17.4308 40.4535 17.4528 40.5395 17.4968C40.6255 17.5398 40.6685 17.6018 40.6685 17.6828C40.6685 17.7618 40.6255 17.8233 40.5395 17.8673C40.4535 17.9113 40.3355 17.9333 40.1855 17.9333C40.0355 17.9333 39.9175 17.9113 39.8315 17.8673C39.7465 17.8233 39.704 17.7618 39.704 17.6828C39.704 17.6018 39.7465 17.5398 39.8315 17.4968C39.9175 17.4528 40.0355 17.4308 40.1855 17.4308ZM40.1855 17.5823C40.1235 17.5823 40.0715 17.5858 40.0295 17.5928C39.9885 17.5998 39.9575 17.6108 39.9365 17.6258C39.9155 17.6398 39.905 17.6588 39.905 17.6828C39.905 17.7048 39.9155 17.7233 39.9365 17.7383C39.9575 17.7533 39.9885 17.7643 40.0295 17.7713C40.0715 17.7783 40.1235 17.7818 40.1855 17.7818C40.2475 17.7818 40.299 17.7783 40.34 17.7713C40.382 17.7643 40.4135 17.7533 40.4345 17.7383C40.4555 17.7233 40.466 17.7048 40.466 17.6828C40.466 17.6588 40.4555 17.6398 40.4345 17.6258C40.4135 17.6108 40.382 17.5998 40.34 17.5928C40.299 17.5858 40.2475 17.5823 40.1855 17.5823ZM40.052 16.6748H40.229V16.7078C40.229 16.7498 40.2215 16.7898 40.2065 16.8278C40.1915 16.8658 40.169 16.9013 40.139 16.9343C40.11 16.9663 40.0735 16.9953 40.0295 17.0213C39.9855 17.0473 39.9345 17.0688 39.8765 17.0858C39.8185 17.1028 39.754 17.1148 39.683 17.1218L39.614 16.9643C39.675 16.9593 39.729 16.9508 39.776 16.9388C39.824 16.9268 39.865 16.9123 39.899 16.8953C39.934 16.8773 39.9625 16.8583 39.9845 16.8383C40.0075 16.8173 40.0245 16.7958 40.0355 16.7738C40.0465 16.7518 40.052 16.7298 40.052 16.7078V16.6748ZM40.1495 16.6748H40.325V16.7078C40.325 16.7298 40.3305 16.7523 40.3415 16.7753C40.3525 16.7973 40.369 16.8183 40.391 16.8383C40.414 16.8583 40.4425 16.8773 40.4765 16.8953C40.5115 16.9123 40.5525 16.9268 40.5995 16.9388C40.6475 16.9508 40.702 16.9593 40.763 16.9643L40.694 17.1218C40.623 17.1148 40.5585 17.1028 40.5005 17.0858C40.4425 17.0688 40.3915 17.0478 40.3475 17.0228C40.3045 16.9968 40.268 16.9678 40.238 16.9358C40.209 16.9028 40.187 16.8673 40.172 16.8293C40.157 16.7903 40.1495 16.7498 40.1495 16.7078V16.6748ZM39.6755 16.6013H40.7045V16.7588H39.6755V16.6013ZM41.8339 16.5428H42.0334V17.3753H41.8339V16.5428ZM41.9779 16.8668H42.2179V17.0303H41.9779V16.8668ZM40.9909 17.1623H41.1079C41.1989 17.1623 41.2799 17.1613 41.3509 17.1593C41.4229 17.1573 41.4894 17.1533 41.5504 17.1473C41.6124 17.1403 41.6754 17.1313 41.7394 17.1203L41.7574 17.2793C41.6934 17.2913 41.6289 17.3008 41.5639 17.3078C41.4999 17.3138 41.4309 17.3178 41.3569 17.3198C41.2839 17.3218 41.2009 17.3228 41.1079 17.3228H40.9909V17.1623ZM40.9879 16.6253H41.6224V17.0438H41.1874V17.2598H40.9909V16.8953H41.4259V16.7843H40.9879V16.6253ZM41.5774 17.4053C41.6744 17.4053 41.7579 17.4158 41.8279 17.4368C41.8989 17.4578 41.9529 17.4878 41.9899 17.5268C42.0279 17.5658 42.0469 17.6133 42.0469 17.6693C42.0469 17.7523 42.0049 17.8168 41.9209 17.8628C41.8379 17.9098 41.7234 17.9333 41.5774 17.9333C41.4814 17.9333 41.3979 17.9228 41.3269 17.9018C41.2569 17.8818 41.2029 17.8518 41.1649 17.8118C41.1269 17.7718 41.1079 17.7243 41.1079 17.6693C41.1079 17.6133 41.1269 17.5658 41.1649 17.5268C41.2029 17.4878 41.2569 17.4578 41.3269 17.4368C41.3979 17.4158 41.4814 17.4053 41.5774 17.4053ZM41.5774 17.5568C41.5174 17.5568 41.4669 17.5608 41.4259 17.5688C41.3859 17.5768 41.3554 17.5893 41.3344 17.6063C41.3144 17.6233 41.3044 17.6443 41.3044 17.6693C41.3044 17.6953 41.3144 17.7168 41.3344 17.7338C41.3554 17.7498 41.3859 17.7618 41.4259 17.7698C41.4669 17.7778 41.5174 17.7818 41.5774 17.7818C41.6384 17.7818 41.6889 17.7778 41.7289 17.7698C41.7699 17.7618 41.8004 17.7498 41.8204 17.7338C41.8414 17.7168 41.8519 17.6953 41.8519 17.6693C41.8519 17.6443 41.8414 17.6233 41.8204 17.6063C41.8004 17.5893 41.7699 17.5768 41.7289 17.5688C41.6889 17.5608 41.6384 17.5568 41.5774 17.5568Z" fill="black"/>
</g>
<g id="gwangjin">
<path id="&#234;&#180;&#145;&#236;&#167;&#132;&#234;&#181;&#172;" d="M42.5004 21.2002L44.3004 23.9002L43.5004 26.0002L42.3004 27.4002L38.3004 28.9002L36.9004 28.3002L39.0004 23.4002L39.4004 22.3002L39.7004 21.5002L42.5004 21.2002Z" fill="#AFD88C" stroke="white" stroke-width="0.5"/>
<path id="&#234;&#180;&#145;&#236;&#167;&#132;" d="M39.623 24.8195H40.217V24.977H39.623V24.8195ZM39.794 25.13H39.9905V25.472H39.794V25.13ZM40.1375 24.8195H40.3355V24.9095C40.3355 24.9555 40.334 25.009 40.331 25.07C40.328 25.131 40.3185 25.1995 40.3025 25.2755L40.109 25.259C40.124 25.185 40.1325 25.12 40.1345 25.064C40.1365 25.007 40.1375 24.9555 40.1375 24.9095V24.8195ZM40.469 24.743H40.67V25.5905H40.469V24.743ZM40.592 25.085H40.8365V25.2485H40.592V25.085ZM39.56 25.5335L39.5405 25.3745C39.6245 25.3745 39.7145 25.374 39.8105 25.373C39.9075 25.372 40.006 25.369 40.106 25.364C40.206 25.358 40.302 25.3495 40.394 25.3385L40.4075 25.4795C40.3125 25.4955 40.2155 25.5075 40.1165 25.5155C40.0175 25.5225 39.9205 25.5275 39.8255 25.5305C39.7315 25.5325 39.643 25.5335 39.56 25.5335ZM40.202 25.6055C40.301 25.6055 40.386 25.616 40.457 25.637C40.529 25.658 40.5845 25.688 40.6235 25.727C40.6625 25.766 40.682 25.813 40.682 25.868C40.682 25.923 40.6625 25.97 40.6235 26.009C40.5845 26.049 40.529 26.0795 40.457 26.1005C40.386 26.1215 40.301 26.132 40.202 26.132C40.104 26.132 40.0185 26.1215 39.9455 26.1005C39.8735 26.0795 39.818 26.049 39.779 26.009C39.74 25.97 39.7205 25.923 39.7205 25.868C39.7205 25.813 39.74 25.766 39.779 25.727C39.818 25.688 39.8735 25.658 39.9455 25.637C40.0185 25.616 40.104 25.6055 40.202 25.6055ZM40.202 25.7585C40.112 25.7585 40.043 25.7675 39.995 25.7855C39.948 25.8035 39.9245 25.831 39.9245 25.868C39.9245 25.904 39.948 25.931 39.995 25.949C40.043 25.967 40.112 25.976 40.202 25.976C40.291 25.976 40.359 25.967 40.406 25.949C40.454 25.931 40.478 25.904 40.478 25.868C40.478 25.831 40.454 25.8035 40.406 25.7855C40.359 25.7675 40.291 25.7585 40.202 25.7585ZM41.2774 24.899H41.4424V25.016C41.4424 25.103 41.4279 25.186 41.3989 25.265C41.3709 25.343 41.3279 25.4115 41.2699 25.4705C41.2119 25.5285 41.1379 25.572 41.0479 25.601L40.9459 25.445C41.0239 25.42 41.0869 25.385 41.1349 25.34C41.1839 25.295 41.2199 25.2445 41.2429 25.1885C41.2659 25.1315 41.2774 25.074 41.2774 25.016V24.899ZM41.3194 24.899H41.4814V25.016C41.4814 25.057 41.4879 25.098 41.5009 25.139C41.5139 25.179 41.5334 25.2175 41.5594 25.2545C41.5864 25.2905 41.6204 25.323 41.6614 25.352C41.7024 25.381 41.7509 25.4045 41.8069 25.4225L41.7064 25.577C41.6194 25.549 41.5474 25.507 41.4904 25.451C41.4334 25.395 41.3904 25.3295 41.3614 25.2545C41.3334 25.1785 41.3194 25.099 41.3194 25.016V24.899ZM40.9999 24.842H41.7559V25.001H40.9999V24.842ZM41.8954 24.7445H42.0949V25.7465H41.8954V24.7445ZM41.1694 25.949H42.1309V26.1095H41.1694V25.949ZM41.1694 25.6565H41.3689V26.0285H41.1694V25.6565Z" fill="black"/>
</g>
<g id="yongsan">
<path id="&#236;&#154;&#169;&#236;&#130;&#176;&#234;&#181;&#172;" d="M25.2 24.6001L31 25.8001L32.1 27.4001L31 28.7001L27.5 31.7001L23.7 29.9001L23 27.4001L25.2 24.6001Z" fill="#AFD88C" stroke="white" stroke-width="0.5"/>
<path id="&#236;&#154;&#169;&#236;&#130;&#176;" d="M26.3435 28.208H26.5415V28.463H26.3435V28.208ZM26.831 28.208H27.0305V28.463H26.831V28.208ZM26.06 28.403H27.317V28.559H26.06V28.403ZM26.6855 28.6295C26.8355 28.6295 26.9535 28.6515 27.0395 28.6955C27.1255 28.7385 27.1685 28.8005 27.1685 28.8815C27.1685 28.9615 27.1255 29.0235 27.0395 29.0675C26.9535 29.1115 26.8355 29.1335 26.6855 29.1335C26.5355 29.1335 26.4175 29.1115 26.3315 29.0675C26.2465 29.0235 26.204 28.9615 26.204 28.8815C26.204 28.8005 26.2465 28.7385 26.3315 28.6955C26.4175 28.6515 26.5355 28.6295 26.6855 28.6295ZM26.6855 28.7795C26.6235 28.7795 26.5715 28.7835 26.5295 28.7915C26.4885 28.7985 26.4575 28.8095 26.4365 28.8245C26.4155 28.8395 26.405 28.8585 26.405 28.8815C26.405 28.9045 26.4155 28.924 26.4365 28.94C26.4575 28.955 26.4885 28.966 26.5295 28.973C26.5715 28.98 26.6235 28.9835 26.6855 28.9835C26.7475 28.9835 26.799 28.98 26.84 28.973C26.882 28.966 26.9135 28.955 26.9345 28.94C26.9555 28.924 26.966 28.9045 26.966 28.8815C26.966 28.8585 26.9555 28.8395 26.9345 28.8245C26.9135 28.8095 26.882 28.7985 26.84 28.7915C26.799 28.7835 26.7475 28.7795 26.6855 28.7795ZM26.6885 27.764C26.7915 27.764 26.8805 27.775 26.9555 27.797C27.0315 27.818 27.09 27.8485 27.131 27.8885C27.172 27.9285 27.1925 27.976 27.1925 28.031C27.1925 28.086 27.172 28.1335 27.131 28.1735C27.09 28.2125 27.0315 28.243 26.9555 28.265C26.8805 28.286 26.7915 28.2965 26.6885 28.2965C26.5875 28.2965 26.499 28.286 26.423 28.265C26.347 28.243 26.2885 28.2125 26.2475 28.1735C26.2065 28.1335 26.186 28.086 26.186 28.031C26.186 27.976 26.2065 27.9285 26.2475 27.8885C26.2885 27.8485 26.347 27.818 26.423 27.797C26.499 27.775 26.5875 27.764 26.6885 27.764ZM26.6885 27.9155C26.6265 27.9155 26.573 27.92 26.528 27.929C26.483 27.937 26.449 27.9495 26.426 27.9665C26.404 27.9835 26.393 28.005 26.393 28.031C26.393 28.056 26.404 28.077 26.426 28.094C26.449 28.111 26.483 28.124 26.528 28.133C26.573 28.141 26.6265 28.145 26.6885 28.145C26.7525 28.145 26.8065 28.141 26.8505 28.133C26.8945 28.124 26.928 28.111 26.951 28.094C26.974 28.077 26.9855 28.056 26.9855 28.031C26.9855 28.005 26.974 27.9835 26.951 27.9665C26.928 27.9495 26.8945 27.937 26.8505 27.929C26.8065 27.92 26.7525 27.9155 26.6885 27.9155ZM27.7519 27.8285H27.9169V27.9785C27.9169 28.0705 27.9024 28.157 27.8734 28.238C27.8454 28.318 27.8024 28.388 27.7444 28.448C27.6874 28.508 27.6144 28.553 27.5254 28.583L27.4189 28.4285C27.4979 28.4025 27.5619 28.3665 27.6109 28.3205C27.6599 28.2735 27.6954 28.2205 27.7174 28.1615C27.7404 28.1015 27.7519 28.0405 27.7519 27.9785V27.8285ZM27.7924 27.8285H27.9544V27.98C27.9544 28.024 27.9604 28.0675 27.9724 28.1105C27.9844 28.1525 28.0034 28.1925 28.0294 28.2305C28.0554 28.2675 28.0884 28.301 28.1284 28.331C28.1684 28.36 28.2164 28.3835 28.2724 28.4015L28.1704 28.5575C28.0834 28.5285 28.0119 28.4855 27.9559 28.4285C27.9009 28.3705 27.8599 28.303 27.8329 28.226C27.8059 28.149 27.7924 28.067 27.7924 27.98V27.8285ZM28.3339 27.7445H28.5334V28.76H28.3339V27.7445ZM28.4779 28.1465H28.7179V28.31H28.4779V28.1465ZM27.6394 28.949H28.5829V29.1095H27.6394V28.949ZM27.6394 28.6625H27.8404V29.0345H27.6394V28.6625Z" fill="black"/>
</g>
<g id="seoul_junggu">
<path id="&#236;&#164;&#145;&#234;&#181;&#172;" d="M25.8012 22.4L32.9012 21.5L31.0012 25.8L25.2012 24.6V23.4L25.8012 22.4Z" fill="#AFD88C" stroke="white" stroke-width="0.5"/>
<path id="&#236;&#164;&#145;&#234;&#181;&#172;_2" d="M28.0895 23.8419H28.2875V24.0864H28.0895V23.8419ZM27.56 23.7744H28.817V23.9334H27.56V23.7744ZM28.1855 24.0309C28.3355 24.0309 28.4535 24.0529 28.5395 24.0969C28.6255 24.1399 28.6685 24.2019 28.6685 24.2829C28.6685 24.3619 28.6255 24.4234 28.5395 24.4674C28.4535 24.5114 28.3355 24.5334 28.1855 24.5334C28.0355 24.5334 27.9175 24.5114 27.8315 24.4674C27.7465 24.4234 27.704 24.3619 27.704 24.2829C27.704 24.2019 27.7465 24.1399 27.8315 24.0969C27.9175 24.0529 28.0355 24.0309 28.1855 24.0309ZM28.1855 24.1824C28.1235 24.1824 28.0715 24.1859 28.0295 24.1929C27.9885 24.1999 27.9575 24.2109 27.9365 24.2259C27.9155 24.2399 27.905 24.2589 27.905 24.2829C27.905 24.3049 27.9155 24.3234 27.9365 24.3384C27.9575 24.3534 27.9885 24.3644 28.0295 24.3714C28.0715 24.3784 28.1235 24.3819 28.1855 24.3819C28.2475 24.3819 28.299 24.3784 28.34 24.3714C28.382 24.3644 28.4135 24.3534 28.4345 24.3384C28.4555 24.3234 28.466 24.3049 28.466 24.2829C28.466 24.2589 28.4555 24.2399 28.4345 24.2259C28.4135 24.2109 28.382 24.1999 28.34 24.1929C28.299 24.1859 28.2475 24.1824 28.1855 24.1824ZM28.052 23.2749H28.229V23.3079C28.229 23.3499 28.2215 23.3899 28.2065 23.4279C28.1915 23.4659 28.169 23.5014 28.139 23.5344C28.11 23.5664 28.0735 23.5954 28.0295 23.6214C27.9855 23.6474 27.9345 23.6689 27.8765 23.6859C27.8185 23.7029 27.754 23.7149 27.683 23.7219L27.614 23.5644C27.675 23.5594 27.729 23.5509 27.776 23.5389C27.824 23.5269 27.865 23.5124 27.899 23.4954C27.934 23.4774 27.9625 23.4584 27.9845 23.4384C28.0075 23.4174 28.0245 23.3959 28.0355 23.3739C28.0465 23.3519 28.052 23.3299 28.052 23.3079V23.2749ZM28.1495 23.2749H28.325V23.3079C28.325 23.3299 28.3305 23.3524 28.3415 23.3754C28.3525 23.3974 28.369 23.4184 28.391 23.4384C28.414 23.4584 28.4425 23.4774 28.4765 23.4954C28.5115 23.5124 28.5525 23.5269 28.5995 23.5389C28.6475 23.5509 28.702 23.5594 28.763 23.5644L28.694 23.7219C28.623 23.7149 28.5585 23.7029 28.5005 23.6859C28.4425 23.6689 28.3915 23.6479 28.3475 23.6229C28.3045 23.5969 28.268 23.5679 28.238 23.5359C28.209 23.5029 28.187 23.4674 28.172 23.4294C28.157 23.3904 28.1495 23.3499 28.1495 23.3079V23.2749ZM27.6755 23.2014H28.7045V23.3589H27.6755V23.2014ZM29.0854 23.2239H29.9554V23.3814H29.0854V23.2239ZM28.9414 23.8149H30.1984V23.9769H28.9414V23.8149ZM29.4619 23.9289H29.6629V24.5334H29.4619V23.9289ZM29.8534 23.2239H30.0499V23.3469C30.0499 23.3969 30.0489 23.4499 30.0469 23.5059C30.0459 23.5619 30.0419 23.6234 30.0349 23.6904C30.0279 23.7564 30.0149 23.8304 29.9959 23.9124L29.8009 23.8884C29.8269 23.7734 29.8419 23.6729 29.8459 23.5869C29.8509 23.4999 29.8534 23.4199 29.8534 23.3469V23.2239Z" fill="black"/>
</g>
<g id="jongno">
<path id="&#236;&#162;&#133;&#235;&#161;&#156;&#234;&#181;&#172;" d="M26.9008 12.1001L27.1008 17.4001L32.8008 20.5001L32.9008 21.5001L25.8008 22.4001L23.8008 15.4001L24.8008 12.4001L26.9008 12.1001Z" fill="#AFD88C" stroke="white" stroke-width="0.5"/>
<path id="&#236;&#162;&#133;&#235;&#161;&#156;" d="M26.8873 20.241H27.0868V20.49H26.8873V20.241ZM26.3608 20.409H27.6178V20.5665H26.3608V20.409ZM26.9863 20.643C27.1373 20.643 27.2553 20.6645 27.3403 20.7075C27.4263 20.7495 27.4693 20.81 27.4693 20.889C27.4693 20.967 27.4263 21.027 27.3403 21.069C27.2553 21.112 27.1373 21.1335 26.9863 21.1335C26.8353 21.1335 26.7173 21.112 26.6323 21.069C26.5473 21.027 26.5048 20.967 26.5048 20.889C26.5048 20.81 26.5473 20.7495 26.6323 20.7075C26.7173 20.6645 26.8353 20.643 26.9863 20.643ZM26.9863 20.793C26.8933 20.793 26.8233 20.801 26.7763 20.817C26.7293 20.832 26.7058 20.856 26.7058 20.889C26.7058 20.922 26.7293 20.9465 26.7763 20.9625C26.8233 20.9775 26.8933 20.985 26.9863 20.985C27.0803 20.985 27.1503 20.9775 27.1963 20.9625C27.2433 20.9465 27.2668 20.922 27.2668 20.889C27.2668 20.856 27.2433 20.832 27.1963 20.817C27.1503 20.801 27.0803 20.793 26.9863 20.793ZM26.8528 19.875H27.0298V19.908C27.0298 19.95 27.0223 19.99 27.0073 20.028C26.9923 20.066 26.9698 20.1015 26.9398 20.1345C26.9108 20.1665 26.8743 20.1955 26.8303 20.2215C26.7863 20.2475 26.7353 20.269 26.6773 20.286C26.6193 20.302 26.5548 20.3135 26.4838 20.3205L26.4148 20.1645C26.4758 20.1595 26.5298 20.151 26.5768 20.139C26.6248 20.126 26.6658 20.111 26.6998 20.094C26.7348 20.077 26.7633 20.0585 26.7853 20.0385C26.8083 20.0175 26.8253 19.996 26.8363 19.974C26.8473 19.952 26.8528 19.93 26.8528 19.908V19.875ZM26.9503 19.875H27.1258V19.908C27.1258 19.93 27.1313 19.9525 27.1423 19.9755C27.1533 19.9975 27.1698 20.0185 27.1918 20.0385C27.2148 20.0585 27.2438 20.077 27.2788 20.094C27.3138 20.111 27.3548 20.126 27.4018 20.139C27.4498 20.151 27.5043 20.1595 27.5653 20.1645L27.4963 20.3205C27.4243 20.3135 27.3593 20.302 27.3013 20.286C27.2443 20.269 27.1938 20.248 27.1498 20.223C27.1058 20.197 27.0688 20.168 27.0388 20.136C27.0098 20.103 26.9878 20.0675 26.9728 20.0295C26.9578 19.9905 26.9503 19.95 26.9503 19.908V19.875ZM26.4763 19.8015H27.5053V19.959H26.4763V19.8015ZM27.7422 20.8185H29.0007V20.9805H27.7422V20.8185ZM28.2702 20.5545H28.4682V20.883H28.2702V20.5545ZM27.8847 19.833H28.8582V20.2965H28.0842V20.529H27.8862V20.1405H28.6602V19.992H27.8847V19.833ZM27.8862 20.451H28.8897V20.61H27.8862V20.451Z" fill="black"/>
</g>
<g id="seongdong">
<path id="&#236;&#132;&#177;&#235;&#143;&#153;&#234;&#181;&#172;" d="M32.9 21.5L39 23.4L36.9 28.3L32.1 27.4L31 25.8L32.9 21.5Z" fill="#AFD88C" stroke="white" stroke-width="0.5"/>
<path id="&#236;&#132;&#177;&#235;&#143;&#153;" d="M33.384 24.8165H33.549V24.9395C33.549 25.0325 33.5345 25.12 33.5055 25.202C33.4775 25.284 33.4345 25.3555 33.3765 25.4165C33.3185 25.4775 33.244 25.5235 33.153 25.5545L33.048 25.394C33.128 25.369 33.1925 25.333 33.2415 25.286C33.2905 25.239 33.3265 25.1855 33.3495 25.1255C33.3725 25.0655 33.384 25.0035 33.384 24.9395V24.8165ZM33.4245 24.8165H33.5865V24.9305C33.5865 24.9915 33.597 25.0505 33.618 25.1075C33.639 25.1635 33.6725 25.2135 33.7185 25.2575C33.7645 25.3005 33.824 25.334 33.897 25.358L33.7935 25.514C33.7085 25.484 33.6385 25.4405 33.5835 25.3835C33.5295 25.3265 33.4895 25.2595 33.4635 25.1825C33.4375 25.1045 33.4245 25.0205 33.4245 24.9305V24.8165ZM34.023 24.7445H34.224V25.5575H34.023V24.7445ZM33.753 25.5935C33.9 25.5935 34.016 25.6175 34.101 25.6655C34.186 25.7125 34.2285 25.778 34.2285 25.862C34.2285 25.948 34.186 26.0145 34.101 26.0615C34.016 26.1095 33.9 26.1335 33.753 26.1335C33.606 26.1335 33.49 26.1095 33.405 26.0615C33.32 26.0145 33.2775 25.948 33.2775 25.862C33.2775 25.778 33.32 25.7125 33.405 25.6655C33.49 25.6175 33.606 25.5935 33.753 25.5935ZM33.753 25.748C33.693 25.748 33.6425 25.752 33.6015 25.76C33.5605 25.768 33.529 25.781 33.507 25.799C33.486 25.816 33.4755 25.837 33.4755 25.862C33.4755 25.888 33.486 25.91 33.507 25.928C33.529 25.945 33.5605 25.958 33.6015 25.967C33.6425 25.975 33.693 25.979 33.753 25.979C33.813 25.979 33.8635 25.975 33.9045 25.967C33.9455 25.958 33.9765 25.945 33.9975 25.928C34.0185 25.91 34.029 25.888 34.029 25.862C34.029 25.837 34.0185 25.816 33.9975 25.799C33.9765 25.781 33.9455 25.768 33.9045 25.76C33.8635 25.752 33.813 25.748 33.753 25.748ZM33.7695 24.9965H34.053V25.1585H33.7695V24.9965ZM34.4429 25.397H35.6984V25.5545H34.4429V25.397ZM34.9709 25.1885H35.1704V25.4585H34.9709V25.1885ZM34.5944 25.1255H35.5559V25.2815H34.5944V25.1255ZM34.5944 24.803H35.5484V24.9605H34.7924V25.2245H34.5944V24.803ZM35.0654 25.6235C35.2154 25.6235 35.3334 25.646 35.4194 25.691C35.5054 25.735 35.5484 25.798 35.5484 25.88C35.5484 25.961 35.5054 26.0235 35.4194 26.0675C35.3334 26.1125 35.2154 26.135 35.0654 26.135C34.9154 26.135 34.7974 26.1125 34.7114 26.0675C34.6264 26.0235 34.5839 25.961 34.5839 25.88C34.5839 25.798 34.6264 25.735 34.7114 25.691C34.7974 25.646 34.9154 25.6235 35.0654 25.6235ZM35.0654 25.775C35.0034 25.775 34.9514 25.779 34.9094 25.787C34.8684 25.794 34.8374 25.8055 34.8164 25.8215C34.7954 25.8365 34.7849 25.8555 34.7849 25.8785C34.7849 25.9025 34.7954 25.9225 34.8164 25.9385C34.8374 25.9535 34.8684 25.965 34.9094 25.973C34.9514 25.98 35.0034 25.9835 35.0654 25.9835C35.1274 25.9835 35.1789 25.98 35.2199 25.973C35.2619 25.965 35.2934 25.9535 35.3144 25.9385C35.3354 25.9225 35.3459 25.9025 35.3459 25.8785C35.3459 25.8555 35.3354 25.8365 35.3144 25.8215C35.2934 25.8055 35.2619 25.794 35.2199 25.787C35.1789 25.779 35.1274 25.775 35.0654 25.775Z" fill="black"/>
</g>
</g>
</svg>
