<svg width="63" height="63" viewBox="0 0 63 63" fill="none" xmlns="http://www.w3.org/2000/svg">
<g id="ulsan">
<g id="Ulju">
<path id="&#236;&#154;&#184;&#236;&#163;&#188;&#234;&#181;&#176;" d="M49.9008 40.4999L49.4008 40.8999L49.6008 42.1999L51.1008 46.5999L49.1008 54.4999L51.7008 57.2999L44.4008 61.9999L39.3008 53.1999H31.1008L33.3008 49.9999L30.5008 45.3999L23.5008 44.1999L12.1008 30.9999L4.30078 31.7999L4.6008 29.1999L1.30078 26.8999L7.40079 23.0999L5.20081 17.4999L10.8008 12.6999L15.2008 13.7999L14.6008 5.99991L23.3008 0.899902L37.5008 4.3999L37.4008 10.6999L42.7008 13.2999L42.1008 21.1999L42.7008 23.8999L37.3008 21.7999L39.0008 26.9999L35.3008 30.2999L49.9008 40.4999Z" fill="#AFD88C" stroke="white" stroke-width="0.5"/>
<path id="&#236;&#154;&#184;&#236;&#163;&#188;" d="M25.176 26.809H25.572V27.199H25.176V26.809ZM25.38 25.513C25.696 25.513 25.942 25.554 26.118 25.636C26.296 25.716 26.385 25.833 26.385 25.987C26.385 26.139 26.296 26.256 26.118 26.338C25.942 26.42 25.696 26.461 25.38 26.461C25.062 26.461 24.814 26.42 24.636 26.338C24.46 26.256 24.372 26.139 24.372 25.987C24.372 25.833 24.46 25.716 24.636 25.636C24.814 25.554 25.062 25.513 25.38 25.513ZM25.377 25.804C25.245 25.804 25.135 25.811 25.047 25.825C24.959 25.837 24.893 25.857 24.849 25.885C24.807 25.911 24.786 25.945 24.786 25.987C24.786 26.029 24.807 26.064 24.849 26.092C24.893 26.118 24.959 26.137 25.047 26.149C25.135 26.161 25.245 26.167 25.377 26.167C25.511 26.167 25.622 26.161 25.71 26.149C25.798 26.137 25.863 26.118 25.905 26.092C25.947 26.064 25.968 26.029 25.968 25.987C25.968 25.945 25.947 25.911 25.905 25.885C25.863 25.857 25.798 25.837 25.71 25.825C25.622 25.811 25.511 25.804 25.377 25.804ZM24.12 26.578H26.634V26.893H24.12V26.578ZM24.408 27.076H26.328V27.787H24.807V28.033H24.411V27.511H25.935V27.37H24.408V27.076ZM24.411 27.946H26.403V28.249H24.411V27.946ZM27.9088 25.795H28.2568V25.879C28.2568 25.975 28.2408 26.068 28.2088 26.158C28.1788 26.248 28.1328 26.332 28.0708 26.41C28.0088 26.486 27.9328 26.555 27.8428 26.617C27.7548 26.677 27.6528 26.728 27.5368 26.77C27.4208 26.812 27.2918 26.842 27.1498 26.86L27.0028 26.551C27.1268 26.535 27.2368 26.511 27.3328 26.479C27.4308 26.445 27.5158 26.406 27.5878 26.362C27.6598 26.316 27.7198 26.267 27.7678 26.215C27.8158 26.163 27.8508 26.108 27.8728 26.05C27.8968 25.992 27.9088 25.935 27.9088 25.879V25.795ZM28.0258 25.795H28.3708V25.879C28.3708 25.935 28.3818 25.992 28.4038 26.05C28.4278 26.108 28.4638 26.163 28.5118 26.215C28.5598 26.267 28.6198 26.316 28.6918 26.362C28.7658 26.406 28.8508 26.445 28.9468 26.479C29.0428 26.511 29.1528 26.535 29.2768 26.551L29.1298 26.86C28.9878 26.842 28.8588 26.812 28.7428 26.77C28.6268 26.728 28.5238 26.677 28.4338 26.617C28.3458 26.555 28.2708 26.486 28.2088 26.41C28.1488 26.332 28.1028 26.248 28.0708 26.158C28.0408 26.068 28.0258 25.975 28.0258 25.879V25.795ZM27.9298 27.25H28.3288V28.267H27.9298V27.25ZM26.8828 27.019H29.3968V27.34H26.8828V27.019ZM27.1048 25.63H29.1658V25.945H27.1048V25.63Z" fill="black"/>
</g>
<g id="ulsan_Bukgu">
<path id="&#235;&#182;&#129;&#234;&#181;&#172;_00000009551120665523072970000015517345454175827332_" d="M42.5012 13.0999L49.7012 7.3999L62.0012 11.5999L62.5012 23.9999L57.6012 26.0999L55.5012 31.4999L53.9012 30.5999L49.2012 27.7999L49.1012 20.6999L41.7012 21.0999L42.5012 13.0999Z" fill="#AFD88C" stroke="white" stroke-width="0.5"/>
<path id="&#235;&#182;&#129;&#234;&#181;&#172;" d="M53.173 18.049H53.572V18.472H53.173V18.049ZM52.12 17.809H54.634V18.127H52.12V17.809ZM52.399 18.361H54.331V19.267H53.932V18.676H52.399V18.361ZM52.441 16.558H52.834V16.801H53.92V16.558H54.316V17.629H52.441V16.558ZM52.834 17.101V17.317H53.92V17.101H52.834ZM55.1708 16.648H56.9108V16.963H55.1708V16.648ZM54.8828 17.83H57.3968V18.154H54.8828V17.83ZM55.9238 18.058H56.3258V19.267H55.9238V18.058ZM56.7068 16.648H57.0998V16.894C57.0998 16.994 57.0978 17.1 57.0938 17.212C57.0918 17.324 57.0838 17.447 57.0698 17.581C57.0558 17.713 57.0298 17.861 56.9918 18.025L56.6018 17.977C56.6538 17.747 56.6838 17.546 56.6918 17.374C56.7018 17.2 56.7068 17.04 56.7068 16.894V16.648Z" fill="black"/>
</g>
<g id="ulsan_Donggu">
<path id="&#235;&#143;&#153;&#234;&#181;&#172;_00000153670336490173914480000007280234862974620039_" d="M62.6008 24L61.9008 36.5L57.1008 39.6L56.8008 38.5V37.3L56.9008 37L55.8008 34.4L55.3008 32.2L55.6008 31.3L57.7008 25.9L62.6008 24Z" fill="#AFD88C" stroke="white" stroke-width="0.5"/>
<path id="&#235;&#143;&#153;&#234;&#181;&#172;" d="M57.105 31.995H59.1975V32.2575H57.105V31.995ZM57.985 31.6475H58.3175V32.0975H57.985V31.6475ZM57.3575 31.5425H58.96V31.8025H57.3575V31.5425ZM57.3575 31.005H58.9475V31.2675H57.6875V31.7075H57.3575V31.005ZM58.1425 32.3725C58.3925 32.3725 58.5892 32.41 58.7325 32.485C58.8758 32.5583 58.9475 32.6633 58.9475 32.8C58.9475 32.935 58.8758 33.0392 58.7325 33.1125C58.5892 33.1875 58.3925 33.225 58.1425 33.225C57.8925 33.225 57.6958 33.1875 57.5525 33.1125C57.4108 33.0392 57.34 32.935 57.34 32.8C57.34 32.6633 57.4108 32.5583 57.5525 32.485C57.6958 32.41 57.8925 32.3725 58.1425 32.3725ZM58.1425 32.625C58.0392 32.625 57.9525 32.6317 57.8825 32.645C57.8142 32.6567 57.7625 32.6758 57.7275 32.7025C57.6925 32.7275 57.675 32.7592 57.675 32.7975C57.675 32.8375 57.6925 32.8708 57.7275 32.8975C57.7625 32.9225 57.8142 32.9417 57.8825 32.955C57.9525 32.9667 58.0392 32.9725 58.1425 32.9725C58.2458 32.9725 58.3317 32.9667 58.4 32.955C58.47 32.9417 58.5225 32.9225 58.5575 32.8975C58.5925 32.8708 58.61 32.8375 58.61 32.7975C58.61 32.7592 58.5925 32.7275 58.5575 32.7025C58.5225 32.6758 58.47 32.6567 58.4 32.645C58.3317 32.6317 58.2458 32.625 58.1425 32.625ZM59.6423 31.04H61.0923V31.3025H59.6423V31.04ZM59.4023 32.025H61.4973V32.295H59.4023V32.025ZM60.2698 32.215H60.6048V33.2225H60.2698V32.215ZM60.9223 31.04H61.2498V31.245C61.2498 31.3283 61.2481 31.4167 61.2448 31.51C61.2431 31.6033 61.2365 31.7058 61.2248 31.8175C61.2131 31.9275 61.1915 32.0508 61.1598 32.1875L60.8348 32.1475C60.8781 31.9558 60.9031 31.7883 60.9098 31.645C60.9181 31.5 60.9223 31.3667 60.9223 31.245V31.04Z" fill="black"/>
</g>
<g id="ulsan_Namgu">
<path id="&#235;&#130;&#168;&#234;&#181;&#172;_00000116235787361681521350000007395983019771300517_" d="M38.8015 26.7L49.4016 27.7L53.3015 30.8999H50.7016L54.2016 32.7999L54.7016 34.5999L50.4016 34.2L54.8015 37.2L50.7016 41.5999L50.0016 40.4999L35.1016 29.9999L38.8015 26.7Z" fill="#AFD88C" stroke="white" stroke-width="0.5"/>
<path id="&#235;&#130;&#168;&#234;&#181;&#172;" d="M44.908 30.486H45.307V32.052H44.908V30.486ZM45.199 31.071H45.676V31.398H45.199V31.071ZM43.501 32.178H45.307V33.237H43.501V32.178ZM44.92 32.493H43.894V32.922H44.92V32.493ZM43.234 30.618H43.633V31.755H43.234V30.618ZM43.234 31.584H43.465C43.655 31.584 43.852 31.577 44.056 31.563C44.262 31.547 44.474 31.518 44.692 31.476L44.737 31.794C44.513 31.84 44.294 31.872 44.08 31.89C43.868 31.906 43.663 31.914 43.465 31.914H43.234V31.584ZM46.1708 30.648H47.9108V30.963H46.1708V30.648ZM45.8828 31.83H48.3968V32.154H45.8828V31.83ZM46.9238 32.058H47.3258V33.267H46.9238V32.058ZM47.7068 30.648H48.0998V30.894C48.0998 30.994 48.0978 31.1 48.0938 31.212C48.0918 31.324 48.0838 31.447 48.0698 31.581C48.0558 31.713 48.0298 31.861 47.9918 32.025L47.6018 31.977C47.6538 31.747 47.6838 31.546 47.6918 31.374C47.7018 31.2 47.7068 31.04 47.7068 30.894V30.648Z" fill="black"/>
</g>
<g id="ulsan_Junggu">
<path id="&#236;&#164;&#145;&#234;&#181;&#172;_00000032630116403187728130000008423414302185526412_" d="M41.9016 20.9998L49.2016 20.5999L49.4016 27.6999L38.8015 26.6999L37.1016 21.4998L42.5016 23.5999L41.9016 20.9998Z" fill="#AFD88C" stroke="white" stroke-width="0.5"/>
<path id="&#236;&#164;&#145;&#234;&#181;&#172;" d="M44.6817 24.07H45.0117V24.4775H44.6817V24.07ZM43.7992 23.9575H45.8942V24.2225H43.7992V23.9575ZM44.8417 24.385C45.0917 24.385 45.2884 24.4217 45.4317 24.495C45.5751 24.5667 45.6467 24.67 45.6467 24.805C45.6467 24.9367 45.5751 25.0392 45.4317 25.1125C45.2884 25.1858 45.0917 25.2225 44.8417 25.2225C44.5917 25.2225 44.3951 25.1858 44.2517 25.1125C44.1101 25.0392 44.0392 24.9367 44.0392 24.805C44.0392 24.67 44.1101 24.5667 44.2517 24.495C44.3951 24.4217 44.5917 24.385 44.8417 24.385ZM44.8417 24.6375C44.7384 24.6375 44.6517 24.6433 44.5817 24.655C44.5134 24.6667 44.4617 24.685 44.4267 24.71C44.3917 24.7333 44.3742 24.765 44.3742 24.805C44.3742 24.8417 44.3917 24.8725 44.4267 24.8975C44.4617 24.9225 44.5134 24.9408 44.5817 24.9525C44.6517 24.9642 44.7384 24.97 44.8417 24.97C44.9451 24.97 45.0309 24.9642 45.0992 24.9525C45.1692 24.9408 45.2217 24.9225 45.2567 24.8975C45.2917 24.8725 45.3092 24.8417 45.3092 24.805C45.3092 24.765 45.2917 24.7333 45.2567 24.71C45.2217 24.685 45.1692 24.6667 45.0992 24.655C45.0309 24.6433 44.9451 24.6375 44.8417 24.6375ZM44.6192 23.125H44.9142V23.18C44.9142 23.25 44.9017 23.3167 44.8767 23.38C44.8517 23.4433 44.8142 23.5025 44.7642 23.5575C44.7159 23.6108 44.6551 23.6592 44.5817 23.7025C44.5084 23.7458 44.4234 23.7817 44.3267 23.81C44.2301 23.8383 44.1226 23.8583 44.0042 23.87L43.8892 23.6075C43.9909 23.5992 44.0809 23.585 44.1592 23.565C44.2392 23.545 44.3076 23.5208 44.3642 23.4925C44.4226 23.4625 44.4701 23.4308 44.5067 23.3975C44.5451 23.3625 44.5734 23.3267 44.5917 23.29C44.6101 23.2533 44.6192 23.2167 44.6192 23.18V23.125ZM44.7817 23.125H45.0742V23.18C45.0742 23.2167 45.0834 23.2542 45.1017 23.2925C45.1201 23.3292 45.1476 23.3642 45.1842 23.3975C45.2226 23.4308 45.2701 23.4625 45.3267 23.4925C45.3851 23.5208 45.4534 23.545 45.5317 23.565C45.6117 23.585 45.7026 23.5992 45.8042 23.6075L45.6892 23.87C45.5709 23.8583 45.4634 23.8383 45.3667 23.81C45.2701 23.7817 45.1851 23.7467 45.1117 23.705C45.0401 23.6617 44.9792 23.6133 44.9292 23.56C44.8809 23.505 44.8442 23.4458 44.8192 23.3825C44.7942 23.3175 44.7817 23.25 44.7817 23.18V23.125ZM43.9917 23.0025H45.7067V23.265H43.9917V23.0025ZM46.3415 23.04H47.7915V23.3025H46.3415V23.04ZM46.1015 24.025H48.1965V24.295H46.1015V24.025ZM46.969 24.215H47.304V25.2225H46.969V24.215ZM47.6215 23.04H47.949V23.245C47.949 23.3283 47.9474 23.4167 47.944 23.51C47.9424 23.6033 47.9357 23.7058 47.924 23.8175C47.9124 23.9275 47.8907 24.0508 47.859 24.1875L47.534 24.1475C47.5774 23.9558 47.6024 23.7883 47.609 23.645C47.6174 23.5 47.6215 23.3667 47.6215 23.245V23.04Z" fill="black"/>
</g>
</g>
</svg>
